<?xml version="1.0" standalone="no"?>
<!DOCTYPE svg PUBLIC "-//W3C//DTD SVG 1.1//EN" "http://www.w3.org/Graphics/SVG/1.1/DTD/svg11.dtd" >
<svg xmlns="http://www.w3.org/2000/svg" xmlns:xlink="http://www.w3.org/1999/xlink" version="1.1">
<metadata>
Created by FontForge 20230101 at Mon Sep 19 13:47:51 2016
 By Unknown
Copyright (c) 2008 by studio kmzero. All rights reserved.
</metadata>
<defs>
<font id="Duepuntozero" horiz-adv-x="436" >
  <font-face 
    font-family="Duepuntozero"
    font-weight="400"
    font-stretch="normal"
    units-per-em="1000"
    panose-1="2 0 5 7 0 0 0 2 0 4"
    ascent="800"
    descent="-200"
    x-height="495"
    cap-height="660"
    bbox="-110 -258 1591 863"
    underline-thickness="50"
    underline-position="-100"
    unicode-range="U+0020-FB02"
  />
<missing-glyph horiz-adv-x="265" 
 />
    <glyph glyph-name=".notdef" horiz-adv-x="265" 
 />
    <glyph glyph-name="b" unicode="b" horiz-adv-x="434" 
d="M33 634q0 16 11 27t27 11q15 0 26.5 -11t11.5 -27v-168q22 16 49 25t56 9q37 0 70 -14t58 -38.5t39 -57.5t14 -70v-144q0 -37 -14.5 -70t-39 -57.5t-57.5 -38.5t-70 -14q-38 0 -70.5 14t-57.5 38.5t-39 57.5t-14 70v458zM109 176q0 -21 8 -40t22.5 -33.5t33.5 -22.5
t41 -8q21 0 40.5 8t33.5 22.5t22.5 33.5t8.5 40v144q0 21 -8 40t-22.5 33.5t-33.5 22.5t-41 8q-21 0 -40 -8t-33 -21.5t-22.5 -31.5t-9.5 -39v-148z" />
    <glyph glyph-name="c" unicode="c" horiz-adv-x="415" 
d="M29 320q0 38 14.5 71t40 57t59 38t71.5 14q7 0 27.5 -2.5t45.5 -13.5t49.5 -33.5t40.5 -62.5q3 -8 3 -14q0 -16 -11 -27t-27 -11q-12 0 -21.5 6.5t-13.5 17.5q-14 30 -40 47t-57 17q-22 0 -41 -8t-33.5 -22.5t-22.5 -33.5t-8 -40v-144q0 -21 8.5 -40t22.5 -33.5
t33.5 -22.5t40.5 -8q32 0 58 17t39 47q5 11 14 17.5t21 6.5q16 0 27 -11.5t11 -26.5q0 -7 -3 -14q-20 -44 -48 -67t-54.5 -33t-45 -11t-19.5 -1q-37 0 -70 14t-57.5 38.5t-39 57.5t-14.5 70v144z" />
    <glyph glyph-name="d" unicode="d" horiz-adv-x="434" 
d="M315 634q0 16 11 27t27 11q15 0 26.5 -11t11.5 -27v-458q0 -37 -14.5 -70t-39 -57.5t-57.5 -38.5t-70 -14q-38 0 -70.5 14t-57.5 38.5t-39 57.5t-14 70v144q0 37 14.5 70t39 57.5t57.5 38.5t70 14q29 0 55.5 -9t49.5 -25v168zM105 176q0 -21 8 -40t22.5 -33.5t33.5 -22.5
t41 -8q21 0 40.5 8t33.5 22.5t22.5 33.5t8.5 40v144q0 21 -8 40t-22.5 33.5t-33.5 22.5t-41 8q-21 0 -40.5 -8t-33.5 -22.5t-22.5 -33.5t-8.5 -40v-144z" />
    <glyph glyph-name="e" unicode="e" horiz-adv-x="430" 
d="M29 320q0 37 14 70t39 57.5t57.5 38.5t70.5 14q37 0 70 -14t57.5 -38.5t39 -57.5t14.5 -70v-72q0 -16 -11 -27t-27 -11h-248v-34q0 -21 8.5 -40t22.5 -33.5t33.5 -22.5t40.5 -8q32 0 57.5 16.5t38.5 44.5l1 3q4 11 13.5 17.5t21.5 6.5q16 0 27 -11.5t11 -26.5
q0 -7 -3 -14l-2 -4q-21 -48 -65 -78t-100 -30q-37 0 -70 14t-57.5 38.5t-39 57.5t-14.5 70v144zM105 286h210v34q0 21 -8.5 40t-22.5 33.5t-33.5 22.5t-40.5 8q-22 0 -41 -8t-33.5 -22.5t-22.5 -33.5t-8 -40v-34z" />
    <glyph glyph-name="n" unicode="n" 
d="M32 320q0 37 14 70t39 57.5t57.5 38.5t70.5 14q37 0 70 -14t57.5 -38.5t39 -57.5t14.5 -70v-282q0 -16 -11.5 -27t-26.5 -11q-16 0 -27 11t-11 27v282q0 21 -8.5 40t-22.5 33.5t-33.5 22.5t-40.5 8q-22 0 -41 -8t-33.5 -22.5t-22.5 -33.5t-8 -40v-282q0 -16 -11.5 -27
t-26.5 -11q-16 0 -27 11t-11 27v282z" />
    <glyph glyph-name="o" unicode="o" horiz-adv-x="430" 
d="M29 320q0 37 14 70t39 57.5t57.5 38.5t70.5 14q37 0 70 -14t57.5 -38.5t39 -57.5t14.5 -70v-144q0 -37 -14 -70t-39 -57.5t-58 -38.5t-70 -14t-70 14t-57.5 38.5t-39 57.5t-14.5 70v144zM105 176q0 -21 8.5 -40t22.5 -33.5t33.5 -22.5t40.5 -8q22 0 41 8t33.5 22.5
t22.5 33.5t8 40v144q0 21 -8.5 40t-22.5 33.5t-33.5 22.5t-40.5 8q-22 0 -41 -8t-33.5 -22.5t-22.5 -33.5t-8 -40v-144z" />
    <glyph glyph-name="p" unicode="p" horiz-adv-x="433" 
d="M32 320q0 37 14 70t39 57.5t57.5 38.5t70.5 14q37 0 70 -14t57.5 -38.5t39 -57.5t14.5 -70v-144q0 -37 -14 -70t-39 -57.5t-58 -38.5t-70 -14q-29 0 -56 9t-49 25v-168q0 -16 -11.5 -27t-26.5 -11q-16 0 -27 11t-11 27v306v152zM108 176q0 -21 8.5 -40t22.5 -33.5
t33.5 -22.5t40.5 -8q22 0 41 8t33.5 22.5t22.5 33.5t8 40v144q0 21 -8.5 40t-22.5 33.5t-33.5 22.5t-40.5 8q-22 0 -41 -8t-33.5 -22.5t-22.5 -33.5t-8 -40v-144z" />
    <glyph glyph-name="q" unicode="q" horiz-adv-x="433" 
d="M29 320q0 37 14.5 70t39 57.5t57.5 38.5t70 14t70 -14t58 -38.5t39 -57.5t14 -70v-152v-306q0 -16 -11 -27t-27 -11q-15 0 -26.5 11t-11.5 27v168q-22 -16 -49 -25t-56 -9q-38 0 -70.5 14t-57.5 38.5t-39 57.5t-14 70v144zM105 176q0 -21 8 -40t22.5 -33.5t33.5 -22.5
t41 -8q21 0 40.5 8t33.5 22.5t22.5 33.5t8.5 40v144q0 21 -8 40t-22.5 33.5t-33.5 22.5t-41 8q-21 0 -40.5 -8t-33.5 -22.5t-22.5 -33.5t-8.5 -40v-144z" />
    <glyph glyph-name="u" unicode="u" 
d="M32 458q0 16 11 27t27 11q15 0 26.5 -11t11.5 -27v-282q0 -21 8 -40t22.5 -33.5t33.5 -22.5t41 -8q21 0 40.5 8t33.5 22.5t22.5 33.5t8.5 40v282q0 16 11 27t27 11q15 0 26.5 -11t11.5 -27v-282q0 -37 -14.5 -70t-39 -57.5t-57.5 -38.5t-70 -14q-38 0 -70.5 14
t-57.5 38.5t-39 57.5t-14 70v282z" />
    <glyph glyph-name="h" unicode="h" horiz-adv-x="437" 
d="M33 634q0 16 11 27t27 11q15 0 26.5 -11t11.5 -27v-168q22 16 49 25t56 9q37 0 70 -14t57.5 -38.5t39 -57.5t14.5 -70v-282q0 -16 -11.5 -27t-26.5 -11q-16 0 -27 11t-11 27v282q0 21 -8.5 40t-22.5 33.5t-33.5 22.5t-40.5 8q-22 0 -40.5 -8t-33 -21.5t-22.5 -31.5
t-9 -39v-286q0 -16 -11.5 -27t-26.5 -11q-16 0 -27 11t-11 27v289v307z" />
    <glyph glyph-name="g" unicode="g" horiz-adv-x="433" 
d="M29 320q0 37 14 70t39 57.5t57.5 38.5t70.5 14q37 0 70 -14t57.5 -38.5t39 -57.5t14.5 -70v-316q0 -37 -14.5 -70t-39 -57.5t-57.5 -38.5t-70 -14q-16 0 -27 11t-11 27t11 27t27 11q21 0 40.5 8t33.5 22.5t22.5 33.5t8.5 40v25q-47 -33 -105 -33q-37 0 -70 14t-57.5 38.5
t-39 57.5t-14.5 70v144zM105 176q0 -21 8.5 -40t22.5 -33.5t33.5 -22.5t40.5 -8t40 7.5t33 21t22.5 31.5t9.5 39v149q0 21 -8.5 40t-22.5 33.5t-33.5 22.5t-40.5 8q-22 0 -41 -8t-33.5 -22.5t-22.5 -33.5t-8 -40v-144z" />
    <glyph glyph-name="i" unicode="i" horiz-adv-x="142" 
d="M33 458q0 16 11 27t27 11q15 0 26.5 -11t11.5 -27v-420q0 -16 -11 -27t-27 -11q-15 0 -26.5 11t-11.5 27v420zM33 634q0 16 11 27t27 11q15 0 26.5 -11t11.5 -27v-29q0 -16 -11 -27t-27 -11q-15 0 -26.5 11t-11.5 27v29z" />
    <glyph glyph-name="r" unicode="r" horiz-adv-x="334" 
d="M33 458q0 16 11 27t27 11q13 0 23.5 -8.5t13.5 -22.5q47 35 110 35l17.5 -1.5t38 -7.5t37.5 -17.5t17 -32.5q0 -17 -11 -27.5t-27 -10.5q-13 0 -23 7q-25 14 -53 14q-22 0 -40.5 -8t-33 -21.5t-22.5 -31.5t-9 -39v-286q0 -16 -11 -27t-27 -11q-15 0 -26.5 11t-11.5 27
v289v131z" />
    <glyph glyph-name="m" unicode="m" horiz-adv-x="663" 
d="M32 320q0 37 12.5 70t35.5 57.5t54 38.5t69 14q42 0 76 -18t57 -47q23 29 57 47t76 18q37 0 68.5 -14t54 -38.5t35.5 -57.5t13 -70v-282q0 -16 -11.5 -27t-26.5 -11q-16 0 -27 11t-11 27v282q0 43 -26 73.5t-69 30.5q-45 0 -70 -30.5t-25 -73.5v-282q0 -16 -11.5 -27
t-26.5 -11q-16 0 -27 11t-11 27v282q0 43 -26 73.5t-69 30.5q-45 0 -70 -30.5t-25 -73.5v-282q0 -16 -11.5 -27t-26.5 -11q-16 0 -27 11t-11 27v282z" />
    <glyph glyph-name="t" unicode="t" horiz-adv-x="392" 
d="M33 623q0 16 11 27t27 11q15 0 26.5 -11t11.5 -27v-127h194q16 0 27 -11t11 -27q0 -15 -11 -26.5t-27 -11.5h-194v-244q0 -21 8.5 -40t22.5 -33.5t33.5 -22.5t40.5 -8q32 0 58 17t39 47q5 11 14 17.5t21 6.5q16 0 27 -11.5t11 -26.5q0 -7 -3 -14q-20 -44 -48 -67
t-54.5 -33t-45 -11t-19.5 -1q-37 0 -70 14t-57.5 38.5t-39 57.5t-14.5 70v447z" />
    <glyph glyph-name="s" unicode="s" horiz-adv-x="419" 
d="M34 360q0 31 13 57t35.5 44.5t54 28.5t68.5 10q30 -1 58 -9q24 -7 49 -22.5t42 -43.5q7 -14 7 -24q0 -15 -10.5 -26t-25.5 -11q-18 0 -31 16q-19 23 -38 33.5t-51 10.5q-43 0 -69 -18.5t-26 -45.5q0 -36 25 -50t70 -14q37 0 70 -9.5t57.5 -28.5t39 -47t14.5 -65
q0 -38 -14.5 -66t-40 -47t-59 -28t-70.5 -9q-8 0 -29.5 2.5t-47.5 13.5t-52.5 33.5t-44.5 62.5q-3 7 -3 14q0 15 10.5 26.5t27.5 11.5q12 0 21 -6.5t14 -17.5q13 -30 44 -47t63 -17q21 0 40.5 3.5t33.5 12t22.5 23t8.5 35.5q0 43 -30.5 58.5t-74.5 15.5q-37 0 -68.5 7
t-54 23.5t-35.5 43t-13 66.5z" />
    <glyph glyph-name="l" unicode="l" horiz-adv-x="142" 
d="M33 622q0 16 11 27t27 11q15 0 26.5 -11t11.5 -27v-584q0 -16 -11 -27t-27 -11q-15 0 -26.5 11t-11.5 27v584z" />
    <glyph glyph-name="j" unicode="j" horiz-adv-x="153" 
d="M44 458q0 16 11.5 27t26.5 11q16 0 27 -11t11 -27v-454q0 -37 -14.5 -70t-39 -57.5t-57.5 -38.5t-70 -14q-16 0 -27 11t-11 27t11 27t27 11q21 0 39.5 8t33 21.5t23 31.5t9.5 39v458zM44 634q0 16 11 27t27 11q15 0 26.5 -11t11.5 -27v-29q0 -16 -11 -27t-27 -11
q-15 0 -26.5 11t-11.5 27v29z" />
    <glyph glyph-name="f" unicode="f" horiz-adv-x="386" 
d="M33 492q0 38 14.5 71t39.5 57t58.5 38t71.5 14q7 0 26.5 -2.5t44.5 -13.5t50 -33.5t43 -62.5q3 -8 3 -14q0 -16 -11 -27t-27 -11q-25 0 -35 24q-13 30 -39 47t-58 17q-21 0 -40.5 -8t-33.5 -22.5t-22.5 -33.5t-8.5 -40v-206h108q16 0 27 -11.5t11 -26.5q0 -16 -11 -27
t-27 -11h-108v-172q0 -16 -11.5 -27t-26.5 -11q-16 0 -27 11t-11 27v454z" />
    <glyph glyph-name="w" unicode="w" horiz-adv-x="663" 
d="M32 458q0 16 11.5 27t26.5 11q16 0 27 -11t11 -27v-282q0 -43 26 -73.5t69 -30.5q45 0 70 30.5t25 73.5v282q0 16 11.5 27t26.5 11q16 0 27 -11t11 -27v-282q0 -43 26 -73.5t69 -30.5q45 0 70 30.5t25 73.5v282q0 16 11.5 27t26.5 11q16 0 27 -11t11 -27v-282
q0 -37 -12.5 -70t-35.5 -57.5t-54.5 -38.5t-68.5 -14q-42 0 -76 18t-57 47q-23 -29 -57 -47t-76 -18q-37 0 -68.5 14t-54 38.5t-35.5 57.5t-13 70v282z" />
    <glyph glyph-name="v" unicode="v" horiz-adv-x="476" 
d="M19 444q-3 7 -3 15q0 14 10 26t27 12q11 0 20.5 -6t14.5 -17l148 -345l148 345q10 23 35 23q17 0 27 -12t10 -26q0 -8 -3 -15l-182 -425q-11 -23 -35 -23q-26 0 -35 23z" />
    <glyph glyph-name="k" unicode="k" horiz-adv-x="421" 
d="M33 622q0 16 11 27t27 11q15 0 26.5 -11t11.5 -27v-289l196 158q10 9 24 9t25.5 -10.5t11.5 -27.5q0 -18 -13 -30l-161 -130l202 -240q10 -10 10 -25q0 -14 -11 -25.5t-27 -11.5q-18 0 -30 13l-203 242l-24 -19v-198q0 -16 -11 -27t-27 -11q-15 0 -26.5 11t-11.5 27v584z
" />
    <glyph glyph-name="x" unicode="x" horiz-adv-x="495" 
d="M43 433q-9 10 -9 24q0 15 11.5 26.5t28.5 11.5q8 0 15.5 -3t12.5 -10l143 -175l143 175q5 7 12.5 10t15.5 3q17 0 28 -11.5t11 -26.5q0 -6 -1.5 -12.5t-6.5 -11.5l-153 -186l153 -186q8 -9 8 -25q0 -14 -11 -26t-28 -12t-28 14l-143 174l-143 -174q-11 -14 -28 -14
t-28.5 12t-11.5 26t9 25l152 186z" />
    <glyph glyph-name="z" unicode="z" horiz-adv-x="431" 
d="M75 420q-16 0 -27 11t-11 27q0 15 11 26.5t27 11.5h271q20 0 34.5 -9t14.5 -27q0 -12 -6 -22l-255 -362h227q16 0 27 -11t11 -27q0 -15 -11 -26.5t-27 -11.5h-294q-21 0 -33.5 10.5t-12.5 26.5q0 12 7 22l254 361h-207z" />
    <glyph glyph-name="y" unicode="y" 
d="M32 458q0 16 11 27t27 11q15 0 26.5 -11t11.5 -27v-282q0 -21 8 -40t22.5 -33.5t33.5 -22.5t41 -8q21 0 40.5 8t33.5 22.5t22.5 33.5t8.5 40v282q0 16 11 27t27 11q15 0 26.5 -11t11.5 -27v-282q0 -32 -11 -61.5t-30 -52.5t-45.5 -39.5t-56.5 -22.5v-138q0 -16 -11 -27
t-27 -11q-15 0 -26.5 11t-11.5 27v138q-31 6 -57 22.5t-45 39.5t-30 52.5t-11 61.5v282z" />
    <glyph glyph-name="O" unicode="O" horiz-adv-x="544" 
d="M28 444q0 49 19 92t51 75.5t75.5 51t93.5 18.5q49 0 92 -18.5t75.5 -51t51.5 -75.5t19 -92v-228q0 -49 -19 -92t-51 -75.5t-75.5 -51t-92.5 -18.5t-92.5 18.5t-76 51t-51.5 75.5t-19 92v228zM104 216q0 -33 13 -62.5t35 -51t52 -34.5t63 -13q34 0 63.5 13t51.5 34.5
t34.5 51t12.5 62.5v228q0 33 -13 62.5t-35 51t-51.5 34.5t-62.5 13q-34 0 -64 -13t-52 -34.5t-34.5 -51t-12.5 -62.5v-228z" />
    <glyph glyph-name="Q" unicode="Q" horiz-adv-x="544" 
d="M28 445q0 49 19 92t51 75.5t75.5 51t93.5 18.5q49 0 92 -18.5t75.5 -51t51.5 -75.5t19 -92v-232q0 -44 -15.5 -83.5t-42.5 -70.5t-63.5 -52t-78.5 -28v-67q0 -16 -11 -27t-27 -11q-15 0 -26.5 11t-11.5 27v67q-42 7 -79 28t-64 52t-42.5 70.5t-15.5 83.5v232zM104 213
q0 -33 13 -62.5t35 -51t52 -34.5t63 -13q34 0 63.5 13t51.5 34.5t34.5 51t12.5 62.5v232q0 33 -13 62.5t-35 51t-51.5 34.5t-62.5 13q-34 0 -64 -13t-52 -34.5t-34.5 -51t-12.5 -62.5v-232z" />
    <glyph glyph-name="U" unicode="U" horiz-adv-x="551" 
d="M32 622q0 16 11 27t27 11q15 0 26.5 -11t11.5 -27v-406q0 -33 13 -62.5t35 -51t52 -34.5t63 -13q34 0 63.5 13t51.5 34.5t34.5 51t12.5 62.5v406q0 16 11 27t27 11q15 0 26.5 -11t11.5 -27v-406q0 -49 -19 -92t-51 -75.5t-75.5 -51t-92.5 -18.5t-92.5 18.5t-76 51
t-51.5 75.5t-19 92v406z" />
    <glyph glyph-name="N" unicode="N" horiz-adv-x="550" 
d="M32 427q0 49 19 92t51 75t75.5 51t92.5 19t92.5 -19t76 -51t51.5 -75t19 -92v-389q0 -16 -11 -27t-27 -11q-15 0 -26.5 11t-11.5 27v389q0 33 -13 62.5t-35 51t-52 34.5t-63 13q-34 0 -63.5 -13t-51.5 -34.5t-34.5 -51t-12.5 -62.5v-389q0 -16 -11 -27t-27 -11
q-15 0 -26.5 11t-11.5 27v389z" />
    <glyph glyph-name="I" unicode="I" horiz-adv-x="146" 
d="M35 622q0 16 11 27t27 11q15 0 26.5 -11t11.5 -27v-584q0 -16 -11 -27t-27 -11q-15 0 -26.5 11t-11.5 27v584z" />
    <glyph glyph-name="J" unicode="J" horiz-adv-x="261" 
d="M150 622q0 16 11.5 27t26.5 11q16 0 27 -11t11 -27v-446q0 -37 -14.5 -70t-39 -57.5t-57.5 -38.5t-70 -14q-16 0 -27 11t-11 27t11 27t27 11q21 0 39.5 8t33 21.5t23 31.5t9.5 39v450z" />
    <glyph glyph-name="M" unicode="M" horiz-adv-x="863" 
d="M32 427q0 49 17 92t47.5 75t72 51t90.5 19q60 0 104 -23.5t73 -62.5q32 38 74.5 62t101.5 24q49 0 91 -19t72.5 -51t47.5 -75t17 -92v-389q0 -16 -11.5 -27t-26.5 -11q-16 0 -27 11t-11 27v389q0 33 -11 62.5t-31 51t-48 34.5t-62 13q-33 0 -59 -13t-43.5 -34.5
t-26.5 -51t-9 -62.5v-389q0 -16 -11 -27t-27 -11t-27 11t-11 27v390q0 33 -9.5 62t-27 50.5t-43.5 34.5t-59 13t-61 -13t-48 -34.5t-31 -51t-11 -62.5v-389q0 -16 -11.5 -27t-26.5 -11q-16 0 -27 11t-11 27v389z" />
    <glyph glyph-name="C" unicode="C" horiz-adv-x="524" 
d="M28 445q0 49 19 92t51 75.5t75.5 51t93.5 18.5q36 0 69.5 -10.5t62 -30t50.5 -46t36 -58.5q3 -7 4 -10.5t1 -8.5q0 -14 -10 -26t-28 -12q-23 0 -34 22q-18 45 -59 74.5t-92 29.5q-34 0 -64 -13t-52 -34.5t-34.5 -51t-12.5 -62.5v-229q0 -33 13 -62.5t35 -51t52 -34.5
t63 -13q54 0 94 29.5t58 75.5q4 11 13.5 16t19.5 5q17 0 27.5 -12t10.5 -26q0 -8 -3 -15q-13 -33 -35 -60t-50.5 -47t-63 -31t-71.5 -11q-49 0 -92.5 18.5t-76 51t-51.5 75.5t-19 92v229z" />
    <glyph glyph-name="G" unicode="G" horiz-adv-x="544" 
d="M28 444q0 49 19 92t51 75.5t75.5 51t93.5 18.5q37 0 71 -11t62.5 -30.5t51 -46.5t35.5 -60q3 -8 3 -16q0 -14 -10 -26t-28 -12q-10 0 -19.5 5.5t-14.5 16.5q-19 45 -59.5 74.5t-91.5 29.5q-34 0 -64 -13t-52 -34.5t-34.5 -51t-12.5 -62.5v-228q0 -33 13 -62.5t35 -51
t52 -34.5t63 -13q34 0 63.5 13t51.5 34.5t34.5 51t12.5 62.5v49h-77q-16 0 -27 11t-11 27q0 15 11 26.5t27 11.5h115q16 0 27 -11t11 -27v-87q0 -49 -19 -92t-51 -75.5t-75.5 -51t-92.5 -18.5t-92.5 18.5t-76 51t-51.5 75.5t-19 92v228z" />
    <glyph glyph-name="T" unicode="T" horiz-adv-x="515" 
d="M52 584q-16 0 -27 11t-11 27q0 15 11 26.5t27 11.5h401q16 0 27 -11t11 -27q0 -15 -11 -26.5t-27 -11.5h-163v-546q0 -16 -11 -27t-27 -11q-15 0 -26.5 11t-11.5 27v546h-162z" />
    <glyph glyph-name="H" unicode="H" horiz-adv-x="557" 
d="M35 622q0 16 11.5 27t26.5 11q16 0 27 -11t11 -27v-264h325v264q0 16 11.5 27t26.5 11q16 0 27 -11t11 -27v-584q0 -16 -11.5 -27t-26.5 -11q-16 0 -27 11t-11 27v244h-325v-244q0 -16 -11.5 -27t-26.5 -11q-16 0 -27 11t-11 27v584z" />
    <glyph glyph-name="P" unicode="P" horiz-adv-x="531" 
d="M35 622q0 16 11 27t27 11h200h1q49 0 92 -18.5t75.5 -50t51.5 -74.5t19 -92t-19 -91.5t-51 -74.5t-75.5 -50.5t-92.5 -18.5h-163v-152q0 -16 -11 -27t-27 -11q-15 0 -26.5 11t-11.5 27v584zM111 584v-318h163q34 0 63.5 12.5t51.5 34t34.5 50.5t12.5 62t-13 62t-35 50.5
t-51.5 34t-62.5 12.5h-163z" />
    <glyph glyph-name="W" unicode="W" horiz-adv-x="863" 
d="M32 622q0 16 11.5 27t26.5 11q16 0 27 -11t11 -27v-406q0 -33 11 -62.5t31 -51t48 -34.5t62 -13q33 0 59 13t43.5 34.5t26.5 51t9 62.5v406q0 16 11 27t27 11t27 -11t11 -27v-407q0 -33 9.5 -62t27 -50.5t43.5 -34.5t59 -13t61 13t48 34.5t31 51t11 62.5v406
q0 16 11.5 27t26.5 11q16 0 27 -11t11 -27v-406q0 -49 -17 -92t-47.5 -75.5t-72 -51t-90.5 -18.5q-60 0 -104 23.5t-73 62.5q-32 -38 -74.5 -62t-101.5 -24q-49 0 -91 18.5t-72.5 51t-47.5 75.5t-17 92v406z" />
    <glyph glyph-name="E" unicode="E" horiz-adv-x="555" 
d="M35 622q0 16 11 27t27 11h401q16 0 27 -11t11 -27q0 -15 -11 -26.5t-27 -11.5h-363v-226h213q16 0 27 -11t11 -27q0 -15 -11 -26.5t-27 -11.5h-213v-206h363q16 0 27 -11t11 -27q0 -15 -11 -26.5t-27 -11.5h-398h-3q-15 0 -26.5 11t-11.5 27v584z" />
    <glyph glyph-name="F" unicode="F" horiz-adv-x="525" 
d="M35 622q0 15 10.5 26t25.5 12h5h398q16 0 27 -11t11 -27q0 -15 -11 -26.5t-27 -11.5h-363v-226h213q16 0 27 -11t11 -27q0 -15 -11 -26.5t-27 -11.5h-213v-244q0 -16 -11 -27t-27 -11q-15 0 -26.5 11t-11.5 27v584z" />
    <glyph glyph-name="D" unicode="D" horiz-adv-x="550" 
d="M35 622q0 16 11 27t27 11h200q49 0 93 -18.5t76 -50.5t51 -74.5t19 -91.5v-190q0 -49 -19 -91.5t-51 -74.5t-75.5 -50.5t-92.5 -18.5h-201q-15 0 -26.5 11t-11.5 27v584zM111 584v-508h163q34 0 63.5 12.5t51.5 34t34.5 50.5t12.5 62v190q0 33 -12.5 62t-34.5 50.5
t-52 34t-64 12.5h-162z" />
    <glyph glyph-name="B" unicode="B" horiz-adv-x="543" 
d="M35 622q0 16 11 27t27 11h200q28 0 52.5 -10.5t43 -28.5t29 -42t10.5 -52q0 -23 -7.5 -44t-20.5 -38q59 -29 95.5 -84.5t36.5 -125.5q0 -49 -19 -91.5t-51 -74.5t-75.5 -50.5t-92.5 -18.5h-201q-15 0 -26.5 11t-11.5 27v584zM111 394v-318h163q34 0 63.5 12.5t51.5 34
t34.5 50.5t12.5 62q0 32 -12.5 60.5t-34.5 50t-51.5 34.5t-63.5 14h-163zM111 584v-114h163q24 0 41 16.5t17 40.5t-17.5 40.5t-41.5 16.5h-162z" />
    <glyph glyph-name="R" unicode="R" horiz-adv-x="558" 
d="M35 622q0 16 11.5 27t26.5 11h201q49 0 92.5 -18.5t75.5 -50.5t51 -74.5t19 -91.5q0 -70 -36.5 -125.5t-95.5 -84.5l131 -152q9 -11 9 -25q0 -16 -11 -27.5t-27 -11.5t-29 13l-136 157q-8 9 -19 15t-23 6h-164v-152q0 -16 -11.5 -27t-26.5 -11q-16 0 -27 11t-11 27v584z
M111 584v-318h163q33 0 62.5 12.5t51.5 34t35 50.5t13 62t-12.5 62t-34.5 50.5t-51.5 34t-63.5 12.5h-163z" />
    <glyph glyph-name="L" unicode="L" horiz-adv-x="525" 
d="M35 622q0 16 11 27t27 11q15 0 26.5 -11t11.5 -27v-546h363q16 0 27 -11t11 -27q0 -15 -11 -26.5t-27 -11.5h-401q-15 0 -26.5 11t-11.5 27v584z" />
    <glyph glyph-name="K" unicode="K" horiz-adv-x="508" 
d="M35 622q0 16 11 27t27 11q15 0 26.5 -11t11.5 -27v-164l240 193q10 9 24 9t25.5 -10.5t11.5 -27.5q0 -18 -13 -30l-205 -165l308 -365q10 -10 10 -25q0 -14 -11 -25.5t-27 -11.5q-18 0 -30 13l-309 367l-24 -19v-323q0 -16 -11 -27t-27 -11q-15 0 -26.5 11t-11.5 27v584z
" />
    <glyph glyph-name="Y" unicode="Y" horiz-adv-x="545" 
d="M28 622q0 16 11 27t27 11q15 0 26.5 -11t11.5 -27v-195q0 -33 13 -62.5t35 -51t52 -34.5t63 -13q34 0 63.5 13t51.5 34.5t34.5 51t12.5 62.5v195q0 16 11 27t27 11q15 0 26.5 -11t11.5 -27v-195q0 -44 -15.5 -83.5t-42.5 -70.5t-63.5 -52t-78.5 -28v-155q0 -16 -11 -27
t-27 -11q-15 0 -26.5 11t-11.5 27v155q-42 7 -79 28t-64 52t-42.5 70.5t-15.5 83.5v195z" />
    <glyph glyph-name="X" unicode="X" horiz-adv-x="598" 
d="M43 599q-9 10 -9 24q0 15 11.5 26.5t28.5 11.5q8 0 15.5 -3t12.5 -10l194 -254l194 254q5 7 12.5 10t15.5 3q17 0 28 -11.5t11 -26.5q0 -6 -1.5 -12.5t-6.5 -11.5l-205 -268l205 -268q8 -9 8 -25q0 -14 -11 -26t-28 -12t-28 14l-194 254l-194 -254q-11 -14 -28 -14
t-28.5 12t-11.5 26t9 25l205 268z" />
    <glyph glyph-name="Z" unicode="Z" horiz-adv-x="571" 
d="M82 584q-16 0 -27 11t-11 27q0 15 11 26.5t27 11.5h391q20 0 34.5 -9t14.5 -27q0 -12 -6 -22l-371 -526h346q16 0 27 -11t11 -27q0 -15 -11 -26.5t-27 -11.5h-413q-21 0 -33.5 10.5t-12.5 26.5q0 12 7 22l370 525h-327z" />
    <glyph glyph-name="V" unicode="V" horiz-adv-x="615" 
d="M18 608q-3 7 -3 15q0 14 10 26t27 12q11 0 20.5 -6t14.5 -17l218 -509l218 509q10 23 35 23q17 0 27 -12t10 -26q0 -8 -3 -15l-252 -589q-6 -14 -20 -20q-8 -3 -15 -3q-25 0 -35 23z" />
    <glyph glyph-name="A" unicode="A" horiz-adv-x="615" 
d="M270 641q10 23 35 23q7 0 15 -3q14 -6 20 -20l252 -589q3 -8 3 -16q0 -13 -10 -25t-27 -12q-25 0 -35 23l-71 166h-294l-71 -166q-5 -11 -14.5 -17t-20.5 -6q-17 0 -27 12t-10 25q0 8 3 16zM305 531l-115 -267h229z" />
    <glyph glyph-name="ampersand" unicode="&#x26;" horiz-adv-x="592" 
d="M414 470v9q0 16 11 27t27 11q15 0 26.5 -11t11.5 -27v-9h8q16 0 27 -11t11 -27q0 -15 -11 -26.5t-27 -11.5h-8v-161q0 -49 -17.5 -92t-48 -75.5t-72.5 -51t-91 -18.5t-92.5 18.5t-75.5 51t-51 75.5t-19 92t19 92t51 75q28 28 62 45q-11 13 -18 30q-10 24 -10 52t10.5 52
t29 42t43 28.5t52.5 10.5v-76q-24 0 -41.5 -16.5t-17.5 -40.5t17 -41q15 -15 36 -16h158zM252 394q-28 -2 -54 -13q-29 -13 -51 -34.5t-35 -51t-13 -62.5t12.5 -62.5t34.5 -51t51.5 -34.5t63.5 -13q33 0 61.5 13t48.5 34.5t31.5 51t11.5 62.5v161h-162zM262 660h46
q16 0 27 -11t11 -27q0 -15 -11 -26.5t-27 -11.5h-46v76z" />
    <glyph glyph-name="zero.001" horiz-adv-x="468" 
d="M30 483q0 41 16 77t43 63t63.5 42.5t77.5 15.5q42 0 78.5 -15.5t63.5 -42.5t43 -63t16 -77v-305q0 -41 -16 -77t-43 -63t-63.5 -43t-78.5 -16q-41 0 -77.5 16t-63.5 43t-43 63t-16 77v305zM355 483q0 25 -10 48t-27 39.5t-39.5 26.5t-48.5 10t-48.5 -10t-39.5 -26.5
t-26.5 -39.5t-9.5 -48v-305q0 -26 10 -48t26.5 -39t39 -26.5t48.5 -9.5t49 9.5t40 26.5t26.5 39t9.5 48v305z" />
    <glyph glyph-name="eight.001" horiz-adv-x="487" 
d="M52 493q0 35 13.5 66t37 54.5t55 37t67.5 13.5t67.5 -13.5t55.5 -37t37.5 -54.5t13.5 -66v-1q0 -39 -16.5 -73.5t-45.5 -58.5q41 -26 65 -69.5t24 -94.5v-1q0 -41 -16 -77t-43 -63t-63.5 -43t-78.5 -16q-41 0 -77.5 16t-63.5 43t-43 63t-16 77v1q0 51 24 94.5t65 69.5
q-29 24 -45.5 58.5t-16.5 74.5zM225 320q-26 0 -48.5 -10t-39.5 -26.5t-26.5 -39.5t-9.5 -48v-1q0 -26 10 -48t26.5 -39t39 -26.5t48.5 -9.5t49 9.5t40 26.5t26.5 39t9.5 48v1q0 25 -9.5 47t-26 38.5t-38 27t-46.5 11.5h-5zM225 587q-20 0 -38 -7.5t-31 -21t-20.5 -31
t-7.5 -37.5t7.5 -37.5t21 -30.5t31 -20.5t37.5 -7.5q41 0 69 28t28 68q0 20 -7.5 37.5t-21 31t-31 21t-37.5 7.5z" />
    <glyph glyph-name="three.001" horiz-adv-x="455" 
d="M49 510q0 35 13.5 66t37 54.5t55 37t67.5 13.5t67.5 -13.5t55.5 -37t37.5 -54.5t13.5 -66v-1q0 -20 -4.5 -41t-12.5 -41t-19.5 -37.5t-25.5 -29.5q20 -13 36.5 -33.5t28 -44.5t18 -51t6.5 -52v-1q0 -41 -16 -77t-43 -63t-63.5 -43t-78.5 -16q-41 0 -77.5 16t-63.5 43
t-43 63t-16 77q0 16 11 27t27 11t27 -11t11 -27q0 -26 10 -48t26.5 -39t39 -26.5t48.5 -9.5t49 9.5t40 26.5t26.5 39t9.5 48v1q0 25 -9.5 50t-26 45t-39 32.5t-47.5 13.5h-3q-15 0 -26 11t-11 26t11 26t26 11h4q19 1 36 11.5t30 26.5t20 35.5t7 39.5t-7.5 37.5t-21 31
t-31 21t-37.5 7.5t-38 -7.5t-31 -21t-20.5 -31t-7.5 -36.5q0 -16 -11 -27t-27 -11t-27 11t-11 29z" />
    <glyph glyph-name="five.001" horiz-adv-x="461" 
d="M54 622q0 16 11 27t27 11h271q16 0 27 -11t11 -27t-11 -27t-27 -11h-233v-143q22 12 46.5 19t50.5 7q42 0 78.5 -16t63.5 -43t43 -63t16 -77v-90q0 -41 -16 -77t-43 -63t-63.5 -43t-78.5 -16q-41 0 -77.5 16t-63.5 43t-43 63t-16 77q0 16 11 27t27 11t27 -11t11 -27v-3
q0 -25 10 -47t27 -38t39.5 -25.5t47.5 -9.5q26 0 49 9.5t40 26.5t26.5 39t9.5 48v90q0 25 -9.5 47.5t-26.5 39.5t-40 26.5t-49 9.5q-31 0 -57 -13.5t-44 -36.5q-6 -7 -14.5 -14t-22.5 -7q-16 0 -25.5 10.5t-9.5 26.5v265z" />
    <glyph glyph-name="backslash" unicode="\" horiz-adv-x="529" 
d="M13 599q-9 10 -9 24q0 15 11.5 26.5t28.5 11.5q8 0 15.5 -3t12.5 -10l447 -585q8 -9 8 -25q0 -14 -11 -26t-28 -12t-28 14z" />
    <glyph glyph-name="underscore" unicode="_" horiz-adv-x="546" 
d="M72 -80q-16 0 -27 11.5t-11 26.5q0 16 11 27t27 11h401q16 0 27 -11.5t11 -26.5q0 -16 -11 -27t-27 -11h-401z" />
    <glyph glyph-name="S" unicode="S" horiz-adv-x="563" 
d="M103 148q18 -40 59.5 -66.5t98.5 -26.5q31 0 61 7t53 22t37 38.5t14 55.5t-13.5 58t-36.5 44t-52.5 27.5t-62.5 9.5q-46 0 -85.5 13t-68 37.5t-45 59.5t-16.5 79q0 83 58.5 129t156.5 46q2 0 23.5 -1.5t51.5 -11t61.5 -29.5t53.5 -57q2 -5 4.5 -11t2.5 -13
q0 -12 -10 -24.5t-27 -12.5q-19 0 -29 13q-13 15 -25.5 28t-27.5 22.5t-34 15t-45 5.5q-38 0 -64.5 -8.5t-43 -22t-23.5 -31.5t-7 -37q0 -27 11 -48t29.5 -35.5t44 -22t54.5 -7.5q49 0 93 -15t77 -43t52 -68t19 -89q0 -50 -19.5 -87.5t-53 -62.5t-78 -37t-94.5 -12
q-10 0 -38 3t-63 17.5t-70 44.5t-58 83q-4 9 -4 21q0 16 10 27t25 11t26 -10.5t18 -27.5z" />
    <glyph glyph-name="space" unicode=" " horiz-adv-x="265" 
 />
    <glyph glyph-name="fraction" unicode="&#x2044;" horiz-adv-x="434" 
d="M461 648q5 7 12.5 10t15.5 3q17 0 28 -11.5t11 -26.5q0 -6 -1.5 -12.5t-6.5 -11.5l-447 -585q-11 -14 -28 -14t-28.5 12t-11.5 26t9 25z" />
    <glyph glyph-name="numbersign" unicode="#" horiz-adv-x="455" 
d="M85 622q0 16 11 27t27 11q15 0 26.5 -11t11.5 -27v-151h124v151q0 16 11 27t27 11q15 0 26.5 -11t11.5 -27v-151h26q16 0 27 -11t11 -27q0 -15 -11 -26.5t-27 -11.5h-26v-124h26q16 0 27 -11t11 -27q0 -15 -11 -26.5t-27 -11.5h-26v-157q0 -16 -11 -27t-27 -11
q-15 0 -26.5 11t-11.5 27v157h-124v-157q0 -16 -11 -27t-27 -11q-15 0 -26.5 11t-11.5 27v157h-23q-16 0 -27 11t-11 27q0 15 11 26.5t27 11.5h23v124h-23q-16 0 -27 11t-11 27q0 15 11 26.5t27 11.5h23v151zM161 395v-124h124v124h-124z" />
    <glyph glyph-name="quotesingle" unicode="'" horiz-adv-x="194" 
d="M32 634q0 14 11.5 26t25.5 12h40q16 0 27 -11.5t11 -26.5q0 -16 -11 -27t-27 -11h-1v-41q0 -16 -11.5 -27t-26.5 -11q-16 0 -27 11t-11 27v79z" />
    <glyph glyph-name="quotedbl" unicode="&#x22;" horiz-adv-x="294" 
d="M33 634q0 16 11 27t27 11q15 0 26.5 -11t11.5 -27v-79q0 -16 -11 -27t-27 -11q-15 0 -26.5 11t-11.5 27v79zM143 634q0 16 11 27t27 11q15 0 26.5 -11t11.5 -27v-79q0 -16 -11 -27t-27 -11q-15 0 -26.5 11t-11.5 27v79z" />
    <glyph glyph-name="hyphen" unicode="-" horiz-adv-x="427" 
d="M71 244q-16 0 -27 11t-11 27q0 15 11 26.5t27 11.5h275q16 0 27 -11t11 -27q0 -15 -11 -26.5t-27 -11.5h-275z" />
    <glyph glyph-name="plus" unicode="+" horiz-adv-x="382" 
d="M147 419q0 16 11 27t27 11q15 0 26.5 -11t11.5 -27v-99h100q16 0 27 -11t11 -27q0 -15 -11 -26.5t-27 -11.5h-100v-100q0 -16 -11 -27t-27 -11q-15 0 -26.5 11t-11.5 27v100h-99q-16 0 -27 11t-11 27q0 15 11 26.5t27 11.5h99v99z" />
    <glyph glyph-name="asterisk" unicode="*" horiz-adv-x="402" 
d="M94 382q-5 7 -5 18q0 14 10 26.5t27 12.5q10 -1 19.5 -5.5t14.5 -13.5l36 -63l36 62q11 19 33 19q17 0 27 -11.5t10 -27.5q0 -10 -4 -18l-36 -61h71q16 0 27 -11t11 -27q0 -15 -11 -26.5t-27 -11.5h-72l36 -63q5 -10 5 -19q0 -14 -10 -26t-28 -12q-22 0 -33 19l-36 62
l-36 -62q-11 -19 -33 -19q-17 0 -27.5 11.5t-10.5 27.5q0 8 5 18l37 63h-72q-16 0 -27 11t-11 27q0 15 11 26.5t27 11.5h71z" />
    <glyph glyph-name="comma" unicode="," horiz-adv-x="167" 
d="M31 38q0 16 11 27t27 11q15 0 26.5 -11t11.5 -27v-82q0 -16 -11 -27t-27 -11q-15 0 -26.5 11t-11.5 27v82z" />
    <glyph glyph-name="period" unicode="." horiz-adv-x="158" 
d="M26 38q0 16 11 27t27 11q15 0 26.5 -11t11.5 -27t-11 -27t-27 -11q-15 0 -26.5 11t-11.5 27z" />
    <glyph glyph-name="exclam" unicode="!" horiz-adv-x="174" 
d="M35 626q0 16 11.5 27t26.5 11q16 0 27 -11t11 -27v-432q0 -16 -11.5 -27t-26.5 -11q-16 0 -27 11t-11 27v432zM35 67q0 16 11.5 27t26.5 11q16 0 27 -11t11 -27v-29q0 -16 -11.5 -27t-26.5 -11q-16 0 -27 11t-11 27v29z" />
    <glyph glyph-name="slash" unicode="/" horiz-adv-x="434" 
d="M461 648q5 7 12.5 10t15.5 3q17 0 28 -11.5t11 -26.5q0 -6 -1.5 -12.5t-6.5 -11.5l-447 -585q-11 -14 -28 -14t-28.5 12t-11.5 26t9 25z" />
    <glyph glyph-name="semicolon" unicode=";" horiz-adv-x="167" 
d="M31 38q0 16 11 27t27 11q15 0 26.5 -11t11.5 -27v-82q0 -16 -11 -27t-27 -11q-15 0 -26.5 11t-11.5 27v82zM31 458q0 16 11 27t27 11q15 0 26.5 -11t11.5 -27t-11 -27t-27 -11q-15 0 -26.5 11t-11.5 27z" />
    <glyph glyph-name="colon" unicode=":" horiz-adv-x="165" 
d="M30 458q0 16 11 27t27 11q15 0 26.5 -11t11.5 -27t-11 -27t-27 -11q-15 0 -26.5 11t-11.5 27zM30 38q0 16 11 27t27 11q15 0 26.5 -11t11.5 -27t-11 -27t-27 -11q-15 0 -26.5 11t-11.5 27z" />
    <glyph glyph-name="parenright" unicode=")" horiz-adv-x="292" 
d="M165 522q-1 21 -9.5 39t-23 31.5t-33 21.5t-39.5 8q-16 0 -27 11t-11 27t11 27t27 11q37 0 70 -14t57.5 -38.5t39 -57.5t14.5 -70v-554q0 -37 -14.5 -70t-39 -57.5t-57.5 -38.5t-70 -14q-16 0 -27 11t-11 27t11 27t27 11q21 0 39.5 8t33 21.5t23 31.5t9.5 39v562z" />
    <glyph glyph-name="parenleft" unicode="(" horiz-adv-x="292" 
d="M30 518q0 37 14.5 70t39 57.5t57.5 38.5t70 14q16 0 27 -11t11 -27t-11 -27t-27 -11q-21 0 -40 -8t-33 -21.5t-22.5 -31.5t-9.5 -39v-562q1 -21 9.5 -39t22.5 -31.5t33 -21.5t40 -8q16 0 27 -11t11 -27t-11 -27t-27 -11q-37 0 -70 14t-57.5 38.5t-39 57.5t-14.5 70v554z
" />
    <glyph glyph-name="equal" unicode="=" horiz-adv-x="428" 
d="M71 168q-16 0 -27 11t-11 27q0 15 11 26.5t27 11.5h275q16 0 27 -11t11 -27q0 -15 -11 -26.5t-27 -11.5h-275zM71 321q-16 0 -27 11t-11 27q0 15 11 26.5t27 11.5h275q16 0 27 -11t11 -27q0 -15 -11 -26.5t-27 -11.5h-275z" />
    <glyph glyph-name="bar" unicode="|" horiz-adv-x="176" 
d="M36 625q0 16 11 27t27 11q15 0 26.5 -11t11.5 -27v-763q0 -16 -11 -27t-27 -11q-15 0 -26.5 11t-11.5 27v763z" />
    <glyph glyph-name="six.001" horiz-adv-x="463" 
d="M30 465q0 41 16 77t43 63t63.5 43t78.5 16q20 0 47 -6.5t51 -18.5t40.5 -28t16.5 -35q0 -16 -11 -27t-27 -11q-21 0 -32 16q-17 16 -39 25t-46 9q-26 0 -49 -9.5t-40 -26.5t-26.5 -39.5t-9.5 -47.5v-43q26 20 57.5 31.5t66.5 11.5q42 0 78.5 -15.5t63.5 -42.5t43 -63
t16 -77v-89q0 -41 -16 -77t-43 -63t-63.5 -43t-78.5 -16q-41 0 -77.5 16t-63.5 43t-43 63t-16 77v287zM106 178q0 -26 10 -48t26.5 -39t39 -26.5t48.5 -9.5t49 9.5t40 26.5t26.5 39t9.5 48v89q0 25 -10 48t-27 39.5t-39.5 26.5t-48.5 10t-48 -9.5t-38.5 -25.5t-26.5 -38
t-11 -46v-94z" />
    <glyph glyph-name="nine.001" horiz-adv-x="463" 
d="M25 465q0 41 16 77t43 63t63.5 43t78.5 16q41 0 77.5 -16t63.5 -43t43 -63t16 -77v-270q0 -41 -16 -77t-43 -63t-63.5 -43t-78.5 -16q-20 0 -47 6.5t-51 18.5t-40.5 28t-16.5 35q0 16 11 27t27 11q13 0 32 -16q17 -16 39 -25t46 -9q26 0 49 9.5t40 26.5t26.5 39t9.5 48
v43q-26 -20 -57.5 -31.5t-66.5 -11.5q-42 0 -78.5 15.5t-63.5 42.5t-43 63t-16 77v72zM101 393q0 -26 10 -48.5t27 -39t39.5 -26.5t48.5 -10q25 0 47.5 9.5t39 25.5t26.5 38t11 46v77q0 25 -10 47.5t-26.5 39.5t-39.5 26.5t-48 9.5q-26 0 -49 -9.5t-40 -26.5t-26.5 -39.5
t-9.5 -47.5v-72z" />
    <glyph glyph-name="two.001" horiz-adv-x="472" 
d="M353 483q0 25 -9.5 47.5t-26.5 39.5t-40 26.5t-49 9.5q-25 0 -47.5 -9.5t-39.5 -26t-27 -38t-10 -46.5q0 -16 -11 -27t-27 -11t-27 11t-11 27q0 40 16 75.5t43.5 62.5t64 42.5t76.5 15.5q42 0 78.5 -16t63.5 -43t43 -63t16 -77v-1q0 -36 -12 -68t-34 -58h1l-233 -280h250
q16 0 27 -11t11 -27t-11 -27t-27 -11h-335q-16 0 -27 11t-11 27q0 14 9 25l288 342q12 12 20 34.5t8 43.5z" />
    <glyph glyph-name="one.001" horiz-adv-x="240" 
d="M123 653q10 7 22 7q15 0 26.5 -11t11.5 -27v-584q0 -16 -11 -27t-27 -11q-15 0 -26.5 11t-11.5 27v517l-43 -25q-11 -6 -20 -6q-14 0 -26 10.5t-12 27.5q0 10 4.5 19.5t14.5 14.5z" />
    <glyph glyph-name="less" unicode="&#x3c;" horiz-adv-x="277" 
d="M157 452q5 7 12.5 10t15.5 3q17 0 28 -11.5t11 -26.5q0 -6 -1.5 -12.5t-6.5 -11.5l-122 -159l122 -158q8 -9 8 -25q0 -14 -11 -26t-28 -12t-28 14l-141 184q-8 11 -8 22q0 14 9 26z" />
    <glyph glyph-name="greater" unicode="&#x3e;" horiz-adv-x="279" 
d="M42 403q-9 10 -9 24q0 15 11.5 26.5t28.5 11.5q8 0 15.5 -3t12.5 -10l141 -184q8 -11 8 -23q0 -13 -9 -25l-140 -183q-11 -14 -28 -14t-28.5 12t-11.5 26t9 25l122 159z" />
    <glyph glyph-name="question" unicode="?" horiz-adv-x="493" 
d="M174 227q0 16 11.5 27t26.5 11q3 0 6 -0.5t6 -0.5q39 0 71 14t55.5 37t36.5 52t13 59v1q0 33 -12.5 62.5t-34.5 51t-52 34.5t-64 13q-52 0 -92 -29.5t-59 -74.5q-5 -11 -14.5 -16.5t-20.5 -5.5q-17 0 -27 12t-10 26q0 8 3 16q13 33 35.5 60t51 46.5t62.5 30.5t71 11
q49 0 93 -18.5t76 -51t51 -75.5t19 -92v-1q0 -42 -16.5 -83.5t-46 -74.5t-71 -53.5t-92.5 -20.5v-1q0 -16 -11.5 -27t-26.5 -11q-16 0 -27 11t-11 27v34zM174 67q0 16 11.5 27t26.5 11q16 0 27 -11t11 -27v-29q0 -16 -11.5 -27t-26.5 -11q-16 0 -27 11t-11 27v29z" />
    <glyph glyph-name="seven.001" horiz-adv-x="455" 
d="M73 660h327q16 0 29.5 -10.5t13.5 -27.5q0 -11 -6 -21l-334 -584q-6 -11 -13.5 -14.5t-18.5 -3.5q-16 0 -27.5 11.5t-11.5 26.5q0 10 6 21l301 526h-269q-16 0 -27 11t-11 27t11 27t30 11z" />
    <glyph glyph-name="four.001" 
d="M286 642q5 8 14 12.5t18 4.5q16 0 27.5 -11.5t11.5 -25.5v-446h10q16 0 27 -11t11 -27t-11 -27t-27 -11h-10v-62q0 -16 -11 -27t-27 -11t-27 11t-11 27v62h-239q-15 0 -26.5 12t-11.5 26q0 10 6 21zM281 478l-173 -302h173v302z" />
    <glyph glyph-name="bracketleft" unicode="[" horiz-adv-x="295" 
d="M36 660q0 16 11.5 27t26.5 11h143q16 0 27 -11.5t11 -26.5q0 -16 -11 -27t-27 -11h-105v-762h105q16 0 27 -11t11 -27q0 -15 -11 -26.5t-27 -11.5h-143q-15 0 -26.5 11t-11.5 27v838z" />
    <glyph glyph-name="bracketright" unicode="]" horiz-adv-x="295" 
d="M58 622q-16 0 -27 11t-11 27q0 15 11 26.5t27 11.5h143q15 0 26.5 -11t11.5 -27v-838q0 -16 -11.5 -27t-26.5 -11h-143q-16 0 -27 11.5t-11 26.5q0 16 11 27t27 11h105v762h-105z" />
    <glyph glyph-name="asciicircum" unicode="^" horiz-adv-x="484" 
d="M217 652q11 8 22 8q14 0 26 -9l183 -140q7 -5 10 -12.5t3 -15.5q0 -17 -11.5 -28.5t-26.5 -11.5q-14 0 -24 9l-159 122l-158 -122q-11 -9 -25 -9t-26 11.5t-12 28.5t14 28z" />
    <glyph glyph-name="grave" unicode="`" horiz-adv-x="184" 
d="M25 607q-6 9 -6 20q0 15 11 26t28 11q21 0 32 -18l41 -71q5 -9 5 -20q0 -15 -10.5 -26t-27.5 -11q-22 0 -32 18z" />
    <glyph glyph-name="acute" unicode="&#xb4;" horiz-adv-x="183" 
d="M66 646q10 18 32 18q17 0 27.5 -11t10.5 -26q0 -13 -5 -20l-41 -71q-11 -18 -32 -18q-17 0 -28 11t-11 26q0 9 6 20z" />
    <glyph glyph-name="bullet" unicode="&#x2022;" horiz-adv-x="225" 
d="M26 320q0 31 21.5 52.5t52.5 21.5t52.5 -21.5t21.5 -52.5t-21.5 -52.5t-52.5 -21.5t-52.5 21.5t-21.5 52.5z" />
    <glyph glyph-name="braceleft" unicode="{" horiz-adv-x="360" 
d="M102 518q0 37 14.5 70t39 57.5t57.5 38.5t70 14q16 0 27 -11t11 -27t-11 -27t-27 -11q-21 0 -40 -8t-33 -21.5t-22.5 -31.5t-9.5 -39v-243q0 -14 -10 -25t-24 -13q14 -2 24 -13t10 -25v-243q1 -21 9.5 -39t22.5 -31.5t33 -21.5t40 -8q16 0 27 -11t11 -27t-11 -27t-27 -11
q-37 0 -70 14t-57.5 38.5t-39 57.5t-14.5 70v205q0 12 -11 23t-23 11h-20q-16 0 -27 11t-11 27q0 15 11 26.5t27 11.5h20q12 0 23 10.5t11 22.5v206z" />
    <glyph glyph-name="braceright" unicode="}" horiz-adv-x="358" 
d="M168 522q-1 21 -9.5 39t-23 31.5t-33 21.5t-39.5 8q-16 0 -27 11t-11 27t11 27t27 11q37 0 70 -14t57.5 -38.5t39 -57.5t14.5 -70v-206q0 -12 11 -22.5t23 -10.5h20q16 0 27 -11.5t11 -26.5q0 -16 -11 -27t-27 -11h-20q-12 0 -23 -11t-11 -23v-205q0 -37 -14.5 -70
t-39 -57.5t-57.5 -38.5t-70 -14q-16 0 -27 11t-11 27t11 27t27 11q21 0 39.5 8t33 21.5t23 31.5t9.5 39v243q0 14 10 25t24 13q-14 2 -24 13t-10 25v243z" />
    <glyph glyph-name="Euro" unicode="&#x20ac;" horiz-adv-x="582" 
d="M65 466q0 41 16 77t43 63t63.5 42.5t77.5 15.5q21 0 47.5 -6.5t50 -18t39 -26.5t15.5 -32q0 -16 -11 -27t-27 -11q-19 0 -31 15q-35 32 -83 32q-26 0 -48.5 -10t-39.5 -26.5t-26.5 -39.5t-9.5 -48v-58h192q16 0 27 -11t11 -27q0 -15 -11 -26.5t-27 -11.5h-192v-27h192
q16 0 27 -11t11 -27q0 -15 -11 -26.5t-27 -11.5h-192v-34q0 -26 10 -48t26.5 -39t39 -26.5t48.5 -9.5t48 9t39 26q11 11 27 11t27 -11t11 -27q0 -19 -16.5 -34.5t-40 -26.5t-49.5 -17t-46 -6q-41 0 -77.5 16t-63.5 43t-43 63t-16 77v34h-7q-16 0 -27 11t-11 27q0 15 11 26.5
t27 11.5h7v27h-7q-16 0 -27 11t-11 27q0 15 11 26.5t27 11.5h7v58z" />
    <glyph glyph-name="sterling" unicode="&#xa3;" horiz-adv-x="536" 
d="M118 466q0 41 16 77t43 63t63.5 42.5t77.5 15.5q21 0 47.5 -6.5t50 -18t39 -26.5t15.5 -32q0 -16 -11 -27t-27 -11q-19 0 -31 15q-35 32 -83 32q-26 0 -48.5 -10t-39.5 -26.5t-26.5 -39.5t-9.5 -48v-141h153q16 0 27 -11t11 -27q0 -15 -11 -26.5t-27 -11.5h-153v-108
q47 -6 88 -38l18 -16q12 -11 29 -15.5t32 -4.5q23 0 45 9.5t38 29.5q10 13 29 13q17 0 27.5 -12t10.5 -26q0 -12 -8 -23q-27 -33 -64.5 -50t-77.5 -17q-29 1 -59 9.5t-54 30.5l-18 16q-12 11 -29 15.5t-32 4.5q-23 0 -45 -9.5t-38 -29.5q-11 -14 -29 -14q-17 0 -27.5 12.5
t-10.5 26.5t10.5 27t26 24.5t32.5 19.5t30 12v113h-46q-16 0 -27 11t-11 27q0 15 11 26.5t27 11.5h46v141z" />
    <glyph glyph-name="asciitilde" unicode="~" horiz-adv-x="542" 
d="M236 203q-12 11 -29 15.5t-32 4.5q-23 0 -45 -9.5t-38 -29.5q-11 -14 -29 -14q-17 0 -27.5 12.5t-10.5 26.5t8 23q27 33 64 50t77 17q30 0 59 -10t55 -30l18 -16q12 -11 29 -15.5t32 -4.5q23 0 45 9.5t38 29.5q10 13 29 13q17 0 27.5 -12t10.5 -26q0 -12 -8 -23
q-27 -33 -64.5 -50t-77.5 -17q-29 1 -59 9.5t-54 30.5z" />
    <glyph glyph-name="quotesinglbase" unicode="&#x201a;" horiz-adv-x="192" 
d="M57 34q0 16 11.5 27t26.5 11q16 0 27 -11t11 -27v-79q0 -14 -11.5 -26t-25.5 -12h-40q-16 0 -27 11.5t-11 26.5q0 16 11 27t27 11h1v41z" />
    <glyph glyph-name="quoteleft" unicode="&#x2018;" horiz-adv-x="194" 
d="M32 634q0 14 11.5 26t25.5 12h40q16 0 27 -11.5t11 -26.5q0 -16 -11 -27t-27 -11h-1v-41q0 -16 -11.5 -27t-26.5 -11q-16 0 -27 11t-11 27v79z" />
    <glyph glyph-name="quotedblleft" unicode="&#x201c;" horiz-adv-x="365" 
d="M34 634q0 14 11.5 26t25.5 12h40q16 0 27 -11.5t11 -26.5q0 -16 -11 -27t-27 -11h-1v-41q0 -16 -11.5 -27t-26.5 -11q-16 0 -27 11t-11 27v79zM154 634q0 14 11.5 26t25.5 12h40q16 0 27 -11.5t11 -26.5q0 -16 -11 -27t-27 -11h-1v-41q0 -16 -11.5 -27t-26.5 -11
q-16 0 -27 11t-11 27v79z" />
    <glyph glyph-name="quoteright" unicode="&#x2019;" horiz-adv-x="193" 
d="M58 634q0 16 11.5 27t26.5 11q16 0 27 -11t11 -27v-79q0 -14 -11.5 -26t-25.5 -12h-40q-16 0 -27 11.5t-11 26.5q0 16 11 27t27 11h1v41z" />
    <glyph glyph-name="quotedblright" unicode="&#x201d;" horiz-adv-x="375" 
d="M187 634q0 16 11.5 27t26.5 11q16 0 27 -11t11 -27v-79q0 -14 -11.5 -26t-25.5 -12h-40q-16 0 -27 11.5t-11 26.5q0 16 11 27t27 11h1v41zM67 634q0 16 11.5 27t26.5 11q16 0 27 -11t11 -27v-79q0 -14 -11.5 -26t-25.5 -12h-40q-16 0 -27 11.5t-11 26.5q0 16 11 27t27 11
h1v41z" />
    <glyph glyph-name="endash" unicode="&#x2013;" horiz-adv-x="465" 
d="M71 244q-16 0 -27 11t-11 27q0 15 11 26.5t27 11.5h315q16 0 27 -11t11 -27q0 -15 -11 -26.5t-27 -11.5h-315z" />
    <glyph glyph-name="emdash" unicode="&#x2014;" horiz-adv-x="577" 
d="M72 244q-16 0 -27 11t-11 27q0 15 11 26.5t27 11.5h435q16 0 27 -11t11 -27q0 -15 -11 -26.5t-27 -11.5h-435z" />
    <glyph glyph-name="circumflex" unicode="&#x2c6;" horiz-adv-x="277" 
d="M110 658q8 5 18 5q12 0 22 -7l66 -48q17 -12 17 -31q0 -16 -12.5 -27t-27.5 -11q-13 0 -21 7l-44 31l-43 -31q-10 -7 -21 -7q-16 0 -28 11t-12 27q0 19 17 31z" />
    <glyph glyph-name="caron" unicode="&#x2c7;" horiz-adv-x="274" 
d="M39 605q-17 12 -17 31q0 16 12 27t28 11q11 0 21 -7l43 -31l44 31q8 7 21 7q15 0 27.5 -11t12.5 -27q0 -19 -17 -31l-66 -48q-10 -7 -22 -7q-10 0 -18 5z" />
    <glyph glyph-name="ellipsis" unicode="&#x2026;" horiz-adv-x="410" 
d="M33 38q0 16 11 27t27 11q15 0 26.5 -11t11.5 -27t-11 -27t-27 -11q-15 0 -26.5 11t-11.5 27zM161 38q0 16 11 27t27 11q15 0 26.5 -11t11.5 -27t-11 -27t-27 -11q-15 0 -26.5 11t-11.5 27zM289 38q0 16 11 27t27 11q15 0 26.5 -11t11.5 -27t-11 -27t-27 -11
q-15 0 -26.5 11t-11.5 27z" />
    <glyph glyph-name="quotedblbase" unicode="&#x201e;" horiz-adv-x="294" 
d="M33 34q0 16 11 27t27 11q15 0 26.5 -11t11.5 -27v-79q0 -16 -11 -27t-27 -11q-15 0 -26.5 11t-11.5 27v79zM143 34q0 16 11 27t27 11q15 0 26.5 -11t11.5 -27v-79q0 -16 -11 -27t-27 -11q-15 0 -26.5 11t-11.5 27v79z" />
    <glyph glyph-name="cent" unicode="&#xa2;" horiz-adv-x="398" 
d="M163 535q0 16 11 27t27 11q15 0 26.5 -11t11.5 -27v-39q15 -3 32.5 -9t35 -18.5t33.5 -32t28 -48.5q3 -8 3 -14q0 -16 -11 -27t-27 -11q-25 0 -35 24q-8 20 -24.5 34t-34.5 22v-337q19 8 34.5 22t24.5 35q5 11 14 17.5t21 6.5q16 0 27 -11.5t11 -26.5q0 -7 -3 -14
q-12 -28 -28.5 -47.5t-34 -32t-35 -19t-31.5 -9.5v-48q0 -16 -11 -27t-27 -11q-15 0 -26.5 11t-11.5 27v48q-30 6 -56.5 22.5t-45.5 39.5t-30 52.5t-11 61.5v144q0 32 11 61t30 52.5t45.5 39.5t56.5 23v39zM163 417q-30 -11 -48.5 -37.5t-18.5 -59.5v-144q0 -33 19 -59.5
t48 -37.5v338z" />
    <glyph glyph-name="brokenbar" unicode="&#xa6;" horiz-adv-x="175" 
d="M35 185q0 16 11 27t27 11q15 0 26.5 -11t11.5 -27v-323q0 -16 -11 -27t-27 -11q-15 0 -26.5 11t-11.5 27v323zM35 625q0 16 11 27t27 11q15 0 26.5 -11t11.5 -27v-323q0 -16 -11 -27t-27 -11q-15 0 -26.5 11t-11.5 27v323z" />
    <glyph glyph-name="yen" unicode="&#xa5;" horiz-adv-x="538" 
d="M25 622q0 16 11 27t27 11q15 0 26.5 -11t11.5 -27v-115q0 -33 13 -62.5t35 -51t52 -34.5t63 -13q34 0 63.5 13t51.5 34.5t34.5 51t12.5 62.5v115q0 16 11 27t27 11q15 0 26.5 -11t11.5 -27v-115q0 -44 -15.5 -83.5t-42.5 -70.5t-63.5 -52t-78.5 -28v-26h99q16 0 27 -11
t11 -27q0 -15 -11 -26.5t-27 -11.5h-99v-27h99q16 0 27 -11t11 -27q0 -15 -11 -26.5t-27 -11.5h-99v-30q0 -16 -11 -27t-27 -11q-15 0 -26.5 11t-11.5 27v30h-100q-16 0 -27 11t-11 27q0 15 11 26.5t27 11.5h100v27h-100q-16 0 -27 11t-11 27q0 15 11 26.5t27 11.5h100v26
q-42 7 -79 28t-64 52t-42.5 70.5t-15.5 83.5v115z" />
    <glyph glyph-name="tilde" unicode="&#x2dc;" horiz-adv-x="340" 
d="M30 610q0 15 10.5 25t25 15.5t30.5 8t28 2.5q14 0 31 -6t39 -6q18 0 28.5 2t16.5 4t9.5 4t6.5 2q15 0 26.5 -11t11.5 -27q0 -15 -10.5 -24.5t-25 -15t-30.5 -8t-27 -2.5q-25 0 -56 10q-5 1 -15 1q-18 0 -28.5 -1.5t-16.5 -4t-9 -4t-6 -1.5q-15 0 -27 11t-12 26z" />
    <glyph glyph-name="dotaccent" unicode="&#x2d9;" horiz-adv-x="158" 
d="M26 621q0 16 11 27t27 11q15 0 26.5 -11t11.5 -27t-11 -27t-27 -11q-15 0 -26.5 11t-11.5 27z" />
    <glyph glyph-name="dieresis" unicode="&#xa8;" horiz-adv-x="292" 
d="M32 628q0 16 11 27t27 11q15 0 26.5 -11t11.5 -27t-11 -27t-27 -11q-15 0 -26.5 11t-11.5 27zM142 628q0 16 11 27t27 11q15 0 26.5 -11t11.5 -27t-11 -27t-27 -11q-15 0 -26.5 11t-11.5 27z" />
    <glyph glyph-name="guillemotleft" unicode="&#xab;" horiz-adv-x="457" 
d="M166 452q5 7 12.5 10t15.5 3q17 0 28 -11.5t11 -26.5q0 -6 -1.5 -12.5t-6.5 -11.5l-122 -159l122 -158q8 -9 8 -25q0 -14 -11 -26t-28 -12t-28 14l-141 184q-8 11 -8 22q0 14 9 26zM316 452q5 7 12.5 10t15.5 3q17 0 28 -11.5t11 -26.5q0 -6 -1.5 -12.5t-6.5 -11.5
l-122 -159l122 -158q8 -9 8 -25q0 -14 -11 -26t-28 -12t-28 14l-141 184q-8 11 -8 22q0 14 9 26z" />
    <glyph glyph-name="guillemotright" unicode="&#xbb;" horiz-adv-x="458" 
d="M193 403q-9 10 -9 24q0 15 11.5 26.5t28.5 11.5q8 0 15.5 -3t12.5 -10l140 -183q9 -12 9 -26q0 -11 -8 -22l-141 -184q-11 -14 -28 -14t-28.5 12t-11.5 26t9 25l122 158zM43 403q-9 10 -9 24q0 15 11.5 26.5t28.5 11.5q8 0 15.5 -3t12.5 -10l140 -183q9 -12 9 -26
q0 -11 -8 -22l-141 -184q-11 -14 -28 -14t-28.5 12t-11.5 26t9 25l122 158z" />
    <glyph glyph-name="minus" unicode="&#x2212;" horiz-adv-x="427" 
d="M71 244q-16 0 -27 11t-11 27q0 15 11 26.5t27 11.5h275q16 0 27 -11t11 -27q0 -15 -11 -26.5t-27 -11.5h-275z" />
    <glyph glyph-name="oe" unicode="&#x153;" horiz-adv-x="712" 
d="M43 320q0 37 14 70t39 57.5t57.5 38.5t70.5 14q37 0 70 -14t57.5 -38.5t39 -57.5t14.5 -70v-144q0 -37 -14 -70t-39 -57.5t-58 -38.5t-70 -14t-70 14t-57.5 38.5t-39 57.5t-14.5 70v144zM119 176q0 -21 8.5 -40t22.5 -33.5t33.5 -22.5t40.5 -8q22 0 41 8t33.5 22.5
t22.5 33.5t8 40v144q0 21 -8.5 40t-22.5 33.5t-33.5 22.5t-40.5 8q-22 0 -41 -8t-33.5 -22.5t-22.5 -33.5t-8 -40v-144zM329 320q0 37 14 70t39 57.5t57.5 38.5t70.5 14q37 0 70 -14t57.5 -38.5t39 -57.5t14.5 -70v-72q0 -16 -11 -27t-27 -11h-248v-34q0 -21 8.5 -40
t22.5 -33.5t33.5 -22.5t40.5 -8q32 0 57.5 16.5t38.5 44.5l1 3q4 11 13.5 17.5t21.5 6.5q16 0 27 -11.5t11 -26.5q0 -7 -3 -14l-2 -4q-21 -48 -65 -78t-100 -30q-37 0 -70 14t-57.5 38.5t-39 57.5t-14.5 70v144zM405 286h210v34q0 21 -8.5 40t-22.5 33.5t-33.5 22.5t-40.5 8
q-22 0 -41 -8t-33.5 -22.5t-22.5 -33.5t-8 -40v-34z" />
    <glyph glyph-name="OE" unicode="&#x152;" horiz-adv-x="909" 
d="M21 444q0 49 19 92t51 75.5t75.5 51t93.5 18.5q49 0 92 -18.5t75.5 -51t51.5 -75.5t19 -92v-228q0 -49 -19 -92t-51 -75.5t-75.5 -51t-92.5 -18.5t-92.5 18.5t-76 51t-51.5 75.5t-19 92v228zM97 216q0 -33 13 -62.5t35 -51t52 -34.5t63 -13q34 0 63.5 13t51.5 34.5
t34.5 51t12.5 62.5v228q0 33 -13 62.5t-35 51t-51.5 34.5t-62.5 13q-34 0 -64 -13t-52 -34.5t-34.5 -51t-12.5 -62.5v-228zM420 622q0 16 11 27t27 11h401q16 0 27 -11t11 -27q0 -15 -11 -26.5t-27 -11.5h-363v-226h213q16 0 27 -11t11 -27q0 -15 -11 -26.5t-27 -11.5h-213
v-206h363q16 0 27 -11t11 -27q0 -15 -11 -26.5t-27 -11.5h-398h-3q-15 0 -26.5 11t-11.5 27v584z" />
    <glyph glyph-name="dollar" unicode="$" horiz-adv-x="513" 
d="M215 708q0 16 11 27t27 11q15 0 26.5 -11t11.5 -27v-48q16 -3 36.5 -8.5t41.5 -16.5t40.5 -28t34.5 -42q2 -5 4.5 -11t2.5 -13q0 -12 -10 -24.5t-27 -12.5q-19 0 -29 13q-20 23 -41 41t-53 26v-193q43 -5 80.5 -19.5t65 -39t43 -59t15.5 -78.5q0 -45 -15.5 -79.5
t-43 -59.5t-65 -39.5t-80.5 -18.5v-53q0 -16 -11 -27t-27 -11q-15 0 -26.5 11t-11.5 27v54q-20 3 -46 10.5t-53 24t-52 43t-43 67.5q-4 9 -4 21q0 16 10 27t25 11q16 0 26.5 -11t17.5 -27q14 -34 45.5 -58t73.5 -32v244q-39 4 -71 16t-55.5 33t-36.5 51.5t-13 69.5
q0 74 47.5 119t128.5 54v46zM291 74q26 4 49 13t40.5 23.5t28 35.5t10.5 49q0 27 -10 48t-27.5 35.5t-40.5 23.5t-50 12v-240zM215 585q-55 -8 -77.5 -35.5t-22.5 -60.5q0 -45 28 -66.5t72 -27.5v190z" />
    <glyph glyph-name="guilsinglleft" unicode="&#x2039;" horiz-adv-x="277" 
d="M157 432q5 7 12.5 10t15.5 3q17 0 28 -11.5t11 -26.5q0 -6 -1.5 -12.5t-6.5 -11.5l-122 -139l122 -138q8 -9 8 -25q0 -14 -11 -26t-28 -12t-28 14l-141 164q-8 11 -8 22q0 14 9 26z" />
    <glyph glyph-name="guilsinglright" unicode="&#x203a;" horiz-adv-x="279" 
d="M42 383q-9 10 -9 24q0 15 11.5 26.5t28.5 11.5q8 0 15.5 -3t12.5 -10l140 -163q9 -12 9 -26q0 -11 -8 -22l-141 -164q-11 -14 -28 -14t-28.5 12t-11.5 26t9 25l122 138z" />
    <glyph glyph-name="dagger" unicode="&#x2020;" horiz-adv-x="376" 
d="M144 625q0 16 11 27t27 11q15 0 26.5 -11t11.5 -27v-305h100q16 0 27 -11t11 -27q0 -15 -11 -26.5t-27 -11.5h-100v-382q0 -16 -11 -27t-27 -11q-15 0 -26.5 11t-11.5 27v382h-99q-16 0 -27 11t-11 27q0 15 11 26.5t27 11.5h99v305z" />
    <glyph glyph-name="daggerdbl" unicode="&#x2021;" horiz-adv-x="381" 
d="M147 625q0 16 11 27t27 11q15 0 26.5 -11t11.5 -27v-228h100q16 0 27 -11t11 -27q0 -15 -11 -26.5t-27 -11.5h-100v-77h100q16 0 27 -11t11 -27q0 -15 -11 -26.5t-27 -11.5h-100v-306q0 -16 -11 -27t-27 -11q-15 0 -26.5 11t-11.5 27v306h-99q-16 0 -27 11t-11 27
q0 15 11 26.5t27 11.5h99v77h-99q-16 0 -27 11t-11 27q0 15 11 26.5t27 11.5h99v228z" />
    <glyph glyph-name="mu" unicode="&#xb5;" horiz-adv-x="425" 
d="M36 458q0 16 11 27t27 11q15 0 26.5 -11t11.5 -27v-282q0 -21 8 -40t22.5 -33.5t33.5 -22.5t41 -8q21 0 40.5 8t33.5 22.5t22.5 33.5t8.5 40v282q0 16 11 27t27 11q15 0 26.5 -11t11.5 -27v-282q0 -37 -14.5 -70t-39 -57.5t-57.5 -38.5t-70 -14q-29 0 -56 8.5t-49 24.5
v-135q0 -16 -11.5 -27t-26.5 -11q-16 0 -27 11t-11 27v282v282z" />
    <glyph glyph-name="periodcentered" unicode="&#xb7;" horiz-adv-x="156" 
d="M25 268q0 16 11 27t27 11q15 0 26.5 -11t11.5 -27t-11 -27t-27 -11q-15 0 -26.5 11t-11.5 27z" />
    <glyph glyph-name="questiondown" unicode="&#xbf;" horiz-adv-x="492" 
d="M315.032 437.042q0 -15.9971 -11.498 -26.9951t-26.4951 -10.998q-3 0 -5.99902 0.5q-3 0.5 -5.99902 0.5q-38.9932 0 -70.9873 -13.998q-31.9941 -13.9971 -55.4893 -36.9932q-23.4961 -22.9961 -36.4932 -51.9902q-12.998 -28.9951 -12.998 -58.9893v-1
q0 -32.9941 12.498 -62.4883q12.4971 -29.4951 34.4932 -50.9912t51.9902 -34.4932q29.9951 -12.998 63.9883 -12.998q51.9912 0 91.9834 29.4951q39.9932 29.4941 58.9893 74.4863q4.99902 10.998 14.4971 16.4971q9.49902 5.49902 20.4971 5.49902
q16.9961 0 26.9941 -11.998q9.99902 -11.998 9.99902 -25.9951q0 -7.99902 -3 -15.9971q-12.9971 -32.9941 -35.4932 -59.9893t-50.9912 -46.4912q-28.4941 -19.4971 -62.4883 -30.4951q-33.9932 -10.998 -70.9873 -10.998q-48.9902 0 -92.9824 18.4971t-75.9863 50.9902
q-31.9941 32.4941 -50.9902 75.4863q-18.9971 42.9922 -18.9971 91.9834v1q0 41.9922 16.4971 83.4844t45.9922 74.4863q29.4941 32.9941 70.9863 53.4902t92.4834 20.4961v1q0 15.9971 11.498 26.9951t26.4951 10.998q15.9971 0 26.9951 -10.998t10.998 -26.9951v-33.9932z
M315.032 597.013q0 -15.9971 -11.498 -26.9951t-26.4951 -10.998q-15.9971 0 -26.9951 10.998t-10.998 26.9951v28.9941q0 15.9971 11.498 26.9951t26.4951 10.998q15.9971 0 26.9951 -10.998t10.998 -26.9951v-28.9941z" />
    <glyph glyph-name="exclamdown" unicode="&#xa1;" horiz-adv-x="147" 
d="M81.0068 38.1143q0 -15.9971 -11.498 -26.9951t-26.4951 -10.998q-15.9971 0 -26.9951 10.998t-10.998 26.9951v431.921q0 15.9971 11.498 26.9951q11.4971 10.998 26.4951 10.998q15.9971 0 26.9951 -10.998t10.998 -26.9951v-431.921zM81.0068 597.013
q0 -15.9971 -11.498 -26.9951t-26.4951 -10.998q-15.9971 0 -26.9951 10.998t-10.998 26.9951v28.9941q0 15.9971 11.498 26.9951q11.4971 10.998 26.4951 10.998q15.9971 0 26.9951 -10.998t10.998 -26.9951v-28.9941z" />
    <glyph glyph-name="hungarumlaut" unicode="&#x2dd;" horiz-adv-x="343" 
d="M74 646q10 18 32 18q17 0 27.5 -11t10.5 -26q0 -13 -5 -20l-41 -71q-11 -18 -32 -18q-17 0 -28 11t-11 26q0 9 6 20zM187 646q10 18 32 18q17 0 27.5 -11t10.5 -26q0 -13 -5 -20l-41 -71q-11 -18 -32 -18q-17 0 -28 11t-11 26q0 9 6 20z" />
    <glyph glyph-name="plusminus" unicode="&#xb1;" horiz-adv-x="402" 
d="M157 459q0 16 11 27t27 11q15 0 26.5 -11t11.5 -27v-99h100q16 0 27 -11t11 -27q0 -15 -11 -26.5t-27 -11.5h-100v-100q0 -16 -11 -27t-27 -11q-15 0 -26.5 11t-11.5 27v100h-99q-16 0 -27 11t-11 27q0 15 11 26.5t27 11.5h99v99zM58 44q-16 0 -27 11t-11 27
q0 15 11 26.5t27 11.5h275q16 0 27 -11t11 -27q0 -15 -11 -26.5t-27 -11.5h-275z" />
    <glyph glyph-name="degree" unicode="&#xb0;" horiz-adv-x="295" 
d="M26 551q0 23 9 43.5t24 35.5t35.5 24t43.5 9t43.5 -9t35.5 -24t24 -35.5t9 -43.5t-9 -43.5t-24 -35.5t-35.5 -24t-43.5 -9t-43.5 9t-35.5 24t-24 35.5t-9 43.5zM103 551q0 -14 10.5 -24.5t24.5 -10.5t24.5 10.5t10.5 24.5t-10.5 24.5t-24.5 10.5t-24.5 -10.5t-10.5 -24.5
z" />
    <glyph glyph-name="ring" unicode="&#x2da;" horiz-adv-x="250" 
d="M113 707q37 0 63 -26t26 -63q0 -18 -7 -34t-19 -28t-28.5 -19t-34.5 -7t-34 7t-28 19t-19 28t-7 34t7 34.5t19 28.5t28 19t34 7zM78 618q0 -14 10.5 -24.5t24.5 -10.5t24.5 10.5t10.5 24.5t-10.5 24.5t-24.5 10.5t-24.5 -10.5t-10.5 -24.5z" />
    <glyph glyph-name="at.001" horiz-adv-x="530" 
d="M26 289q0 49 19 92t51 75.5t75.5 51t93.5 18.5q49 0 92 -18.5t75.5 -51t51.5 -75.5t19 -92v-86q0 -15 -5.5 -34.5t-17.5 -37t-31.5 -29t-47.5 -11.5h-137q-23 0 -43.5 9t-36 24.5t-24.5 36.5t-9 44v82q0 23 9 44t24.5 36.5t36.5 24.5t44 9t44 -9t36.5 -24.5t24.5 -36.5
t9 -44v-82q0 -10 -2 -19.5t-5 -18.5h29q17 0 21.5 13t4.5 23v86q0 33 -13 62.5t-35 51t-51.5 34.5t-62.5 13q-34 0 -64 -13t-52 -34.5t-34.5 -51t-12.5 -62.5v-86q0 -33 13 -62.5t35 -51t52 -34.5t63 -13h174q-33 -35 -78 -55.5t-96 -20.5q-49 0 -92.5 18.5t-76 51
t-51.5 75.5t-19 92v86zM303 287q0 16 -11 27t-27 11t-27 -11t-11 -27v-82q0 -16 10.5 -27t26.5 -11h1q16 0 27 11t11 27v82z" />
    <glyph glyph-name="scaron" unicode="&#x161;" horiz-adv-x="411" 
d="M32 360q0 31 13 57t35.5 44.5t54 28.5t68.5 10q30 -1 58 -9q24 -7 49 -22.5t42 -43.5q7 -14 7 -24q0 -15 -10.5 -26t-25.5 -11q-18 0 -31 16q-19 23 -38 33.5t-51 10.5q-43 0 -69 -18.5t-26 -45.5q0 -36 25 -50t70 -14q37 0 70 -9.5t57.5 -28.5t39 -47t14.5 -65
q0 -38 -14.5 -66t-40 -47t-59 -28t-70.5 -9q-8 0 -29.5 2.5t-47.5 13.5t-52.5 33.5t-44.5 62.5q-3 7 -3 14q0 15 10.5 26.5t27.5 11.5q12 0 21 -6.5t14 -17.5q13 -30 44 -47t63 -17q21 0 40.5 3.5t33.5 12t22.5 23t8.5 35.5q0 43 -30.5 58.5t-74.5 15.5q-37 0 -68.5 7
t-54 23.5t-35.5 43t-13 66.5zM114 605q-17 12 -17 31q0 16 12 27t28 11q11 0 21 -7l43 -31l44 31q8 7 21 7q15 0 27.5 -11t12.5 -27q0 -19 -17 -31l-66 -48q-10 -7 -22 -7q-10 0 -18 5z" />
    <glyph glyph-name="Ydieresis" unicode="&#x178;" horiz-adv-x="517" 
d="M16 622q0 16 11 27t27 11q15 0 26.5 -11t11.5 -27v-195q0 -33 13 -62.5t35 -51t52 -34.5t63 -13q34 0 63.5 13t51.5 34.5t34.5 51t12.5 62.5v195q0 16 11 27t27 11q15 0 26.5 -11t11.5 -27v-195q0 -44 -15.5 -83.5t-42.5 -70.5t-63.5 -52t-78.5 -28v-155q0 -16 -11 -27
t-27 -11q-15 0 -26.5 11t-11.5 27v155q-42 7 -79 28t-64 52t-42.5 70.5t-15.5 83.5v195zM164 787q0 16 11 27t27 11q15 0 26.5 -11t11.5 -27t-11 -27t-27 -11q-15 0 -26.5 11t-11.5 27zM274 787q0 16 11 27t27 11q15 0 26.5 -11t11.5 -27t-11 -27t-27 -11q-15 0 -26.5 11
t-11.5 27z" />
    <glyph glyph-name="AE" unicode="&#xc6;" horiz-adv-x="688" 
d="M272 637q10 23 35 23h309q16 0 27 -11t11 -27q0 -15 -11 -26.5t-27 -11.5h-233v-226h118q16 0 27 -11t11 -27q0 -15 -11 -26.5t-27 -11.5h-118v-206h233q16 0 27 -11t11 -27q0 -15 -11 -26.5t-27 -11.5h-271q-15 0 -26.5 11t-11.5 27v150h-147l-71 -166q-5 -11 -14.5 -17
t-20.5 -6q-17 0 -27 12t-10 25q0 8 3 16zM307 531l-115 -267h115v267z" />
    <glyph glyph-name="cedilla" unicode="&#xb8;" horiz-adv-x="229" 
d="M76 0h76v-17q0 -7 4 -16.5t9 -21t9 -23.5t4 -24q0 -11 -5 -21.5t-18.5 -18t-36.5 -12t-58 -4.5q-16 0 -27 11t-11 27t11 23t24.5 10t25 5.5t11.5 9.5q0 9 -9 23.5t-9 31.5v17z" />
    <glyph glyph-name="Eth" unicode="&#xd0;" horiz-adv-x="550" 
d="M57 622q0 16 11 27t27 11h200q49 0 93 -18.5t76 -50.5t51 -74.5t19 -91.5v-190q0 -49 -19 -91.5t-51 -74.5t-75.5 -50.5t-92.5 -18.5h-201q-15 0 -26.5 11t-11.5 27v245h-22q-16 0 -27 11t-11 27q0 15 11 26.5t27 11.5h22v263zM133 584v-225h117q16 0 27 -11t11 -27
q0 -15 -11 -26.5t-27 -11.5h-117v-207h163q34 0 63.5 12.5t51.5 34t34.5 50.5t12.5 62v190q0 33 -12.5 62t-34.5 50.5t-52 34t-64 12.5h-162z" />
    <glyph glyph-name="multiply" unicode="&#xd7;" horiz-adv-x="353" 
d="M45 352q-11 10 -11 27q0 15 11 26t26 11t28 -11l70 -70l70 70q11 11 27 11q15 0 26 -11t11 -26q0 -16 -11 -27l-70 -70l71 -71q11 -13 11 -27q0 -15 -10.5 -26.5t-27.5 -11.5q-16 0 -27 11l-70 71l-71 -71q-11 -11 -27 -11q-15 0 -26.5 10.5t-11.5 27.5q0 16 11 27l71 71
z" />
    <glyph glyph-name="Oslash" unicode="&#xd8;" horiz-adv-x="568" 
d="M56 444q0 49 19 92t51 75.5t75.5 51t93.5 18.5q49 0 92 -18.5t75.5 -51t51.5 -75.5t19 -92v-228q0 -49 -19 -92t-51 -75.5t-75.5 -51t-92.5 -18.5t-92.5 18.5t-76 51t-51.5 75.5t-19 92v228zM132 216q0 -33 13 -62.5t35 -51t52 -34.5t63 -13q34 0 63.5 13t51.5 34.5
t34.5 51t12.5 62.5v228q0 33 -13 62.5t-35 51t-51.5 34.5t-62.5 13q-34 0 -64 -13t-52 -34.5t-34.5 -51t-12.5 -62.5v-228zM488 648q5 7 12.5 10t15.5 3q17 0 28 -11.5t11 -26.5q0 -6 -1.5 -12.5t-6.5 -11.5l-447 -585q-11 -14 -28 -14t-28.5 12t-11.5 26t9 25z" />
    <glyph glyph-name="ae" unicode="&#xe6;" horiz-adv-x="698" 
d="M22 320q0 37 14 70t39 57.5t57.5 38.5t70.5 14q37 0 70 -14t57.5 -38.5t39 -57.5t14.5 -70v-282q0 -16 -11.5 -27t-26.5 -11q-14 0 -24.5 8.5t-12.5 21.5q-46 -34 -106 -34q-37 0 -70 14t-57.5 38.5t-39 57.5t-14.5 70v144zM98 176q0 -21 8.5 -40t22.5 -33.5t33.5 -22.5
t40.5 -8t40 7.5t33 21t22.5 31.5t9.5 39v149q0 21 -8.5 40t-22.5 33.5t-33.5 22.5t-40.5 8q-22 0 -41 -8t-33.5 -22.5t-22.5 -33.5t-8 -40v-144zM307 320q0 37 14 70t39 57.5t57.5 38.5t70.5 14q37 0 70 -14t57.5 -38.5t39 -57.5t14.5 -70v-72q0 -16 -11 -27t-27 -11h-248
v-34q0 -21 8.5 -40t22.5 -33.5t33.5 -22.5t40.5 -8q32 0 57.5 16.5t38.5 44.5l1 3q4 11 13.5 17.5t21.5 6.5q16 0 27 -11.5t11 -26.5q0 -7 -3 -14l-2 -4q-21 -48 -65 -78t-100 -30q-37 0 -70 14t-57.5 38.5t-39 57.5t-14.5 70v144zM383 286h210v34q0 21 -8.5 40t-22.5 33.5
t-33.5 22.5t-40.5 8q-22 0 -41 -8t-33.5 -22.5t-22.5 -33.5t-8 -40v-34z" />
    <glyph glyph-name="ccedilla" unicode="&#xe7;" horiz-adv-x="402" 
d="M25 320q0 38 14.5 71t40 57t59 38t71.5 14q7 0 27.5 -2.5t45.5 -13.5t49.5 -33.5t40.5 -62.5q3 -8 3 -14q0 -16 -11 -27t-27 -11q-12 0 -21.5 6.5t-13.5 17.5q-14 30 -40 47t-57 17q-22 0 -41 -8t-33.5 -22.5t-22.5 -33.5t-8 -40v-144q0 -21 8.5 -40t22.5 -33.5
t33.5 -22.5t40.5 -8q32 0 58 17t39 47q5 11 14 17.5t21 6.5q16 0 27 -11.5t11 -26.5q0 -7 -3 -14q-20 -44 -48 -67t-54.5 -33t-45 -11t-19.5 -1q-37 0 -70 14t-57.5 38.5t-39 57.5t-14.5 70v144zM154 13h76v-17q0 -7 4 -16.5t9 -21t9 -23.5t4 -24q0 -11 -5 -21.5t-18.5 -18
t-36.5 -12t-58 -4.5q-16 0 -27 11t-11 27t11 23t24.5 10t25 5.5t11.5 9.5q0 9 -9 23.5t-9 31.5v17z" />
    <glyph glyph-name="divide" unicode="&#xf7;" horiz-adv-x="381" 
d="M146 429q0 16 11 27t27 11q15 0 26.5 -11t11.5 -27t-11 -27t-27 -11q-15 0 -26.5 11t-11.5 27zM146 139q0 16 11 27t27 11q15 0 26.5 -11t11.5 -27t-11 -27t-27 -11q-15 0 -26.5 11t-11.5 27zM47 244q-16 0 -27 11t-11 27q0 15 11 26.5t27 11.5h275q16 0 27 -11t11 -27
q0 -15 -11 -26.5t-27 -11.5h-275z" />
    <glyph glyph-name="oslash" unicode="&#xf8;" horiz-adv-x="472" 
d="M97 320q0 37 14 70t39 57.5t57.5 38.5t70.5 14q37 0 70 -14t57.5 -38.5t39 -57.5t14.5 -70v-144q0 -37 -14 -70t-39 -57.5t-58 -38.5t-70 -14t-70 14t-57.5 38.5t-39 57.5t-14.5 70v144zM173 176q0 -21 8.5 -40t22.5 -33.5t33.5 -22.5t40.5 -8q22 0 41 8t33.5 22.5
t22.5 33.5t8 40v144q0 21 -8.5 40t-22.5 33.5t-33.5 22.5t-40.5 8q-22 0 -41 -8t-33.5 -22.5t-22.5 -33.5t-8 -40v-144zM444.62 524.711q4.32324 6.05762 10.8086 8.65332q6.48438 2.5957 13.4023 2.5957q14.6992 0 24.2109 -9.9502q9.51172 -9.95117 9.51172 -22.9307
q0 -5.19141 -1.29688 -10.8164q-1.29688 -5.62402 -5.62012 -9.95117l-386.515 -506.197q-9.51172 -12.1143 -24.2109 -12.1143q-14.7002 0 -24.6436 10.3838q-9.94434 10.3838 -9.94434 22.4971q0 12.1143 7.78223 21.6328z" />
    <glyph glyph-name="perthousand" unicode="&#x2030;" horiz-adv-x="865" 
d="M27 541q0 25 9.5 47.5t26.5 39t39 26t48 9.5q25 0 48 -9.5t39.5 -26t26.5 -39t10 -47.5v-99q0 -25 -10 -47.5t-26.5 -39t-39.5 -26t-48 -9.5t-47.5 9.5t-39 26t-26.5 39t-10 47.5v99zM79 442q0 -29 21 -49.5t50 -20.5q30 0 51 20.5t21 49.5v99q0 29 -21.5 49.5
t-50.5 20.5q-30 0 -50.5 -20.5t-20.5 -49.5v-99zM310 217q0 25 9.5 47.5t26.5 39t39 26t48 9.5q25 0 48 -9.5t39.5 -26t26.5 -39t10 -47.5v-99q0 -25 -10 -47.5t-26.5 -39t-39.5 -26t-48 -9.5t-47.5 9.5t-39 26t-26.5 39t-10 47.5v99zM362 118q0 -29 21 -49.5t50 -20.5
q30 0 51 20.5t21 49.5v99q0 29 -21.5 49.5t-50.5 20.5q-30 0 -50.5 -20.5t-20.5 -49.5v-99zM504 217q0 25 9.5 47.5t26.5 39t39 26t48 9.5q25 0 48 -9.5t39.5 -26t26.5 -39t10 -47.5v-99q0 -25 -10 -47.5t-26.5 -39t-39.5 -26t-48 -9.5t-47.5 9.5t-39 26t-26.5 39t-10 47.5
v99zM556 118q0 -29 21 -49.5t50 -20.5q30 0 51 20.5t21 49.5v99q0 29 -21.5 49.5t-50.5 20.5q-30 0 -50.5 -20.5t-20.5 -49.5v-99zM488 648q5 7 12.5 10t15.5 3q17 0 28 -11.5t11 -26.5q0 -6 -1.5 -12.5t-6.5 -11.5l-447 -585q-11 -14 -28 -14t-28.5 12t-11.5 26t9 25z" />
    <glyph glyph-name="Scaron" unicode="&#x160;" horiz-adv-x="527" 
d="M100 148q18 -40 59.5 -66.5t98.5 -26.5q31 0 61 7t53 22t37 38.5t14 55.5t-13.5 58t-36.5 44t-52.5 27.5t-62.5 9.5q-46 0 -85.5 13t-68 37.5t-45 59.5t-16.5 79q0 83 58.5 129t156.5 46q2 0 23.5 -1.5t51.5 -11t61.5 -29.5t53.5 -57q2 -5 4.5 -11t2.5 -13
q0 -12 -10 -24.5t-27 -12.5q-19 0 -29 13q-13 15 -25.5 28t-27.5 22.5t-34 15t-45 5.5q-38 0 -64.5 -8.5t-43 -22t-23.5 -31.5t-7 -37q0 -27 11 -48t29.5 -35.5t44 -22t54.5 -7.5q49 0 93 -15t77 -43t52 -68t19 -89q0 -50 -19.5 -87.5t-53 -62.5t-78 -37t-94.5 -12
q-10 0 -38 3t-63 17.5t-70 44.5t-58 83q-4 9 -4 21q0 16 10 27t25 11t26 -10.5t18 -27.5zM171 773q-17 12 -17 31q0 16 12 27t28 11q11 0 21 -7l43 -31l44 31q8 7 21 7q15 0 27.5 -11t12.5 -27q0 -19 -17 -31l-66 -48q-10 -7 -22 -7q-10 0 -18 5z" />
    <glyph glyph-name="trademark" unicode="&#x2122;" horiz-adv-x="746" 
d="M47 623q-8 0 -14 5.5t-6 13.5t6 14t14 6h207q8 0 14 -6t6 -14t-6 -13.5t-14 -5.5h-84v-283q0 -8 -6 -13.5t-14 -5.5t-14 5.5t-6 13.5v283h-83zM256 541q0 25 9 47.5t24.5 39.5t37 26.5t47.5 9.5q31 0 53.5 -12t37.5 -32q17 20 39 32t52 12q25 0 47 -9.5t37.5 -26.5
t24.5 -39.5t9 -47.5v-201q0 -8 -6 -13.5t-14 -5.5t-13.5 5.5t-5.5 13.5v201q0 35 -22 59.5t-57 24.5t-53 -24.5t-18 -59.5v-201q0 -8 -6 -13.5t-14 -5.5t-13.5 5.5t-5.5 13.5v202q0 34 -19 58.5t-53 24.5q-35 0 -56.5 -24.5t-21.5 -59.5v-201q0 -8 -6 -13.5t-14 -5.5
t-14 5.5t-6 13.5v201z" />
    <glyph glyph-name="Zcaron" unicode="&#x17d;" horiz-adv-x="547" 
d="M71 584q-16 0 -27 11t-11 27q0 15 11 26.5t27 11.5h391q20 0 34.5 -9t14.5 -27q0 -12 -6 -22l-371 -526h346q16 0 27 -11t11 -27q0 -15 -11 -26.5t-27 -11.5h-413q-21 0 -33.5 10.5t-12.5 26.5q0 12 7 22l370 525h-327zM173 773q-17 12 -17 31q0 16 12 27t28 11
q11 0 21 -7l43 -31l44 31q8 7 21 7q15 0 27.5 -11t12.5 -27q0 -19 -17 -31l-66 -48q-10 -7 -22 -7q-10 0 -18 5z" />
    <glyph glyph-name="zcaron" unicode="&#x17e;" horiz-adv-x="444" 
d="M81 420q-16 0 -27 11t-11 27q0 15 11 26.5t27 11.5h271q20 0 34.5 -9t14.5 -27q0 -12 -6 -22l-255 -362h227q16 0 27 -11t11 -27q0 -15 -11 -26.5t-27 -11.5h-294q-21 0 -33.5 10.5t-12.5 26.5q0 12 7 22l254 361h-207zM139 605q-17 12 -17 31q0 16 12 27t28 11
q11 0 21 -7l43 -31l44 31q8 7 21 7q15 0 27.5 -11t12.5 -27q0 -19 -17 -31l-66 -48q-10 -7 -22 -7q-10 0 -18 5z" />
    <glyph glyph-name="ordmasculine" unicode="&#xba;" horiz-adv-x="419" 
d="M82.7871 541.418q0 25.2549 9.55273 47.7793q9.55176 22.5244 26.6094 39.2471q17.0586 16.7217 39.2334 26.2783q22.1748 9.55566 48.1025 9.55566q25.2461 0 47.7617 -9.55566q22.5166 -9.55664 39.2334 -26.2783q16.7168 -16.7227 26.6104 -39.2471t9.89355 -47.7793
v-98.2881q0 -25.2549 -9.55273 -47.7793q-9.55176 -22.5244 -26.6104 -39.2471q-17.0576 -16.7227 -39.5742 -26.2783q-22.5156 -9.55566 -47.7617 -9.55566q-25.2451 0 -47.7617 9.55566q-22.5156 9.55566 -39.2324 26.2783t-26.6104 39.2471t-9.89355 47.7793v98.2881z
M134.643 443.13q0 -14.334 5.7998 -27.3018q5.7998 -12.9688 15.3525 -22.8662q9.55176 -9.89746 22.8574 -15.3574q13.3047 -5.45996 27.6328 -5.45996q15.0117 0 27.9756 5.45996t22.8574 15.3574t15.3516 22.8662q5.45898 12.9678 5.45898 27.3018v98.2881
q0 14.334 -5.7998 27.3027q-5.7998 12.9678 -15.3525 22.8652q-9.55176 9.89648 -22.8574 15.3574q-13.3047 5.46094 -27.6338 5.46094q-15.0107 0 -27.9746 -5.46094t-22.8574 -15.3574q-9.89355 -9.89746 -15.3516 -22.8652q-5.45898 -12.9688 -5.45898 -27.3027v-98.2881
z" />
    <glyph glyph-name="ordfeminine" unicode="&#xaa;" horiz-adv-x="422" 
d="M76.9482 540.688q0 25.4014 9.62988 48.0566t26.8271 39.4746q17.1963 16.8203 39.5518 26.4316t48.4951 9.61133q25.4512 0 48.1504 -9.61133t39.5527 -26.4316q16.8525 -16.8193 26.8262 -39.4746q9.97461 -22.6553 9.97461 -48.0566v-193.6
q0 -10.9844 -7.91113 -18.5361q-7.91016 -7.55176 -18.2285 -7.55176q-9.62988 0 -16.8525 5.83594q-7.22266 5.83496 -8.59863 14.7598q-31.6416 -23.3418 -72.9131 -23.3418q-25.4512 0 -48.1514 9.61133q-22.6992 9.61133 -39.5518 26.4316
q-16.8525 16.8193 -26.8271 39.4746q-9.97363 22.6553 -9.97363 48.0566v98.8594zM129.226 441.828q0 -14.417 5.84766 -27.4609q5.84668 -13.0439 15.4766 -22.998q9.62988 -9.95508 23.0439 -15.4473q13.4131 -5.49219 27.8584 -5.49219t27.5146 5.14844
q13.0693 5.14941 22.6992 14.418q9.62988 9.26758 15.4775 21.625q5.84668 12.3574 6.53418 26.7744v102.292q0 14.417 -5.84668 27.4609t-15.4775 22.998q-9.62988 9.95508 -23.043 15.4473t-27.8584 5.49219q-15.1338 0 -28.2031 -5.49219t-23.043 -15.4473
q-9.97461 -9.9541 -15.4775 -22.998t-5.50293 -27.4609v-98.8594z" />
    <glyph glyph-name="a" unicode="a" horiz-adv-x="432" 
d="M29 320q0 37 14 70t39 57.5t57.5 38.5t70.5 14q37 0 70 -14t57.5 -38.5t39 -57.5t14.5 -70v-282q0 -16 -11.5 -27t-26.5 -11q-14 0 -24.5 8.5t-12.5 21.5q-46 -34 -106 -34q-37 0 -70 14t-57.5 38.5t-39 57.5t-14.5 70v144zM105 176q0 -21 8.5 -40t22.5 -33.5t33.5 -22.5
t40.5 -8t40 7.5t33 21t22.5 31.5t9.5 39v149q0 21 -8.5 40t-22.5 33.5t-33.5 22.5t-40.5 8q-22 0 -41 -8t-33.5 -22.5t-22.5 -33.5t-8 -40v-144z" />
    <glyph glyph-name="percent" unicode="%" horiz-adv-x="685" 
d="M24 541q0 25 9.5 47.5t26.5 39t39 26t48 9.5q25 0 48 -9.5t39.5 -26t26.5 -39t10 -47.5v-99q0 -25 -10 -47.5t-26.5 -39t-39.5 -26t-48 -9.5t-47.5 9.5t-39 26t-26.5 39t-10 47.5v99zM76 442q0 -29 21 -49.5t50 -20.5q30 0 51 20.5t21 49.5v99q0 29 -21.5 49.5
t-50.5 20.5q-30 0 -50.5 -20.5t-20.5 -49.5v-99zM364 217q0 25 9.5 47.5t26.5 39t39 26t48 9.5q25 0 48 -9.5t39.5 -26t26.5 -39t10 -47.5v-99q0 -25 -10 -47.5t-26.5 -39t-39.5 -26t-48 -9.5t-47.5 9.5t-39 26t-26.5 39t-10 47.5v99zM416 118q0 -29 21 -49.5t50 -20.5
q30 0 51 20.5t21 49.5v99q0 29 -21.5 49.5t-50.5 20.5q-30 0 -50.5 -20.5t-20.5 -49.5v-99zM513 648q5 7 12.5 10t15.5 3q17 0 28 -11.5t11 -26.5q0 -6 -1.5 -12.5t-6.5 -11.5l-447 -585q-11 -14 -28 -14t-28.5 12t-11.5 26t9 25z" />
    <glyph glyph-name="copyright" unicode="&#xa9;" horiz-adv-x="544" 
d="M28 444q0 49 19 92t51 75.5t75.5 51t93.5 18.5q49 0 92 -18.5t75.5 -51t51.5 -75.5t19 -92v-228q0 -49 -19 -92t-51 -75.5t-75.5 -51t-92.5 -18.5t-92.5 18.5t-76 51t-51.5 75.5t-19 92v228zM104 216q0 -33 13 -62.5t35 -51t52 -34.5t63 -13q34 0 63.5 13t51.5 34.5
t34.5 51t12.5 62.5v228q0 33 -13 62.5t-35 51t-51.5 34.5t-62.5 13q-34 0 -64 -13t-52 -34.5t-34.5 -51t-12.5 -62.5v-228zM137 384q0 28 11 52t29.5 41.5t43 27.5t51.5 10q5 0 20 -2t33 -10t36.5 -24.5t30.5 -44.5q2 -8 2 -12q0 -11 -8 -19t-20 -8q-9 0 -16.5 4.5
t-9.5 13.5q-10 22 -29 34.5t-42 12.5q-32 0 -54.5 -22.5t-22.5 -53.5v-106q0 -31 22.5 -53.5t54.5 -22.5q23 0 42 12.5t29 34.5q4 8 10.5 13t15.5 5q12 0 20 -9t8 -20q0 -2 -2 -10q-15 -32 -35.5 -48.5t-40 -24t-33.5 -8l-14 -0.5q-27 0 -51 10.5t-42 28t-28.5 41.5
t-10.5 51v106z" />
    <glyph glyph-name="registered" unicode="&#xae;" horiz-adv-x="544" 
d="M28 444q0 49 19 92t51 75.5t75.5 51t93.5 18.5q49 0 92 -18.5t75.5 -51t51.5 -75.5t19 -92v-228q0 -49 -19 -92t-51 -75.5t-75.5 -51t-92.5 -18.5t-92.5 18.5t-76 51t-51.5 75.5t-19 92v228zM104 216q0 -33 13 -62.5t35 -51t52 -34.5t63 -13q34 0 63.5 13t51.5 34.5
t34.5 51t12.5 62.5v228q0 33 -13 62.5t-35 51t-51.5 34.5t-62.5 13q-34 0 -64 -13t-52 -34.5t-34.5 -51t-12.5 -62.5v-228zM152 511q0 10 7 16.5t16 6.5h64q30 0 56.5 -11.5t46.5 -31t31.5 -45.5t11.5 -56q0 -43 -22.5 -77t-58.5 -52l80 -94q6 -6 6 -15q0 -10 -7 -17t-16 -7
q-10 0 -18 8l-84 96q-5 6 -11.5 9.5t-14.5 3.5h-32v-92q0 -15 -7.5 -20t-19.5 -4q-14 0 -21 6.5t-7 16.5v359zM208 477v-175h36q18 0 34 6.5t28.5 18.5t19.5 28t7 35q0 18 -6.5 34t-19 28t-28.5 18.5t-35 6.5h-36z" />
    <glyph glyph-name="ogonek" unicode="&#x2db;" horiz-adv-x="373" 
d="M200 -17q0 -17 -9 -31.5t-9 -23.5q0 -7 11.5 -9.5t25 -5.5t24.5 -10t11 -23t-11 -27t-27 -11q-35 0 -58 4.5t-36.5 12t-18.5 18t-5 21.5q0 12 4 24t9 23.5t9 21t4 16.5v17h76v-17z" />
    <glyph glyph-name="germandbls" unicode="&#xdf;" horiz-adv-x="506" 
d="M169 38q0 16 11 27t27 11h35q34 0 63.5 12.5t51.5 34t34.5 50.5t12.5 62q0 32 -12.5 60.5t-34.5 50t-51.5 34.5t-63.5 14h-1q-16 0 -27 11t-11 27t11 27t27 11h1q24 0 41 16.5t17 40.5t-17.5 40.5t-41.5 16.5h-26q-21 0 -40.5 -8t-33.5 -22.5t-22.5 -33.5t-8.5 -40v-442
q0 -16 -11.5 -27t-26.5 -11q-16 0 -27 11t-11 27v442q0 38 14.5 71t39.5 57t58.5 38t68.5 14h26q28 0 52.5 -10.5t43 -28.5t29 -42t10.5 -52q0 -23 -7.5 -44t-20.5 -38q59 -29 95.5 -84.5t36.5 -125.5q0 -49 -19 -91.5t-51 -74.5t-75.5 -50.5t-92.5 -18.5h-35q-16 0 -27 11
t-11 27z" />
    <glyph glyph-name="florin" unicode="&#x192;" horiz-adv-x="399" 
d="M33 462v30q0 38 14.5 71t39.5 57t58.5 38t71.5 14q7 0 26.5 -2.5t44.5 -13.5t50 -33.5t43 -62.5q3 -8 3 -14q0 -16 -11 -27t-27 -11q-25 0 -35 24q-13 30 -39 47t-58 17q-21 0 -40.5 -8t-33.5 -22.5t-22.5 -33.5t-8.5 -40v-206h108q16 0 27 -11.5t11 -26.5q0 -16 -11 -27
t-27 -11h-108v-206q0 -37 -14.5 -70t-39 -57.5t-57.5 -38.5t-70 -14q-16 0 -27 11t-11 27t11 27t27 11q21 0 39.5 8t33 21.5t23 31.5t9.5 39v462z" />
    <glyph glyph-name="breve" unicode="&#x2d8;" horiz-adv-x="313" 
d="M156 542h-17q-22 0 -41 9t-34 20t-24.5 21.5t-11.5 13.5q-7 10 -3 21.5t13.5 19t23.5 8.5t27 -9q13 -12 27 -22t31 -10t31.5 10t27.5 22q13 10 26.5 8.5t23.5 -9.5t13.5 -19.5t-2.5 -19.5q-2 -3 -11.5 -13.5t-24.5 -21.5t-34 -20t-41 -9z" />
    <glyph glyph-name="Lslash" unicode="&#x141;" horiz-adv-x="549" 
d="M59 622q0 16 11 27t27 11q15 0 26.5 -11t11.5 -27v-546h363q16 0 27 -11t11 -27q0 -15 -11 -26.5t-27 -11.5h-401q-15 0 -26.5 11t-11.5 27v584zM33.6631 244.364q-11.417 0 -19.2666 10.5654q-7.84863 10.5664 -7.84863 25.9346q0 14.4072 7.84863 25.4531
q7.84961 11.0459 19.2666 11.0459h224.771q11.417 0 19.2666 -10.5654t7.84961 -25.9336q0 -14.4082 -7.84961 -25.4541t-19.2666 -11.0459h-224.771z" />
    <glyph glyph-name="lslash" unicode="&#x142;" horiz-adv-x="280" 
d="M99 622q0 16 11 27t27 11q15 0 26.5 -11t11.5 -27v-584q0 -16 -11 -27t-27 -11q-15 0 -26.5 11t-11.5 27v584zM39.8516 245.419q-10.1074 0 -17.0566 11.2891q-6.94824 11.2891 -6.94824 27.71q0 15.3945 6.94824 27.1973q6.94922 11.8027 17.0566 11.8027h198.99
q10.1074 0 17.0557 -11.2891q6.94922 -11.29 6.94922 -27.7109q0 -15.3945 -6.94922 -27.1963q-6.94824 -11.8027 -17.0557 -11.8027h-198.99z" />
    <glyph glyph-name="Agrave" unicode="&#xc0;" horiz-adv-x="615" 
d="M270 641q10 23 35 23q7 0 15 -3q14 -6 20 -20l252 -589q3 -8 3 -16q0 -13 -10 -25t-27 -12q-25 0 -35 23l-71 166h-294l-71 -166q-5 -11 -14.5 -17t-20.5 -6q-17 0 -27 12t-10 25q0 8 3 16zM305 531l-115 -267h229zM230 772q-6 9 -6 20q0 15 11 26t28 11q21 0 32 -18
l41 -71q5 -9 5 -20q0 -15 -10.5 -26t-27.5 -11q-22 0 -32 18z" />
    <glyph glyph-name="Aacute" unicode="&#xc1;" horiz-adv-x="615" 
d="M270 641q10 23 35 23q7 0 15 -3q14 -6 20 -20l252 -589q3 -8 3 -16q0 -13 -10 -25t-27 -12q-25 0 -35 23l-71 166h-294l-71 -166q-5 -11 -14.5 -17t-20.5 -6q-17 0 -27 12t-10 25q0 8 3 16zM305 531l-115 -267h229zM321 811q10 18 32 18q17 0 27.5 -11t10.5 -26
q0 -13 -5 -20l-41 -71q-11 -18 -32 -18q-17 0 -28 11t-11 26q0 9 6 20z" />
    <glyph glyph-name="Acircumflex" unicode="&#xc2;" horiz-adv-x="615" 
d="M270 641q10 23 35 23q7 0 15 -3q14 -6 20 -20l252 -589q3 -8 3 -16q0 -13 -10 -25t-27 -12q-25 0 -35 23l-71 166h-294l-71 -166q-5 -11 -14.5 -17t-20.5 -6q-17 0 -27 12t-10 25q0 8 3 16zM305 531l-115 -267h229zM289 801q8 5 18 5q12 0 22 -7l66 -48q17 -12 17 -31
q0 -16 -12.5 -27t-27.5 -11q-13 0 -21 7l-44 31l-43 -31q-10 -7 -21 -7q-16 0 -28 11t-12 27q0 19 17 31z" />
    <glyph glyph-name="Atilde" unicode="&#xc3;" horiz-adv-x="615" 
d="M270 641q10 23 35 23q7 0 15 -3q14 -6 20 -20l252 -589q3 -8 3 -16q0 -13 -10 -25t-27 -12q-25 0 -35 23l-71 166h-294l-71 -166q-5 -11 -14.5 -17t-20.5 -6q-17 0 -27 12t-10 25q0 8 3 16zM305 531l-115 -267h229zM176 766q0 15 10.5 25t25 15.5t30.5 8t28 2.5
q14 0 31 -6t39 -6q18 0 28.5 2t16.5 4t9.5 4t6.5 2q15 0 26.5 -11t11.5 -27q0 -15 -10.5 -24.5t-25 -15t-30.5 -8t-27 -2.5q-25 0 -56 10q-5 1 -15 1q-18 0 -28.5 -1.5t-16.5 -4t-9 -4t-6 -1.5q-15 0 -27 11t-12 26z" />
    <glyph glyph-name="Adieresis" unicode="&#xc4;" horiz-adv-x="615" 
d="M270 641q10 23 35 23q7 0 15 -3q14 -6 20 -20l252 -589q3 -8 3 -16q0 -13 -10 -25t-27 -12q-25 0 -35 23l-71 166h-294l-71 -166q-5 -11 -14.5 -17t-20.5 -6q-17 0 -27 12t-10 25q0 8 3 16zM305 531l-115 -267h229zM214 784q0 16 11 27t27 11q15 0 26.5 -11t11.5 -27
t-11 -27t-27 -11q-15 0 -26.5 11t-11.5 27zM324 784q0 16 11 27t27 11q15 0 26.5 -11t11.5 -27t-11 -27t-27 -11q-15 0 -26.5 11t-11.5 27z" />
    <glyph glyph-name="Aring" unicode="&#xc5;" horiz-adv-x="615" 
d="M270 641q10 23 35 23q7 0 15 -3q14 -6 20 -20l252 -589q3 -8 3 -16q0 -13 -10 -25t-27 -12q-25 0 -35 23l-71 166h-294l-71 -166q-5 -11 -14.5 -17t-20.5 -6q-17 0 -27 12t-10 25q0 8 3 16zM305 531l-115 -267h229zM307 860q37 0 63 -26t26 -63q0 -18 -7 -34t-19 -28
t-28.5 -19t-34.5 -7t-34 7t-28 19t-19 28t-7 34t7 34.5t19 28.5t28 19t34 7zM272 771q0 -14 10.5 -24.5t24.5 -10.5t24.5 10.5t10.5 24.5t-10.5 24.5t-24.5 10.5t-24.5 -10.5t-10.5 -24.5z" />
    <glyph glyph-name="Ccedilla" unicode="&#xc7;" horiz-adv-x="524" 
d="M28 445q0 49 19 92t51 75.5t75.5 51t93.5 18.5q36 0 69.5 -10.5t62 -30t50.5 -46t36 -58.5q3 -7 4 -10.5t1 -8.5q0 -14 -10 -26t-28 -12q-23 0 -34 22q-18 45 -59 74.5t-92 29.5q-34 0 -64 -13t-52 -34.5t-34.5 -51t-12.5 -62.5v-229q0 -33 13 -62.5t35 -51t52 -34.5
t63 -13q54 0 94 29.5t58 75.5q4 11 13.5 16t19.5 5q17 0 27.5 -12t10.5 -26q0 -8 -3 -15q-13 -33 -35 -60t-50.5 -47t-63 -31t-71.5 -11q-49 0 -92.5 18.5t-76 51t-51.5 75.5t-19 92v229zM238 0h76v-17q0 -7 4 -16.5t9 -21t9 -23.5t4 -24q0 -11 -5 -21.5t-18.5 -18
t-36.5 -12t-58 -4.5q-16 0 -27 11t-11 27t11 23t24.5 10t25 5.5t11.5 9.5q0 9 -9 23.5t-9 31.5v17z" />
    <glyph glyph-name="Egrave" unicode="&#xc8;" horiz-adv-x="555" 
d="M35 622q0 16 11 27t27 11h401q16 0 27 -11t11 -27q0 -15 -11 -26.5t-27 -11.5h-363v-226h213q16 0 27 -11t11 -27q0 -15 -11 -26.5t-27 -11.5h-213v-206h363q16 0 27 -11t11 -27q0 -15 -11 -26.5t-27 -11.5h-398h-3q-15 0 -26.5 11t-11.5 27v584zM168 771q-6 9 -6 20
q0 15 11 26t28 11q21 0 32 -18l41 -71q5 -9 5 -20q0 -15 -10.5 -26t-27.5 -11q-22 0 -32 18z" />
    <glyph glyph-name="Eacute" unicode="&#xc9;" horiz-adv-x="555" 
d="M35 622q0 16 11 27t27 11h401q16 0 27 -11t11 -27q0 -15 -11 -26.5t-27 -11.5h-363v-226h213q16 0 27 -11t11 -27q0 -15 -11 -26.5t-27 -11.5h-213v-206h363q16 0 27 -11t11 -27q0 -15 -11 -26.5t-27 -11.5h-398h-3q-15 0 -26.5 11t-11.5 27v584zM212 811q10 18 32 18
q17 0 27.5 -11t10.5 -26q0 -13 -5 -20l-41 -71q-11 -18 -32 -18q-17 0 -28 11t-11 26q0 9 6 20z" />
    <glyph glyph-name="Ecircumflex" unicode="&#xca;" horiz-adv-x="555" 
d="M35 622q0 16 11 27t27 11h401q16 0 27 -11t11 -27q0 -15 -11 -26.5t-27 -11.5h-363v-226h213q16 0 27 -11t11 -27q0 -15 -11 -26.5t-27 -11.5h-213v-206h363q16 0 27 -11t11 -27q0 -15 -11 -26.5t-27 -11.5h-398h-3q-15 0 -26.5 11t-11.5 27v584zM259 814q8 5 18 5
q12 0 22 -7l66 -48q17 -12 17 -31q0 -16 -12.5 -27t-27.5 -11q-13 0 -21 7l-44 31l-43 -31q-10 -7 -21 -7q-16 0 -28 11t-12 27q0 19 17 31z" />
    <glyph glyph-name="Ntilde" unicode="&#xd1;" horiz-adv-x="550" 
d="M32 427q0 49 19 92t51 75t75.5 51t92.5 19t92.5 -19t76 -51t51.5 -75t19 -92v-389q0 -16 -11 -27t-27 -11q-15 0 -26.5 11t-11.5 27v389q0 33 -13 62.5t-35 51t-52 34.5t-63 13q-34 0 -63.5 -13t-51.5 -34.5t-34.5 -51t-12.5 -62.5v-389q0 -16 -11 -27t-27 -11
q-15 0 -26.5 11t-11.5 27v389zM143 766q0 15 10.5 25t25 15.5t30.5 8t28 2.5q14 0 31 -6t39 -6q18 0 28.5 2t16.5 4t9.5 4t6.5 2q15 0 26.5 -11t11.5 -27q0 -15 -10.5 -24.5t-25 -15t-30.5 -8t-27 -2.5q-25 0 -56 10q-5 1 -15 1q-18 0 -28.5 -1.5t-16.5 -4t-9 -4t-6 -1.5
q-15 0 -27 11t-12 26z" />
    <glyph glyph-name="Edieresis" unicode="&#xcb;" horiz-adv-x="555" 
d="M35 622q0 16 11 27t27 11h401q16 0 27 -11t11 -27q0 -15 -11 -26.5t-27 -11.5h-363v-226h213q16 0 27 -11t11 -27q0 -15 -11 -26.5t-27 -11.5h-213v-206h363q16 0 27 -11t11 -27q0 -15 -11 -26.5t-27 -11.5h-398h-3q-15 0 -26.5 11t-11.5 27v584zM184 784q0 16 11 27
t27 11q15 0 26.5 -11t11.5 -27t-11 -27t-27 -11q-15 0 -26.5 11t-11.5 27zM294 784q0 16 11 27t27 11q15 0 26.5 -11t11.5 -27t-11 -27t-27 -11q-15 0 -26.5 11t-11.5 27z" />
    <glyph glyph-name="Ograve" unicode="&#xd2;" horiz-adv-x="544" 
d="M28 444q0 49 19 92t51 75.5t75.5 51t93.5 18.5q49 0 92 -18.5t75.5 -51t51.5 -75.5t19 -92v-228q0 -49 -19 -92t-51 -75.5t-75.5 -51t-92.5 -18.5t-92.5 18.5t-76 51t-51.5 75.5t-19 92v228zM104 216q0 -33 13 -62.5t35 -51t52 -34.5t63 -13q34 0 63.5 13t51.5 34.5
t34.5 51t12.5 62.5v228q0 33 -13 62.5t-35 51t-51.5 34.5t-62.5 13q-34 0 -64 -13t-52 -34.5t-34.5 -51t-12.5 -62.5v-228zM193 801q-6 9 -6 20q0 15 11 26t28 11q21 0 32 -18l41 -71q5 -9 5 -20q0 -15 -10.5 -26t-27.5 -11q-22 0 -32 18z" />
    <glyph glyph-name="Ugrave" unicode="&#xd9;" horiz-adv-x="551" 
d="M32 622q0 16 11 27t27 11q15 0 26.5 -11t11.5 -27v-406q0 -33 13 -62.5t35 -51t52 -34.5t63 -13q34 0 63.5 13t51.5 34.5t34.5 51t12.5 62.5v406q0 16 11 27t27 11q15 0 26.5 -11t11.5 -27v-406q0 -49 -19 -92t-51 -75.5t-75.5 -51t-92.5 -18.5t-92.5 18.5t-76 51
t-51.5 75.5t-19 92v406zM194 771q-6 9 -6 20q0 15 11 26t28 11q21 0 32 -18l41 -71q5 -9 5 -20q0 -15 -10.5 -26t-27.5 -11q-22 0 -32 18z" />
    <glyph glyph-name="Uacute" unicode="&#xda;" horiz-adv-x="551" 
d="M32 622q0 16 11 27t27 11q15 0 26.5 -11t11.5 -27v-406q0 -33 13 -62.5t35 -51t52 -34.5t63 -13q34 0 63.5 13t51.5 34.5t34.5 51t12.5 62.5v406q0 16 11 27t27 11q15 0 26.5 -11t11.5 -27v-406q0 -49 -19 -92t-51 -75.5t-75.5 -51t-92.5 -18.5t-92.5 18.5t-76 51
t-51.5 75.5t-19 92v406zM289 811q10 18 32 18q17 0 27.5 -11t10.5 -26q0 -13 -5 -20l-41 -71q-11 -18 -32 -18q-17 0 -28 11t-11 26q0 9 6 20z" />
    <glyph glyph-name="Oacute" unicode="&#xd3;" horiz-adv-x="544" 
d="M28 444q0 49 19 92t51 75.5t75.5 51t93.5 18.5q49 0 92 -18.5t75.5 -51t51.5 -75.5t19 -92v-228q0 -49 -19 -92t-51 -75.5t-75.5 -51t-92.5 -18.5t-92.5 18.5t-76 51t-51.5 75.5t-19 92v228zM104 216q0 -33 13 -62.5t35 -51t52 -34.5t63 -13q34 0 63.5 13t51.5 34.5
t34.5 51t12.5 62.5v228q0 33 -13 62.5t-35 51t-51.5 34.5t-62.5 13q-34 0 -64 -13t-52 -34.5t-34.5 -51t-12.5 -62.5v-228zM272 833q10 18 32 18q17 0 27.5 -11t10.5 -26q0 -13 -5 -20l-41 -71q-11 -18 -32 -18q-17 0 -28 11t-11 26q0 9 6 20z" />
    <glyph glyph-name="Ocircumflex" unicode="&#xd4;" horiz-adv-x="544" 
d="M28 444q0 49 19 92t51 75.5t75.5 51t93.5 18.5q49 0 92 -18.5t75.5 -51t51.5 -75.5t19 -92v-228q0 -49 -19 -92t-51 -75.5t-75.5 -51t-92.5 -18.5t-92.5 18.5t-76 51t-51.5 75.5t-19 92v228zM104 216q0 -33 13 -62.5t35 -51t52 -34.5t63 -13q34 0 63.5 13t51.5 34.5
t34.5 51t12.5 62.5v228q0 33 -13 62.5t-35 51t-51.5 34.5t-62.5 13q-34 0 -64 -13t-52 -34.5t-34.5 -51t-12.5 -62.5v-228zM249 823q8 5 18 5q12 0 22 -7l66 -48q17 -12 17 -31q0 -16 -12.5 -27t-27.5 -11q-13 0 -21 7l-44 31l-43 -31q-10 -7 -21 -7q-16 0 -28 11t-12 27
q0 19 17 31z" />
    <glyph glyph-name="Ucircumflex" unicode="&#xdb;" horiz-adv-x="551" 
d="M32 622q0 16 11 27t27 11q15 0 26.5 -11t11.5 -27v-406q0 -33 13 -62.5t35 -51t52 -34.5t63 -13q34 0 63.5 13t51.5 34.5t34.5 51t12.5 62.5v406q0 16 11 27t27 11q15 0 26.5 -11t11.5 -27v-406q0 -49 -19 -92t-51 -75.5t-75.5 -51t-92.5 -18.5t-92.5 18.5t-76 51
t-51.5 75.5t-19 92v406zM257 814q8 5 18 5q12 0 22 -7l66 -48q17 -12 17 -31q0 -16 -12.5 -27t-27.5 -11q-13 0 -21 7l-44 31l-43 -31q-10 -7 -21 -7q-16 0 -28 11t-12 27q0 19 17 31z" />
    <glyph glyph-name="Udieresis" unicode="&#xdc;" horiz-adv-x="551" 
d="M32 622q0 16 11 27t27 11q15 0 26.5 -11t11.5 -27v-406q0 -33 13 -62.5t35 -51t52 -34.5t63 -13q34 0 63.5 13t51.5 34.5t34.5 51t12.5 62.5v406q0 16 11 27t27 11q15 0 26.5 -11t11.5 -27v-406q0 -49 -19 -92t-51 -75.5t-75.5 -51t-92.5 -18.5t-92.5 18.5t-76 51
t-51.5 75.5t-19 92v406zM182 784q0 16 11 27t27 11q15 0 26.5 -11t11.5 -27t-11 -27t-27 -11q-15 0 -26.5 11t-11.5 27zM292 784q0 16 11 27t27 11q15 0 26.5 -11t11.5 -27t-11 -27t-27 -11q-15 0 -26.5 11t-11.5 27z" />
    <glyph glyph-name="Otilde" unicode="&#xd5;" horiz-adv-x="544" 
d="M28 444q0 49 19 92t51 75.5t75.5 51t93.5 18.5q49 0 92 -18.5t75.5 -51t51.5 -75.5t19 -92v-228q0 -49 -19 -92t-51 -75.5t-75.5 -51t-92.5 -18.5t-92.5 18.5t-76 51t-51.5 75.5t-19 92v228zM104 216q0 -33 13 -62.5t35 -51t52 -34.5t63 -13q34 0 63.5 13t51.5 34.5
t34.5 51t12.5 62.5v228q0 33 -13 62.5t-35 51t-51.5 34.5t-62.5 13q-34 0 -64 -13t-52 -34.5t-34.5 -51t-12.5 -62.5v-228zM140 766q0 15 10.5 25t25 15.5t30.5 8t28 2.5q14 0 31 -6t39 -6q18 0 28.5 2t16.5 4t9.5 4t6.5 2q15 0 26.5 -11t11.5 -27q0 -15 -10.5 -24.5
t-25 -15t-30.5 -8t-27 -2.5q-25 0 -56 10q-5 1 -15 1q-18 0 -28.5 -1.5t-16.5 -4t-9 -4t-6 -1.5q-15 0 -27 11t-12 26z" />
    <glyph glyph-name="Odieresis" unicode="&#xd6;" horiz-adv-x="544" 
d="M28 444q0 49 19 92t51 75.5t75.5 51t93.5 18.5q49 0 92 -18.5t75.5 -51t51.5 -75.5t19 -92v-228q0 -49 -19 -92t-51 -75.5t-75.5 -51t-92.5 -18.5t-92.5 18.5t-76 51t-51.5 75.5t-19 92v228zM104 216q0 -33 13 -62.5t35 -51t52 -34.5t63 -13q34 0 63.5 13t51.5 34.5
t34.5 51t12.5 62.5v228q0 33 -13 62.5t-35 51t-51.5 34.5t-62.5 13q-34 0 -64 -13t-52 -34.5t-34.5 -51t-12.5 -62.5v-228zM175 776q0 16 11 27t27 11q15 0 26.5 -11t11.5 -27t-11 -27t-27 -11q-15 0 -26.5 11t-11.5 27zM285 776q0 16 11 27t27 11q15 0 26.5 -11t11.5 -27
t-11 -27t-27 -11q-15 0 -26.5 11t-11.5 27z" />
    <glyph glyph-name="Yacute" unicode="&#xdd;" horiz-adv-x="545" 
d="M28 622q0 16 11 27t27 11q15 0 26.5 -11t11.5 -27v-195q0 -33 13 -62.5t35 -51t52 -34.5t63 -13q34 0 63.5 13t51.5 34.5t34.5 51t12.5 62.5v195q0 16 11 27t27 11q15 0 26.5 -11t11.5 -27v-195q0 -44 -15.5 -83.5t-42.5 -70.5t-63.5 -52t-78.5 -28v-155q0 -16 -11 -27
t-27 -11q-15 0 -26.5 11t-11.5 27v155q-42 7 -79 28t-64 52t-42.5 70.5t-15.5 83.5v195zM279 811q10 18 32 18q17 0 27.5 -11t10.5 -26q0 -13 -5 -20l-41 -71q-11 -18 -32 -18q-17 0 -28 11t-11 26q0 9 6 20z" />
    <glyph glyph-name="adieresis" unicode="&#xe4;" horiz-adv-x="432" 
d="M29 320q0 37 14 70t39 57.5t57.5 38.5t70.5 14q37 0 70 -14t57.5 -38.5t39 -57.5t14.5 -70v-282q0 -16 -11.5 -27t-26.5 -11q-14 0 -24.5 8.5t-12.5 21.5q-46 -34 -106 -34q-37 0 -70 14t-57.5 38.5t-39 57.5t-14.5 70v144zM105 176q0 -21 8.5 -40t22.5 -33.5t33.5 -22.5
t40.5 -8t40 7.5t33 21t22.5 31.5t9.5 39v149q0 21 -8.5 40t-22.5 33.5t-33.5 22.5t-40.5 8q-22 0 -41 -8t-33.5 -22.5t-22.5 -33.5t-8 -40v-144zM123 628q0 16 11 27t27 11q15 0 26.5 -11t11.5 -27t-11 -27t-27 -11q-15 0 -26.5 11t-11.5 27zM233 628q0 16 11 27t27 11
q15 0 26.5 -11t11.5 -27t-11 -27t-27 -11q-15 0 -26.5 11t-11.5 27z" />
    <glyph glyph-name="aring" unicode="&#xe5;" horiz-adv-x="432" 
d="M29 320q0 37 14 70t39 57.5t57.5 38.5t70.5 14q37 0 70 -14t57.5 -38.5t39 -57.5t14.5 -70v-282q0 -16 -11.5 -27t-26.5 -11q-14 0 -24.5 8.5t-12.5 21.5q-46 -34 -106 -34q-37 0 -70 14t-57.5 38.5t-39 57.5t-14.5 70v144zM105 176q0 -21 8.5 -40t22.5 -33.5t33.5 -22.5
t40.5 -8t40 7.5t33 21t22.5 31.5t9.5 39v149q0 21 -8.5 40t-22.5 33.5t-33.5 22.5t-40.5 8q-22 0 -41 -8t-33.5 -22.5t-22.5 -33.5t-8 -40v-144zM215 696q37 0 63 -26t26 -63q0 -18 -7 -34t-19 -28t-28.5 -19t-34.5 -7t-34 7t-28 19t-19 28t-7 34t7 34.5t19 28.5t28 19t34 7
zM180 607q0 -14 10.5 -24.5t24.5 -10.5t24.5 10.5t10.5 24.5t-10.5 24.5t-24.5 10.5t-24.5 -10.5t-10.5 -24.5z" />
    <glyph glyph-name="acircumflex" unicode="&#xe2;" horiz-adv-x="432" 
d="M29 320q0 37 14 70t39 57.5t57.5 38.5t70.5 14q37 0 70 -14t57.5 -38.5t39 -57.5t14.5 -70v-282q0 -16 -11.5 -27t-26.5 -11q-14 0 -24.5 8.5t-12.5 21.5q-46 -34 -106 -34q-37 0 -70 14t-57.5 38.5t-39 57.5t-14.5 70v144zM105 176q0 -21 8.5 -40t22.5 -33.5t33.5 -22.5
t40.5 -8t40 7.5t33 21t22.5 31.5t9.5 39v149q0 21 -8.5 40t-22.5 33.5t-33.5 22.5t-40.5 8q-22 0 -41 -8t-33.5 -22.5t-22.5 -33.5t-8 -40v-144zM197 658q8 5 18 5q12 0 22 -7l66 -48q17 -12 17 -31q0 -16 -12.5 -27t-27.5 -11q-13 0 -21 7l-44 31l-43 -31q-10 -7 -21 -7
q-16 0 -28 11t-12 27q0 19 17 31z" />
    <glyph glyph-name="atilde" unicode="&#xe3;" horiz-adv-x="432" 
d="M29 320q0 37 14 70t39 57.5t57.5 38.5t70.5 14q37 0 70 -14t57.5 -38.5t39 -57.5t14.5 -70v-282q0 -16 -11.5 -27t-26.5 -11q-14 0 -24.5 8.5t-12.5 21.5q-46 -34 -106 -34q-37 0 -70 14t-57.5 38.5t-39 57.5t-14.5 70v144zM105 176q0 -21 8.5 -40t22.5 -33.5t33.5 -22.5
t40.5 -8t40 7.5t33 21t22.5 31.5t9.5 39v149q0 21 -8.5 40t-22.5 33.5t-33.5 22.5t-40.5 8q-22 0 -41 -8t-33.5 -22.5t-22.5 -33.5t-8 -40v-144zM84 610q0 15 10.5 25t25 15.5t30.5 8t28 2.5q14 0 31 -6t39 -6q18 0 28.5 2t16.5 4t9.5 4t6.5 2q15 0 26.5 -11t11.5 -27
q0 -15 -10.5 -24.5t-25 -15t-30.5 -8t-27 -2.5q-25 0 -56 10q-5 1 -15 1q-18 0 -28.5 -1.5t-16.5 -4t-9 -4t-6 -1.5q-15 0 -27 11t-12 26z" />
    <glyph glyph-name="aacute" unicode="&#xe1;" horiz-adv-x="432" 
d="M29 320q0 37 14 70t39 57.5t57.5 38.5t70.5 14q37 0 70 -14t57.5 -38.5t39 -57.5t14.5 -70v-282q0 -16 -11.5 -27t-26.5 -11q-14 0 -24.5 8.5t-12.5 21.5q-46 -34 -106 -34q-37 0 -70 14t-57.5 38.5t-39 57.5t-14.5 70v144zM105 176q0 -21 8.5 -40t22.5 -33.5t33.5 -22.5
t40.5 -8t40 7.5t33 21t22.5 31.5t9.5 39v149q0 21 -8.5 40t-22.5 33.5t-33.5 22.5t-40.5 8q-22 0 -41 -8t-33.5 -22.5t-22.5 -33.5t-8 -40v-144zM219 648q10 18 32 18q17 0 27.5 -11t10.5 -26q0 -13 -5 -20l-41 -71q-11 -18 -32 -18q-17 0 -28 11t-11 26q0 9 6 20z" />
    <glyph glyph-name="agrave" unicode="&#xe0;" horiz-adv-x="432" 
d="M29 320q0 37 14 70t39 57.5t57.5 38.5t70.5 14q37 0 70 -14t57.5 -38.5t39 -57.5t14.5 -70v-282q0 -16 -11.5 -27t-26.5 -11q-14 0 -24.5 8.5t-12.5 21.5q-46 -34 -106 -34q-37 0 -70 14t-57.5 38.5t-39 57.5t-14.5 70v144zM105 176q0 -21 8.5 -40t22.5 -33.5t33.5 -22.5
t40.5 -8t40 7.5t33 21t22.5 31.5t9.5 39v149q0 21 -8.5 40t-22.5 33.5t-33.5 22.5t-40.5 8q-22 0 -41 -8t-33.5 -22.5t-22.5 -33.5t-8 -40v-144zM132 608q-6 9 -6 20q0 15 11 26t28 11q21 0 32 -18l41 -71q5 -9 5 -20q0 -15 -10.5 -26t-27.5 -11q-22 0 -32 18z" />
    <glyph glyph-name="egrave" unicode="&#xe8;" horiz-adv-x="430" 
d="M29 320q0 37 14 70t39 57.5t57.5 38.5t70.5 14q37 0 70 -14t57.5 -38.5t39 -57.5t14.5 -70v-72q0 -16 -11 -27t-27 -11h-248v-34q0 -21 8.5 -40t22.5 -33.5t33.5 -22.5t40.5 -8q32 0 57.5 16.5t38.5 44.5l1 3q4 11 13.5 17.5t21.5 6.5q16 0 27 -11.5t11 -26.5
q0 -7 -3 -14l-2 -4q-21 -48 -65 -78t-100 -30q-37 0 -70 14t-57.5 38.5t-39 57.5t-14.5 70v144zM105 286h210v34q0 21 -8.5 40t-22.5 33.5t-33.5 22.5t-40.5 8q-22 0 -41 -8t-33.5 -22.5t-22.5 -33.5t-8 -40v-34zM136 607q-6 9 -6 20q0 15 11 26t28 11q21 0 32 -18l41 -71
q5 -9 5 -20q0 -15 -10.5 -26t-27.5 -11q-22 0 -32 18z" />
    <glyph glyph-name="ecircumflex" unicode="&#xea;" horiz-adv-x="430" 
d="M29 320q0 37 14 70t39 57.5t57.5 38.5t70.5 14q37 0 70 -14t57.5 -38.5t39 -57.5t14.5 -70v-72q0 -16 -11 -27t-27 -11h-248v-34q0 -21 8.5 -40t22.5 -33.5t33.5 -22.5t40.5 -8q32 0 57.5 16.5t38.5 44.5l1 3q4 11 13.5 17.5t21.5 6.5q16 0 27 -11.5t11 -26.5
q0 -7 -3 -14l-2 -4q-21 -48 -65 -78t-100 -30q-37 0 -70 14t-57.5 38.5t-39 57.5t-14.5 70v144zM105 286h210v34q0 21 -8.5 40t-22.5 33.5t-33.5 22.5t-40.5 8q-22 0 -41 -8t-33.5 -22.5t-22.5 -33.5t-8 -40v-34zM196 658q8 5 18 5q12 0 22 -7l66 -48q17 -12 17 -31
q0 -16 -12.5 -27t-27.5 -11q-13 0 -21 7l-44 31l-43 -31q-10 -7 -21 -7q-16 0 -28 11t-12 27q0 19 17 31z" />
    <glyph glyph-name="edieresis" unicode="&#xeb;" horiz-adv-x="430" 
d="M29 320q0 37 14 70t39 57.5t57.5 38.5t70.5 14q37 0 70 -14t57.5 -38.5t39 -57.5t14.5 -70v-72q0 -16 -11 -27t-27 -11h-248v-34q0 -21 8.5 -40t22.5 -33.5t33.5 -22.5t40.5 -8q32 0 57.5 16.5t38.5 44.5l1 3q4 11 13.5 17.5t21.5 6.5q16 0 27 -11.5t11 -26.5
q0 -7 -3 -14l-2 -4q-21 -48 -65 -78t-100 -30q-37 0 -70 14t-57.5 38.5t-39 57.5t-14.5 70v144zM105 286h210v34q0 21 -8.5 40t-22.5 33.5t-33.5 22.5t-40.5 8q-22 0 -41 -8t-33.5 -22.5t-22.5 -33.5t-8 -40v-34zM122 628q0 16 11 27t27 11q15 0 26.5 -11t11.5 -27t-11 -27
t-27 -11q-15 0 -26.5 11t-11.5 27zM232 628q0 16 11 27t27 11q15 0 26.5 -11t11.5 -27t-11 -27t-27 -11q-15 0 -26.5 11t-11.5 27z" />
    <glyph glyph-name="eacute" unicode="&#xe9;" horiz-adv-x="430" 
d="M29 320q0 37 14 70t39 57.5t57.5 38.5t70.5 14q37 0 70 -14t57.5 -38.5t39 -57.5t14.5 -70v-72q0 -16 -11 -27t-27 -11h-248v-34q0 -21 8.5 -40t22.5 -33.5t33.5 -22.5t40.5 -8q32 0 57.5 16.5t38.5 44.5l1 3q4 11 13.5 17.5t21.5 6.5q16 0 27 -11.5t11 -26.5
q0 -7 -3 -14l-2 -4q-21 -48 -65 -78t-100 -30q-37 0 -70 14t-57.5 38.5t-39 57.5t-14.5 70v144zM105 286h210v34q0 21 -8.5 40t-22.5 33.5t-33.5 22.5t-40.5 8q-22 0 -41 -8t-33.5 -22.5t-22.5 -33.5t-8 -40v-34zM228 646q10 18 32 18q17 0 27.5 -11t10.5 -26q0 -13 -5 -20
l-41 -71q-11 -18 -32 -18q-17 0 -28 11t-11 26q0 9 6 20z" />
    <glyph glyph-name="ntilde" unicode="&#xf1;" 
d="M32 320q0 37 14 70t39 57.5t57.5 38.5t70.5 14q37 0 70 -14t57.5 -38.5t39 -57.5t14.5 -70v-282q0 -16 -11.5 -27t-26.5 -11q-16 0 -27 11t-11 27v282q0 21 -8.5 40t-22.5 33.5t-33.5 22.5t-40.5 8q-22 0 -41 -8t-33.5 -22.5t-22.5 -33.5t-8 -40v-282q0 -16 -11.5 -27
t-26.5 -11q-16 0 -27 11t-11 27v282zM86 610q0 15 10.5 25t25 15.5t30.5 8t28 2.5q14 0 31 -6t39 -6q18 0 28.5 2t16.5 4t9.5 4t6.5 2q15 0 26.5 -11t11.5 -27q0 -15 -10.5 -24.5t-25 -15t-30.5 -8t-27 -2.5q-25 0 -56 10q-5 1 -15 1q-18 0 -28.5 -1.5t-16.5 -4t-9 -4
t-6 -1.5q-15 0 -27 11t-12 26z" />
    <glyph glyph-name="ograve" unicode="&#xf2;" horiz-adv-x="430" 
d="M29 320q0 37 14 70t39 57.5t57.5 38.5t70.5 14q37 0 70 -14t57.5 -38.5t39 -57.5t14.5 -70v-144q0 -37 -14 -70t-39 -57.5t-58 -38.5t-70 -14t-70 14t-57.5 38.5t-39 57.5t-14.5 70v144zM105 176q0 -21 8.5 -40t22.5 -33.5t33.5 -22.5t40.5 -8q22 0 41 8t33.5 22.5
t22.5 33.5t8 40v144q0 21 -8.5 40t-22.5 33.5t-33.5 22.5t-40.5 8q-22 0 -41 -8t-33.5 -22.5t-22.5 -33.5t-8 -40v-144zM128 607q-6 9 -6 20q0 15 11 26t28 11q21 0 32 -18l41 -71q5 -9 5 -20q0 -15 -10.5 -26t-27.5 -11q-22 0 -32 18z" />
    <glyph glyph-name="oacute" unicode="&#xf3;" horiz-adv-x="430" 
d="M29 320q0 37 14 70t39 57.5t57.5 38.5t70.5 14q37 0 70 -14t57.5 -38.5t39 -57.5t14.5 -70v-144q0 -37 -14 -70t-39 -57.5t-58 -38.5t-70 -14t-70 14t-57.5 38.5t-39 57.5t-14.5 70v144zM105 176q0 -21 8.5 -40t22.5 -33.5t33.5 -22.5t40.5 -8q22 0 41 8t33.5 22.5
t22.5 33.5t8 40v144q0 21 -8.5 40t-22.5 33.5t-33.5 22.5t-40.5 8q-22 0 -41 -8t-33.5 -22.5t-22.5 -33.5t-8 -40v-144zM226 646q10 18 32 18q17 0 27.5 -11t10.5 -26q0 -13 -5 -20l-41 -71q-11 -18 -32 -18q-17 0 -28 11t-11 26q0 9 6 20z" />
    <glyph glyph-name="ocircumflex" unicode="&#xf4;" horiz-adv-x="430" 
d="M29 320q0 37 14 70t39 57.5t57.5 38.5t70.5 14q37 0 70 -14t57.5 -38.5t39 -57.5t14.5 -70v-144q0 -37 -14 -70t-39 -57.5t-58 -38.5t-70 -14t-70 14t-57.5 38.5t-39 57.5t-14.5 70v144zM105 176q0 -21 8.5 -40t22.5 -33.5t33.5 -22.5t40.5 -8q22 0 41 8t33.5 22.5
t22.5 33.5t8 40v144q0 21 -8.5 40t-22.5 33.5t-33.5 22.5t-40.5 8q-22 0 -41 -8t-33.5 -22.5t-22.5 -33.5t-8 -40v-144zM196 658q8 5 18 5q12 0 22 -7l66 -48q17 -12 17 -31q0 -16 -12.5 -27t-27.5 -11q-13 0 -21 7l-44 31l-43 -31q-10 -7 -21 -7q-16 0 -28 11t-12 27
q0 19 17 31z" />
    <glyph glyph-name="uacute" unicode="&#xfa;" 
d="M32 458q0 16 11 27t27 11q15 0 26.5 -11t11.5 -27v-282q0 -21 8 -40t22.5 -33.5t33.5 -22.5t41 -8q21 0 40.5 8t33.5 22.5t22.5 33.5t8.5 40v282q0 16 11 27t27 11q15 0 26.5 -11t11.5 -27v-282q0 -37 -14.5 -70t-39 -57.5t-57.5 -38.5t-70 -14q-38 0 -70.5 14
t-57.5 38.5t-39 57.5t-14 70v282zM223 646q10 18 32 18q17 0 27.5 -11t10.5 -26q0 -13 -5 -20l-41 -71q-11 -18 -32 -18q-17 0 -28 11t-11 26q0 9 6 20z" />
    <glyph glyph-name="ugrave" unicode="&#xf9;" 
d="M32 458q0 16 11 27t27 11q15 0 26.5 -11t11.5 -27v-282q0 -21 8 -40t22.5 -33.5t33.5 -22.5t41 -8q21 0 40.5 8t33.5 22.5t22.5 33.5t8.5 40v282q0 16 11 27t27 11q15 0 26.5 -11t11.5 -27v-282q0 -37 -14.5 -70t-39 -57.5t-57.5 -38.5t-70 -14q-38 0 -70.5 14
t-57.5 38.5t-39 57.5t-14 70v282zM141 607q-6 9 -6 20q0 15 11 26t28 11q21 0 32 -18l41 -71q5 -9 5 -20q0 -15 -10.5 -26t-27.5 -11q-22 0 -32 18z" />
    <glyph glyph-name="ucircumflex" unicode="&#xfb;" 
d="M32 458q0 16 11 27t27 11q15 0 26.5 -11t11.5 -27v-282q0 -21 8 -40t22.5 -33.5t33.5 -22.5t41 -8q21 0 40.5 8t33.5 22.5t22.5 33.5t8.5 40v282q0 16 11 27t27 11q15 0 26.5 -11t11.5 -27v-282q0 -37 -14.5 -70t-39 -57.5t-57.5 -38.5t-70 -14q-38 0 -70.5 14
t-57.5 38.5t-39 57.5t-14 70v282zM199 658q8 5 18 5q12 0 22 -7l66 -48q17 -12 17 -31q0 -16 -12.5 -27t-27.5 -11q-13 0 -21 7l-44 31l-43 -31q-10 -7 -21 -7q-16 0 -28 11t-12 27q0 19 17 31z" />
    <glyph glyph-name="odieresis" unicode="&#xf6;" horiz-adv-x="430" 
d="M29 320q0 37 14 70t39 57.5t57.5 38.5t70.5 14q37 0 70 -14t57.5 -38.5t39 -57.5t14.5 -70v-144q0 -37 -14 -70t-39 -57.5t-58 -38.5t-70 -14t-70 14t-57.5 38.5t-39 57.5t-14.5 70v144zM105 176q0 -21 8.5 -40t22.5 -33.5t33.5 -22.5t40.5 -8q22 0 41 8t33.5 22.5
t22.5 33.5t8 40v144q0 21 -8.5 40t-22.5 33.5t-33.5 22.5t-40.5 8q-22 0 -41 -8t-33.5 -22.5t-22.5 -33.5t-8 -40v-144zM122 628q0 16 11 27t27 11q15 0 26.5 -11t11.5 -27t-11 -27t-27 -11q-15 0 -26.5 11t-11.5 27zM232 628q0 16 11 27t27 11q15 0 26.5 -11t11.5 -27
t-11 -27t-27 -11q-15 0 -26.5 11t-11.5 27z" />
    <glyph glyph-name="otilde" unicode="&#xf5;" horiz-adv-x="430" 
d="M29 320q0 37 14 70t39 57.5t57.5 38.5t70.5 14q37 0 70 -14t57.5 -38.5t39 -57.5t14.5 -70v-144q0 -37 -14 -70t-39 -57.5t-58 -38.5t-70 -14t-70 14t-57.5 38.5t-39 57.5t-14.5 70v144zM105 176q0 -21 8.5 -40t22.5 -33.5t33.5 -22.5t40.5 -8q22 0 41 8t33.5 22.5
t22.5 33.5t8 40v144q0 21 -8.5 40t-22.5 33.5t-33.5 22.5t-40.5 8q-22 0 -41 -8t-33.5 -22.5t-22.5 -33.5t-8 -40v-144zM75 610q0 15 10.5 25t25 15.5t30.5 8t28 2.5q14 0 31 -6t39 -6q18 0 28.5 2t16.5 4t9.5 4t6.5 2q15 0 26.5 -11t11.5 -27q0 -15 -10.5 -24.5t-25 -15
t-30.5 -8t-27 -2.5q-25 0 -56 10q-5 1 -15 1q-18 0 -28.5 -1.5t-16.5 -4t-9 -4t-6 -1.5q-15 0 -27 11t-12 26z" />
    <glyph glyph-name="udieresis" unicode="&#xfc;" 
d="M32 458q0 16 11 27t27 11q15 0 26.5 -11t11.5 -27v-282q0 -21 8 -40t22.5 -33.5t33.5 -22.5t41 -8q21 0 40.5 8t33.5 22.5t22.5 33.5t8.5 40v282q0 16 11 27t27 11q15 0 26.5 -11t11.5 -27v-282q0 -37 -14.5 -70t-39 -57.5t-57.5 -38.5t-70 -14q-38 0 -70.5 14
t-57.5 38.5t-39 57.5t-14 70v282zM125 628q0 16 11 27t27 11q15 0 26.5 -11t11.5 -27t-11 -27t-27 -11q-15 0 -26.5 11t-11.5 27zM235 628q0 16 11 27t27 11q15 0 26.5 -11t11.5 -27t-11 -27t-27 -11q-15 0 -26.5 11t-11.5 27z" />
    <glyph glyph-name="yacute" unicode="&#xfd;" 
d="M32 458q0 16 11 27t27 11q15 0 26.5 -11t11.5 -27v-282q0 -21 8 -40t22.5 -33.5t33.5 -22.5t41 -8q21 0 40.5 8t33.5 22.5t22.5 33.5t8.5 40v282q0 16 11 27t27 11q15 0 26.5 -11t11.5 -27v-282q0 -32 -11 -61.5t-30 -52.5t-45.5 -39.5t-56.5 -22.5v-138q0 -16 -11 -27
t-27 -11q-15 0 -26.5 11t-11.5 27v138q-31 6 -57 22.5t-45 39.5t-30 52.5t-11 61.5v282zM222 646q10 18 32 18q17 0 27.5 -11t10.5 -26q0 -13 -5 -20l-41 -71q-11 -18 -32 -18q-17 0 -28 11t-11 26q0 9 6 20z" />
    <glyph glyph-name="ydieresis" unicode="&#xff;" 
d="M32 458q0 16 11 27t27 11q15 0 26.5 -11t11.5 -27v-282q0 -21 8 -40t22.5 -33.5t33.5 -22.5t41 -8q21 0 40.5 8t33.5 22.5t22.5 33.5t8.5 40v282q0 16 11 27t27 11q15 0 26.5 -11t11.5 -27v-282q0 -32 -11 -61.5t-30 -52.5t-45.5 -39.5t-56.5 -22.5v-138q0 -16 -11 -27
t-27 -11q-15 0 -26.5 11t-11.5 27v138q-31 6 -57 22.5t-45 39.5t-30 52.5t-11 61.5v282zM125 628q0 16 11 27t27 11q15 0 26.5 -11t11.5 -27t-11 -27t-27 -11q-15 0 -26.5 11t-11.5 27zM235 628q0 16 11 27t27 11q15 0 26.5 -11t11.5 -27t-11 -27t-27 -11q-15 0 -26.5 11
t-11.5 27z" />
    <glyph glyph-name="dotlessi" unicode="&#x131;" horiz-adv-x="142" 
d="M33 458q0 16 11 27t27 11q15 0 26.5 -11t11.5 -27v-420q0 -16 -11 -27t-27 -11q-15 0 -26.5 11t-11.5 27v420z" />
    <glyph glyph-name="Igrave" unicode="&#xcc;" horiz-adv-x="146" 
d="M35 622q0 16 11 27t27 11q15 0 26.5 -11t11.5 -27v-584q0 -16 -11 -27t-27 -11q-15 0 -26.5 11t-11.5 27v584zM-13 772q-6 9 -6 20q0 15 11 26t28 11q21 0 32 -18l41 -71q5 -9 5 -20q0 -15 -10.5 -26t-27.5 -11q-22 0 -32 18z" />
    <glyph glyph-name="Iacute" unicode="&#xcd;" horiz-adv-x="146" 
d="M35 622q0 16 11 27t27 11q15 0 26.5 -11t11.5 -27v-584q0 -16 -11 -27t-27 -11q-15 0 -26.5 11t-11.5 27v584zM96 810q10 18 32 18q17 0 27.5 -11t10.5 -26q0 -13 -5 -20l-41 -71q-11 -18 -32 -18q-17 0 -28 11t-11 26q0 9 6 20z" />
    <glyph glyph-name="Icircumflex" unicode="&#xce;" horiz-adv-x="146" 
d="M35 622q0 16 11 27t27 11q15 0 26.5 -11t11.5 -27v-584q0 -16 -11 -27t-27 -11q-15 0 -26.5 11t-11.5 27v584zM56 814q8 5 18 5q12 0 22 -7l66 -48q17 -12 17 -31q0 -16 -12.5 -27t-27.5 -11q-13 0 -21 7l-44 31l-43 -31q-10 -7 -21 -7q-16 0 -28 11t-12 27q0 19 17 31z
" />
    <glyph glyph-name="Idieresis" unicode="&#xcf;" horiz-adv-x="146" 
d="M35 622q0 16 11 27t27 11q15 0 26.5 -11t11.5 -27v-584q0 -16 -11 -27t-27 -11q-15 0 -26.5 11t-11.5 27v584zM-19 784q0 16 11 27t27 11q15 0 26.5 -11t11.5 -27t-11 -27t-27 -11q-15 0 -26.5 11t-11.5 27zM91 784q0 16 11 27t27 11q15 0 26.5 -11t11.5 -27t-11 -27
t-27 -11q-15 0 -26.5 11t-11.5 27z" />
    <glyph glyph-name="igrave" unicode="&#xec;" horiz-adv-x="142" 
d="M33 458q0 16 11 27t27 11q15 0 26.5 -11t11.5 -27v-420q0 -16 -11 -27t-27 -11q-15 0 -26.5 11t-11.5 27v420zM-10 607q-6 9 -6 20q0 15 11 26t28 11q21 0 32 -18l41 -71q5 -9 5 -20q0 -15 -10.5 -26t-27.5 -11q-22 0 -32 18z" />
    <glyph glyph-name="iacute" unicode="&#xed;" horiz-adv-x="142" 
d="M33 458q0 16 11 27t27 11q15 0 26.5 -11t11.5 -27v-420q0 -16 -11 -27t-27 -11q-15 0 -26.5 11t-11.5 27v420zM86 646q10 18 32 18q17 0 27.5 -11t10.5 -26q0 -13 -5 -20l-41 -71q-11 -18 -32 -18q-17 0 -28 11t-11 26q0 9 6 20z" />
    <glyph glyph-name="icircumflex" unicode="&#xee;" horiz-adv-x="142" 
d="M33 458q0 16 11 27t27 11q15 0 26.5 -11t11.5 -27v-420q0 -16 -11 -27t-27 -11q-15 0 -26.5 11t-11.5 27v420zM54 658q8 5 18 5q12 0 22 -7l66 -48q17 -12 17 -31q0 -16 -12.5 -27t-27.5 -11q-13 0 -21 7l-44 31l-43 -31q-10 -7 -21 -7q-16 0 -28 11t-12 27q0 19 17 31z
" />
    <glyph glyph-name="idieresis" unicode="&#xef;" horiz-adv-x="142" 
d="M33 458q0 16 11 27t27 11q15 0 26.5 -11t11.5 -27v-420q0 -16 -11 -27t-27 -11q-15 0 -26.5 11t-11.5 27v420zM-21 628q0 16 11 27t27 11q15 0 26.5 -11t11.5 -27t-11 -27t-27 -11q-15 0 -26.5 11t-11.5 27zM89 628q0 16 11 27t27 11q15 0 26.5 -11t11.5 -27t-11 -27
t-27 -11q-15 0 -26.5 11t-11.5 27z" />
    <glyph glyph-name="fi" unicode="&#xfb01;" horiz-adv-x="425" 
d="M316 364q0 16 11 27t27 11q15 0 26.5 -11t11.5 -27v-326q0 -16 -11 -27t-27 -11q-15 0 -26.5 11t-11.5 27v172h-207v-172q0 -16 -11.5 -27t-26.5 -11q-16 0 -27 11t-11 27v454q0 38 14.5 71t39.5 57t58.5 38t71.5 14q7 0 26.5 -2.5t44.5 -13.5t50 -33.5t43 -62.5
q3 -8 3 -14q0 -16 -11 -27t-27 -11q-25 0 -35 24q-13 30 -39 47t-58 17q-21 0 -40.5 -8t-33.5 -22.5t-22.5 -33.5t-8.5 -40v-206h207v78z" />
    <glyph glyph-name="fl" unicode="&#xfb02;" horiz-adv-x="418" 
d="M217 672h130q15 0 26.5 -11t11.5 -27v-596q0 -16 -11 -27t-27 -11q-15 0 -26.5 11t-11.5 27v557l-96 1q-95 -9 -104 -104v-206h108h3l8 -2q9 -3 16 -10q1 -2 3 -3q4 -6 6 -12q1 -3 1 -5q1 -1 1 -3v-3v-4q-1 -2 -1 -6l-1 -2q-1 -4 -4 -9q-1 -1 -2 -3l-3 -3l-5 -5
q-8 -5 -18 -6h-4h-108v-172q0 -16 -12 -27q-3 -4 -7 -6q-3 -2 -5 -3q-7 -2 -14 -2q-13 0 -23 7l-4 4l-4 4q-3 4 -5 9q-2 7 -2 14v454q3 81 56 130.5t128 49.5z" />
    <glyph glyph-name="_216" horiz-adv-x="0" 
 />
    <glyph glyph-name="commaaccent" horiz-adv-x="265" 
d="M94 -124q0 16 11 27t27 11q15 0 26.5 -11t11.5 -27v-82q0 -16 -11 -27t-27 -11q-15 0 -26.5 11t-11.5 27v82z" />
    <glyph glyph-name="commaaccent.cap" horiz-adv-x="265" 
d="M94 -138q0 16 11 27t27 11q15 0 26.5 -11t11.5 -27v-82q0 -16 -11 -27t-27 -11q-15 0 -26.5 11t-11.5 27v82z" />
    <glyph glyph-name="macron" unicode="&#xaf;" horiz-adv-x="326" 
d="M54 551q-16 0 -27 11t-11 27q0 15 11 26.5t27 11.5h210q16 0 27 -11t11 -27q0 -15 -11 -26.5t-27 -11.5h-210z" />
    <glyph glyph-name="abreve" unicode="&#x103;" horiz-adv-x="432" 
d="M29 320q0 37 14 70t39 57.5t57.5 38.5t70.5 14q37 0 70 -14t57.5 -38.5t39 -57.5t14.5 -70v-282q0 -16 -11.5 -27t-26.5 -11q-14 0 -24.5 8.5t-12.5 21.5q-46 -34 -106 -34q-37 0 -70 14t-57.5 38.5t-39 57.5t-14.5 70v144zM105 176q0 -21 8.5 -40t22.5 -33.5t33.5 -22.5
t40.5 -8t40 7.5t33 21t22.5 31.5t9.5 39v149q0 21 -8.5 40t-22.5 33.5t-33.5 22.5t-40.5 8q-22 0 -41 -8t-33.5 -22.5t-22.5 -33.5t-8 -40v-144zM225 542h-17q-22 0 -41 9t-34 20t-24.5 21.5t-11.5 13.5q-7 10 -3 21.5t13.5 19t23.5 8.5t27 -9q13 -12 27 -22t31 -10t31.5 10
t27.5 22q13 10 26.5 8.5t23.5 -9.5t13.5 -19.5t-2.5 -19.5q-2 -3 -11.5 -13.5t-24.5 -21.5t-34 -20t-41 -9z" />
    <glyph glyph-name="amacron" unicode="&#x101;" horiz-adv-x="432" 
d="M29 320q0 37 14 70t39 57.5t57.5 38.5t70.5 14q37 0 70 -14t57.5 -38.5t39 -57.5t14.5 -70v-282q0 -16 -11.5 -27t-26.5 -11q-14 0 -24.5 8.5t-12.5 21.5q-46 -34 -106 -34q-37 0 -70 14t-57.5 38.5t-39 57.5t-14.5 70v144zM105 176q0 -21 8.5 -40t22.5 -33.5t33.5 -22.5
t40.5 -8t40 7.5t33 21t22.5 31.5t9.5 39v149q0 21 -8.5 40t-22.5 33.5t-33.5 22.5t-40.5 8q-22 0 -41 -8t-33.5 -22.5t-22.5 -33.5t-8 -40v-144zM111 551q-16 0 -27 11t-11 27q0 15 11 26.5t27 11.5h210q16 0 27 -11t11 -27q0 -15 -11 -26.5t-27 -11.5h-210z" />
    <glyph glyph-name="aogonek" unicode="&#x105;" horiz-adv-x="432" 
d="M29 320q0 37 14 70t39 57.5t57.5 38.5t70.5 14q37 0 70 -14t57.5 -38.5t39 -57.5t14.5 -70v-282q0 -16 -11.5 -27t-26.5 -11q-14 0 -24.5 8.5t-12.5 21.5q-46 -34 -106 -34q-37 0 -70 14t-57.5 38.5t-39 57.5t-14.5 70v144zM105 176q0 -21 8.5 -40t22.5 -33.5t33.5 -22.5
t40.5 -8t40 7.5t33 21t22.5 31.5t9.5 39v149q0 21 -8.5 40t-22.5 33.5t-33.5 22.5t-40.5 8q-22 0 -41 -8t-33.5 -22.5t-22.5 -33.5t-8 -40v-144zM391 22q0 -17 -9 -31.5t-9 -23.5q0 -7 11.5 -9.5t25 -5.5t24.5 -10t11 -23t-11 -27t-27 -11q-35 0 -58 4.5t-36.5 12t-18.5 18
t-5 21.5q0 12 4 24t9 23.5t9 21t4 16.5v17h76v-17z" />
    <glyph glyph-name="cacute" unicode="&#x107;" horiz-adv-x="415" 
d="M29 320q0 38 14.5 71t40 57t59 38t71.5 14q7 0 27.5 -2.5t45.5 -13.5t49.5 -33.5t40.5 -62.5q3 -8 3 -14q0 -16 -11 -27t-27 -11q-12 0 -21.5 6.5t-13.5 17.5q-14 30 -40 47t-57 17q-22 0 -41 -8t-33.5 -22.5t-22.5 -33.5t-8 -40v-144q0 -21 8.5 -40t22.5 -33.5
t33.5 -22.5t40.5 -8q32 0 58 17t39 47q5 11 14 17.5t21 6.5q16 0 27 -11.5t11 -26.5q0 -7 -3 -14q-20 -44 -48 -67t-54.5 -33t-45 -11t-19.5 -1q-37 0 -70 14t-57.5 38.5t-39 57.5t-14.5 70v144zM196 646q10 18 32 18q17 0 27.5 -11t10.5 -26q0 -13 -5 -20l-41 -71
q-11 -18 -32 -18q-17 0 -28 11t-11 26q0 9 6 20z" />
    <glyph glyph-name="ccaron" unicode="&#x10d;" horiz-adv-x="415" 
d="M29 320q0 38 14.5 71t40 57t59 38t71.5 14q7 0 27.5 -2.5t45.5 -13.5t49.5 -33.5t40.5 -62.5q3 -8 3 -14q0 -16 -11 -27t-27 -11q-12 0 -21.5 6.5t-13.5 17.5q-14 30 -40 47t-57 17q-22 0 -41 -8t-33.5 -22.5t-22.5 -33.5t-8 -40v-144q0 -21 8.5 -40t22.5 -33.5
t33.5 -22.5t40.5 -8q32 0 58 17t39 47q5 11 14 17.5t21 6.5q16 0 27 -11.5t11 -26.5q0 -7 -3 -14q-20 -44 -48 -67t-54.5 -33t-45 -11t-19.5 -1q-37 0 -70 14t-57.5 38.5t-39 57.5t-14.5 70v144zM120 605q-17 12 -17 31q0 16 12 27t28 11q11 0 21 -7l43 -31l44 31q8 7 21 7
q15 0 27.5 -11t12.5 -27q0 -19 -17 -31l-66 -48q-10 -7 -22 -7q-10 0 -18 5z" />
    <glyph glyph-name="ccircumflex" unicode="&#x109;" horiz-adv-x="415" 
d="M29 320q0 38 14.5 71t40 57t59 38t71.5 14q7 0 27.5 -2.5t45.5 -13.5t49.5 -33.5t40.5 -62.5q3 -8 3 -14q0 -16 -11 -27t-27 -11q-12 0 -21.5 6.5t-13.5 17.5q-14 30 -40 47t-57 17q-22 0 -41 -8t-33.5 -22.5t-22.5 -33.5t-8 -40v-144q0 -21 8.5 -40t22.5 -33.5
t33.5 -22.5t40.5 -8q32 0 58 17t39 47q5 11 14 17.5t21 6.5q16 0 27 -11.5t11 -26.5q0 -7 -3 -14q-20 -44 -48 -67t-54.5 -33t-45 -11t-19.5 -1q-37 0 -70 14t-57.5 38.5t-39 57.5t-14.5 70v144zM189 658q8 5 18 5q12 0 22 -7l66 -48q17 -12 17 -31q0 -16 -12.5 -27
t-27.5 -11q-13 0 -21 7l-44 31l-43 -31q-10 -7 -21 -7q-16 0 -28 11t-12 27q0 19 17 31z" />
    <glyph glyph-name="cdotaccent" unicode="&#x10b;" horiz-adv-x="415" 
d="M29 320q0 38 14.5 71t40 57t59 38t71.5 14q7 0 27.5 -2.5t45.5 -13.5t49.5 -33.5t40.5 -62.5q3 -8 3 -14q0 -16 -11 -27t-27 -11q-12 0 -21.5 6.5t-13.5 17.5q-14 30 -40 47t-57 17q-22 0 -41 -8t-33.5 -22.5t-22.5 -33.5t-8 -40v-144q0 -21 8.5 -40t22.5 -33.5
t33.5 -22.5t40.5 -8q32 0 58 17t39 47q5 11 14 17.5t21 6.5q16 0 27 -11.5t11 -26.5q0 -7 -3 -14q-20 -44 -48 -67t-54.5 -33t-45 -11t-19.5 -1q-37 0 -70 14t-57.5 38.5t-39 57.5t-14.5 70v144zM169 621q0 16 11 27t27 11q15 0 26.5 -11t11.5 -27t-11 -27t-27 -11
q-15 0 -26.5 11t-11.5 27z" />
    <glyph glyph-name="dcaron" unicode="&#x10f;" horiz-adv-x="627" 
d="M315 634q0 16 11 27t27 11q15 0 26.5 -11t11.5 -27v-458q0 -37 -14.5 -70t-39 -57.5t-57.5 -38.5t-70 -14q-38 0 -70.5 14t-57.5 38.5t-39 57.5t-14 70v144q0 37 14.5 70t39 57.5t57.5 38.5t70 14q29 0 55.5 -9t49.5 -25v168zM105 176q0 -21 8 -40t22.5 -33.5t33.5 -22.5
t41 -8q21 0 40.5 8t33.5 22.5t22.5 33.5t8.5 40v144q0 21 -8 40t-22.5 33.5t-33.5 22.5t-41 8q-21 0 -40.5 -8t-33.5 -22.5t-22.5 -33.5t-8.5 -40v-144zM492 634q0 16 11.5 27t26.5 11q16 0 27 -11t11 -27v-79q0 -14 -11.5 -26t-25.5 -12h-40q-16 0 -27 11.5t-11 26.5
q0 16 11 27t27 11h1v41z" />
    <glyph glyph-name="dcroat" unicode="&#x111;" horiz-adv-x="434" 
d="M315 634q0 16 11 27t27 11q15 0 26.5 -11t11.5 -27v-458q0 -37 -14.5 -70t-39 -57.5t-57.5 -38.5t-70 -14q-38 0 -70.5 14t-57.5 38.5t-39 57.5t-14 70v144q0 37 14.5 70t39 57.5t57.5 38.5t70 14q29 0 55.5 -9t49.5 -25v168zM105 176q0 -21 8 -40t22.5 -33.5t33.5 -22.5
t41 -8q21 0 40.5 8t33.5 22.5t22.5 33.5t8.5 40v144q0 21 -8 40t-22.5 33.5t-33.5 22.5t-41 8q-21 0 -40.5 -8t-33.5 -22.5t-22.5 -33.5t-8.5 -40v-144zM245.681 542.783q-9.61816 0 -16.2305 10.8555q-6.6123 10.8545 -6.6123 26.6436q0 14.8018 6.6123 26.1504
t16.2305 11.3486h165.312q9.61816 0 16.2305 -10.8555q6.6123 -10.8545 6.6123 -26.6436q0 -14.8018 -6.6123 -26.1504t-16.2305 -11.3486h-165.312z" />
    <glyph glyph-name="ecaron" unicode="&#x11b;" horiz-adv-x="430" 
d="M29 320q0 37 14 70t39 57.5t57.5 38.5t70.5 14q37 0 70 -14t57.5 -38.5t39 -57.5t14.5 -70v-72q0 -16 -11 -27t-27 -11h-248v-34q0 -21 8.5 -40t22.5 -33.5t33.5 -22.5t40.5 -8q32 0 57.5 16.5t38.5 44.5l1 3q4 11 13.5 17.5t21.5 6.5q16 0 27 -11.5t11 -26.5
q0 -7 -3 -14l-2 -4q-21 -48 -65 -78t-100 -30q-37 0 -70 14t-57.5 38.5t-39 57.5t-14.5 70v144zM105 286h210v34q0 21 -8.5 40t-22.5 33.5t-33.5 22.5t-40.5 8q-22 0 -41 -8t-33.5 -22.5t-22.5 -33.5t-8 -40v-34zM127 605q-17 12 -17 31q0 16 12 27t28 11q11 0 21 -7l43 -31
l44 31q8 7 21 7q15 0 27.5 -11t12.5 -27q0 -19 -17 -31l-66 -48q-10 -7 -22 -7q-10 0 -18 5z" />
    <glyph glyph-name="edotaccent" unicode="&#x117;" horiz-adv-x="430" 
d="M29 320q0 37 14 70t39 57.5t57.5 38.5t70.5 14q37 0 70 -14t57.5 -38.5t39 -57.5t14.5 -70v-72q0 -16 -11 -27t-27 -11h-248v-34q0 -21 8.5 -40t22.5 -33.5t33.5 -22.5t40.5 -8q32 0 57.5 16.5t38.5 44.5l1 3q4 11 13.5 17.5t21.5 6.5q16 0 27 -11.5t11 -26.5
q0 -7 -3 -14l-2 -4q-21 -48 -65 -78t-100 -30q-37 0 -70 14t-57.5 38.5t-39 57.5t-14.5 70v144zM105 286h210v34q0 21 -8.5 40t-22.5 33.5t-33.5 22.5t-40.5 8q-22 0 -41 -8t-33.5 -22.5t-22.5 -33.5t-8 -40v-34zM177 621q0 16 11 27t27 11q15 0 26.5 -11t11.5 -27t-11 -27
t-27 -11q-15 0 -26.5 11t-11.5 27z" />
    <glyph glyph-name="emacron" unicode="&#x113;" horiz-adv-x="430" 
d="M29 320q0 37 14 70t39 57.5t57.5 38.5t70.5 14q37 0 70 -14t57.5 -38.5t39 -57.5t14.5 -70v-72q0 -16 -11 -27t-27 -11h-248v-34q0 -21 8.5 -40t22.5 -33.5t33.5 -22.5t40.5 -8q32 0 57.5 16.5t38.5 44.5l1 3q4 11 13.5 17.5t21.5 6.5q16 0 27 -11.5t11 -26.5
q0 -7 -3 -14l-2 -4q-21 -48 -65 -78t-100 -30q-37 0 -70 14t-57.5 38.5t-39 57.5t-14.5 70v144zM105 286h210v34q0 21 -8.5 40t-22.5 33.5t-33.5 22.5t-40.5 8q-22 0 -41 -8t-33.5 -22.5t-22.5 -33.5t-8 -40v-34zM110 551q-16 0 -27 11t-11 27q0 15 11 26.5t27 11.5h210
q16 0 27 -11t11 -27q0 -15 -11 -26.5t-27 -11.5h-210z" />
    <glyph glyph-name="eogonek" unicode="&#x119;" horiz-adv-x="430" 
d="M29 320q0 37 14 70t39 57.5t57.5 38.5t70.5 14q37 0 70 -14t57.5 -38.5t39 -57.5t14.5 -70v-72q0 -16 -11 -27t-27 -11h-248v-34q0 -21 8.5 -40t22.5 -33.5t33.5 -22.5t40.5 -8q32 0 57.5 16.5t38.5 44.5l1 3q4 11 13.5 17.5t21.5 6.5q16 0 27 -11.5t11 -26.5
q0 -7 -3 -14l-2 -4q-21 -48 -65 -78t-100 -30q-37 0 -70 14t-57.5 38.5t-39 57.5t-14.5 70v144zM105 286h210v34q0 21 -8.5 40t-22.5 33.5t-33.5 22.5t-40.5 8q-22 0 -41 -8t-33.5 -22.5t-22.5 -33.5t-8 -40v-34zM250 -11q0 -17 -9 -31.5t-9 -23.5q0 -7 11.5 -9.5t25 -5.5
t24.5 -10t11 -23t-11 -27t-27 -11q-35 0 -58 4.5t-36.5 12t-18.5 18t-5 21.5q0 12 4 24t9 23.5t9 21t4 16.5v17h76v-17z" />
    <glyph glyph-name="gbreve" unicode="&#x11f;" horiz-adv-x="433" 
d="M29 320q0 37 14 70t39 57.5t57.5 38.5t70.5 14q37 0 70 -14t57.5 -38.5t39 -57.5t14.5 -70v-316q0 -37 -14.5 -70t-39 -57.5t-57.5 -38.5t-70 -14q-16 0 -27 11t-11 27t11 27t27 11q21 0 40.5 8t33.5 22.5t22.5 33.5t8.5 40v25q-47 -33 -105 -33q-37 0 -70 14t-57.5 38.5
t-39 57.5t-14.5 70v144zM105 176q0 -21 8.5 -40t22.5 -33.5t33.5 -22.5t40.5 -8t40 7.5t33 21t22.5 31.5t9.5 39v149q0 21 -8.5 40t-22.5 33.5t-33.5 22.5t-40.5 8q-22 0 -41 -8t-33.5 -22.5t-22.5 -33.5t-8 -40v-144zM225 542h-17q-22 0 -41 9t-34 20t-24.5 21.5
t-11.5 13.5q-7 10 -3 21.5t13.5 19t23.5 8.5t27 -9q13 -12 27 -22t31 -10t31.5 10t27.5 22q13 10 26.5 8.5t23.5 -9.5t13.5 -19.5t-2.5 -19.5q-2 -3 -11.5 -13.5t-24.5 -21.5t-34 -20t-41 -9z" />
    <glyph glyph-name="gcircumflex" unicode="&#x11d;" horiz-adv-x="433" 
d="M29 320q0 37 14 70t39 57.5t57.5 38.5t70.5 14q37 0 70 -14t57.5 -38.5t39 -57.5t14.5 -70v-316q0 -37 -14.5 -70t-39 -57.5t-57.5 -38.5t-70 -14q-16 0 -27 11t-11 27t11 27t27 11q21 0 40.5 8t33.5 22.5t22.5 33.5t8.5 40v25q-47 -33 -105 -33q-37 0 -70 14t-57.5 38.5
t-39 57.5t-14.5 70v144zM105 176q0 -21 8.5 -40t22.5 -33.5t33.5 -22.5t40.5 -8t40 7.5t33 21t22.5 31.5t9.5 39v149q0 21 -8.5 40t-22.5 33.5t-33.5 22.5t-40.5 8q-22 0 -41 -8t-33.5 -22.5t-22.5 -33.5t-8 -40v-144zM198 658q8 5 18 5q12 0 22 -7l66 -48q17 -12 17 -31
q0 -16 -12.5 -27t-27.5 -11q-13 0 -21 7l-44 31l-43 -31q-10 -7 -21 -7q-16 0 -28 11t-12 27q0 19 17 31z" />
    <glyph glyph-name="gcommaaccent" unicode="&#x123;" horiz-adv-x="433" 
d="M29 320q0 37 14 70t39 57.5t57.5 38.5t70.5 14q37 0 70 -14t57.5 -38.5t39 -57.5t14.5 -70v-316q0 -37 -14.5 -70t-39 -57.5t-57.5 -38.5t-70 -14q-16 0 -27 11t-11 27t11 27t27 11q21 0 40.5 8t33.5 22.5t22.5 33.5t8.5 40v25q-47 -33 -105 -33q-37 0 -70 14t-57.5 38.5
t-39 57.5t-14.5 70v144zM105 176q0 -21 8.5 -40t22.5 -33.5t33.5 -22.5t40.5 -8t40 7.5t33 21t22.5 31.5t9.5 39v149q0 21 -8.5 40t-22.5 33.5t-33.5 22.5t-40.5 8q-22 0 -41 -8t-33.5 -22.5t-22.5 -33.5t-8 -40v-144zM175 660q0 14 11.5 26t25.5 12h40q16 0 27 -11.5
t11 -26.5q0 -16 -11 -27t-27 -11h-1v-41q0 -16 -11.5 -27t-26.5 -11q-16 0 -27 11t-11 27v79z" />
    <glyph glyph-name="gdotaccent" unicode="&#x121;" horiz-adv-x="433" 
d="M29 320q0 37 14 70t39 57.5t57.5 38.5t70.5 14q37 0 70 -14t57.5 -38.5t39 -57.5t14.5 -70v-316q0 -37 -14.5 -70t-39 -57.5t-57.5 -38.5t-70 -14q-16 0 -27 11t-11 27t11 27t27 11q21 0 40.5 8t33.5 22.5t22.5 33.5t8.5 40v25q-47 -33 -105 -33q-37 0 -70 14t-57.5 38.5
t-39 57.5t-14.5 70v144zM105 176q0 -21 8.5 -40t22.5 -33.5t33.5 -22.5t40.5 -8t40 7.5t33 21t22.5 31.5t9.5 39v149q0 21 -8.5 40t-22.5 33.5t-33.5 22.5t-40.5 8q-22 0 -41 -8t-33.5 -22.5t-22.5 -33.5t-8 -40v-144zM178 621q0 16 11 27t27 11q15 0 26.5 -11t11.5 -27
t-11 -27t-27 -11q-15 0 -26.5 11t-11.5 27z" />
    <glyph glyph-name="obreve" unicode="&#x14f;" horiz-adv-x="430" 
d="M29 320q0 37 14 70t39 57.5t57.5 38.5t70.5 14q37 0 70 -14t57.5 -38.5t39 -57.5t14.5 -70v-144q0 -37 -14 -70t-39 -57.5t-58 -38.5t-70 -14t-70 14t-57.5 38.5t-39 57.5t-14.5 70v144zM105 176q0 -21 8.5 -40t22.5 -33.5t33.5 -22.5t40.5 -8q22 0 41 8t33.5 22.5
t22.5 33.5t8 40v144q0 21 -8.5 40t-22.5 33.5t-33.5 22.5t-40.5 8q-22 0 -41 -8t-33.5 -22.5t-22.5 -33.5t-8 -40v-144zM224 542h-17q-22 0 -41 9t-34 20t-24.5 21.5t-11.5 13.5q-7 10 -3 21.5t13.5 19t23.5 8.5t27 -9q13 -12 27 -22t31 -10t31.5 10t27.5 22q13 10 26.5 8.5
t23.5 -9.5t13.5 -19.5t-2.5 -19.5q-2 -3 -11.5 -13.5t-24.5 -21.5t-34 -20t-41 -9z" />
    <glyph glyph-name="ohungarumlaut" unicode="&#x151;" horiz-adv-x="430" 
d="M29 320q0 37 14 70t39 57.5t57.5 38.5t70.5 14q37 0 70 -14t57.5 -38.5t39 -57.5t14.5 -70v-144q0 -37 -14 -70t-39 -57.5t-58 -38.5t-70 -14t-70 14t-57.5 38.5t-39 57.5t-14.5 70v144zM105 176q0 -21 8.5 -40t22.5 -33.5t33.5 -22.5t40.5 -8q22 0 41 8t33.5 22.5
t22.5 33.5t8 40v144q0 21 -8.5 40t-22.5 33.5t-33.5 22.5t-40.5 8q-22 0 -41 -8t-33.5 -22.5t-22.5 -33.5t-8 -40v-144zM147 646q10 18 32 18q17 0 27.5 -11t10.5 -26q0 -13 -5 -20l-41 -71q-11 -18 -32 -18q-17 0 -28 11t-11 26q0 9 6 20zM260 646q10 18 32 18
q17 0 27.5 -11t10.5 -26q0 -13 -5 -20l-41 -71q-11 -18 -32 -18q-17 0 -28 11t-11 26q0 9 6 20z" />
    <glyph glyph-name="oslashacute" unicode="&#x1ff;" horiz-adv-x="430" 
d="M29 320q0 37 14 70t39 57.5t57.5 38.5t70.5 14q37 0 70 -14t57.5 -38.5t39 -57.5t14.5 -70v-144q0 -37 -14 -70t-39 -57.5t-58 -38.5t-70 -14t-70 14t-57.5 38.5t-39 57.5t-14.5 70v144zM105 176q0 -21 8.5 -40t22.5 -33.5t33.5 -22.5t40.5 -8q22 0 41 8t33.5 22.5
t22.5 33.5t8 40v144q0 21 -8.5 40t-22.5 33.5t-33.5 22.5t-40.5 8q-22 0 -41 -8t-33.5 -22.5t-22.5 -33.5t-8 -40v-144zM424 609q5 7 12.5 10t15.5 3q17 0 28 -11.5t11 -26.5q0 -6 -1.5 -12.5t-6.5 -11.5l-447 -585q-11 -14 -28 -14t-28.5 12t-11.5 26t9 25zM203 646
q10 18 32 18q17 0 27.5 -11t10.5 -26q0 -13 -5 -20l-41 -71q-11 -18 -32 -18q-17 0 -28 11t-11 26q0 9 6 20z" />
    <glyph glyph-name="sacute" unicode="&#x15b;" horiz-adv-x="419" 
d="M34 360q0 31 13 57t35.5 44.5t54 28.5t68.5 10q30 -1 58 -9q24 -7 49 -22.5t42 -43.5q7 -14 7 -24q0 -15 -10.5 -26t-25.5 -11q-18 0 -31 16q-19 23 -38 33.5t-51 10.5q-43 0 -69 -18.5t-26 -45.5q0 -36 25 -50t70 -14q37 0 70 -9.5t57.5 -28.5t39 -47t14.5 -65
q0 -38 -14.5 -66t-40 -47t-59 -28t-70.5 -9q-8 0 -29.5 2.5t-47.5 13.5t-52.5 33.5t-44.5 62.5q-3 7 -3 14q0 15 10.5 26.5t27.5 11.5q12 0 21 -6.5t14 -17.5q13 -30 44 -47t63 -17q21 0 40.5 3.5t33.5 12t22.5 23t8.5 35.5q0 43 -30.5 58.5t-74.5 15.5q-37 0 -68.5 7
t-54 23.5t-35.5 43t-13 66.5zM198 646q10 18 32 18q17 0 27.5 -11t10.5 -26q0 -13 -5 -20l-41 -71q-11 -18 -32 -18q-17 0 -28 11t-11 26q0 9 6 20z" />
    <glyph glyph-name="scedilla" unicode="&#x15f;" horiz-adv-x="419" 
d="M34 360q0 31 13 57t35.5 44.5t54 28.5t68.5 10q30 -1 58 -9q24 -7 49 -22.5t42 -43.5q7 -14 7 -24q0 -15 -10.5 -26t-25.5 -11q-18 0 -31 16q-19 23 -38 33.5t-51 10.5q-43 0 -69 -18.5t-26 -45.5q0 -36 25 -50t70 -14q37 0 70 -9.5t57.5 -28.5t39 -47t14.5 -65
q0 -38 -14.5 -66t-40 -47t-59 -28t-70.5 -9q-8 0 -29.5 2.5t-47.5 13.5t-52.5 33.5t-44.5 62.5q-3 7 -3 14q0 15 10.5 26.5t27.5 11.5q12 0 21 -6.5t14 -17.5q13 -30 44 -47t63 -17q21 0 40.5 3.5t33.5 12t22.5 23t8.5 35.5q0 43 -30.5 58.5t-74.5 15.5q-37 0 -68.5 7
t-54 23.5t-35.5 43t-13 66.5zM185 7h76v-17q0 -7 4 -16.5t9 -21t9 -23.5t4 -24q0 -11 -5 -21.5t-18.5 -18t-36.5 -12t-58 -4.5q-16 0 -27 11t-11 27t11 23t24.5 10t25 5.5t11.5 9.5q0 9 -9 23.5t-9 31.5v17z" />
    <glyph glyph-name="scircumflex" unicode="&#x15d;" horiz-adv-x="419" 
d="M34 360q0 31 13 57t35.5 44.5t54 28.5t68.5 10q30 -1 58 -9q24 -7 49 -22.5t42 -43.5q7 -14 7 -24q0 -15 -10.5 -26t-25.5 -11q-18 0 -31 16q-19 23 -38 33.5t-51 10.5q-43 0 -69 -18.5t-26 -45.5q0 -36 25 -50t70 -14q37 0 70 -9.5t57.5 -28.5t39 -47t14.5 -65
q0 -38 -14.5 -66t-40 -47t-59 -28t-70.5 -9q-8 0 -29.5 2.5t-47.5 13.5t-52.5 33.5t-44.5 62.5q-3 7 -3 14q0 15 10.5 26.5t27.5 11.5q12 0 21 -6.5t14 -17.5q13 -30 44 -47t63 -17q21 0 40.5 3.5t33.5 12t22.5 23t8.5 35.5q0 43 -30.5 58.5t-74.5 15.5q-37 0 -68.5 7
t-54 23.5t-35.5 43t-13 66.5zM191 658q8 5 18 5q12 0 22 -7l66 -48q17 -12 17 -31q0 -16 -12.5 -27t-27.5 -11q-13 0 -21 7l-44 31l-43 -31q-10 -7 -21 -7q-16 0 -28 11t-12 27q0 19 17 31z" />
    <glyph glyph-name="scommaaccent" unicode="&#x219;" horiz-adv-x="419" 
d="M34 360q0 31 13 57t35.5 44.5t54 28.5t68.5 10q30 -1 58 -9q24 -7 49 -22.5t42 -43.5q7 -14 7 -24q0 -15 -10.5 -26t-25.5 -11q-18 0 -31 16q-19 23 -38 33.5t-51 10.5q-43 0 -69 -18.5t-26 -45.5q0 -36 25 -50t70 -14q37 0 70 -9.5t57.5 -28.5t39 -47t14.5 -65
q0 -38 -14.5 -66t-40 -47t-59 -28t-70.5 -9q-8 0 -29.5 2.5t-47.5 13.5t-52.5 33.5t-44.5 62.5q-3 7 -3 14q0 15 10.5 26.5t27.5 11.5q12 0 21 -6.5t14 -17.5q13 -30 44 -47t63 -17q21 0 40.5 3.5t33.5 12t22.5 23t8.5 35.5q0 43 -30.5 58.5t-74.5 15.5q-37 0 -68.5 7
t-54 23.5t-35.5 43t-13 66.5zM171 -124q0 16 11 27t27 11q15 0 26.5 -11t11.5 -27v-82q0 -16 -11 -27t-27 -11q-15 0 -26.5 11t-11.5 27v82z" />
    <glyph glyph-name="nacute" unicode="&#x144;" 
d="M32 320q0 37 14 70t39 57.5t57.5 38.5t70.5 14q37 0 70 -14t57.5 -38.5t39 -57.5t14.5 -70v-282q0 -16 -11.5 -27t-26.5 -11q-16 0 -27 11t-11 27v282q0 21 -8.5 40t-22.5 33.5t-33.5 22.5t-40.5 8q-22 0 -41 -8t-33.5 -22.5t-22.5 -33.5t-8 -40v-282q0 -16 -11.5 -27
t-26.5 -11q-16 0 -27 11t-11 27v282zM206 646q10 18 32 18q17 0 27.5 -11t10.5 -26q0 -13 -5 -20l-41 -71q-11 -18 -32 -18q-17 0 -28 11t-11 26q0 9 6 20z" />
    <glyph glyph-name="ncaron" unicode="&#x148;" 
d="M32 320q0 37 14 70t39 57.5t57.5 38.5t70.5 14q37 0 70 -14t57.5 -38.5t39 -57.5t14.5 -70v-282q0 -16 -11.5 -27t-26.5 -11q-16 0 -27 11t-11 27v282q0 21 -8.5 40t-22.5 33.5t-33.5 22.5t-40.5 8q-22 0 -41 -8t-33.5 -22.5t-22.5 -33.5t-8 -40v-282q0 -16 -11.5 -27
t-26.5 -11q-16 0 -27 11t-11 27v282zM130 605q-17 12 -17 31q0 16 12 27t28 11q11 0 21 -7l43 -31l44 31q8 7 21 7q15 0 27.5 -11t12.5 -27q0 -19 -17 -31l-66 -48q-10 -7 -22 -7q-10 0 -18 5z" />
    <glyph glyph-name="ncommaaccent" unicode="&#x146;" 
d="M32 320q0 37 14 70t39 57.5t57.5 38.5t70.5 14q37 0 70 -14t57.5 -38.5t39 -57.5t14.5 -70v-282q0 -16 -11.5 -27t-26.5 -11q-16 0 -27 11t-11 27v282q0 21 -8.5 40t-22.5 33.5t-33.5 22.5t-40.5 8q-22 0 -41 -8t-33.5 -22.5t-22.5 -33.5t-8 -40v-282q0 -16 -11.5 -27
t-26.5 -11q-16 0 -27 11t-11 27v282zM180 -124q0 16 11 27t27 11q15 0 26.5 -11t11.5 -27v-82q0 -16 -11 -27t-27 -11q-15 0 -26.5 11t-11.5 27v82z" />
    <glyph glyph-name="ubreve" unicode="&#x16d;" 
d="M32 458q0 16 11 27t27 11q15 0 26.5 -11t11.5 -27v-282q0 -21 8 -40t22.5 -33.5t33.5 -22.5t41 -8q21 0 40.5 8t33.5 22.5t22.5 33.5t8.5 40v282q0 16 11 27t27 11q15 0 26.5 -11t11.5 -27v-282q0 -37 -14.5 -70t-39 -57.5t-57.5 -38.5t-70 -14q-38 0 -70.5 14
t-57.5 38.5t-39 57.5t-14 70v282zM227 542h-17q-22 0 -41 9t-34 20t-24.5 21.5t-11.5 13.5q-7 10 -3 21.5t13.5 19t23.5 8.5t27 -9q13 -12 27 -22t31 -10t31.5 10t27.5 22q13 10 26.5 8.5t23.5 -9.5t13.5 -19.5t-2.5 -19.5q-2 -3 -11.5 -13.5t-24.5 -21.5t-34 -20t-41 -9z
" />
    <glyph glyph-name="uhungarumlaut" unicode="&#x171;" 
d="M32 458q0 16 11 27t27 11q15 0 26.5 -11t11.5 -27v-282q0 -21 8 -40t22.5 -33.5t33.5 -22.5t41 -8q21 0 40.5 8t33.5 22.5t22.5 33.5t8.5 40v282q0 16 11 27t27 11q15 0 26.5 -11t11.5 -27v-282q0 -37 -14.5 -70t-39 -57.5t-57.5 -38.5t-70 -14q-38 0 -70.5 14
t-57.5 38.5t-39 57.5t-14 70v282zM150 646q10 18 32 18q17 0 27.5 -11t10.5 -26q0 -13 -5 -20l-41 -71q-11 -18 -32 -18q-17 0 -28 11t-11 26q0 9 6 20zM263 646q10 18 32 18q17 0 27.5 -11t10.5 -26q0 -13 -5 -20l-41 -71q-11 -18 -32 -18q-17 0 -28 11t-11 26q0 9 6 20z
" />
    <glyph glyph-name="umacron" unicode="&#x16b;" 
d="M32 458q0 16 11 27t27 11q15 0 26.5 -11t11.5 -27v-282q0 -21 8 -40t22.5 -33.5t33.5 -22.5t41 -8q21 0 40.5 8t33.5 22.5t22.5 33.5t8.5 40v282q0 16 11 27t27 11q15 0 26.5 -11t11.5 -27v-282q0 -37 -14.5 -70t-39 -57.5t-57.5 -38.5t-70 -14q-38 0 -70.5 14
t-57.5 38.5t-39 57.5t-14 70v282zM113 551q-16 0 -27 11t-11 27q0 15 11 26.5t27 11.5h210q16 0 27 -11t11 -27q0 -15 -11 -26.5t-27 -11.5h-210z" />
    <glyph glyph-name="uogonek" unicode="&#x173;" 
d="M32 458q0 16 11 27t27 11q15 0 26.5 -11t11.5 -27v-282q0 -21 8 -40t22.5 -33.5t33.5 -22.5t41 -8q21 0 40.5 8t33.5 22.5t22.5 33.5t8.5 40v282q0 16 11 27t27 11q15 0 26.5 -11t11.5 -27v-282q0 -37 -14.5 -70t-39 -57.5t-57.5 -38.5t-70 -14q-38 0 -70.5 14
t-57.5 38.5t-39 57.5t-14 70v282zM257 -9q0 -17 -9 -31.5t-9 -23.5q0 -7 11.5 -9.5t25 -5.5t24.5 -10t11 -23t-11 -27t-27 -11q-35 0 -58 4.5t-36.5 12t-18.5 18t-5 21.5q0 12 4 24t9 23.5t9 21t4 16.5v17h76v-17z" />
    <glyph glyph-name="uring" unicode="&#x16f;" 
d="M32 458q0 16 11 27t27 11q15 0 26.5 -11t11.5 -27v-282q0 -21 8 -40t22.5 -33.5t33.5 -22.5t41 -8q21 0 40.5 8t33.5 22.5t22.5 33.5t8.5 40v282q0 16 11 27t27 11q15 0 26.5 -11t11.5 -27v-282q0 -37 -14.5 -70t-39 -57.5t-57.5 -38.5t-70 -14q-38 0 -70.5 14
t-57.5 38.5t-39 57.5t-14 70v282zM217 707q37 0 63 -26t26 -63q0 -18 -7 -34t-19 -28t-28.5 -19t-34.5 -7t-34 7t-28 19t-19 28t-7 34t7 34.5t19 28.5t28 19t34 7zM182 618q0 -14 10.5 -24.5t24.5 -10.5t24.5 10.5t10.5 24.5t-10.5 24.5t-24.5 10.5t-24.5 -10.5t-10.5 -24.5
z" />
    <glyph glyph-name="utilde" unicode="&#x169;" 
d="M32 458q0 16 11 27t27 11q15 0 26.5 -11t11.5 -27v-282q0 -21 8 -40t22.5 -33.5t33.5 -22.5t41 -8q21 0 40.5 8t33.5 22.5t22.5 33.5t8.5 40v282q0 16 11 27t27 11q15 0 26.5 -11t11.5 -27v-282q0 -37 -14.5 -70t-39 -57.5t-57.5 -38.5t-70 -14q-38 0 -70.5 14
t-57.5 38.5t-39 57.5t-14 70v282zM86 610q0 15 10.5 25t25 15.5t30.5 8t28 2.5q14 0 31 -6t39 -6q18 0 28.5 2t16.5 4t9.5 4t6.5 2q15 0 26.5 -11t11.5 -27q0 -15 -10.5 -24.5t-25 -15t-30.5 -8t-27 -2.5q-25 0 -56 10q-5 1 -15 1q-18 0 -28.5 -1.5t-16.5 -4t-9 -4t-6 -1.5
q-15 0 -27 11t-12 26z" />
    <glyph glyph-name="wacute" unicode="&#x1e83;" horiz-adv-x="663" 
d="M32 458q0 16 11.5 27t26.5 11q16 0 27 -11t11 -27v-282q0 -43 26 -73.5t69 -30.5q45 0 70 30.5t25 73.5v282q0 16 11.5 27t26.5 11q16 0 27 -11t11 -27v-282q0 -43 26 -73.5t69 -30.5q45 0 70 30.5t25 73.5v282q0 16 11.5 27t26.5 11q16 0 27 -11t11 -27v-282
q0 -37 -12.5 -70t-35.5 -57.5t-54.5 -38.5t-68.5 -14q-42 0 -76 18t-57 47q-23 -29 -57 -47t-76 -18q-37 0 -68.5 14t-54 38.5t-35.5 57.5t-13 70v282zM346 649q10 18 32 18q17 0 27.5 -11t10.5 -26q0 -13 -5 -20l-41 -71q-11 -18 -32 -18q-17 0 -28 11t-11 26q0 9 6 20z
" />
    <glyph glyph-name="wcircumflex" unicode="&#x175;" horiz-adv-x="663" 
d="M32 458q0 16 11.5 27t26.5 11q16 0 27 -11t11 -27v-282q0 -43 26 -73.5t69 -30.5q45 0 70 30.5t25 73.5v282q0 16 11.5 27t26.5 11q16 0 27 -11t11 -27v-282q0 -43 26 -73.5t69 -30.5q45 0 70 30.5t25 73.5v282q0 16 11.5 27t26.5 11q16 0 27 -11t11 -27v-282
q0 -37 -12.5 -70t-35.5 -57.5t-54.5 -38.5t-68.5 -14q-42 0 -76 18t-57 47q-23 -29 -57 -47t-76 -18q-37 0 -68.5 14t-54 38.5t-35.5 57.5t-13 70v282zM319 658q8 5 18 5q12 0 22 -7l66 -48q17 -12 17 -31q0 -16 -12.5 -27t-27.5 -11q-13 0 -21 7l-44 31l-43 -31
q-10 -7 -21 -7q-16 0 -28 11t-12 27q0 19 17 31z" />
    <glyph glyph-name="wdieresis" unicode="&#x1e85;" horiz-adv-x="663" 
d="M32 458q0 16 11.5 27t26.5 11q16 0 27 -11t11 -27v-282q0 -43 26 -73.5t69 -30.5q45 0 70 30.5t25 73.5v282q0 16 11.5 27t26.5 11q16 0 27 -11t11 -27v-282q0 -43 26 -73.5t69 -30.5q45 0 70 30.5t25 73.5v282q0 16 11.5 27t26.5 11q16 0 27 -11t11 -27v-282
q0 -37 -12.5 -70t-35.5 -57.5t-54.5 -38.5t-68.5 -14q-42 0 -76 18t-57 47q-23 -29 -57 -47t-76 -18q-37 0 -68.5 14t-54 38.5t-35.5 57.5t-13 70v282zM238 628q0 16 11 27t27 11q15 0 26.5 -11t11.5 -27t-11 -27t-27 -11q-15 0 -26.5 11t-11.5 27zM348 628q0 16 11 27
t27 11q15 0 26.5 -11t11.5 -27t-11 -27t-27 -11q-15 0 -26.5 11t-11.5 27z" />
    <glyph glyph-name="wgrave" unicode="&#x1e81;" horiz-adv-x="663" 
d="M32 458q0 16 11.5 27t26.5 11q16 0 27 -11t11 -27v-282q0 -43 26 -73.5t69 -30.5q45 0 70 30.5t25 73.5v282q0 16 11.5 27t26.5 11q16 0 27 -11t11 -27v-282q0 -43 26 -73.5t69 -30.5q45 0 70 30.5t25 73.5v282q0 16 11.5 27t26.5 11q16 0 27 -11t11 -27v-282
q0 -37 -12.5 -70t-35.5 -57.5t-54.5 -38.5t-68.5 -14q-42 0 -76 18t-57 47q-23 -29 -57 -47t-76 -18q-37 0 -68.5 14t-54 38.5t-35.5 57.5t-13 70v282zM263 608q-6 9 -6 20q0 15 11 26t28 11q21 0 32 -18l41 -71q5 -9 5 -20q0 -15 -10.5 -26t-27.5 -11q-22 0 -32 18z" />
    <glyph glyph-name="ycircumflex" unicode="&#x177;" 
d="M32 458q0 16 11 27t27 11q15 0 26.5 -11t11.5 -27v-282q0 -21 8 -40t22.5 -33.5t33.5 -22.5t41 -8q21 0 40.5 8t33.5 22.5t22.5 33.5t8.5 40v282q0 16 11 27t27 11q15 0 26.5 -11t11.5 -27v-282q0 -32 -11 -61.5t-30 -52.5t-45.5 -39.5t-56.5 -22.5v-138q0 -16 -11 -27
t-27 -11q-15 0 -26.5 11t-11.5 27v138q-31 6 -57 22.5t-45 39.5t-30 52.5t-11 61.5v282zM199 658q8 5 18 5q12 0 22 -7l66 -48q17 -12 17 -31q0 -16 -12.5 -27t-27.5 -11q-13 0 -21 7l-44 31l-43 -31q-10 -7 -21 -7q-16 0 -28 11t-12 27q0 19 17 31z" />
    <glyph glyph-name="ygrave" unicode="&#x1ef3;" 
d="M32 458q0 16 11 27t27 11q15 0 26.5 -11t11.5 -27v-282q0 -21 8 -40t22.5 -33.5t33.5 -22.5t41 -8q21 0 40.5 8t33.5 22.5t22.5 33.5t8.5 40v282q0 16 11 27t27 11q15 0 26.5 -11t11.5 -27v-282q0 -32 -11 -61.5t-30 -52.5t-45.5 -39.5t-56.5 -22.5v-138q0 -16 -11 -27
t-27 -11q-15 0 -26.5 11t-11.5 27v138q-31 6 -57 22.5t-45 39.5t-30 52.5t-11 61.5v282zM138 613q-6 9 -6 20q0 15 11 26t28 11q21 0 32 -18l41 -71q5 -9 5 -20q0 -15 -10.5 -26t-27.5 -11q-22 0 -32 18z" />
    <glyph glyph-name="zacute" unicode="&#x17a;" horiz-adv-x="431" 
d="M75 420q-16 0 -27 11t-11 27q0 15 11 26.5t27 11.5h271q20 0 34.5 -9t14.5 -27q0 -12 -6 -22l-255 -362h227q16 0 27 -11t11 -27q0 -15 -11 -26.5t-27 -11.5h-294q-21 0 -33.5 10.5t-12.5 26.5q0 12 7 22l254 361h-207zM204 646q10 18 32 18q17 0 27.5 -11t10.5 -26
q0 -13 -5 -20l-41 -71q-11 -18 -32 -18q-17 0 -28 11t-11 26q0 9 6 20z" />
    <glyph glyph-name="zdotaccent" unicode="&#x17c;" horiz-adv-x="431" 
d="M75 420q-16 0 -27 11t-11 27q0 15 11 26.5t27 11.5h271q20 0 34.5 -9t14.5 -27q0 -12 -6 -22l-255 -362h227q16 0 27 -11t11 -27q0 -15 -11 -26.5t-27 -11.5h-294q-21 0 -33.5 10.5t-12.5 26.5q0 12 7 22l254 361h-207zM177 621q0 16 11 27t27 11q15 0 26.5 -11t11.5 -27
t-11 -27t-27 -11q-15 0 -26.5 11t-11.5 27z" />
    <glyph glyph-name="racute" unicode="&#x155;" horiz-adv-x="334" 
d="M33 458q0 16 11 27t27 11q13 0 23.5 -8.5t13.5 -22.5q47 35 110 35l17.5 -1.5t38 -7.5t37.5 -17.5t17 -32.5q0 -17 -11 -27.5t-27 -10.5q-13 0 -23 7q-25 14 -53 14q-22 0 -40.5 -8t-33 -21.5t-22.5 -31.5t-9 -39v-286q0 -16 -11 -27t-27 -11q-15 0 -26.5 11t-11.5 27
v289v131zM155 646q10 18 32 18q17 0 27.5 -11t10.5 -26q0 -13 -5 -20l-41 -71q-11 -18 -32 -18q-17 0 -28 11t-11 26q0 9 6 20z" />
    <glyph glyph-name="rcaron" unicode="&#x159;" horiz-adv-x="334" 
d="M33 458q0 16 11 27t27 11q13 0 23.5 -8.5t13.5 -22.5q47 35 110 35l17.5 -1.5t38 -7.5t37.5 -17.5t17 -32.5q0 -17 -11 -27.5t-27 -10.5q-13 0 -23 7q-25 14 -53 14q-22 0 -40.5 -8t-33 -21.5t-22.5 -31.5t-9 -39v-286q0 -16 -11 -27t-27 -11q-15 0 -26.5 11t-11.5 27
v289v131zM79 605q-17 12 -17 31q0 16 12 27t28 11q11 0 21 -7l43 -31l44 31q8 7 21 7q15 0 27.5 -11t12.5 -27q0 -19 -17 -31l-66 -48q-10 -7 -22 -7q-10 0 -18 5z" />
    <glyph glyph-name="rcommaaccent" unicode="&#x157;" horiz-adv-x="334" 
d="M33 458q0 16 11 27t27 11q13 0 23.5 -8.5t13.5 -22.5q47 35 110 35l17.5 -1.5t38 -7.5t37.5 -17.5t17 -32.5q0 -17 -11 -27.5t-27 -10.5q-13 0 -23 7q-25 14 -53 14q-22 0 -40.5 -8t-33 -21.5t-22.5 -31.5t-9 -39v-286q0 -16 -11 -27t-27 -11q-15 0 -26.5 11t-11.5 27
v289v131zM35 -89q0 16 11 27t27 11q15 0 26.5 -11t11.5 -27v-82q0 -16 -11 -27t-27 -11q-15 0 -26.5 11t-11.5 27v82z" />
    <glyph glyph-name="Cacute" unicode="&#x106;" horiz-adv-x="524" 
d="M28 445q0 49 19 92t51 75.5t75.5 51t93.5 18.5q36 0 69.5 -10.5t62 -30t50.5 -46t36 -58.5q3 -7 4 -10.5t1 -8.5q0 -14 -10 -26t-28 -12q-23 0 -34 22q-18 45 -59 74.5t-92 29.5q-34 0 -64 -13t-52 -34.5t-34.5 -51t-12.5 -62.5v-229q0 -33 13 -62.5t35 -51t52 -34.5
t63 -13q54 0 94 29.5t58 75.5q4 11 13.5 16t19.5 5q17 0 27.5 -12t10.5 -26q0 -8 -3 -15q-13 -33 -35 -60t-50.5 -47t-63 -31t-71.5 -11q-49 0 -92.5 18.5t-76 51t-51.5 75.5t-19 92v229zM274 821q10 18 32 18q17 0 27.5 -11t10.5 -26q0 -13 -5 -20l-41 -71q-11 -18 -32 -18
q-17 0 -28 11t-11 26q0 9 6 20z" />
    <glyph glyph-name="Ccaron" unicode="&#x10c;" horiz-adv-x="524" 
d="M28 445q0 49 19 92t51 75.5t75.5 51t93.5 18.5q36 0 69.5 -10.5t62 -30t50.5 -46t36 -58.5q3 -7 4 -10.5t1 -8.5q0 -14 -10 -26t-28 -12q-23 0 -34 22q-18 45 -59 74.5t-92 29.5q-34 0 -64 -13t-52 -34.5t-34.5 -51t-12.5 -62.5v-229q0 -33 13 -62.5t35 -51t52 -34.5
t63 -13q54 0 94 29.5t58 75.5q4 11 13.5 16t19.5 5q17 0 27.5 -12t10.5 -26q0 -8 -3 -15q-13 -33 -35 -60t-50.5 -47t-63 -31t-71.5 -11q-49 0 -92.5 18.5t-76 51t-51.5 75.5t-19 92v229zM174 761q-17 12 -17 31q0 16 12 27t28 11q11 0 21 -7l43 -31l44 31q8 7 21 7
q15 0 27.5 -11t12.5 -27q0 -19 -17 -31l-66 -48q-10 -7 -22 -7q-10 0 -18 5z" />
    <glyph glyph-name="Ccircumflex" unicode="&#x108;" horiz-adv-x="524" 
d="M28 445q0 49 19 92t51 75.5t75.5 51t93.5 18.5q36 0 69.5 -10.5t62 -30t50.5 -46t36 -58.5q3 -7 4 -10.5t1 -8.5q0 -14 -10 -26t-28 -12q-23 0 -34 22q-18 45 -59 74.5t-92 29.5q-34 0 -64 -13t-52 -34.5t-34.5 -51t-12.5 -62.5v-229q0 -33 13 -62.5t35 -51t52 -34.5
t63 -13q54 0 94 29.5t58 75.5q4 11 13.5 16t19.5 5q17 0 27.5 -12t10.5 -26q0 -8 -3 -15q-13 -33 -35 -60t-50.5 -47t-63 -31t-71.5 -11q-49 0 -92.5 18.5t-76 51t-51.5 75.5t-19 92v229zM243 814q8 5 18 5q12 0 22 -7l66 -48q17 -12 17 -31q0 -16 -12.5 -27t-27.5 -11
q-13 0 -21 7l-44 31l-43 -31q-10 -7 -21 -7q-16 0 -28 11t-12 27q0 19 17 31z" />
    <glyph glyph-name="Cdotaccent" unicode="&#x10a;" horiz-adv-x="524" 
d="M28 445q0 49 19 92t51 75.5t75.5 51t93.5 18.5q36 0 69.5 -10.5t62 -30t50.5 -46t36 -58.5q3 -7 4 -10.5t1 -8.5q0 -14 -10 -26t-28 -12q-23 0 -34 22q-18 45 -59 74.5t-92 29.5q-34 0 -64 -13t-52 -34.5t-34.5 -51t-12.5 -62.5v-229q0 -33 13 -62.5t35 -51t52 -34.5
t63 -13q54 0 94 29.5t58 75.5q4 11 13.5 16t19.5 5q17 0 27.5 -12t10.5 -26q0 -8 -3 -15q-13 -33 -35 -60t-50.5 -47t-63 -31t-71.5 -11q-49 0 -92.5 18.5t-76 51t-51.5 75.5t-19 92v229zM224 777q0 16 11 27t27 11q15 0 26.5 -11t11.5 -27t-11 -27t-27 -11q-15 0 -26.5 11
t-11.5 27z" />
    <glyph glyph-name="Gbreve" unicode="&#x11e;" horiz-adv-x="544" 
d="M28 444q0 49 19 92t51 75.5t75.5 51t93.5 18.5q37 0 71 -11t62.5 -30.5t51 -46.5t35.5 -60q3 -8 3 -16q0 -14 -10 -26t-28 -12q-10 0 -19.5 5.5t-14.5 16.5q-19 45 -59.5 74.5t-91.5 29.5q-34 0 -64 -13t-52 -34.5t-34.5 -51t-12.5 -62.5v-228q0 -33 13 -62.5t35 -51
t52 -34.5t63 -13q34 0 63.5 13t51.5 34.5t34.5 51t12.5 62.5v49h-77q-16 0 -27 11t-11 27q0 15 11 26.5t27 11.5h115q16 0 27 -11t11 -27v-87q0 -49 -19 -92t-51 -75.5t-75.5 -51t-92.5 -18.5t-92.5 18.5t-76 51t-51.5 75.5t-19 92v228zM281 698h-17q-22 0 -41 9t-34 20
t-24.5 21.5t-11.5 13.5q-7 10 -3 21.5t13.5 19t23.5 8.5t27 -9q13 -12 27 -22t31 -10t31.5 10t27.5 22q13 10 26.5 8.5t23.5 -9.5t13.5 -19.5t-2.5 -19.5q-2 -3 -11.5 -13.5t-24.5 -21.5t-34 -20t-41 -9z" />
    <glyph glyph-name="Gcircumflex" unicode="&#x11c;" horiz-adv-x="544" 
d="M28 444q0 49 19 92t51 75.5t75.5 51t93.5 18.5q37 0 71 -11t62.5 -30.5t51 -46.5t35.5 -60q3 -8 3 -16q0 -14 -10 -26t-28 -12q-10 0 -19.5 5.5t-14.5 16.5q-19 45 -59.5 74.5t-91.5 29.5q-34 0 -64 -13t-52 -34.5t-34.5 -51t-12.5 -62.5v-228q0 -33 13 -62.5t35 -51
t52 -34.5t63 -13q34 0 63.5 13t51.5 34.5t34.5 51t12.5 62.5v49h-77q-16 0 -27 11t-11 27q0 15 11 26.5t27 11.5h115q16 0 27 -11t11 -27v-87q0 -49 -19 -92t-51 -75.5t-75.5 -51t-92.5 -18.5t-92.5 18.5t-76 51t-51.5 75.5t-19 92v228zM253 814q8 5 18 5q12 0 22 -7l66 -48
q17 -12 17 -31q0 -16 -12.5 -27t-27.5 -11q-13 0 -21 7l-44 31l-43 -31q-10 -7 -21 -7q-16 0 -28 11t-12 27q0 19 17 31z" />
    <glyph glyph-name="Gcommaaccent" unicode="&#x122;" horiz-adv-x="544" 
d="M28 444q0 49 19 92t51 75.5t75.5 51t93.5 18.5q37 0 71 -11t62.5 -30.5t51 -46.5t35.5 -60q3 -8 3 -16q0 -14 -10 -26t-28 -12q-10 0 -19.5 5.5t-14.5 16.5q-19 45 -59.5 74.5t-91.5 29.5q-34 0 -64 -13t-52 -34.5t-34.5 -51t-12.5 -62.5v-228q0 -33 13 -62.5t35 -51
t52 -34.5t63 -13q34 0 63.5 13t51.5 34.5t34.5 51t12.5 62.5v49h-77q-16 0 -27 11t-11 27q0 15 11 26.5t27 11.5h115q16 0 27 -11t11 -27v-87q0 -49 -19 -92t-51 -75.5t-75.5 -51t-92.5 -18.5t-92.5 18.5t-76 51t-51.5 75.5t-19 92v228zM234 -124q0 16 11 27t27 11
q15 0 26.5 -11t11.5 -27v-82q0 -16 -11 -27t-27 -11q-15 0 -26.5 11t-11.5 27v82z" />
    <glyph glyph-name="Gdotaccent" unicode="&#x120;" horiz-adv-x="544" 
d="M28 444q0 49 19 92t51 75.5t75.5 51t93.5 18.5q37 0 71 -11t62.5 -30.5t51 -46.5t35.5 -60q3 -8 3 -16q0 -14 -10 -26t-28 -12q-10 0 -19.5 5.5t-14.5 16.5q-19 45 -59.5 74.5t-91.5 29.5q-34 0 -64 -13t-52 -34.5t-34.5 -51t-12.5 -62.5v-228q0 -33 13 -62.5t35 -51
t52 -34.5t63 -13q34 0 63.5 13t51.5 34.5t34.5 51t12.5 62.5v49h-77q-16 0 -27 11t-11 27q0 15 11 26.5t27 11.5h115q16 0 27 -11t11 -27v-87q0 -49 -19 -92t-51 -75.5t-75.5 -51t-92.5 -18.5t-92.5 18.5t-76 51t-51.5 75.5t-19 92v228zM234 777q0 16 11 27t27 11
q15 0 26.5 -11t11.5 -27t-11 -27t-27 -11q-15 0 -26.5 11t-11.5 27z" />
    <glyph glyph-name="Obreve" unicode="&#x14e;" horiz-adv-x="544" 
d="M28 444q0 49 19 92t51 75.5t75.5 51t93.5 18.5q49 0 92 -18.5t75.5 -51t51.5 -75.5t19 -92v-228q0 -49 -19 -92t-51 -75.5t-75.5 -51t-92.5 -18.5t-92.5 18.5t-76 51t-51.5 75.5t-19 92v228zM104 216q0 -33 13 -62.5t35 -51t52 -34.5t63 -13q34 0 63.5 13t51.5 34.5
t34.5 51t12.5 62.5v228q0 33 -13 62.5t-35 51t-51.5 34.5t-62.5 13q-34 0 -64 -13t-52 -34.5t-34.5 -51t-12.5 -62.5v-228zM273 705h-17q-22 0 -41 9t-34 20t-24.5 21.5t-11.5 13.5q-7 10 -3 21.5t13.5 19t23.5 8.5t27 -9q13 -12 27 -22t31 -10t31.5 10t27.5 22
q13 10 26.5 8.5t23.5 -9.5t13.5 -19.5t-2.5 -19.5q-2 -3 -11.5 -13.5t-24.5 -21.5t-34 -20t-41 -9z" />
    <glyph glyph-name="Ohungarumlaut" unicode="&#x150;" horiz-adv-x="544" 
d="M28 444q0 49 19 92t51 75.5t75.5 51t93.5 18.5q49 0 92 -18.5t75.5 -51t51.5 -75.5t19 -92v-228q0 -49 -19 -92t-51 -75.5t-75.5 -51t-92.5 -18.5t-92.5 18.5t-76 51t-51.5 75.5t-19 92v228zM104 216q0 -33 13 -62.5t35 -51t52 -34.5t63 -13q34 0 63.5 13t51.5 34.5
t34.5 51t12.5 62.5v228q0 33 -13 62.5t-35 51t-51.5 34.5t-62.5 13q-34 0 -64 -13t-52 -34.5t-34.5 -51t-12.5 -62.5v-228zM227 833q10 18 32 18q17 0 27.5 -11t10.5 -26q0 -13 -5 -20l-41 -71q-11 -18 -32 -18q-17 0 -28 11t-11 26q0 9 6 20zM340 833q10 18 32 18
q17 0 27.5 -11t10.5 -26q0 -13 -5 -20l-41 -71q-11 -18 -32 -18q-17 0 -28 11t-11 26q0 9 6 20z" />
    <glyph glyph-name="Omacron" unicode="&#x14c;" horiz-adv-x="544" 
d="M28 444q0 49 19 92t51 75.5t75.5 51t93.5 18.5q49 0 92 -18.5t75.5 -51t51.5 -75.5t19 -92v-228q0 -49 -19 -92t-51 -75.5t-75.5 -51t-92.5 -18.5t-92.5 18.5t-76 51t-51.5 75.5t-19 92v228zM104 216q0 -33 13 -62.5t35 -51t52 -34.5t63 -13q34 0 63.5 13t51.5 34.5
t34.5 51t12.5 62.5v228q0 33 -13 62.5t-35 51t-51.5 34.5t-62.5 13q-34 0 -64 -13t-52 -34.5t-34.5 -51t-12.5 -62.5v-228zM158 713q-16 0 -27 11t-11 27q0 15 11 26.5t27 11.5h210q16 0 27 -11t11 -27q0 -15 -11 -26.5t-27 -11.5h-210z" />
    <glyph glyph-name="Oslashacute" unicode="&#x1fe;" horiz-adv-x="544" 
d="M28 444q0 49 19 92t51 75.5t75.5 51t93.5 18.5q49 0 92 -18.5t75.5 -51t51.5 -75.5t19 -92v-228q0 -49 -19 -92t-51 -75.5t-75.5 -51t-92.5 -18.5t-92.5 18.5t-76 51t-51.5 75.5t-19 92v228zM104 216q0 -33 13 -62.5t35 -51t52 -34.5t63 -13q34 0 63.5 13t51.5 34.5
t34.5 51t12.5 62.5v228q0 33 -13 62.5t-35 51t-51.5 34.5t-62.5 13q-34 0 -64 -13t-52 -34.5t-34.5 -51t-12.5 -62.5v-228zM466 648q5 7 12.5 10t15.5 3q17 0 28 -11.5t11 -26.5q0 -6 -1.5 -12.5t-6.5 -11.5l-447 -585q-11 -14 -28 -14t-28.5 12t-11.5 26t9 25zM260 836
q10 18 32 18q17 0 27.5 -11t10.5 -26q0 -13 -5 -20l-41 -71q-11 -18 -32 -18q-17 0 -28 11t-11 26q0 9 6 20z" />
    <glyph glyph-name="Sacute" unicode="&#x15a;" horiz-adv-x="563" 
d="M103 148q18 -40 59.5 -66.5t98.5 -26.5q31 0 61 7t53 22t37 38.5t14 55.5t-13.5 58t-36.5 44t-52.5 27.5t-62.5 9.5q-46 0 -85.5 13t-68 37.5t-45 59.5t-16.5 79q0 83 58.5 129t156.5 46q2 0 23.5 -1.5t51.5 -11t61.5 -29.5t53.5 -57q2 -5 4.5 -11t2.5 -13
q0 -12 -10 -24.5t-27 -12.5q-19 0 -29 13q-13 15 -25.5 28t-27.5 22.5t-34 15t-45 5.5q-38 0 -64.5 -8.5t-43 -22t-23.5 -31.5t-7 -37q0 -27 11 -48t29.5 -35.5t44 -22t54.5 -7.5q49 0 93 -15t77 -43t52 -68t19 -89q0 -50 -19.5 -87.5t-53 -62.5t-78 -37t-94.5 -12
q-10 0 -38 3t-63 17.5t-70 44.5t-58 83q-4 9 -4 21q0 16 10 27t25 11t26 -10.5t18 -27.5zM262 831q10 18 32 18q17 0 27.5 -11t10.5 -26q0 -13 -5 -20l-41 -71q-11 -18 -32 -18q-17 0 -28 11t-11 26q0 9 6 20z" />
    <glyph glyph-name="Scedilla" unicode="&#x15e;" horiz-adv-x="563" 
d="M103 148q18 -40 59.5 -66.5t98.5 -26.5q31 0 61 7t53 22t37 38.5t14 55.5t-13.5 58t-36.5 44t-52.5 27.5t-62.5 9.5q-46 0 -85.5 13t-68 37.5t-45 59.5t-16.5 79q0 83 58.5 129t156.5 46q2 0 23.5 -1.5t51.5 -11t61.5 -29.5t53.5 -57q2 -5 4.5 -11t2.5 -13
q0 -12 -10 -24.5t-27 -12.5q-19 0 -29 13q-13 15 -25.5 28t-27.5 22.5t-34 15t-45 5.5q-38 0 -64.5 -8.5t-43 -22t-23.5 -31.5t-7 -37q0 -27 11 -48t29.5 -35.5t44 -22t54.5 -7.5q49 0 93 -15t77 -43t52 -68t19 -89q0 -50 -19.5 -87.5t-53 -62.5t-78 -37t-94.5 -12
q-10 0 -38 3t-63 17.5t-70 44.5t-58 83q-4 9 -4 21q0 16 10 27t25 11t26 -10.5t18 -27.5zM257 0h76v-17q0 -7 4 -16.5t9 -21t9 -23.5t4 -24q0 -11 -5 -21.5t-18.5 -18t-36.5 -12t-58 -4.5q-16 0 -27 11t-11 27t11 23t24.5 10t25 5.5t11.5 9.5q0 9 -9 23.5t-9 31.5v17z" />
    <glyph glyph-name="Scircumflex" unicode="&#x15c;" horiz-adv-x="563" 
d="M103 148q18 -40 59.5 -66.5t98.5 -26.5q31 0 61 7t53 22t37 38.5t14 55.5t-13.5 58t-36.5 44t-52.5 27.5t-62.5 9.5q-46 0 -85.5 13t-68 37.5t-45 59.5t-16.5 79q0 83 58.5 129t156.5 46q2 0 23.5 -1.5t51.5 -11t61.5 -29.5t53.5 -57q2 -5 4.5 -11t2.5 -13
q0 -12 -10 -24.5t-27 -12.5q-19 0 -29 13q-13 15 -25.5 28t-27.5 22.5t-34 15t-45 5.5q-38 0 -64.5 -8.5t-43 -22t-23.5 -31.5t-7 -37q0 -27 11 -48t29.5 -35.5t44 -22t54.5 -7.5q49 0 93 -15t77 -43t52 -68t19 -89q0 -50 -19.5 -87.5t-53 -62.5t-78 -37t-94.5 -12
q-10 0 -38 3t-63 17.5t-70 44.5t-58 83q-4 9 -4 21q0 16 10 27t25 11t26 -10.5t18 -27.5zM249 818q8 5 18 5q12 0 22 -7l66 -48q17 -12 17 -31q0 -16 -12.5 -27t-27.5 -11q-13 0 -21 7l-44 31l-43 -31q-10 -7 -21 -7q-16 0 -28 11t-12 27q0 19 17 31z" />
    <glyph glyph-name="Scommaaccent" unicode="&#x218;" horiz-adv-x="563" 
d="M103 148q18 -40 59.5 -66.5t98.5 -26.5q31 0 61 7t53 22t37 38.5t14 55.5t-13.5 58t-36.5 44t-52.5 27.5t-62.5 9.5q-46 0 -85.5 13t-68 37.5t-45 59.5t-16.5 79q0 83 58.5 129t156.5 46q2 0 23.5 -1.5t51.5 -11t61.5 -29.5t53.5 -57q2 -5 4.5 -11t2.5 -13
q0 -12 -10 -24.5t-27 -12.5q-19 0 -29 13q-13 15 -25.5 28t-27.5 22.5t-34 15t-45 5.5q-38 0 -64.5 -8.5t-43 -22t-23.5 -31.5t-7 -37q0 -27 11 -48t29.5 -35.5t44 -22t54.5 -7.5q49 0 93 -15t77 -43t52 -68t19 -89q0 -50 -19.5 -87.5t-53 -62.5t-78 -37t-94.5 -12
q-10 0 -38 3t-63 17.5t-70 44.5t-58 83q-4 9 -4 21q0 16 10 27t25 11t26 -10.5t18 -27.5z" />
    <glyph glyph-name="Abreve" unicode="&#x102;" horiz-adv-x="615" 
d="M270 641q10 23 35 23q7 0 15 -3q14 -6 20 -20l252 -589q3 -8 3 -16q0 -13 -10 -25t-27 -12q-25 0 -35 23l-71 166h-294l-71 -166q-5 -11 -14.5 -17t-20.5 -6q-17 0 -27 12t-10 25q0 8 3 16zM305 531l-115 -267h229zM316 698h-17q-22 0 -41 9t-34 20t-24.5 21.5
t-11.5 13.5q-7 10 -3 21.5t13.5 19t23.5 8.5t27 -9q13 -12 27 -22t31 -10t31.5 10t27.5 22q13 10 26.5 8.5t23.5 -9.5t13.5 -19.5t-2.5 -19.5q-2 -3 -11.5 -13.5t-24.5 -21.5t-34 -20t-41 -9z" />
    <glyph glyph-name="Amacron" unicode="&#x100;" horiz-adv-x="615" 
d="M270 641q10 23 35 23q7 0 15 -3q14 -6 20 -20l252 -589q3 -8 3 -16q0 -13 -10 -25t-27 -12q-25 0 -35 23l-71 166h-294l-71 -166q-5 -11 -14.5 -17t-20.5 -6q-17 0 -27 12t-10 25q0 8 3 16zM305 531l-115 -267h229zM202 707q-16 0 -27 11t-11 27q0 15 11 26.5t27 11.5
h210q16 0 27 -11t11 -27q0 -15 -11 -26.5t-27 -11.5h-210z" />
    <glyph glyph-name="Aogonek" unicode="&#x104;" horiz-adv-x="615" 
d="M270 641q10 23 35 23q7 0 15 -3q14 -6 20 -20l252 -589q3 -8 3 -16q0 -13 -10 -25t-27 -12q-25 0 -35 23l-71 166h-294l-71 -166q-5 -11 -14.5 -17t-20.5 -6q-17 0 -27 12t-10 25q0 8 3 16zM305 531l-115 -267h229zM595 25q0 -17 -9 -31.5t-9 -23.5q0 -7 11.5 -9.5
t25 -5.5t24.5 -10t11 -23t-11 -27t-27 -11q-35 0 -58 4.5t-36.5 12t-18.5 18t-5 21.5q0 12 4 24t9 23.5t9 21t4 16.5v17h76v-17z" />
    <glyph glyph-name="Ubreve" unicode="&#x16c;" horiz-adv-x="551" 
d="M32 622q0 16 11 27t27 11q15 0 26.5 -11t11.5 -27v-406q0 -33 13 -62.5t35 -51t52 -34.5t63 -13q34 0 63.5 13t51.5 34.5t34.5 51t12.5 62.5v406q0 16 11 27t27 11q15 0 26.5 -11t11.5 -27v-406q0 -49 -19 -92t-51 -75.5t-75.5 -51t-92.5 -18.5t-92.5 18.5t-76 51
t-51.5 75.5t-19 92v406zM280 700h-17q-22 0 -41 9t-34 20t-24.5 21.5t-11.5 13.5q-7 10 -3 21.5t13.5 19t23.5 8.5t27 -9q13 -12 27 -22t31 -10t31.5 10t27.5 22q13 10 26.5 8.5t23.5 -9.5t13.5 -19.5t-2.5 -19.5q-2 -3 -11.5 -13.5t-24.5 -21.5t-34 -20t-41 -9z" />
    <glyph glyph-name="Uhungarumlaut" unicode="&#x170;" horiz-adv-x="551" 
d="M32 622q0 16 11 27t27 11q15 0 26.5 -11t11.5 -27v-406q0 -33 13 -62.5t35 -51t52 -34.5t63 -13q34 0 63.5 13t51.5 34.5t34.5 51t12.5 62.5v406q0 16 11 27t27 11q15 0 26.5 -11t11.5 -27v-406q0 -49 -19 -92t-51 -75.5t-75.5 -51t-92.5 -18.5t-92.5 18.5t-76 51
t-51.5 75.5t-19 92v406zM207 802q10 18 32 18q17 0 27.5 -11t10.5 -26q0 -13 -5 -20l-41 -71q-11 -18 -32 -18q-17 0 -28 11t-11 26q0 9 6 20zM320 802q10 18 32 18q17 0 27.5 -11t10.5 -26q0 -13 -5 -20l-41 -71q-11 -18 -32 -18q-17 0 -28 11t-11 26q0 9 6 20z" />
    <glyph glyph-name="Umacron" unicode="&#x16a;" horiz-adv-x="551" 
d="M32 622q0 16 11 27t27 11q15 0 26.5 -11t11.5 -27v-406q0 -33 13 -62.5t35 -51t52 -34.5t63 -13q34 0 63.5 13t51.5 34.5t34.5 51t12.5 62.5v406q0 16 11 27t27 11q15 0 26.5 -11t11.5 -27v-406q0 -49 -19 -92t-51 -75.5t-75.5 -51t-92.5 -18.5t-92.5 18.5t-76 51
t-51.5 75.5t-19 92v406zM170 707q-16 0 -27 11t-11 27q0 15 11 26.5t27 11.5h210q16 0 27 -11t11 -27q0 -15 -11 -26.5t-27 -11.5h-210z" />
    <glyph glyph-name="Uogonek" unicode="&#x172;" horiz-adv-x="551" 
d="M32 622q0 16 11 27t27 11q15 0 26.5 -11t11.5 -27v-406q0 -33 13 -62.5t35 -51t52 -34.5t63 -13q34 0 63.5 13t51.5 34.5t34.5 51t12.5 62.5v406q0 16 11 27t27 11q15 0 26.5 -11t11.5 -27v-406q0 -49 -19 -92t-51 -75.5t-75.5 -51t-92.5 -18.5t-92.5 18.5t-76 51
t-51.5 75.5t-19 92v406zM313 -26q0 -17 -9 -31.5t-9 -23.5q0 -7 11.5 -9.5t25 -5.5t24.5 -10t11 -23t-11 -27t-27 -11q-35 0 -58 4.5t-36.5 12t-18.5 18t-5 21.5q0 12 4 24t9 23.5t9 21t4 16.5v17h76v-17z" />
    <glyph glyph-name="Utilde" unicode="&#x168;" horiz-adv-x="551" 
d="M32 622q0 16 11 27t27 11q15 0 26.5 -11t11.5 -27v-406q0 -33 13 -62.5t35 -51t52 -34.5t63 -13q34 0 63.5 13t51.5 34.5t34.5 51t12.5 62.5v406q0 16 11 27t27 11q15 0 26.5 -11t11.5 -27v-406q0 -49 -19 -92t-51 -75.5t-75.5 -51t-92.5 -18.5t-92.5 18.5t-76 51
t-51.5 75.5t-19 92v406zM144 766q0 15 10.5 25t25 15.5t30.5 8t28 2.5q14 0 31 -6t39 -6q18 0 28.5 2t16.5 4t9.5 4t6.5 2q15 0 26.5 -11t11.5 -27q0 -15 -10.5 -24.5t-25 -15t-30.5 -8t-27 -2.5q-25 0 -56 10q-5 1 -15 1q-18 0 -28.5 -1.5t-16.5 -4t-9 -4t-6 -1.5
q-15 0 -27 11t-12 26z" />
    <glyph glyph-name="Uring" unicode="&#x16e;" horiz-adv-x="551" 
d="M32 622q0 16 11 27t27 11q15 0 26.5 -11t11.5 -27v-406q0 -33 13 -62.5t35 -51t52 -34.5t63 -13q34 0 63.5 13t51.5 34.5t34.5 51t12.5 62.5v406q0 16 11 27t27 11q15 0 26.5 -11t11.5 -27v-406q0 -49 -19 -92t-51 -75.5t-75.5 -51t-92.5 -18.5t-92.5 18.5t-76 51
t-51.5 75.5t-19 92v406zM275 863q37 0 63 -26t26 -63q0 -18 -7 -34t-19 -28t-28.5 -19t-34.5 -7t-34 7t-28 19t-19 28t-7 34t7 34.5t19 28.5t28 19t34 7zM240 774q0 -14 10.5 -24.5t24.5 -10.5t24.5 10.5t10.5 24.5t-10.5 24.5t-24.5 10.5t-24.5 -10.5t-10.5 -24.5z" />
    <glyph glyph-name="Ebreve" unicode="&#x114;" horiz-adv-x="555" 
d="M35 622q0 16 11 27t27 11h401q16 0 27 -11t11 -27q0 -15 -11 -26.5t-27 -11.5h-363v-226h213q16 0 27 -11t11 -27q0 -15 -11 -26.5t-27 -11.5h-213v-206h363q16 0 27 -11t11 -27q0 -15 -11 -26.5t-27 -11.5h-398h-3q-15 0 -26.5 11t-11.5 27v584zM286 698h-17
q-22 0 -41 9t-34 20t-24.5 21.5t-11.5 13.5q-7 10 -3 21.5t13.5 19t23.5 8.5t27 -9q13 -12 27 -22t31 -10t31.5 10t27.5 22q13 10 26.5 8.5t23.5 -9.5t13.5 -19.5t-2.5 -19.5q-2 -3 -11.5 -13.5t-24.5 -21.5t-34 -20t-41 -9z" />
    <glyph glyph-name="Ecaron" unicode="&#x11a;" horiz-adv-x="555" 
d="M35 622q0 16 11 27t27 11h401q16 0 27 -11t11 -27q0 -15 -11 -26.5t-27 -11.5h-363v-226h213q16 0 27 -11t11 -27q0 -15 -11 -26.5t-27 -11.5h-213v-206h363q16 0 27 -11t11 -27q0 -15 -11 -26.5t-27 -11.5h-398h-3q-15 0 -26.5 11t-11.5 27v584zM190 761q-17 12 -17 31
q0 16 12 27t28 11q11 0 21 -7l43 -31l44 31q8 7 21 7q15 0 27.5 -11t12.5 -27q0 -19 -17 -31l-66 -48q-10 -7 -22 -7q-10 0 -18 5z" />
    <glyph glyph-name="Edotaccent" unicode="&#x116;" horiz-adv-x="555" 
d="M35 622q0 16 11 27t27 11h401q16 0 27 -11t11 -27q0 -15 -11 -26.5t-27 -11.5h-363v-226h213q16 0 27 -11t11 -27q0 -15 -11 -26.5t-27 -11.5h-213v-206h363q16 0 27 -11t11 -27q0 -15 -11 -26.5t-27 -11.5h-398h-3q-15 0 -26.5 11t-11.5 27v584zM239 777q0 16 11 27
t27 11q15 0 26.5 -11t11.5 -27t-11 -27t-27 -11q-15 0 -26.5 11t-11.5 27z" />
    <glyph glyph-name="Emacron" unicode="&#x112;" horiz-adv-x="555" 
d="M35 622q0 16 11 27t27 11h401q16 0 27 -11t11 -27q0 -15 -11 -26.5t-27 -11.5h-363v-226h213q16 0 27 -11t11 -27q0 -15 -11 -26.5t-27 -11.5h-213v-206h363q16 0 27 -11t11 -27q0 -15 -11 -26.5t-27 -11.5h-398h-3q-15 0 -26.5 11t-11.5 27v584zM172 707q-16 0 -27 11
t-11 27q0 15 11 26.5t27 11.5h210q16 0 27 -11t11 -27q0 -15 -11 -26.5t-27 -11.5h-210z" />
    <glyph glyph-name="Eogonek" unicode="&#x118;" horiz-adv-x="555" 
d="M35 622q0 16 11 27t27 11h401q16 0 27 -11t11 -27q0 -15 -11 -26.5t-27 -11.5h-363v-226h213q16 0 27 -11t11 -27q0 -15 -11 -26.5t-27 -11.5h-213v-206h363q16 0 27 -11t11 -27q0 -15 -11 -26.5t-27 -11.5h-398h-3q-15 0 -26.5 11t-11.5 27v584zM280 -17q0 -17 -9 -31.5
t-9 -23.5q0 -7 11.5 -9.5t25 -5.5t24.5 -10t11 -23t-11 -27t-27 -11q-35 0 -58 4.5t-36.5 12t-18.5 18t-5 21.5q0 12 4 24t9 23.5t9 21t4 16.5v17h76v-17z" />
    <glyph glyph-name="Ibreve" unicode="&#x12c;" horiz-adv-x="146" 
d="M35 622q0 16 11 27t27 11q15 0 26.5 -11t11.5 -27v-584q0 -16 -11 -27t-27 -11q-15 0 -26.5 11t-11.5 27v584zM83 698h-17q-22 0 -41 9t-34 20t-24.5 21.5t-11.5 13.5q-7 10 -3 21.5t13.5 19t23.5 8.5t27 -9q13 -12 27 -22t31 -10t31.5 10t27.5 22q13 10 26.5 8.5
t23.5 -9.5t13.5 -19.5t-2.5 -19.5q-2 -3 -11.5 -13.5t-24.5 -21.5t-34 -20t-41 -9z" />
    <glyph glyph-name="Idotaccent" unicode="&#x130;" horiz-adv-x="146" 
d="M35 622q0 16 11 27t27 11q15 0 26.5 -11t11.5 -27v-584q0 -16 -11 -27t-27 -11q-15 0 -26.5 11t-11.5 27v584zM35 777q0 16 11 27t27 11q15 0 26.5 -11t11.5 -27t-11 -27t-27 -11q-15 0 -26.5 11t-11.5 27z" />
    <glyph glyph-name="Imacron" horiz-adv-x="146" 
d="M35 622q0 16 11 27t27 11q15 0 26.5 -11t11.5 -27v-584q0 -16 -11 -27t-27 -11q-15 0 -26.5 11t-11.5 27v584zM-31 707q-16 0 -27 11t-11 27q0 15 11 26.5t27 11.5h210q16 0 27 -11t11 -27q0 -15 -11 -26.5t-27 -11.5h-210z" />
    <glyph glyph-name="Iogonek" unicode="&#x12e;" horiz-adv-x="146" 
d="M35 622q0 16 11 27t27 11q15 0 26.5 -11t11.5 -27v-584q0 -16 -11 -27t-27 -11q-15 0 -26.5 11t-11.5 27v584zM112 26q0 -17 -9 -31.5t-9 -23.5q0 -7 11.5 -9.5t25 -5.5t24.5 -10t11 -23t-11 -27t-27 -11q-35 0 -58 4.5t-36.5 12t-18.5 18t-5 21.5q0 12 4 24t9 23.5t9 21
t4 16.5v17h76v-17z" />
    <glyph glyph-name="Itilde" unicode="&#x128;" horiz-adv-x="146" 
d="M35 622q0 16 11 27t27 11q15 0 26.5 -11t11.5 -27v-584q0 -16 -11 -27t-27 -11q-15 0 -26.5 11t-11.5 27v584zM-57 766q0 15 10.5 25t25 15.5t30.5 8t28 2.5q14 0 31 -6t39 -6q18 0 28.5 2t16.5 4t9.5 4t6.5 2q15 0 26.5 -11t11.5 -27q0 -15 -10.5 -24.5t-25 -15
t-30.5 -8t-27 -2.5q-25 0 -56 10q-5 1 -15 1q-18 0 -28.5 -1.5t-16.5 -4t-9 -4t-6 -1.5q-15 0 -27 11t-12 26z" />
    <glyph glyph-name="Zacute" unicode="&#x179;" horiz-adv-x="571" 
d="M82 584q-16 0 -27 11t-11 27q0 15 11 26.5t27 11.5h391q20 0 34.5 -9t14.5 -27q0 -12 -6 -22l-371 -526h346q16 0 27 -11t11 -27q0 -15 -11 -26.5t-27 -11.5h-413q-21 0 -33.5 10.5t-12.5 26.5q0 12 7 22l370 525h-327zM290 810q10 18 32 18q17 0 27.5 -11t10.5 -26
q0 -13 -5 -20l-41 -71q-11 -18 -32 -18q-17 0 -28 11t-11 26q0 9 6 20z" />
    <glyph glyph-name="Zdotaccent" unicode="&#x17b;" horiz-adv-x="571" 
d="M82 584q-16 0 -27 11t-11 27q0 15 11 26.5t27 11.5h391q20 0 34.5 -9t14.5 -27q0 -12 -6 -22l-371 -526h346q16 0 27 -11t11 -27q0 -15 -11 -26.5t-27 -11.5h-413q-21 0 -33.5 10.5t-12.5 26.5q0 12 7 22l370 525h-327zM247 777q0 16 11 27t27 11q15 0 26.5 -11t11.5 -27
t-11 -27t-27 -11q-15 0 -26.5 11t-11.5 27z" />
    <glyph glyph-name="Ycircumflex" unicode="&#x176;" horiz-adv-x="545" 
d="M28 622q0 16 11 27t27 11q15 0 26.5 -11t11.5 -27v-195q0 -33 13 -62.5t35 -51t52 -34.5t63 -13q34 0 63.5 13t51.5 34.5t34.5 51t12.5 62.5v195q0 16 11 27t27 11q15 0 26.5 -11t11.5 -27v-195q0 -44 -15.5 -83.5t-42.5 -70.5t-63.5 -52t-78.5 -28v-155q0 -16 -11 -27
t-27 -11q-15 0 -26.5 11t-11.5 27v155q-42 7 -79 28t-64 52t-42.5 70.5t-15.5 83.5v195zM254 814q8 5 18 5q12 0 22 -7l66 -48q17 -12 17 -31q0 -16 -12.5 -27t-27.5 -11q-13 0 -21 7l-44 31l-43 -31q-10 -7 -21 -7q-16 0 -28 11t-12 27q0 19 17 31z" />
    <glyph glyph-name="Ygrave" unicode="&#x1ef2;" horiz-adv-x="545" 
d="M28 622q0 16 11 27t27 11q15 0 26.5 -11t11.5 -27v-195q0 -33 13 -62.5t35 -51t52 -34.5t63 -13q34 0 63.5 13t51.5 34.5t34.5 51t12.5 62.5v195q0 16 11 27t27 11q15 0 26.5 -11t11.5 -27v-195q0 -44 -15.5 -83.5t-42.5 -70.5t-63.5 -52t-78.5 -28v-155q0 -16 -11 -27
t-27 -11q-15 0 -26.5 11t-11.5 27v155q-42 7 -79 28t-64 52t-42.5 70.5t-15.5 83.5v195zM188 771q-6 9 -6 20q0 15 11 26t28 11q21 0 32 -18l41 -71q5 -9 5 -20q0 -15 -10.5 -26t-27.5 -11q-22 0 -32 18z" />
    <glyph glyph-name="Lacute" unicode="&#x139;" horiz-adv-x="525" 
d="M35 622q0 16 11 27t27 11q15 0 26.5 -11t11.5 -27v-546h363q16 0 27 -11t11 -27q0 -15 -11 -26.5t-27 -11.5h-401q-15 0 -26.5 11t-11.5 27v584zM91 810q10 18 32 18q17 0 27.5 -11t10.5 -26q0 -13 -5 -20l-41 -71q-11 -18 -32 -18q-17 0 -28 11t-11 26q0 9 6 20z" />
    <glyph glyph-name="Lcaron" unicode="&#x13d;" horiz-adv-x="525" 
d="M35 622q0 16 11 27t27 11q15 0 26.5 -11t11.5 -27v-546h363q16 0 27 -11t11 -27q0 -15 -11 -26.5t-27 -11.5h-401q-15 0 -26.5 11t-11.5 27v584zM314 590q0 16 11.5 27t26.5 11q16 0 27 -11t11 -27v-79q0 -14 -11.5 -26t-25.5 -12h-40q-16 0 -27 11.5t-11 26.5
q0 16 11 27t27 11h1v41z" />
    <glyph glyph-name="Lcommaaccent" unicode="&#x13b;" horiz-adv-x="525" 
d="M35 622q0 16 11 27t27 11q15 0 26.5 -11t11.5 -27v-546h363q16 0 27 -11t11 -27q0 -15 -11 -26.5t-27 -11.5h-401q-15 0 -26.5 11t-11.5 27v584zM224 -124q0 16 11 27t27 11q15 0 26.5 -11t11.5 -27v-82q0 -16 -11 -27t-27 -11q-15 0 -26.5 11t-11.5 27v82z" />
    <glyph glyph-name="Ldot" unicode="&#x13f;" horiz-adv-x="525" 
d="M35 622q0 16 11 27t27 11q15 0 26.5 -11t11.5 -27v-546h363q16 0 27 -11t11 -27q0 -15 -11 -26.5t-27 -11.5h-401q-15 0 -26.5 11t-11.5 27v584zM224 268q0 16 11 27t27 11q15 0 26.5 -11t11.5 -27t-11 -27t-27 -11q-15 0 -26.5 11t-11.5 27z" />
    <glyph glyph-name="Dcaron" unicode="&#x10e;" horiz-adv-x="550" 
d="M35 622q0 16 11 27t27 11h200q49 0 93 -18.5t76 -50.5t51 -74.5t19 -91.5v-190q0 -49 -19 -91.5t-51 -74.5t-75.5 -50.5t-92.5 -18.5h-201q-15 0 -26.5 11t-11.5 27v584zM111 584v-508h163q34 0 63.5 12.5t51.5 34t34.5 50.5t12.5 62v190q0 33 -12.5 62t-34.5 50.5
t-52 34t-64 12.5h-162zM142 761q-17 12 -17 31q0 16 12 27t28 11q11 0 21 -7l43 -31l44 31q8 7 21 7q15 0 27.5 -11t12.5 -27q0 -19 -17 -31l-66 -48q-10 -7 -22 -7q-10 0 -18 5z" />
    <glyph glyph-name="Dcroat" unicode="&#x110;" horiz-adv-x="550" 
d="M35 622q0 16 11 27t27 11h200q49 0 93 -18.5t76 -50.5t51 -74.5t19 -91.5v-190q0 -49 -19 -91.5t-51 -74.5t-75.5 -50.5t-92.5 -18.5h-201q-15 0 -26.5 11t-11.5 27v584zM111 584v-508h163q34 0 63.5 12.5t51.5 34t34.5 50.5t12.5 62v190q0 33 -12.5 62t-34.5 50.5
t-52 34t-64 12.5h-162zM79 707q-16 0 -27 11t-11 27q0 15 11 26.5t27 11.5h210q16 0 27 -11t11 -27q0 -15 -11 -26.5t-27 -11.5h-210z" />
    <glyph glyph-name="Hcircumflex" unicode="&#x124;" horiz-adv-x="557" 
d="M35 622q0 16 11.5 27t26.5 11q16 0 27 -11t11 -27v-264h325v264q0 16 11.5 27t26.5 11q16 0 27 -11t11 -27v-584q0 -16 -11.5 -27t-26.5 -11q-16 0 -27 11t-11 27v244h-325v-244q0 -16 -11.5 -27t-26.5 -11q-16 0 -27 11t-11 27v584zM260 814q8 5 18 5q12 0 22 -7l66 -48
q17 -12 17 -31q0 -16 -12.5 -27t-27.5 -11q-13 0 -21 7l-44 31l-43 -31q-10 -7 -21 -7q-16 0 -28 11t-12 27q0 19 17 31z" />
    <glyph glyph-name="Jcircumflex" unicode="&#x134;" horiz-adv-x="261" 
d="M150 622q0 16 11.5 27t26.5 11q16 0 27 -11t11 -27v-446q0 -37 -14.5 -70t-39 -57.5t-57.5 -38.5t-70 -14q-16 0 -27 11t-11 27t11 27t27 11q21 0 39.5 8t33 21.5t23 31.5t9.5 39v450zM171 801q8 5 18 5q12 0 22 -7l66 -48q17 -12 17 -31q0 -16 -12.5 -27t-27.5 -11
q-13 0 -21 7l-44 31l-43 -31q-10 -7 -21 -7q-16 0 -28 11t-12 27q0 19 17 31z" />
    <glyph glyph-name="Kcommaaccent" unicode="&#x136;" horiz-adv-x="508" 
d="M35 622q0 16 11 27t27 11q15 0 26.5 -11t11.5 -27v-164l240 193q10 9 24 9t25.5 -10.5t11.5 -27.5q0 -18 -13 -30l-205 -165l308 -365q10 -10 10 -25q0 -14 -11 -25.5t-27 -11.5q-18 0 -30 13l-309 367l-24 -19v-323q0 -16 -11 -27t-27 -11q-15 0 -26.5 11t-11.5 27v584z
M216 -124q0 16 11 27t27 11q15 0 26.5 -11t11.5 -27v-82q0 -16 -11 -27t-27 -11q-15 0 -26.5 11t-11.5 27v82z" />
    <glyph glyph-name="Ncaron" unicode="&#x147;" horiz-adv-x="550" 
d="M32 427q0 49 19 92t51 75t75.5 51t92.5 19t92.5 -19t76 -51t51.5 -75t19 -92v-389q0 -16 -11 -27t-27 -11q-15 0 -26.5 11t-11.5 27v389q0 33 -13 62.5t-35 51t-52 34.5t-63 13q-34 0 -63.5 -13t-51.5 -34.5t-34.5 -51t-12.5 -62.5v-389q0 -16 -11 -27t-27 -11
q-15 0 -26.5 11t-11.5 27v389zM187 761q-17 12 -17 31q0 16 12 27t28 11q11 0 21 -7l43 -31l44 31q8 7 21 7q15 0 27.5 -11t12.5 -27q0 -19 -17 -31l-66 -48q-10 -7 -22 -7q-10 0 -18 5z" />
    <glyph glyph-name="Ncommaaccent" unicode="&#x145;" horiz-adv-x="550" 
d="M32 427q0 49 19 92t51 75t75.5 51t92.5 19t92.5 -19t76 -51t51.5 -75t19 -92v-389q0 -16 -11 -27t-27 -11q-15 0 -26.5 11t-11.5 27v389q0 33 -13 62.5t-35 51t-52 34.5t-63 13q-34 0 -63.5 -13t-51.5 -34.5t-34.5 -51t-12.5 -62.5v-389q0 -16 -11 -27t-27 -11
q-15 0 -26.5 11t-11.5 27v389zM237 -124q0 16 11 27t27 11q15 0 26.5 -11t11.5 -27v-82q0 -16 -11 -27t-27 -11q-15 0 -26.5 11t-11.5 27v82z" />
    <glyph glyph-name="Racute" unicode="&#x154;" horiz-adv-x="558" 
d="M35 622q0 16 11.5 27t26.5 11h201q49 0 92.5 -18.5t75.5 -50.5t51 -74.5t19 -91.5q0 -70 -36.5 -125.5t-95.5 -84.5l131 -152q9 -11 9 -25q0 -16 -11 -27.5t-27 -11.5t-29 13l-136 157q-8 9 -19 15t-23 6h-164v-152q0 -16 -11.5 -27t-26.5 -11q-16 0 -27 11t-11 27v584z
M111 584v-318h163q33 0 62.5 12.5t51.5 34t35 50.5t13 62t-12.5 62t-34.5 50.5t-51.5 34t-63.5 12.5h-163zM208 810q10 18 32 18q17 0 27.5 -11t10.5 -26q0 -13 -5 -20l-41 -71q-11 -18 -32 -18q-17 0 -28 11t-11 26q0 9 6 20z" />
    <glyph glyph-name="Rcaron" unicode="&#x158;" horiz-adv-x="558" 
d="M35 622q0 16 11.5 27t26.5 11h201q49 0 92.5 -18.5t75.5 -50.5t51 -74.5t19 -91.5q0 -70 -36.5 -125.5t-95.5 -84.5l131 -152q9 -11 9 -25q0 -16 -11 -27.5t-27 -11.5t-29 13l-136 157q-8 9 -19 15t-23 6h-164v-152q0 -16 -11.5 -27t-26.5 -11q-16 0 -27 11t-11 27v584z
M111 584v-318h163q33 0 62.5 12.5t51.5 34t35 50.5t13 62t-12.5 62t-34.5 50.5t-51.5 34t-63.5 12.5h-163zM121 737q-17 12 -17 31q0 16 12 27t28 11q11 0 21 -7l43 -31l44 31q8 7 21 7q15 0 27.5 -11t12.5 -27q0 -19 -17 -31l-66 -48q-10 -7 -22 -7q-10 0 -18 5z" />
    <glyph glyph-name="Rcommaaccent" unicode="&#x156;" horiz-adv-x="558" 
d="M35 622q0 16 11.5 27t26.5 11h201q49 0 92.5 -18.5t75.5 -50.5t51 -74.5t19 -91.5q0 -70 -36.5 -125.5t-95.5 -84.5l131 -152q9 -11 9 -25q0 -16 -11 -27.5t-27 -11.5t-29 13l-136 157q-8 9 -19 15t-23 6h-164v-152q0 -16 -11.5 -27t-26.5 -11q-16 0 -27 11t-11 27v584z
M111 584v-318h163q33 0 62.5 12.5t51.5 34t35 50.5t13 62t-12.5 62t-34.5 50.5t-51.5 34t-63.5 12.5h-163zM206 -88q0 16 11 27t27 11q15 0 26.5 -11t11.5 -27v-82q0 -16 -11 -27t-27 -11q-15 0 -26.5 11t-11.5 27v82z" />
    <glyph glyph-name="Tcaron" unicode="&#x164;" horiz-adv-x="515" 
d="M52 584q-16 0 -27 11t-11 27q0 15 11 26.5t27 11.5h401q16 0 27 -11t11 -27q0 -15 -11 -26.5t-27 -11.5h-163v-546q0 -16 -11 -27t-27 -11q-15 0 -26.5 11t-11.5 27v546h-162zM170 761q-17 12 -17 31q0 16 12 27t28 11q11 0 21 -7l43 -31l44 31q8 7 21 7q15 0 27.5 -11
t12.5 -27q0 -19 -17 -31l-66 -48q-10 -7 -22 -7q-10 0 -18 5z" />
    <glyph glyph-name="Tcommaaccent" unicode="&#x162;" horiz-adv-x="515" 
d="M52 584q-16 0 -27 11t-11 27q0 15 11 26.5t27 11.5h401q16 0 27 -11t11 -27q0 -15 -11 -26.5t-27 -11.5h-163v-546q0 -16 -11 -27t-27 -11q-15 0 -26.5 11t-11.5 27v546h-162zM213 -119q0 16 11 27t27 11q15 0 26.5 -11t11.5 -27v-82q0 -16 -11 -27t-27 -11
q-15 0 -26.5 11t-11.5 27v82z" />
    <glyph glyph-name="Wacute" unicode="&#x1e82;" horiz-adv-x="863" 
d="M32 622q0 16 11.5 27t26.5 11q16 0 27 -11t11 -27v-406q0 -33 11 -62.5t31 -51t48 -34.5t62 -13q33 0 59 13t43.5 34.5t26.5 51t9 62.5v406q0 16 11 27t27 11t27 -11t11 -27v-407q0 -33 9.5 -62t27 -50.5t43.5 -34.5t59 -13t61 13t48 34.5t31 51t11 62.5v406
q0 16 11.5 27t26.5 11q16 0 27 -11t11 -27v-406q0 -49 -17 -92t-47.5 -75.5t-72 -51t-90.5 -18.5q-60 0 -104 23.5t-73 62.5q-32 -38 -74.5 -62t-101.5 -24q-49 0 -91 18.5t-72.5 51t-47.5 75.5t-17 92v406zM447 810q10 18 32 18q17 0 27.5 -11t10.5 -26q0 -13 -5 -20
l-41 -71q-11 -18 -32 -18q-17 0 -28 11t-11 26q0 9 6 20z" />
    <glyph glyph-name="Wcircumflex" unicode="&#x174;" horiz-adv-x="863" 
d="M32 622q0 16 11.5 27t26.5 11q16 0 27 -11t11 -27v-406q0 -33 11 -62.5t31 -51t48 -34.5t62 -13q33 0 59 13t43.5 34.5t26.5 51t9 62.5v406q0 16 11 27t27 11t27 -11t11 -27v-407q0 -33 9.5 -62t27 -50.5t43.5 -34.5t59 -13t61 13t48 34.5t31 51t11 62.5v406
q0 16 11.5 27t26.5 11q16 0 27 -11t11 -27v-406q0 -49 -17 -92t-47.5 -75.5t-72 -51t-90.5 -18.5q-60 0 -104 23.5t-73 62.5q-32 -38 -74.5 -62t-101.5 -24q-49 0 -91 18.5t-72.5 51t-47.5 75.5t-17 92v406zM419 812q8 5 18 5q12 0 22 -7l66 -48q17 -12 17 -31
q0 -16 -12.5 -27t-27.5 -11q-13 0 -21 7l-44 31l-43 -31q-10 -7 -21 -7q-16 0 -28 11t-12 27q0 19 17 31z" />
    <glyph glyph-name="Wdieresis" unicode="&#x1e84;" horiz-adv-x="863" 
d="M32 622q0 16 11.5 27t26.5 11q16 0 27 -11t11 -27v-406q0 -33 11 -62.5t31 -51t48 -34.5t62 -13q33 0 59 13t43.5 34.5t26.5 51t9 62.5v406q0 16 11 27t27 11t27 -11t11 -27v-407q0 -33 9.5 -62t27 -50.5t43.5 -34.5t59 -13t61 13t48 34.5t31 51t11 62.5v406
q0 16 11.5 27t26.5 11q16 0 27 -11t11 -27v-406q0 -49 -17 -92t-47.5 -75.5t-72 -51t-90.5 -18.5q-60 0 -104 23.5t-73 62.5q-32 -38 -74.5 -62t-101.5 -24q-49 0 -91 18.5t-72.5 51t-47.5 75.5t-17 92v406zM344 776q0 16 11 27t27 11q15 0 26.5 -11t11.5 -27t-11 -27
t-27 -11q-15 0 -26.5 11t-11.5 27zM454 776q0 16 11 27t27 11q15 0 26.5 -11t11.5 -27t-11 -27t-27 -11q-15 0 -26.5 11t-11.5 27z" />
    <glyph glyph-name="Wgrave" unicode="&#x1e80;" horiz-adv-x="863" 
d="M32 622q0 16 11.5 27t26.5 11q16 0 27 -11t11 -27v-406q0 -33 11 -62.5t31 -51t48 -34.5t62 -13q33 0 59 13t43.5 34.5t26.5 51t9 62.5v406q0 16 11 27t27 11t27 -11t11 -27v-407q0 -33 9.5 -62t27 -50.5t43.5 -34.5t59 -13t61 13t48 34.5t31 51t11 62.5v406
q0 16 11.5 27t26.5 11q16 0 27 -11t11 -27v-406q0 -49 -17 -92t-47.5 -75.5t-72 -51t-90.5 -18.5q-60 0 -104 23.5t-73 62.5q-32 -38 -74.5 -62t-101.5 -24q-49 0 -91 18.5t-72.5 51t-47.5 75.5t-17 92v406zM355 774q-6 9 -6 20q0 15 11 26t28 11q21 0 32 -18l41 -71
q5 -9 5 -20q0 -15 -10.5 -26t-27.5 -11q-22 0 -32 18z" />
    <glyph glyph-name="kcommaaccent" unicode="&#x137;" horiz-adv-x="421" 
d="M33 622q0 16 11 27t27 11q15 0 26.5 -11t11.5 -27v-289l196 158q10 9 24 9t25.5 -10.5t11.5 -27.5q0 -18 -13 -30l-161 -130l202 -240q10 -10 10 -25q0 -14 -11 -25.5t-27 -11.5q-18 0 -30 13l-203 242l-24 -19v-198q0 -16 -11 -27t-27 -11q-15 0 -26.5 11t-11.5 27v584z
M172 -74q0 16 11 27t27 11q15 0 26.5 -11t11.5 -27v-82q0 -16 -11 -27t-27 -11q-15 0 -26.5 11t-11.5 27v82z" />
    <glyph glyph-name="imacron" unicode="&#x12b;" horiz-adv-x="142" 
d="M33 458q0 16 11 27t27 11q15 0 26.5 -11t11.5 -27v-420q0 -16 -11 -27t-27 -11q-15 0 -26.5 11t-11.5 27v420zM-33 551q-16 0 -27 11t-11 27q0 15 11 26.5t27 11.5h210q16 0 27 -11t11 -27q0 -15 -11 -26.5t-27 -11.5h-210z" />
    <glyph glyph-name="iogonek" unicode="&#x12f;" horiz-adv-x="142" 
d="M33 458q0 16 11 27t27 11q15 0 26.5 -11t11.5 -27v-420q0 -16 -11 -27t-27 -11q-15 0 -26.5 11t-11.5 27v420zM33 634q0 16 11 27t27 11q15 0 26.5 -11t11.5 -27v-29q0 -16 -11 -27t-27 -11q-15 0 -26.5 11t-11.5 27v29zM110 38q0 -17 -9 -31.5t-9 -23.5q0 -7 11.5 -9.5
t25 -5.5t24.5 -10t11 -23t-11 -27t-27 -11q-35 0 -58 4.5t-36.5 12t-18.5 18t-5 21.5q0 12 4 24t9 23.5t9 21t4 16.5v17h76v-17z" />
    <glyph glyph-name="itilde" unicode="&#x129;" horiz-adv-x="142" 
d="M33 458q0 16 11 27t27 11q15 0 26.5 -11t11.5 -27v-420q0 -16 -11 -27t-27 -11q-15 0 -26.5 11t-11.5 27v420zM-59 610q0 15 10.5 25t25 15.5t30.5 8t28 2.5q14 0 31 -6t39 -6q18 0 28.5 2t16.5 4t9.5 4t6.5 2q15 0 26.5 -11t11.5 -27q0 -15 -10.5 -24.5t-25 -15
t-30.5 -8t-27 -2.5q-25 0 -56 10q-5 1 -15 1q-18 0 -28.5 -1.5t-16.5 -4t-9 -4t-6 -1.5q-15 0 -27 11t-12 26z" />
    <glyph glyph-name="lacute" unicode="&#x13a;" horiz-adv-x="142" 
d="M33 622q0 16 11 27t27 11q15 0 26.5 -11t11.5 -27v-584q0 -16 -11 -27t-27 -11q-15 0 -26.5 11t-11.5 27v584zM86 804q10 18 32 18q17 0 27.5 -11t10.5 -26q0 -13 -5 -20l-41 -71q-11 -18 -32 -18q-17 0 -28 11t-11 26q0 9 6 20z" />
    <glyph glyph-name="lcaron" unicode="&#x13e;" horiz-adv-x="335" 
d="M33 622q0 16 11 27t27 11q15 0 26.5 -11t11.5 -27v-584q0 -16 -11 -27t-27 -11q-15 0 -26.5 11t-11.5 27v584zM200 634q0 16 11.5 27t26.5 11q16 0 27 -11t11 -27v-79q0 -14 -11.5 -26t-25.5 -12h-40q-16 0 -27 11.5t-11 26.5q0 16 11 27t27 11h1v41z" />
    <glyph glyph-name="lcommaaccent" unicode="&#x13c;" horiz-adv-x="142" 
d="M33 622q0 16 11 27t27 11q15 0 26.5 -11t11.5 -27v-584q0 -16 -11 -27t-27 -11q-15 0 -26.5 11t-11.5 27v584zM34 -124q0 16 11 27t27 11q15 0 26.5 -11t11.5 -27v-82q0 -16 -11 -27t-27 -11q-15 0 -26.5 11t-11.5 27v82z" />
    <glyph glyph-name="ldot" unicode="&#x140;" horiz-adv-x="298" 
d="M33 622q0 16 11 27t27 11q15 0 26.5 -11t11.5 -27v-584q0 -16 -11 -27t-27 -11q-15 0 -26.5 11t-11.5 27v584zM167 268q0 16 11 27t27 11q15 0 26.5 -11t11.5 -27t-11 -27t-27 -11q-15 0 -26.5 11t-11.5 27z" />
    <glyph glyph-name="hcircumflex" unicode="&#x125;" horiz-adv-x="437" 
d="M33 634q0 16 11 27t27 11q15 0 26.5 -11t11.5 -27v-168q22 16 49 25t56 9q37 0 70 -14t57.5 -38.5t39 -57.5t14.5 -70v-282q0 -16 -11.5 -27t-26.5 -11q-16 0 -27 11t-11 27v282q0 21 -8.5 40t-22.5 33.5t-33.5 22.5t-40.5 8q-22 0 -40.5 -8t-33 -21.5t-22.5 -31.5
t-9 -39v-286q0 -16 -11.5 -27t-26.5 -11q-16 0 -27 11t-11 27v289v307zM214 707q8 5 18 5q12 0 22 -7l66 -48q17 -12 17 -31q0 -16 -12.5 -27t-27.5 -11q-13 0 -21 7l-44 31l-43 -31q-10 -7 -21 -7q-16 0 -28 11t-12 27q0 19 17 31z" />
    <glyph glyph-name="hbar" unicode="&#x127;" horiz-adv-x="437" 
d="M33 634q0 16 11 27t27 11q15 0 26.5 -11t11.5 -27v-168q22 16 49 25t56 9q37 0 70 -14t57.5 -38.5t39 -57.5t14.5 -70v-282q0 -16 -11.5 -27t-26.5 -11q-16 0 -27 11t-11 27v282q0 21 -8.5 40t-22.5 33.5t-33.5 22.5t-40.5 8q-22 0 -40.5 -8t-33 -21.5t-22.5 -31.5
t-9 -39v-286q0 -16 -11.5 -27t-26.5 -11q-16 0 -27 11t-11 27v289v307zM25.7422 551.241q-10.2939 0 -17.3711 10.5654t-7.07715 25.9336q0 14.4082 7.07715 25.4541t17.3711 11.0459h135.107q10.2949 0 17.3711 -10.5664q7.07715 -10.5654 7.07715 -25.9336
q0 -14.4072 -7.07715 -25.4531q-7.07617 -11.0459 -17.3711 -11.0459h-135.107z" />
    <glyph glyph-name="dotlessj" unicode="&#x237;" horiz-adv-x="153" 
d="M44 458q0 16 11.5 27t26.5 11q16 0 27 -11t11 -27v-454q0 -37 -14.5 -70t-39 -57.5t-57.5 -38.5t-70 -14q-16 0 -27 11t-11 27t11 27t27 11q21 0 39.5 8t33 21.5t23 31.5t9.5 39v458z" />
    <glyph glyph-name="jcircumflex" unicode="&#x135;" horiz-adv-x="153" 
d="M44 458q0 16 11.5 27t26.5 11q16 0 27 -11t11 -27v-454q0 -37 -14.5 -70t-39 -57.5t-57.5 -38.5t-70 -14q-16 0 -27 11t-11 27t11 27t27 11q21 0 39.5 8t33 21.5t23 31.5t9.5 39v458zM59 658q8 5 18 5q12 0 22 -7l66 -48q17 -12 17 -31q0 -16 -12.5 -27t-27.5 -11
q-13 0 -21 7l-44 31l-43 -31q-10 -7 -21 -7q-16 0 -28 11t-12 27q0 19 17 31z" />
    <glyph glyph-name="Hbar" unicode="&#x126;" horiz-adv-x="557" 
d="M35 622q0 16 11.5 27t26.5 11q16 0 27 -11t11 -27v-264h325v264q0 16 11.5 27t26.5 11q16 0 27 -11t11 -27v-584q0 -16 -11.5 -27t-26.5 -11q-16 0 -27 11t-11 27v244h-325v-244q0 -16 -11.5 -27t-26.5 -11q-16 0 -27 11t-11 27v584zM173 484q-16 0 -27 11t-11 27
q0 15 11 26.5t27 11.5h210q16 0 27 -11t11 -27q0 -15 -11 -26.5t-27 -11.5h-210z" />
    <glyph glyph-name="Tbar" unicode="&#x166;" horiz-adv-x="515" 
d="M52 584q-16 0 -27 11t-11 27q0 15 11 26.5t27 11.5h401q16 0 27 -11t11 -27q0 -15 -11 -26.5t-27 -11.5h-163v-546q0 -16 -11 -27t-27 -11q-15 0 -26.5 11t-11.5 27v546h-162zM146 298q-16 0 -27 11t-11 27q0 15 11 26.5t27 11.5h210q16 0 27 -11t11 -27q0 -15 -11 -26.5
t-27 -11.5h-210z" />
    <glyph glyph-name="zero" unicode="0" horiz-adv-x="1630" 
d="M72 505q5 0 9 -2q4 -4 4 -9t-3 -8q-5 -3 -9 -3t-5 -3q-2 -1 -2 -6v-17q8 0 11 -3t3 -8t-3 -8q-2 -2 -11 -4v-35q0 -4 -2 -10q-2 -5 -5 -8q-3 -4 -7 -7q-6 -4 -9 -5q-2 0 -3.5 -0.5t-3.5 -0.5q-2 1 -3 1t-3 1q-3 1 -4 4q-2 1 -2 6t3 8t8 3q3 0 5 3q3 1 3 5v35q-8 0 -11 3
q-3 4 -3 9q0 3 3 8q3 3 11 3v18q0 3 0.5 5.5t1.5 5.5q2 4 6 10q4 4 10 7q6 2 11 2zM103 393q-5 0 -8 3t-3 8v33q0 8 3 16q2 4 4.5 7t4.5 6q7 5 14 8q7 4 16 4q5 0 8 -3q3 -4 4 -8q0 -5 -4 -8q-3 -4 -8 -4t-7 -1t-3.5 -2t-3.5 -2q-1 -2 -2 -3.5t-2 -3.5t-1 -7v-32
q-2 -6 -4 -8q-3 -3 -8 -3zM190 478q8 0 16 -3q4 -2 7.5 -4.5t6.5 -5.5q6 -6 9 -13q4 -10 4 -16q0 -5 -4 -7q-3 -3 -8 -3h-47q6 -10 16 -10q3 0 5 1q2 0 3 1q1 0 1.5 0.5t1.5 0.5t1.5 0.5t1.5 0.5q2 -1 3.5 -1t3.5 -2q3 -1 4 -4q1 -2 1 -7l-3 -6q-5 -4 -11 -5q-8 -2 -12 -2
q-9 0 -16 3q-4 2 -7.5 4.5t-6.5 5.5q-6 6 -9 13q-2 5 -3 8.5t-1 8.5q0 6 4 16q3 7 9 13t14 10q7 3 16 3zM206 446q-4 6 -7 7q-3 2 -9 2t-9 -2q-3 -1 -7 -7h32zM282 478q8 0 17 -3q7 -5 13 -10q5 -6 10 -13q3 -8 3 -16q0 -6 -3 -7q-5 -3 -9 -3h-46q4 -10 15 -10q4 0 5 1
q3 0 4 1q1 0 1.5 0.5t1.5 0.5t1.5 0.5t1.5 0.5q5 -2 6 -3q4 -2 4 -4q2 -4 1 -7q0 -3 -3 -6q-6 -4 -10 -5q-8 -2 -13 -2q-7 0 -16 3q-8 4 -13 10q-6 5 -10 13q-3 9 -3 17t3 16q4 7 10 13q5 5 13 10q7 3 16 3zM298 446q-4 6 -7 7q-2 2 -9 2q-6 0 -9 -2q-2 -1 -6 -7h31z
M419 505q5 0 9 -2q2 -2 4 -9q0 -5 -4 -8q-3 -3 -8 -3q-4 0 -5 -3q-3 -2 -3 -6v-17q9 0 12 -3t3 -8t-3 -8q-2 -2 -12 -4v-35q0 -7 -1 -10q-2 -5 -5 -8q-3 -4 -7 -7q-6 -4 -9 -5q-2 0 -3.5 -0.5t-3.5 -0.5q-2 1 -3 1t-3 1t-5 4q-2 2 -2 6q0 5 4 8q3 3 7 3t6 3q3 1 3 5v35
q-10 0 -11 3q-3 4 -4 9q0 3 3 8q3 3 12 3v18q0 7 2 11q1 3 2.5 5.5t3.5 4.5q4 4 10 7q6 2 11 2zM479 478q8 0 16 -3t14 -9q2 -3 4.5 -6t4.5 -8q3 -8 3 -16q0 -10 -3 -17t-9 -13q-7 -7 -14 -9q-4 -2 -7.5 -3t-8.5 -1q-7 0 -17 4q-5 2 -13 8q-6 6 -9 14q-4 7 -4 17q0 9 4 16
q3 8 8 13q3 3 6.5 5.5t7.5 4.5q7 3 17 3zM479 455q-5 0 -8 -1q-2 -1 -3 -2t-3 -2q-2 -2 -4 -6q-2 -6 -2 -8q0 -4 2 -8t4 -6t3 -2.5t3 -2.5q3 -1 8 -1t7 1q6 4 7 5q1 2 2 3t2 3t1 8q0 8 -5 13q-6 6 -14 6zM541 393q-4 0 -8 3q-3 3 -3 8v33q0 9 4 16q3 7 9 13q5 5 13 8
q7 4 16 4q5 0 8 -3q4 -6 4 -8q0 -5 -3 -8q-4 -4 -9 -4t-7 -1q-3 -1 -6 -4q-1 -1 -5 -7q-1 -2 -1 -7v-32q0 -5 -4 -8q-3 -3 -8 -3zM673 478q8 0 16 -3q9 -4 13 -9q3 -3 5.5 -6.5t4.5 -7.5q3 -8 3 -16q0 -10 -3 -17t-9 -13q-7 -7 -14 -9q-7 -4 -16 -4q-10 0 -20 5v-21
q0 -4 -3 -7q-4 -4 -9 -4q-4 0 -7 3q-4 3 -4 8v59q0 8 3 16q2 4 4.5 7.5t5.5 6.5q3 2 6 4.5t7 4.5q7 3 17 3zM653 436q0 -4 2 -8q2 -5 4 -6q4 -4 6 -5q3 -1 8 -1t7 1q5 3 6 5q4 4 5 6t1 8q0 5 -1 7q-2 2 -2.5 3.5t-2.5 3.5q-3 3 -6 4q-2 1 -7 1q-6 0 -8 -1q-4 -1 -6 -5
q-4 -2 -5 -6q-1 -2 -1 -7zM764 478q8 0 16 -3q7 -5 13 -10q5 -6 10 -13q3 -8 3 -16q0 -6 -3 -7q-3 -3 -9 -3h-46q6 -10 16 -10q3 0 4 1q3 0 4 1q1 0 1.5 0.5t1.5 0.5t1.5 0.5t1.5 0.5q6 -2 7 -3t2 -1.5t2 -2.5t1 -7q-2 -4 -4 -6q-6 -4 -10 -5q-8 -2 -12 -2q-9 0 -16 3
q-8 4 -14 10t-9 13q-4 8 -4 17t4 16q3 7 9 13q5 5 13 10q7 3 17 3zM780 446q-4 5 -7 7t-9 2q-7 0 -9 -2q-3 -1 -7 -7h32zM826 393q-5 0 -8 3q-4 4 -4 8v33q0 9 4 16q3 7 9 13q8 6 13 8q7 4 16 4q4 0 9 -3q3 -5 3 -8q0 -5 -3 -8q-3 -4 -8 -4q-6 0 -8 -1t-3 -2t-3 -2
q-3 -3 -4 -7q-2 -4 -2 -7v-32q0 -5 -3 -8t-8 -3zM932 478q5 0 8 -3t3 -8q0 -4 -4 -8q-3 -3 -7 -3h-30q-2 0 -2.5 -0.5t-1.5 -0.5q-1 -1 -1 -4t1 -4t4 -1h19q3 0 5.5 -0.5t5.5 -1.5q2 -2 4 -3t4 -3t3 -4l2 -4q2 -6 2 -10q0 -3 -0.5 -5.5t-1.5 -5.5q-4 -6 -6 -8t-9 -6
q-6 -2 -11 -2h-32q-5 0 -8 3q-3 4 -3 8q0 5 3 8q3 4 8 4h32q5 0 5 4q0 5 -5 5h-19q-4 0 -10 2q-6 4 -8 6t-3 4.5t-3 4.5q-2 6 -2 9t0.5 5.5t1.5 5.5q4 6 6 8q3 4 8 6q3 2 11 2h31zM998 478q9 0 17 -3q7 -3 13 -9q6 -7 9 -14q4 -7 4 -16q0 -10 -3 -17q-5 -8 -10 -13
q-4 -5 -13 -9q-10 -4 -17 -4q-6 0 -16 4q-7 3 -14 8q-2 3 -4.5 6.5t-4.5 7.5q-3 7 -3 17q0 8 3 16q4 9 9 13q6 6 14 10q7 3 16 3zM998 455q-5 0 -7 -1q-4 -2 -6 -4q-4 -4 -5 -6q-1 -3 -1 -8q0 -6 1 -8t5 -6q1 -2 2.5 -2.5t3.5 -2.5q2 -1 7 -1q6 0 8 1q2 2 3.5 2.5t2.5 2.5
q2 2 4 6q2 2 2 8q0 8 -6 13q-5 6 -14 6zM1093 479q8 0 16 -3q9 -4 13 -9q5 -6 10 -13q3 -8 3 -16v-33q0 -4 -3 -8q-3 -3 -8 -3t-8 3q-4 4 -4 8v31q0 5 -1 8q-2 4 -4 6q-3 2 -7 4t-7 2q-2 0 -8 -2q-4 -2 -6 -4q-2 -1 -4 -6q-2 -4 -2 -7v-32q0 -4 -3 -8q-5 -3 -8 -3q-5 0 -8 3
q-4 3 -4 8v31q0 10 4 17q3 7 9 13q4 5 13 9q7 4 17 4zM1192 478q4 -1 7.5 -2t7.5 -3q7 -3 12 -9q6 -8 8 -13q3 -8 3 -15v-31q0 -5 -4 -8q-3 -4 -8 -4q-6 0 -10 6l-1 -1q-1 0 -1 -1l-9 -3q-2 0 -4.5 -0.5t-5.5 -0.5q-11 0 -23 7q-10 7 -16 19q-2 4 -2 8q-1 3 -1 9t1 8
q0 3 2 9q6 11 16 18t23 7h3h2zM1187 416q2 0 8 2q4 2 6 4q1 1 4 6q2 4 2 8q0 3 -2 7q-2 5 -4 6q-4 4 -6 5q-3 1 -8 1t-7 -1q-3 -1 -7 -5q-3 -3 -4 -6q-1 -2 -1 -7q0 -6 1 -8t5 -6q1 -1 6 -4q4 -2 7 -2zM1252 505q5 0 8 -4q3 -3 3 -8v-69q0 -3 3 -6q1 -2 5 -2t8 -4q4 -3 4 -8
q0 -4 -3 -7t-7 -4h-3q-7 0 -11 3q-3 1 -5.5 2.5t-4.5 3.5q-5 5 -6 10q-3 6 -3 12v70q1 4 4 7q3 4 8 4zM1341 478q3 0 8 -3q3 -3 3 -8v-31q0 -4 2 -8t4 -6t6 -4q6 -2 8 -2t3.5 0.5t3.5 0.5q3 1 6 4q4 4 5 6q1 3 1 8v32q0 4 4 8q3 3 8 3t8 -3q2 -2 4 -8v-31q0 -7 -4 -17
q-3 -7 -9 -13t-13 -9q-8 -4 -17 -4t-16 3q-8 3 -14 9t-9 13q-4 8 -4 16v33q0 4 4 8q3 3 8 3zM1482 478q5 0 8 -3t3 -8q0 -4 -3 -8q-5 -3 -8 -3h-30q-2 0 -2.5 -0.5t-1.5 -0.5q-1 -1 -1 -4t1 -4t4 -1h20q4 0 10 -2q6 -4 8 -6t3 -4l2 -4q2 -6 2 -10q0 -7 -2 -11q-2 -5 -6 -8
q-2 -2 -4 -3t-4 -3q-3 -1 -5.5 -1.5t-5.5 -0.5h-33q-4 0 -8 3q-3 4 -3 8q0 5 3 8q3 4 8 4h32q5 0 5 4q0 5 -5 5h-19q-4 0 -10 2q-6 4 -8 6q-4 6 -5 9q-2 3 -2 9q0 7 2 11q1 4 5 8q5 5 8 6q4 2 11 2h31zM1549 478q8 0 16 -3q7 -5 13 -10q5 -6 10 -13q3 -8 3 -16q0 -6 -3 -7
q-3 -3 -9 -3h-46q6 -10 16 -10q3 0 4 1q3 0 4 1q1 0 1.5 0.5t1.5 0.5t1.5 0.5t1.5 0.5q6 -2 7 -3t2 -1.5t2 -2.5t1 -7q-2 -4 -4 -6q-6 -4 -10 -5q-8 -2 -12 -2q-9 0 -16 3q-8 4 -14 10t-9 13q-4 8 -4 17t4 16q3 7 9 13q5 5 13 10q7 3 17 3zM1565 446q-4 5 -7 7t-9 2
q-7 0 -9 -2q-3 -1 -7 -7h32zM325 335q4 0 6 -2q3 -2 3 -6q0 -2 -2 -6l-6 -3q-4 0 -5 -1q-1 -2 -1 -5v-13q5 0 8 -3q2 -1 2 -6q0 -4 -2 -6t-8 -2v-27q0 -3 -2 -7q-1 -3 -3 -7q-3 -3 -6 -5q-4 -2 -7 -3q-1 -1 -5 -1q-3 0 -4 1q-2 1 -4 3q-1 1 -1 5q0 2 2 6q4 2 6 2q1 0 5 2
q1 1 1 4v27q-6 0 -8 2q-2 4 -2 6q0 5 2 6q1 3 8 3v13q0 3 2 9q1 3 5 7q2 2 7 6q3 1 9 1zM370 315q4 0 12 -2q6 -3 10 -7q3 -3 7 -11q3 -5 3 -12t-3 -13q-2 -5 -7 -10q-2 -3 -10 -7q-8 -2 -12 -2q-5 0 -13 2q-6 3 -10 7t-7 10q-2 4 -2 13q0 8 2 12q3 6 7 10t10 7t13 3z
M370 298q-2 0 -3 -0.5t-3 -0.5q-2 -1 -5 -4q-2 -2 -3 -4t-1 -6t1 -6t1.5 -2.5t1.5 -2.5q2 -1 2.5 -1.5t2.5 -1.5t6 -1t5 1q4 2 5 3q1 2 2 2.5t1 2.5q2 4 2 6q-2 7 -5 10q-5 5 -10 5zM417 251q-4 0 -6 2t-2 3t-1 3v25q0 6 3 12q2 2 3.5 4.5t3.5 4.5q4 4 10 7t12 3q4 0 6 -3
q3 -2 3 -6q0 -2 -2 -6q-4 -2 -7 -2q-1 0 -5 -2q-4 0 -5 -3q-1 -1 -1.5 -2t-1.5 -2q-1 -2 -1 -6v-24q0 -5 -3 -6q-1 -2 -6 -2zM515 315q14 0 23 -9q2 -4 2 -6q0 -5 -3 -6q-1 -2 -6 -2q-4 0 -6 2q-6 4 -10 4q-2 0 -6 -2q-1 0 -4 -3q-2 -1 -4 -5q0 -1 -0.5 -2t-0.5 -3t0.5 -3
t0.5 -3q1 -2 4 -5q1 -1 2 -1.5t2 -1.5q2 -1 6 -1q6 0 10 4q4 2 6 2q4 0 6 -2t2 -3t0.5 -1.5t0.5 -1.5q0 -2 -1 -3q0 -1 -0.5 -1.5t-0.5 -1.5q-2 -2 -5 -3.5t-5 -3.5q-8 -2 -13 -2q-4 0 -12 2q-8 4 -10 7q-6 6 -7 11q-3 4 -3 12q0 6 3 12q1 4 7 10q4 4 10 7t12 3zM579 315
q4 0 12 -2q6 -3 10 -7q3 -3 7 -11q3 -5 3 -12t-3 -13q-2 -2 -3.5 -5t-3.5 -5q-4 -4 -10 -7q-8 -2 -12 -2q-5 0 -13 2q-6 3 -10 7t-7 10t-3 13q0 6 3 12t7 10t10 7t13 3zM579 298q-2 0 -3 -0.5t-3 -0.5q-2 -1 -5 -4q-2 -2 -3 -4t-1 -6t1 -6t1.5 -2.5t1.5 -2.5q2 -1 2.5 -1.5
t2.5 -1.5t6 -1q3 0 5 1q4 2 5 3q1 2 1.5 2.5t1.5 2.5t1 6q0 6 -4 10q-5 5 -10 5zM642 315q2 0 4 -0.5t4 -0.5q4 -2 6 -4q8 5 15 5q3 0 9 -2q4 -2 8 -5q4 -4 5 -7q2 -6 2 -9v-33q0 -3 -3 -6q-4 -2 -6 -2t-6 2q-2 2 -2 6v33q0 2 -2 4t-5 2q-2 0 -4 -2t-2 -4v-33q0 -2 -2 -6
q-4 -2 -7 -2t-5 2q-3 3 -3 6v33q0 2 -2 4t-4 2q-1 0 -5 -2q-1 -1 -1 -5v-32l-1.5 -3l-1.5 -3q-4 -2 -6 -2h-4l-2 2q-2 2 -2 3q-1 1 -1 3v33q0 3 2 9q1 3 5 7q3 3 8 5q4 2 9 2zM727 315q2 0 4 -0.5t4 -0.5q4 -2 7 -4q7 5 15 5q3 0 9 -2q3 -1 7 -5t5 -7q2 -3 2 -9v-33
q0 -4 -2 -6q-4 -2 -6 -2q-4 0 -6 2q-3 3 -3 6v33q0 2 -2 4t-4 2t-4 -2q-2 -1 -2 -4v-33q0 -3 -3 -6q-4 -2 -6 -2t-6 2q-3 3 -3 6v33q0 3 -2 4q-2 2 -4 2t-4 -2t-2 -5v-32q0 -3 -3 -6q-2 -2 -6 -2h-3q-1 1 -1.5 1t-1.5 1t-1 1.5t-1 1.5v3v33q0 6 2 9q2 5 5 7q4 4 7 5q6 2 9 2
zM820 315q6 0 12 -3q8 -4 10 -7q6 -6 8 -10q2 -8 2 -12q0 -2 -2 -6q-4 -2 -7 -1h-35q5 -8 12 -8h4q1 1 2 1l2 1q1 1 3 1q1 0 5 -2q2 -2 3 -4q1 -1 1 -4q-2 -5 -3 -5q-2 -2 -8 -4q-3 -1 -9 -1q-8 0 -12 2q-6 3 -10 7q-6 6 -7 11q-3 4 -3 12q0 6 3 12q1 3 2.5 5.5t3.5 4.5
q3 3 11 7q6 3 12 3zM832 290q-1 4 -5 6t-7 2t-7 -2t-5 -6h24zM867 251q-5 0 -6 2q-3 3 -3 6v25q0 6 3 12q2 2 3.5 4.5t3.5 4.5q4 4 10 7t12 3q4 0 6 -3q3 -2 3 -6q0 -3 -3 -6q-2 -2 -6 -2q-3 0 -5 -2q-4 0 -5 -3q-1 -1 -1.5 -2t-1.5 -2q-1 -2 -1 -6v-24q-2 -5 -3 -6
q-2 -2 -6 -2zM932 315q14 0 23 -9q2 -4 2 -6q0 -5 -3 -6q-1 -2 -6 -2q-4 0 -6 2q-6 4 -10 4q-3 0 -5 -2q-2 0 -5 -3q-3 -2 -3 -5q-2 -2 -2 -5q0 -2 2 -6q0 -2 1 -2.5t2 -2.5q1 -1 5 -3q1 -1 5 -1q7 0 10 4q4 2 6 2q4 0 6 -2t2 -3q1 -1 1 -3v-3q-1 -1 -1 -1.5t-1 -1.5
q-2 -2 -5 -3.5t-5 -3.5q-8 -2 -13 -2q-4 0 -12 2q-6 3 -10 7q-3 3 -7 11q-3 4 -3 12q0 6 3 12t7 10t10 7t12 3zM974 335q3 0 6 -3q2 -4 2 -6t-2 -6q-2 -2 -6 -2q-5 0 -7 2q-2 4 -2 7t3 5q1 3 6 3zM974 315q3 0 5 -3q3 -3 3 -6v-47q0 -2 -2 -6q-2 -2 -3 -2t-3 -1q-4 0 -6 2
q-3 3 -3 6v48q0 4 3 6q1 1 6 3zM1026 315q6 -2 11 -4q6 -4 9 -7q4 -6 6 -10q2 -6 2 -11v-24q0 -3 -3 -6q-2 -2 -6 -2t-7 4q-1 0 -1 -1h-1q-4 -2 -7 -2q-2 -1 -7 -1q-10 0 -18 5q-8 7 -12 14q0 2 -2 6v7v6q2 6 2 7q5 8 12 14q8 5 18 5h2h2zM1022 268q4 0 5 1q4 2 5 3q3 3 3 5
q2 4 2 6q0 3 -2 5q0 3 -3 5q-2 3 -5 3q-2 2 -5 2q-2 0 -6 -2q-2 0 -5 -3q-1 -1 -3 -5q-1 -1 -1 -5t1 -6t4 -5q1 -1 2 -1.5t2 -1.5q2 -1 6 -1zM1071 335q2 0 6 -2q2 -4 2 -7v-52q0 -1 2 -5q1 -1 4 -1q4 0 7 -3q2 -2 2 -6q0 -3 -2 -5q-2 -3 -6 -3h-1q-6 0 -9 2q-3 1 -7 5t-5 7
q-2 3 -2 9v53q0 3 3 6q2 2 6 2zM1138 315q3 0 6 -3q3 -2 3 -6v-23q0 -4 1 -6t1.5 -2.5t1.5 -2.5q1 -1 5 -3q1 -1 5 -1t6 1t2.5 1.5t2.5 1.5q1 1 1.5 2t1.5 2q1 2 1 6v24q0 3 3 6q1 3 6 3q3 0 6 -3q3 -2 3 -5v-24q0 -7 -3 -13t-7 -10t-10 -7q-8 -2 -13 -2q-8 0 -12 2
q-6 3 -10 7t-7 10t-3 12v24q0 4 3 6q1 3 6 3zM1245 315q3 0 6 -3q2 -2 2 -5q0 -5 -3 -6q-2 -3 -5 -3h-23q-2 0 -3 -1q-1 0 -1 -2q0 -3 1 -3q1 -1 3 -1h15q3 0 7 -2q3 -1 7 -5q1 -2 2 -3t2 -3t1 -7t-1 -8q-2 -2 -2.5 -3.5t-2.5 -3.5q-2 -1 -3 -2t-3 -2q-3 -1 -9 -1h-24
q-2 0 -6 2q-3 3 -3 6t3 6q1 3 6 3h24q4 0 4 3q0 4 -4 4h-15q-5 0 -7 1q-2 2 -3 2.5t-3 2.5t-4 6q-2 6 -2 8q0 3 2 7q1 4 4 7q2 2 6 4q6 2 8 2h24zM1295 315q6 0 12 -3q8 -4 10 -7q6 -6 8 -10q2 -8 2 -12q0 -2 -2 -6q-4 -2 -7 -1h-35q5 -8 12 -8h4q1 1 2 1l2 1q1 1 3 1
q1 0 5 -2q2 -2 3 -4q1 -1 1 -4q-2 -5 -3 -5q-2 -2 -8 -4q-3 -1 -9 -1q-8 0 -12 2q-6 3 -10 7q-6 6 -7 11q-3 4 -3 12q0 6 3 12q1 3 2.5 5.5t3.5 4.5q3 3 11 7q6 3 12 3zM1307 290q-1 4 -5 6t-7 2t-7 -2t-5 -6h24zM397 128h-4q-5 -2 -6 -3q-3 -3 -7 -3q-3 0 -6 3q-2 1 -3 6
q0 3 3 6q2 4 11 7q2 1 8 1h9q2 0 4 2q2 3 2 8q-4 -2 -6 -2q-3 -1 -9 -1q-9 0 -13 2q-8 4 -10 7q-4 4 -7 10q-2 4 -2 13q0 8 2 12q3 6 7 10q5 5 10 7q6 3 13 3q6 0 12 -3q4 -1 10 -7q3 -2 7 -10q3 -6 3 -12q0 -8 -4 -16q2 -3 3 -7t1 -10q0 -2 -2 -8q-2 -5 -5 -8q-4 -4 -7 -5
q-3 -2 -9 -2h-4h-1zM393 199q-2 0 -6 -2q-2 0 -2.5 -1t-2.5 -2q-1 -1 -3 -5q-1 -1 -1 -5t1 -6t1.5 -2.5t1.5 -2.5q1 -1 5 -3q2 -1 6 -1t6 1q1 1 2 1.5t2 1.5q3 3 3 5q2 4 2 6t-2 6q-1 1 -1.5 2t-1.5 2q-2 3 -5 3q-4 2 -5 2zM463 216q7 0 13 -3q2 -2 5 -3.5t5 -3.5
q4 -4 7 -10t3 -12q0 -3 -3 -6q-4 -2 -6 -2h-36q4 -7 12 -7h4q1 1 3 1q0 1 2 1q1 0 1 0.5t1 0.5q2 -1 3 -1t2 -1q3 -2 3 -4q1 -1 1 -4t-2 -5q-4 -3 -8 -4q-3 -1 -10 -1q-8 0 -12 2q-6 3 -10 7t-7 10t-3 13q0 6 3 12t7 10t10 7t12 3zM475 191q-1 4 -5 6t-7 2q-2 0 -6 -2
q-3 -2 -6 -6h24zM511 236q5 0 6 -2q3 -3 3 -7v-10h23q4 0 6 -3q3 -3 3 -6t-3 -6t-6 -3h-23v-15q0 -4 1 -5q2 -4 3 -5q3 -3 5 -3q4 -2 6 -2t3 0.5t3 0.5q1 1 2 1.5t2 1.5q2 2 6 2q4 1 7 -2q0 -1 2 -3v-3v-3q0 -1 -2 -3q-4 -4 -10 -7q-4 -2 -12 -2q-9 0 -13 2q-8 4 -11 7
q-4 4 -7 10t-3 13v44q0 3 3 6q2 2 6 2zM630 216q8 -2 11 -4q6 -3 9 -7q5 -5 6 -10q3 -5 3 -11v-24q0 -3 -3 -6q-4 -2 -6 -2q-6 0 -7 4q-1 0 -2 -1h-1l-6 -3h-7q-12 0 -18 5q-8 7 -12 14q-1 2 -1 3t-1 3q0 2 -0.5 3.5t-0.5 3.5t0.5 3t0.5 3q1 2 1 3.5t1 3.5q5 8 12 14
q8 5 18 5h1h2zM626 169q4 0 6 1q4 2 5 3t3 5q1 2 1 6t-1 5q-2 4 -3 5q-3 3 -5 3q-4 2 -6 2q-1 0 -5 -2q-4 0 -5 -3q-1 -1 -3 -5q-1 -1 -1 -5t1 -6t1.5 -2.5t1.5 -2.5q2 -1 2.5 -1.5t2.5 -1.5t5 -1zM705 236q4 0 6 -3q3 -2 3 -6v-52q0 -3 2 -5q1 -1 4 -1t6 -3q3 -2 3 -6
q0 -3 -2 -5q-3 -3 -6 -3h-2q-6 0 -9 1q-2 2 -3.5 3t-3.5 3q-4 4 -5 7q-2 6 -2 9v53q2 4 3 5q3 3 6 3zM743 236q3 0 6 -3q2 -2 2 -6t-2 -6q-3 -3 -6 -3q-2 1 -3.5 1t-2.5 2q-3 1 -3 6q0 4 3 6q3 3 6 3zM743 215q4 0 6 -2q2 -4 2 -6v-47q0 -4 -2 -6q-2 -3 -6 -3q-2 0 -6 2
l-3 6v48q1 4 3 6t6 2zM791 216q14 0 23 -9q2 -4 2 -6q0 -5 -3 -6q-1 -2 -6 -2q-3 -1 -6 2q-6 4 -10 4q-2 0 -6 -2q-1 0 -4 -3q-2 -1 -4 -5q0 -1 -0.5 -2t-0.5 -3t0.5 -3t0.5 -3q1 -2 4 -5q1 -1 5 -3q1 -1 5 -1q5 0 10 3q3 3 6 3q4 0 6 -3q2 0 2 -2q1 -1 1 -3t-1 -3
q0 -1 -0.5 -1.5t-0.5 -1.5q-2 -2 -5 -3.5t-5 -3.5q-4 -2 -13 -2q-4 0 -12 2q-6 3 -10 7q-6 5 -7 10q-3 6 -3 13q0 6 3 12q1 4 7 10q4 4 10 7t12 3zM855 216q6 0 12 -3t10 -7t7 -10t3 -12q0 -3 -3 -6q-2 -2 -6 -2h-35q3 -7 12 -7h3q1 1 3 1q1 1 2 1t1.5 0.5t1.5 0.5
q1 -1 2 -1t2 -1q3 -2 3 -4q1 -1 1 -4t-2 -5q-4 -3 -8 -4q-3 -1 -9 -1q-9 0 -13 2q-2 2 -5 3.5t-5 3.5q-4 4 -7 10q-2 3 -2 6.5v6.5q0 8 2 12q3 6 7 10t10 7t13 3zM867 191q-3 4 -6 6q-4 2 -6 2q-3 0 -7 -2t-5 -6h24zM925 216q5 0 13 -2q2 -2 5 -3.5t5 -3.5t3.5 -4.5
t3.5 -4.5q2 -4 2 -13v-24q0 -5 -2 -6q-3 -3 -6 -3q-2 0 -6 2q-3 3 -3 6v24q0 4 -1 6t-1.5 2.5t-1.5 2.5q-1 1 -5 3q-2 1 -6 1t-5 -1q-4 -2 -5 -3t-3 -5q-1 -1 -1 -5v-24q0 -5 -3 -6q-3 -3 -6 -3q-2 0 -6 2q-3 3 -3 6v24q0 7 3 13q1 4 7 10q2 3 10 7q8 2 12 2zM1009 216
q3 0 6 -3q2 -2 2 -5q0 -5 -3 -6q-2 -3 -5 -3h-23q-2 0 -3 -1t-1 -3t1 -2q1 -1 3 -1h15q3 0 7 -2q3 -1 7 -5q1 -2 2 -3t2 -3t1 -7q0 -6 -2 -8q-2 -5 -4 -7q-2 -1 -3 -2t-3 -2q-3 -1 -9 -1h-24q-4 0 -6 2q-3 3 -3 6t3 6q1 3 6 3h24q4 0 4 3q0 4 -4 4h-15q-5 0 -7 1q-5 2 -6 5
q-2 2 -4 6q-2 6 -2 8q0 3 2 7q1 4 4 7q2 2 6 4q6 2 8 2h24zM1059 216q6 0 12 -3t10 -7q6 -6 8 -10q2 -8 2 -12q0 -2 -2 -6q-4 -2 -7 -2h-35q4 -7 12 -7h4q1 1 2 1l2 1q1 0 1.5 0.5t1.5 0.5q2 -1 2.5 -1t2.5 -1q2 -2 3 -4q1 -1 1 -4q-2 -5 -3 -5q-2 -2 -8 -4q-3 -1 -9 -1
q-8 0 -12 2q-8 4 -10 7q-6 6 -8 10q-2 8 -2 13q0 4 2 12q2 3 3.5 5.5t3.5 4.5q3 3 11 7q6 3 12 3zM1071 191q-1 4 -5 6t-7 2t-7 -2t-5 -6h24zM1163 216q6 -2 11 -4q6 -4 9 -7q4 -6 6 -10q2 -6 2 -11v-24q0 -3 -3 -6q-2 -2 -6 -2t-7 4q-1 0 -1 -1h-1q-2 -1 -3.5 -1.5
t-3.5 -1.5h-7q-12 0 -18 5q-8 7 -12 14q0 2 -2 6v7v6q2 6 2 7q5 8 12 14q8 5 18 5h2h2zM1159 169q4 0 6 1q1 1 2 1.5t2 1.5q3 1 3 5q2 4 2 6q0 3 -2 5q0 3 -3 5q-2 3 -5 3q-2 2 -5 2q-2 0 -6 -2q-2 0 -5 -3q-1 -1 -3 -5q-1 -1 -1 -5t1 -6t4 -5q1 -1 2 -1.5t2 -1.5q2 -1 6 -1
zM1208 236q4 0 6 -2q3 -3 3 -7v-10h23q3 0 6 -3q2 -4 2 -6t-2 -6q-3 -3 -6 -3h-23v-15q0 -4 1 -5q2 -4 3 -5q1 -3 5 -3q4 -2 6 -2t3 0.5t3 0.5q1 1 2 1.5t2 1.5q2 2 6 2q3 1 6 -2q2 -2 2 -3q1 -1 1 -3v-3q-1 -1 -1 -1.5t-1 -1.5q-2 -2 -5 -3.5t-5 -3.5q-4 -2 -12 -2
q-9 0 -13 2q-8 4 -11 7q-6 6 -7 10q-3 6 -3 13v44q0 3 3 6q1 2 6 2zM380 614q0 2 1 3t3 1t2 -1q1 -1 1 -3v-15h27q3 0 4 -1q0 -1 0.5 -1.5t0.5 -1.5l-1 -2q-1 -1 -4 -1h-27v-23q0 -4 2 -8q1 -3 5 -7t7 -5q4 -2 8 -2q3 0 9 2q2 1 3.5 1.5t3.5 2.5q0 2 2 2t3 -1t1 -3v-2
q-4 -4 -10 -7q-4 -2 -12 -2t-11 2q-3 1 -5.5 2.5t-4.5 3.5q-4 6 -6 10q-2 6 -2 11v45zM444 614q0 2 1 3t2 1q2 0 3 -1t1 -3v-25q5 5 9 7q4 3 12 3q5 0 11 -2q6 -3 9 -6q5 -5 6 -10q2 -6 2 -11v-27q0 -2 -1 -2q-1 -1 -3 -1t-2 1q-1 0 -1 2v27q0 3 -2 9q-2 4 -4 6q-4 4 -7 5
q-2 1 -8 1t-8 -1q-3 -1 -7 -5q-3 -3 -4 -7q-2 -4 -2 -8v-27q0 -2 -1 -2q-1 -1 -3 -1q-1 0 -2 1q-1 0 -1 2v71zM512 613q0 1 2 3t3 2q2 0 4 -2q1 -1 1 -3q0 -3 -1 -4t-4 -1q-2 0 -3 1q-2 2 -2 4zM514 595q0 2 1 3q0 1 2 1t3 -1t1 -3v-52q0 -2 -1 -2q-1 -1 -3 -1t-2 1
q-1 0 -1 2v52zM536 543q0 2 1 3t3 1h26q4 0 6 3q3 1 3 6q0 3 -3 6q-2 3 -6 3h-14q-5 0 -7 1q-4 2 -5 4q-2 1 -4 5q-1 2 -1 7q0 4 1 6q2 4 4 6q3 3 5 4q2 0 3.5 0.5t3.5 0.5h25l2 -1q1 -1 1 -3t-1 -3t-2 -1h-25q-4 0 -7 -3t-3 -6q0 -4 3 -7t7 -3h14q5 0 7 -1t5 -4q1 -1 3 -5
t2 -6t-2 -6l-3 -6q-2 -1 -2.5 -1.5t-2.5 -1.5t-7 -1h-26q-2 0 -3 1q-1 0 -1 2zM620 614q0 2 1 3t3 1t2 -1q1 -1 1 -3v-15h27q3 0 4 -1q0 -1 0.5 -1.5t0.5 -1.5l-1 -2q-1 -1 -4 -1h-27v-23q0 -4 2 -8q1 -3 5 -7t7 -5q4 -2 8 -2q3 0 9 2q2 1 3.5 1.5t3.5 2.5q0 2 2 2t3 -1
t1 -3v-2q-4 -4 -10 -7q-4 -2 -12 -2t-11 2q-3 1 -5.5 2.5t-4.5 3.5q-4 6 -6 10q-2 6 -2 11v45zM684 595q0 2 1 3t2 1t1.5 -0.5t1.5 -0.5q1 -1 1 -3v-27q0 -4 2 -8q1 -5 4 -7q2 -3 7 -4q4 -2 8 -2t8 2q4 1 7 4q2 2 4 7q2 4 2 8v27q0 2 1 3t2 1t1.5 -0.5t1.5 -0.5q1 -1 1 -3
v-27q0 -4 -2 -10q-1 -5 -5 -9q-3 -4 -8 -6q-5 -3 -9 -3v-15q0 -1 -2 -3q0 -1 -2 -1t-3 1t-1 3v15q-6 0 -10 3q-2 1 -4 2.5t-4 3.5t-2.5 4.5t-2.5 4.5q-1 3 -1 10v27zM752 595q0 1 0.5 1.5t0.5 1.5q1 0 1.5 0.5t1.5 0.5t1.5 -0.5t1.5 -0.5q1 -1 1 -3v-6q4 4 10 7q4 3 12 3
q6 0 11 -3q5 -1 10 -6l6 -9q2 -4 2 -12t-2 -11q-3 -6 -7 -10q-3 -3 -9 -6q-3 -2 -11 -2q-5 0 -7 1q-2 0 -6 2t-6 4t-3 4v-27q0 -2 -1 -2q-1 -1 -3 -1t-3 1t-1 2v71zM760 569q0 -6 2 -8q1 -5 4 -7q2 -2 3.5 -3t3.5 -2q6 -2 9 -2q4 0 8 2q3 1 7 5t5 7q2 4 2 8q0 3 -2 9
q-2 4 -5 7q-3 2 -7 4q-2 2 -8 2t-9 -1q-2 -2 -3 -2.5t-3 -2.5q-4 -4 -5 -7q-2 -4 -2 -8v-1zM831 566q1 -2 1.5 -4t1.5 -4q2 -3 5 -5q2 -2 6 -4q6 -2 8 -2q4 0 8 2q3 1 7 5q1 0 1.5 0.5t1.5 0.5t1.5 -0.5t1.5 -0.5q1 -1 1 -3t-1 -3q-5 -5 -9 -6q-4 -2 -12 -2q-5 0 -11 2
q-3 1 -5.5 2.5t-4.5 3.5t-3.5 4.5t-2.5 4.5q-2 4 -2 12t2 12q1 4 6 9q4 4 9 6q6 3 12 3q5 0 11 -2q6 -3 10 -7q2 -2 3.5 -4.5t2.5 -4.5q3 -6 3 -12q0 -2 -2 -2q0 -1 -2 -1h-48zM875 573q-1 3 -3 7q-1 2 -2 3l-3 3t-6 4q-3 1 -8 1t-8 -1q-4 -2 -6 -4l-3 -3t-2 -3q-2 -4 -2 -7
h43zM904 602q0 4 1 6t1.5 2.5t1.5 2.5q2 1 2.5 2t2.5 1q4 2 7 2l2 -1q2 -2 2 -3t-2 -3q0 -1 -2 -1q-4 0 -6 -2q-3 -3 -3 -6v-22h9l2 -2q1 0 1 -2t-1 -3t-2 -1h-9v-29q0 -2 -1 -2q-1 -1 -3 -1t-2 1q-1 0 -1 2v29h-5q-2 0 -3 1t-1 3t1 2q2 2 3 2h5v22zM987 551q-2 -4 -9 -8
q-6 -3 -13 -3q-8 0 -11 2q-5 1 -10 6l-6 9q-2 8 -2 12t2 12l6 9q5 5 10 6q4 3 11 3q6 0 12 -3q4 -2 9 -6q5 -5 6 -10q3 -5 3 -11v-26l-1 -2q-2 -2 -3 -2t-3 2q-1 1 -1 2v8zM987 569q0 6 -1 9q-2 2 -2.5 3.5t-2.5 3.5t-3.5 2.5t-3.5 1.5q-3 2 -9 2t-8 -2q-5 -2 -7 -4
q-3 -3 -5 -7q-2 -6 -2 -9q0 -4 2 -8q1 -3 5 -7t7 -5q4 -2 8 -2q3 0 9 2q2 1 6 5q3 1 5 6q2 6 2 9zM1052 585q-1 1 -7 5q-3 1 -8 1q-6 0 -9 -2q-5 -2 -7 -4q-3 -3 -5 -7q-1 -3 -1 -9t1 -8q1 -3 5 -7t7 -5q2 -1 4 -1.5t5 -0.5q2 0 8 2q3 1 7 5q1 0 1.5 0.5t1.5 0.5l2 -1
q1 -1 1 -3t-1 -3l-3 -3q-2 -2 -5 -2q-1 -1 -5 -3h-7q-8 0 -12 2q-6 2 -9 6q-3 3 -7 9q-2 8 -2 12q0 5 2 11q3 6 7 10q5 5 9 6q6 3 12 3q2 0 3.5 -0.5t3.5 -0.5q2 -1 2.5 -1t2.5 -1t2.5 -1.5t2.5 -1.5l3 -3q1 -1 1 -2q0 -2 -1 -3q0 -1 -2 -1t-3 1zM1076 566q1 -2 1.5 -4
t1.5 -4q2 -3 5 -5q2 -2 6 -4q6 -2 8 -2q4 0 8 2q3 1 7 5q1 0 1.5 0.5t1.5 0.5t1.5 -0.5t1.5 -0.5q0 -1 0.5 -1.5t0.5 -1.5t-0.5 -1.5t-0.5 -1.5q-5 -5 -9 -6q-4 -2 -12 -2q-4 0 -12 2q-2 1 -4.5 2.5t-4.5 3.5q-5 4 -6 9q-3 6 -3 12t3 12q1 4 6 9q4 4 9 6q6 3 12 3q5 0 11 -2
q6 -3 10 -7l6 -9q2 -4 2 -12q0 -2 -1 -2q-1 -1 -2 -1h-48zM1120 573q-1 3 -3 7q-1 2 -2 3l-3 3t-6 4q-3 1 -8 1t-8 -1q-4 -2 -6 -4l-3 -3t-2 -3q-2 -4 -3 -7h44zM1165 613q0 2 1 3q2 2 4 2q1 0 3 -2t2 -3q0 -2 -2 -4q-1 -1 -3 -1q-3 0 -4 1t-1 4zM1166 595q0 2 1 3t3 1t2 -1
q2 -2 2 -3v-52q0 -2 -2 -2q0 -1 -2 -1t-3 1q-1 0 -1 2v52zM1188 543q0 1 0.5 1.5t0.5 1.5q1 1 3 1h27q3 0 6 3q2 2 2 6q0 2 -2 6q-3 3 -6 3h-15q-4 0 -7 1q-2 1 -5 4q-2 1 -4 5q-1 2 -1 7q0 4 1 6q2 4 4 6q2 1 2.5 2t2.5 2q2 0 3.5 0.5t3.5 0.5h25q1 0 1.5 -0.5t1.5 -0.5
q0 -1 0.5 -1.5t0.5 -1.5t-0.5 -1.5t-0.5 -1.5q-1 0 -1.5 -0.5t-1.5 -0.5h-25q-4 0 -7 -3q-2 -4 -2 -6q0 -3 2 -7q3 -3 7 -3h15q4 0 6 -1q4 -2 5 -4q2 -1 4 -5q0 -2 0.5 -3t0.5 -3t-0.5 -3t-0.5 -3q-2 -4 -4 -6q-1 -1 -5 -3q-2 -1 -6 -1h-27q-2 0 -3 1t-1 2zM328 76q0 2 3 2
q2 0 3 -1q1 0 1 -2v-2l-22 -49l-1 -2l-2 -1q-2 0 -3 1t-1 2l-13 29l-13 -29q0 -2 -1 -2q-1 -1 -2 -1q-2 0 -2 1l-2 2l-21 49v2q0 2 1 2q0 1 2 1h2l2 -2l18 -41l18 41q1 2 4 2q2 0 2 -1q1 0 1 -2v-2l-5 -10l13 -28zM425 76q1 2 4 2q2 0 3 -1v-2v-2l-21 -49l-2 -2q0 -1 -2 -1
q-1 0 -2 1q-1 0 -1 2l-13 29l-13 -29l-1 -2q-1 -1 -3 -1q-1 0 -2 1t-1 2l-21 49q-1 1 -1 2l1 2q1 1 3 1h2q1 -1 1 -2l18 -41l19 41q0 2 3 2q2 0 3 -1t1 -2t-1 -2l-4 -10l12 -28zM523 76q1 2 3 2t3 -1q1 0 1 -2v-2l-22 -49l-1 -2l-2 -1q-2 0 -2 1q-2 0 -2 2l-13 29l-12 -29
l-2 -2q0 -1 -2 -1q-1 0 -2 1q-1 0 -1 2l-22 49v2q0 2 1 2q0 1 2 1h2l2 -2l18 -41l18 41q1 2 4 2q2 0 2 -1q1 0 1 -2v-2l-5 -10l13 -28zM542 26q0 2 1 3t4 1q2 0 3 -1q2 -2 2 -3q0 -2 -2 -4q-1 -1 -3 -1q-3 0 -4 1t-1 4zM567 71q-2 0 -2 1q-1 1 -1 3t1 2q0 1 2 1h47q1 0 2 -1
q1 0 1 -2t-1 -3l-40 -44h38q2 0 2 -1q1 -1 1 -3t-1 -2q0 -1 -2 -1h-47q-2 0 -3 1t-1 2t0.5 1.5t0.5 1.5l41 44h-38zM636 46q2 -6 3 -7q2 -4 4 -6q4 -2 7 -3q4 -2 7 -2q4 0 8 2q4 1 7 4q1 1 3 1t2 -1q1 0 1 -2t-1 -3q-3 -5 -9 -6q-6 -2 -11 -2t-11 2q-5 1 -9 6q-5 4 -6 9
q-2 4 -2 11q0 8 2 12q1 4 6 9q3 3 9 6q6 2 11 2q8 0 11 -2q3 -1 5 -2.5t4 -3.5q3 -3 7 -9q1 -3 1.5 -5.5t0.5 -5.5q0 -2 -0.5 -2t-0.5 -1q-1 -1 -3 -1h-46zM678 53q0 3 -2 7q-2 2 -2.5 3t-2.5 3q-2 1 -3 2t-3 2q-2 0 -4 0.5t-4 0.5t-3.5 -0.5t-3.5 -0.5q-2 -1 -3.5 -2
t-3.5 -2q-1 -2 -2 -3t-2 -3q-2 -4 -3 -7h42zM698 93q0 2 1 3q1 0 1 0.5t1 0.5t1.5 -0.5t1.5 -0.5q1 -1 1 -3v-14h26q1 0 1 -0.5t1 -0.5h1q2 -2 2 -3t-2 -3l-1 -1h-2h-26v-22q0 -2 2 -8q1 -5 4 -7q2 -2 3.5 -2.5t3.5 -1.5q6 -2 8 -2q3 0 9 2q4 2 6 4q1 1 3 1h2q2 -2 2 -3
q0 -2 -1 -3l-9 -6q-4 -2 -12 -2q-7 0 -11 2q-5 1 -9 6l-6 9q-1 3 -1.5 5.5t-0.5 5.5v44zM810 32q-2 -4 -9 -8q-6 -3 -12 -3q-5 0 -11 2q-6 1 -9 6q-4 2 -7 9q-2 6 -2 11q0 4 2 12l6 9q6 4 10 6q6 2 11 2q3 0 5.5 -0.5t5.5 -1.5l9 -6q5 -5 6 -10q3 -5 3 -11v-25q0 -2 -2 -2
q0 -1 -2 -1t-3 1t-1 2v8zM810 49q0 6 -1 9q-2 2 -2.5 3.5t-2.5 3.5q-3 2 -7 4q-6 2 -8 2q-4 0 -8 -2q-5 -2 -7 -4q-3 -3 -5 -7q-1 -3 -1 -9q0 -5 1 -8q2 -4 5 -7q2 -3 7 -4q4 -2 8 -2q2 0 8 2q2 1 3.5 1.5t3.5 2.5t4 7q2 6 2 8zM840 81q0 2 2 6q0 3 3 5q3 3 5 3q4 2 6 2
q1 0 1.5 -0.5t1.5 -0.5q0 -1 0.5 -1.5t0.5 -1.5t-0.5 -1.5t-0.5 -1.5q-1 0 -1.5 -0.5t-1.5 -0.5q-2 0 -6 -2q-2 -4 -2 -6v-21h8q2 0 2 -2q1 0 1 -2t-1 -3t-2 -1h-8v-28l-1 -2q-1 -1 -3 -1t-3 1t-1 2v28h-5q-1 0 -1 0.5t-1 0.5q-1 1 -1 3t1 2l2 2h5v21zM903 78q3 0 5.5 -0.5
t5.5 -1.5l9 -6q2 -2 3.5 -4.5t2.5 -5.5q2 -3 2 -11q0 -7 -2 -11q-2 -5 -6 -9l-9 -6q-3 -1 -5.5 -1.5t-5.5 -0.5q-5 0 -11 2q-5 1 -10 6q-3 3 -6 9q-2 6 -2 11t2 11q3 6 6 9t9 7q8 2 12 2zM881 49q0 -2 2 -8q2 -4 5 -7q2 -2 6 -4q6 -2 9 -2q2 0 8 2q4 1 7 4q2 2 2.5 3.5
t1.5 3.5q2 6 2 8q0 3 -2 9q-1 2 -1.5 3.5t-2.5 3.5q-3 2 -7 4q-6 2 -8 2q-3 0 -9 -2q-4 -2 -6 -4q-3 -3 -5 -7q-2 -6 -2 -9zM946 50q0 8 2 11q1 5 5 9t9 6q3 2 11 2t11 -2q4 -2 9 -6q4 -4 5 -9q3 -5 3 -11v-26q0 -2 -2 -2q0 -1 -2 -1t-3 1t-1 2v26q0 6 -1 9q-1 2 -2 3t-2 3
q-3 2 -7 4q-2 2 -8 2t-8 -2q-5 -3 -6 -4q-4 -4 -5 -6q-1 -3 -1 -9v-26q0 -2 -1 -2q-1 -1 -3 -1t-2 1q-1 0 -1 2v26zM1015 93q0 2 1 3q1 0 1 0.5t1 0.5t1.5 -0.5t1.5 -0.5q1 -1 1 -3v-14h26q1 0 1 -0.5t1 -0.5h1q2 -2 2 -3t-2 -3l-1 -1h-2h-26v-22q0 -2 2 -8q1 -5 4 -7
q2 -2 3.5 -2.5t3.5 -1.5q6 -2 8 -2q3 0 9 2q4 2 6 4q1 1 3 1h2q2 -2 2 -3q0 -2 -1 -3l-9 -6q-4 -2 -12 -2q-7 0 -11 2q-5 1 -9 6l-6 9q-1 3 -1.5 5.5t-0.5 5.5v44zM1080 24q0 1 0.5 1.5t0.5 1.5q1 1 3 1h26q3 0 6 3q2 1 2 5q0 5 -2 6q-3 3 -6 3h-14q-5 0 -7 1t-5 4t-4 5
q0 2 -0.5 3.5t-0.5 3.5t0.5 3t0.5 3q1 2 4 5t5 4t7 1h24q2 0 3 -1t1 -2t-0.5 -1.5t-0.5 -1.5q-1 -1 -3 -1h-24q-4 0 -7 -3q-2 -2 -2 -6q0 -5 2 -7q3 -3 7 -3h14q4 0 6 -1q4 -2 5 -3q3 -3 4 -5q0 -2 0.5 -3.5t0.5 -3.5t-0.5 -3t-0.5 -3q-1 -2 -4 -5q-1 -1 -5 -3q-2 -1 -6 -1
h-26q-2 0 -3 1t-1 2zM1138 26q0 2 1 3t3 1q3 0 4 -1t1 -3q0 -3 -1 -4t-4 -1q-2 0 -3 1t-1 4zM1203 65q-3 2 -7 4q-6 2 -8 2q-4 0 -8 -2q-5 -2 -7 -4q-3 -3 -5 -7q-1 -3 -1 -9q0 -5 1 -8q2 -4 5 -7q2 -3 7 -4q4 -2 8 -2q2 0 8 2q4 1 7 4q0 1 2 1t3 -1q1 0 1 -2t-0.5 -2
t-0.5 -1l-3 -3q-4 -2 -5 -2q-2 -2 -5 -2q-2 -1 -7 -1t-11 2q-6 1 -9 6q-4 2 -7 9q-2 6 -2 11t2 11q3 6 6 9q4 4 10 7q6 2 11 2t7 -1q1 0 5 -2l4 -2q3 -2 3 -3l2 -2q0 -2 -1 -3t-3 -1t-2 1zM1250 78q3 0 5.5 -0.5t5.5 -1.5l9 -6q5 -5 6 -10q3 -5 3 -11q0 -5 -3 -11
q-2 -5 -6 -9q-3 -3 -9 -6q-6 -2 -11 -2t-11 2q-6 1 -9 6q-4 2 -7 9q-2 6 -2 11t2 11q3 6 6 9q4 4 10 7q6 2 11 2zM1229 49q0 -5 1 -8q2 -4 5 -7q2 -3 7 -4q4 -2 8 -2q2 0 8 2q4 1 7 4q2 2 2.5 3.5t2.5 3.5q1 3 1 8q0 6 -1 9q-2 2 -2.5 3.5t-2.5 3.5q-3 2 -7 4q-6 2 -8 2
q-4 0 -8 -2q-5 -2 -7 -4q-3 -3 -5 -7q-1 -3 -1 -9zM1324 59q0 4 -3 9q-5 3 -9 3q-3 0 -5 -1l-3 -3l-3 -3q-1 -2 -1 -5v-35q0 -2 -1 -2q-1 -1 -3 -1q-1 0 -2 1q-1 0 -1 2v35q0 5 1 7t2 3.5t2 3.5q2 1 3.5 2t3.5 2t7 1q7 0 9 -2q4 -1 7 -6q3 5 7 6q2 2 9 2q5 0 7 -1q3 -1 6 -4
q4 -4 5 -7q1 -2 1 -7v-35q0 -2 -1 -2q-1 -1 -3 -1q-1 0 -2 1q-1 0 -1 2v35q0 1 -0.5 2t-0.5 3l-3 3q-2 2 -4 3q-1 1 -4 1q-4 0 -5 -1q-2 -1 -4 -3t-2 -3q-1 -2 -1 -5v-35l-1 -2q-1 -1 -3 -1t-3 1t-1 2v35z" />
    </font>
</defs>
</svg>
