<?xml version="1.0" standalone="no"?>
<!DOCTYPE svg PUBLIC "-//W3C//DTD SVG 1.1//EN" "http://www.w3.org/Graphics/SVG/1.1/DTD/svg11.dtd" >
<svg xmlns="http://www.w3.org/2000/svg" xmlns:xlink="http://www.w3.org/1999/xlink" version="1.1">
<metadata>
Created by FontForge 20230101 at Wed Feb  4 21:10:11 2004
 By Unknown
KentuckyFriedChickenFont by J.F.Y.Daniel Gauthier - GautFonts
</metadata>
<defs>
<font id="KentuckyFriedChickenFont" horiz-adv-x="351" >
  <font-face 
    font-family="KentuckyFriedChickenFont"
    font-weight="400"
    font-stretch="normal"
    units-per-em="1000"
    panose-1="0 0 4 0 0 0 0 0 0 0"
    ascent="800"
    descent="-200"
    x-height="472"
    cap-height="811"
    bbox="-182 -414 996 1153"
    underline-thickness="20"
    underline-position="-143"
    unicode-range="U+0020-2122"
  />
<missing-glyph horiz-adv-x="500" 
d="M63 0v800h375v-800h-375zM125 63h250v675h-250v-675z" />
    <glyph glyph-name=".notdef" horiz-adv-x="500" 
d="M63 0v800h375v-800h-375zM125 63h250v675h-250v-675z" />
    <glyph glyph-name=".null" horiz-adv-x="0" 
 />
    <glyph glyph-name="nonmarkingreturn" horiz-adv-x="319" 
 />
    <glyph glyph-name="space" unicode=" " horiz-adv-x="319" 
 />
    <glyph glyph-name="exclam" unicode="!" horiz-adv-x="273" 
d="M99 144q-28 -13 -28 -49q0 -16 6 -35q-6 -21 -4 -36q30 -34 62 -34q10 0 19 4q30 12 30 74q0 17 -4 46q-30 34 -61 34q-11 0 -20 -4zM150 772q-46 -5 -52 -69l-20 -485q-6 -8 -6 -13q0 -19 58 -17q5 -1 9 -1q31 0 47 51q17 381 17 509q-6 48 -24 48q-13 0 -29 -23z" />
    <glyph glyph-name="quotedbl" unicode="&#x22;" horiz-adv-x="284" 
d="M177 818q-37 -1 -57 -29q-18 29 -53 29q-29 0 -48.5 -18.5t-19.5 -43.5q0 -29 20 -74q24 -53 49 -53q34 0 54 76q26 -76 56 -76q46 0 63 119q0 43 -31 60q-16 10 -33 10z" />
    <glyph glyph-name="numbersign" unicode="#" horiz-adv-x="612" 
d="M555 499q-33 3 -114 5l21 216q-26 51 -36 51q-4 0 -8 -1q-52 2 -52 -18q0 -5 4 -12l-22 -234l-70 1l18 199q-1 19 -5 33q-9 34 -34 37q-12 23 -23 23q-16 0 -25 -48q-4 -50 -23 -244l-138 1q-51 -26 -51 -36q0 -4 1 -8q-2 -52 18 -52q6 0 12 4l149 -1l-10 -104l-105 1
q-19 -1 -33 -5q-34 -9 -37 -34q-23 -12 -23 -23q0 -16 48 -25q38 -3 141 -5l-18 -186q26 -51 36 -51q4 0 8 1q52 -2 52 18q0 6 -4 12l19 204l70 -1l-15 -169q0 -19 5 -33q9 -34 34 -37q11 -23 23 -23q16 0 25 48q4 46 20 214q79 -5 110 -1q52 26 52 36q0 4 -2 8q3 52 -17 52
q-6 0 -13 -4l-121 1l10 104l78 -1q19 1 33 5q34 10 37 34q23 12 23 23q0 16 -48 25zM330 310l-71 1l10 103l71 -1z" />
    <glyph glyph-name="dollar" unicode="$" horiz-adv-x="597" 
d="M486 468q-44 22 -95 24l34 234q25 -11 31 -30l2 -11q0 -25 -26 -49q-12 -15 -12 -25l1 -5q2 -3 64 -12l6 -1l8 -11q2 -20 24 -38q19 -16 24 -13q6 3 7 15v7l4 5q32 41 32 143l-3 27q-14 58 -80 91q-31 17 -66 23l23 159q5 22 5 37q0 18 -8 18q-5 0 -13 -8q-12 29 -19 29
t-9 -25q-7 -39 -32 -209q-17 -2 -34 -6l28 197q-13 8 -24 8q-23 0 -32 -35q-5 -24 -31 -190q-70 -31 -141 -94q-48 -42 -65 -65q-110 -150 -110 -244q0 -29 12 -50q35 -66 106 -66q33 0 75 13l9 3q2 0 28 12l18 8l-35 -248q-7 -2 -22 -4q-5 -2 -14 -2q-24 0 -42 9
q-23 11 -23 31q0 29 64 56q30 9 41 17l-9 9q-17 7 -81 5q-70 -2 -123 -59q-48 -51 -44 -96q3 -16 12 -30q23 -32 75 -45q34 -12 87 -12q32 0 62 4l-22 -152q-4 -22 -4 -37q0 -18 7 -18q5 0 14 8q11 -29 19 -29q6 0 8 25q8 40 34 216q17 6 34 13l-29 -211q13 -8 24 -8
q23 0 32 35q4 18 32 213q77 45 153 134l2 3q98 114 98 197q0 76 -91 110zM372 738l-36 -252q-5 -1 -16 -4q-6 -1 -17 -5l36 257q18 4 33 4zM163 466l-6 31q0 58 37 122q35 60 86 91l-35 -248q-31 -8 -51 -8q-24 0 -31 12zM249 106l37 255q17 6 33 10l-35 -245
q-17 -11 -35 -20zM470 308q-22 -46 -106 -119q-5 -5 -19 -18l31 212q10 2 18 3q58 4 76 -32q5 -12 5 -26q0 -13 -5 -20z" />
    <glyph glyph-name="percent" unicode="%" horiz-adv-x="576" 
d="M384 783zM388 790q-3 -4 -4 -7q10 -5 -294 -748q-13 -27 -13 -40q0 -7 6 -7q5 0 15 5q4 -26 12 -26q7 0 14 19q25 54 326 819q-13 9 -26 9q-21 0 -36 -24zM412 480q-10 1 -25 -4q-77 12 -93 -99q-14 -34 -14 -50q0 -13 9 -13q5 0 11 4q-5 -50 1 -136q16 -220 102 -229
q6 -1 12 -1q86 0 126 257q11 52 11 95q0 114 -70 156q-29 18 -70 20zM474 214q-28 -184 -61 -184q-4 0 -7 2q-11 3 -18 20q-19 38 -21 135q-6 192 46 192q3 0 7 -1q61 -16 61 -102q0 -28 -7 -62zM241 520q10 52 10 95q0 114 -70 156q-29 18 -70 20q-9 1 -25 -4
q-76 11 -93 -99q-14 -34 -14 -50q0 -13 9 -13q5 0 12 4q-6 -51 0 -136q16 -220 102 -229q6 -1 12 -1q86 0 127 257zM66 498q-6 192 46 192q3 0 7 -1q61 -16 61 -102q0 -28 -7 -62q-28 -184 -61 -184q-4 0 -7 2q-11 3 -18 20q-19 38 -21 135z" />
    <glyph glyph-name="ampersand" unicode="&#x26;" horiz-adv-x="554" 
d="M486 350q-25 25 -40 25q-16 0 -16 -28q-23 5 -43 5q-41 0 -41 -22q0 -15 21 -40q22 -20 22 -47q0 -25 -21 -58q-4 -10 -18 -22l-94 239q75 47 102 189q11 39 11 71q0 88 -82 115q-35 11 -83 9q-130 -2 -130 -185q0 -28 3 -51q7 -63 37 -117q-19 -19 -47 -65
q-6 -9 -16 -25q-34 -59 -51 -129q-1 -9 -1 -20q0 -51 24 -90q37 -60 125 -73q60 -16 115 -16l3 -10q-1 -4 -1 -8q0 -23 46 -23q22 0 46 5q53 -5 53 27q0 17 -13 38q22 12 40 26q44 32 62 69q30 43 30 91q0 58 -43 120zM225 703q57 -5 57 -60q0 -17 -6 -38q-25 -118 -57 -118
q-3 0 -5 1q-10 1 -18 11q-17 22 -20 82q-7 129 49 122zM166 140q-71 2 -71 66q0 38 24 87q14 16 37 50q40 -117 69 -207q-27 0 -59 4z" />
    <glyph glyph-name="quotesingle" unicode="'" horiz-adv-x="198" 
d="M131 748q0 43 -31 60q-17 10 -33 10q-29 0 -48.5 -18.5t-19.5 -43.5q0 -29 20 -74q24 -53 49 -53q46 0 63 119z" />
    <glyph glyph-name="parenleft" unicode="(" horiz-adv-x="173" 
d="M107 -134q-83 187 -104 437q-3 49 -3 102q0 141 19 277q18 126 40 169q1 46 15 46t36 -45q22 21 32 21q8 0 8 -14q0 -19 -12 -55q-46 -189 -46 -425q3 -144 36 -308q27 -129 45 -165q7 -15 7 -27q0 -23 -28 -23q-17 0 -45 10z" />
    <glyph glyph-name="parenright" unicode=")" horiz-adv-x="191" 
d="M41 -134q83 187 104 437q3 49 3 102q0 141 -19 277q-18 126 -40 169q-1 46 -15 46t-36 -45q-22 21 -32 21q-8 0 -8 -14q0 -19 12 -55q46 -189 46 -425q-3 -144 -36 -308q-27 -129 -45 -165q-7 -15 -7 -27q0 -23 28 -23q17 0 45 10z" />
    <glyph glyph-name="asterisk" unicode="*" horiz-adv-x="571" 
d="M537 566q-49 -2 -146 -1q34 33 58 55q59 45 59 74q0 20 -26 27q6 42 -13 42q-15 0 -39 -23q-36 -39 -110 -110q3 51 8 103q5 14 5 27q0 47 -67 65q-16 14 -27 14q-34 0 -29 -104q2 -45 3 -115q-44 33 -87 65q-20 28 -48 28q-31 0 -63 -30q-29 -8 -29 -24q0 -28 74 -71
l12 -7h-10q-15 6 -27 6q-47 0 -65 -68q-14 -15 -14 -27q0 -33 103 -28q31 1 81 2q-32 -28 -58 -50q-39 -16 -39 -54q0 -26 17 -55q2 -34 22 -34q28 0 81 58q19 21 52 55q0 -32 -1 -57q-4 -24 -4 -43q0 -58 31 -58q10 0 21 7q19 -25 31 -25q18 0 19 48q-2 59 0 174
q57 -37 92 -62q50 -42 78 -42q26 0 27 32q39 3 39 19q0 14 -31 36q-29 17 -85 53q20 0 34 -1q24 -3 42 -3q59 0 59 30q0 11 -7 22q25 18 25 30q0 18 -48 20z" />
    <glyph glyph-name="plus" unicode="+" horiz-adv-x="637" 
d="M558 382q-49 5 -200 8l1 200q-29 51 -42 51q-4 0 -8 -1q-60 2 -60 -18q0 -5 5 -12l-3 -219l-200 1q-51 -29 -51 -41q0 -4 1 -9q-2 -60 18 -60q5 0 12 5l219 -2l-1 -157q0 -19 5 -33q11 -34 40 -37q13 -23 26 -23q18 0 29 48q5 49 7 201l157 -2q19 1 33 6q34 11 37 39
q23 14 23 27q0 18 -48 28z" />
    <glyph glyph-name="comma" unicode="," horiz-adv-x="208" 
d="M145 73q-2 23 -9 40q-15 40 -48 42q-47 3 -62 -61q-26 -26 -26 -49q0 -17 18 -29q44 -23 37 -61q-2 -16 5 -16q5 0 15 12h13q6 0 29 22q7 7 18 34q12 38 10 66z" />
    <glyph glyph-name="hyphen" unicode="-" horiz-adv-x="357" 
d="M242 302q11 -3 20 -3q27 0 27 30q0 11 -3 22q12 18 12 30q0 18 -23 19q-19 -1 -42 -1q-78 0 -183 17q-7 6 -13 6q-23 0 -30 -68q-7 -16 -7 -27q0 -34 49 -29q119 8 193 4z" />
    <glyph glyph-name="hyphen" unicode="&#x2010;" horiz-adv-x="357" 
d="M242 302q11 -3 20 -3q27 0 27 30q0 11 -3 22q12 18 12 30q0 18 -23 19q-19 -1 -42 -1q-78 0 -183 17q-7 6 -13 6q-23 0 -30 -68q-7 -16 -7 -27q0 -34 49 -29q119 8 193 4z" />
    <glyph glyph-name="hyphen" unicode="&#x2010;" horiz-adv-x="357" 
d="M242 302q11 -3 20 -3q27 0 27 30q0 11 -3 22q12 18 12 30q0 18 -23 19q-19 -1 -42 -1q-78 0 -183 17q-7 6 -13 6q-23 0 -30 -68q-7 -16 -7 -27q0 -34 49 -29q119 8 193 4z" />
    <glyph glyph-name="period" unicode="." horiz-adv-x="178" 
d="M28 144q-28 -13 -28 -49q0 -16 6 -35q-6 -21 -4 -36q30 -34 62 -34q10 0 19 4q30 12 30 74q0 17 -4 46q-30 34 -61 34q-11 0 -20 -4z" />
    <glyph glyph-name="slash" unicode="/" horiz-adv-x="236" 
d="M1 -19q-4 -1 -8 -1q-26 0 -19 52q161 608 214 759q25 50 40 50q12 0 15 -22q23 -3 23 -35q0 -17 -6 -37l-201 -733q1 -4 1 -7q0 -26 -59 -26z" />
    <glyph glyph-name="zero" unicode="0" horiz-adv-x="409" 
d="M176 813q-15 1 -39 -6q-8 1 -17 1q-106 0 -129 -155q-21 -54 -21 -80q0 -20 14 -20q8 0 17 6q-8 -79 2 -212q16 -232 89 -318q30 -36 70 -41q9 -2 18 -2q91 0 154 202q26 83 45 201q16 82 16 149q0 178 -110 244q-45 28 -109 31zM273 397q-44 -288 -96 -288q-5 0 -11 3
q-16 5 -28 31q-30 60 -33 212q-1 23 -1 51q0 249 73 249q6 0 12 -1q95 -26 95 -161q0 -43 -11 -96z" />
    <glyph glyph-name="one" unicode="1" horiz-adv-x="297" 
d="M218 727q2 17 2 30q0 51 -27 51q-15 0 -34 -14q-17 11 -32 11q-31 0 -44 -47q-23 -101 -22 -212q0 -11 25.5 -17t25.5 -19q5 -281 -4 -444q-14 -20 -14 -33q0 -32 65 -27q12 -4 22 -4q39 0 39 71q0 15 -2 29v625z" />
    <glyph glyph-name="two" unicode="2" horiz-adv-x="424" 
d="M366 112l-171 3q-7 29 -15 63q27 84 63 145q12 23 44 75q50 77 60 137q12 39 12 80q0 48 -14 87q-30 70 -114 91q-39 17 -78 17q-47 0 -78 -27l-80 -23q-25 -11 -25 -37q0 -23 23 -63q16 -25 32 -51q22 -45 75 -41q83 5 83 31q0 19 -42 34q-37 19 -37 33q0 9 15.5 14
t23.5 2q50 -6 106 -58q3 -94 -107 -237q-55 -53 -121 -271q0 -1 -2 -2q-5 -3 -10 -9q-10 -14 -12 -36q-11 -14 -11 -29q0 -19 24 -31q71 -11 346 -11q30 14 25 55q19 30 19 47q0 15 -16 15q-8 0 -18 -3z" />
    <glyph glyph-name="three" unicode="3" horiz-adv-x="419" 
d="M306 454q-42 21 -87 26q39 52 77 105q45 64 68 111q17 3 17 22q0 10 -6 24q7 16 7 29q0 22 -25 22q-6 0 -15 -1h-243q-15 0 -40 4.5t-40 4.5q-38 0 -38 -13q0 -9 21 -27q11 -10 21 -19l-12 -18q-13 -18 -13 -29q0 -16 42 -16q28 0 99 5q78 6 105 6q7 -26 -49 -93
q-32 -39 -143 -155q-28 -7 -28 -19q0 -17 43 -36q40 -17 71 -17q9 0 14 2q33 14 25 15q110 -14 110 -75q0 -20 -14 -45q-61 -135 -124 -135q-5 0 -10 1q-69 0 -79 54q-13 39 -29 39q-22 0 -43 -61q-12 8 -19 8q-13 0 -13 -22q0 -13 4 -28q50 -120 155 -116q10 -1 20 -1
q102 0 172 111q30 46 50 110q27 52 27 98q0 84 -78 129z" />
    <glyph glyph-name="four" unicode="4" horiz-adv-x="470" 
d="M436 278q2 65 -19 65q-5 0 -12 -6l-46 1l2 380q-1 22 -5 38q-12 39 -41 43q-13 27 -25 27q-13 0 -24 -30q-9 3 -22 3q-17 26 -31 26q-13 0 -21 -19q-103 -320 -188 -488q-10 -6 -10 -17q0 -9 6 -19q-7 -7 -7 -15q0 -21 49 -33q13 -1 24 -2q15 -7 27 -2q62 -3 156 -5v-169
q29 -59 42 -59q4 0 9 1q61 -2 61 21q0 6 -5 14l2 190h26q53 12 53 45q0 5 -1 10zM139 342q78 236 116 340q-4 -116 -5 -342z" />
    <glyph glyph-name="five" unicode="5" horiz-adv-x="475" 
d="M448 750q4 19 0 34v1q0 27 -5 37q-1 0 -7 -3h-3q-41 -5 -129 -10h-245q-10 2 -18 2q-32 0 -32 -28q0 -16 9 -35q-7 -18 -7 -31q0 -24 22 -27q-29 -101 -29 -225q0 -74 12.5 -101.5t134.5 -43.5q90 73 135 73q32 0 32 -42q0 -24 -11 -62q-47 -165 -177 -165q-20 0 -36.5 4
t-16.5 6q0 29 54 57q16 5 22 11q-1 0 0 1q5 2 10 5q6 3 -6 4q-15 1 -61 -1q-75 -5 -112 -57q-26 -36 -26 -71q0 -5 1 -6q45 -79 156 -79q39 0 75 9q68 20 96 35q57 31 100 95q16 24 34 86q22 71 22 125q0 77 -69 110q-32 20 -70 20q-23 0 -43 -9l-1 -1h-2q-35 -9 -75 -39
l-11 -8l-12 6q-21 9 -28 31l-5 29q0 52 34 200q42 -2 108 7q70 8 103 8q20 0 40 -2q13 -19 22 -19q16 0 15 53l1 7q0 4 -1 9z" />
    <glyph glyph-name="six" unicode="6" horiz-adv-x="439" 
d="M327 762q-67 45 -110 45q-40 0 -92 -25q-125 -6 -125 -284q0 -39 3 -71q-34 -50 -34 -72q0 -13 15 -13q10 0 28 7l4 -23q0 -34 9 -98q22 -153 97 -208q31 -23 70 -25q100 -11 162 130q27 59 43 144q13 48 13 89q0 125 -113 168q-47 18 -112 18q-29 1 -67 -16q-1 11 -1 24
q0 99 54 114q14 7 29 7q37 0 88 -47q37 -35 59 -35q28 0 28 56q0 19 -3 39q15 -3 25 -3q19 0 19 8q0 19 -89 71zM198 429q85 -12 85 -94q0 -23 -7 -50q-31 -168 -76 -168q-4 0 -9 2q-14 2 -25 16q-27 34 -33 121q-3 23 -3 48q0 135 68 125z" />
    <glyph glyph-name="seven" unicode="7" horiz-adv-x="470" 
d="M445 782h-14q-5 17 -18 17t-33 -18q-170 -2 -288 11q-5 7 -34 16q-12 11 -24 11q-16 0 -25 -23q-4 -22 -6 -64q-9 -22 -2 -37q-1 -35 -1 -60q30 -26 45 -24q53 -1 53 9q0 2 -5 5l2 56q185 4 223 4q-16 -33 -42 -105q-22 -63 -43 -125h-54q-6 1 -10 1q-15 0 -15 -22
q0 -13 5 -28q-4 -14 -4 -24q0 -22 14 -22h30q-27 -79 -98 -304q-2 -9 -2 -18q0 -34 30 -34q6 0 13 1q99 0 92 33l93 313q30 -2 51 -6q4 -4 7 -4q12 0 11 65q1 10 1 18q0 32 -21 32q-5 0 -8 -1l81 231q13 7 12 26q7 18 6 31q0 4 -1 7q3 8 3 14q0 18 -24 18z" />
    <glyph glyph-name="eight" unicode="8" horiz-adv-x="470" 
d="M450 595q1 46 -17 83q-42 89 -166 115q-80 16 -129 4q-99 -14 -135 -73q-23 -49 -23 -68q0 -11 8 -11q7 0 16 6q2 1 7 4q-3 -15 -8 -53q-2 -23 -2 -44q0 -108 39 -162q-54 -46 -55 -117q-3 -16 -3 -32q0 -102 103 -179q43 -32 103 -56q47 -24 87 -24q91 0 133 125
q17 52 23 124q1 12 1 23q0 96 -67 159q90 83 85 176zM238 635q105 -11 110 -69q1 -4 1 -9q0 -54 -139 -91q-23 -9 -42 -9q-67 0 -73 100q-6 81 105 81q20 0 38 -3zM335 203q-17 -93 -77 -93q-21 0 -48 14q-129 51 -129 103q0 6 2 12q12 57 117 57q136 1 136 -77q0 -8 -1 -16
z" />
    <glyph glyph-name="nine" unicode="9" horiz-adv-x="444" 
d="M79 37q66 -45 108 -45q40 0 92 25q124 6 124 284q0 39 -3 71q33 49 33 71q0 14 -14 14q-11 0 -28 -7q-2 7 -4 23q0 33 -9 97q-22 154 -96 209q-31 23 -70 24q-98 12 -161 -129q-25 -59 -42 -144q-12 -49 -12 -89q0 -125 111 -169q47 -18 111 -18q29 0 66 16q1 -10 1 -23
q0 -99 -53 -114q-14 -8 -29 -8q-37 0 -86 48q-37 35 -59 35q-28 0 -28 -57q0 -19 3 -38q-15 2 -25 2q-19 0 -19 -8q0 -18 89 -70zM206 369q-84 13 -84 95q0 23 7 50q31 168 76 168q4 0 8 -2q14 -2 25 -16q26 -34 33 -121q2 -23 2 -48q0 -136 -67 -126z" />
    <glyph glyph-name="colon" unicode=":" horiz-adv-x="186" 
d="M109 292q-30 35 -61 35q-11 0 -20 -5q-28 -13 -28 -49q0 -16 6 -35q-6 -20 -4 -36q30 -33 62 -33q10 0 19 3q30 13 30 75q0 17 -4 45zM125 521q-28 47 -63 47q-6 0 -11 -1q-45 -12 -38 -78q-11 -19 -12 -35q33 -53 74 -45t50 112z" />
    <glyph glyph-name="semicolon" unicode=";" horiz-adv-x="216" 
d="M145 73q-2 23 -9 40q-15 40 -48 42q-47 3 -62 -61q-26 -26 -26 -49q0 -17 18 -29q44 -23 37 -61q-2 -16 5 -16q5 0 15 12h13q6 0 29 22q7 7 18 34q12 38 10 66zM36 272q31 -34 62 -34q10 0 20 4q29 13 29 75q0 15 -3 45q-31 35 -62 35q-10 0 -20 -5q-28 -13 -28 -49
q0 -16 6 -35q-6 -21 -4 -36z" />
    <glyph glyph-name="less" unicode="&#x3c;" horiz-adv-x="343" 
d="M186 298q-34 34 -87 86l138 147q96 103 96 149q0 25 -25 28q8 20 8 32q0 19 -18 19q-7 0 -15 -2q-299 -314 -326 -373q4 -32 325 -342q5 -2 9 -2q19 0 19 33q0 40 -29 97q-33 67 -95 128z" />
    <glyph glyph-name="equal" unicode="=" horiz-adv-x="617" 
d="M512 382q11 -3 20 -3q28 0 28 30q0 11 -4 22q12 18 12 30q0 18 -23 20q-78 -2 -149 -2q-236 0 -353 17q-6 6 -12 6q-24 0 -31 -68q-7 -15 -7 -27q0 -33 49 -28q376 8 470 3zM490 201q11 -3 20 -3q28 0 28 31q0 10 -3 21q11 19 11 31q0 18 -22 19q-78 -2 -149 -2
q-236 0 -353 18q-7 5 -13 5q-24 0 -31 -67q-6 -16 -6 -27q0 -34 49 -29q376 8 469 3z" />
    <glyph glyph-name="greater" unicode="&#x3e;" horiz-adv-x="334" 
d="M121 298q34 34 87 86l-138 147q-96 103 -96 149q0 25 25 28q-8 20 -8 32q0 19 18 19q7 0 15 -2q299 -314 326 -373q-4 -32 -325 -342q-5 -2 -9 -2q-19 0 -19 33q0 40 29 97q33 67 95 128z" />
    <glyph glyph-name="question" unicode="?" horiz-adv-x="340" 
d="M143 137q-19 -14 -19 -40q0 -21 14 -47q-2 -21 3 -36q29 -22 57 -22q16 0 29 9q18 12 18 45q0 29 -16 78q-30 22 -57 22q-17 0 -29 -9zM320 696q-91 103 -166 103q-48 0 -81 -46l-57 -35q-16 -14 -16 -32q0 -22 21 -52l30 -40q14 -23 42 -23q9 0 18 2q59 21 59 42
q-1 18 -34 22q-31 10 -31 22q0 8 11 15t17 6q53 6 111 -52q41 -34 58 -60q10 -15 9 -16q2 -6 2 -11q0 -26 -31 -31q-19 -3 -43 0q-18 3 -19 3q-19 6 -43 16q-15 6 -16.5 5.5t-11.5 1.5t-19 2q-64 0 -85 -83q-5 -18 -5 -48q0 -59 17 -118q19 -69 52.5 -97t71.5 -28
q26 0 49 15q-7 12 -32 93t-27 102q-3 25 11 36q34 -18 65 -19q8 -2 17 -2q44 0 82 40q46 38 49 93q5 76 -75 174z" />
    <glyph glyph-name="at" unicode="@" horiz-adv-x="668" 
d="M557 89q0 14 -11 14q-18 0 -60 -35q-94 -48 -197 -42q-64 9 -110 41q-109 79 -109 260q0 18 1 38q1 117 22 201q51 200 192 200q23 0 47 -5q73 -15 125 -44q126 -69 126 -198q0 -66 -35 -146q-64 -147 -109 -147q-37 0 -33 118q8 -2 26 -9q5 0 10.5 -1t7.5 -1q9 0 14 33
q5 45 -22 60q2 -3 -5 -3q-10 0 -35 7q7 48 7 88q0 140 -85 144q-73 3 -103 -39q-10 -12 -26 -66q-9 -31 -9 -57q0 -20 8 -20q9 0 27 24q37 47 69 47q10 0 18 -5q32 -20 27 -94q-23 6 -45 6q-49 0 -88 -28q-35 -25 -45 -57q-18 -56 -18 -95q0 -85 77 -103q11 -3 21 -3
q38 0 73 34l19 18q16 -98 94 -100q81 -2 139 110q24 47 42 113q44 101 44 183q0 166 -173 244q-72 33 -173 46q-123 8 -209 -90q-88 -102 -106 -284q-4 -44 -4 -85q0 -243 150 -351q63 -45 151 -59q152 -1 282 78q36 28 36 30q0 1 -1 1l-13 -4t-20 -4q-15 0 -15 13
q0 5 2 11.5t2 12.5zM270 274q-14 -14 -26 -14q-26 0 -21 72q13 34 69 34q12 0 26 -1q-20 -64 -48 -91z" />
    <glyph glyph-name="A" unicode="A" horiz-adv-x="555" 
d="M514 299q-6 0 -61 -2q-84 310 -159 487q2 12 5 39q-9 1 -23 2q-16 33 -30 33q-13 0 -25 -34q8 1 -27 1q-20 0 -19 -28q-17 -14 -6 -34q-28 -174 -123 -476l-70 -1q-36 -2 -36 -29q0 -10 6 -24q-18 -34 -18 -49q0 -9 7 -9q3 0 9 2q19 2 68 5q-13 -40 -49 -137
q-6 -15 -6 -27q0 -22 20 -22q14 0 35 10q31 -24 50 -24q18 0 19 24q27 77 60 182q104 4 217 8q17 -69 52 -248q103 72 98 129q-6 29 -29 123l56 1q4 26 4 45q0 51 -25 53zM172 290q44 145 76 275q41 -118 84 -271z" />
    <glyph glyph-name="B" unicode="B" horiz-adv-x="588" 
d="M483 439v0l-1 1q48 48 48 93q0 30 -18 79q-32 87 -104 141v0q-1 0 -2 1q-16 12 -46 27q-34 18 -56 25q-12 3 -37 7q-29 5 -54 8q-2 0 -5 2l-203 24q-5 1 -5 -3q-2 -15 27 -61q-12 -28 -13 -45q-1 -10 3 -15t12 -4q33 -1 70 -3q14 -114 19 -229q-36 13 -50 -1
q-7 -7 -7 -20q0 -11 6 -27v-2q-3 -7 -24 -13l-2 -1l-2 -1q-16 -13 -11 -29q9 -27 92 -30q0 -118 -12 -219q-35 12 -50 -1q-10 -8 -10 -23q0 -13 8 -32q1 -2 0 -4q-4 -10 -30 -17l-3 -1l-1 -1q-14 -11 -14 -25q0 -39 129 -42l70 -2q56 -1 76 -1q60 0 100.5 9t102.5 37
q31 19 60 48q56 57 56 110q0 32 -17 85q-32 92 -102 155zM240 698q56 -9 95 -42q65 -81 65 -147q0 -33 -19 -56q-26 -15 -72 -15q-37 0 -84 12q-1 164 -8 250q15 0 23 -2zM421 110q-34 -24 -88 -24q-46 0 -110 16q2 128 2 258q81 -2 121 7q8 -5 26 -18q20 -24 41 -59
q39 -69 39 -121q0 -24 -31 -59z" />
    <glyph glyph-name="C" unicode="C" horiz-adv-x="455" 
d="M337 618q73 93 73 143q0 15 -7 22q-76 15 -214 -383q-64 -205 -64 -289q0 -35 10 -41q69 -11 231 280q31 69 47 69q17 0 15 -73q-1 -6 -1 -11q0 -34 38 -30q10 -4 10 -17q0 -38 -88 -135q-61 -118 -177 -164q-48 -19 -104 -22q-95 46 -119 186q3 267 177 508
q72 101 173 188q37 30 70 30q43 0 70 -43q47 3 47 -50q0 -19 -6 -40q-74 -208 -121 -208q-4 0 -6 2q-61 30 -54 78z" />
    <glyph glyph-name="D" unicode="D" horiz-adv-x="547" 
d="M153 819q-28 8 -53 8q-72 0 -114 -60q-52 -11 -52 -51q0 -19 10 -38q71 -104 131 -138q15 -177 6 -332q-35 37 -54 37q-16 0 -16 -32q0 -14 3 -34q2 -6 2 -12q0 -29 -43 -34q-13 -11 -13 -23q0 -37 102 -77q-5 -6 -5 -12q0 -18 52 -15q10 -2 23 4q142 -48 187 -48t114 25
q110 67 128 192q16 322 -195 513q-87 79 -213 127zM390 65q-17 -12 -42 -12q-71 0 -183 81q5 300 -2 452q15 22 7 38q-3 2 -10 6q-3 46 -8 64q-20 44 -36 44q-12 0 -20 -20q-10 -2 -19 -11q-13 23 2 36q9 4 18 4q94 0 267 -264q63 -150 63 -269q0 -96 -37 -149z" />
    <glyph glyph-name="E" unicode="E" horiz-adv-x="499" 
d="M425 81q2 38 -29 38q-9 0 -22 -4q-17 -4 -214 5l5 283l136 18q37 10 37 32q0 16 -24 36q19 15 19 26q0 19 -64 19q-40 0 -101 -8l4 163q254 11 282 4q13 -4 23 -4q31 0 28 38q57 23 57 38q0 13 -30 17q4 6 4 11q0 20 -41 19q-146 -5 -321 -6q-9 33 -74 33q-23 0 -51 -4
l-1 -28q-26 1 -47 2q-15 2 -25 2q-21 0 -21 -11q0 -16 46 -52q-5 -63 44 -65q-10 -376 -19 -561q-29 -16 -25 -62q-46 -36 -46 -53q0 -10 21 -10q10 0 25 2l18 1q0 -2 -1 -5q-3 -8 -3 -13q0 -11 13 -11q20 0 62 24q16 -9 31 -9q19 0 30 15q165 0 263 -5q41 -1 41 18
q0 6 -3 12q29 14 29 16q0 16 -56 39z" />
    <glyph glyph-name="F" unicode="F" horiz-adv-x="365" 
d="M302 519q17 14 17 24q0 17 -60 17q-37 0 -93 -7l4 148q234 10 261 4q12 -4 21 -4q29 0 26 35q53 21 53 35q0 12 -27 15q3 6 3 11q0 18 -38 17q-297 -9 -461 -3q-14 2 -23 2q-20 0 -20 -10q0 -15 43 -48q-5 -59 43 -59q-15 -600 -27 -701q-2 -7 -2 -12q0 -10 11 -10
q19 0 58 22q18 -9 31 -9q31 0 33 46l8 409l126 16q35 9 35 29q0 15 -22 33z" />
    <glyph glyph-name="G" unicode="G" horiz-adv-x="553" 
d="M578 354q5 8 5 15q0 15 -19 17q-55 6 -125 15q-2 31 -13 31q-10 0 -26 -25q-76 11 -112 20q-10 5 -16 5q-10 0 -10 -13q0 -17 16 -50q-3 -17 -3 -30q0 -34 18 -35t47 -3q-135 -216 -192 -206q-11 5 -11 39q0 81 64 280q137 386 213 371q6 -7 6 -21q0 -49 -72 -139
q-7 -46 54 -75q2 -2 7 -2q46 0 120 201q6 20 6 39q0 52 -47 49q-28 41 -70 41q-33 0 -70 -29q-100 -84 -172 -182q-173 -233 -176 -493q7 -39 21 -71q34 -78 98 -108q89 0 169 60q-47 -164 -60 -185q-13 -17 -13 -29q0 -21 29 -28q5 -63 21 -63q10 0 22 22q7 -7 14 -7
q16 0 26 33q95 319 154 478q2 4 4 10q32 -5 38 -9q7 -7 13 -7q16 0 19 35q37 18 37 33q0 10 -14 16z" />
    <glyph glyph-name="H" unicode="H" horiz-adv-x="578" 
d="M509 380q-5 0 -20 -1q11 346 19 418q2 8 2 13q0 10 -12 10q-19 0 -60 -23q-18 10 -31 10q-32 0 -35 -50l-7 -381l-200 -5q-4 108 -13 462q-116 0 -122 -53q2 -34 10 -412l-75 -1q-40 -2 -40 -28q0 -11 8 -25q-19 -33 -19 -48q0 -10 9 -10q4 0 10 3q27 3 109 6l5 -227
q1 -40 25 -40q16 0 41 20q52 -30 67 -30q5 0 5 3t-3 8q-6 55 -14 272l195 7l-7 -263q3 -37 72 -37q22 0 50 4l8 299l49 1q4 23 4 41q0 55 -30 57z" />
    <glyph glyph-name="I" unicode="I" horiz-adv-x="401" 
d="M327 58q0 64 -27 62q-21 -2 -53 -4q-2 34 -2 78q0 74 8 264q7 171 5 239q48 1 56.5 -3t15.5 -4q19 0 17 37q35 22 35 37q0 12 -18 16q2 6 2 11q0 19 -25 18q-34 -1 -86 -3v1q-23 4 -45 4q-32 0 -53 -7q-79 -2 -141 2q-6 2 -10 2q-6 0 -6 -5q0 -14 36 -56q-9 -25 -9 -40
q0 -24 19 -23q37 3 90 7q-1 -222 1 -583q-60 -2 -71 2q-7 5 -13 5q-18 0 -16 -38q-33 -22 -33 -37q0 -12 17 -15q-2 -7 -2 -12q0 -19 24 -18q42 2 104 4q10 -13 21 -13q9 0 17 8q41 -23 60 -23q12 0 12 10q0 6 -3 13v7q47 -1 73 -3q9 -2 15 -2q12 0 12 10q0 17 -27 52z" />
    <glyph glyph-name="J" unicode="J" horiz-adv-x="345" 
d="M340 816q-119 -11 -331 -8q-27 1 -27 -20q0 -6 3 -13q-20 -6 -20 -18q0 -16 40 -40q0 -41 20 -41q7 0 17.5 5t74.5 5q19 -151 19 -284q0 -208 -47.5 -334t-129.5 -131q-48 5 -80 5q-61 0 -61 -20t54 -52q-1 -6 -1 -11q0 -27 50 -27q34 0 80 11q152 6 225 216
q31 87 43 209q6 99 6 181q0 85 -6 155l-8 78l50 -3q33 0 31 71q30 39 30 57q0 12 -14 12q-7 0 -18 -3z" />
    <glyph glyph-name="K" unicode="K" horiz-adv-x="456" 
d="M259 462q-7 14 -7 30q0 27 21 44q175 177 255 251q54 52 24 52q-10 0 -31 -6l-34 -11q-8 0 -11 21q-1 9 -9 9q-14 0 -42 -34l-211 -205q-12 -12 -19 -12q-13 0 -10 34q1 15 19 76q17 58 17 77q0 16 -9 16q-7 0 -20 -9q-16 -11 -24 -11q-7 0 -9.5 21t-15.5 21q-7 0 -17 -4
q-57 -27 -56 -95q4 -167 -70 -697q-3 -19 -3 -29q0 -16 8 -16q4 0 17 7q17 8 18 8q7 0 41 -33q16 -14 29 -14q19 0 23 35q3 253 18 325q7 21 19 21q13 0 29 -31l104 -290q10 -51 32 -51q15 0 23 19q5 12 16 16q7 2 36 5q19 4 19 27q0 14 -8 33z" />
    <glyph glyph-name="L" unicode="L" horiz-adv-x="482" 
d="M455 54q4 42 -20 56q-10 6 -25 5q-128 -9 -251 -12q-4 224 16 670q-2 49 -34 49q-13 0 -30 -10q-41 23 -65 23q-22 0 -22 -23q5 -52 9 -310q5 -351 6 -393q-18 1 -25.5 -8.5t-4.5 -27.5q-54 -21 -54 -36q0 -12 28 -15q-3 -7 -3 -12q0 -18 38 -17h33q48 -5 78 2
q237 5 326 1q15 -2 24 -2q21 0 21 10q0 16 -45 50z" />
    <glyph glyph-name="M" unicode="M" horiz-adv-x="866" 
d="M0 3q0 -5 2 -7q13 -12 57 4l7 2l8 -3q31 -43 49 -43q9 0 15 11q3 5 5 10v6q2 16 -1 81q-3 88 -3 145q0 139 14 279l13 63l173 -498q9 -46 79 -54q71 8 79 54q2 7 2 14q0 9 -2 17l-2 5l2 6q88 264 171 443l27 59q3 -523 9 -600q15 -27 37 -27q19 0 53 30.5t34 43.5v1
q-2 10 -15 315q-13 315 -33 439l-1 10q-5 28 -19 34q-2 1 -5 1q-21 0 -39 -28l-7 -5l-8 2q-39 7 -51 6q-5 0 -5 -2l-4 -5l-10 -3q-23 -2 -28 -53v-3l-2 -3q-35 -83 -81 -227l-102 -323l-19 54l-73 295q-26 103 -82 229l-1 2v2q-3 10 -15 36l-3 7q-1 1 -4 3q-5 5 -38 -19
l-5 -4h-7q-18 0 -49 5.5t-40 5.5t-14 -3l-9 -4l-13 -43l3 -6l-47 -743q-2 -8 -2 -14z" />
    <glyph glyph-name="N" unicode="N" horiz-adv-x="632" 
d="M569 120l-18 18q15 543 27 664q4 45 -14 45q-19 0 -56 -45q-18 9 -32 9q-33 0 -35 -48l-11 -492q-111 124 -292 333l-16 237q-109 -3 -114 -56q1 -13 2 -68q-63 -42 -63 -72q0 -9 8.5 -18t58.5 -68q7 -158 31 -505q2 -49 35 -49q13 0 32 10q41 -24 55 -24q5 0 5 5t-10 19
q-8 70 -18 394l282 -329q-1 -40 -2 -49q3 -37 73 -37q22 0 51 4l2 86q31 10 31 22q0 7 -12 14z" />
    <glyph glyph-name="O" unicode="O" horiz-adv-x="490" 
d="M227 840q-130 8 -204 -161q-7 -13 -21 -76q-42 -184 -42 -256q0 -41 14 -41q6 0 13 8q8 -25 21 -36q20 -123 58 -202q56 -116 142 -110q12 -2 24 -2q119 0 202 213q34 89 59 213q21 87 21 158q0 188 -144 259q-60 29 -143 33zM400 425q-68 -339 -149 -339q-8 0 -17 4
q-25 6 -44 36q-46 72 -52 250q-1 27 -1 60q0 111 19 185q28 109 95 109q9 0 18 -2q44 -9 75 -30q74 -52 74 -159q0 -51 -18 -114z" />
    <glyph glyph-name="P" unicode="P" horiz-adv-x="437" 
d="M260 768q-55 18 -124 33v1q-24 4 -46 4q-31 0 -52 -7q-80 -2 -141 2q-7 2 -11 2q-5 0 -5 -5q0 -14 35 -56q-1 -4 -2 -10q-6 -18 -6 -32q0 -24 18 -21q38 3 90 7v-1q3 -98 14 -656q3 -50 35 -50q13 0 31 10q41 -23 60 -23q12 0 12 10q0 5 -3 13q-4 37 -9 151v0
q-2 55 -5 131q17 2 17 10q0 7 -12 18q25 8 37 20q73 12 133 32q191 61 183 171q2 11 2 22q0 87 -125 164q-53 32 -126 60zM145 455v7l-7 230h24q225 -63 225 -127q0 -8 -4 -16q0 -73 -238 -94z" />
    <glyph glyph-name="Q" unicode="Q" horiz-adv-x="508" 
d="M533 -51q-26 7 -74 38q-57 38 -97 85q57 82 111 320q18 82 18 150q0 193 -141 264q-59 30 -142 33q-129 8 -203 -160q-6 -12 -21 -75q-42 -184 -42 -255q0 -41 14 -41q6 0 14 8q8 -25 20 -37q21 -130 56 -199q55 -112 156 -112q32 0 73 22q16 -18 33 -34q42 -39 80 -63
q25 -13 45 -13q33 0 39 37q126 8 126 18q0 7 -65 14zM120 378q-2 26 -2 59q0 111 20 184q28 109 94 109q9 0 18 -2q44 -9 74 -30q74 -51 74 -158q0 -51 -17 -113q-32 -176 -77 -262q-8 22 -15 45q-16 53 -18 97q-89 -30 -92 -101q2 -39 33 -112q-25 8 -43 39q-44 73 -49 245
z" />
    <glyph glyph-name="R" unicode="R" horiz-adv-x="496" 
d="M517 -80q-60 65 -122 174q-78 139 -84 229q105 28 164 69q75 54 70 126q2 11 2 23q0 93 -134 175q-56 35 -134 64q-30 10 -95 23q-75 14 -116 14q-18 0 -27 -3q-85 -1 -130 2q-7 3 -11 3q-6 0 -6 -6q0 -15 38 -60q-1 -4 -3 -11q-6 -19 -6 -34q0 -26 20 -22q20 3 75 7v-1
l15 -661q3 -52 37 -52q14 0 33 10q44 -25 65 -25q12 0 12 11q0 6 -3 14q-3 23 -9 120v0q-2 52 -1 169q4 2 9 4l9 2q12 -63 34 -125q52 -148 142 -263q23 -33 48 -33q22 0 40 26q52 -12 79 -12q21 0 21 8q0 11 -32 35zM156 446v8l-2 41l-5 204h25q240 -67 240 -135
q0 -9 -4 -17q0 -79 -254 -101z" />
    <glyph glyph-name="S" unicode="S" horiz-adv-x="608" 
d="M103 658q-110 -149 -110 -244q0 -29 12 -50q35 -66 106 -66q33 0 75 13l9 3q2 0 28 12l70 33q34 11 115 27q58 4 76 -32q5 -12 5 -26q0 -13 -5 -20q-20 -42 -106 -119q-41 -37 -67 -55q-66 -45 -127 -52q-5 -2 -14 -2q-24 0 -42 9q-23 11 -23 31q0 29 64 56q30 9 41 17
q-4 5 -9 9q-17 7 -81 5q-70 -2 -123 -59q-48 -51 -44 -96q3 -16 12 -30q23 -32 75 -45q45 -16 94 -16q180 0 357 197l2 3q98 113 98 197q0 76 -91 110q-50 25 -104 25q-33 0 -62 -9.5t-58 -17.5q-44 -12 -68 -12t-31 12l-6 31q0 59 37 122q47 79 117 107q42 16 71 12
q64 -10 74 -42l2 -11q0 -25 -26 -49q-12 -15 -12 -25l1 -5q2 -3 64 -12l6 -1l8 -11q2 -20 24 -38q19 -16 24 -13q6 3 7 15v7l4 5q32 41 32 143l-3 27q-14 58 -80 91q-45 25 -98 25q-99 0 -216 -88q-72 -56 -104 -98z" />
    <glyph glyph-name="T" unicode="T" horiz-adv-x="460" 
d="M542 778q3 7 3 12q0 22 -43 21q-79 -3 -192 -4v1q-26 4 -50 4q-35 0 -58 -7q-134 -4 -264 2q-16 3 -27 3q-23 0 -23 -12q0 -18 50 -57q-4 -48 23 -63q12 -7 29 -6q81 4 187 8l16 -640q3 -55 38 -55q15 0 35 11q46 -26 67 -26q13 0 13 12q0 5 -3 14q-16 142 -30 689
q123 3 145 -2q14 -5 24 -5q33 0 31 41q61 25 61 41q0 13 -32 18z" />
    <glyph glyph-name="U" unicode="U" horiz-adv-x="543" 
d="M150 862l-2 -2q-48 -54 -94 -54q-17 0 -36 6q-11 3 -14 1q-8 -7 -4 -31l2 -11v-2v-3q-1 -52 -1 -100q0 -526 152 -660q45 -38 82 -33l2 1h2q233 3 347 633l7 36q13 77 13 103q0 21 -6 26q-8 7 -45 -6q-27 -9 -46 -9q-35 0 -46 27q-4 10 -4 21q0 6 1 12q-15 38 -25 44
q-11 -7 -19 -38q-4 -302 -48 -450q-32 -102 -44 -131q-41 -95 -85 -95q-24 0 -46 23q-41 43 -41 317q0 110 6 238q6 108 8 111l-2 -6q4 31 -7 37q-3 0 -7 -5z" />
    <glyph glyph-name="V" unicode="V" horiz-adv-x="549" 
d="M485 790q-28 31 -49 31q-32 0 -37 -72q-13 -40 -56 -205q-52 -203 -72 -273q-52 202 -129 478q-11 68 -35 68q-23 0 -51 -58q-63 53 -85 53q-11 0 -11 -13q0 -8 4 -18l230 -727q9 -63 77 -72q68 9 77 72q3 23 -1 40q24 89 55 189q76 241 175 498q6 11 6 19q0 16 -19 16
q-25 0 -79 -26z" />
    <glyph glyph-name="W" unicode="W" horiz-adv-x="969" 
d="M996 802q0 6 -2 8q-13 12 -57 -4l-8 -3l-8 4q-31 42 -50 42q-8 0 -14 -10q-3 -5 -6 -11l1 -5q-9 -84 -92 -482l-14 -64l-184 444q-9 47 -80 55q-71 -8 -80 -55q-1 -6 -1 -13q0 -10 2 -18l1 -5l-2 -6q-52 -156 -172 -416l-28 -60l-100 605q-16 28 -38 28q-19 0 -53.5 -31
t-34.5 -44v-1q13 -57 61 -318q57 -305 79 -443l2 -10q4 -28 19 -34q2 -1 5 -1q21 0 39 28l7 5l9 -2q39 -7 51 -7q5 1 5 3l4 5l10 3q23 2 28 53l1 3l1 3q11 25 82 229l103 296l19 -54l84 -240q32 -96 82 -231l1 -2l1 -2q2 -10 14 -37l4 -6q1 -1 3 -4q5 -5 39 20l5 4h7
q19 0 38.5 -5.5t24.5 -5.5t10 3l9 4l13 43l-2 6l160 722q2 9 2 14z" />
    <glyph glyph-name="X" unicode="X" horiz-adv-x="590" 
d="M615 -59q-66 99 -144 237q-6 10 -111 215q213 324 255 382q11 9 11 16q0 19 -72 19q-17 29 -37 29q-22 0 -41 -30l-184 -284q-116 228 -141 285q-3 24 -23 24q-22 0 -55 -24q-25 10 -40 10q-21 0 -21 -18q0 -13 9 -32q-19 -6 -19 -18q0 -6 5 -14q19 -31 199 -346
l-206 -319q-3 -5 -3 -13q0 -42 94 -78l187 285l105 -185q19 -32 36 -69q4 -9 13 -16l9 -16q31 -50 67 -50q15 0 30 10q59 -24 80 -24q10 0 10 5q0 6 -13 19z" />
    <glyph glyph-name="Y" unicode="Y" horiz-adv-x="585" 
d="M635 793q6 7 6 14q0 12 -23 12q-27 0 -87 -19q-31 24 -56 24q-36 0 -41 -57q-34 -69 -76 -186q-55 -153 -70 -190q-14 35 -70 190q-42 117 -76 186q-12 54 -39 54q-26 0 -57 -45q-72 41 -97 41q-12 0 -12 -10q0 -6 4 -14l256 -564q4 -110 4 -112q-1 -34 -4 -66
q0 -8 6 -15v-15q4 -47 51 -47q19 0 45 9q60 -23 88 -23q17 0 17 11q0 5 -4 12q-8 49 -18 223l3 74q28 69 63 145q84 182 187 368z" />
    <glyph glyph-name="Z" unicode="Z" horiz-adv-x="650" 
d="M590 796q-114 -14 -221 -13q-129 1 -221 10l-126 16q-7 3 -12 3q-10 0 -10 -13q0 -20 22 -62q-9 -19 -9 -33q0 -34 47 -36q8 -32 30 -31q23 4 242 13q-53 -59 -104 -131q-122 -173 -216 -384q-18 -22 -18 -39q0 -19 19 -31q1 -12 29 -17q1 -3 2 -5q-6 -25 15 -33
q13 -21 24 -21q10 0 15 16q1 2 2 3q359 11 487 4q16 -3 27 -3q23 0 23 14q0 22 -50 69q0 86 -51 84q-157 -14 -307 -17q62 70 118 179q41 89 83 179q44 95 82 134q8 -1 11 -1q8 0 15 4l15 1q47 2 47 36q0 14 -10 33q22 43 22 62q0 13 -10 13q-5 0 -12 -3z" />
    <glyph glyph-name="bracketleft" unicode="[" horiz-adv-x="195" 
d="M202 -23l-120 1l4 834v1l116 2q7 -4 12 -4q20 0 18 52q1 4 1 7q0 29 -51 36q11 0 -151 -1v-1q-9 -11 -22 -47q-9 -159 -9 -918q6 -43 31 -50v-3l151 -1q51 26 51 36q0 4 -1 8q2 52 -18 52q-5 0 -12 -4z" />
    <glyph glyph-name="backslash" unicode="\" horiz-adv-x="284" 
d="M223 -19q5 -1 9 -1q25 0 18 52q-161 608 -213 759q-25 50 -41 50q-12 0 -15 -22q-22 -3 -22 -35q0 -17 5 -37l202 -733q-1 -4 -1 -7q0 -26 58 -26z" />
    <glyph glyph-name="bracketright" unicode="]" horiz-adv-x="248" 
d="M-17 -23l120 1l-4 834v1l-116 2q-6 -4 -12 -4q-20 0 -18 52q-1 4 -1 7q0 29 52 36q-12 0 151 -1v-1q8 -11 22 -47q8 -159 8 -918q-6 -43 -30 -50v-3l-151 -1q-52 26 -52 36q0 4 1 8q-2 52 18 52q6 0 12 -4z" />
    <glyph glyph-name="asciicircum" unicode="^" horiz-adv-x="378" 
d="M28 334q17 -19 31 -19q19 0 22 43q26 94 81 285q32 -121 80 -285q7 -41 22 -41q14 0 32 35q39 -32 53 -32q7 0 7 8q0 5 -3 11l-143 433q-6 38 -48 43q-43 -5 -48 -43q-2 -14 0 -24q-15 -53 -34 -112q-48 -144 -110 -297q-3 -6 -3 -11q0 -10 12 -10q15 0 49 16z" />
    <glyph glyph-name="underscore" unicode="_" horiz-adv-x="857" 
d="M656 -115q139 0 139 15q0 4 -10 8q35 6 35 11q0 8 -66 13q-240 -4 -654 7q-19 3 -37 3q-64 0 -89 -32q-19 -8 -19 -13q0 -16 142 -14z" />
    <glyph glyph-name="grave" unicode="`" horiz-adv-x="272" 
d="M71 938q17 -12 104 -64q7 -3 16 -3q42 0 66 65q-32 15 -109 74q-48 32 -65 64q-8 21 -16 41q-12 38 -20 38q-12 0 -10 -91q-37 -11 -37 -33q0 -16 18 -33q-2 -1 -2 -3q0 -14 55 -55z" />
    <glyph glyph-name="a" unicode="a" horiz-adv-x="340" 
d="M302 286q-5 -1 -9 -3q-8 0 -22 2q-4 1 -12 2q3 29 3 54q0 182 -100 179q-74 -3 -102 -47q-9 -14 -22 -70q-5 -26 -5 -51q0 -28 9 -28q10 0 26 26q37 54 70 54q9 0 17 -5q34 -18 34 -94q-17 3 -34 3q-55 0 -97 -32q-37 -29 -46 -65q-12 -49 -12 -84q0 -101 87 -115
q8 -1 16 -1q44 0 78 39q0 -4 -4.5 -20.5t-4.5 -19.5q0 -7 18 -7q14 0 40 4q10 -3 17 -3q24 0 21 24v173q9 -3 30 -9h10q5 -1 7 -1q10 0 13 35q2 47 -26 60zM136 117q-14 -15 -27 -15q-25 0 -25 72q12 43 95 40q-16 -66 -43 -97z" />
    <glyph glyph-name="b" unicode="b" horiz-adv-x="381" 
d="M181 514q-20 1 -49 -12q0 196 3 237q3 12 3 21q0 48 -55 55q-3 1 -7 1q-20 0 -46 -43q-21 5 -28 -16q-2 -8 -2 -21q14 -542 26 -692q-4 -12 -4 -21q0 -22 27 -22q14 0 30 5q16 -8 29 -8q14 0 22 8q19 -13 40 -11q7 -2 14 -2q106 0 155 254q13 51 13 93q0 112 -85 154
q-36 18 -86 20zM242 266q-29 -157 -64 -157q-3 0 -7 2q-11 3 -19 17q-20 33 -22 115q-7 176 56 162q64 -14 64 -87q0 -24 -8 -52z" />
    <glyph glyph-name="c" unicode="c" horiz-adv-x="304" 
d="M201 421q4 1 8 1q19 0 19 -24q0 -20 -11 -48q-44 -42 -10 -42q16 0 43 9q45 15 45 68q0 49 -33 113q-25 22 -51 22q-93 0 -181 -231q-30 -94 -30 -163q0 -115 74 -140q14 -5 28 -5q84 0 154 160q16 13 16 22q0 17 -55 16q-6 8 -13 8q-15 0 -31 -35q-32 -72 -71 -72
q-15 0 -28 11q-5 10 -5 26q0 54 44 161q31 102 88 143z" />
    <glyph glyph-name="d" unicode="d" horiz-adv-x="399" 
d="M338 38q-7 559 0 696q0 30 -10 30q-4 0 -8 -4q4 35 -14 46q-8 4 -20 3q-3 1 -7 1q-20 0 -46 -43q-21 5 -28 -15q-2 -9 -2 -22l7 -232q-32 11 -75 10q-79 5 -114 -81q-24 -59 -24 -152q0 -33 3 -60q17 -217 124 -226q50 -9 104 63q1 -8 1 -14q-4 -12 -4 -21q0 -22 27 -22
q14 0 30 5q18 -9 31 -9q30 0 25 47zM218 260q-29 -156 -64 -156q-4 0 -7 2q-11 2 -20 16q-19 33 -22 115q-6 176 57 162q64 -14 64 -87q0 -24 -8 -52z" />
    <glyph glyph-name="e" unicode="e" horiz-adv-x="292" 
d="M261 304q13 52 13 89q0 106 -92 121q-9 1 -17 1q-108 0 -152 -204q-15 3 -53 13h-10q-6 1 -7 1q-11 0 -14 -37q-2 -48 27 -63l10 4q8 0 22 -3q5 -1 13 -2q-2 -30 -2 -57q0 -191 104 -187q78 2 108 49q9 15 22 73q6 27 6 54q0 30 -10 30q-9 0 -27 -28q-38 -56 -74 -56
q-9 0 -17 4q-36 19 -36 100q18 -4 36 -4q58 0 102 34q38 30 48 68zM131 403q15 16 28 16q27 0 27 -75q-13 -47 -100 -43q16 70 45 102z" />
    <glyph glyph-name="f" unicode="f" horiz-adv-x="322" 
d="M301 503q-55 1 -106 0q-3 34 9 92q12 62 28 85q8 6 15 6q21 0 27 -58q-9 -22 -9 -32q0 -9 7 -9q12 0 42 26q37 38 37 81q0 65 -102 93q-47 13 -79 13q-69 0 -69 -53q0 -10 3 -19q-5 -46 -8 -236l-15 -2q-82 -9 -81 -49q0 -13 22 -22q31 -9 54 -22l18 -355q29 -52 41 -52
q4 0 9 1q48 -2 48 12q0 8 -15 18l12 379l40 6q25 4 39 2q9 -9 15 -9q16 0 20 41q25 30 25 46q0 18 -27 17z" />
    <glyph glyph-name="g" unicode="g" horiz-adv-x="381" 
d="M303 525q-13 22 -26 22q-12 0 -21 -21q-7 -16 -8 -30q-42 34 -113 32q-79 5 -114 -80q-24 -59 -24 -153q0 -33 3 -60q17 -217 124 -226q6 -1 11 -1q62 0 116 104l1 -72q-4 -95 -36 -132q-28 -32 -91 -34q-14 2 -26 2q-50 0 -50 -30q0 -11 6 -22q-7 -34 41 -34q26 0 59 9
q49 7 113 51q22 25 39 87q39 150 41 460l1 58q-1 19 -6 33q-11 34 -40 37zM218 280q-29 -156 -64 -156q-4 0 -7 2q-11 2 -20 16q-19 33 -22 115q-6 176 57 162q64 -14 64 -87q0 -23 -8 -52z" />
    <glyph glyph-name="h" unicode="h" horiz-adv-x="385" 
d="M362 126q-22 -34 -35 -34q-14 0 -14 38l-4 297q-14 86 -48 86q-25 0 -57 -52q-32 -71 -82 -105l-1 327q-18 87 -45 87q-7 0 -15 -4q-34 14 -51 14q-12 0 -9 -10q1 -47 15 -749q14 -32 27 -32q11 0 25 9q30 -8 48 -8q19 0 19 10q0 5 -7 13q-2 33 -4 137q11 27 50 119
q0 2 4 8v0q8 17 15 23q11 9 15 -8q5 -22 -1 -87q-2 -227 61 -227q8 0 18 5q17 1 31 5q34 11 48 37q21 65 21 94q0 17 -8 17q-6 0 -16 -10z" />
    <glyph glyph-name="i" unicode="i" horiz-adv-x="264" 
d="M192 437q2 10 2 19q0 30 -27 30q-15 0 -33 -9q-18 8 -30 8q-26 0 -25 -29q-4 -245 -19 -421q-5 -8 -5 -14q0 -26 79 -23q11 -2 21 -2q39 0 39 43q0 9 -2 18v380zM220 668q-2 21 -8 36q-14 37 -45 39q-42 3 -56 -56q-24 -24 -24 -45q0 -16 16 -26q41 -22 34 -57
q-1 -14 5 -14q5 0 14 10h11q6 0 23 31q-3 37 15 41q18 17 15 41z" />
    <glyph glyph-name="j" unicode="j" horiz-adv-x="264" 
d="M146 470q-29 8 -48 8q-45 0 -39 -39q9 -71 11 -164q4 -57 4 -107q0 -307 -134 -310q-14 2 -26 2q-49 0 -49 -31q0 -10 5 -21q-4 -9 -4 -15q0 -19 39 -19q28 0 65 9q135 18 194 174q25 65 32 151l5 306q1 52 -55 56zM218 669q-5 49 -37 49q-25 0 -62 -31q-34 -45 -34 -69
q0 -17 19 -19q33 -20 33 -39q0 -8 -7 -15q1 -19 11 -19q6 0 15 8q16 20 29 40q29 50 33 95z" />
    <glyph glyph-name="k" unicode="k" horiz-adv-x="348" 
d="M331 45q-31 42 -58 86q-65 104 -103 195l111 120q42 42 42 62q0 12 -20 12q-17 0 -47 -9q-15 15 -27 15q-16 0 -23 -25q-12 -67 -98 -141l2 332q-1 19 -5 33q-12 34 -40 37q-13 23 -26 23q-18 0 -29 -48q-10 -142 -10 -687q30 -51 41 -51q5 0 9 1q60 -2 60 18q0 5 -5 12
l1 145q15 -1 25 -4q24 -9 24 -26q17 -39 33 -69q38 -74 63 -96q9 1 17 5q18 10 28 35q59 -8 59 4q0 7 -24 21z" />
    <glyph glyph-name="l" unicode="l" horiz-adv-x="209" 
d="M95 22q-4 -1 -9 -1q-32 0 -41 51q0 545 10 687q11 48 29 48q13 0 26 -23q42 -5 45 -70l-5 -662q5 -7 5 -12q0 -20 -60 -18z" />
    <glyph glyph-name="m" unicode="m" horiz-adv-x="572" 
d="M551 178q-27 -28 -41 -28t-14 24q0 8 2 19q10 77 15 242q0 58 -30 58q-38 0 -117 -111q-15 -21 -25 -21q-9 0 -13 15q1 9 2 26l2 26q1 16 0 27q-1 59 -32 59q-43 0 -132 -122q-17 -24 -28 -24q-10 0 -14 20l4 54q1 10 1 20q0 41 -19 41q-11 0 -28 -14l-80 -68
q-28 -19 -28 -42q0 -15 12 -15q7 0 16 7q4 3 7 3q12 0 10 -37l-21 -361l105 -4l17 185q51 156 77 156q15 0 19 -55q-5 -175 -4 -250l95 -4l15 166q46 141 70 141q13 0 17 -50q-4 -109 0 -166q0 -87 45 -87q55 0 91 72q31 62 31 101q0 12 -6 12q-7 0 -21 -15z" />
    <glyph glyph-name="n" unicode="n" horiz-adv-x="362" 
d="M4 434l76 64q16 14 27 14q18 0 18 -39q0 -10 -1 -19l-4 -52q3 -18 13 -18q11 0 27 22q85 116 125 116q31 0 31 -60q-2 -84 -16 -256q-2 -11 -2 -20q0 -26 14 -26q16 0 44 30q15 16 22 16t7 -13q0 -41 -33 -107q-38 -76 -96 -76q-48 0 -48 92q-4 61 0 176q-4 53 -18 53
q-26 0 -74 -149l-16 -176l-100 4l20 344q2 35 -10 35q-3 0 -6 -3q-9 -6 -15 -6q-11 0 -11 14q0 22 26 40z" />
    <glyph glyph-name="o" unicode="o" horiz-adv-x="303" 
d="M135 508q-79 5 -114 -81q-24 -59 -24 -152q0 -33 3 -60q17 -217 124 -226q7 -1 14 -1q106 0 155 253q13 51 13 94q0 112 -85 153q-36 18 -86 20zM218 260q-29 -156 -64 -156q-4 0 -7 2q-11 2 -20 16q-19 33 -22 115q-6 176 57 162q64 -14 64 -87q0 -24 -8 -52z" />
    <glyph glyph-name="p" unicode="p" horiz-adv-x="360" 
d="M191 508q-38 2 -78 -30q-1 3 -2 7q0 32 -17 32q-10 0 -25 -12l-20 -18q-11 -5 -20 -16l-31 -27q-25 -17 -25 -38q0 -13 11 -13q6 0 14 6q11 9 14 -8l-18 -345h1l-13 -283q-6 -7 -6 -13q0 -19 59 -20q5 -2 10 -2q30 0 43 49l14 265q32 -56 77 -53q8 -1 15 -1
q105 0 155 253q12 51 12 94q0 112 -85 153q-36 18 -85 20zM252 260q-29 -156 -64 -156q-4 0 -8 2q-11 2 -19 16q-20 33 -22 115q-6 176 56 162q64 -14 64 -87q0 -24 -7 -52z" />
    <glyph glyph-name="q" unicode="q" horiz-adv-x="392" 
d="M344 -207l5 662q-1 19 -6 33q-11 34 -40 37q-13 22 -26 22q-12 0 -21 -21q-7 -16 -8 -30q-42 34 -113 32q-79 5 -114 -80q-24 -59 -24 -153q0 -33 3 -60q17 -217 124 -226q6 -1 11 -1q62 0 116 104l9 -299q29 -52 41 -52q5 0 9 2q48 -2 48 12q0 7 -14 18zM218 280
q-29 -156 -64 -156q-4 0 -7 2q-11 2 -20 16q-19 33 -22 115q-6 176 57 162q64 -14 64 -87q0 -23 -8 -52z" />
    <glyph glyph-name="r" unicode="r" horiz-adv-x="320" 
d="M302 475q-3 58 -31 58q-45 0 -144 -138l-1 88q0 46 -15 46q-12 0 -47 -39q-15 6 -25 6q-28 0 -23 -39q0 -360 -11 -410q-5 -8 -5 -14q0 -27 75 -26q14 -5 26 -5q34 0 34 44q0 10 -2 20l-3 183q52 102 71 102q10 0 9 -29q7 -28 26 -28q14 0 33 17q9 -8 17 -8q25 0 25 68
q0 41 -9 104z" />
    <glyph glyph-name="s" unicode="s" horiz-adv-x="409" 
d="M371 295q-26 47 -76 47q-17 0 -35 -5l-16 -6q2 0 -62 -28q-15 -10 -65 -15q-41 -1 -35 26q-1 1 8 14q16 23 54 56q29 26 35 29q40 29 76 33q7 2 19.5 -1t12.5 -10q0 -9 -30 -22q-34 -9 -34 -22l1 -1q1 -16 66 -19q42 -3 60 27q13 17 25 34q19 26 19 41q0 17 -20 25
l-64 15q-29 20 -64 20q-88 0 -188 -113q-63 -76 -63 -127q0 -55 63 -78q31 -16 67 -16q22 0 41 7q32 7 66 27q15 -5 15 -24q0 -31 -20 -67q-39 -67 -101 -65q-34 6 -34 19q0 10 12 20q11 14 11 25q0 19 -25 22q-31 27 -48 27q-19 0 -20 -23q-34 -43 -34 -81q0 -57 57 -82
q29 -16 63 -16q64 0 138 56q45 35 64 61q70 94 70 153q0 21 -9 37z" />
    <glyph glyph-name="t" unicode="t" horiz-adv-x="291" 
d="M301 557q-51 1 -117 -2q7 41 15 71q12 29 12 48q0 24 -14 28q-24 -3 -36 15q-19 31 -36 31q-23 0 -37 -51l-7 -153q-81 -16 -81 -49q0 -14 22 -22q31 -10 54 -23l-18 -393q-8 -61 72 -71q105 5 122 248q-6 26 -12 26q-10 0 -19 -63q-11 -83 -41 -83q-25 0 -25 51
q1 140 16 293q89 10 123 2q4 -2 7 -2q9 0 9 17q0 15 -7 40q8 20 8 30q0 13 -10 12z" />
    <glyph glyph-name="u" unicode="u" horiz-adv-x="348" 
d="M228 498q-34 -244 -70 -291l-22.5 -22.5t-17.5 -11.5q-14 0 -14 66q-1 112 19 212q4 16 4 26q0 14 -7 14q-10 0 -32 -28q-2 -12 -10 -12q-12 0 -31 22q-14 17 -23 17q-17 0 -24 -106q-3 -39 -3 -91q0 -170 22 -263q10 -42 34 -42q35 0 86 77q24 35 36 35q24 0 5 -111
l117 3q-3 64 -3 130q0 171 19 313q6 18 6 31q0 21 -16 23q-41 0 -50 31q-4 12 -9 12q-12 0 -16 -34z" />
    <glyph glyph-name="v" unicode="v" horiz-adv-x="348" 
d="M297 478q-17 19 -31 19q-19 0 -22 -43q-26 -94 -81 -285q-32 121 -80 285q-7 41 -22 41q-14 0 -32 -35q-39 32 -53 32q-7 0 -7 -8q0 -5 3 -11l143 -433q6 -37 48 -43q43 6 48 43q2 14 0 24q15 53 35 113q47 143 109 296q3 6 3 12q0 9 -12 9q-15 0 -49 -16z" />
    <glyph glyph-name="w" unicode="w" horiz-adv-x="538" 
d="M494 478q-17 19 -31 19q-20 0 -22 -43q-7 -19 -24 -122q-19 -110 -34 -163q-24 96 -81 285q-2 15 -9 28.5t-16 12.5q-8 4 -15 4q-21 0 -24 -22q-17 13 -34 13q-16 0 -13 -17l31 -92q-20 -74 -59 -212q-32 121 -80 285q-7 41 -22 41t-32 -35q-39 32 -53 32q-7 0 -7 -8
q0 -5 3 -11l143 -433q6 -37 48 -43q43 6 48 43q2 14 0 24q19 72 57 178l67 -202q5 -37 48 -43q42 6 48 43q2 14 -1 24q23 82 122 409q3 6 3 12q0 9 -12 9q-15 0 -49 -16z" />
    <glyph glyph-name="x" unicode="x" horiz-adv-x="433" 
d="M271 241q5 7 133 187q10 15 10 23q0 7 -5 12.5t-14 5.5q-17 0 -57 -22q-10 23 -28 25q-27 3 -51 -46q-16 -26 -52 -82l-54 84q-21 47 -50 44q-17 -2 -27 -25q-40 22 -58 22q-8 0 -13 -5.5t-5 -12.5q0 -8 10 -23l133 -187q-5 -8 -107 -175q-33 -35 -33 -55q0 -14 11.5 -21
t31.5 -2q53 -4 83 22q22 20 25 49q4 7 53 85l53 -85q3 -29 25 -49q29 -26 83 -22q42 -10 42 23q0 19 -32 56q-86 140 -107 174z" />
    <glyph glyph-name="y" unicode="y" horiz-adv-x="372" 
d="M280 500q-22 8 -37 8q-29 0 -29 -28q0 -5 1 -10q9 -72 11 -165q-64 -128 -101 -121q-19 -5 -19 92q0 69 9 169q2 15 2 26q0 32 -18 32q-12 0 -29 -13q-18 8 -31 8q-31 0 -31 -42q0 -9 2 -16q-5 -401 65 -427q9 -8 19 -8q34 0 66 89q17 34 63 69q-21 -273 -148 -275
q-42 -1 -70 -50q-5 -8 -5 -15q0 -18 40 -18q27 0 65 8q135 19 193 174q25 65 32 152l5 306q1 51 -55 55z" />
    <glyph glyph-name="z" unicode="z" horiz-adv-x="437" 
d="M342 118l-190 2q79 92 214 255h6q41 -1 39 30q7 18 7 33q0 27 -26 27q-7 0 -16 -2q-31 0 -325 13q-20 5 -37 5q-33 0 -39 -20q-4 -6 -4 -13q0 -8 8.5 -19.5t9.5 -16.5q-1 -64 57 -64q13 0 29 4q64 7 148 13q-31 -46 -196 -269q-28 -36 -28 -55q0 -14 10 -20.5t27 -2.5
q30 -2 53 10q158 -8 272 -20q6 -6 12 -6q31 0 38 100q-2 21 -34 21q-16 0 -35 -5z" />
    <glyph glyph-name="braceleft" unicode="{" horiz-adv-x="198" 
d="M168 -34q-71 8 -71 87q0 15 3 32q16 94 16 160q0 104 -41 145q41 42 41 145q0 66 -16 161q-3 17 -3 32q0 78 71 86q15 -2 27 -2q49 0 49 32q0 11 -5 22q4 9 4 15q0 20 -40 20q-27 0 -65 -9q-14 4 -26 4q-98 0 -107 -186q33 -114 33 -184q0 -83 -42 -91q-9 2 -17 2
q-30 0 -30 -26q0 -10 4 -21q-4 -10 -4 -20q0 -26 30 -26q8 0 17 1q42 -7 42 -91q0 -70 -33 -184q9 -186 107 -186q12 0 26 4q38 -8 65 -8q40 0 40 19q0 7 -4 15q5 12 5 22q0 32 -49 32q-12 0 -27 -2z" />
    <glyph glyph-name="bar" unicode="|" horiz-adv-x="227" 
d="M108 -16q-3 -1 -7 -1q-29 0 -36 51q0 602 9 748q9 47 25 47q11 0 23 -22q36 -5 39 -71l-5 -722q5 -6 5 -12q0 -20 -53 -18z" />
    <glyph glyph-name="braceright" unicode="}" horiz-adv-x="263" 
d="M34 -34q71 8 71 87q0 15 -3 32q-16 94 -16 160q0 104 41 145q-41 42 -41 145q0 66 16 161q3 17 3 32q0 78 -71 86q-15 -2 -27 -2q-49 0 -49 32q0 11 5 22q-4 9 -4 15q0 20 40 20q27 0 65 -9q14 4 26 4q98 0 107 -186q-33 -114 -33 -184q0 -83 42 -91q9 2 17 2
q30 0 30 -26q0 -10 -4 -21q4 -10 4 -20q0 -26 -30 -26q-8 0 -17 1q-42 -7 -42 -91q0 -70 33 -184q-9 -186 -107 -186q-12 0 -26 4q-38 -8 -65 -8q-40 0 -40 19q0 7 4 15q-5 12 -5 22q0 32 49 32q12 0 27 -2z" />
    <glyph glyph-name="asciitilde" unicode="~" horiz-adv-x="588" 
d="M409 275q39 22 82 73t43 82q0 16 -15 22q32 62 32 79q0 6 -4 6q-13 0 -58 -50q-40 -70 -112 -70q-19 0 -35 5q-9 5 -74 58q-45 37 -81 37q-32 0 -67 -27q-120 -93 -120 -187q0 -45 25 -45q16 0 31 25q41 70 101 70q34 0 64 -21q75 -48 85 -54q33 -18 55 -18q21 0 48 15z
" />
    <glyph glyph-name="dagger" unicode="&#x2020;" horiz-adv-x="288" 
d="M322 602q-51 1 -117 -2q7 41 15 71q12 29 12 48q0 24 -14 29q-24 -4 -36 14q-19 31 -36 31q-23 0 -37 -51l-7 -153q-82 -16 -81 -49q0 -14 22 -22q31 -9 54 -22q9 -724 18 -862q10 -48 28 -48q14 0 27 23q14 5 15 70l24 826q75 7 106 0q4 -2 7 -2q9 0 9 17q0 15 -7 40
q8 20 8 31q0 12 -10 11z" />
    <glyph glyph-name="cent" unicode="&#xa2;" horiz-adv-x="423" 
d="M361 514q2 -2 6 -2q45 0 115 198q6 20 6 39q0 50 -45 48q-23 40 -62 40q-23 0 -50 -15l16 94q8 26 8 41q0 23 -21 6q-9 31 -17 31q-6 0 -10 -24q-10 -39 -39 -196q-84 -83 -144 -175q-145 -221 -148 -454q7 -38 20 -70q33 -77 94 -106q19 0 42 4l-28 -171q13 -10 25 -10
q22 0 33 32q5 17 31 168q33 15 61 36q68 50 103 117q84 93 84 130q0 11 -10 16q-42 -5 -35 39q4 68 -13 68q-15 0 -46 -64q-47 -98 -118 -187l92 550q41 53 62 49q6 -7 6 -21q0 -48 -69 -136q-7 -46 51 -75zM149 79q-22 -14 -31 -12q-11 5 -11 39q0 80 62 275q23 75 58 158
q-34 -198 -78 -460z" />
    <glyph glyph-name="sterling" unicode="&#xa3;" horiz-adv-x="524" 
d="M411 595l4 -3q4 -1 54 37l5 4l14 -2q12 -10 33 -10q34 0 37 8q2 7 -7 15l-4 5l-1 7q-7 51 -80 123l-21 17q-28 17 -83 17q-46 0 -93 -10q-74 -22 -109 -55q-45 -44 -47 -122q0 -1 -2 -2q2 -80 -15 -217q-55 0 -104 -3q-39 -5 -39 -31q0 -9 6 -21h129q-23 -141 -62 -273
q-25 1 -54 -6q-39 -10 -36 -30q-54 -22 -54 -36q0 -12 28 -15q-3 -7 -3 -12q0 -18 38 -17q139 25 280 25q140 0 247 -22q15 -3 25 -3q20 0 20 11q0 16 -45 50q5 42 -20 56q-10 6 -25 5q-74 19 -143 19q-111 0 -183 -42q74 56 119 291q73 1 119 3q26 -1 26 6t-27 22
q11 6 11 10q0 12 -54 13h-65q8 51 23 186l-1 3q18 43 42 61q38 28 63 28q11 0 19 -5l9 -6q17 -18 17 -53q2 -19 9 -26z" />
    <glyph glyph-name="section" unicode="&#xa7;" horiz-adv-x="624" 
d="M494 115q-21 10 -47 16q39 35 79 70q74 76 74 141q0 17 -5 32q-8 74 -86 102q-47 17 -104 14q-50 7 -92 -8l-58 -16q-44 -12 -68 -12t-31 12l-6 31q0 59 37 122q47 79 117 107q41 16 71 12q64 -10 74 -42l2 -11q0 -25 -26 -49q-12 -15 -12 -25l1 -5q1 -3 64 -12l6 -1
l8 -11q2 -20 22.5 -37t25.5 -14q6 3 6 15l1 7l4 5q32 41 32 143l-3 27q-14 58 -80 91q-46 25 -98 25q-100 0 -216 -88q-72 -56 -104 -98q-110 -149 -110 -244q0 -29 11 -50q37 -68 109 -68q-111 -156 -111 -247q0 -51 38 -72q1 0 5 -2q34 -33 83 -33q33 0 73 16
q163 64 222 74q50 4 68 -27q7 -13 7 -27q0 -48 -105 -143q-41 -37 -67 -54q-66 -46 -127 -53q-5 -1 -14 -1q-24 0 -42 8q-23 11 -23 32q0 29 64 55q30 9 41 18q-5 4 -9 9q-17 6 -81 4q-70 -1 -123 -58q-48 -51 -44 -97q3 -16 12 -29q23 -32 75 -45q45 -17 94 -17
q180 0 357 198l2 2q98 114 98 197q0 76 -91 111zM237 309q84 70 163 70q13 0 25 -2q20 -3 33.5 -20t13.5 -41q0 -44 -47 -86q-184 -164 -270 -164q-48 0 -48 44q0 41 51 111q42 57 79 88z" />
    <glyph glyph-name="bullet" unicode="&#x2022;" horiz-adv-x="305" 
d="M205 474q-51 58 -103 58q-20 0 -42 -11l-20 -10q-40 -27 -40 -99q0 -52 24 -87q51 -59 103 -59q20 0 42 12q6 2 19 10q34 23 34 83q0 29 -8 66q-4 18 -9 37z" />
    <glyph glyph-name="paragraph" unicode="&#xb6;" horiz-adv-x="607" 
d="M578 765q3 6 3 11q0 19 -39 18l-33 -1q-12 1 -262 1q-128 0 -214 -64t-86 -161q5 -75 34 -130q69 -131 243 -140l-1 -520v0q-5 -114 -9 -151q-3 -8 -3 -13q0 -10 12 -10q19 0 60 23q18 -10 31 -10q33 0 35 50l9 637h38l-11 -653q3 -48 34 -48q13 0 31 9q40 -23 55 -23
q8 0 8 7q0 5 -6 16q-2 18 -2 75q0 93 10 513q9 383 7 476q17 -1 24.5 8.5t5.5 27.5q54 22 54 36q0 12 -28 16zM234 455l-60 2q-49 4 -77 24q-38 26 -40 83q-3 78 87 111q49 18 97 17q-3 -117 -7 -237zM360 448l3 238l39 -5l-4 -233h-38z" />
    <glyph glyph-name="germandbls" unicode="&#xdf;" horiz-adv-x="488" 
d="M148 -4l-20 583q-3 19 -3 35q0 67 42 72q33 -6 42 -8q18 -6 36 -22q65 -81 65 -147q0 -33 -19 -56q-26 -15 -72 -15q-12 0 -24 1v-79q35 1 62 7q7 -5 25 -18q20 -24 41 -59q40 -69 40 -121q0 -24 -31 -59q-14 -9 -61 -14q-35 -4 -69 -7l1 -103q77 2 194 55q30 19 59 48
q56 57 56 110q0 32 -17 85q-31 92 -102 155v0l-1 1q48 48 48 93q0 30 -18 79q-32 87 -104 141v0q-1 0 -1 1q-17 12 -47 27q-33 18 -56 25q-12 3 -37 7q-29 5 -54 8q-1 0 -4 2l-54 6q-40 5 -52 -53q-5 -25 -4 -60q19 -154 19 -366q0 -32 -1 -48q-2 -62 -27 -315
q-11 -35 2 -51q8 -9 23 -9q13 0 32 8q2 1 4 0q9 -4 17 -30v-3l2 -1q10 -14 25 -14q39 0 42 129l1 71v-91z" />
    <glyph glyph-name="acute" unicode="&#xb4;" horiz-adv-x="288" 
d="M239 996q18 17 18 33q0 22 -38 33q3 91 -10 91q-7 0 -19 -38q-8 -20 -16 -41q-18 -32 -65 -64q-37 -29 -109 -74q23 -65 65 -65q9 0 17 3q18 8 104 64q54 41 54 55q0 2 -1 3z" />
    <glyph glyph-name="dieresis" unicode="&#xa8;" horiz-adv-x="329" 
d="M302 1000q-3 24 -9 41q-16 41 -50 44q-48 3 -64 -64q-27 -26 -27 -50q0 -18 19 -30q39 -20 39 -53q0 -5 -1 -10q-2 -16 5 -16q6 0 16 12q1 -4 13 0q67 34 59 126zM81 1073q-43 3 -57 -56q-24 -24 -24 -45q0 -16 17 -27q40 -21 33 -56q-1 -15 5 -15q5 0 14 11h12
q5 0 22 30q-2 38 15 42q19 17 15 41q-2 21 -8 36q-14 37 -44 39z" />
    <glyph glyph-name="AE" unicode="&#xc6;" horiz-adv-x="778" 
d="M831 767q3 6 3 11q0 20 -40 19q-147 -5 -321 -6q-9 33 -75 33q-22 0 -50 -4l-1 -28q-27 1 -64 1q0 5 1 14q-9 2 -23 3q-16 33 -29 33q-14 0 -26 -34q8 1 -27 1q-19 0 -19 -28q-17 -14 -6 -34q-28 -174 -123 -476l-70 -1q-36 -3 -36 -29q0 -11 6 -24q-18 -35 -18 -50
q0 -8 7 -8q4 0 9 2q19 2 68 5q-13 -41 -49 -137q-6 -15 -6 -28q0 -22 20 -22q14 0 35 10q31 -23 50 -23q18 0 19 23q26 78 60 183q77 2 202 6l-3 -72q-29 -16 -25 -62q-47 -36 -47 -53q0 -10 22 -10q10 0 25 2l18 1q-1 -2 -1 -5q-3 -8 -3 -14q0 -10 13 -10q19 0 62 24
q16 -9 30 -9q20 0 30 15q166 0 264 -5q41 -1 41 18q0 6 -4 12q30 14 30 16q0 16 -57 39q3 38 -28 38q-10 0 -23 -4q-16 -4 -214 5l6 283l135 18q38 10 38 32q0 16 -24 36q18 15 18 26q0 19 -63 19q-41 0 -102 -8l4 163q255 11 283 4q13 -5 23 -5q30 0 28 39q56 23 56 38
q0 13 -29 17zM158 275q13 45 108 398h73l-4 -395z" />
    <glyph glyph-name="Oslash" unicode="&#xd8;" horiz-adv-x="524" 
d="M361 821l13 88q5 22 5 37q0 18 -8 18q-5 0 -13 -9q-12 30 -19 30t-9 -25q-5 -29 -21 -126q-37 7 -77 6q-129 8 -203 -161q-7 -13 -21 -76q-43 -184 -43 -256q0 -41 14 -41q6 0 14 8q8 -25 20 -36q46 -277 165 -308l-22 -142q13 -9 24 -9q23 0 32 35q3 14 18 112
q66 3 125 70q93 108 143 354q15 72 15 136q0 147 -76 235q-32 37 -76 60zM144 376q-2 27 -2 60q0 111 20 185q28 109 95 109q8 0 18 -2q6 -1 17 -4l-93 -608q-14 24 -25 59q-26 82 -30 201zM406 425q-37 -202 -90 -285q-33 -53 -67 -52l94 618q79 -55 79 -173
q0 -50 -16 -108z" />
    <glyph glyph-name="yen" unicode="&#xa5;" horiz-adv-x="583" 
d="M525 770q-31 24 -56 24q-36 0 -41 -57q-33 -69 -76 -186q-55 -153 -70 -190q-14 35 -70 190q-42 117 -75 186q-13 54 -40 54q-26 0 -57 -45q-72 41 -97 41q-12 0 -12 -10q0 -6 4 -15l221 -486q-60 0 -110 -3q-40 -4 -40 -31q0 -9 6 -20l169 -1l10 -22l2 -40
q-119 -1 -175 -3q-25 1 -25 -6t26 -22q-10 -8 -10 -13q0 -13 54 -9h131q1 -20 1 -19q-2 -46 -3 -66q-1 -8 5 -15l1 -15q3 -48 50 -48q20 0 46 10q59 -23 87 -23q17 0 17 11q0 5 -4 12q-6 38 -13 153q83 1 104 2q40 5 40 31q0 10 -6 21h-142l-1 16l2 47q89 1 135 3
q25 -2 25 5q0 8 -26 22q10 6 10 11q0 11 -54 12h-78q28 68 62 141q82 174 178 345q5 8 5 15q0 12 -22 12q-28 0 -88 -19z" />
    <glyph glyph-name="ordfeminine" unicode="&#xaa;" horiz-adv-x="354" 
d="M314 569q-4 -2 -9 -4q-8 0 -22 2q-5 1 -13 3q2 29 2 56q0 189 -103 186q-78 -3 -107 -49q-9 -15 -22 -73q-6 -26 -6 -53q0 -30 10 -30t27 28q38 56 73 56q9 0 17 -5q36 -18 36 -98q-18 3 -36 3q-57 0 -101 -34q-38 -29 -47 -67q-13 -51 -13 -88q0 -105 91 -119
q8 -2 16 -2q46 0 82 42q-1 -5 -5 -22t-4 -21q0 -7 18 -7q15 0 42 4q10 -2 18 -2q25 0 21 24v180q9 -2 31 -8q5 0 10.5 -1t7.5 -1q11 0 14 37q1 48 -28 63zM142 392q-15 -16 -28 -16q-27 0 -27 75q13 46 99 42q-16 -69 -44 -101z" />
    <glyph glyph-name="ordmasculine" unicode="&#xba;" horiz-adv-x="336" 
d="M141 800q-83 5 -119 -84q-25 -62 -25 -159q0 -35 3 -63q18 -226 129 -235q8 -2 15 -2q74 0 125 132q22 55 37 132q13 54 13 98q0 116 -89 160q-37 18 -89 21zM227 541q-30 -163 -67 -163q-3 0 -7 2q-12 3 -20 17q-21 35 -23 120q-7 183 58 169q67 -14 67 -91
q0 -24 -8 -54z" />
    <glyph glyph-name="ae" unicode="&#xe6;" horiz-adv-x="543" 
d="M516 289q13 52 13 89q0 106 -92 121q-9 1 -17 1q-108 0 -152 -204q-3 0 -7 -1q4 86 -13 138q-23 74 -86 72q-74 -3 -102 -47q-9 -14 -22 -70q-5 -26 -5 -51q0 -28 9 -28q10 0 26 26q37 54 70 54q9 0 17 -5q34 -18 34 -94q-17 3 -34 3q-55 0 -97 -33q-37 -28 -46 -64
q-12 -49 -12 -84q0 -101 87 -115q8 -1 16 -1q44 0 78 39q0 -4 -4.5 -20.5t-4.5 -19.5q0 -8 18 -8q14 0 40 5q10 -3 17 -3q24 0 21 24v27q24 -78 90 -76q78 3 108 50q9 14 22 73q6 27 6 54q0 30 -10 30q-9 0 -27 -28q-38 -56 -73 -56q-10 0 -18 4q-36 19 -36 100q18 -4 36 -4
q58 0 102 34q38 30 48 68zM136 102q-14 -15 -27 -15q-25 0 -25 72q12 43 95 40q-16 -66 -43 -97zM341 286q16 70 45 102q15 16 28 16q27 0 27 -75q-13 -47 -100 -43z" />
    <glyph glyph-name="oslash" unicode="&#xf8;" horiz-adv-x="314" 
d="M216 495l13 86q4 22 4 37q0 17 -6 17q-4 0 -11 -8q-8 29 -15 29q-5 0 -7 -24q0 -1 -20 -126q-18 3 -39 2q-79 5 -114 -81q-24 -59 -24 -152q0 -33 3 -60q14 -174 95 -221l-16 -104q10 -8 19 -8q20 0 26 35q3 13 12 72q39 3 74 44q54 64 83 208q9 43 9 80q0 127 -86 174z
M105 237q-5 98 18 138q14 24 35 24l-40 -255q-5 19 -13 93zM218 260q-25 -147 -64 -155l44 278q27 -26 27 -75q0 -23 -7 -48z" />
    <glyph glyph-name="questiondown" unicode="&#xbf;" horiz-adv-x="354" 
d="M204 649q19 14 19 40q0 21 -14 47q2 21 -3 36q-29 22 -57 22q-16 0 -29 -9q-18 -12 -18 -45q0 -29 16 -77q30 -23 57 -23q17 0 29 9zM27 91q91 -103 166 -103q48 0 80 46l58 35q16 13 16 32q0 21 -22 52q-14 19 -28.5 40.5t-42.5 21.5q-10 0 -18 -2q-59 -20 -59 -42
q1 -18 34 -22q31 -9 31 -22q0 -8 -11 -14.5t-17 -6.5q-54 -6 -111 53q-41 33 -58 60q-10 14 -10 15q-1 6 -1 11q0 27 31 31q19 3 43 0q18 -2 19 -3q19 -6 43 -16q15 -5 18 -5q-1 0 9.5 -2t19.5 -2q63 0 85 83q5 18 5 48q0 59 -17 119q-19 68 -52.5 96.5t-71.5 28.5
q-26 0 -49 -15q7 -13 31 -92q26 -83 28 -104q2 -25 -11 -36q-34 18 -65 19q-8 2 -17 2q-44 0 -82 -40q-46 -37 -49 -92q-5 -77 75 -174z" />
    <glyph glyph-name="exclamdown" unicode="&#xa1;" horiz-adv-x="275" 
d="M180 642q27 13 27 50q0 15 -6 34q7 21 5 36q-31 34 -62 34q-11 0 -20 -4q-29 -12 -29 -74q0 -17 3 -46q31 -34 62 -34q10 0 20 4zM128 14q46 5 52 70l21 485q6 7 6 13q0 19 -59 16q-4 2 -9 2q-30 0 -46 -51q-17 -381 -18 -510q6 -48 24 -48q14 0 29 23z" />
    <glyph glyph-name="florin" unicode="&#x192;" horiz-adv-x="345" 
d="M305 503q-55 1 -106 0q-3 34 9 92q12 62 28 85q8 6 15 6q22 0 27 -58q-9 -22 -9 -32q0 -9 7 -9q12 0 42 26q38 38 38 81q0 65 -103 93q-47 13 -79 13q-69 0 -69 -53q0 -10 3 -19q-5 -46 -8 -236l-15 -2q-82 -9 -81 -49q0 -13 22 -22q31 -9 54 -22l10 -198q1 -30 1 -58
q0 -280 -131 -283q-15 2 -27 2q-49 0 -49 -31q0 -10 6 -21q-5 -9 -5 -15q0 -19 40 -19q27 0 65 9q115 18 166 174q21 65 28 151l9 292l40 6q25 4 39 2q9 -9 15 -9q16 0 20 41q25 30 25 46q0 18 -27 17z" />
    <glyph glyph-name="guillemotleft" unicode="&#xab;" horiz-adv-x="367" 
d="M187 216q8 16 8 28q0 17 -20 20q-10 6 -135 151l135 150q19 7 19 20q0 12 -16 28q15 35 15 47q0 6 -4 6q-2 0 -5 -2q-207 -203 -225 -249q5 -14 29 -43q57 -70 196 -207q3 -2 5 -2q5 0 5 11q0 14 -7 42zM329 216q9 16 9 28q0 17 -21 20q-10 6 -134 151l134 150
q20 7 20 20q0 12 -17 28q15 35 15 47q0 6 -3 6t-6 -2q-207 -203 -225 -249q6 -14 29 -43q57 -70 196 -207q3 -2 5 -2q5 0 5 11q0 14 -7 42z" />
    <glyph glyph-name="guillemotright" unicode="&#xbb;" horiz-adv-x="350" 
d="M142 216q-8 16 -8 28q0 17 20 20q10 6 135 151l-135 150q-20 7 -20 20q0 12 17 28q-15 35 -15 47q0 6 4 6q2 0 5 -2q207 -203 225 -249q-5 -14 -29 -43q-57 -70 -196 -207q-3 -2 -5 -2q-5 0 -5 11q0 14 7 42zM0 216q-9 16 -9 28q0 17 21 20q10 6 134 151l-134 150
q-20 7 -20 20q0 12 17 28q-15 35 -15 47q0 6 3 6t6 -2q207 -203 225 -249q-6 -14 -29 -43q-57 -70 -196 -207q-3 -2 -5 -2q-5 0 -5 11q0 14 7 42z" />
    <glyph glyph-name="ellipsis" unicode="&#x2026;" horiz-adv-x="562" 
d="M109 114q-30 34 -61 34q-11 0 -20 -4q-28 -13 -28 -49q0 -16 6 -35q-6 -21 -4 -36q30 -34 62 -34q10 0 19 4q30 12 30 74q0 17 -4 46zM297 114q-30 34 -61 34q-11 0 -20 -4q-28 -13 -28 -49q0 -16 6 -35q-6 -21 -4 -36q30 -34 62 -34q10 0 19 4q30 12 30 74q0 17 -4 46z
M485 114q-30 34 -61 34q-11 0 -20 -4q-28 -13 -28 -49q0 -16 6 -35q-6 -21 -4 -36q30 -34 62 -34q10 0 19 4q30 12 30 74q0 17 -4 46z" />
    <glyph glyph-name="OE" unicode="&#x152;" horiz-adv-x="814" 
d="M876 767q3 6 3 11q0 20 -40 19q-147 -5 -321 -6q-8 33 -57 33q-17 0 -38 -4l-1 -28q-26 1 -47 2h-2q-63 33 -154 30q-129 9 -203 -160q-7 -13 -21 -76q-43 -184 -43 -256q0 -41 14 -41q7 0 14 8q8 -25 20 -36q22 -133 57 -202q56 -111 158 -111q55 0 119 57q-4 -6 -4 -12
q0 -13 24 -13q9 0 21 2l18 1q0 -2 -1 -5q-3 -8 -3 -14q0 -10 13 -10q19 0 62 24q5 -9 12 -9q9 0 19 15q165 0 263 -5q41 -1 41 18q0 6 -3 12q29 14 29 16q0 16 -57 39q3 38 -28 38q-10 0 -23 -4q-16 -4 -214 5l6 283l136 18q37 10 37 32q0 16 -24 36q18 15 18 26
q0 19 -63 19q-40 0 -101 -8l3 163q255 11 283 4q13 -5 23 -5q30 0 28 39q57 23 57 38q0 13 -30 17zM393 410q-68 -339 -149 -339q-8 0 -17 4q-26 6 -45 36q-46 72 -51 250q-2 27 -2 60q0 111 20 185q28 109 95 109q8 0 18 -2q43 -9 74 -30q75 -52 75 -159q0 -51 -18 -114z
" />
    <glyph glyph-name="oe" unicode="&#x153;" horiz-adv-x="536" 
d="M503 289q13 52 13 89q0 106 -92 121q-8 1 -17 1q-72 0 -118 -99q-35 96 -154 92q-79 5 -114 -81q-24 -59 -24 -152q0 -33 3 -60q17 -217 124 -226q6 -1 11 -1q60 0 112 97q21 -108 98 -106q79 3 108 50q10 14 23 73q6 27 6 54q0 30 -11 30q-9 0 -27 -28q-38 -56 -73 -56
q-10 0 -18 4q-36 19 -36 100q18 -4 36 -4q58 0 102 34q38 30 48 68zM147 91q-11 2 -20 16q-19 33 -22 115q-6 176 57 162q59 -8 62 -81q-7 1 -21 6h-11q-6 1 -7 1q-11 0 -14 -37q-2 -48 28 -63q-2 3 6 3q3 1 7 0q-28 -124 -58 -124q-4 0 -7 2zM328 286q17 70 45 102
q15 16 28 16q27 0 27 -75q-13 -47 -100 -43z" />
    <glyph glyph-name="endash" unicode="&#x2013;" horiz-adv-x="680" 
d="M510 302q24 -3 42 -3q59 0 59 30q0 11 -7 22q25 18 25 30q0 18 -48 19q-40 -1 -89 -1q-165 0 -386 17q-14 6 -27 6q-47 0 -65 -68q-14 -16 -14 -27q0 -34 104 -29q251 8 406 4z" />
    <glyph glyph-name="emdash" unicode="&#x2014;" horiz-adv-x="916" 
d="M701 302q33 -3 59 -3q80 0 80 30q0 11 -9 22q34 18 34 30q0 18 -66 19q-55 -1 -123 -1q-227 0 -531 17q-19 6 -36 6q-65 0 -90 -68q-19 -16 -19 -27q0 -34 142 -29q346 8 559 4z" />
    <glyph glyph-name="quotedblleft" unicode="&#x201c;" horiz-adv-x="337" 
d="M252 745q-41 22 -34 57q1 14 -5 14q-4 0 -14 -10h-11q-6 0 -27 -20q-6 -8 -17 -32q-11 -35 -9 -61q2 -21 8 -36q14 -37 45 -39q42 -3 56 56q25 24 25 45q0 16 -17 26zM117 745q-41 22 -34 57q1 14 -5 14q-5 0 -14 -10h-11q-6 0 -28 -20q-5 -8 -16 -32q-11 -35 -9 -61
q2 -21 8 -36q14 -37 45 -39q42 -3 56 56q24 24 24 45q0 16 -16 26z" />
    <glyph glyph-name="quotedblright" unicode="&#x201d;" horiz-adv-x="332" 
d="M81 806q-43 3 -57 -57q-24 -24 -24 -44q0 -17 17 -27q40 -22 33 -57q-1 -14 5 -14q5 0 14 11h12q5 0 27 20q6 7 16 31q11 35 9 61q-2 21 -8 37q-14 36 -44 39zM269 730q-3 21 -8 37q-15 36 -45 39q-43 3 -56 -57q-25 -24 -25 -44q0 -17 17 -27q41 -22 34 -57
q-2 -14 5 -14q4 0 14 11h11q6 0 27 20q6 7 16 31q11 35 10 61z" />
    <glyph glyph-name="quoteleft" unicode="&#x2018;" horiz-adv-x="187" 
d="M0 693q2 -21 8 -36q14 -37 45 -39q42 -3 56 56q24 24 24 45q0 16 -16 26q-41 22 -34 57q1 14 -5 14q-5 0 -14 -10h-11q-6 0 -28 -20q-5 -8 -16 -32q-11 -35 -9 -61z" />
    <glyph glyph-name="quoteright" unicode="&#x2019;" horiz-adv-x="214" 
d="M133 730q-2 21 -8 37q-14 36 -44 39q-43 3 -57 -57q-24 -24 -24 -44q0 -17 17 -27q40 -22 33 -57q-1 -14 5 -14q5 0 14 11h12q5 0 27 20q6 7 16 31q11 35 9 61z" />
    <glyph glyph-name="currency" unicode="&#xa4;" horiz-adv-x="461" 
d="M403 524q2 -2 7 -2q46 0 119 206q5 20 5 39q0 53 -46 50q-26 41 -68 41q-33 0 -70 -29q-170 -135 -259 -333q-93 0 -144 -3q-41 -4 -41 -32q0 -9 6 -21l156 -1q-12 -30 -22 -64q-105 -1 -159 -3q-26 1 -26 -6q0 -8 27 -23q-10 -8 -10 -14q0 -13 55 -10h98q-8 -31 -13 -61
q-13 -70 -13 -115q7 -41 21 -74q33 -79 96 -109q55 3 103 21q114 45 174 162q87 95 87 133q0 12 -10 17q-44 -5 -37 41q3 71 -15 71q-15 0 -46 -67q-159 -288 -227 -277q-12 4 -12 35q0 62 45 224q98 1 125 2q40 5 40 32q0 10 -5 22h-143q1 3 3 10q7 24 18 54q95 2 147 4
q26 -2 26 6q0 7 -28 22q11 7 11 12q0 11 -56 12h-79q111 280 172 268q6 -7 6 -22q0 -49 -71 -140q-8 -47 53 -78z" />
    <glyph glyph-name="guilsinglleft" unicode="&#x2039;" horiz-adv-x="235" 
d="M195 216q9 16 9 28q0 17 -20 20q-11 6 -135 151l135 150q19 7 19 20q0 12 -16 28q14 35 14 47q0 6 -3 6q-2 0 -5 -2q-207 -203 -225 -249q5 -14 28 -43q57 -70 197 -207q2 -2 5 -2q4 0 4 11q0 14 -7 42z" />
    <glyph glyph-name="guilsinglright" unicode="&#x203a;" horiz-adv-x="219" 
d="M0 216q-9 16 -9 28q0 17 21 20q10 6 134 151l-134 150q-20 7 -20 20q0 12 17 28q-15 35 -15 47q0 6 3 6t6 -2q207 -203 225 -249q-6 -14 -29 -43q-57 -70 -196 -207q-3 -2 -5 -2q-5 0 -5 11q0 14 7 42z" />
    <glyph glyph-name="daggerdbl" unicode="&#x2021;" horiz-adv-x="307" 
d="M323 602q-51 1 -117 -2q6 41 16.5 70.5t10.5 48.5q0 24 -14 29q-24 -4 -37 14q-18 31 -35 31q-23 0 -38 -51l-7 -153q-81 -16 -80 -49q0 -14 22 -22q31 -9 54 -22l1 -111q-78 -16 -77 -48q0 -14 22 -22q31 -9 54 -22h3q8 -595 14 -659q11 -48 29 -48q13 0 27 23
q14 5 15 70l18 622q67 4 81 1q4 -2 7 -2q10 0 10 17q0 15 -8 40q9 20 9 31q0 12 -10 11l-87 -6l3 112q76 7 106 0q4 -2 7 -2q10 0 10 17q0 15 -8 40q9 20 9 31q0 12 -10 11z" />
    <glyph glyph-name="periodcentered" unicode="&#xb7;" horiz-adv-x="178" 
d="M28 475q-28 -13 -28 -49q0 -16 6 -35q-6 -21 -4 -36q30 -34 62 -34q10 0 19 4q30 12 30 74q0 17 -4 46q-30 34 -61 34q-11 0 -20 -4z" />
    <glyph glyph-name="periodcentered" unicode="&#x2219;" horiz-adv-x="178" 
d="M28 475q-28 -13 -28 -49q0 -16 6 -35q-6 -21 -4 -36q30 -34 62 -34q10 0 19 4q30 12 30 74q0 17 -4 46q-30 34 -61 34q-11 0 -20 -4z" />
    <glyph glyph-name="periodcentered" unicode="&#x2219;" horiz-adv-x="178" 
d="M28 475q-28 -13 -28 -49q0 -16 6 -35q-6 -21 -4 -36q30 -34 62 -34q10 0 19 4q30 12 30 74q0 17 -4 46q-30 34 -61 34q-11 0 -20 -4z" />
    <glyph glyph-name="quotesinglbase" unicode="&#x201a;" horiz-adv-x="202" 
d="M131 76q0 43 -31 60q-17 10 -33 10q-29 0 -48.5 -18.5t-19.5 -43.5q0 -29 20 -74q24 -53 49 -53q46 0 63 119z" />
    <glyph glyph-name="quotedblbase" unicode="&#x201e;" horiz-adv-x="314" 
d="M177 146q-37 0 -57 -29q-18 29 -53 29q-29 0 -48.5 -18.5t-19.5 -43.5q0 -29 20 -74q24 -53 49 -53q34 0 54 76q26 -76 56 -76q46 0 63 119q0 43 -31 60q-16 10 -33 10z" />
    <glyph glyph-name="perthousand" unicode="&#x2030;" horiz-adv-x="811" 
d="M388 783zM391 790q-2 -4 -3 -7q10 -5 -294 -748q-14 -27 -14 -40q0 -7 7 -7q5 0 14 5q4 -26 13 -26q6 0 14 19q25 54 325 819q-13 9 -25 9q-22 0 -37 -24zM649 480q-10 1 -25 -4q-66 10 -89 -73q-32 81 -120 77q-9 1 -24 -4q-77 12 -94 -99q-13 -34 -13 -50q0 -13 8 -13
q5 0 12 4q-5 -50 1 -136q15 -220 101 -229q6 -1 11 -1q78 0 122 218q7 -74 24 -129q29 -92 76 -88q6 -1 12 -1q86 0 127 257q10 52 10 95q0 114 -70 156q-29 18 -69 20zM477 214q-28 -184 -61 -184q-3 0 -7 2q-10 3 -18 20q-19 38 -21 135q-6 192 46 192q4 0 7 -1
q61 -16 61 -102q0 -28 -7 -62zM710 214q-28 -184 -61 -184q-3 0 -7 2q-10 3 -18 20q-19 38 -21 135q-6 192 46 192q4 0 8 -1q61 -16 61 -102q0 -28 -8 -62zM244 520q10 52 10 95q0 114 -70 156q-29 18 -69 20q-10 1 -25 -4q-77 11 -94 -99q-13 -34 -13 -50q0 -13 9 -13
q5 0 11 4q-5 -51 1 -136q15 -220 101 -229q6 -1 12 -1q86 0 127 257zM69 498q-6 192 46 192q4 0 8 -1q61 -16 61 -102q0 -28 -8 -62q-28 -184 -61 -184q-3 0 -7 2q-10 3 -18 20q-19 38 -21 135z" />
    <glyph glyph-name="circumflex" unicode="&#x2c6;" horiz-adv-x="367" 
d="M280 997l-42 92q-17 37 -35 37q-4 0 -10 -2q-20 -6 -28 -29q-16 -41 -40 -73q-32 -43 -59 -58q-16 -7 -33 -14q-33 -10 -33 -17q0 -12 74 -17q8 -40 27 -40q13 0 26 15q2 -2 4 -2q12 0 48 50q16 23 29 44q10 -24 24 -41q34 -43 78 -50q24 18 24 27q0 6 -17 25
q-22 26 -37 53z" />
    <glyph glyph-name="tilde" unicode="&#x2dc;" horiz-adv-x="373" 
d="M263 891q24 14 51.5 46.5t27.5 52.5q0 11 -9 15q20 39 20 50q0 4 -2 4q-9 0 -38 -32q-25 -45 -71 -45q-13 0 -23 3q-6 3 -47 37q-29 24 -52 24q-21 0 -43 -17q-77 -60 -77 -120q0 -29 16 -29q10 0 20 16q26 45 65 45q22 0 41 -14q72 -46 89 -46q14 0 32 10z" />
    <glyph glyph-name="macron" unicode="&#xaf;" horiz-adv-x="321" 
d="M242 909q11 -3 20 -3q27 0 27 30q0 11 -3 22q12 18 12 30q0 18 -23 20q-19 -2 -42 -2q-78 0 -183 17q-7 6 -13 6q-23 0 -30 -68q-7 -15 -7 -27q0 -33 49 -28q119 8 193 3z" />
    <glyph glyph-name="macron" unicode="&#x2c9;" horiz-adv-x="321" 
d="M242 909q11 -3 20 -3q27 0 27 30q0 11 -3 22q12 18 12 30q0 18 -23 20q-19 -2 -42 -2q-78 0 -183 17q-7 6 -13 6q-23 0 -30 -68q-7 -15 -7 -27q0 -33 49 -28q119 8 193 3z" />
    <glyph glyph-name="macron" unicode="&#x2c9;" horiz-adv-x="321" 
d="M242 909q11 -3 20 -3q27 0 27 30q0 11 -3 22q12 18 12 30q0 18 -23 20q-19 -2 -42 -2q-78 0 -183 17q-7 6 -13 6q-23 0 -30 -68q-7 -15 -7 -27q0 -33 49 -28q119 8 193 3z" />
    <glyph glyph-name="cedilla" unicode="&#xb8;" horiz-adv-x="269" 
d="M218 -69v0q-13 7 -36 11q2 4 29 56h-76q-20 -57 -35 -74q-19 -5 -23 -16q-4 -10 7 -20q15 -15 35 -15q11 0 24 8q34 -4 39 -19q2 -3 -7 -31q-37 -65 -71 -66q-31 1 -32 22q-4 26 -19 26h-1q-14 0 -29 -28q-16 4 -22 -12q-2 -8 -1 -22q18 -68 78 -65q100 0 151 119
q16 41 16 74q0 40 -27 52z" />
    <glyph glyph-name="Scaron" unicode="&#x160;" horiz-adv-x="598" 
d="M495 453q-50 25 -104 25q-33 0 -62 -9.5t-58 -17.5q-44 -12 -68 -12t-31 12l-6 31q0 59 37 122q46 79 117 107q41 16 71 12q64 -10 74 -42l1 -11q0 -25 -25 -49q-12 -15 -12 -25l1 -5q1 -3 64 -12l6 -1l8 -12q2 -19 22.5 -36t25.5 -14q6 3 6 15l1 7l4 5q32 40 32 143
l-3 27q-14 58 -80 91q-46 25 -98 25q-100 0 -216 -88q-72 -56 -104 -98q-110 -149 -110 -244q0 -29 11 -50q36 -66 107 -66q32 0 75 13l9 3q1 0 27 12l71 33q34 11 115 26q58 5 75 -31q6 -12 6 -27q0 -12 -6 -19q-19 -42 -105 -119q-42 -37 -67 -55q-67 -45 -127 -52
q-5 -2 -14 -2q-24 0 -42 9q-23 11 -23 31q0 29 63 56q31 8 42 17l-9 9q-17 6 -81 5q-70 -2 -123 -59q-48 -51 -44 -96q3 -17 12 -30q23 -32 74 -45q46 -16 95 -16q180 0 357 197l2 2q98 114 98 197q0 77 -91 111zM260 1045l34 -14q27 -15 58 -57q25 -33 40 -73q9 -24 29 -30
q5 -2 9 -2q19 0 36 37q21 46 41 92q15 27 38 53q17 19 17 25q0 9 -24 27q-67 -10 -103 -90q-12 20 -28 43q-37 50 -49 50q-2 0 -3 -2q-14 15 -27 15q-19 0 -26 -40q-75 -5 -75 -17q0 -7 33 -17z" />
    <glyph glyph-name="trademark" unicode="&#x2122;" horiz-adv-x="654" 
d="M189 754q6 -2 10 -2q14 0 13 17q25 10 25 17q0 6 -13 7q2 3 2 6q0 9 -19 8q-32 -1 -79 -2v1q-27 4 -45 -1q-55 -2 -109 1q-7 1 -11 1q-10 0 -10 -5q0 -8 21 -24q-2 -20 9 -26q5 -3 12 -3q34 2 78 4q1 -45 6 -303q1 -23 16 -23q6 0 15 4q19 -10 27 -10q6 0 6 5q0 2 -1 5
q-6 47 -13 324q51 1 60 -1zM636 456q-38 178 -62 340l-1 4q-2 12 -9 15q-9 4 -19 -12l-4 -2l-3 1q-13 1 -25 1l-2 -2l-5 -1q-9 -1 -12 -24v-1l-1 -2q-5 -11 -37 -102l-46 -131l-8 24l-37 107q-17 44 -38 104q-1 5 -6 17l-2 3l-1 1q-3 3 -18 -9l-2 -1h-3q-9 0 -21 3
q-8 2 -12 0l-4 -1l-5 -20l1 -2l-72 -322q-1 -4 -1 -7q0 -2 1 -3q6 -5 26 2l3 1l4 -2q14 -19 22 -19q3 0 9 10v2q3 36 41 215l6 29l82 -199q3 -20 35 -24q37 4 37 31q0 4 -1 7l-1 3l1 2q22 67 77 186l12 26l45 -269q7 -13 17 -13q8 0 23.5 14t15.5 20v0z" />
    <glyph glyph-name="scaron" unicode="&#x161;" horiz-adv-x="395" 
d="M236 316q2 0 -62 -28q-15 -10 -65 -15q-40 -1 -34 26q-1 1 8 14q15 23 54 56q14 15 34 29q41 29 77 33q6 2 19 -1t13 -10q0 -9 -31 -22q-33 -9 -33 -22v-1q2 -16 67 -20q42 -2 60 28q12 17 25 34q19 26 19 41q0 17 -20 25l-64 15q-29 20 -64 20q-88 0 -188 -113
q-63 -76 -63 -127q0 -55 63 -78q31 -16 67 -16q22 0 41 7q32 7 66 27q15 -5 15 -24q0 -31 -21 -67q-38 -67 -100 -65q-34 5 -34 19q0 10 11 20q12 14 12 25q0 19 -25 22q-31 26 -48 26q-20 0 -20 -22q-35 -43 -35 -81q0 -57 58 -82q29 -16 63 -16q64 0 137 56q46 35 65 61
q69 94 69 153q0 21 -8 37q-26 47 -76 47q-17 0 -35 -5q-8 -3 -17 -6zM80 715q17 -8 34 -15q27 -15 59 -57q24 -33 39 -73q9 -23 29 -30q5 -2 10 -2q18 0 35 37l42 92q15 27 37 53q17 19 17 25q0 9 -24 27q-66 -10 -102 -90q-13 20 -29 43q-37 50 -49 50q-2 0 -3 -2
q-14 15 -26 15q-20 0 -27 -40q-74 -5 -74 -17q0 -7 32 -16z" />
    <glyph glyph-name="Ydieresis" unicode="&#x178;" horiz-adv-x="557" 
d="M630 777q5 8 5 15q0 12 -22 12q-28 0 -88 -19q-31 24 -56 24q-35 0 -41 -57q-33 -69 -75 -186q-56 -153 -70 -190q-15 35 -70 190q-43 117 -76 186q-13 54 -40 54q-26 0 -57 -45q-72 41 -97 41q-12 0 -12 -10q0 -6 4 -15l257 -563q3 -110 3 -112q0 -34 -3 -66
q-1 -8 5 -15l1 -15q3 -48 50 -48q20 0 46 10q59 -23 87 -23q18 0 18 11q0 5 -5 12q-7 49 -17 223l3 74q28 69 63 145q83 182 187 367zM289 941q39 -20 39 -53q0 -5 -1 -10q-1 -16 6 -16q5 0 15 12q1 -4 13 0q68 34 59 126q-2 24 -9 41q-16 41 -50 44q-47 3 -63 -64
q-27 -26 -27 -50q0 -18 18 -30zM135 945q41 -21 34 -56q-1 -15 5 -15q5 0 14 11h11q6 0 23 30q-3 38 15 42q18 17 15 41q-2 21 -8 36q-14 37 -45 39q-42 3 -56 -56q-24 -24 -24 -45q0 -16 16 -27z" />
    <glyph glyph-name="brokenbar" unicode="&#xa6;" horiz-adv-x="211" 
d="M155 438l1 298q0 19 -5 34q-9 33 -34 37q-11 22 -23 22q-16 0 -25 -47q-4 -51 -7 -344h93zM154 345q-44 1 -93 1l-1 -312q26 -51 36 -51q4 0 8 1q52 -2 52 18q0 6 -4 12z" />
    <glyph glyph-name="copyright" unicode="&#xa9;" horiz-adv-x="613" 
d="M256 813q-152 7 -240 -151q-8 -12 -25 -71q-49 -173 -49 -240q0 -38 16 -38q7 0 16 7q9 -23 24 -34q24 -115 69 -189q66 -109 167 -103q14 -2 28 -2q140 0 238 200q40 83 69 199q25 81 25 148q0 177 -169 243q-70 27 -169 31zM505 427q-33 -109 -69 -186
q-88 -187 -178 -187q-14 0 -28 5q-43 6 -74 39q-76 79 -85 275q-3 29 -3 66q0 122 32 203q47 120 157 120q15 0 31 -2q72 -10 123 -33q123 -57 123 -175q0 -56 -29 -125zM420 679q-17 27 -42 27q-20 0 -42 -19q-61 -54 -105 -117q-104 -150 -106 -316q9 -28 19 -49
q24 -52 53 -67q33 2 62 14q70 29 106 102q54 60 54 84q0 8 -6 11q-27 -3 -23 25q2 45 -9 45q-10 0 -28 -42q-97 -182 -139 -174q-6 3 -6 25q0 52 38 180q83 247 129 238q4 -4 4 -14q0 -31 -43 -89q-5 -29 32 -48q1 -2 4 -2q28 0 73 130q3 13 3 25q0 33 -28 31z" />
    <glyph glyph-name="logicalnot" unicode="&#xac;" horiz-adv-x="822" 
d="M714 383q-1 2 -1 3q-9 10 -4 25q2 5 11 4q7 -5 9 -23t3 -19q9 -2 14 9q6 11 -5 35q-16 21 -35 17q-11 -9 -15.5 -25.5t-5.5 -17.5v0q-2 -3 -8 -3q-8 -9 -9 -14q2 -18 17 -20q12 0 14 1q15 3 15 23v5zM568 475q-5 -1 -5 -2q4 -12 13 -18q3 -1 6 4q0 9 -14 16zM525 469
q-1 0 -3 -1q3 -7 10 -18q20 -11 22 -11l-2 9q-8 7 -27 21zM648 439q-4 0 -7 -3q0 -12 20 -23q6 0 6 6q1 4 -19 20zM553 347q-14 8 -15 -3q4 -15 4 -27q0 -9 -3 -16q2 -5 2 -11q0 -9 -4 -16q1 -8 2 -8q14 9 24 61q1 14 -10 20zM197 208zM95 159v1h-1zM204 198v0l2 -1
q-1 1 -2 1zM143 90q3 0 5 -1v0zM132 107zM239 123l1 -1zM266 7zM475 -6q0 2 1 3l-1 -2v-1zM416 -25zM476 0q0 3 1 8l-1 8q-1 0 -1 2l-3 6l-1 2q2 5 2 10q0 16 -16 24h-2l-6 1l-5 2q-3 0 -7 -1h-3q-5 8 -16 8q-3 0 -7 -1l-2 -1q-2 0 -5 -1l-3 -5h-6q-3 2 -8 2l-8 -1h-2
q-7 4 -15 4h-8l-6 3q-1 0 -2 1l-5 3q4 3 4 9q-1 23 -27 29v0l-3 1l-14 2l-1 1h-2l-5 4q-7 2 -12 2q-8 0 -15 -7l-1 1q-2 1 -5 2h-4q-3 2 -4 0l-6 -1l-1 1l-5 4l-9 3q-5 10 -15 14l-1 1l-1 3l-2 1v1l-4 4l1 2q7 9 7 17v1l-2 9v3l-3 4v2l-5 10l-5 4v1q-7 5 -21 18q-2 1 -6 1
l-3 1h2q-9 3 -15 3q-2 -1 -3 -1q-20 4 -38 -11l-3 -3q5 3 13 4l-15 -4q-1 0 -4 -3l-4 -6l-3 -3l-2 -7v1q-3 -3 -3 -8v-1q3 4 7 12l-9 -14v-6q0 -3 1 -5v-10q1 -11 6 -21q1 -1 4 -8l11 -10q2 -3 4 -4l4 -2q4 -6 9 -7l-1 -3q3 -10 10 -13l5 -2l-9 7l9 -8h1l2 -2h-1l-1 2
q2 -6 6 -10l7 -4q3 -1 9 -5v0v-1q6 -9 15 -12v0h1q2 -4 5 -6l1 -2l4 -2q6 -3 12 -7l8 -6q4 -2 11 -6l11 -2v-1l11 -9q1 -1 4 -1v-1h1l11 -5h-2l3 -2l17 -2q4 0 9 3q2 -3 8 -10v0v0l4 -4l15 -6q3 -1 15 2q5 -6 13 -7q-2 0 -7 2l12 -3q-6 1 -8 2l2 -1q6 -1 12 -3l-4 2h13l2 -2
l3 -2l11 -1h2l11 1q3 1 4 2q3 -2 7 -3l10 -2h13l2 1h2q4 -1 11 -1v0h1l4 1l17 8l3 3l5 8zM377 63zM372 63h-1l-3 -1zM223 126zM217 124zM155 224zM153 224zM116 187q-1 -1 -1 -2q0 1 1 2zM126 114l5 -1q-2 0 -5 1zM146 93l-1 1v1q1 -1 1 -2zM140 124l-2 5q-4 1 -10 4l-5 6
q-1 1 -4 5q-3 9 -7 19q-1 1 2 7q-3 2 -2 8q1 2 2 3l1 1l3 5q1 4 5 8l1 2l3 2q16 10 28 7l2 1q9 0 11 -3h3q5 -4 12 -7l2 -2l9 -13l1 -4q2 -7 2 -10q0 -5 -11 -13h-5q-2 1 -3 3q1 1 1 3v1q1 0 1 1v0q3 6 4 7q0 5 -3 13q-4 3 -12 11l-9 3h-10q-1 -2 -4 -3v-1q-7 -4 -14 -12
q0 -2 -3.5 -12t-3.5 -13q0 -4 9 -12q1 -3 4 -3q8 0 16 11q-2 5 -5 11q-2 5 2 6q3 0 22 -23q0 -2 -2 -5h-7l-8 -5q-6 -4 -16 -12zM137 183q-1 -1 -3 -1h1zM150 86zM176 91q-2 0 -4 -1q0 -1 -1 0q-2 1 -9 11q-2 1 -6 4l-3 2q-3 1 -4 5q0 3 6 12q2 0 3 1q3 0 6 -1q1 1 5 1l2 -1
h13q1 2 1 5t-2 4h-6q-1 -1 -7 2q-1 3 3 5q1 1 4 1q1 -1 2 -1q2 1 12 1q5 -2 6 -8l2 -2q0 -5 -12 -19l-1 -2q-3 -2 -10 -11l-2 -4q4 -3 2 -4zM191 57zM195 55zM212 67q0 -1 1.5 -3.5t1.5 -3.5q-1 -2 -3 -3q-3 2 -10 7q-1 3 -1 4q0 2 1 3q-2 0 -6 4h-7q-3 2 -8 10q0 2 3 6v2
q3 4 9 13q2 2 6 7l2 2q1 2 0 3q-1 3 -2 3v1q2 3 4 3q5 -2 11 -8q1 -1 0 -4q-10 -8 -19 -23q-1 -1 -1 -4q0 -7 8 -7q12 0 18 20v2q-2 1 -2 2q0 5 6 5q7 -2 13 -7q-1 -1 -5 -7l-12 -16q-3 -3 -8 -11zM252 15zM247 80l-2 -2l-11 -21q1 -2 8 -9q0 -2 -5 -4q-5 0 -8 3
q-7 5 -10 10q1 3 11 15q1 1 2 3v1q2 2 3 8q1 0 0 1q2 2 3 4v5l-3 5q2 3 3 3q1 -1 3 -1.5t4 -1.5q2 0 3.5 0.5l4.5 1.5q4 -4 4 -3q-1 -1 -2 -4q1 -2 2 -3l6 -4q0 -3 -2 -5q-3 0 -5 1zM300 -2q1 0 2 -1q-1 1 -2 1zM301 44l-6 9q-3 3 -6 4l-1 -1q-1 1 -5 -1q-3 -7 -7 -19
q2 -5 5 -11v-1l-2 -2q4 1 -10 4q-5 2 -16 10q-4 3 7 5q4 10 15 25v4q2 2 6 13q0 3 3 10q-3 4 -5 8q0 2 1 2l18 -5q1 -1 4 0q8 0 20 -7q4 -4 4 -8q0 -2 -2 -3l-1 -3q-1 -2 -4 -2h-1q-1 3 -4 9v-1q-1 -2 -2 -3l2 4l-5 2q-5 3 -7 5l-13 -17q4 -12 14 -12q4 1 5 1q2 -1 1 -3v-3
q-2 -4 -8 -13zM344 15q-12 -9 -20 -9q-16 4 -18 18q-2 1 -3 5q-2 11 9 23l12 5h8q2 0 6 -2l3 -3q8 -8 9 -11v-7q0 -6 -4 -17q-2 0 -2 -2zM384 -23l2 1q-1 -1 -2 -1zM395 25q0 -1 -1 -2v-1q-1 -3 -2 -7q-1 -5 0 -9t1 -6q-1 -1 -1 -2l-2 -4h-2q-1 1 -3 1h-4q-5 0 -5 5
q0 2 1.5 3t1.5 2q6 8 5 18q0 2 1 5q0 8 -6 10l-6 -1h-1l-3 -3q-4 -18 -4 -28l2 -5q-2 -5 -6 -3q-3 1 -12 3q-2 1 -1 4q7 3 7 9v0h1v9q0 3 2 11q2 10 -5 10l-1 1v1q2 1 5 2h5q5 0 7 -1l4 -2l4 1h2q4 1 6 1q1 -1 2 -1l4 -2l2 -3q1 -3 2 -8v-8zM400 62zM452 -3l-2 -2
q-2 -1 -8 -2q-2 0 -9 1q-1 0 -2 1q-1 -2 -6 -2q-2 -1 -4 0q-8 0 -13 5v4q0 5 1 13q1 2 1 3l-2 12v3q-2 3 -7 8q-1 3 0 4h3q21 7 13 7h2q0 -7 4 -7h8q2 -1 2 -4v-1q5 5 9 5q3 0 5 -2h3q4 -2 5 -5q1 -2 0 -5q-1 -1 -3 -1h-4q-6 6 -8 6l-1 -1q0 -2 1 -4q6 -3 17 -23q1 -2 2 -3
q0 -4 -7 -10zM176 117l-4 1h-4q-5 3 -6 -4q0 -5 4 -7q5 -1 11 8q0 2 -1 2zM427 31q0 3 4 7q-2 0 -8 -4q-1 -1 -5 -8v-5l1 -4q0 -3 2 -12q0 -3 4 -4l2 1h3q0 2 1 3q2 1 7 -2l4 -3q3 0 6 3q0 6 -8 12t-13 16zM334 45q-2 1 -5 3q-5 1 -10 -5t-4 -11q0 -5 6 -12l3 -5
q15 -4 15 11v2q1 1 1 2v7q-1 3 -6 8zM444 63v0q1 0 2 -1q-1 1 -2 1zM314 84zM161 532q-6 5 -12 5q-1 0 -5 -1t-6 -1q-5 2 -7 2q-4 -3 -7.5 -5.5t-3.5 -5.5q-3 -9 -3 -30l1 -2h1q1 6 2 8t1 1q1 -2 1.5 -4.5t1.5 -5.5q3 0 8 4l4 -4h2q1 0 1 -1q7 0 9 4q1 5 -3 5l-6 -4
q0 1 -1 2q4 0 3 6q5 -1 8 3v8q4 0 4 -4q0 -1 -2.5 -5.5t-1.5 -5.5q1 -3 5 -8h2q1 5 4 13q0 2 1 6.5t1 7.5v3q-1 4 -2 9zM127 526q3 0 6 -3q-2 -2 -7 -3q-1 2 1 6zM131 504l1 -1q-2 -2 -6 1l1 3q0 1 -1 1h-1v1q0 2 1 2q2 -1 5 -4l2 1zM134 520zM143 526v-3h-1q0 2 1 3z
M140 505v2q1 0 2 -1q-1 -1 -2 -1zM149 521q-1 -2 -1 -4q-5 -3 -7 -3v2q2 1 5 3q0 2 2 4q1 -1 1 -2zM153 526h-2q-1 2 2 2q1 -2 0 -2zM160 542q1 3 2 9q-2 2 -4 1h-9l-1 -1q0 -9 12 -9zM119 620q-2 0 -3 -2v0q1 -1 1 -2h-1v-1l2 -1h14q9 -1 15 1l1 3q-1 1 -2 1l-4 -1
q-3 0 -3 3l3 1q-9 1 -7 1q-3 0 -9 -3h-7zM72 580q0 1 -1 0l-1 -6q-2 -4 -6 -8h4q2 -1 3 -1q2 1 2 4v6q-1 3 -1 5zM82 575q-1 -1 -1 -3q0 -3 3 -7q2 -2 4 2l-1 5q-2 3 -5 3zM633 574q1 -1 3 -4q1 5 0 8q-3 2 -3 -4zM825 382q0 124 -73 224q0 3 -3 13t-2 15q7 -3 8 -2
q3 2 3 13q1 12 -10 31q-18 23 -18 25v0q2 0 5 -2q3 0 6 5v4q-28 33 -71 45q-23 7 -19 11q3 -2 5 3q1 3 -8 9q-2 1 -5 1q-6 0 -16 -4t-14 -4q-7 0 -13 7q-7 0 -16 9q-13 3 -16 12q-11 13 -40 23l-4 -2q6 -8 18 -21q-4 2 -13 10q-19 6 -42 18q-7 -2 -19 3q-8 1 -42 0
q-2 -1 -4 -6q3 -1 2 -2h-10q-13 0 -47 -12q-11 -1 -23 -8q1 3 1 -7q-20 -16 -42 -21q-12 -6 -30 -25q-2 -5 10 -9q-11 -3 -29 -18l-5 -9q-46 -27 -81 -65q-11 3 -20 4h-6q-7 -1 -15 -1h-8q-4 0 -12 1h-16q-11 -3 -29 -3q-5 0 -31 -2q-5 -1 -8 -1q-3 1 -4 1q-3 0 -11 -7
q-3 -7 -3 -12q0 -4 2 -6q-2 -4 -2 -8v-8q2 -3 2 -6q0 -2 -2 -7l2 -2q-2 -2 -2 -4v-3q2 -5 2 -7q-2 -6 0 -16q1 -11 1 -15q0 -6 -1 -9q0 -24 8 -58q2 -1 4 -1t6 1t7 0h16q10 0 15 -1q6 1 14 1q-2 0 -5 -1q-11 -46 -11 -94q0 -69 24 -134h-1q-8 -3 -8 -12v-1q-2 -3 0 -6
q1 -1 3 -6q2 0 5 -2.5t6.5 -3.5t3.5 -3q10 0 17 18v3q-2 6 -4 11q-6 5 -14 5l-1 -1h-1q-25 63 -25 132q0 48 13 95h13q-12 0 34 3q2 -2 6 -2q6 2 7 0q7 0 18 -3q9 1 12 3t4 8l1 19v22q0 5 2 14.5t2 13.5q0 5 -1 7q-3 7 -3 16v27q-1 2 -1 4t1 4q0 2 -1 3v21q-1 3 -1 5v1
q32 32 70 57q-3 -8 -11 -22q-1 -8 6 -11q0 -16 -4 -21q-4 -9 -4 -17q0 -13 9 -23q0 -8 -4 -22t-4.5 -19.5t-4.5 -15.5v-14q-18 0 -22 -3q-10 -6 -15 -10q0 -6 -4 -16q-1 -31 2 -40q-2 -18 13 -32q4 -6 4 -17q0 -4 -1 -12.5t-1 -12.5q0 -7 22 -63q19 -27 57 -78q4 -39 9 -55
q9 -27 34 -42.5t58 -15.5q17 0 33 5l8 2q35 16 57 44q5 2 8 4q13 7 42 16q19 4 64 27q20 15 37 28q6 7 9 14q13 -20 37 -20q6 0 11 2l-1 -1q-4 -11 -12 -31q-36 -52 -99 -88q39 8 76 29q-28 -70 -60 -108q-14 -16 -50.5 -38.5t-49.5 -38.5q87 38 100 46q16 14 33 27l-17 -57
q-2 -5 -16 -21q-36 -25 -93 -71q87 35 120 76q13 15 54 106q5 -16 5 -28q0 -22 -17 -51q26 29 58 66q17 18 28 55q20 -35 48 -63q-26 49 -34 99q65 96 65 214zM169 547q-1 -5 -1 -9v-6q0 -3 -2 -6q2 -12 -1 -35q-2 -5 -9 -10q-8 0 -23.5 1.5t-23.5 1.5h-8q-6 -2 -16 -2
q-13 1 -16 0q-5 0 -11 2q-3 -1 -10 1q-2 0 -10 1q-4 0 -10 -1.5t-9 -1.5q0 3 -1 13q0 3 1 5h1l2 -2q4 -13 8 -13q1 2 4 4v7q1 4 1 7l-5 23q0 1 1 2l-1 1q1 0 3 -1q5 -22 5 -35q1 -2 3 -4q4 2 6 6q-1 11 -5 38q-2 8 -3 15q-1 2 -3 9l-1 10q-1 4 -1 12v36q0 7 1 13q-3 5 -5 5
q-3 0 -12 -5q0 -2 -1 -7v-8q0 -3 1 -7q0 -3 -1 -12v-13l1 -12q0 -2 1 -8q0 -4 -2 -7q0 -5 5 -33l1 -7q0 -3 -4 -6q-1 1 -2 4q0 23 -4 38q0 5 -1 14.5t-1 14.5q-1 13 0 18q-1 10 5 34v6q16 0 25 5q2 1 7 0h6q1 -1 1 -2q0 -2 -1 -3h-3q-3 1 -8 -6q0 -4 -1.5 -12t-1.5 -12v-19
q-3 -2 -4 -4q6 -5 6 -20v-3q0 5 4 -20q2 -4 3 -12l1 -9q1 -2 6 -24q1 4 5 10l5 -3l4 2q1 1 2 1q2 0 3.5 -1t3.5 -2q0 -3 -2 -5h-3q-4 0 -8 4q-2 -2 -3 -6l1 -6q0 -2 2 -3h5q17 -1 41 6v4q0 4 -1 12t-1 12v4q1 1 1 4v6q1 2 4 3q7 0 17 6q0 4 -2 9q-3 1 -5 1t-5 -1q-3 1 -10 0
t-10 -1q-4 0 -7 2l-1 -1h-3l-0.5 -2t-3.5 -2l-5 4h-6q-3 0 -4 -2q0 -1 1 -2q0 -2 -1 -3q-4 4 -14 18q1 -2 8 15q3 7 4 9l-5 -4q0 1 -1 1q-1 -1 -4 -1q-4 0 -2 7l3 3q4 2 4 4l1 1q2 -8 6 -7q0 14 3 18l7 1q-1 -5 -4 -14v-6h3q2 1 4 4.5t8 9.5q0 -2 -1 -6t2.5 -5.5t4.5 -4.5
q0 -2 -1 -2q-10 -2 -10 -6l3 -5l6 -11q2 -3 5 -3l3 3q2 2 4 1v-5q-2 0 -3 -1q1 -2 5 -1h7q1 0 3 1h21q3 0 10 -1t11 -1h3q1 2 2 6v3l-1 2q-1 3 -0.5 5t0.5 3q0 5 -2 17q-2 1 -5 1q-2 0 -7 -1q-4 -2 -8 0v-2q-1 -2 -1 -4q3 -15 1 -17h-2q-1 6 -6 16q-3 0 -9 -3l-2 1
q-1 0 -2 -1q0 -12 -3 -16q-4 1 -4 9v13q-2 1 -4 4q1 3 11 5q3 0 10 3h1l4 -2l3 3q3 0 7 -3h14q1 3 1 5t-1 5v8l-1 1q1 6 -2 16q-1 1 -4 2h-5q-7 1 -27 -1q-5 1 -13 1t-18 -1h-4q-2 0 -5 1q-9 1 -20 -7l-1 -4q0 -4 10 -4l3 3l7 -2q3 -1 10 -2q0 -2 -3 -3h-16q-13 0 -21 -30
v-4q-1 -3 -1 -4q0 -3 1 -4q-1 -3 0 -3h-1q-2 0 -2 2l-1 6q0 4 6 36q3 4 3 13q0 5 -1 11l1 1h10l10 -1q8 0 18 3q5 -1 25 -1h28q1 0 4 -1t4 -1t2 1q4 0 8 -2q1 -3 5 -6v-19q0 -11 1 -19q0 -13 -2 -50zM22 592v11q0 3 2 9q1 -1 1 -3v-3q2 -7 3 -25q2 -3 2 -5q0 -6 -3 -6
q-2 2 -3 4q-1 -5 -1 0q-1 6 -1 18zM57 528q0 3 2 6q2 -2 4 -10v-7q0 -2 -2 -2q-2 1 -3 2v6q-1 4 -1 5zM86 527q-4 2 -8 3h-5q-2 0 -4 10q0 3 1 3q0 -5 3 -7q5 0 13 2q2 -3 2 -6q0 -2 -2 -5zM93 500q-1 -1 -4 -2q-2 0 -2 1q-1 4 1 6q5 0 5 -5zM100 523q0 4 1 6q1 0 2 -3
q0 -3 -1 -4q-1 0 -2 1zM102 589q0 2 1 4q1 -1 1 -2q-1 -1 -1 -2h-1zM154 628q1 -1 1 -2q0 -2 -1 -4l2 -4q0 -6 -3 -9l-5 -1q-30 0 -43 -8v4q0 4 4 18q3 6 16 9q6 0 8 -2q7 -1 21 -1zM150 631q0 2 1 3q2 -1 3 -2q-1 -1 -3 -2zM743 639q-5 5 -6 10q5 -8 6 -10zM624 673
q-4 8 -21 12q6 0 14 8q1 4 9 5q23 -9 26 -9q4 0 8 1q2 5 -4 9q-9 4 -28 9q-5 4 -8 4q16 0 48 -6q2 2 2 5q-3 2 -8 7l-7 3q14 -3 38 -16q2 -2 5 -2t5 3q4 6 -3 10l-2 4q3 1 18 -10q1 -2 5 -11q-7 1 -10 1t-4 -1q2 -4 2 -14q-3 0 -8 3t-6 3q-3 0 -5 -3q0 -4 2 -7l-1 -1l1 -2
q-10 2 -12 -3q2 -4 2 -10q0 -7 -2 -15q-10 17 -16 17q-4 -1 -5 -8q1 -10 1 -12q-7 7 -12 6q-7 -5 -4 -16l3 -16v1q-11 19 -13 20q-8 10 -17 11q-4 11 -17 19q2 1 9 -2t9 -3q5 0 6 6zM716 591l-1 -2l-1 2h2zM461 815q12 -2 34 -13q-2 1 -24 8q-8 0 -22 5h12zM414 805q7 1 9 1
q2 -1 6 -4q-3 0 -8 1.5t-7 1.5q-1 -1 -4 0h4zM400 805q-3 -1 -4 -1q1 1 4 1zM393 804l-6 -1q1 2 6 1zM381 805v-3q-6 0 -8 1q2 2 8 2zM345 772q13 11 18 11l-3 -4q-4 -4 -4 -6q0 -7 7 -7q18 9 43 19l-7 -2q-4 -2 -8 -8q0 -2 2 -5q10 4 48 10q-3 0 -8 -5q-9 -3 -29 -10
q-4 -5 -2 -11q9 -2 34 12q3 0 9 -5q5 0 14 -7q-15 -5 -20 -15q2 -4 6 -4q3 0 9.5 3.5t8.5 3.5q-11 -9 -16 -20q-15 -3 -26 -34l-2 -1q0 5 3 17q2 12 -6 15q-3 1 -12 -6q0 3 2 11q-2 7 -7 9q-6 -2 -9 -10t-6 -10q0 9 -1 26q-2 4 -12 3v0q1 1 0 1q2 4 1 8q-2 3 -4 3t-7 -3.5
t-7 -3.5q2 5 1 14q-1 3 -14 -1q-1 5 4 12zM249 630zM217 451q-2 0 -6 3q-9 37 -7 58q4 4 6 4q-2 -2 -2 -8q10 -18 18 -16l6 -16q0 -10 -15 -25zM463 206q-14 -6 -41 -16q-3 1 -11 -1q-11 10 -11 38q8 6 6 13q-5 5 -20 4q-18 -1 -23 1q-22 11 -18 11q-8 0 -8 -8q0 -5 9 -12
q-4 -28 -12 -28q-3 0 -7 6q-33 4 -33 50q0 27 10 59q4 -7 12 -29q17 -28 45 -34q17 -8 31 -8q10 0 17 4q17 5 46 31q5 2 10 5q11 -34 11 -56q1 -4 1 -7q0 -11 -14 -23zM327 317q11 -2 20 -7q47 -10 67 -6q7 -4 18 -2q6 2 17 4v-1q-1 -4 -2 -3q-9 -18 -51 -18q-26 0 -55 14
q-7 6 -14 19zM499 321q1 1 2 1q7 0 7 -6q0 -10 -7 -29q0 -2 -1 -3q1 28 -1 37zM676 268q-22 0 -31 23v0l3 7l3 -7h1q4 -10 20 -16h4q23 0 25 25q0 27 -25 27h-1q-1 1 -1 3t2 3q29 0 32 -33q0 -32 -32 -32zM676 294q1 -5 4 -9q-3 -1 -4 -1q-10 0 -15 9l-4 5q2 1 3 1
q7 -5 16 -5zM674 316q1 1 2 1t3 -1h-5zM684 298l7 1q0 -1 1 -1q-1 -5 -3 -8q-3 4 -5 8zM682 343q-12 0 -12 -13v-2q-1 -7 4 -9v0q-3 0 -13 9.5t-15 8.5q-2 0 -8 -10q-4 -48 -66 -80q-11 -8 -63 -25q-2 -4 -10 -5q4 30 6 52q6 1 23 25q0 1 2 26q1 13 -8 20q-14 -3 -40 -1
q-18 8 -44 43q-13 6 -15 4q-12 -12 -27 -12q-8 0 -17 4q-2 1 -14.5 9t-18.5 6l-24 -19q-16 -5 -26 -5q-9 0 -12 4q-7 2 -15 -10q-1 -4 1 -11l2 -16q-3 0 -7 10q4 5 -8 24q-1 1 -8 -1q-2 -3 -2 -8q0 -4 5 -13.5t5.5 -14t7.5 -10.5q3 -1 8 9q4 -8 13 -20q-1 -19 0 -43
q-11 29 -20 39q-6 7 -25 38q-9 59 -7 67q1 12 16 49q3 4 4 7q0 -3 3 -7q9 -5 18 -5q4 0 9 2q8 0 30 -19l7 -5q6 -6 12 -5q4 2 4 5q0 4 -19 17q0 1 -1.5 1.5t-1.5 1.5q16 -1 25 -9h4q1 4 -4 14q-2 -2 7 -2q16 -15 15 -24l1 -3q37 0 40 -1q-3 0 8 5q6 -10 12 -7q3 3 3 6
t-8 8.5t-9 7.5q-10 10 -71 64q2 1 7 -3.5t7 -5t57 -46.5l29 -29q2 0 3 2q-1 5 -27 31q-7 5 -64 57q7 3 25 -12q38 -32 80 -76q15 -19 24 -25q4 -2 7 4q1 5 -8 14t-10 11q-3 0 27 -8q1 2 5 6q15 -5 44 -15q11 -6 17 -6q8 0 14 6q2 -2 7 -8q2 -2 8 -5q18 0 26 13q0 8 -6 10
q4 -1 -13 -4q-3 0 -9 -2q-5 -1 -9 0l3 13q-4 8 -10 6q-8 -13 -17 -10q-5 6 -6 5q-6 0 -16.5 10t-14.5 11q-17 13 -49 41q0 2 3 4q8 -2 22 -14l21 -19q3 -2 6 1q-11 11 -29 30q6 0 13 6q0 -1 6 -8l33 -34l17 -21q4 -1 6 2q-2 5 -8 16q-12 11 -34 32q-3 13 11 20l16 5
q10 0 22 -15q2 0 10 -12.5t13 -11.5q3 4 2 10q-7 7 -7 17q0 5 1.5 13.5t1.5 13.5q0 10 -10 12q-2 3 -31.5 2.5t-32.5 1.5q-25 -11 -37 -20q-4 -6 -14 -11.5t-13 -7.5q-5 5 -20 9q0 -13 33 -32q3 -5 13 -14l-13 6q-7 8 -24 19q-9 10 -30 21q-1 -5 11 -16q18 -13 49 -43l1 -2
q-7 -1 -13 4l-11 12l-61 51q-2 0 -9 5.5t-12 5.5q0 -5 9 -16q41 -25 77 -64q-1 -3 -4 -3q-5 0 -43 32q-20 18 -47 40q-3 5 -22 9t-22 7q-10 5 -13 5q-2 -1 -8 -1q-7 0 -20 1q-5 -4 -17 -13q-1 -3 -7 -7.5t-6 -5.5q0 -4 4 -9q12 -8 35 -28v-1h1q-4 -2 -12.5 1.5t-12.5 1.5
q1 -3 2 -8q-4 0 -11 -3q0 -5 -7 34q0 12 19 107q7 16 13 33q14 27 33 44l5 2l10 2l11 -1l10 -5l12 2l11 -2l6 -10h14l13 -19l-3 2l5 -12l-5 -11l1 -12l5 5l4 8l8 5l7 6l7 11l9 5l11 5l10 3l13 -4l10 4h10l11 1l11 3l12 -3l11 5l11 -6h17q10 -5 19 -12v-1l9 -7l5 -8l9 -7
l3 -3q22 -27 22 -61h1q3 -3 1 -10q0 1 -2 2q0 -4 -3 -15q5 2 18 -10h-3l-10 4q-5 -5 -5 -9q0 -3 9 -10t9 -10h-8q-5 -4 -5 -7q0 -5 7 -10.5t14 -10.5q-2 2 -5 2q-11 0 -11 -10q0 -4 9 -11t9 -11q-3 4 -5 4q-3 0 -7 -5q-1 -2 12 -15q5 -9 17 -15q4 1 4 5q0 2 -2 4q4 -1 9 -1
q5 1 5 12q-2 -1 6 -1q9 4 20 4q10 0 24 -6q20 -14 24 -43q2 -18 -6 -37q-7 2 -13 2q-8 0 -12 -15q0 -10 10 -11q-1 0 -1 -1q-11 8 -24 8q-6 0 -13 -15v-4q-11 11 -27 11zM286 348q-2 -4 -3 -11v0q0 10 1 11l2 2v-2zM352 470q6 -7 23 -15l2 4l-22 23q-10 7 -28 24q2 0 5 -2
q25 -17 68 -60q-5 0 -13 2q-8 1 -12 0l-10 9q-21 15 -33 28q-15 10 -43 32q-2 0 -6 5l-5 2q-2 -1 -3 -2q0 -2 1 -5q10 -8 28 -26q4 0 19 -14q-12 0 -61 42l1 3q5 4 12 4l26 -12zM308 520q3 -3 18 -13q-7 4 -18 13zM716 275q-3 0 -6 1q2 2 4 6h2q25 0 25 26q0 25 -25 25h-1
q-1 2 -1 4t2 3q32 0 32 -32q0 -33 -32 -33zM714 319h4q4 -10 13 -14q0 -4 -2 -6q-7 3 -15 20zM758 307q4 2 10 12q0 2 1 4v5q0 26 -26 26v0q-3 1 -2 5v0l2 2q33 0 33 -33q0 -15 -13 -26v0q-3 -2 -5 -3v8zM758 335q2 -4 2 -7v0zM758 179v2q10 46 6 110q21 13 21 37
q0 15 -9 26q6 8 10 36q0 16 -7 46q-12 23 -36 30q-8 3 -7 11l3 14q0 4 -3 10.5t-3 10.5q3 5 7 18q4 11 -1 20q3 3 4.5 22t5.5 24l2 2q67 -98 67 -216q0 -111 -59 -205q-1 1 -1 2z" />
    <glyph glyph-name="minus" unicode="&#xad;" horiz-adv-x="642" 
d="M1 342q-1 5 -1 9q0 33 51 41q378 0 507 -10q48 -10 48 -28q0 -13 -23 -27q-5 -42 -70 -45l-482 5q-7 -5 -12 -5q-20 0 -18 60z" />
    <glyph glyph-name="minus" unicode="&#x2212;" horiz-adv-x="642" 
d="M1 342q-1 5 -1 9q0 33 51 41q378 0 507 -10q48 -10 48 -28q0 -13 -23 -27q-5 -42 -70 -45l-482 5q-7 -5 -12 -5q-20 0 -18 60z" />
    <glyph glyph-name="minus" unicode="&#x2212;" horiz-adv-x="642" 
d="M1 342q-1 5 -1 9q0 33 51 41q378 0 507 -10q48 -10 48 -28q0 -13 -23 -27q-5 -42 -70 -45l-482 5q-7 -5 -12 -5q-20 0 -18 60z" />
    <glyph glyph-name="registered" unicode="&#xae;" horiz-adv-x="589" 
d="M247 813q-148 7 -233 -151q-7 -12 -24 -71q-48 -173 -48 -240q0 -38 16 -38q7 0 15 7q10 -23 24 -34q23 -115 66 -189q64 -109 162 -103q14 -2 28 -2q136 0 230 200q39 83 67 199q24 81 24 148q0 177 -163 243q-69 27 -164 31zM221 59q-36 6 -64 39q-66 79 -76 275
q-2 47 -2 86q0 100 17 158q9 1 23 2v0l8 -397q2 -32 22 -32q8 0 19 7q26 -15 38 -15q7 0 7 6q0 4 -2 9q-2 13 -5 72v0q-2 42 -4 83q11 2 11 7q0 4 -8 11q2 1 6 2q18 -35 106 -217q14 -28 32 -19q-59 -81 -110 -81q-10 0 -18 4zM195 623h14q140 -40 140 -81q0 -6 -3 -10
q0 -48 -147 -61v5l-1 24zM462 427q-33 -138 -76 -227q-34 64 -101 196q66 18 104.5 47.5t35.5 70.5q1 7 1 14q0 83 -156 144q-63 22 -122 22q-11 0 -16 -2v0q54 69 122 69q9 0 18 -1q63 -10 108 -33q108 -57 108 -175q0 -56 -26 -125z" />
    <glyph glyph-name="degree" unicode="&#xb0;" horiz-adv-x="276" 
d="M109 791q-10 1 -25 -4q-77 11 -94 -99q-13 -34 -13 -50q0 -13 8 -13q6 0 12 4q-5 -51 1 -136q15 -220 101 -229q6 -1 12 -1q86 0 127 257q10 52 10 95q0 114 -70 156q-29 18 -69 20zM170 525q-28 -184 -61 -184q-3 0 -7 2q-10 3 -18 20q-19 38 -21 135q-6 192 46 192
q4 0 8 -1q60 -16 60 -102q0 -28 -7 -62z" />
    <glyph glyph-name="plusminus" unicode="&#xb1;" horiz-adv-x="660" 
d="M31 408l219 -3l-1 -156q0 -19 5 -33q11 -34 40 -37q13 -23 26 -23q18 0 29 48q5 49 7 200l157 -1q19 0 33 5q34 11 37 40q23 13 23 26q0 18 -48 29q-49 5 -200 7l1 200q-29 51 -42 51q-4 0 -8 -1q-60 2 -60 -18q0 -5 5 -12l-3 -218l-200 1q-51 -29 -51 -42q0 -4 1 -8
q-2 -60 18 -60q5 0 12 5zM559 132q-129 11 -506 10q-51 -29 -51 -41q0 -4 1 -9q-2 -60 18 -60q5 0 12 5l481 -5q19 1 34 6q33 11 36 39q23 14 23 27q0 18 -48 28z" />
    <glyph glyph-name="twosuperior" unicode="&#xb2;" horiz-adv-x="282" 
d="M238 343l-109 2q-5 19 -10 40q17 54 40 93q8 14 28 48q32 49 38 87q8 25 8 52q0 30 -9 55q-19 45 -72 58q-25 11 -50 11q-30 0 -50 -17l-51 -15q-17 -7 -17 -23t15 -41q10 -16 21 -33q14 -28 48 -26q23 2 31 3q21 5 22 17q0 12 -25.5 23t-25.5 20q0 6 10 9t15 1
q32 -4 68 -37q2 -60 -69 -151q-34 -34 -77 -174l-1 -1q-6 -3 -14 -29q-7 -9 -7 -18q0 -12 15 -20q46 -7 221 -7q18 24 16 35q12 19 12 30q0 10 -10 10q-5 0 -11 -2z" />
    <glyph glyph-name="threesuperior" unicode="&#xb3;" horiz-adv-x="282" 
d="M201 562q-27 13 -56 16q25 34 49 67q29 41 44 71q11 2 11 14q0 7 -4 16q4 10 4 18q0 14 -16 14q-4 0 -9 -1h-156q-8 0 -31 4q-19 3 -35 1q-9 -2 -9 -7q0 -6 13 -18l14 -12q-16 -21 -16 -30q0 -7 10 -9q15 -2 65 2q70 4 82 4q4 -17 -31 -59q-21 -25 -92 -99
q-17 -5 -17 -13q0 -10 26.5 -21.5t45.5 -11.5q6 0 10 1q20 9 15 10q70 -18 70 -48q0 -13 -9 -29q-42 -95 -85 -86q-44 0 -51 35q-8 25 -18 25q-14 0 -28 -39q-7 5 -12 5q-8 0 -8 -14q0 -8 2 -18q33 -77 99 -74q106 -11 155 140q18 34 18 63q0 54 -50 83z" />
    <glyph glyph-name="mu" unicode="&#xb5;" horiz-adv-x="412" 
d="M360 25q-19 -34 -32 -34q-14 0 -17 38l2 308q0 38 13 38q14 0 36 -34q10 -10 16 -10q8 0 8 17q0 29 -21 94q-21 39 -79 42q-10 5 -18 5q-63 0 -61 -227q3 -33 3 -55q0 -43 -10 -43t-26 34q-27 60 -50 119q2 104 4 137q7 8 7 13q0 10 -19 10q-18 0 -48 -8q-14 9 -25 9
q-23 0 -27 -32l-15 -748q-3 -11 9 -11q17 0 51 15q8 -5 15 -5q39 0 45 87l1 327q7 -4 37 -61q36 -69 58 -102q38 -56 68 -65q11 -4 24 -4q46 0 54 45q21 66 21 95q0 16 -8 16q-6 0 -16 -10z" />
    <glyph glyph-name="mu" unicode="&#x3bc;" horiz-adv-x="412" 
d="M360 25q-19 -34 -32 -34q-14 0 -17 38l2 308q0 38 13 38q14 0 36 -34q10 -10 16 -10q8 0 8 17q0 29 -21 94q-21 39 -79 42q-10 5 -18 5q-63 0 -61 -227q3 -33 3 -55q0 -43 -10 -43t-26 34q-27 60 -50 119q2 104 4 137q7 8 7 13q0 10 -19 10q-18 0 -48 -8q-14 9 -25 9
q-23 0 -27 -32l-15 -748q-3 -11 9 -11q17 0 51 15q8 -5 15 -5q39 0 45 87l1 327q7 -4 37 -61q36 -69 58 -102q38 -56 68 -65q11 -4 24 -4q46 0 54 45q21 66 21 95q0 16 -8 16q-6 0 -16 -10z" />
    <glyph glyph-name="mu" unicode="&#x3bc;" horiz-adv-x="412" 
d="M360 25q-19 -34 -32 -34q-14 0 -17 38l2 308q0 38 13 38q14 0 36 -34q10 -10 16 -10q8 0 8 17q0 29 -21 94q-21 39 -79 42q-10 5 -18 5q-63 0 -61 -227q3 -33 3 -55q0 -43 -10 -43t-26 34q-27 60 -50 119q2 104 4 137q7 8 7 13q0 10 -19 10q-18 0 -48 -8q-14 9 -25 9
q-23 0 -27 -32l-15 -748q-3 -11 9 -11q17 0 51 15q8 -5 15 -5q39 0 45 87l1 327q7 -4 37 -61q36 -69 58 -102q38 -56 68 -65q11 -4 24 -4q46 0 54 45q21 66 21 95q0 16 -8 16q-6 0 -16 -10z" />
    <glyph glyph-name="onesuperior" unicode="&#xb9;" horiz-adv-x="206" 
d="M146 736q1 11 1 19q0 33 -17 33q-9 0 -21 -10q-12 8 -21 8q-22 0 -28 -31q-15 -64 -14 -135q0 -7 16 -10.5t16 -12.5q4 -180 -2 -283q-9 -13 -9 -22q0 -20 42 -17q7 -3 13 -3q25 0 25 46q0 10 -1 19v399z" />
    <glyph glyph-name="onequarter" unicode="&#xbc;" horiz-adv-x="566" 
d="M378 783zM382 790q-3 -4 -4 -7q10 -5 -294 -748q-13 -27 -13 -40q0 -7 6 -7q5 0 15 5q4 -26 12 -26q7 0 14 19q25 54 325 819q-12 9 -25 9q-21 0 -36 -24zM536 138q1 41 -12 41q-3 0 -8 -3l-29 1l2 242q-1 14 -4 25q-8 25 -26 27q-8 17 -16 17t-15 -19q-6 2 -14 2
q-11 17 -20 17t-14 -13q-66 -204 -120 -311q-12 -9 -2 -23q-5 -5 -5 -10q0 -14 31 -21q9 -1 16 -1q9 -5 17 -1q40 -3 100 -4l-1 -108q22 -40 33 -36q39 -2 39 13q0 4 -3 9l1 121h17q36 23 33 35zM417 178l-70 1q50 152 73 217q-1 -43 -2 -112zM109 275q8 -3 14 -3
q25 0 25 46q0 10 -1 19v399q1 11 1 19q0 33 -17 33q-10 0 -22 -10q-11 8 -20 8q-22 0 -29 -31q-14 -64 -14 -135q0 -7 16.5 -10.5t16.5 -12.5q3 -180 -3 -283q-9 -13 -9 -22q0 -20 42 -17z" />
    <glyph glyph-name="onehalf" unicode="&#xbd;" horiz-adv-x="581" 
d="M542 32l-109 2q-5 19 -10 40q18 54 40 93q8 14 29 48q32 49 38 88q8 24 8 51q0 30 -9 55q-19 45 -73 58q-25 11 -50 11q-30 0 -50 -17l-47 -14l139 358q-13 9 -25 9q-22 0 -37 -24q-2 -4 -3 -7q10 -5 -294 -748q-13 -27 -13 -40q0 -7 6 -7q5 0 14 5q6 -27 14 -27
q6 0 13 20q30 65 169 420q13 -22 32 -56q14 -29 48 -27q24 2 31 3q22 5 22 17q0 13 -25 23.5t-25 19.5q0 6 10 9t15 1q32 -4 68 -37q2 -60 -69 -151q-35 -34 -77 -174h-1q-7 -4 -14 -29q-8 -10 -8 -19q0 -12 16 -20q45 -7 221 -7q17 24 16 35q12 20 12 31q0 9 -11 9
q-4 0 -11 -2zM383 783zM114 275q7 -3 13 -3q25 0 25 46q0 10 -1 19v399q1 11 1 19q0 33 -17 33q-9 0 -21 -10q-12 8 -21 8q-22 0 -28 -31q-15 -64 -14 -135q0 -7 16 -10.5t16 -12.5q4 -180 -2 -283q-9 -13 -9 -22q0 -20 42 -17z" />
    <glyph glyph-name="threequarters" unicode="&#xbe;" horiz-adv-x="602" 
d="M418 790q-2 -4 -4 -7q11 -5 -293 -748q-14 -27 -14 -40q0 -7 7 -7q5 0 14 5q4 -26 12 -26q7 0 14 19q26 54 326 819q-13 9 -25 9q-22 0 -37 -24zM414 783zM572 138q2 41 -11 41q-4 0 -8 -3l-30 1l2 242q-1 14 -4 25q-7 25 -26 27q-8 17 -16 17t-15 -19q-6 2 -14 2
q-11 17 -20 17q-8 0 -13 -13q-66 -204 -120 -311q-13 -9 -3 -23q-4 -5 -4 -10q0 -14 31 -21q8 -1 15 -1q10 -5 17 -1q40 -3 100 -4v-108q22 -40 33 -36q39 -2 39 13q0 4 -3 9l1 121h17q35 23 32 35zM454 178l-71 1q50 152 74 217q-3 -74 -3 -218zM234 416q17 34 17 63
q0 54 -50 83q-27 13 -56 16q25 34 49 67q29 41 44 71q11 2 11 14q0 7 -4 16q5 10 5 18q0 14 -16 14q-5 0 -10 -1h-156q-8 0 -31 4q-19 3 -35 1q-9 -2 -9 -7q0 -6 14 -18q6 -6 13 -12q-16 -21 -16 -30q0 -7 10 -9q15 -2 66 2q69 4 81 4q4 -17 -31 -59q-21 -25 -91 -99
q-18 -5 -18 -13q0 -10 26.5 -21.5t45.5 -11.5q6 0 10 1q20 9 15 10q70 -18 70 -48q0 -13 -8 -29q-43 -95 -86 -86q-44 0 -50 35q-9 25 -19 25q-14 0 -28 -39q-7 5 -12 5q-8 0 -8 -14q0 -8 3 -18q32 -77 98 -74q106 -11 156 140z" />
    <glyph glyph-name="Agrave" unicode="&#xc0;" horiz-adv-x="566" 
d="M512 284q-5 -1 -60 -2q-85 310 -159 487q2 12 5 38q-9 2 -23 3q-16 33 -30 33t-26 -34q8 1 -27 1q-19 0 -18 -28q-17 -14 -6 -34q-29 -174 -123 -476l-70 -1q-37 -3 -37 -29q0 -11 7 -24q-19 -35 -19 -50q0 -8 8 -8q3 0 9 2q18 2 68 5q-14 -41 -49 -137q-6 -15 -6 -28
q0 -22 20 -22q13 0 35 10q31 -23 50 -23q18 0 19 23q26 78 60 183q103 4 217 8q17 -70 52 -249q103 72 98 129q-7 30 -30 123l57 2q4 25 4 45q0 50 -26 53zM171 275q43 144 76 274q41 -117 83 -271zM50 996q-2 -1 -2 -3q0 -14 55 -55q17 -12 104 -64q7 -3 16 -3q43 0 66 65
q-32 15 -109 74q-48 32 -65 64q-8 21 -16 41q-12 38 -20 38q-12 0 -10 -91q-37 -11 -37 -33q0 -16 18 -33z" />
    <glyph glyph-name="Aacute" unicode="&#xc1;" horiz-adv-x="568" 
d="M520 284q-5 -1 -60 -2q-84 310 -159 487q2 12 5 38q-9 2 -23 3q-16 33 -30 33q-13 0 -25 -34q8 1 -28 1q-19 0 -18 -28q-17 -14 -6 -34q-28 -174 -123 -476l-70 -1q-37 -3 -37 -29q0 -11 7 -24q-18 -35 -18 -50q0 -8 7 -8q3 0 9 2q18 2 68 5q-14 -41 -49 -137
q-6 -15 -6 -28q0 -22 20 -22q14 0 35 10q31 -23 50 -23q18 0 19 23q26 78 60 183q103 4 217 8q17 -70 52 -249q103 72 98 129q-6 30 -29 123l56 2q4 25 4 45q0 50 -26 53zM179 275q44 145 76 274q41 -117 84 -271zM272 874q18 8 104 64q54 41 54 55q0 2 -1 3q18 17 18 33
q0 22 -37 33q2 91 -10 91q-8 0 -20 -38q-8 -20 -16 -41q-18 -32 -65 -64q-37 -29 -109 -74q23 -65 65 -65q9 0 17 3z" />
    <glyph glyph-name="Acircumflex" unicode="&#xc2;" horiz-adv-x="568" 
d="M515 284q-5 -1 -60 -2q-85 310 -159 487q2 12 5 38q-9 2 -24 3q-15 33 -29 33t-26 -34q8 1 -27 1q-19 0 -19 -28q-17 -14 -6 -34q-28 -174 -122 -476l-71 -1q-36 -3 -36 -29q0 -11 6 -24q-18 -35 -18 -50q0 -8 7 -8q4 0 9 2q19 2 68 5q-13 -41 -49 -137q-5 -15 -5 -28
q0 -22 20 -22q13 0 35 10q30 -23 49 -23q18 0 20 23q26 78 60 183q103 4 216 8q18 -70 52 -249q104 72 99 129q-7 30 -30 123l56 2q5 25 5 45q0 50 -26 53zM174 275q43 144 75 274q41 -117 84 -271zM111 916q7 -40 27 -40q12 0 26 15q1 -2 3 -2q12 0 49 50q16 23 28 44
q11 -24 25 -41q33 -43 78 -50q24 18 24 27q0 6 -17 25q-23 26 -37 53l-42 92q-17 37 -35 37q-5 0 -10 -2q-20 -6 -29 -29q-15 -41 -39 -73q-32 -43 -59 -58l-34 -14q-32 -10 -32 -17q0 -12 74 -17z" />
    <glyph glyph-name="Atilde" unicode="&#xc3;" horiz-adv-x="568" 
d="M515 284q-5 -1 -60 -2q-85 310 -159 487q2 12 5 38q-9 2 -23 3q-16 33 -30 33t-26 -34q8 1 -27 1q-19 0 -18 -28q-17 -14 -6 -34q-29 -174 -123 -476l-70 -1q-37 -3 -37 -29q0 -11 7 -24q-19 -35 -19 -50q0 -8 7 -8q4 0 10 2q18 2 68 5q-14 -41 -49 -137q-6 -15 -6 -28
q0 -22 20 -22q13 0 35 10q31 -23 50 -23q18 0 19 23q26 78 60 183q103 4 216 8q18 -70 53 -249q103 72 98 129q-7 30 -30 123l57 2q4 25 4 45q0 50 -26 53zM174 275q44 145 76 274q41 -117 83 -271zM94 896q27 45 65 45q22 0 42 -14q71 -46 89 -46q13 0 31 10
q25 14 52.5 46.5t27.5 52.5q0 11 -10 15q21 39 21 50q0 4 -3 4q-8 0 -37 -32q-26 -45 -72 -45q-12 0 -22 3q-6 3 -48 37q-29 24 -51 24q-21 0 -44 -17q-76 -60 -76 -120q0 -29 16 -29q10 0 19 16z" />
    <glyph glyph-name="Adieresis" unicode="&#xc4;" horiz-adv-x="558" 
d="M512 284q-5 -1 -60 -2q-85 310 -159 487q2 12 5 39q-9 1 -24 2q-15 33 -29 33t-26 -34q8 1 -27 1q-19 0 -19 -28q-17 -14 -6 -34q-28 -174 -122 -476l-71 -1q-36 -2 -36 -29q0 -11 6 -24q-18 -35 -18 -50q0 -8 7 -8q4 0 9 2q19 2 68 5q-13 -41 -49 -137q-5 -15 -5 -27
q0 -23 20 -23q13 0 35 10q30 -23 49 -23q18 0 20 23q26 78 60 183q103 4 216 8q18 -70 52 -248q104 72 99 129q-7 29 -30 122l56 2q5 25 5 45q0 51 -26 53zM171 275q43 145 75 274q41 -117 84 -270zM258 941q39 -20 39 -53q0 -5 -1 -10q-2 -16 5 -16q6 0 16 12q1 -4 13 0
q67 34 59 126q-3 24 -9 41q-16 41 -50 44q-48 3 -64 -64q-27 -26 -27 -50q0 -18 19 -30zM104 945q41 -21 34 -56q-2 -15 4 -15q5 0 14 11h12q5 0 22 30q-2 38 15 42q19 17 15 41q-2 21 -8 36q-14 37 -44 39q-43 3 -57 -56q-24 -24 -24 -45q0 -16 17 -27z" />
    <glyph glyph-name="Aring" unicode="&#xc5;" horiz-adv-x="562" 
d="M517 284q-5 -1 -60 -2q-109 368 -159 487q2 12 5 38q-9 2 -24 3q-15 33 -29 33t-26 -34q8 1 -27 1q-19 0 -19 -28q-16 -14 -6 -34q-28 -174 -122 -476l-71 -1q-36 -3 -36 -29q0 -11 7 -24q-19 -35 -19 -50q0 -8 7 -8q4 0 10 2q18 2 68 5q-14 -41 -49 -137q-6 -15 -6 -28
q0 -22 20 -22q13 0 35 10q31 -23 50 -23q17 0 19 23q26 78 60 183q103 4 216 8q18 -70 52 -249q104 72 99 129q-4 22 -30 123l56 2q5 25 5 45q0 50 -26 53zM176 275q43 145 75 274q41 -117 84 -271zM230 875q90 -10 132 112q10 23 10 42q0 74 -133 77q-108 4 -108 -104
q0 -14 2 -27q13 -96 97 -100zM249 1052q46 -6 46 -35q0 -10 -6 -22q-23 -71 -51 -62q-7 1 -13 6q-14 14 -16 47q-5 72 40 66z" />
    <glyph glyph-name="Ccedilla" unicode="&#xc7;" horiz-adv-x="458" 
d="M388 524q3 -2 7 -2q47 0 121 208q6 21 6 40q0 53 -47 51q-28 42 -70 42q-33 0 -70 -30q-101 -87 -174 -187q-174 -241 -176 -509q12 -103 88 -165q-18 -43 -27 -52q-20 -5 -24 -16t7 -22q16 -15 37 -15q12 0 26 9q34 -5 40 -21q2 -3 -7 -32q-39 -69 -75 -69q-33 0 -33 23
q-5 27 -21 27v0q-15 0 -31 -30q-17 5 -23 -12q-2 -9 -1 -23q19 -72 81 -69q106 0 159 125q17 43 17 78q0 42 -28 55v0q-13 7 -38 12q1 2 8 14q48 9 90 30q102 51 154 153q88 97 88 136q0 12 -10 16q-38 -4 -38 30q0 5 1 11q3 73 -15 73q-16 0 -46 -68q-162 -292 -231 -281
q-10 6 -10 41q0 84 64 289q137 398 214 383q6 -7 6 -22q0 -50 -72 -143q-8 -47 53 -78z" />
    <glyph glyph-name="Egrave" unicode="&#xc8;" horiz-adv-x="503" 
d="M530 767q3 6 3 11q0 20 -40 19q-147 -5 -321 -6q-9 33 -75 33q-22 0 -50 -4l-1 -28q-27 1 -47 2q-15 2 -25 2q-22 0 -22 -11q0 -16 47 -53q-6 -62 44 -64q-10 -376 -19 -561q-29 -16 -25 -62q-47 -36 -47 -53q0 -10 22 -10q10 0 25 2l18 1q-1 -2 -1 -5q-3 -8 -3 -14
q0 -10 13 -10q19 0 62 24q16 -9 30 -9q20 0 30 15q166 0 264 -5q41 -1 41 18q0 6 -4 12q30 14 30 16q0 16 -57 39q3 38 -28 38q-10 0 -23 -4q-16 -4 -214 5l6 283l135 18q38 10 38 32q0 16 -24 36q18 15 18 26q0 19 -63 19q-41 0 -101 -8l3 163q255 11 283 4q13 -5 23 -5
q30 0 28 39q56 23 56 38q0 13 -29 17zM90 996q-1 -1 -1 -3q0 -14 54 -55q17 -12 105 -64q7 -3 16 -3q42 0 65 65q-32 15 -109 74q-47 32 -64 64q-9 21 -17 41q-12 38 -19 38q-12 0 -10 -91q-38 -11 -38 -33q0 -16 18 -33z" />
    <glyph glyph-name="Eacute" unicode="&#xc9;" horiz-adv-x="499" 
d="M530 767q4 6 4 11q0 20 -41 19q-147 -5 -321 -6q-9 33 -74 33q-23 0 -51 -4l-1 -28q-26 1 -47 2q-15 2 -25 2q-21 0 -21 -11q0 -16 46 -53q-5 -62 44 -64q-10 -376 -19 -561q-29 -16 -25 -62q-46 -36 -46 -53q0 -10 21 -10q10 0 25 2l18 1q0 -2 -1 -5q-3 -8 -3 -14
q0 -10 13 -10q20 0 62 24q16 -9 30 -9q20 0 31 15q165 0 263 -5q41 -1 41 18q0 6 -3 12q29 14 29 16q0 16 -56 39q2 38 -29 38q-10 0 -22 -4q-17 -4 -214 5l5 283l136 18q37 10 37 32q0 16 -24 36q19 15 19 26q0 19 -64 19q-40 0 -101 -8l4 163q254 11 282 4q13 -5 23 -5
q31 0 28 39q57 23 57 38q0 13 -30 17zM299 874q19 8 105 64q54 41 54 55q0 2 -2 3q18 17 18 33q0 22 -37 33q2 91 -10 91q-7 0 -20 -38q-8 -20 -16 -41q-17 -32 -64 -64q-38 -29 -109 -74q23 -65 65 -65q9 0 16 3z" />
    <glyph glyph-name="Ecircumflex" unicode="&#xca;" horiz-adv-x="474" 
d="M519 767q3 6 3 11q0 20 -40 19q-147 -5 -321 -6q-9 33 -75 33q-22 0 -50 -4l-1 -28q-27 1 -47 2q-15 2 -25 2q-22 0 -22 -11q0 -16 47 -53q-6 -62 44 -64q-6 -225 -19 -561q-29 -16 -25 -62q-47 -36 -47 -53q0 -10 22 -10q10 0 25 2l18 1q-1 -2 -1 -5q-3 -8 -3 -14
q0 -10 13 -10q19 0 61 24q17 -9 31 -9q20 0 30 15q166 0 264 -5q41 -1 41 18q0 6 -4 12q30 14 30 16q0 16 -57 39q3 38 -28 38q-10 0 -23 -4q-16 -4 -214 5l6 283l135 18q38 10 38 32q0 16 -24 36q18 15 18 26q0 19 -63 19q-41 0 -102 -8l4 163q254 11 283 4q13 -5 23 -5
q30 0 28 39q56 23 56 38q0 13 -29 17zM153 916q7 -40 26 -40q13 0 27 15q1 -2 3 -2q12 0 49 50q16 23 28 44q11 -24 25 -41q33 -43 77 -50q24 18 24 27q0 6 -16 25q-23 26 -38 53q-20 46 -41 92q-18 37 -36 37q-4 0 -9 -2q-21 -6 -29 -29q-15 -41 -40 -73q-32 -43 -58 -58
l-34 -14q-33 -10 -33 -17q0 -12 75 -17z" />
    <glyph glyph-name="Edieresis" unicode="&#xcb;" horiz-adv-x="498" 
d="M525 767q3 6 3 11q0 20 -40 19q-147 -5 -321 -6q-9 33 -75 33q-22 0 -50 -4l-1 -28q-27 1 -47 2q-15 2 -25 2q-22 0 -22 -11q0 -16 47 -53q-6 -62 44 -64q-10 -376 -19 -561q-29 -16 -25 -62q-47 -36 -47 -53q0 -10 22 -10q10 0 25 2l18 1q-1 -2 -1 -5q-3 -8 -3 -14
q0 -10 13 -10q19 0 62 24q16 -9 30 -9q20 0 30 15q166 0 264 -5q41 -1 41 18q0 6 -4 12q30 14 30 16q0 16 -57 39q3 38 -28 38q-10 0 -23 -4q-16 -4 -214 5l6 283l135 18q38 10 38 32q0 16 -24 36q18 15 18 26q0 19 -63 19q-40 0 -101 -8l3 163q255 11 283 4q13 -5 23 -5
q30 0 28 39q56 23 56 38q0 13 -29 17zM264 941q39 -20 39 -53q0 -5 -1 -10q-2 -16 5 -16q5 0 16 12q1 -4 12 0q68 34 59 126q-2 24 -9 41q-15 41 -50 44q-47 3 -63 -64q-27 -26 -27 -50q0 -18 19 -30zM109 945q41 -21 34 -56q-1 -15 5 -15q5 0 14 11h11q6 0 23 30
q-3 38 15 42q18 17 15 41q-2 21 -8 36q-14 37 -45 39q-42 3 -56 -56q-24 -24 -24 -45q0 -16 16 -27z" />
    <glyph glyph-name="Igrave" unicode="&#xcc;" horiz-adv-x="373" 
d="M316 675q19 0 17 37q35 22 35 37q0 12 -18 16q2 6 2 11q0 19 -25 18q-34 -1 -86 -3v1q-23 4 -45 4q-32 0 -53 -7q-79 -2 -141 2q-6 2 -10 2q-6 0 -6 -5q0 -14 36 -56q-9 -25 -9 -40q0 -24 19 -23q37 3 90 7q-1 -222 1 -583q-60 -2 -71 2q-7 5 -13 5q-18 0 -16 -38
q-33 -22 -33 -37q0 -12 17 -15q-2 -7 -2 -12q0 -19 24 -18q43 2 104 4q10 -13 21 -13q9 0 17 8q41 -23 60 -23q12 0 12 10q0 6 -3 13v7q47 -1 73 -3q9 -2 15 -2q13 0 13 10q0 17 -28 52q0 64 -27 62q-21 -2 -53 -4q-2 34 -2 78q0 74 8 264q7 171 5 239q48 1 57 -3t15 -4z
M47 938q17 -12 104 -64q7 -3 16 -3q42 0 66 65q-32 15 -109 74q-48 32 -65 64q-8 21 -16 41q-12 38 -20 38q-12 0 -10 -91q-37 -11 -37 -33q0 -16 18 -33q-2 -1 -2 -3q0 -14 55 -55z" />
    <glyph glyph-name="Iacute" unicode="&#xcd;" horiz-adv-x="403" 
d="M364 765q2 6 2 11q0 19 -25 18q-34 -1 -86 -3v1q-23 4 -45 4q-32 0 -53 -7q-79 -2 -141 2q-6 2 -10 2q-6 0 -6 -5q0 -14 36 -56q-9 -25 -9 -40q0 -24 19 -23q37 3 90 7q-1 -222 1 -583q-60 -2 -71 2q-7 5 -13 5q-18 0 -16 -38q-33 -22 -33 -37q0 -12 17 -15q-2 -7 -2 -12
q0 -19 24 -18q42 2 104 4q10 -13 21 -13q9 0 17 8q41 -23 60 -23q12 0 12 10q0 6 -3 13v7q47 -1 73 -3q9 -2 15 -2q12 0 12 10q0 17 -27 52q0 64 -27 62q-21 -2 -53 -4q-2 34 -2 78q0 74 8 264q7 171 5 239q48 1 56.5 -3t15.5 -4q19 0 17 37q35 22 35 37q0 12 -18 16z
M369 1062q2 91 -10 91q-7 0 -19 -38q-8 -20 -17 -41q-17 -32 -64 -64q-37 -29 -109 -74q23 -65 65 -65q9 0 16 3q19 8 105 64q54 41 54 55q0 2 -1 3q17 17 17 33q0 22 -37 33z" />
    <glyph glyph-name="Icircumflex" unicode="&#xce;" horiz-adv-x="403" 
d="M330 675q19 0 18 37q35 22 35 37q0 12 -18 16q2 6 2 11q0 19 -26 18q-33 -1 -85 -3v1q-24 4 -46 4q-31 0 -52 -7q-79 -2 -141 2q-7 2 -10 2q-6 0 -6 -5q0 -14 36 -56q-9 -25 -9 -40q0 -24 19 -23q37 3 89 7q0 -222 2 -583q-60 -2 -71 2q-7 5 -13 5q-18 0 -17 -38
q-32 -22 -32 -37q0 -12 17 -15q-2 -7 -2 -12q0 -19 23 -18q43 2 105 4q9 -13 21 -13q9 0 17 8q41 -23 60 -23q12 0 12 10q0 6 -3 13l-1 7q47 -1 74 -3q9 -2 15 -2q12 0 12 10q0 17 -27 52q0 64 -28 62q-20 -2 -53 -4q-1 34 -1 78q0 74 7 264q7 171 5 239q48 1 57 -3t15 -4z
M74 916q8 -40 27 -40q13 0 26 15q2 -2 4 -2q12 0 48 50q16 23 29 44q10 -24 24 -41q34 -43 78 -50q24 18 24 27q0 6 -17 25q-22 26 -37 53l-42 92q-17 37 -35 37q-4 0 -10 -2q-20 -6 -28 -29q-16 -41 -40 -73q-32 -43 -59 -58q-16 -7 -33 -14q-33 -9 -33 -17q0 -12 74 -17z
" />
    <glyph glyph-name="Idieresis" unicode="&#xcf;" horiz-adv-x="397" 
d="M330 675q19 0 17 37q35 22 35 37q0 12 -18 16q2 6 2 11q0 19 -25 18q-34 -1 -86 -3v1q-23 4 -45 4q-32 0 -53 -7q-79 -2 -141 2q-6 2 -10 2q-6 0 -6 -5q0 -14 36 -56q-9 -25 -9 -40q0 -24 19 -23q37 3 90 7q-1 -222 1 -583q-60 -2 -71 2q-7 5 -13 5q-18 0 -16 -38
q-33 -22 -33 -37q0 -12 17 -15q-2 -7 -2 -12q0 -19 24 -18q42 2 104 4q10 -13 21 -13q9 0 17 8q41 -23 60 -23q12 0 12 10q0 6 -3 13v7q47 -1 73 -3q9 -2 15 -2q12 0 12 10q0 17 -27 52q0 64 -27 62q-21 -2 -53 -4q-2 34 -2 78q0 74 8 264q7 171 5 239q48 1 56.5 -3t15.5 -4
zM216 941q39 -20 39 -53q0 -5 -1 -10q-1 -16 5 -16t16 12q1 -4 13 0q67 34 59 126q-2 24 -9 41q-16 41 -50 44q-48 3 -63 -64q-27 -26 -27 -50q0 -18 18 -30zM62 945q41 -21 34 -56q-2 -15 4 -15q5 0 15 11h11q6 0 22 30q-2 38 15 42q19 17 16 41q-3 21 -8 36q-15 37 -45 39
q-43 3 -57 -56q-24 -24 -24 -45q0 -16 17 -27z" />
    <glyph glyph-name="Eth" unicode="&#xd0;" horiz-adv-x="530" 
d="M146 803q-28 9 -53 9q-72 0 -114 -60q-52 -11 -52 -51q0 -19 10 -38q71 -105 131 -138q5 -59 8 -129l-90 1q-19 0 -33 -5q-34 -11 -37 -40q-23 -13 -23 -26q0 -18 48 -29q46 -4 136 -7q0 -54 -3 -97q-35 37 -54 37q-16 0 -16 -32q0 -14 3 -34q2 -6 2 -12q0 -29 -43 -34
q-13 -11 -13 -23q0 -37 102 -77q-5 -6 -5 -12q0 -18 51 -15q11 -2 24 3q142 -47 187 -47t114 25q110 67 128 192q16 322 -195 513q-87 79 -213 126zM383 50q-17 -12 -42 -12q-72 0 -183 81q2 92 2 169q63 -1 107 -1q51 29 51 42q0 4 -1 8q2 60 -18 60q-6 0 -12 -5l-127 3
q-1 107 -4 176q15 22 7 38q-4 2 -10 6q-3 46 -8 64q-20 44 -37 44q-12 0 -19 -20q-10 -2 -20 -11q-12 23 3 36q9 4 18 4q94 0 267 -264q63 -150 63 -269q0 -96 -37 -149z" />
    <glyph glyph-name="Ntilde" unicode="&#xd1;" horiz-adv-x="617" 
d="M557 105q-6 5 -18 18q15 542 27 664q4 45 -14 45q-20 0 -57 -45q-18 9 -31 9q-33 0 -35 -48l-11 -492q-111 124 -293 333l-15 237q-109 -3 -114 -56q1 -13 2 -68q-63 -42 -63 -72q0 -9 8 -18t59 -68q7 -158 30 -505q3 -49 36 -49q13 0 31 9q41 -23 55 -23q6 0 6 5t-10 18
q-8 71 -19 395l283 -329q-2 -40 -2 -49q3 -37 73 -37q22 0 51 4l2 86q31 10 31 22q0 7 -12 14zM134 896q26 45 65 45q22 0 41 -14q72 -46 89 -46q14 0 32 10q24 14 51.5 46.5t27.5 52.5q0 11 -9 15q20 39 20 50q0 4 -2 4q-9 0 -38 -32q-25 -45 -71 -45q-13 0 -23 3
q-6 3 -47 37q-29 24 -52 24q-21 0 -43 -17q-77 -60 -77 -120q0 -29 16 -29q10 0 20 16z" />
    <glyph glyph-name="Ograve" unicode="&#xd2;" horiz-adv-x="474" 
d="M214 824q-129 9 -203 -160q-7 -13 -22 -76q-42 -184 -42 -256q0 -41 14 -41q6 0 14 8q8 -25 20 -36q20 -123 58 -202q57 -116 142 -110q12 -2 24 -2q119 0 202 213q35 89 59 213q21 87 21 158q0 188 -143 259q-60 29 -144 32zM388 410q-68 -339 -149 -339q-9 0 -17 4
q-26 6 -45 36q-46 72 -51 250q-2 27 -2 60q0 111 19 185q29 109 95 109q9 0 19 -2q43 -9 74 -30q74 -52 74 -159q0 -51 -17 -114zM48 996q-2 -1 -2 -3q0 -14 54 -55q17 -12 105 -64q7 -3 16 -3q42 0 65 65q-32 15 -109 74q-47 32 -64 64q-8 21 -17 41q-12 38 -19 38
q-12 0 -10 -91q-37 -11 -37 -33q0 -16 18 -33z" />
    <glyph glyph-name="Oacute" unicode="&#xd3;" horiz-adv-x="486" 
d="M220 824q-129 9 -203 -160q-7 -13 -22 -76q-42 -184 -42 -256q0 -41 14 -41q6 0 14 8q8 -25 20 -36q20 -123 58 -202q57 -116 142 -110q12 -2 24 -2q120 0 202 213q35 89 59 213q21 87 21 158q0 188 -143 259q-60 29 -144 32zM394 410q-68 -339 -149 -339q-9 0 -17 4
q-26 6 -45 36q-46 72 -51 250q-2 27 -2 60q0 111 19 185q29 109 95 109q9 0 19 -2q43 -9 74 -30q74 -52 74 -159q0 -51 -17 -114zM252 874q19 8 105 64q54 41 54 55q0 2 -2 3q18 17 18 33q0 22 -37 33q2 91 -10 91q-7 0 -20 -38q-8 -20 -16 -41q-17 -32 -64 -64
q-38 -29 -109 -74q23 -65 65 -65q9 0 16 3z" />
    <glyph glyph-name="Ocircumflex" unicode="&#xd4;" horiz-adv-x="486" 
d="M226 824q-129 9 -203 -160q-7 -13 -22 -76q-42 -184 -42 -256q0 -41 14 -41q6 0 13 8q9 -25 21 -36q20 -123 58 -202q56 -116 142 -110q12 -2 24 -2q119 0 202 213q34 89 59 213q21 87 21 158q0 188 -143 259q-60 29 -144 32zM400 410q-68 -339 -149 -339q-9 0 -17 4
q-26 6 -45 36q-46 72 -51 250q-2 27 -2 60q0 111 19 185q29 109 95 109q9 0 19 -2q43 -9 74 -30q74 -52 74 -159q0 -51 -17 -114zM148 916q7 -40 27 -40q12 0 26 15q1 -2 3 -2q12 0 49 50q16 23 28 44q11 -24 25 -41q33 -43 78 -50q24 18 24 27q0 6 -17 25q-23 26 -37 53
l-42 92q-17 37 -35 37q-5 0 -10 -2q-20 -6 -29 -29q-15 -41 -39 -73q-32 -43 -59 -58l-34 -14q-32 -9 -32 -17q0 -12 74 -17z" />
    <glyph glyph-name="Otilde" unicode="&#xd5;" horiz-adv-x="487" 
d="M95 896q26 45 64 45q22 0 42 -14q71 -46 89 -46q13 0 31 10q25 14 52.5 46.5t27.5 52.5q0 11 -9 15q20 39 20 50q0 4 -3 4q-8 0 -37 -32q-26 -45 -71 -45q-13 0 -23 3q-6 3 -48 37q-29 24 -51 24q-21 0 -43 -17q-77 -60 -77 -120q0 -29 16 -29q10 0 20 16zM227 824
q-129 9 -203 -160q-7 -13 -22 -76q-42 -184 -42 -256q0 -41 14 -41q6 0 14 8q8 -25 20 -36q20 -123 58 -202q57 -116 142 -110q12 -2 24 -2q119 0 202 213q35 89 59 213q21 87 21 158q0 188 -143 259q-60 29 -144 32zM401 410q-68 -339 -149 -339q-9 0 -17 4q-26 6 -45 36
q-46 72 -51 250q-2 27 -2 60q0 111 19 185q29 109 95 109q9 0 19 -2q43 -9 74 -30q74 -52 74 -159q0 -51 -17 -114z" />
    <glyph glyph-name="Odieresis" unicode="&#xd6;" horiz-adv-x="487" 
d="M220 824q-129 9 -203 -160q-7 -13 -21 -76q-43 -184 -43 -256q0 -41 14 -41q6 0 14 8q8 -25 20 -36q20 -123 58 -202q57 -116 142 -110q12 -2 24 -2q120 0 202 213q35 89 59 213q21 87 21 158q0 188 -143 259q-60 29 -144 32zM394 410q-68 -339 -149 -339q-9 0 -17 4
q-26 6 -45 36q-46 72 -51 250q-2 27 -2 60q0 111 19 185q29 109 95 109q9 0 19 -2q43 -9 74 -30q74 -52 74 -159q0 -51 -17 -114zM262 941q39 -20 39 -53q0 -5 -1 -10q-1 -16 5 -16t16 12q1 -4 13 0q67 34 59 126q-3 24 -9 41q-16 41 -50 44q-48 3 -63 -64q-27 -26 -27 -50
q0 -18 18 -30zM108 945q41 -21 34 -56q-2 -15 4 -15q5 0 14 11h12q6 0 22 30q-2 38 15 42q19 17 15 41q-2 21 -8 36q-14 37 -44 39q-43 3 -57 -56q-24 -24 -24 -45q0 -16 17 -27z" />
    <glyph glyph-name="multiply" unicode="&#xd7;" horiz-adv-x="485" 
d="M365 549q-38 -31 -147 -136l-140 142q-24 16 -43 16q-18 0 -28 -16q-33 -31 -33 -47q0 -11 15 -13l153 -157l-142 -140q-16 -24 -16 -43t16 -28q30 -33 47 -33q11 0 13 15l157 153l109 -111q29 -27 56 -27q14 0 26 9q9 -3 18 -3q21 0 21 17q0 15 -18 43q-31 38 -136 147
l111 109q27 29 27 55q0 15 -9 27q3 9 3 18q0 20 -17 20q-15 0 -43 -17z" />
    <glyph glyph-name="Ugrave" unicode="&#xd9;" horiz-adv-x="529" 
d="M600 757q-8 7 -45 -6q-27 -9 -46 -9q-35 0 -46 27q-4 10 -4 21q0 6 1 12q-15 38 -25 44q-11 -7 -19 -38q-4 -303 -48 -450q-32 -102 -44 -131q-41 -96 -85 -96q-24 0 -46 24q-41 42 -41 317q0 110 6 238q6 108 8 111l-2 -6q4 31 -7 37q-3 0 -7 -5l-2 -2q-48 -54 -94 -54
q-17 0 -36 6q-11 3 -14 1q-8 -7 -4 -31l2 -11v-2v-3q-1 -52 -1 -100q0 -526 152 -660q45 -38 82 -33l2 1h2q233 3 347 633l7 36q13 77 13 103q0 21 -6 26zM116 996q-2 -1 -2 -3q0 -14 55 -55q17 -12 104 -64q8 -3 17 -3q42 0 65 65q-32 15 -109 74q-47 32 -65 64
q-8 21 -16 41q-12 38 -20 38q-12 0 -10 -91q-37 -11 -37 -33q0 -16 18 -33z" />
    <glyph glyph-name="Uacute" unicode="&#xda;" horiz-adv-x="545" 
d="M600 757q-8 7 -45 -6q-27 -9 -46 -9q-35 0 -46 27q-4 10 -4 21q0 6 1 12q-15 38 -25 44q-11 -7 -19 -38q-4 -303 -48 -450q-32 -102 -44 -131q-41 -96 -85 -96q-24 0 -46 24q-41 42 -41 317q0 110 6 238q6 108 8 111l-2 -6q4 31 -7 37q-3 0 -7 -5l-2 -2q-48 -54 -94 -54
q-17 0 -36 6q-11 3 -14 1q-8 -7 -4 -31l2 -11v-2v-3q-1 -52 -1 -100q0 -526 152 -660q45 -38 82 -33l2 1h2q233 3 347 633l7 36q13 77 13 103q0 21 -6 26zM289 874q19 8 105 64q54 41 54 55q0 2 -1 3q18 17 18 33q0 22 -38 33q3 91 -10 91q-7 0 -19 -38q-8 -20 -16 -41
q-18 -32 -65 -64q-37 -29 -109 -74q23 -65 65 -65q9 0 16 3z" />
    <glyph glyph-name="Ucircumflex" unicode="&#xdb;" horiz-adv-x="539" 
d="M600 757q-8 7 -45 -6q-27 -9 -46 -9q-35 0 -46 27q-4 10 -4 21q0 6 1 12q-15 38 -25 44q-11 -7 -19 -38q-4 -303 -48 -450q-32 -102 -44 -131q-41 -96 -85 -96q-24 0 -46 24q-41 42 -41 317q0 110 6 238q6 108 8 111l-2 -6q4 31 -7 37q-3 0 -7 -5l-2 -2q-48 -54 -94 -54
q-17 0 -36 6q-11 3 -14 1q-8 -7 -4 -31l2 -11v-2v-3q-1 -52 -1 -100q0 -526 152 -660q45 -38 82 -33l2 1h2q233 3 347 633l7 36q13 77 13 103q0 21 -6 26zM174 916q8 -40 27 -40q13 0 26 15q2 -2 4 -2q12 0 48 50q16 23 29 44q10 -24 24 -41q34 -43 78 -50q24 18 24 27
q0 6 -17 25q-22 26 -37 53l-42 92q-17 37 -35 37q-4 0 -10 -2q-20 -6 -28 -29q-16 -41 -40 -73q-32 -43 -59 -58q-16 -7 -33 -14q-33 -10 -33 -17q0 -12 74 -17z" />
    <glyph glyph-name="Udieresis" unicode="&#xdc;" horiz-adv-x="552" 
d="M600 757q-8 7 -45 -6q-27 -9 -46 -9q-35 0 -46 27q-4 10 -4 21q0 6 1 12q-15 38 -25 44q-11 -7 -19 -38q-4 -303 -48 -450q-32 -102 -44 -131q-41 -96 -85 -96q-24 0 -46 24q-41 42 -41 317q0 110 6 238q6 108 8 111l-2 -6q4 31 -7 37q-3 0 -7 -5l-2 -2q-48 -54 -94 -54
q-17 0 -36 6q-11 3 -14 1q-8 -7 -4 -31l2 -11v-2v-3q-1 -52 -1 -100q0 -526 152 -660q45 -38 82 -33l2 1h2q233 3 347 633l7 36q13 77 13 103q0 21 -6 26zM309 941q39 -20 39 -53q0 -5 -1 -10q-1 -16 6 -16q5 0 15 12q1 -4 13 0q68 34 59 126q-2 24 -9 41q-16 41 -50 44
q-47 3 -63 -64q-27 -26 -27 -50q0 -18 18 -30zM155 945q41 -21 34 -56q-1 -15 5 -15q5 0 14 11h11q6 0 23 30q-3 38 15 42q18 17 15 41q-2 21 -8 36q-14 37 -45 39q-42 3 -56 -56q-24 -24 -24 -45q0 -16 16 -27z" />
    <glyph glyph-name="Yacute" unicode="&#xdd;" horiz-adv-x="573" 
d="M633 777q6 8 6 15q0 12 -23 12q-28 0 -87 -19q-32 24 -56 24q-36 0 -41 -57q-34 -69 -76 -186q-55 -153 -70 -190q-14 35 -70 190q-42 117 -76 186q-13 54 -40 54q-26 0 -57 -45q-72 41 -97 41q-12 0 -12 -10q0 -6 5 -15l256 -563q3 -110 3 -112q0 -34 -3 -66
q-1 -8 6 -15v-15q4 -48 51 -48q19 0 45 10q60 -23 87 -23q18 0 18 11q0 5 -4 12q-8 49 -18 223l3 74q28 69 63 145q84 182 187 367zM283 874q18 8 104 64q55 41 55 55q0 2 -2 3q18 17 18 33q0 22 -37 33q2 91 -10 91q-8 0 -20 -38q-8 -20 -16 -41q-17 -32 -65 -64
q-37 -29 -109 -74q23 -65 66 -65q9 0 16 3z" />
    <glyph glyph-name="Thorn" unicode="&#xde;" horiz-adv-x="513" 
d="M550 367v1l-1 3q-25 223 -406 290q-2 126 -6 158q-10 48 -28 48q-14 0 -27 -23q-70 -5 -75 -70v-93q-34 3 -39 -8q-4 -9 8 -43.5t12 -56.5q0 -16 -6 -27q-4 -7 -31.5 -25.5t-27.5 -19.5q6 -9 28 -15q25 2 58 3l1 -195q-23 1 -26 2l4 -2q-22 2 -24 -10q0 -2 3 -6l2 -2
q32 -33 41 -65l2 -219q5 -33 85 -30q5 -2 9 -2q33 0 41 52v133q197 19 290 56q74 31 99 82q22 47 14 84zM146 290q0 112 -1 199q74 -5 119 -19q87 -28 116 -43q49 -26 49 -58q0 -76 -283 -79z" />
    <glyph glyph-name="agrave" unicode="&#xe0;" 
d="M302 271q-4 -1 -9 -3q-7 0 -21 2q-5 1 -12 2q2 29 2 54q0 182 -99 179q-74 -3 -103 -47q-8 -14 -21 -70q-6 -26 -6 -51q0 -28 10 -28q9 0 26 26q36 54 70 54q9 0 17 -5q34 -18 34 -94q-17 3 -34 3q-55 0 -97 -33q-37 -28 -46 -64q-12 -49 -12 -84q0 -101 87 -115
q8 -1 16 -1q44 0 78 39q0 -4 -4.5 -20.5t-4.5 -19.5q0 -8 18 -8q14 0 40 5q10 -3 17 -3q24 0 21 24q5 84 0 173q9 -3 30 -9h9q6 -1 8 -1q10 0 13 35q1 46 -27 60zM137 102q-15 -15 -27 -15q-26 0 -26 72q13 43 95 40q-15 -66 -42 -97zM59 597q17 -12 104 -64q7 -3 16 -3
q42 0 66 65q-32 15 -109 74q-38 25 -52 48q-15 29 -29 57q-12 39 -20 39q-12 0 -10 -91q-37 -12 -37 -34q0 -16 18 -33q-2 -1 -2 -3q0 -14 55 -55z" />
    <glyph glyph-name="aacute" unicode="&#xe1;" 
d="M302 271q-5 -1 -9 -3q-8 0 -22 2q-4 1 -12 2q3 29 3 54q0 182 -100 179q-74 -3 -102 -47q-9 -14 -22 -70q-5 -26 -5 -51q0 -28 9 -28q10 0 26 26q37 54 70 54q9 0 17 -5q34 -18 34 -94q-17 3 -34 3q-55 0 -97 -33q-37 -28 -46 -64q-12 -49 -12 -84q0 -101 87 -115
q8 -1 16 -1q44 0 78 39q0 -4 -4.5 -20.5t-4.5 -19.5q0 -8 18 -8q14 0 40 5q10 -3 17 -3q24 0 21 24v173q9 -3 30 -9h10q5 -1 7 -1q10 0 13 35q2 46 -26 60zM136 102q-14 -15 -27 -15q-25 0 -25 72q12 43 95 40q-16 -66 -43 -97zM311 722q3 91 -10 91q-7 0 -19 -39
q-8 -20 -16 -41q-18 -32 -65 -64q-37 -29 -109 -74q23 -65 65 -65q9 0 16 3q19 8 105 64q54 41 54 55q0 2 -1 3q18 17 18 33q0 22 -38 34z" />
    <glyph glyph-name="acircumflex" unicode="&#xe2;" 
d="M301 271q-5 -1 -9 -3q-8 0 -21 2q-5 1 -12 2q2 29 2 54q0 182 -99 179q-75 -3 -103 -47q-9 -14 -21 -70q-6 -26 -6 -51q0 -28 10 -28q9 0 26 26q36 54 69 54q9 0 17 -5q34 -18 35 -94q-18 3 -35 3q-55 0 -97 -33q-36 -28 -45 -64q-13 -49 -13 -84q0 -101 88 -115
q8 -1 15 -1q44 0 79 39q-1 -4 -5 -20.5t-4 -19.5q0 -8 18 -8q14 0 39 5q10 -3 18 -3q24 0 20 24q1 78 0 173q9 -3 30 -9h10q6 -1 7 -1q10 0 13 35q2 46 -26 60zM135 102q-14 -15 -26 -15q-26 0 -26 72q12 43 95 40q-16 -66 -43 -97zM86 538q1 -2 3 -2q12 0 49 49
q16 24 28 44q11 -23 25 -41q33 -42 78 -49q24 17 24 27q0 6 -17 25q-23 25 -38 53q-20 46 -41 91q-18 37 -36 37q-4 0 -9 -1q-20 -7 -29 -30q-15 -40 -40 -73q-32 -42 -58 -58l-34 -14q-33 -9 -33 -16q0 -12 75 -18q7 -40 26 -40q13 0 27 16z" />
    <glyph glyph-name="atilde" unicode="&#xe3;" horiz-adv-x="357" 
d="M12 535q26 45 65 45q21 0 41 -14q72 -46 89 -46q14 0 31 10q25 14 52.5 46.5t27.5 52.5q0 11 -9 14q20 40 20 51q0 4 -2 4q-9 0 -38 -32q-25 -45 -71 -45q-13 0 -23 3q-6 3 -47 37q-29 24 -52 24q-21 0 -43 -17q-77 -60 -77 -120q0 -29 16 -29q10 0 20 16zM304 271
q-4 -1 -9 -3q-7 0 -21 2q-5 1 -12 2q2 29 2 54q0 182 -99 179q-74 -3 -103 -47q-8 -14 -21 -70q-6 -26 -6 -51q0 -28 10 -28q9 0 26 26q36 54 70 54q9 0 17 -5q34 -18 34 -94q-17 3 -34 3q-55 0 -97 -33q-37 -28 -46 -64q-12 -49 -12 -84q0 -101 87 -115q8 -1 16 -1
q44 0 78 39q0 -4 -4.5 -20.5t-4.5 -19.5q0 -8 18 -8q14 0 40 5q10 -3 17 -3q24 0 21 24v173q9 -3 30 -9h9q6 -1 8 -1q10 0 13 35q1 46 -27 60zM139 102q-15 -15 -27 -15q-26 0 -26 72q13 43 95 40q-15 -66 -42 -97z" />
    <glyph glyph-name="adieresis" unicode="&#xe4;" 
d="M302 271q-5 -1 -9 -3q-8 0 -22 2q-4 1 -12 2q3 29 3 54q0 182 -100 179q-74 -3 -102 -47q-9 -14 -22 -70q-5 -26 -5 -51q0 -28 9 -28q10 0 26 26q37 54 70 54q9 0 17 -5q34 -18 34 -94q-17 3 -34 3q-55 0 -97 -33q-37 -28 -46 -64q-12 -49 -12 -84q0 -101 87 -115
q8 -1 16 -1q44 0 78 39q0 -4 -4.5 -20.5t-4.5 -19.5q0 -8 18 -8q14 0 40 5q10 -3 17 -3q24 0 21 24v173q9 -3 30 -9h10q5 -1 7 -1q10 0 13 35q2 46 -26 60zM136 102q-14 -15 -27 -15q-25 0 -25 72q12 43 95 40q-16 -66 -43 -97zM183 610q39 -20 39 -53q0 -5 -1 -10
q-1 -16 6 -16q5 0 15 12q1 -4 13 0q68 34 59 126q-2 24 -9 41q-16 41 -50 44q-47 3 -63 -64q-27 -26 -27 -50q0 -18 18 -30zM29 614q41 -21 34 -56q-1 -14 5 -15q5 0 14 11h11q6 0 23 30q-3 38 15 42q18 17 15 41q-2 21 -8 36q-14 37 -45 39q-42 3 -56 -56q-24 -24 -24 -45
q0 -16 16 -27z" />
    <glyph glyph-name="aring" unicode="&#xe5;" horiz-adv-x="350" 
d="M302 271q-5 -1 -9 -3q-8 0 -22 2q-4 1 -12 2q3 29 3 54q0 182 -100 179q-74 -3 -102 -47q-9 -14 -22 -70q-5 -26 -5 -51q0 -28 9 -28q10 0 26 26q37 54 70 54q9 0 17 -5q34 -18 34 -94q-17 3 -34 3q-55 0 -97 -33q-37 -28 -46 -64q-12 -49 -12 -84q0 -101 87 -115
q8 -1 16 -1q44 0 78 39q0 -4 -4.5 -20.5t-4.5 -19.5q0 -8 18 -8q14 0 40 5q10 -3 17 -3q24 0 21 24v173q9 -3 30 -9h10q5 -1 7 -1q10 0 13 35q2 46 -26 60zM136 102q-14 -15 -27 -15q-25 0 -25 72q12 43 95 40q-16 -66 -43 -97zM135 544q90 -10 132 112q10 23 10 42
q0 74 -133 77q-108 4 -108 -104q0 -14 2 -27q14 -96 97 -100zM154 721q46 -6 46 -35q0 -10 -5 -22q-24 -71 -51 -62q-8 1 -14 6q-14 14 -16 47q-4 72 40 66z" />
    <glyph glyph-name="ccedilla" unicode="&#xe7;" horiz-adv-x="287" 
d="M211 164q-6 8 -13 8q-15 0 -31 -35q-32 -72 -71 -72q-15 0 -28 11q-5 10 -5 26q0 54 44 161q30 102 88 143q4 1 8 1q19 0 19 -24q0 -20 -11 -48q-44 -42 -10 -42q16 0 43 9q45 15 45 68q0 49 -34 113q-24 22 -50 22q-93 0 -181 -231q-29 -90 -29 -161q0 -84 37 -123
q-21 -55 -33 -66q-18 -5 -22 -16q-4 -10 6 -20q15 -15 36 -15q11 0 24 8q33 -4 39 -19q1 -3 -7 -31q-38 -65 -72 -66q-31 1 -31 22q-4 26 -20 26v0q-15 0 -30 -28q-16 4 -21 -12q-3 -8 -2 -22q18 -68 78 -65q100 0 151 119q17 41 17 74q0 40 -27 52v0q-13 7 -37 11
q2 4 14 26q94 4 155 157q15 14 15 23q0 18 -54 16z" />
    <glyph glyph-name="egrave" unicode="&#xe8;" horiz-adv-x="297" 
d="M260 289q13 52 13 89q0 106 -92 121q-8 1 -17 1q-108 0 -152 -204q-15 3 -52 13h-11q-6 1 -7 1q-11 0 -14 -37q-2 -48 28 -63q4 2 9 4q8 0 22 -3q5 -1 13 -2q-2 -30 -2 -57q0 -191 104 -188q79 3 108 50q9 14 23 73q6 27 6 54q0 30 -11 30q-9 0 -27 -28q-38 -56 -73 -56
q-10 0 -18 4q-36 19 -36 100q18 -4 36 -4q58 0 102 34q38 30 48 68zM85 286q17 70 45 102q15 16 28 16q27 0 27 -75q-13 -47 -100 -43zM-10 655q-2 -1 -2 -3q0 -14 55 -55q17 -12 104 -64q7 -3 16 -3q42 0 66 65q-32 15 -109 74q-48 32 -65 64q-8 21 -16 41q-12 39 -20 39
q-12 0 -10 -91q-37 -12 -37 -34q0 -16 18 -33z" />
    <glyph glyph-name="eacute" unicode="&#xe9;" horiz-adv-x="302" 
d="M181 499q-8 1 -17 1q-108 0 -152 -204q-15 3 -52 13h-11q-6 1 -7 1q-11 0 -14 -37q-2 -48 28 -63q4 2 9 4q8 0 22 -3q5 -1 13 -2q-2 -30 -2 -57q0 -191 104 -188q79 3 108 50q9 14 23 73q6 27 6 54q0 30 -11 30q-9 0 -27 -28q-38 -56 -73 -56q-10 0 -18 4q-36 19 -36 100
q18 -4 36 -4q58 0 102 34q38 30 48 68q13 52 13 89q0 106 -92 121zM85 286q17 70 45 102q15 16 28 16q27 0 27 -75q-13 -47 -100 -43zM326 722q2 91 -10 91q-7 0 -19 -39q-8 -20 -17 -41q-17 -32 -64 -64q-37 -29 -109 -74q23 -65 65 -65q9 0 16 3q19 8 105 64q54 41 54 55
q0 2 -1 3q17 17 17 33q0 22 -37 34z" />
    <glyph glyph-name="ecircumflex" unicode="&#xea;" horiz-adv-x="308" 
d="M184 499q-8 1 -17 1q-108 0 -152 -204q-15 3 -52 13h-11q-6 1 -7 1q-11 0 -14 -37q-2 -48 28 -63q4 2 9 4q8 0 23 -3q4 -1 12 -2q-2 -30 -2 -57q0 -191 104 -188q79 3 108 50q10 14 23 73q6 27 6 54q0 30 -11 30q-9 0 -27 -28q-38 -56 -73 -56q-10 0 -18 4
q-36 19 -36 100q18 -4 36 -4q58 0 102 34q38 30 48 68q13 52 13 89q0 106 -92 121zM88 286q17 70 45 102q15 16 28 16q27 0 27 -75q-13 -47 -100 -43zM250 644q-21 46 -42 91q-17 37 -36 37q-4 0 -9 -1q-20 -7 -29 -30q-15 -40 -40 -73q-31 -42 -58 -58l-34 -14
q-33 -9 -33 -16q0 -12 75 -18q7 -40 26 -40q13 0 27 16q1 -2 3 -2q12 0 49 49q16 24 28 44q11 -23 25 -41q33 -42 78 -49q24 17 24 27q0 6 -17 25q-23 25 -37 53z" />
    <glyph glyph-name="edieresis" unicode="&#xeb;" horiz-adv-x="308" 
d="M184 499q-9 1 -17 1q-109 0 -152 -204q-15 3 -53 13h-10q-6 1 -8 1q-10 0 -13 -37q-2 -48 27 -63l10 4q8 0 22 -3q5 -1 13 -2q-3 -30 -3 -57q0 -191 105 -188q78 3 108 50q9 14 22 73q6 27 6 54q0 30 -10 30t-27 -28q-38 -56 -74 -56q-9 0 -17 4q-36 19 -37 100
q19 -4 37 -4q59 0 104 34q40 31 46 68q11 76 11 93q0 102 -90 117zM88 286q16 70 44 102q16 16 29 16q27 0 27 -75q-13 -47 -100 -43zM161 610q39 -20 39 -53q0 -5 -1 -10q-2 -16 5 -16q5 0 16 12q1 -4 13 0q67 34 58 126q-2 24 -8 41q-16 41 -50 44q-48 3 -64 -64
q-27 -26 -27 -50q0 -18 19 -30zM7 614q40 -21 33 -56q-1 -14 5 -15q5 0 14 11h11q6 0 23 30q-2 38 15 42q19 17 15 41q-2 21 -8 36q-14 37 -45 39q-42 3 -56 -56q-24 -24 -24 -45q0 -16 17 -27z" />
    <glyph glyph-name="igrave" unicode="&#xec;" horiz-adv-x="297" 
d="M208 422q2 10 2 18q0 31 -27 31q-15 0 -33 -9q-18 8 -30 8q-26 0 -25 -30q-4 -244 -18 -420q-6 -8 -6 -14q0 -26 79 -23q11 -2 21 -2q39 0 39 43q0 9 -2 18v380zM215 595q-32 15 -109 74q-47 32 -64 64q-8 21 -16 41q-13 39 -20 39q-12 0 -10 -91q-37 -12 -37 -34
q0 -16 18 -33q-2 -1 -2 -3q0 -14 54 -55q17 -12 105 -64q7 -3 16 -3q42 0 65 65z" />
    <glyph glyph-name="iacute" unicode="&#xed;" horiz-adv-x="297" 
d="M212 422q2 10 2 18q0 31 -27 31q-15 0 -34 -9q-17 8 -29 8q-26 0 -25 -30q-4 -244 -19 -420q-5 -8 -5 -14q0 -26 78 -23q12 -2 22 -2q39 0 39 43q0 9 -2 18v380zM317 722q2 91 -10 91q-8 0 -20 -39q-8 -20 -16 -41q-17 -32 -65 -64q-37 -29 -109 -74q24 -65 66 -65
q9 0 16 3q18 8 104 64q55 41 55 55q0 2 -2 3q18 17 18 33q0 22 -37 34z" />
    <glyph glyph-name="icircumflex" unicode="&#xee;" horiz-adv-x="286" 
d="M208 422q2 10 2 18q0 31 -27 31q-15 0 -34 -9q-17 8 -29 8q-26 0 -25 -30q-4 -244 -19 -420q-5 -8 -5 -14q0 -26 78 -23q12 -2 22 -2q39 0 39 43q0 9 -2 18v380zM233 644q-21 46 -42 91q-17 37 -35 37q-5 0 -10 -1q-20 -7 -29 -30q-15 -40 -39 -73q-32 -42 -59 -58
q-17 -7 -33 -14q-33 -9 -33 -16q0 -12 74 -18q7 -40 27 -40q12 0 26 16q1 -2 4 -2q11 0 48 49q16 24 29 44q10 -23 24 -41q33 -42 78 -49q24 17 24 27q0 6 -17 25q-22 25 -37 53z" />
    <glyph glyph-name="idieresis" unicode="&#xef;" horiz-adv-x="286" 
d="M204 422q2 10 2 18q0 31 -27 31q-15 0 -34 -9q-17 8 -29 8q-26 0 -25 -30q-4 -244 -19 -420q-5 -8 -5 -14q0 -26 78 -23q12 -2 22 -2q39 0 39 43q0 9 -2 18v380zM291 669q-2 24 -9 41q-15 41 -50 44q-47 3 -63 -64q-27 -26 -27 -50q0 -18 19 -30q39 -20 39 -53
q0 -5 -1 -10q-2 -16 5 -16q5 0 16 12q1 -4 12 0q68 34 59 126zM93 584q-2 38 15 42q19 17 15 41q-2 21 -8 36q-14 37 -45 39q-42 3 -56 -56q-24 -24 -24 -45q0 -16 16 -27q41 -21 34 -56q-1 -14 5 -15q5 0 14 11h11q6 0 23 30z" />
    <glyph glyph-name="eth" unicode="&#xf0;" horiz-adv-x="472" 
d="M506 729q-14 52 -32 52q-7 0 -13 -9l-76 -21q-7 35 -14 60q-19 70 -47 70q-31 0 -65 -76q-27 23 -38 23q-7 0 -7 -11q0 -25 39 -101l-49 -13q-62 -23 -53 -65q-14 -15 -14 -27q0 -23 55 -17q36 8 94 22q8 -38 13 -82q-41 18 -72 17q-71 0 -122 -19q-122 -47 -122 -182
q0 -45 13 -97q18 -92 47 -156q68 -154 175 -141q43 2 77 27q82 59 105 226q10 69 10 105q1 9 4 26q19 -8 31 -8q15 0 15 15q0 24 -36 77q-3 115 -19 223l69 18q38 22 38 46q0 9 -6 18zM283 239q-11 -140 -63 -149q-5 -2 -10 -2q-48 0 -82 182q-8 30 -8 54q0 89 92 103
q73 11 73 -136q0 -28 -2 -52z" />
    <glyph glyph-name="ntilde" unicode="&#xf1;" horiz-adv-x="366" 
d="M25 535q26 45 64 45q22 0 42 -14q71 -46 89 -46q13 0 31 10q25 14 52.5 46.5t27.5 52.5q0 11 -9 14q20 40 20 51q0 4 -3 4q-8 0 -37 -32q-26 -45 -71 -45q-13 0 -23 3q-6 3 -48 37q-29 24 -51 24q-21 0 -43 -17q-77 -60 -77 -120q0 -29 16 -29q10 0 20 16zM353 175
q-28 -30 -44 -30q-13 0 -13 26q0 9 1 20q11 82 16 256q0 60 -30 60q-41 0 -126 -116q-16 -22 -27 -22q-9 0 -13 18l4 52q1 9 1 19q0 39 -18 39q-11 0 -27 -14l-76 -64q-26 -18 -26 -40q0 -14 11 -14q7 0 15 6q3 3 7 3q11 0 9 -35l-20 -344l100 -4l16 176q49 149 74 149
q14 0 18 -53q-4 -115 0 -176q0 -92 48 -92q58 0 96 76q33 66 33 107q0 13 -7 13t-22 -16z" />
    <glyph glyph-name="ograve" unicode="&#xf2;" horiz-adv-x="308" 
d="M137 493q-80 5 -114 -81q-24 -59 -24 -152q0 -33 3 -60q17 -217 124 -226q7 -1 14 -1q105 0 155 253q13 51 13 94q0 112 -86 153q-35 18 -85 20zM220 245q-29 -156 -64 -156q-4 0 -8 2q-11 2 -19 16q-20 33 -22 115q-6 176 56 162q64 -14 64 -87q0 -24 -7 -52zM39 597
q17 -12 105 -64q7 -3 16 -3q42 0 65 65q-32 15 -109 74q-47 32 -64 64q-9 21 -17 41q-12 39 -19 39q-12 0 -10 -91q-37 -12 -37 -34q0 -16 17 -33q-1 -1 -1 -3q0 -14 54 -55z" />
    <glyph glyph-name="oacute" unicode="&#xf3;" horiz-adv-x="308" 
d="M135 493q-79 5 -114 -81q-24 -59 -24 -152q0 -33 3 -60q17 -217 124 -226q7 -1 14 -1q106 0 155 253q13 51 13 94q0 112 -85 153q-36 18 -86 20zM218 245q-29 -156 -64 -156q-4 0 -7 2q-11 2 -20 16q-19 33 -22 115q-6 176 57 162q64 -14 64 -87q0 -24 -8 -52zM306 722
q2 91 -10 91q-7 0 -20 -39q-8 -20 -16 -41q-17 -32 -64 -64q-38 -29 -109 -74q23 -65 65 -65q9 0 16 3q19 8 105 64q54 41 54 55q0 2 -2 3q18 17 18 33q0 22 -37 34z" />
    <glyph glyph-name="ocircumflex" unicode="&#xf4;" horiz-adv-x="318" 
d="M139 493q-80 5 -114 -81q-24 -59 -24 -152q0 -33 3 -60q17 -217 124 -226q7 -1 14 -1q105 0 155 253q13 51 13 94q0 112 -86 153q-35 18 -85 20zM222 245q-29 -156 -64 -156q-4 0 -8 2q-11 2 -19 16q-20 33 -22 115q-6 176 56 162q64 -14 64 -87q0 -24 -7 -52zM85 538
q1 -2 3 -2q12 0 49 49q16 24 28 44q11 -23 25 -41q33 -42 78 -49q24 17 24 27q0 6 -17 25q-23 25 -37 53q-21 46 -42 91q-17 37 -36 37q-4 0 -9 -1q-20 -7 -29 -30q-15 -40 -40 -73q-31 -42 -58 -58l-34 -14q-33 -9 -33 -16q0 -12 75 -18q7 -40 26 -40q13 0 27 16z" />
    <glyph glyph-name="otilde" unicode="&#xf5;" horiz-adv-x="313" 
d="M311 643q21 40 21 51q0 4 -3 4q-8 0 -37 -32q-26 -45 -72 -45q-12 0 -22 3q-6 3 -48 37q-29 24 -51 24q-21 0 -44 -17q-77 -60 -77 -120q0 -29 17 -29q10 0 19 16q27 45 65 45q22 0 41 -14q72 -46 90 -46q13 0 31 10q25 14 52.5 46.5t27.5 52.5q0 11 -10 14zM139 493
q-80 5 -115 -81q-24 -59 -24 -152q0 -33 3 -60q18 -217 124 -226q8 -1 15 -1q105 0 155 253q12 51 12 94q0 112 -85 153q-36 18 -85 20zM221 245q-29 -156 -64 -156q-3 0 -7 2q-11 2 -19 16q-20 33 -22 115q-7 176 56 162q64 -14 64 -87q0 -24 -8 -52z" />
    <glyph glyph-name="odieresis" unicode="&#xf6;" horiz-adv-x="313" 
d="M138 493q-80 5 -114 -81q-24 -59 -24 -152q0 -33 3 -60q17 -217 124 -226q7 -1 14 -1q105 0 155 253q13 51 13 94q0 112 -85 153q-36 18 -86 20zM221 245q-29 -156 -64 -156q-4 0 -7 2q-12 2 -20 16q-20 33 -22 115q-6 176 57 162q64 -14 64 -87q0 -24 -8 -52zM171 610
q39 -20 39 -53q0 -5 -1 -10q-2 -16 5 -16q6 0 16 12q1 -4 13 0q67 34 59 126q-3 24 -9 41q-16 41 -50 44q-48 3 -64 -64q-27 -26 -27 -50q0 -18 19 -30zM17 614q40 -21 33 -56q-1 -14 5 -15q5 0 14 11h12q5 0 22 30q-2 38 15 42q19 17 15 41q-2 21 -8 36q-14 37 -44 39
q-43 3 -57 -56q-24 -24 -24 -45q0 -16 17 -27z" />
    <glyph glyph-name="divide" unicode="&#xf7;" horiz-adv-x="648" 
d="M558 382q-130 11 -507 10q-51 -29 -51 -41q0 -4 1 -9q-2 -60 18 -60q5 0 12 5l482 -5q19 1 33 6q34 11 37 39q23 14 23 27q0 18 -48 28zM263 243q-27 -13 -27 -50q0 -16 6 -34q-7 -21 -5 -36q31 -34 63 -34q10 0 19 4q30 12 30 74q0 17 -4 46q-31 34 -62 34q-10 0 -20 -4
zM237 453q31 -33 63 -33q10 0 19 4q30 12 30 74q0 17 -4 46q-31 34 -62 34q-10 0 -20 -5q-27 -13 -27 -49q0 -16 6 -35q-7 -20 -5 -36z" />
    <glyph glyph-name="ugrave" unicode="&#xf9;" horiz-adv-x="350" 
d="M302 474q-42 0 -51 31q-3 12 -9 12q-11 0 -16 -34q-34 -244 -70 -291l-22.5 -22.5t-17.5 -11.5q-13 0 -13 66q-1 112 19 212q3 16 3 26q0 14 -7 14q-10 0 -31 -28q-3 -12 -11 -12q-11 0 -30 22q-15 17 -23 17q-18 0 -25 -106q-2 -40 -2 -91q0 -170 21 -263q10 -42 34 -42
q35 0 86 77q24 35 37 35q23 0 5 -111l116 3q-3 64 -3 130q0 171 19 313q7 18 7 31q0 21 -16 23zM39 597q17 -12 105 -64q7 -3 16 -3q42 0 65 65q-32 15 -109 74q-47 32 -64 64q-9 21 -17 41q-12 39 -19 39q-12 0 -10 -91q-38 -12 -38 -34q0 -16 18 -33q-1 -1 -1 -3
q0 -14 54 -55z" />
    <glyph glyph-name="uacute" unicode="&#xfa;" horiz-adv-x="355" 
d="M303 474q-41 0 -50 31q-4 12 -9 12q-12 0 -16 -34q-34 -244 -70 -291l-22.5 -22.5t-17.5 -11.5q-14 0 -14 66q-1 112 19 212q4 16 4 26q0 14 -7 14q-10 0 -32 -28q-2 -12 -10 -12q-12 0 -31 22q-14 17 -23 17q-17 0 -24 -106q-3 -40 -3 -91q0 -170 22 -263q10 -42 34 -42
q34 0 86 77q24 35 36 35q24 0 5 -111l117 3q-3 64 -3 130q0 171 19 313q6 18 6 31q0 21 -16 23zM329 722q3 91 -10 91q-7 0 -19 -39q-8 -20 -16 -41q-18 -32 -65 -64q-37 -29 -109 -74q23 -65 65 -65q9 0 16 3q19 8 105 64q54 41 54 55q0 2 -1 3q18 17 18 33q0 22 -38 34z
" />
    <glyph glyph-name="ucircumflex" unicode="&#xfb;" horiz-adv-x="350" 
d="M305 474q-41 0 -50 31q-4 12 -9 12q-12 0 -17 -34q-33 -244 -69 -291l-22.5 -22.5t-17.5 -11.5q-14 0 -14 66q-1 112 19 212q3 16 3 26q0 14 -6 14q-11 0 -32 -28q-2 -12 -10 -12q-12 0 -31 22q-14 17 -23 17q-17 0 -24 -106q-3 -40 -3 -91q0 -170 22 -263q10 -42 34 -42
q34 0 86 77q24 35 36 35q24 0 5 -111l117 3q-3 64 -3 130q0 171 19 313q6 18 6 31q0 21 -16 23zM101 538q1 -2 3 -2q12 0 49 49q16 24 29 44q10 -23 24 -41q33 -42 78 -49q24 17 24 27q0 6 -17 25q-22 25 -37 53q-21 46 -42 91q-17 37 -35 37q-5 0 -10 -1q-20 -7 -29 -30
q-15 -40 -39 -73q-32 -42 -59 -58l-34 -14q-32 -9 -32 -16q0 -12 74 -18q7 -40 27 -40q12 0 26 16z" />
    <glyph glyph-name="udieresis" unicode="&#xfc;" horiz-adv-x="355" 
d="M303 474q-41 0 -50 31q-4 12 -9 12q-12 0 -16 -34q-34 -244 -70 -291l-22.5 -22.5t-17.5 -11.5q-14 0 -14 66q-1 112 19 212q4 16 4 26q0 14 -7 14q-10 0 -32 -28q-2 -12 -10 -12q-12 0 -31 22q-14 17 -23 17q-17 0 -24 -106q-3 -40 -3 -91q0 -170 22 -263q10 -42 34 -42
q34 0 86 77q24 35 36 35q24 0 5 -111l117 3q-3 64 -3 130q0 171 19 313q6 18 6 31q0 21 -16 23zM171 610q39 -20 39 -53q0 -5 -1 -10q-1 -16 6 -16q5 0 15 12q1 -4 13 0q67 34 59 126q-2 24 -9 41q-16 41 -50 44q-48 3 -63 -64q-27 -26 -27 -50q0 -18 18 -30zM17 614
q41 -21 34 -56q-1 -14 5 -15q4 0 14 11h11q6 0 23 30q-3 38 15 42q18 17 15 41q-2 21 -8 36q-14 37 -45 39q-42 3 -56 -56q-25 -24 -25 -45q0 -16 17 -27z" />
    <glyph glyph-name="yacute" unicode="&#xfd;" horiz-adv-x="361" 
d="M273 485q-23 8 -38 8q-29 0 -29 -28q0 -5 2 -10q8 -72 10 -165q-64 -128 -101 -121q-18 -5 -18 92q0 69 8 169q3 15 3 26q0 32 -19 32q-12 0 -29 -13q-18 8 -31 8q-30 0 -30 -42q0 -9 1 -16q-5 -401 65 -427q9 -8 19 -8q34 0 66 89q18 34 63 69q-21 -273 -148 -275
q-42 -1 -70 -50q-5 -8 -5 -15q0 -18 40 -18q28 0 65 8q135 19 194 174q24 65 32 152l5 306q1 51 -55 55zM311 722q2 91 -10 91q-7 0 -20 -39q-8 -20 -16 -41q-17 -32 -64 -64q-38 -29 -110 -74q24 -65 66 -65q9 0 16 3q18 8 105 64q54 41 54 55q0 2 -2 3q18 17 18 33
q0 22 -37 34z" />
    <glyph glyph-name="thorn" unicode="&#xfe;" horiz-adv-x="513" 
d="M542 196v2v2q-25 223 -407 291q-2 125 -6 157q-10 48 -28 48q-13 0 -27 -22q-70 -5 -75 -71l1 -92q-35 2 -40 -8q-4 -9 8 -43.5t12 -57.5q0 -16 -6 -27q-3 -7 -31 -25.5l-28 -18.5q6 -10 28 -16q25 2 58 4l1 -196q-23 1 -26 2l5 -2q-22 3 -25 -9q0 -3 4 -6l2 -3
q31 -32 41 -64l1 -220q5 -32 85 -30q5 -1 9 -1q33 0 41 51v134q197 19 290 56q75 30 99 81q22 47 14 84zM139 120q-1 112 -2 198q74 -4 119 -19q87 -28 116 -43q49 -25 49 -58q0 -75 -282 -78z" />
    <glyph glyph-name="ydieresis" unicode="&#xff;" horiz-adv-x="385" 
d="M280 485q-22 8 -37 8q-29 0 -29 -28q0 -5 1 -10q9 -72 11 -165q-64 -128 -101 -121q-19 -5 -19 92q0 69 9 169q2 15 2 26q0 32 -18 32q-12 0 -29 -13q-18 8 -31 8q-31 0 -31 -42q0 -9 2 -16q-5 -401 65 -427q9 -8 19 -8q34 0 66 89q17 34 63 69q-21 -273 -148 -275
q-42 -1 -70 -50q-5 -8 -5 -15q0 -18 40 -18q27 0 65 8q135 19 193 174q25 65 32 152l5 306q1 51 -55 55zM181 610q38 -20 38 -53q0 -5 -1 -10q-1 -16 6 -16q5 0 16 12q0 -4 12 0q68 34 59 126q-2 24 -9 41q-16 41 -50 44q-47 3 -63 -64q-27 -26 -27 -50q0 -18 19 -30z
M26 614q41 -21 34 -56q-1 -14 5 -15q5 0 14 11h11q6 0 23 30q-3 38 15 42q18 17 15 41q-2 21 -8 36q-14 37 -45 39q-42 3 -56 -56q-24 -24 -24 -45q0 -16 16 -27z" />
  </font>
</defs>
</svg>
