<?xml version="1.0" standalone="no"?>
<!DOCTYPE svg PUBLIC "-//W3C//DTD SVG 1.1//EN" "http://www.w3.org/Graphics/SVG/1.1/DTD/svg11.dtd" >
<svg xmlns="http://www.w3.org/2000/svg" xmlns:xlink="http://www.w3.org/1999/xlink" version="1.1">
<metadata>
Created by FontForge 20230101 at Wed Sep 26 01:50:51 2018
 By Unknown
Copyright (c) 2018 by . All rights reserved.
</metadata>
<defs>
<font id="Melinda-artdesign" horiz-adv-x="209" >
  <font-face 
    font-family="Melinda"
    font-weight="400"
    font-stretch="normal"
    units-per-em="1000"
    panose-1="2 0 5 6 8 0 0 2 0 2"
    ascent="750"
    descent="-250"
    x-height="382"
    cap-height="744"
    bbox="-1049.79 -422.518 1647.79 919.571"
    underline-thickness="50"
    underline-position="-100"
    unicode-range="U+000D-FB02"
  />
<missing-glyph horiz-adv-x="271" 
 />
    <glyph glyph-name=".notdef" horiz-adv-x="271" 
 />
    <glyph glyph-name="NULL" horiz-adv-x="0" 
 />
    <glyph glyph-name="nonmarkingreturn" unicode="&#xd;" horiz-adv-x="271" 
 />
    <glyph glyph-name="space" unicode=" " horiz-adv-x="250" 
 />
    <glyph glyph-name="f" unicode="f" horiz-adv-x="271" 
d="M273 308q1 3 5.5 4t9 0t8 -3t2.5 -5q-9 -26 -16 -47.5t-16 -41t-21.5 -38.5t-31.5 -39q-30 -31 -67 -54t-72 -37q-6 -2 -11.5 -4t-11.5 -4q12 -15 19.5 -33t12 -37.5t7 -39t2.5 -37.5q0 -19 -2.5 -53.5t-10.5 -72.5q-5 -26 -13.5 -50t-20 -42.5t-27 -29t-35.5 -8.5
q-30 2 -46.5 28.5t-22.5 66t-3.5 87.5t8.5 93q6 42 16.5 100.5t23.5 119t26 117t23 95.5q20 79 42.5 155t38.5 134q7 22 18 50.5t25 43.5q11 11 23 15t22.5 1.5t18.5 -12t11 -25.5q2 -11 1 -23t-3 -25q-7 -38 -22 -80.5t-34.5 -85.5t-40 -83.5t-38.5 -75.5
q-11 -45 -23.5 -101t-25 -113.5t-23.5 -114t-18 -102.5q-8 -51 -11 -99.5t4 -83.5q1 -5 3 -11.5t5.5 -12.5t8 -9.5t10.5 -2.5q12 1 21.5 11.5t16 24.5t10.5 28t6 22q9 42 11.5 85.5t-0.5 69.5q-3 33 -12 61t-26 45q-5 5 -10.5 11t2.5 14q1 1 8 3t15.5 5t17 5.5t12.5 4.5
q31 13 64 34.5t59 49.5q17 17 28 34.5t19.5 36t15.5 38.5t15 43zM163 664q-10 -35 -24 -83t-30 -102q-2 -7 -3.5 -13.5t-3.5 -12.5q11 24 23.5 49.5t23.5 52.5t19.5 54t12.5 53q2 15 2 25t-2.5 11.5t-7 -6t-10.5 -28.5z" />
    <glyph glyph-name="s" unicode="s" horiz-adv-x="220" 
d="M53 306q4 -41 17 -81.5t24 -82.5q16 10 30.5 19.5t28.5 19.5q17 14 27 28t18 30q7 15 12 32t12 37q1 3 5 4t9 0t8.5 -3t2.5 -5q-8 -22 -13.5 -39.5t-12.5 -34.5q-8 -18 -20 -34.5t-33 -33.5q-15 -12 -32.5 -23t-34.5 -22q7 -28 9 -58t-2.5 -58.5t-16.5 -53.5t-31 -42
q-24 -20 -56.5 -25t-58.5 5.5t-38.5 35.5t4.5 64q13 31 38 57.5t47 41.5l42 26q-7 28 -16.5 57.5t-17 58.5t-11.5 59t1 60q5 31 21.5 36.5t31.5 -1.5q7 -3 12 -6.5t6.5 -11.5t-1 -21.5t-11.5 -34.5zM26 -63q10 14 15 33t6.5 39t0.5 39.5t-4 34.5q-10 -5 -18.5 -11t-16.5 -11
q-8 -6 -18.5 -15t-21 -20.5t-19.5 -24.5t-15 -26q-11 -28 -3 -44.5t24.5 -21.5t36.5 2t33 26z" />
    <glyph glyph-name="y" unicode="y" horiz-adv-x="369" 
d="M344 232l27 76q1 3 5 4t9 0t8.5 -3t2.5 -5q-6 -15 -12.5 -34.5t-14.5 -41.5q-11 -30 -30 -59.5t-42.5 -57t-48.5 -52.5t-49 -47q-11 -60 -20.5 -118t-17.5 -107q-5 -33 -17.5 -69t-45.5 -64q-7 -6 -17 -10t-21 -6.5t-21.5 -2t-19.5 3.5q-16 6 -23 19.5t-7 32.5t5 42
t13 46q9 24 22.5 55t30 61t34 55.5t34.5 39.5q12 61 21 122q-10 -24 -22 -44.5t-26.5 -35.5t-31.5 -23.5t-36 -7.5q-25 1 -45.5 19.5t-22.5 60.5q-1 29 3 63t10.5 69t14 68.5t15.5 61.5q0 1 13.5 11.5t28 19.5t25 10.5t5.5 -16.5q-3 -12 -11.5 -44t-17 -73t-15.5 -85t-7 -80
q0 -27 6 -36t15 -11q17 -2 32.5 14t29.5 42.5t26 60.5t22 67t18 62.5t14 46.5q2 10 15.5 23t28 21t24.5 8t6 -16q-2 -6 -7 -33.5t-13.5 -69.5t-18.5 -95.5t-20 -110.5q39 37 78 79.5t59 93.5zM122 -56q-12 -14 -26 -37.5t-26.5 -48.5t-22.5 -48.5t-14 -37.5
q-7 -20 -11.5 -39t-6 -34t2 -24.5t13.5 -11.5q18 -4 30 9.5t19 33t10 40.5t5 33q2 14 5.5 35t7 44.5t7.5 46t7 39.5z" />
    <glyph glyph-name="j" unicode="j" horiz-adv-x="181" 
d="M156 231l27 77q1 3 5 4t9 0t8.5 -3t2.5 -5q-5 -16 -12 -35.5t-15 -41.5q-11 -30 -30 -59.5t-42.5 -57t-48.5 -52.5t-49 -46q-11 -60 -20.5 -118t-17.5 -107q-5 -33 -17.5 -69t-45.5 -64q-7 -6 -17 -10t-21 -6.5t-21.5 -2.5t-19.5 3q-16 6 -23 20t-7 33t5.5 42t13.5 46
q8 24 21.5 55t30 61t34.5 55.5t35 39.5q10 61 20 118.5t19 104.5t16 81t11 49q0 1 13.5 11.5t28 19.5t25 10t5.5 -17q-2 -5 -7.5 -32.5t-14 -69.5t-18.5 -95.5t-20 -111.5q39 37 78.5 79.5t58.5 93.5zM-66 -56q-12 -14 -26 -37.5t-26.5 -49t-22.5 -49t-14 -37.5
q-7 -20 -11.5 -39t-5.5 -34t2.5 -24.5t12.5 -11.5q19 -3 30.5 10t18.5 32.5t10 41t5 33.5zM76 516q14 -5 20 -20t1 -32t-19 -26.5t-28 -4.5t-20 20t-1 32q6 17 19.5 26.5t27.5 4.5z" />
    <glyph glyph-name="p" unicode="p" horiz-adv-x="334" 
d="M10 6q-11 -59 -20 -115t-17 -104q-5 -33 -17.5 -69t-45.5 -64q-7 -6 -17 -10t-21 -6.5t-21.5 -2t-19.5 3.5q-16 6 -23 19.5t-7 32.5t5 42t13 46q9 24 22.5 55t30 61t34.5 55.5t35 39.5q10 62 20 119t19 104t16 81t11 49q0 1 13.5 11.5t28 19.5t24.5 10.5t5 -16.5l-18 -75
q15 30 33.5 52.5t40.5 31.5q29 11 53 4.5t38 -36.5q13 -26 15.5 -61.5t-4.5 -74.5q-2 -9 -3 -16.5t-4 -16.5q41 11 61 34.5t33 53.5q5 11 8.5 22t8.5 22q1 3 5.5 4t9 0t8 -3t2.5 -5q-9 -27 -18 -48q-8 -21 -17.5 -37t-24 -29.5t-35 -24.5t-50.5 -21q-16 -48 -43.5 -85.5
t-64.5 -51.5q-52 -20 -63 19q-8 27 0 47t24.5 35.5t37.5 26t39 18.5q21 55 23 105q1 28 -10 49t-30 20q-14 -1 -28.5 -19t-28 -43.5t-24.5 -54t-17 -52.5zM-66 -56q-12 -14 -26 -37.5t-26.5 -48.5t-22.5 -48.5t-14 -37.5q-7 -20 -11.5 -39t-6 -34t2 -24.5t13.5 -11.5
q18 -4 30 9.5t19 33t10 40.5t5 33zM133 114q-6 -1 -15 -5.5t-17.5 -11.5t-14.5 -15.5t-6 -17.5q0 -8 4.5 -6.5t11.5 8t14.5 16t13.5 17.5q7 8 9 15z" />
    <glyph glyph-name="q" unicode="q" horiz-adv-x="437" 
d="M439 308q1 3 5.5 4t9 0t8 -3t2.5 -5q-9 -26 -16 -47.5t-15.5 -41t-21 -38.5t-32.5 -39q-30 -31 -66.5 -54t-72.5 -37q-13 -5 -23 -8q12 -15 19.5 -33t12 -37.5t7 -39t2.5 -37.5q1 -19 -2 -53.5t-11 -72.5q-5 -26 -13.5 -50t-20 -42.5t-27 -29t-35.5 -8.5q-30 2 -46 28.5
t-22 66t-4 87.5t8 93q5 37 11 76t14 79q-13 -21 -27.5 -36t-31.5 -22q-29 -12 -52.5 -5t-38.5 37q-11 22 -14 53.5t0.5 65.5t14 69t26.5 65t38 52.5t48 32.5q32 12 59.5 1t39.5 -42q0 2 0.5 3t0.5 3q0 1 13.5 11.5t28 19.5t25 10.5t5.5 -16.5q-31 -111 -56 -233t-43 -234
q-8 -51 -11 -99.5t4 -83.5q1 -5 3 -11.5t5.5 -12.5t8.5 -9.5t11 -2.5q12 1 21 11.5t15.5 24.5t10.5 28t6 22q9 42 11.5 85.5t-0.5 69.5q-3 33 -12 61t-26 45q-5 5 -10.5 11t2.5 14q1 1 8 3t16 5t17 5.5t12 4.5q32 13 64.5 34.5t59.5 49.5q16 17 27.5 34.5t19.5 36t15 38.5
t15 43zM132 171l18 79q4 109 -66 63q-13 -9 -25.5 -30t-22.5 -48t-16.5 -56t-6.5 -53q0 -14 2.5 -26.5t7.5 -22t12.5 -15t17.5 -4.5t20.5 11t21 25.5t20 35.5t17.5 41z" />
    <glyph glyph-name="m" unicode="m" horiz-adv-x="593" 
d="M159 339q-16 -9 -31 -31t-29 -50.5t-26.5 -62t-23 -65.5t-19.5 -60t-15 -46q-1 -8 -12 -14.5t-23 -9t-21.5 1.5t-7.5 17q4 28 10.5 71.5t14 90t15.5 90t16 72.5q0 1 13.5 11.5t28 19.5t25 10t5.5 -17q-2 -6 -5.5 -23t-8 -40t-9.5 -51.5t-11 -58.5q20 54 44 101t53 68
q28 21 57 21q23 -1 35 -13t15.5 -30t2 -38.5t-5.5 -36.5q-5 -20 -10.5 -50t-10.5 -62q10 32 22.5 64t26.5 60t29.5 50.5t32.5 34.5q27 21 57 21q23 -1 34.5 -13t15.5 -30t2 -38.5t-5 -36.5q-10 -44 -18 -92.5t-8 -88.5q0 -27 6 -36t15 -10q17 -2 38.5 17t35.5 43
q17 29 32 64.5t27 67.5q8 24 15 43.5t12 33.5q1 3 5 4t8.5 0t8 -3t2.5 -5l-26 -77q-12 -34 -27.5 -70.5t-32.5 -68.5q-24 -42 -54.5 -65.5t-60.5 -22.5q-25 1 -46 19.5t-22 60.5q-2 45 7.5 100t21.5 106q2 9 5.5 22.5t3 24t-8 14t-26.5 -7.5q-18 -11 -35.5 -37.5t-32.5 -61
t-28.5 -73t-24.5 -72.5q-5 -15 -12 -38.5t-12 -36.5q-3 -8 -13 -13t-21 -6.5t-20 2.5t-9 16q-1 22 3 57t10 73t13.5 74.5t13.5 62.5q2 9 5.5 22.5t3 24t-8 14t-26.5 -7.5z" />
    <glyph glyph-name="u" unicode="u" horiz-adv-x="392" 
d="M264 367q-3 -12 -11.5 -44t-17 -73t-15.5 -85t-7 -80q-1 -27 5.5 -36t15.5 -10q17 -2 38.5 17t35.5 43q17 29 32 64.5t27 67.5q8 23 14.5 43t11.5 34q1 3 5.5 4t9 0t8 -3t2.5 -5l-26 -77q-12 -35 -27.5 -71t-33.5 -68q-23 -42 -53.5 -65.5t-60.5 -22.5q-25 1 -46 19.5
t-22 60.5q-2 16 0 33q-20 -48 -48.5 -81t-67.5 -32q-25 1 -46 19.5t-23 60.5q-1 29 3 63t10.5 69t14.5 68.5t16 62.5q0 1 13 11.5t27.5 19.5t25 10t5.5 -17q-3 -12 -11.5 -44t-17 -73t-15.5 -85t-7 -80q0 -27 6 -36t16 -10q21 -3 40 22t35 63.5t29.5 82.5t23.5 80l14 56
q0 1 13.5 11.5t28 19.5t25 10t5.5 -17z" />
    <glyph glyph-name="k" unicode="k" horiz-adv-x="355" 
d="M74 226l-16 -40q-6 -17 -13 -39.5t-14.5 -45.5t-14.5 -44.5t-13 -35.5q-3 -8 -14 -13.5t-22 -7t-20 2.5t-7 16q11 83 28.5 162.5t38.5 160.5q20 79 42.5 155.5t38.5 133.5q3 11 7.5 24.5t10 26.5t12 24.5t13.5 18.5q22 23 46 17t29 -38q2 -11 1 -23t-3 -24
q-7 -38 -22 -81t-34.5 -85.5t-40 -83.5t-38.5 -76q-7 -28 -13.5 -57t-12.5 -58q18 48 40 88t48 59q28 21 57 21q14 0 19 -8t4 -18.5t-6 -22t-11 -18.5q-18 -21 -41.5 -41t-41.5 -30q24 -5 37 -25.5t19 -46t7.5 -50.5t1.5 -39q-1 -27 5 -36t16 -10q17 -2 38.5 17t35.5 43
q17 29 31.5 64.5t26.5 67.5q9 23 15.5 43t11.5 34q1 3 5.5 4t9 0t8 -3t2.5 -5l-26 -77q-13 -35 -28 -71t-33 -68q-24 -42 -54 -65.5t-60 -22.5q-25 1 -46 19.5t-23 60.5q0 15 -1.5 36t-5 42.5t-11 40t-19.5 27.5zM162 663q-10 -35 -24 -82.5t-29 -102.5q-2 -6 -4 -12.5
t-4 -13.5q11 23 23.5 49t23.5 53t19.5 54.5t12.5 53.5q2 15 2 25t-2.5 11.5t-7 -6.5t-10.5 -29zM148 339q-16 -9 -31 -30.5t-29 -50.5q9 6 19.5 14.5t21.5 18t20.5 19t16.5 17.5q9 10 10.5 15t-2.5 5.5t-11.5 -2t-14.5 -6.5z" />
    <glyph glyph-name="o" unicode="o" horiz-adv-x="335" 
d="M74 378q12 4 17 -15q10 10 21 14q29 12 53 5t38 -37q14 -28 15.5 -69t-7.5 -85q24 -3 44 3.5t35.5 19.5t26.5 30.5t18 37.5q2 8 4.5 14.5t4.5 12.5q1 3 5.5 4t9 0t8 -3t2.5 -5l-9 -27q-8 -24 -21.5 -45.5t-32.5 -37.5t-44.5 -24.5t-56.5 -5.5q-11 -38 -28.5 -71.5
t-41.5 -56.5q-26 -26 -55 -33.5t-55 0t-46 29t-28 53.5q-9 34 -3.5 79.5t22 88t43 77t61.5 47.5zM73 303q-13 -15 -24.5 -40t-20 -53.5t-13 -57t-3.5 -50.5q2 -20 7.5 -35.5t16.5 -18.5q17 -6 32 7.5t33 40.5q13 19 23.5 45.5t16.5 54.5q-30 14 -48 44.5t-20 62.5zM147 223
q2 10 2.5 19t1.5 17q0 20 -6 37.5t-17 25.5q-8 5 -14.5 1.5t-8.5 -14.5q-3 -19 7 -42t35 -44z" />
    <glyph glyph-name="i" unicode="i" horiz-adv-x="207" 
d="M79 367q-3 -12 -11.5 -44t-17 -73t-15.5 -85t-7 -80q0 -27 6 -36t16 -10q16 -2 38 17t36 43q17 29 31.5 64.5t26.5 67.5q9 23 15.5 43t11.5 34q1 3 5.5 4t9 0t8 -3t2.5 -5q-5 -16 -12 -35.5t-15 -41.5q-12 -35 -27 -71t-33 -68q-24 -42 -54.5 -65.5t-60.5 -22.5
q-24 1 -45 19.5t-23 60.5q-1 29 3 63t10.5 69t14.5 68.5t16 62.5q0 1 13 11.5t27.5 19.5t25 10t5.5 -17zM86 516q14 -5 20 -20.5t1 -32.5t-19 -26t-28 -4t-20 20t-1 32q6 17 19.5 26.5t27.5 4.5z" />
    <glyph glyph-name="n" unicode="n" horiz-adv-x="400" 
d="M159 339q-16 -9 -31 -31t-29 -50.5t-26.5 -62t-23 -65.5t-19.5 -60t-15 -46q-1 -8 -12 -14.5t-23 -9t-21.5 1.5t-7.5 17q4 28 10.5 71.5t14 90t15.5 90t16 72.5q0 1 13.5 11.5t28 19.5t25 10t5.5 -17q-2 -6 -5.5 -23t-8 -40t-9.5 -51.5t-11 -58.5q20 54 44 101t53 68
q28 21 57 21q23 -1 35 -13t15.5 -30t2 -38.5t-5.5 -36.5q-10 -44 -17.5 -92.5t-8.5 -88.5q0 -27 6 -36t16 -10q17 -2 38.5 17t35.5 43q17 29 31.5 64.5t26.5 67.5q9 24 15.5 43.5t11.5 33.5q1 3 5.5 4t9 0t8 -3t2.5 -5l-26 -77q-13 -34 -28 -70.5t-33 -68.5
q-24 -42 -54 -65.5t-60 -22.5q-25 1 -46 19.5t-23 60.5q-2 45 7.5 100t21.5 106q2 9 5.5 22.5t3 24t-8 14t-26.5 -7.5z" />
    <glyph glyph-name="h" unicode="h" horiz-adv-x="389" 
d="M148 339q-12 -7 -24 -22.5t-23.5 -36t-22 -45t-20.5 -49.5q-6 -17 -13 -39.5t-14.5 -45.5t-14 -44.5t-12.5 -35.5q-3 -8 -14 -13.5t-22.5 -7t-20 2.5t-6.5 16q11 83 28.5 162.5t37.5 160.5q20 79 42.5 155.5t39.5 133.5q3 11 7.5 24.5t9.5 26.5t11.5 24.5t13.5 18.5
q11 11 23.5 15.5t23 1.5t18.5 -12.5t11 -25.5q3 -21 -2 -47q-7 -38 -22.5 -81t-34.5 -85.5t-40 -83.5t-38 -76l-27 -115q18 48 40 88t48 59q28 21 58 21q23 -1 34.5 -13t15 -30t2 -38.5t-5.5 -36.5q-9 -44 -17 -92.5t-8 -88.5q-1 -27 5.5 -36t15.5 -10q17 -2 38.5 17
t35.5 43q17 29 31.5 64.5t26.5 67.5q9 23 15.5 43t11.5 34q1 3 5.5 4t9 0t8 -3t2.5 -5l-26 -77q-13 -35 -28 -71t-33 -68q-23 -42 -53.5 -65.5t-60.5 -22.5q-25 1 -46 19.5t-22 60.5q-2 45 7 99.5t21 105.5q2 9 6 23t3.5 24.5t-8 14t-27.5 -7.5zM162 663q-10 -35 -24 -82.5
t-29 -102.5q-2 -6 -4 -12.5t-4 -13.5q23 47 47 102.5t32 107.5q2 15 2 25t-2.5 11.5t-7 -6.5t-10.5 -29z" />
    <glyph glyph-name="c" unicode="c" horiz-adv-x="273" 
d="M248 233l26 75q1 3 5.5 4t9 0t8 -3t2.5 -5l-27 -79q-12 -33 -33 -72.5t-49.5 -73.5t-64 -56.5t-76.5 -22.5q-41 1 -71 26.5t-33 81.5q-2 38 6.5 80.5t25 80.5t41 67t56.5 41q23 9 44 5.5t35.5 -17.5t21.5 -38t1 -57q-1 -4 -5.5 -12t-9 -14t-8 -7t-3.5 10q6 112 -65 66
q-14 -9 -26.5 -30t-22.5 -48t-16 -56t-7 -53q-1 -35 10.5 -52.5t29.5 -22.5q35 -8 66 9.5t56.5 47t44 64t28.5 61.5z" />
    <glyph glyph-name="e" unicode="e" horiz-adv-x="261" 
d="M236 233l27 75q1 3 5 4t8.5 0t8 -3t2.5 -5q-7 -20 -13 -39.5t-14 -39.5q-12 -33 -31 -72.5t-45.5 -73.5t-60.5 -56.5t-75 -22.5q-41 1 -71 26.5t-32 81.5q-2 38 6 80.5t25 80.5t41.5 67t55.5 41q49 19 81 -13q13 -13 15 -32.5t-4 -42t-19 -46.5t-30 -47
q-24 -32 -52.5 -58.5t-49.5 -39.5q7 -41 38 -47q35 -8 64.5 9.5t53 47t40 64t26.5 61.5zM12 127q19 13 40.5 35.5t41.5 48.5q13 18 23.5 36.5t16.5 34.5t6 28t-6 17q-5 4 -13.5 2.5t-17 -5.5t-16.5 -9.5t-12 -9.5q-13 -13 -24.5 -35.5t-20 -48t-13.5 -50.5t-5 -44z" />
    <glyph glyph-name="a" unicode="a" horiz-adv-x="373" 
d="M130 99q-16 -32 -35.5 -57t-42.5 -35q-29 -11 -52.5 -4t-38.5 36q-17 34 -16 85.5t16.5 103t44.5 93.5t68 57q32 12 59 1t39 -41q1 1 1 5q0 1 13.5 11.5t28 19.5t25 10t5.5 -17q-3 -12 -11.5 -44t-17 -73t-15.5 -85t-7 -80q0 -27 6 -36t15 -10q17 -2 38.5 17t35.5 43
q17 29 32 64.5t27 67.5l27 77q1 3 5.5 4t9 0t8 -3t2.5 -5q-5 -16 -12 -35.5t-15 -41.5q-12 -34 -27 -70.5t-33 -68.5q-24 -42 -54.5 -65.5t-60.5 -22.5q-25 1 -45.5 19.5t-22.5 60.5v19zM151 251q2 55 -14.5 69.5t-51.5 -7.5q-13 -9 -25.5 -30t-22.5 -48t-16.5 -56t-6.5 -53
q-1 -27 9.5 -48.5t30.5 -20.5q11 1 23 13t23 30.5t21 41t18 45.5q5 34 12 64z" />
    <glyph glyph-name="b" unicode="b" horiz-adv-x="352" 
d="M228 191q24 -3 44 3.5t35.5 19.5t26.5 30.5t18 37.5q4 16 9 27q1 3 5.5 4t9 0t8 -3t2.5 -5l-9 -27q-8 -24 -21.5 -45.5t-32.5 -37.5t-44.5 -24.5t-56.5 -5.5q-11 -38 -28.5 -71.5t-41.5 -56.5q-33 -32 -69.5 -36t-65 14t-44 54.5t-6.5 86.5q5 27 11 54t11 52t10 46t9 35
q20 79 43 155.5t39 133.5q3 11 7.5 24.5t9.5 26.5t11.5 24.5t13.5 18.5q11 11 23.5 15.5t23 1.5t18.5 -12.5t11 -25.5q3 -21 -2 -47q-7 -38 -22.5 -81t-34.5 -85.5t-40 -83.5t-38 -76q-7 -27 -17.5 -73.5t-19.5 -95.5q-4 -18 -5 -37.5t1.5 -36t8 -27.5t14.5 -14
q17 -6 32 7.5t33 40.5q13 19 23.5 45.5t16.5 54.5q-27 13 -44 39t-22 54.5t3.5 53t33.5 34.5q29 12 53 5t38 -37q14 -28 15.5 -69t-7.5 -85zM163 664q-10 -35 -24 -82.5t-29 -102.5q-2 -6 -4 -12.5t-4 -13.5q23 47 47 102.5t32 107.5q2 15 2 25t-2.5 11.5t-7 -6.5t-10.5 -29
zM164 223q2 10 2.5 19t1.5 17q0 20 -6 37.5t-17 25.5q-8 5 -14.5 1.5t-8.5 -14.5q-3 -19 7 -42t35 -44z" />
    <glyph glyph-name="l" unicode="l" 
d="M70 331q-17 -71 -28.5 -135t-12.5 -111q0 -27 6 -36t16 -10q16 -2 38 17t36 43q17 30 32 65.5t27 68.5l26 75q1 3 5.5 4t9 0t8 -3t2.5 -5l-27 -78q-12 -35 -27.5 -70.5t-32.5 -67.5q-24 -42 -54.5 -65.5t-60.5 -22.5q-24 1 -45 19.5t-23 60.5q-2 52 11.5 124t33.5 148.5
t42 150t37 128.5q3 11 7.5 24.5t10 26.5t12 24.5t13.5 18.5q11 11 23 15.5t22.5 1.5t18.5 -12.5t11 -25.5q3 -21 -2 -47q-7 -38 -22 -81t-34.5 -85.5t-40 -83.5t-38.5 -76zM163 663q-11 -35 -24.5 -82.5t-29.5 -102.5l-7 -26q11 23 23 49t23 53t19.5 54.5t12.5 53.5
q3 15 2.5 25t-3 11.5t-6.5 -6.5t-10 -29z" />
    <glyph glyph-name="w" unicode="w" horiz-adv-x="564" 
d="M79 367q-3 -12 -11.5 -44t-17 -73t-15.5 -85t-7 -80q0 -27 6 -36t16 -10q23 -3 42.5 20.5t35 56.5t26.5 66t17 49q11 29 28.5 53t32.5 37.5t24.5 13t3.5 -19.5q-1 -3 -4 -15.5t-6.5 -28.5t-7 -32.5t-5.5 -26.5q-4 -23 -5 -50t1.5 -51.5t9 -43t18 -24t28.5 5.5t40 46
q13 19 23.5 45.5t16.5 54.5q-27 13 -44 39t-22 54.5t3.5 53t33.5 34.5q29 12 53 5t38 -37q14 -28 15.5 -69t-7.5 -85q24 -3 44 3.5t35.5 19.5t26.5 30.5t18 37.5q4 16 9 27q1 3 5.5 4t9 0t8 -3t2.5 -5l-9 -27q-8 -24 -21.5 -45.5t-32.5 -37.5t-44.5 -24.5t-56.5 -5.5
q-11 -38 -28.5 -71.5t-41.5 -56.5q-23 -22 -45.5 -29t-43.5 -7q-45 0 -77 38t-32 109q-4 -13 -14.5 -37.5t-28 -49t-42.5 -42.5t-58 -18q-25 0 -40.5 19t-17.5 61q-1 29 3 63t10.5 69t14.5 68.5t16 62.5q0 1 13 11.5t27.5 19.5t25 10t5.5 -17zM375 222q2 10 2.5 19t1.5 17
q0 20 -6 37.5t-17 25.5q-8 5 -14.5 1.5t-8.5 -14.5q-3 -19 7 -42t35 -44z" />
    <glyph glyph-name="x" unicode="x" horiz-adv-x="295" 
d="M51 368q5 -10 19 -43.5t19 -80.5q10 27 20 52.5t18 47.5l6.5 5.5t16 12t20 12.5t18.5 8.5t12 -0.5t1 -15t-16.5 -44t-28.5 -73t-27.5 -85t-12.5 -80q0 -27 6 -36t16 -10q17 -2 38 17t35 43q17 29 32 64.5t27 67.5l27 77q1 3 5.5 4t9 0t8 -3t2.5 -5q-5 -16 -12 -35.5
t-15 -41.5q-12 -35 -27 -71t-33 -68q-24 -42 -54.5 -65.5t-60.5 -22.5q-25 1 -45.5 19.5t-22.5 60.5v6q-13 -19 -30 -36t-40 -34q-6 -5 -21 -9t-27.5 -5.5t-19 0t3.5 9.5q57 42 83.5 78.5t33 67.5t-1 58t-18.5 49.5t-20.5 42t-6.5 36.5q0 1 6.5 11.5t16.5 19t20.5 10
t19.5 -15.5z" />
    <glyph glyph-name="v" unicode="v" horiz-adv-x="369" 
d="M79 367q-2 -7 -6 -22.5t-9 -36t-10.5 -45.5t-10.5 -51q-4 -23 -5.5 -50t1 -51.5t9.5 -43t18.5 -24t28.5 5.5t40 46q13 19 23 45.5t17 54.5q-27 13 -44.5 39t-22.5 54t4 53t34 35q29 12 52.5 5t38.5 -37q14 -29 15.5 -69.5t-7.5 -84.5q24 -3 43.5 3.5t35 19.5t26.5 30.5
t18 37.5q5 14 9 26q1 3 5.5 4t9 0.5t8 -3t2.5 -5.5l-4 -12t-5 -14q-8 -24 -21 -45.5t-32.5 -37.5t-44.5 -24.5t-57 -5.5q-11 -38 -28.5 -71.5t-40.5 -56.5t-45.5 -29.5t-44.5 -6.5q-27 0 -49.5 13.5t-37.5 40t-20 64.5t4 87q7 37 15.5 72.5t16.5 65.5q0 1 13 11.5t27.5 19
t25 10t5.5 -16.5zM181 222q3 18 3 36q1 20 -5 37.5t-18 25.5q-8 5 -14 1t-8 -15q-4 -18 6 -41t36 -44z" />
    <glyph glyph-name="r" unicode="r" horiz-adv-x="287" 
d="M36 330q10 2 21 5.5t25 3.5q23 0 34.5 -12.5t15 -30.5t2 -38.5t-5.5 -36.5q-5 -22 -8.5 -38.5t-6 -31.5t-4 -30.5t-1.5 -35.5q0 -27 6 -36t15 -10q17 -2 38.5 17t35.5 43q17 29 32 64.5t27 67.5l27 77q1 3 5 4t9 0t8.5 -3t2.5 -5q-5 -16 -12 -35.5t-15 -41.5
q-12 -35 -27 -71t-33 -68q-24 -42 -54.5 -65.5t-60.5 -22.5q-25 1 -45.5 19.5t-22.5 60.5q-1 22 0.5 40.5t4.5 37t7.5 38l10.5 45.5q2 10 6 24t3 25q-1 7 -6 7.5t-10 -1.5q-35 -12 -61 0.5t-35 50.5q-3 10 -3.5 24.5t2 30t7 30t12.5 25.5q15 22 33 20.5t29 -20.5
q6 -12 7 -28.5t-1.5 -34t-6.5 -34.5t-7 -30zM24 437q-3 12 -9.5 14t-14.5 -15q-7 -12 -10 -29t-3 -24q0 -27 9 -42q7 -8 12 -11q3 11 6.5 25t6.5 29t4 29t-1 24z" />
    <glyph glyph-name="A" unicode="A" horiz-adv-x="585" 
d="M27 17q23 39 62.5 104t83.5 141l-64 -18q-21 -6 -31 -4t-9 7.5t13 12.5t33 13q20 5 39.5 10.5t38.5 11.5q24 42 48.5 85t46 84t40 78t32.5 69q-40 -8 -74 -10.5t-60 5.5q-23 6 -34 20t-10.5 31.5t12.5 36.5t36 36q18 13 42 21t50 10q27 3 52 -1t43 -15.5t26.5 -30.5
t1.5 -47q8 2 12 4q8 5 16 7t16 3q36 12 73 26.5t72 30.5q4 1 7 -2t4.5 -8t0.5 -10t-5 -7q-34 -15 -69 -29.5t-71 -27.5l-28 -140t-30 -161q2 -4 -1 -8q-13 -80 -19.5 -149.5t0.5 -111.5q3 -19 10.5 -32t21.5 -3q13 9 25 22.5t20 28.5q17 29 32 65t27 69q8 19 14 37.5
t13 37.5q1 3 5 4t9 0t8.5 -3.5t2.5 -5.5l-27 -78q-13 -34 -28 -69.5t-32 -67.5q-25 -45 -58 -68q-25 -18 -42.5 -20t-28.5 6.5t-17.5 25.5t-9.5 37q-6 42 -1.5 108t15.5 142l-66 -18t-65 -19q-43 -72 -81.5 -135t-63.5 -106q0 -1 -8 -6t-19 -12t-23 -13t-21 -8.5t-12 0
t4 14.5zM387 352q11 75 25.5 148t26.5 132q-2 0 -6 -2q-12 -30 -29 -66.5t-38.5 -77t-45.5 -83t-49 -84.5q29 8 57 16.5t59 16.5zM375 650l3 9q6 18 2.5 31t-13 21t-24.5 11.5t-33 2.5q-30 -2 -52 -14.5t-27 -27.5t10.5 -27.5t61.5 -13.5q17 0 34.5 2t37.5 6z" />
    <glyph glyph-name="Y" unicode="Y" horiz-adv-x="587" 
d="M340 51q23 81 44.5 158.5t42.5 158.5q-46 -115 -98 -216q-17 -31 -34.5 -58.5t-36.5 -48.5t-38.5 -32.5t-39.5 -11.5q-25 1 -46 19.5t-22 60.5q-1 33 5 77t17 95t25 105.5t29 107.5q14 50 27 95t13 99q1 27 -5.5 35.5t-15.5 10.5q-17 2 -38.5 -17.5t-35.5 -43.5
q-14 -25 -27 -55t-24.5 -59t-20 -54t-13.5 -40q-1 -3 -5.5 -4t-9 0t-8 3t-2.5 5q7 19 15.5 45.5t19.5 55.5t24 59t28 56q23 42 53.5 65.5t60.5 22.5q25 -1 46 -19.5t22 -61.5q1 -25 -3 -52t-11 -54.5t-14.5 -54t-14.5 -50.5q-14 -52 -27 -104t-23 -100.5t-16.5 -90
t-6.5 -72.5q0 -27 6 -36t15 -11q12 -2 25.5 7.5t28 26.5t29 40.5t28.5 50.5q31 59 59 123.5t53.5 130.5t49.5 132.5t46 130.5l6 23q0 1 13.5 11.5t28 19.5t24.5 10t5 -17q-44 -158 -87 -315t-88 -315q3 1 9 5q49 30 73 52.5t41 45.5q14 20 27.5 43t27.5 65q1 3 5.5 4t9 0
t8 -3t2.5 -5q-16 -45 -30 -70.5t-30 -48.5q-18 -26 -44 -50.5t-77 -55.5l-33 -20q-12 -42 -27 -90t-33 -96t-39.5 -92.5t-47.5 -80.5q-31 -42 -70.5 -57t-71 -3t-46.5 50t4 100q12 40 40 76.5t64 69t77.5 61t82.5 53.5zM329 13q-36 -23 -72 -49t-67.5 -54.5t-55 -60.5
t-33.5 -66q-12 -42 -3 -64.5t29.5 -27t46.5 9t47 44.5q15 23 32 57.5t32 72t27 74.5t17 64z" />
    <glyph glyph-name="N" unicode="N" horiz-adv-x="660" 
d="M260 442q19 47 40 90.5t42.5 79.5t44.5 62.5t46 38.5q32 18 60 18.5t48 -10.5q35 -17 47 -60t-3 -98q-18 -60 -36.5 -127.5t-33.5 -132.5t-25 -122t-10 -96q0 -27 6 -36t16 -10q16 -2 38 17t36 43q14 25 27 55t24.5 59t20 54t13.5 41q1 3 5.5 4t9 0t8 -3t2.5 -5
q-7 -20 -16 -46t-20 -55.5t-23.5 -59t-27.5 -55.5q-24 -42 -54 -65.5t-60 -22.5q-25 1 -46 19.5t-23 60.5q-2 52 10.5 119.5t30.5 139t38.5 139.5t35.5 120q8 28 5 51t-14.5 37t-31 16t-44.5 -12q-28 -15 -58 -59.5t-60 -105t-58.5 -130.5t-52 -137t-41.5 -124.5t-28 -92.5
q0 -1 -13 -11.5t-27.5 -19.5t-25 -10.5t-5.5 16.5q9 32 23.5 81.5t31.5 108.5t34 123t31 125t23 114.5t9 90.5q0 27 -6 36t-16 10q-17 2 -38 -17t-35 -43q-15 -25 -28 -55t-24 -59t-19.5 -54t-14.5 -41q-1 -3 -5.5 -4t-9 0t-8 3t-2.5 5q7 19 16 45.5t20 55.5t23.5 59
t27.5 56q24 42 54.5 65.5t60.5 22.5q25 -1 45.5 -19.5t22.5 -60.5q2 -41 -8 -98.5t-25 -123.5z" />
    <glyph glyph-name="X" unicode="X" horiz-adv-x="499" 
d="M263 706q-17 2 -38.5 -17.5t-35.5 -43.5q-14 -25 -27 -55t-24.5 -59t-20 -54t-14.5 -41q-1 -3 -5 -3.5t-8.5 0t-8 3t-2.5 5.5q7 19 15.5 45.5t19.5 55.5t24 58.5t28 55.5q23 42 53.5 65.5t60.5 22.5q22 0 35.5 -9.5t21 -24.5t10 -33t2.5 -36q0 -32 -5 -81t-12 -106
q53 65 93 130t53 137q1 6 5.5 8.5t9 1.5t8 -4.5t2.5 -9.5q-8 -42 -25 -82t-40.5 -78t-52 -75t-59.5 -73q-6 -51 -12 -103t-9.5 -98.5t-2.5 -84.5t8 -62q5 -18 21 -22.5t36 7.5q13 8 26 22.5t22 31.5q14 25 27 54.5t24.5 58.5t20 54.5t14.5 40.5q1 3 5 4t8.5 0t8 -3t2.5 -5
q-7 -20 -15.5 -46t-19.5 -55t-24 -59t-28 -56q-27 -47 -59 -69q-18 -12 -37 -16.5t-36.5 -0.5t-31.5 16t-20 32q-5 16 -6.5 45.5t0 67.5t5.5 82t9 90q-33 -38 -65.5 -76.5t-61 -79t-51.5 -83t-38 -87.5q-2 -6 -6 -8t-8.5 -0.5t-7.5 5.5t-1 10q16 51 42.5 98t59 91.5t69 87.5
t73.5 85q4 39 8.5 76.5t8 71t6 61.5t2.5 48v20.5t-2.5 22t-8.5 18.5t-18 10z" />
    <glyph glyph-name="M" unicode="M" horiz-adv-x="758" 
d="M76 16q9 32 23.5 81.5t31.5 108.5t34 123t31 125t23 114.5t9 90.5q1 27 -5.5 36t-15.5 10q-17 2 -38.5 -17t-35.5 -43q-14 -25 -27 -55t-24.5 -59t-20 -54t-13.5 -41q-1 -3 -5.5 -4t-9 0t-8 3t-2.5 5q7 19 15.5 45.5t19.5 55.5t24 59t28 56q23 42 53.5 65.5t60.5 22.5
q25 -1 46 -19.5t22 -60.5q1 -20 -1 -45t-7 -54q6 16 12 30.5t12 28.5q5 13 15 35t24 41t31 28.5t36 -3.5q22 -16 30.5 -58.5t8 -98t-8.5 -117t-17 -115.5q21 48 47.5 104t55 108t57.5 95t55 67q13 11 31 18t32 3q8 -3 15 -10t4 -19q-11 -36 -25.5 -86t-30.5 -107t-32 -117.5
t-28.5 -117t-20.5 -105.5t-8 -84q0 -27 6 -36t15 -10q17 -2 38.5 17t35.5 43q15 25 28 55t24 59t19.5 54t14.5 41q1 3 5 4t9 0t8.5 -3t2.5 -5q-7 -20 -16 -46t-20 -55.5t-23.5 -59t-27.5 -55.5q-24 -42 -54.5 -65.5t-60.5 -22.5q-25 1 -45.5 19.5t-22.5 60.5q-1 35 6 83
t19 103t27.5 113.5t31.5 114t30.5 105t25.5 87.5q-20 -20 -43 -54.5t-46.5 -76.5t-46.5 -87t-42 -86.5t-34 -75t-22 -52.5q-2 -4 -6 -14.5t-9 -21.5t-11 -17t-11 -5.5t-7.5 6.5t0.5 19q22 97 36 197q1 12 4 36.5t5 54t3 61.5t-1.5 59.5t-8.5 47.5t-18 26q-9 4 -19 -6.5
t-19 -27t-16.5 -33t-10.5 -22.5q-35 -83 -64 -177.5t-55 -181.5q-14 -48 -29 -102t-34 -102q-3 -13 -16.5 -25t-27.5 -19t-24 -6t-6 15z" />
    <glyph glyph-name="U" unicode="U" horiz-adv-x="621" 
d="M594 728q-9 -32 -23.5 -81.5t-31.5 -108.5t-34 -123t-31 -125t-23 -114.5t-9 -90.5q-1 -27 5 -36t16 -10q17 -2 38.5 17t35.5 43q14 25 27 55t24.5 59t20 54t13.5 41q1 3 5.5 4t9 0t8 -3t2.5 -5q-7 -20 -15.5 -46t-19.5 -55.5t-24 -59t-28 -55.5q-24 -42 -54 -65.5
t-60 -22.5q-25 1 -46 19.5t-23 60.5q-1 25 3 57.5t10.5 69.5t16 77.5t20.5 82.5q-23 -57 -47 -110.5t-51 -105.5q-17 -31 -34.5 -58.5t-36.5 -48.5t-38.5 -32.5t-39.5 -11.5q-25 1 -45.5 19.5t-22.5 60.5q-1 33 5 77.5t17 95t25 105t29 107.5q14 51 27 96t13 98
q1 27 -5.5 36t-15.5 10q-17 2 -38.5 -17t-35.5 -43q-14 -25 -27 -55t-24.5 -59t-20 -54t-13.5 -41q-1 -3 -5.5 -4t-9 0t-8 3t-2.5 5q7 19 15.5 45.5t19.5 55.5t24 59t28 56q23 42 53.5 65.5t60.5 22.5q25 -1 46 -19.5t22 -60.5q1 -25 -3 -52.5t-11 -55t-14.5 -54
t-14.5 -50.5q-14 -51 -27 -103.5t-23 -100.5t-16.5 -90t-6.5 -73q0 -27 6 -36t15 -10q12 -2 25.5 7t28 26t29.5 40.5t29 50.5q30 59 58 123.5t53.5 131t49.5 133t46 129.5l6 23q0 1 13.5 11.5t28 19.5t25 10.5t5.5 -16.5z" />
    <glyph glyph-name="G" unicode="G" horiz-adv-x="544" 
d="M48 178q-9 59 -3.5 127t24.5 135t51 127t76 103t100.5 62.5t124.5 5.5q4 7 13 4.5t17.5 -9t14 -16t2.5 -17.5q-11 -29 -19.5 -58t-19.5 -58q-3 -8 -11 -6.5t-15.5 8t-12 16.5t-1.5 18q8 23 12.5 45t10.5 45q-47 3 -88.5 -19t-75.5 -62t-60.5 -93t-44 -110.5t-25.5 -115.5
t-4 -108q4 -53 23 -70.5t46.5 -10t59 34.5t60.5 63t51.5 75.5t30.5 72.5q2 9 14 15t24.5 8.5t22.5 0.5t8 -10q-20 -77 -42 -151.5t-39 -132.5l10 5q49 30 73 52.5t41 45.5q14 20 27 43t28 65q1 3 5 4t9 0t8.5 -3t2.5 -5q-16 -45 -30 -70.5t-30 -47.5q-18 -26 -44 -51
t-77 -55q-15 -11 -33 -21q-12 -42 -27 -90t-33 -96t-39.5 -92.5t-47.5 -80.5q-31 -42 -70.5 -57t-71 -3t-46.5 50t4 100q12 41 39.5 77.5t64 68.5t78 60.5t82.5 53.5l48 166q-41 -60 -89 -97.5t-91 -46t-75 16.5t-41 89zM285 13q-36 -23 -72.5 -49t-67.5 -55t-54.5 -61
t-33.5 -66q-12 -42 -3 -64.5t29 -27t46.5 9t47.5 44.5q15 23 32 57.5t32 72.5t27 75t17 64z" />
    <glyph glyph-name="H" unicode="H" horiz-adv-x="578" 
d="M77 16q11 38 29.5 102t39.5 139q-39 12 -79 30q-6 3 -7 8t1 9.5t7 7t11 -0.5q18 -8 36 -15.5t38 -12.5q14 52 27.5 105.5t24 103t17.5 92.5t7 75q0 27 -6 36t-16 10q-8 1 -18 -3.5t-20 -13t-19.5 -20t-16.5 -23.5q-14 -25 -27 -55t-24.5 -59t-20 -54t-13.5 -41
q-1 -3 -5.5 -4t-9 0t-8 3t-2.5 5q7 19 16 45.5t20 55.5t23.5 59t27.5 56q24 42 54 65.5t60 22.5q25 -1 46 -19.5t23 -60.5q1 -33 -5.5 -78.5t-18 -97.5t-26 -108t-29.5 -110q43 -4 82.5 6.5t73.5 39.5q10 42 22 85t24 84t23 78t20 68q3 11 7.5 24.5t9.5 26.5t11.5 24.5
t13.5 18.5q11 11 23.5 15.5t23 1.5t18.5 -12t11 -25q3 -21 -2 -48q-7 -38 -22.5 -80.5t-34.5 -85.5t-40 -84t-38 -76q-17 -70 -29 -134.5t-12 -111.5q-1 -27 5.5 -35.5t15.5 -10.5q17 -2 38.5 17.5t35.5 43.5q17 29 32 65t27 68q7 19 13.5 37.5t12.5 37.5q1 3 5.5 4t9 0
t8 -3t2.5 -5q-7 -20 -13 -39t-14 -39q-12 -34 -27 -70t-33 -68q-23 -42 -53.5 -65.5t-60.5 -22.5q-25 1 -46 19.5t-22 61.5q-2 38 5.5 88t20.5 107q-35 -22 -73.5 -29t-80.5 -2q-17 -61 -33 -114t-26 -90q0 -1 -13 -11.5t-27.5 -19.5t-25 -10.5t-5.5 16.5zM532 664
q-10 -35 -24 -83t-29 -102q-2 -7 -4 -13.5t-4 -12.5q23 48 47 102.5t32 106.5q2 15 2 25t-2.5 11.5t-7 -6t-10.5 -28.5z" />
    <glyph glyph-name="J" unicode="J" horiz-adv-x="377" 
d="M129 50q11 37 25.5 87t30 106.5t31 115.5t27.5 114t20 103t8 83q1 27 -5 36t-16 10q-17 2 -38.5 -17t-35.5 -43q-14 -25 -27 -55t-24.5 -59t-20 -54t-13.5 -41q-1 -3 -5.5 -4t-9 0t-8 3t-2.5 5q7 19 15.5 45.5t19.5 55.5t24 59t28 56q24 42 54 65.5t60 22.5
q25 -1 46 -19.5t23 -60.5q1 -48 -12.5 -120.5t-33.5 -151.5t-43 -157t-40 -138l9 5q49 30 73 52.5t41 45.5q14 20 27.5 43t27.5 65q1 3 5.5 4t9 0t8 -3t2.5 -5q-16 -45 -30 -70.5t-30 -48.5q-18 -26 -44 -50.5t-77 -54.5q-15 -11 -33 -21q-12 -42 -27 -90t-33 -96
t-39.5 -92.5t-47.5 -80.5q-31 -42 -70.5 -57t-71 -3t-46.5 50t4 100q12 41 40 77.5t64 68.5t77.5 60.5t82.5 53.5zM119 13q-36 -23 -72.5 -49t-68 -55t-55 -61t-33.5 -66q-12 -42 -3 -64.5t29.5 -27t46.5 9t47 44.5q15 23 32 57.5t32 72.5t27 75t18 64z" />
    <glyph glyph-name="C" unicode="C" horiz-adv-x="478" 
d="M84 -18q-32 31 -47 83t-15 115t14 132.5t40 136t63.5 125t84.5 99t102.5 59.5t118.5 6q4 7 13 4.5t17.5 -9t14 -16t2.5 -17.5q-11 -29 -19.5 -58t-19.5 -58q-3 -8 -11 -6.5t-15.5 8.5t-12 16.5t-1.5 17.5q8 23 12.5 45t10.5 45q-44 3 -85.5 -19t-79 -61.5t-69 -92.5
t-55.5 -112t-38.5 -119.5t-17 -114.5t8 -98.5t36.5 -70.5q22 -22 53.5 -23t64.5 10q74 24 122 84.5t77 139.5l27 75q1 3 5 4t8.5 0t8 -3t2.5 -5q-7 -20 -13 -39t-14 -39q-17 -46 -39.5 -90.5t-53 -81.5t-70.5 -64t-91 -39q-38 -8 -75 -2t-64 33z" />
    <glyph glyph-name="E" unicode="E" horiz-adv-x="481" 
d="M199 386q-40 11 -59 45.5t-18 78t22.5 89.5t62.5 81t101.5 52.5t139.5 4.5q3 7 12 5.5t18 -8.5t14.5 -16.5t2.5 -17.5q-11 -29 -19.5 -58t-19.5 -58q-3 -8 -11 -6.5t-15.5 8t-12 16.5t-1.5 18q8 23 12.5 45.5t10.5 45.5q-54 8 -99.5 -10t-78 -49t-51 -70t-20 -74
t16.5 -60t58 -28q12 -2 13.5 -15t-2.5 -22q-32 1 -60 -18t-51 -50t-38.5 -70.5t-21.5 -79t-1.5 -75t22.5 -59t50 -31.5t81 8q74 25 122 85.5t77 139.5l27 75q1 3 5 4t8.5 0t8 -3t2.5 -5q-7 -20 -13 -39t-14 -39q-17 -47 -39.5 -91.5t-53 -81.5t-70.5 -64t-91 -38t-88.5 -0.5
t-62.5 35.5t-38 61t-14 77q-2 48 12 95t38 84.5t57 60t69 22.5z" />
    <glyph glyph-name="V" unicode="V" horiz-adv-x="584" 
d="M229 659q0 27 -6 36t-16 10q-8 1 -18 -3.5t-20 -13t-19.5 -20t-16.5 -23.5q-14 -25 -27 -55t-24 -59t-19.5 -54t-14.5 -41q-1 -3 -5.5 -4t-9 0t-8 3t-2.5 5q7 19 16 45.5t20 55.5t23.5 59t27.5 56q24 42 54.5 65.5t60.5 22.5q24 -1 45 -19.5t23 -60.5q1 -25 -3.5 -52.5
t-11 -55t-14.5 -54t-14 -50.5q-14 -51 -27.5 -103.5t-23.5 -100.5t-16.5 -90t-6.5 -73q0 -26 11.5 -33.5t27.5 -5.5t33 11.5t29 18.5q37 29 72 81.5t66.5 115.5t59.5 131.5t50.5 131t39 112.5t26.5 77q1 4 7.5 5.5t13.5 1t12.5 -2.5t4.5 -6q-11 -31 -26 -78.5t-34.5 -104.5
t-43.5 -119.5t-52 -122.5t-60.5 -114.5t-69 -95.5t-77 -65t-85.5 -23q-25 1 -46 19.5t-23 60.5q-1 33 5.5 77.5t17.5 95t25 105t29 107.5q14 51 26.5 96t13.5 98z" />
    <glyph glyph-name="W" unicode="W" horiz-adv-x="850" 
d="M565 637q-3 -46 -17 -94.5t-26 -90.5q-14 -51 -27 -103.5t-23 -100.5t-16.5 -90t-6.5 -73q0 -26 11.5 -33.5t27.5 -5.5t33 11.5t28 18.5q37 29 72 81.5t67 115.5t59.5 131.5t50.5 131t39.5 112.5t25.5 77q1 4 8 5.5t14 1t12.5 -2.5t4.5 -6q-14 -41 -36.5 -111
t-52.5 -150.5t-67.5 -163.5t-82.5 -149.5t-97.5 -108t-111.5 -40.5q-25 1 -46 19.5t-23 60.5q-1 29 4 68t14 83.5t21 92.5t25 96q-27 -70 -56.5 -137.5t-63.5 -131.5q-16 -31 -34 -58.5t-36.5 -48.5t-38 -32.5t-39.5 -11.5q-25 1 -46 19.5t-22 60.5q-1 33 5 77.5t17 95
t25 105t29 107.5q14 51 26.5 96t13.5 98q0 27 -6 36t-15 10q-17 2 -38.5 -17t-35.5 -43q-15 -25 -28 -55t-24 -59t-19.5 -54t-14.5 -41q-1 -3 -5 -4t-9 0t-8.5 3t-2.5 5q7 19 16 45.5t20 55.5t23.5 59t27.5 56q24 42 54.5 65.5t60.5 22.5q25 -1 45.5 -19.5t22.5 -60.5
q1 -25 -3.5 -52.5t-11 -55t-14.5 -54t-14 -50.5q-14 -51 -27 -103.5t-23.5 -100.5t-16.5 -90t-6 -73q-1 -27 5.5 -36t15.5 -10q12 -2 25.5 7t28 26t29 40.5t28.5 50.5q55 106 101 225.5t87 236.5q6 17 18 32.5t24 21.5t20 -2.5t6 -39.5z" />
    <glyph glyph-name="S" unicode="S" horiz-adv-x="466" 
d="M370 661q-19 30 -40.5 41t-42.5 7t-39 -20.5t-30.5 -39.5t-18 -51t-0.5 -55q7 -39 28.5 -78.5t47.5 -80t51 -81.5t39 -83q15 -46 7.5 -93.5t-32.5 -85.5t-65.5 -61.5t-90.5 -21.5q-43 2 -79 25.5t-57.5 65.5t-25 100t19.5 130q1 6 6 8.5t10 2t8 -4.5t2 -10
q-16 -56 -15.5 -105t16.5 -86t46 -58t72 -21q35 0 61 18t42 45t21 60t-2 63q-11 42 -36.5 86t-53.5 88t-52 87t-31 84q-7 39 2 74.5t28 63t46.5 45.5t57 23t59.5 -5t54 -39l1 1q3 8 10.5 6t15 -8.5t12.5 -16.5t2 -18q-11 -29 -16 -58t-16 -58q-3 -8 -12 -6.5t-18 8.5
t-15 16.5t-3 17.5q8 20 14 39.5t12 39.5z" />
    <glyph glyph-name="Q" unicode="Q" horiz-adv-x="450" 
d="M383 687q-26 24 -55 22.5t-57 -17.5t-52 -40t-39 -46q-32 -46 -53 -101.5t-32 -113t-12 -113t7 -100.5t25.5 -75.5t43.5 -37.5q24 -7 59 7q6 3 12.5 6.5t12.5 8.5q-19 12 -42 15t-49 -5q-6 -2 -9.5 3.5t-4 13t2.5 15.5t9 10q36 11 66.5 3.5t54.5 -27.5q25 30 45 73t34 92
t22.5 101t10 99.5t-4 87t-18.5 64.5q-7 13 -17 19t-20 4q-14 -2 -22.5 -18.5t-13 -40.5t-6 -52t-0.5 -54.5t3.5 -48t5.5 -31.5q2 -6 -1.5 -9.5t-8.5 -4t-10.5 2.5t-6.5 9q-3 13 -5.5 37.5t-3.5 54.5t1.5 61.5t10 57.5t21.5 43.5t36 18.5q15 2 30 -6t26 -25q17 -27 26 -69.5
t9 -93.5t-7.5 -106t-22.5 -108.5t-37 -101.5t-50 -83q17 -24 28 -53.5t13 -61.5q0 -7 -4.5 -10.5t-10 -4.5t-10.5 2t-5 9q-5 54 -36 92q-17 -16 -38 -27q-32 -17 -58 -21t-48 4q-38 13 -62.5 54.5t-35 99.5t-7.5 126.5t19.5 136.5t48 130.5t76.5 107.5q21 20 50 39
t60.5 27.5t62 3t54.5 -33.5q11 -14 3.5 -20.5t-14.5 -0.5z" />
    <glyph glyph-name="I" unicode="I" horiz-adv-x="292" 
d="M77 16q9 32 23.5 81.5t31 108.5t34 123t31 125t22.5 114.5t10 90.5q0 27 -6 36t-16 10q-17 2 -38.5 -17t-35.5 -43q-14 -25 -27 -55t-24.5 -59t-20 -54t-13.5 -41q-1 -3 -5.5 -4t-9 0t-8 3t-2.5 5q7 19 16 45.5t20 55.5t23.5 59t27.5 56q24 42 54 65.5t60 22.5
q25 -1 46 -19.5t23 -60.5q1 -37 -6.5 -87.5t-20.5 -108t-29.5 -118t-33 -117.5t-31.5 -107t-24 -85q0 -1 -13 -11.5t-27.5 -19.5t-25 -10.5t-5.5 16.5z" />
    <glyph glyph-name="P" unicode="P" horiz-adv-x="542" 
d="M77 16q8 30 21.5 76t29.5 101.5t32.5 116t30.5 119t24 111.5t13 94q-39 -28 -64 -59q-4 -5 -9.5 -5t-9.5 3t-5 8t3 10q17 21 39 40t47 36q-1 22 -7 29.5t-15 8.5q-8 1 -18 -3.5t-20 -13t-19.5 -20t-16.5 -23.5q-14 -25 -27 -55t-24.5 -59t-20 -54t-13.5 -41
q-1 -3 -5.5 -4t-9 0t-8 3t-2.5 5q7 19 16 45.5t20 55.5t23.5 59t27.5 56q24 42 54 65.5t60 22.5q19 -1 36.5 -11.5t25.5 -33.5q40 19 81 27t78 2q53 -9 85 -46t40 -88.5t-9 -109.5t-61.5 -109.5t-117.5 -89.5t-177 -48q-17 -58 -32 -109t-25 -87q0 -1 -13 -11.5t-27.5 -19.5
t-25 -10.5t-5.5 16.5zM292 671q1 -2 1 -7q1 -33 -5 -77t-17 -94.5t-25 -105t-29 -107.5q77 10 132.5 42t90.5 74.5t50 90.5t11 90t-26.5 73t-62.5 40q-28 6 -58.5 0.5t-61.5 -19.5z" />
    <glyph glyph-name="R" unicode="R" horiz-adv-x="591" 
d="M77 16q8 30 21.5 76t29.5 101.5t32.5 116t30.5 119t24 111.5t13 94q-39 -28 -64 -59q-4 -5 -9.5 -5t-9.5 3t-5 8t3 10q17 21 39 40t47 36q-1 22 -7 29.5t-15 8.5q-8 1 -18 -3.5t-20 -13t-19.5 -20t-16.5 -23.5q-14 -25 -27 -55t-24.5 -59t-20 -54t-13.5 -41
q-1 -3 -5.5 -4t-9 0t-8 3t-2.5 5q7 19 16 45.5t20 55.5t23.5 59t27.5 56q24 42 54 65.5t60 22.5q19 -1 36.5 -11.5t25.5 -33.5q40 19 81 27t78 2q47 -8 77.5 -38.5t42.5 -73.5t5 -93.5t-35 -99.5t-78 -91t-123 -67q31 -27 57.5 -63t46.5 -75.5t32.5 -80t15.5 -77.5
q0 -7 -8.5 -12.5t-19.5 -8.5t-20.5 -2t-9.5 7q-3 38 -13.5 80.5t-27.5 83t-41.5 76t-56.5 59.5q-39 -11 -84 -15q-17 -59 -32 -109.5t-25 -86.5q0 -1 -13 -11.5t-27.5 -19.5t-25 -10.5t-5.5 16.5zM292 671q1 -2 1 -7q1 -30 -4.5 -69.5t-14.5 -85t-21.5 -95t-25.5 -98.5
q21 2 37.5 -4.5t27.5 -13.5q59 20 101.5 54.5t68 75.5t34.5 84t2.5 80t-28 63.5t-58.5 34.5q-28 6 -58.5 0.5t-61.5 -19.5z" />
    <glyph glyph-name="D" unicode="D" horiz-adv-x="591" 
d="M77 16q9 32 23.5 81.5t31 108.5t34 123t31 125t22.5 114.5t10 90.5q0 27 -6 36t-16 10q-8 1 -18 -3.5t-20 -13t-19.5 -20t-16.5 -23.5q-14 -25 -27 -55t-24.5 -59t-20 -54t-13.5 -41q-1 -3 -5.5 -4t-9 0t-8 3t-2.5 5q7 19 16 45.5t20 55.5t23.5 59t27.5 56q24 42 54 65.5
t60 22.5q18 -1 35 -10.5t26 -30.5q34 22 63 31.5t53.5 8.5t45 -11t37.5 -25q34 -32 53.5 -85t24 -118t-6 -136t-35 -138t-64.5 -125t-94 -97.5t-122 -54.5t-151 4q-6 1 -8 5.5t-1.5 9.5t4.5 8.5t10 2.5q66 -16 122 -1t101 52t79.5 90.5t56.5 115t32.5 125.5t8.5 122.5
t-17 105.5t-43 74q-23 22 -58.5 24.5t-83.5 -20.5q1 -2 1 -7q1 -37 -6.5 -87.5t-20.5 -108t-29.5 -118t-33 -117.5t-31.5 -107t-24 -85q0 -1 -13 -11.5t-27.5 -19.5t-25 -10.5t-5.5 16.5z" />
    <glyph glyph-name="O" unicode="O" horiz-adv-x="450" 
d="M383 676q-26 24 -55.5 22.5t-57.5 -17.5t-51.5 -40t-38.5 -46q-32 -46 -53 -101.5t-32 -113t-12 -113t7 -100.5t25.5 -75.5t43.5 -37.5q25 -6 58 8q34 14 62 52.5t49 91t34.5 113.5t18 118.5t-0.5 106t-20 77.5q-7 13 -17 19t-20 4q-14 -2 -22.5 -18.5t-13 -40.5t-6 -52
t-0.5 -54.5t3.5 -48t5.5 -31.5q2 -6 -1.5 -9.5t-8.5 -4t-10.5 2.5t-6.5 9q-3 13 -5.5 37.5t-3.5 54.5t1.5 61.5t10 58t21.5 43.5t36 19q15 1 30 -7t26 -25q20 -32 28.5 -84t5.5 -113.5t-16.5 -126.5t-36 -123t-54.5 -103t-72 -66q-32 -17 -58 -21t-48 4q-38 13 -62.5 54.5
t-35 99.5t-7.5 126.5t19.5 137t48 130.5t76.5 107q21 20 50 39t60 27.5t61.5 3t54.5 -33.5q12 -14 4.5 -20.5t-14.5 -0.5z" />
    <glyph glyph-name="K" unicode="K" horiz-adv-x="500" 
d="M77 16q9 32 23.5 81.5t31.5 108.5t34 123t31 125t23 114.5t9 90.5q0 27 -6 36t-16 10q-8 1 -18 -3.5t-20 -13t-19.5 -20t-16.5 -23.5q-14 -25 -27 -55t-24.5 -59t-20 -54t-13.5 -41q-1 -3 -5.5 -4t-9 0t-8 3t-2.5 5q7 19 16 45.5t20 55.5t23.5 59t27.5 56q24 42 54 65.5
t60 22.5q25 -1 46 -19.5t23 -60.5q2 -45 -10 -110t-30 -138q19 20 37.5 38.5t36.5 38.5q45 46 91 94.5t88 96.5q4 5 13 4.5t17 -3.5t12.5 -8t0.5 -10q-42 -49 -89 -97.5t-92 -95.5q-23 -23 -45.5 -47t-45.5 -47q8 -3 17 -8q19 -13 33 -40.5t25 -63.5t20.5 -77.5t20.5 -82.5
t24.5 -77.5t32.5 -63.5q4 -5 -1 -10.5t-13 -8.5t-16.5 -2.5t-12.5 5.5q-19 26 -33 63t-25.5 77.5t-21.5 81.5t-20.5 76.5t-22 62t-26.5 37.5q-7 5 -11 6.5t-9 1.5q-12 -46 -25 -91t-25 -86t-22.5 -76.5t-17.5 -62.5q0 -1 -13 -11.5t-27.5 -19.5t-25 -10.5t-5.5 16.5z" />
    <glyph glyph-name="F" unicode="F" horiz-adv-x="391" 
d="M69 16q7 27 19 67.5t26 88.5t28.5 102t28.5 108l-82 -16q-6 -2 -10.5 1.5t-5.5 8.5q-3 12 10 16l95 18q14 56 24 107t15 93q-37 -8 -70.5 -10t-61.5 5q-24 6 -39.5 20t-20.5 31.5t1 36.5t24 36q14 13 35.5 21t46.5 10q26 3 52.5 -1t48.5 -15.5t36 -30.5t16 -47
q42 13 85 32t82.5 39t74.5 39.5t62 35.5q6 4 11 1.5t8 -7t3 -10.5t-6 -9q-28 -17 -65 -38t-79 -42.5t-87 -41.5t-90 -35q-3 -42 -13 -95t-24 -111l88 18l3 7q3 8 12.5 6.5t18.5 -8t14.5 -16.5t2.5 -18q-11 -29 -19.5 -58t-19.5 -58q-3 -8 -11 -6.5t-15.5 8t-12 16.5t-1.5 18
q8 20 11.5 40t8.5 40l-87 -18q-13 -50 -27 -100.5t-27.5 -97t-25.5 -86.5t-20 -70q0 -1 -13 -11.5t-27.5 -19.5t-25 -10.5t-5.5 16.5zM220 649q1 4 1 10q0 36 -27 51.5t-62 13.5q-29 -2 -47 -14.5t-19 -27.5t19 -27.5t66 -12.5q16 0 33.5 1.5t35.5 5.5z" />
    <glyph glyph-name="T" unicode="T" horiz-adv-x="375" 
d="M69 16q8 28 21 71.5t27.5 95.5t30.5 109.5t29.5 114t24 109t15.5 94.5q-37 -8 -70.5 -10t-61.5 5q-24 6 -39.5 20t-20.5 31.5t1 36.5t24 36q14 13 36 21t47 10q26 3 52.5 -1t48 -15.5t35.5 -30.5t16 -47q42 13 85 32t82.5 39t74.5 39.5t62 35.5q6 4 11 1.5t8 -7t3 -10.5
t-6 -9q-28 -17 -65 -38t-79 -42.5t-87 -41.5t-90 -35q-3 -40 -12 -90t-22 -104.5t-28.5 -110.5t-30.5 -108.5t-28.5 -97.5t-22.5 -78q0 -1 -13 -11.5t-27.5 -19.5t-25 -10.5t-5.5 16.5zM221 649v10q0 36 -26.5 51.5t-61.5 13.5q-30 -2 -48 -14.5t-18.5 -27.5t19 -27.5
t65.5 -12.5q16 0 33.5 1.5t36.5 5.5z" />
    <glyph glyph-name="B" unicode="B" horiz-adv-x="617" 
d="M77 16q9 32 23.5 81.5t31 108.5t34 123t31 125t22.5 114.5t10 90.5q0 27 -6 36t-16 10q-17 2 -38.5 -17t-35.5 -43q-14 -25 -27 -55t-24.5 -59t-20 -54t-13.5 -41q-1 -3 -5.5 -4t-9 0t-8 3t-2.5 5q7 19 16 45.5t20 55.5t23.5 59t27.5 56q24 42 54 65.5t60 22.5
q25 -1 46 -19.5t23 -60.5v-7q19 17 41 33t45.5 28t48 18.5t47.5 4.5q37 -3 69.5 -27t39.5 -62q8 -44 -11 -86t-52 -78t-73.5 -63.5t-76.5 -42.5q53 -1 90.5 -20.5t58.5 -50t27.5 -69t-2.5 -78.5t-32.5 -77t-60.5 -65q-38 -29 -84 -45.5t-95 -24t-99 -7.5t-96 5q-7 1 -10 5.5
t-2 9.5t4.5 9t10.5 3q40 -5 83.5 -3t87 11t83.5 25t73 41q28 22 47 54t26 66.5t0.5 69t-28 61t-60.5 41.5t-97 12q-19 -1 -29.5 4t-13 12.5t3.5 14.5t21 10q48 8 91 31.5t76.5 55.5t54.5 67t23.5 65.5t-15 52t-61.5 25.5q-23 2 -44 -3t-41 -15.5t-38 -25t-33 -30.5
q-4 -40 -13.5 -89.5t-22.5 -103.5t-28 -108.5t-30 -105.5t-28 -95t-21 -76q0 -1 -13.5 -11.5t-28 -19.5t-24.5 -10.5t-5 16.5z" />
    <glyph glyph-name="Z" unicode="Z" horiz-adv-x="508" 
d="M58 655q16 33 35.5 52.5t41.5 28t46 8.5t50 -6q29 -6 59 -16t60 -18t60 -11.5t58 3.5q19 11 38 11t31 -6t13 -15t-16 -15q-7 -4 -19 -7q-13 -8 -23 -18.5t-20 -24.5q-32 -43 -57.5 -93.5t-48 -104t-44 -109.5t-45.5 -109.5t-52.5 -104t-64.5 -93.5q33 -7 71 -11t76.5 -4
t76 4.5t70.5 15.5q9 3 15.5 -2t8 -12t-1.5 -14t-12 -10q-42 -14 -81.5 -16.5t-78 1t-78 11.5t-82.5 16q-19 -18 -35.5 -23t-30.5 -5q-25 -1 -42 13.5t-13 29.5q3 13 19.5 19.5t50.5 0.5q39 42 69.5 95t56.5 111.5t49.5 120t48 119t53 109t63.5 90.5q-29 0 -55.5 6t-52 13.5
t-51 14t-51.5 8.5q-39 2 -68.5 -18t-55.5 -75q-3 -5 -10.5 -1.5t-15 11t-13 16t-2.5 14.5zM70 -1q-2 0 -4 1q-12 1 -16.5 -2t-4 -6t5 -4t11.5 5z" />
    <glyph glyph-name="L" unicode="L" horiz-adv-x="400" 
d="M77 17q9 32 23.5 81.5t31.5 108.5t34 123t31 124.5t23 114t9 90.5q0 27 -6 36t-15 10q-17 2 -38.5 -17t-35.5 -43q-15 -25 -28 -55t-24 -59t-19.5 -54t-14.5 -41q-1 -3 -5 -4t-9 0t-8.5 3t-2.5 5q7 19 16 45.5t20 55.5t23.5 59t27.5 56q24 42 54.5 65.5t60.5 22.5
q25 -1 45.5 -19.5t22.5 -60.5q1 -36 -6.5 -86.5t-20.5 -107.5t-29 -118t-32.5 -118t-31.5 -107t-24 -85q33 3 66.5 -4.5t65 -17.5t60 -19t51.5 -9q7 1 10.5 -6t3.5 -15.5t-3 -16t-10 -7.5q-35 -2 -67 6.5t-61.5 19.5t-57.5 20.5t-55.5 10.5t-55 -11t-55.5 -44q-5 -5 -9 -4
t-6.5 4.5t-2.5 9.5t4 11q12 16 24.5 27.5t25.5 19.5z" />
    <glyph glyph-name="OE" unicode="&#x152;" horiz-adv-x="931" 
d="M109 -26q-32 31 -47 83t-15 115t14 132.5t40 135.5t63.5 124.5t84.5 99t102.5 59.5t118.5 6q4 7 13 5t17.5 -8.5t14 -16t2.5 -17.5l-12 -35q42 42 105.5 64t151.5 7q3 8 12 6t18 -8.5t15 -16t3 -17.5q-11 -29 -20 -58.5t-20 -58.5q-3 -8 -11 -6t-15.5 8.5t-12 16.5
t-1.5 18q9 23 13 45.5t10 45.5q-54 7 -99.5 -10.5t-78 -49t-51 -70.5t-20 -74t17 -60t58.5 -28q11 -1 12.5 -14t-1.5 -22q-32 1 -60.5 -18t-51 -50t-38 -70.5t-22 -79t-2 -75t22.5 -59.5t50 -31.5t81 8.5q75 25 122.5 85t76.5 140q8 19 14 37.5t13 37.5q1 3 5 4t9 0
t8.5 -3.5t2.5 -5.5l-27 -78q-17 -46 -40 -90.5t-53.5 -81.5t-70.5 -64t-91 -38q-63 -14 -105.5 4t-66.5 56q-25 -21 -55 -36.5t-65 -23.5q-38 -9 -75 -3t-64 34zM452 577q-8 7 -12.5 17t-1.5 18q8 23 12.5 45t10.5 45q-58 4 -112.5 -35.5t-99.5 -104.5t-77 -145.5
t-46 -158.5t-6.5 -143.5t41.5 -100.5q22 -22 53.5 -23.5t64.5 9.5q38 13 73 38q-14 36 -15 78q-1 48 12.5 95t38 84.5t57 60t68.5 22.5q-29 8 -46.5 28.5t-25 47.5t-5 59t15.5 64z" />
    <glyph glyph-name="oe" unicode="&#x153;" horiz-adv-x="596" 
d="M526 233q7 19 13.5 37.5t12.5 37.5q1 3 5.5 4t9 0t8 -3t2.5 -5q-7 -20 -13 -39.5t-14 -39.5q-12 -33 -31.5 -72.5t-46 -73.5t-60 -56.5t-74.5 -22.5q-26 0 -48 10t-36 31q-23 -19 -48.5 -30.5t-54.5 -10.5q-41 1 -71 26.5t-33 81.5q-2 38 6.5 80.5t25 80.5t41 67t56.5 41
q20 8 39 6t33.5 -12.5t23 -29t8.5 -43.5q17 28 37.5 49t45.5 30q23 9 44.5 5.5t35.5 -18.5q13 -13 15.5 -32.5t-3.5 -42t-19 -46.5t-30 -47q-25 -32 -53 -58.5t-49 -39.5q7 -41 38 -47q35 -8 64.5 9.5t53 47t40 64t26.5 61.5zM240 73q-4 15 -6 35q-2 30 3.5 64t16.5 66
q-2 1 -2 9q6 112 -65 66q-14 -9 -26.5 -30.5t-22.5 -48t-16 -55.5t-7 -53q-1 -35 10 -52.5t30 -22.5q23 -5 44 1.5t41 20.5zM302 127q19 13 40.5 35.5t41.5 48.5q13 18 23.5 36.5t16 34.5t6 28t-6.5 17q-5 4 -13 2.5t-16.5 -5.5t-16.5 -9.5t-12 -9.5q-14 -13 -25 -35.5
t-19.5 -48t-13.5 -50.5t-5 -44z" />
    <glyph glyph-name="ae" unicode="&#xe6;" horiz-adv-x="581" 
d="M526 233l26 75q1 3 5.5 4t9 0t8 -3t2.5 -5l-27 -78q-12 -33 -31.5 -73t-46 -74t-60 -56.5t-74.5 -22.5q-32 1 -57.5 16t-38.5 48q-3 9 -6 17q-5 15 -5 18q-16 -32 -35 -57t-42 -35q-29 -11 -53 -4t-38 36q-17 34 -16 85.5t16.5 103t44 93.5t68.5 57q32 12 59 1t38 -41
q1 1 1 2t1 3q0 1 12.5 11t27 19t25 11t7.5 -14q4 2 7.5 4t7.5 4q23 8 44.5 4.5t36.5 -18.5q13 -13 15 -32.5t-4 -42t-19 -46.5t-30 -47q-24 -32 -52.5 -58t-49.5 -40q4 -21 14.5 -32t24.5 -14q35 -8 64 9.5t52.5 46.5t40.5 63.5t27 61.5zM252 251q4 107 -65 62
q-14 -9 -26.5 -30t-22.5 -48t-16 -56t-7 -53q-1 -27 9.5 -48.5t30.5 -20.5q11 1 23 12.5t23 30t21 41t18 45.5q0 2 0.5 3t0.5 3q2 15 5 29.5t6 29.5zM302 127q18 13 39.5 35.5t41.5 48.5q13 18 23.5 36.5t16.5 34.5t6.5 28t-6.5 17q-5 4 -13.5 2.5t-17 -5.5t-16.5 -9t-12 -9
q-13 -13 -24.5 -35.5t-19.5 -48t-13 -51t-5 -44.5z" />
    <glyph glyph-name="at" unicode="@" horiz-adv-x="649" 
d="M386 491q-50 1 -95 -11.5t-82.5 -38t-66 -62.5t-45.5 -83q-17 -45 -23 -98t2 -103.5t33 -95t70 -73.5q63 -40 134.5 -38.5t136.5 32.5q6 3 10.5 1t6.5 -6.5t1 -9t-7 -7.5q-48 -23 -97 -31.5t-103 1.5q-70 13 -115.5 50.5t-69.5 90t-28 114t9 123.5q12 60 40 109.5
t69.5 85.5t94.5 55.5t115 19.5t105 -19.5t69.5 -52.5t37.5 -77t8.5 -91.5t-17 -95.5t-38.5 -91q-24 -42 -54.5 -65.5t-60.5 -22.5q-25 1 -45.5 19.5t-22.5 61.5v18q-16 -32 -35.5 -57t-42.5 -34q-29 -12 -53 -5t-38 37q-11 22 -14 53t0.5 65.5t14 69t26.5 65t38 53t48 32.5
q32 12 59 1t39 -41q0 2 0.5 2.5t0.5 2.5q0 1 13.5 11.5t28 19.5t25 10.5t5.5 -16.5q-3 -12 -11.5 -44t-17 -73t-15.5 -85.5t-7 -80.5q0 -26 6 -35t15 -11q9 -1 19 4t20 13.5t19 20t16 23.5q21 37 35 79.5t18 85.5t-3.5 82.5t-29 71t-58.5 50.5t-93 21zM379 252q3 108 -66 62
q-13 -9 -25.5 -30t-22.5 -48t-16.5 -56t-6.5 -53q0 -14 2.5 -26.5t7.5 -22t12.5 -15t17.5 -4.5q11 1 23 13t23 30.5t21 41t18 44.5q5 34 12 64z" />
    <glyph glyph-name="AE" unicode="&#xc6;" horiz-adv-x="822" 
d="M14 -27q12 19 28 45.5t34.5 58t40 67t43.5 73.5q-16 -5 -31.5 -9t-32.5 -8q-21 -6 -31 -4.5t-9 7t13 12.5t33 13l78 22q24 42 48.5 85t46 84t40 78.5t32.5 69.5q-40 -9 -74 -11t-60 5q-23 6 -34 20t-10.5 31.5t12.5 36.5t36 36q17 13 41.5 21t50.5 11q26 2 51.5 -2
t43.5 -15t26.5 -30t1.5 -47q18 29 45.5 54t63.5 41.5t81.5 22t99.5 -3.5q4 8 13 6t18 -8.5t14.5 -16t2.5 -17.5q-11 -29 -19.5 -58.5t-19.5 -58.5q-3 -8 -11 -6t-15.5 8.5t-12 16.5t-1.5 18q8 23 12.5 45.5t10.5 45.5q-55 7 -100 -10.5t-78 -49t-51.5 -70.5t-19.5 -74
t16.5 -60t58.5 -28q12 -1 13 -14t-2 -22q-32 1 -60 -18t-51 -50t-38.5 -70.5t-21.5 -79t-1.5 -75t22.5 -59.5t50 -31.5t81 8.5q74 25 122 85t77 140q7 19 13.5 37.5t12.5 37.5q1 3 5.5 4t9 0t8 -3.5t2.5 -5.5q-7 -20 -13 -39t-14 -39q-17 -46 -39.5 -90.5t-53 -81.5
t-70.5 -64t-91 -38q-51 -12 -88.5 -1.5t-62.5 36t-38 61.5t-14 77q-1 36 6.5 71.5t21.5 67.5l-88 -25q-43 -72 -81.5 -135.5t-63.5 -106.5q0 -1 -8 -6t-19 -11.5t-23 -13t-21 -9t-12 0.5t4 15zM399 537q-26 -57 -63 -125.5t-78 -137.5l87 26q25 39 58 63t71 24
q-23 7 -39.5 21.5t-25.5 34.5t-11.5 44t1.5 50zM362 605l3 10q6 18 2.5 31t-13 21t-24.5 11t-33 2q-30 -2 -52 -14.5t-27 -27.5t10.5 -27.5t61.5 -12.5q17 0 34.5 2t37.5 5z" />
    <glyph glyph-name="Thorn" unicode="&#xde;" horiz-adv-x="344" 
d="M280 584q0 -8 -1 -12q-15 -57 -31 -112t-31 -112l15 12l13 7q30 15 51.5 3t29.5 -50q7 -36 1.5 -85t-22 -96t-42.5 -84.5t-58 -52.5q-23 -11 -38 -8t-21 12t-3.5 20t13.5 16q34 17 58.5 46t40 63.5t22.5 69t7 62t-6.5 44t-18.5 13.5q-43 -10 -74 -113q-33 -130 -64 -258
t-60 -259q-2 -9 -4.5 -20.5t-6 -21t-10 -15t-17.5 -2.5q-13 3 -19 16t-3 30q51 230 110 453.5t117 451.5v-1q4 16 12.5 20t17 0t15 -14.5t7.5 -22.5z" />
    <glyph glyph-name="onequarter" unicode="&#xbc;" horiz-adv-x="445" 
d="M376 352q-14 -80 -27.5 -159.5t-27.5 -159.5q-3 -14 -8 -22.5t-19 -10.5q-10 -1 -16 7.5t-3 22.5l-1 -1l20 106q-12 -14 -25 -20t-27 5q-16 13 -16.5 37.5t5 52.5t13 56t9.5 48q-7 -8 -15.5 -6t-12.5 13q-21 -57 -41.5 -110.5t-36.5 -95t-26.5 -68t-12.5 -29.5
q-5 -7 -15 -12t-20.5 -5.5t-18 5t-7.5 19.5q0 5 0.5 7t2.5 6l-1 -1q64 162 125 323.5t122 326.5q6 17 13.5 24t21.5 12t25 -4.5t6 -29.5l-1 -4q0 -2 -0.5 -2.5t-0.5 -1.5l-111 -298q12 7 25.5 -3.5t18.5 -30.5q6 -22 3 -45t-9 -45t-12 -43.5t-6 -40.5q14 17 26.5 44t20.5 47
q1 7 3.5 23t5.5 32.5t5.5 29.5t3.5 16q3 9 10.5 13.5t14.5 4t12 -7t5 -19.5v-6zM122 586q3 10 8.5 29.5t12.5 40.5t13.5 38.5t11.5 23.5q11 14 22 6t13 -27q1 -14 -1.5 -37.5t-7 -49.5t-9.5 -51l-8 -40q-8 -39 -15 -78t-12 -80q-3 -13 -10.5 -17.5t-15.5 -2.5t-13.5 9.5
t-4.5 18.5q6 48 15 93t18 91q-7 0 -12.5 6t-5.5 17q0 6 1 10z" />
    <glyph glyph-name="onehalf" unicode="&#xbd;" horiz-adv-x="416" 
d="M360 681q-5 -14 -18 -49t-31 -83t-39.5 -105.5t-43.5 -115.5t-42.5 -112.5t-37 -97.5t-27.5 -70t-13 -30q-5 -7 -15 -12t-20.5 -6t-18 4.5t-7.5 20.5q0 5 3 13l-1 -1q64 162 125 323.5t122 325.5q6 17 13.5 24.5t21.5 12.5t25 -4.5t6 -29.5l-1 -5q0 -1 -0.5 -1.5
t-0.5 -1.5zM216 281v1q6 18 14.5 37t20.5 34t26.5 24t31.5 7q18 -2 28 -15.5t14 -32.5t3 -40t-5 -39q-10 -47 -34.5 -98t-52.5 -95q9 0 21 -3q10 -2 12.5 -1.5t7.5 11.5q6 12 13.5 12t13.5 -7t8.5 -18t-1.5 -20q-7 -17 -14 -25t-15.5 -10.5t-19 -1t-22.5 5.5q-17 5 -25.5 4
t-25.5 -8q-8 -3 -14.5 0.5t-10.5 10.5t-4 16t5 16q29 38 51 77t41 87q4 10 9.5 26t9.5 33t5 32.5t-3 26.5q-2 5 -7 3t-10.5 -6.5t-10.5 -10t-6 -7.5q-8 -11 -11.5 -20t-8.5 -23q-3 -9 -8.5 -12.5t-11.5 -2.5t-10.5 6.5t-4.5 14.5q-2 5 0 10zM122 585q3 10 8.5 29.5
t12.5 40.5t13.5 39t11.5 24q11 13 22 5.5t13 -26.5q1 -14 -1.5 -37.5t-7 -50t-9.5 -51t-8 -39.5q-8 -40 -15 -79t-12 -79q-3 -13 -10.5 -17.5t-15.5 -2.5t-13.5 9t-4.5 18q6 48 15 93.5t18 91.5q-7 0 -12.5 5.5t-5.5 16.5q0 7 1 10z" />
    <glyph glyph-name="threequarters" unicode="&#xbe;" horiz-adv-x="418" 
d="M376 352q-14 -80 -27.5 -159.5t-27.5 -159.5q-3 -14 -8 -22.5t-19 -10.5q-10 -1 -16 7.5t-3 22.5l-1 -1l20 106q-12 -14 -25 -20t-27 5q-16 13 -16.5 37.5t5 52.5t13 56t9.5 48q-7 -8 -15.5 -6t-12.5 13q-21 -57 -41.5 -110.5t-36.5 -95t-26.5 -68t-12.5 -29.5
q-5 -7 -15 -12t-20.5 -5.5t-18 5t-7.5 19.5q0 5 0.5 7t2.5 6l-1 -1q35 88 68.5 176t67.5 176q-14 -23 -32 -37t-40 -10q-12 2 -23 13t-16.5 24.5t-4 26t13.5 15.5q13 4 21 -14v1q6 -16 14.5 -15t18.5 12q6 8 12 21t9.5 27t4.5 28t-3 25q-4 10 -12.5 8t-18.5 -6.5t-19 -5
t-14 13.5q-4 10 -1.5 17t8 12.5t12 9.5t11.5 7q21 15 38 35.5t18 55.5q1 18 -6 21t-16.5 -4t-19 -21t-12.5 -31l-2 -9h1q-4 -20 -17.5 -21t-18.5 15q-1 4 -1 12q0 2 1 3q5 31 17.5 58t36.5 41q17 10 33.5 8.5t28.5 -13t17.5 -31.5t2.5 -46q-4 -29 -14 -49t-25 -36
q13 -12 19 -36q4 -15 3.5 -33t-4.5 -36l90 242q6 17 13.5 24t21.5 12t25 -4.5t6 -29.5l-1 -5q0 -1 -0.5 -1.5t-0.5 -1.5l-111 -298q12 7 25.5 -3.5t18.5 -30.5q6 -22 3 -45t-9 -45t-12 -43.5t-6 -40.5q14 17 26.5 44t20.5 47q1 7 3.5 23t5.5 32.5t5.5 29.5t3.5 16
q3 9 10.5 13.5t14.5 4t12 -7t5 -19.5v-6z" />
    <glyph glyph-name="perthousand" unicode="&#x2030;" horiz-adv-x="522" 
d="M247 380q23 12 43 0.5t31 -42.5q2 -6 3.5 -12.5t3.5 -13.5q4 17 11 32t20 27q25 22 49.5 12t36.5 -45q10 -29 10.5 -71t-6 -85t-19 -82t-28.5 -62q-17 -24 -34 -32.5t-32 -3.5t-26 22.5t-15 45.5q-4 -10 -8 -17.5t-9 -14.5q-19 -27 -38.5 -34.5t-35 2t-25.5 34.5t-10 62
q0 25 3.5 50t8.5 51q-14 -38 -26.5 -70.5t-22.5 -57.5l-16 -40t-8 -17q-5 -7 -15 -12t-20.5 -5.5t-18 5t-7.5 20.5q0 5 3 13v-1q64 162 125 323.5t121 325.5q6 17 13.5 24t21.5 12t25 -4t7 -29l-2 -5q0 -2 -1 -4q-5 -12 -15.5 -41t-26 -69.5t-34 -90t-37.5 -100.5zM79 615
q0 29 7.5 54t26.5 42q25 23 49.5 12.5t36.5 -45.5q10 -29 11 -70.5t-6 -84.5t-19.5 -82t-28.5 -62q-19 -27 -38.5 -34.5t-35 2t-25.5 34.5t-10 62q0 43 9 88t23 84zM254 297q-5 -10 -8 -18t-7 -18l3 -13.5t5 -14.5q3 -10 1.5 -17.5t-6 -12t-10 -5.5t-10.5 3q-5 -18 -8.5 -39
t-5 -40.5t0 -36.5t7.5 -29q5 -10 12.5 -4t15 17.5t13 24.5t6.5 16q6 18 12.5 47.5t10 60.5t2.5 60t-8 47q-5 13 -12.5 12t-14.5 -10q4 -8 4 -20q0 -6 -3 -10zM378 297q-5 -10 -8 -18t-7 -18l3 -13.5t5 -14.5q3 -10 1.5 -17.5t-6 -12t-10 -5.5t-10.5 3q-5 -18 -8.5 -39
t-5 -40.5t0 -36.5t7.5 -29q5 -10 12.5 -4t15 17.5t13 24.5t6.5 16q6 18 12.5 47.5t10 60.5t2.5 60t-8 47q-5 13 -12.5 12t-14.5 -10q4 -8 4 -20q0 -6 -3 -10zM132 637q-5 -9 -8 -17.5t-7 -18.5q2 -8 3 -12.5t5 -14.5q3 -10 1.5 -17.5t-6 -12t-10 -5.5t-10.5 3
q-5 -18 -8.5 -39t-5 -40.5t0 -36.5t7.5 -29q5 -10 12.5 -4t15 17.5t13 24.5t6.5 16q6 18 12.5 47t10 60t2.5 60.5t-8 47.5q-5 13 -12.5 11.5t-14.5 -9.5q4 -8 4 -20q0 -5 -3 -11z" />
    <glyph glyph-name="percent" unicode="%" horiz-adv-x="460" 
d="M212 275v6.5t1 6.5q-20 -52 -38 -99.5t-32.5 -84.5t-23.5 -60t-11 -26q-5 -7 -15 -12t-20.5 -5.5t-18 5t-7.5 20.5q0 5 3 13l-1 -1q34 86 67 171.5t66 172.5l-2 -3q-19 -27 -38.5 -34.5t-35 2t-25.5 34.5t-10 62q0 43 9 88t23 84q0 29 7.5 54t26.5 42q25 23 49.5 12.5
t36.5 -45.5q6 -18 9 -40.5t2 -48t-4 -52.5t-9 -52l75 202q6 17 13.5 24t21.5 12t25 -4t6 -29l-1 -5q0 -1 -0.5 -1.5t-0.5 -2.5l-118 -315l5 5q25 22 49.5 12t36.5 -45q10 -29 10.5 -71t-6 -85t-19 -82t-28.5 -62q-19 -27 -38.5 -34.5t-35.5 2t-26 34.5t-10 62q1 43 10 88
t22 85zM266 297q-5 -10 -8.5 -18t-6.5 -18q1 -9 2.5 -13.5t5.5 -14.5q3 -10 1.5 -17.5t-6 -12t-10.5 -5.5t-11 3q-4 -18 -7.5 -39t-5 -40.5t0 -36.5t7.5 -29q5 -10 12.5 -4t14.5 17.5t12.5 24.5t7.5 16q6 18 12.5 47.5t9.5 60.5t2 60t-8 47q-5 13 -12.5 12t-14.5 -10
q5 -10 4 -20q0 -4 -2 -10zM156 637q-5 -9 -8 -17.5t-7 -18.5q2 -8 3 -12.5t5 -14.5q3 -10 1.5 -17.5t-6 -12t-10 -5.5t-10.5 3q-5 -18 -8.5 -39t-5 -40.5t0 -36.5t7.5 -29q5 -10 12.5 -4t15 17.5t13 24.5t6.5 16q6 18 12.5 47t10 60t2.5 60.5t-9 47.5q-5 13 -12 11.5
t-14 -9.5q4 -8 4 -20q0 -5 -3 -11z" />
    <glyph glyph-name="germandbls" unicode="&#xdf;" horiz-adv-x="420" 
d="M358 704q17 -21 22.5 -53.5t3 -69t-11 -72t-18.5 -62.5q-17 -45 -41 -77.5t-56 -55.5q45 -57 31 -151q-8 -50 -28.5 -89.5t-55.5 -65.5q-12 -9 -20 -7t-11.5 8.5t-3.5 14t4 9.5q22 11 39.5 35t28 53t13 60t-3.5 56.5t-22 42t-44 16.5q-18 -65 -36 -129t-37 -129
q-5 -17 -11.5 -24t-21.5 -12t-25 3t-4 28l-1 -1q47 155 90 309t86 311q8 22 25 39t37 25t39.5 6t32.5 -18zM189 313q25 3 50 24t46 52t36.5 69.5t23.5 75.5t6 70t-16 54q-9 14 -23.5 9t-28.5 -19q-11 -38 -23 -81t-24 -86.5t-24 -86.5t-23 -81z" />
    <glyph glyph-name="thorn" unicode="&#xfe;" horiz-adv-x="352" 
d="M183 353q12 10 26.5 17.5t28 9t25.5 -4.5t21 -22q13 -25 14 -60.5t-6 -73.5t-19 -74t-26 -61q-9 -18 -22 -34.5t-28.5 -28.5t-32 -17.5t-33.5 -2.5q-20 5 -18 16t19 18t33 26.5t30 47t25 59.5t17.5 62.5t8 58t-3.5 45.5t-18 16t-27 -17.5t-26.5 -42t-17.5 -58.5
q-4 -17 -12 -49t-17.5 -71.5t-20 -83.5t-20 -83.5t-17 -72t-11.5 -48.5q-5 -19 -12.5 -26t-16.5 -9q-12 -2 -21.5 6t-7.5 22q2 8 7.5 32t13.5 56.5t17 69t17 69.5t14 57.5t8 32.5q35 140 70 277t70 277v-1q4 16 15.5 25.5t23 11t19 -5t3.5 -22.5q-8 -33 -18 -68.5t-19 -67.5
z" />
    <glyph glyph-name="ampersand" unicode="&#x26;" horiz-adv-x="411" 
d="M338 370q-20 -38 -39.5 -76t-39.5 -76q8 -45 17.5 -88t19.5 -87q2 -15 -4.5 -25.5t-16 -15t-19 -1.5t-12.5 16q-15 60 -27 123q-10 -19 -22 -39.5t-25 -39t-26 -33t-25 -20.5q-20 -10 -34 -3t-22.5 23t-12 38t-3.5 43q1 42 12.5 78t28.5 68t38 62.5t41 61.5l2 2
q-7 32 -12 66.5t-5 69.5t5.5 69t19.5 66q8 18 21 36t29 29.5t33 13.5t33 -11q19 -15 25.5 -42.5t5 -58.5t-8.5 -61.5t-15 -51.5q-14 -36 -33 -69t-39 -65l21 -100q9 18 19.5 38.5t20 38.5t17 31t9.5 16q7 9 14 10t11 -3.5t4 -13t-6 -19.5zM213 443q24 34 39.5 69.5t23 68
t7.5 61t-6 48.5q-4 13 -13 11.5t-19.5 -10.5t-20 -23t-13.5 -26q-7 -20 -9 -46t-1 -53.5t4.5 -53.5t7.5 -46zM184 305q-14 -22 -28.5 -46.5t-26.5 -50.5t-19.5 -52.5t-7.5 -53.5q0 -19 7 -28t19 2q9 7 19.5 21.5t21 31.5t20.5 34.5t18 30.5q-5 24 -11.5 55.5t-11.5 55.5z
" />
    <glyph glyph-name="dollar" unicode="$" horiz-adv-x="409" 
d="M320 587l-45 -197q13 -41 25.5 -86.5t16 -90.5t-6.5 -88t-43 -80q-19 -20 -38.5 -31t-42.5 -15q-3 -13 -6.5 -27t-8.5 -19q-8 -9 -18.5 -13t-19.5 -2t-13.5 10t-1.5 23v-1q2 9 4 17.5t4 17.5q-48 19 -65 60.5t-13.5 92t21.5 104.5t40 99q10 21 20.5 15.5t0.5 -32.5
q-8 -16 -19 -42t-20.5 -56.5t-15 -63t-2.5 -61t17.5 -50.5t43.5 -32q20 84 42 176.5t41 177.5q-11 38 -18 77t-6 76.5t13.5 72.5t41.5 66q11 11 20.5 18t20.5 12q2 12 5.5 26.5t8.5 20.5q8 11 18.5 15.5t19 2t13 -12t1.5 -26.5l-6 -24q18 -8 29.5 -24.5t9.5 -45.5
q-2 -20 -12.5 -41t-22.5 -33q-11 -11 -21 -5t-12 19zM196 46q10 6 20 17.5t18 25.5t14.5 30t9.5 31q6 29 2.5 61.5t-10.5 64.5q-12 -53 -27 -114.5t-27 -115.5zM275 649q-11 -8 -19 -23.5t-12 -34.5t-4 -39t6 -38q4 21 8 36.5t7 30.5t6.5 31t7.5 37zM327 614
q13 14 19.5 30.5t-8.5 22.5q-4 -14 -7 -28l-6 -28z" />
    <glyph glyph-name="Euro" unicode="&#x20ac;" horiz-adv-x="523" 
d="M253 40q-35 -21 -61.5 -20.5t-45 18t-30 49t-15.5 73.5q-2 15 -2.5 31.5t0.5 33.5q-9 0 -17.5 -0.5t-16.5 -0.5q-12 1 -16 10.5t-0.5 20.5t15 20t31.5 9h8q3 26 9.5 58t14.5 64.5t18 63.5t20 57h-25q-12 0 -16.5 10t-1.5 22t14 21.5t31 9.5h26q17 35 37 64t42 51
q16 16 36 28.5t40 16.5t38.5 -2.5t30.5 -27.5q4 -8 8 -18t4 -20t-4 -19t-14 -15q-10 -5 -17.5 -1.5t-9.5 16.5q-5 22 -16.5 26t-28.5 -5q-23 -11 -43.5 -36.5t-38.5 -58.5q27 0 54 -0.5t54 -1.5q9 0 14.5 -9.5t4 -20.5t-10.5 -20.5t-30 -9.5q-29 1 -58.5 1h-58.5
q-13 -32 -23.5 -61.5t-18.5 -58.5t-14 -59.5t-10 -64.5q33 -1 66.5 -1.5t66.5 -0.5q9 0 14 -9.5t3 -20t-12 -19t-31 -8.5h-111q-1 -31 2.5 -59t12.5 -50q12 -29 29 -31.5t41 8.5q10 4 16.5 -2t8.5 -15.5t-1 -20.5t-12 -15z" />
    <glyph glyph-name="exclam" unicode="!" horiz-adv-x="258" 
d="M101 109q10 -7 13.5 -20t2 -27.5t-7 -28t-14 -22.5t-18 -11t-18.5 7q-10 10 -11.5 28t3.5 36t15.5 30.5t25.5 10.5q6 0 9 -3zM256 691q-15 -66 -28.5 -128.5t-27 -124t-27.5 -123.5t-30 -128q-5 -21 -17 -30.5t-23.5 -10t-18.5 8.5t-3 26l5.5 25.5t15 67t21.5 95t25 110
t25.5 111.5l22.5 99q5 22 16.5 32.5t23 10t18 -11t2.5 -29.5z" />
    <glyph glyph-name="question" unicode="?" horiz-adv-x="302" 
d="M101 109q15 -11 16 -33.5t-7.5 -42t-22.5 -30t-28 3.5q-10 10 -11.5 28t3.5 36t15.5 30.5t25.5 10.5q6 0 9 -3zM80 181q15 46 32 91q14 38 31 81.5t34 77.5q9 17 23.5 49t26 66.5t14.5 66.5t-10 49q-7 9 -17.5 6.5t-21.5 -10.5t-20.5 -18t-14.5 -17q-7 -10 -12 -19
t-9 -20q-6 -16 -14.5 -20t-15 0t-10 13t-0.5 20q8 26 25 54t38.5 48t45.5 29t47 -3q16 -9 26 -25t14.5 -36.5t4 -42.5t-4.5 -43q-8 -39 -23 -77.5t-32.5 -76t-36 -75t-31.5 -75.5q-6 -16 -9.5 -27t-6.5 -21t-6 -21.5t-7 -28.5q-3 -12 -14.5 -20t-23 -8.5t-19 7t-3.5 26.5z
" />
    <glyph glyph-name="parenleft" unicode="(" horiz-adv-x="338" 
d="M158 2q-22 -4 -38 0.5t-32 23.5q-23 27 -32 69.5t-9 91t6.5 97.5t15.5 87q7 30 19 67t27.5 75t34.5 74.5t41.5 66t47.5 50t53 26.5q17 4 28.5 -2t13.5 -16t-8 -22t-35 -21q-26 -9 -50.5 -39.5t-45.5 -69.5t-36.5 -80t-24.5 -70q-6 -18 -12.5 -51.5t-11.5 -73.5t-7 -81
t2 -74.5t16 -55t34 -20.5q10 0 16.5 -7.5t8 -16.5t-3.5 -17.5t-18 -10.5z" />
    <glyph glyph-name="parenright" unicode=")" horiz-adv-x="356" 
d="M229 729q22 4 38 -0.5t32 -23.5q22 -27 31.5 -69.5t9.5 -91t-6.5 -97.5t-15.5 -87q-7 -31 -19 -67.5t-27.5 -74.5t-34.5 -74.5t-41.5 -66t-48 -50t-52.5 -26.5q-17 -4 -28.5 2t-13.5 16t7.5 22t35.5 21t50.5 39.5t45.5 69.5t36.5 80t24.5 70q5 18 12 51.5t12 73.5t7 81
t-2 74.5t-16 54.5t-34 21q-10 0 -16.5 7.5t-8 16.5t3.5 17.5t18 10.5z" />
    <glyph glyph-name="braceleft" unicode="{" horiz-adv-x="363" 
d="M171 1q-20 -3 -36.5 1.5t-31.5 23.5q-20 23 -29 58t-11 74.5t1 80t9 74.5q-3 6 -8 11.5t-9.5 12t-7 14t-0.5 15.5q3 9 9 15.5t13 11.5l14 10t12 11q9 11 20 38.5t24 62t30 72t39.5 69t51 53t64.5 23.5q16 1 22 -7t4.5 -18t-9 -18.5t-17.5 -9.5q-18 -2 -36 -16.5
t-35 -37.5t-32.5 -51t-29 -56.5t-23.5 -55.5t-16 -46q-5 -16 -10.5 -23t-12 -11t-14.5 -8t-17 -14q3 -5 8 -10l10 -10t8 -12t2 -17l-5 -42.5t-4.5 -54.5t-1 -58t5.5 -52.5t14.5 -39t26.5 -16.5t24.5 -8t7.5 -15t-6.5 -15t-17.5 -9z" />
    <glyph glyph-name="braceright" unicode="}" horiz-adv-x="330" 
d="M181 731q20 3 36.5 -1.5t31.5 -23.5q19 -23 28.5 -58t11.5 -74.5t-1 -80t-9 -74.5q3 -6 8 -11.5t9.5 -12t7 -14t0.5 -15.5q-3 -9 -9 -15.5t-13 -11.5l-14 -10t-12 -11q-10 -11 -20.5 -38.5t-23.5 -62t-30 -72t-39.5 -69t-51 -52.5t-64.5 -24q-17 -1 -22.5 7t-4 18t9 18.5
t17.5 9.5q18 2 36 16.5t35 37.5t32.5 51t29 56.5t23.5 55.5t16 46q5 16 10.5 23t12 11t14.5 8t17 14q-3 5 -8 10l-10 10t-8 12t-2 17l5 42.5t4.5 54.5t1 58t-5.5 52.5t-14.5 39t-26.5 16.5t-25 8t-8 15t7 15t18 9z" />
    <glyph glyph-name="bracketleft" unicode="[" horiz-adv-x="319" 
d="M127 1q-20 -3 -33.5 2.5t-22.5 18.5t-14.5 31.5t-7.5 40.5q-4 37 0 90t14.5 111.5t27 120t37.5 116t45.5 98t51.5 68.5q14 13 29 24t31 9q19 -2 25 -11t4 -19.5t-11.5 -19.5t-22.5 -10q-17 -2 -35 -24t-36 -58.5t-35 -84t-30.5 -98.5t-24 -102.5t-15 -96.5t-2.5 -80.5
t12 -54.5q4 -8 12 -9t15.5 -2t13.5 -5t7 -17q0 -6 -3.5 -12.5t-8.5 -12t-11.5 -9t-11.5 -4.5z" />
    <glyph glyph-name="bracketright" unicode="]" horiz-adv-x="357" 
d="M241 729q19 3 33 -2.5t23 -18.5t14.5 -31.5t7.5 -40.5q4 -38 0 -90.5t-14.5 -111t-27 -120t-37.5 -116t-45.5 -98.5t-51.5 -68q-14 -13 -29 -24t-31 -9q-19 1 -25 10t-4 19.5t11.5 19.5t22.5 11q17 1 35 23.5t36 59t35 84t30.5 98.5t24 102.5t15 96.5t2.5 80.5t-12 54.5
q-4 7 -12 8.5t-15.5 2.5t-13.5 5t-7 17q0 6 3.5 12.5t8.5 12t11.5 9t11.5 4.5z" />
    <glyph glyph-name="numbersign" unicode="#" horiz-adv-x="391" 
d="M254 683l-44 -202q15 -1 30 -1h30l43 200q5 24 16 35t21.5 11t17 -10.5t3.5 -29.5q-9 -49 -22 -103.5t-24 -104.5q11 0 15.5 -9.5t3 -21t-8 -21.5t-17.5 -11h-7l-32 -143h3q11 -1 15 -10.5t2.5 -21.5t-8 -21.5t-16.5 -10.5l-10 1q-9 -40 -19 -84t-20 -83q-5 -22 -16 -32
t-21.5 -10t-17.5 9t-4 26l4.5 19.5t11.5 47t14 57.5t12 50h-60q-9 -40 -19 -84t-20 -83q-5 -22 -16.5 -32t-23 -10t-19 9t-3.5 26l4.5 19.5t11.5 47t13.5 57t11.5 49.5h-4q-14 0 -18 10.5t-1 22.5t10.5 22.5t17.5 11.5h10l32 140q-1 0 -1.5 -0.5t-2.5 -0.5h-4
q-14 1 -17.5 11t-0.5 22.5t10.5 22.5t17.5 11h13q10 48 21 99.5t22 99.5q5 24 17 35t23 11t17.5 -11t2.5 -32zM195 415q-8 -35 -15.5 -70t-15.5 -70q14 -1 29 -1h30q8 35 16 70.5t16 70.5q-15 1 -30 0.5t-30 -0.5z" />
    <glyph glyph-name="guillemotleft" unicode="&#xab;" horiz-adv-x="564" 
d="M317 274q-24 -9 -52 -18t-56.5 -18.5t-56 -19t-51.5 -18.5q17 -14 45 -33.5t55 -38.5q32 -22 66 -46q7 -7 9 -20t-1.5 -24t-12.5 -16t-23 6q-21 15 -52 37.5t-59.5 43.5t-48.5 35.5l-20 14.5q-8 7 -10.5 20.5t-1 27.5t7.5 26.5t17 17.5l249 90q13 4 20 -3.5t7 -19.5
t-7.5 -25t-23.5 -19zM492 254q-24 -9 -52 -18.5t-56.5 -19t-56 -19t-51.5 -18.5q17 -14 45 -33.5t55 -38.5q32 -22 66 -46q7 -7 9 -20t-1.5 -24t-12.5 -16t-23 6q-14 10 -33 24t-39 28.5t-39.5 28.5t-35 25.5t-24.5 18l-9 6.5q-7 7 -10 20.5t-1.5 27.5t7.5 26.5t17 17.5
q47 17 93 34q39 14 82 29.5t75 26.5q13 4 19.5 -3.5t6.5 -19.5t-7.5 -24.5t-23.5 -18.5z" />
    <glyph glyph-name="guillemotright" unicode="&#xbb;" horiz-adv-x="581" 
d="M257 70q24 9 51.5 18t56 18.5t56.5 19t52 18.5q-17 13 -45 33t-55 39q-32 22 -66 46q-8 7 -9.5 20t2 24t12.5 15.5t23 -5.5q21 -15 52 -37.5t59.5 -43.5t48.5 -35.5l20 -14.5q7 -7 10 -20.5t1.5 -27.5t-8 -26.5t-16.5 -17.5l-249 -90q-13 -5 -20 3t-7 20t7.5 25t23.5 19z
M82 90q24 9 51.5 18.5t56 19t56.5 19t52 18.5q-17 13 -45 33t-55 39q-32 22 -66 46q-8 7 -9.5 20t2 24t12.5 15.5t23 -5.5t33 -24t39 -28.5t39.5 -28.5t35 -25.5t24.5 -18l9 -6.5q7 -7 10 -20.5t1.5 -27.5t-8 -26.5t-16.5 -17.5q-48 -17 -94 -34q-39 -14 -81.5 -29.5
t-74.5 -26.5q-13 -5 -19.5 3t-6.5 20t7.5 24.5t23.5 18.5z" />
    <glyph glyph-name="guilsinglleft" unicode="&#x2039;" horiz-adv-x="390" 
d="M317 254q-24 -9 -52 -18.5t-56.5 -19t-56 -19t-51.5 -18.5q17 -14 45 -33.5t55 -38.5q32 -22 66 -46q7 -7 9 -20t-1.5 -24t-12.5 -16t-23 6q-14 10 -33 24t-39 28.5t-39.5 28.5t-35 25.5t-24.5 18l-9 6.5q-8 7 -10.5 20.5t-1 27.5t7.5 26.5t17 17.5l249 90q13 4 20 -3.5
t7 -19.5t-7.5 -24.5t-23.5 -18.5z" />
    <glyph glyph-name="guilsinglright" unicode="&#x203a;" horiz-adv-x="427" 
d="M82 70q24 9 51.5 18.5t56 19t56.5 19t52 18.5q-17 13 -45 33t-55 39q-32 22 -66 46q-8 7 -9.5 20t2 24t12.5 15.5t23 -5.5t33 -24t39 -28.5t39.5 -28.5t35 -25.5t24.5 -18l9 -6.5q7 -7 10 -20.5t1.5 -27.5t-8 -26.5t-16.5 -17.5l-249 -90q-13 -5 -20 3t-7 20t7.5 24.5
t23.5 18.5z" />
    <glyph glyph-name="greater" unicode="&#x3e;" horiz-adv-x="429" 
d="M82 70q24 9 51.5 18.5t56 19t56.5 19t52 18.5q-17 13 -45 33t-55 39q-32 22 -66 46q-8 7 -9.5 20t2 24t12.5 15.5t23 -5.5t33 -24t39 -28.5t39.5 -28.5t35 -25.5t24.5 -18l9 -6.5q7 -7 10 -20.5t1.5 -27.5t-8 -26.5t-16.5 -17.5l-249 -90q-13 -5 -20 3t-7 20t7.5 24.5
t23.5 18.5z" />
    <glyph glyph-name="less" unicode="&#x3c;" horiz-adv-x="416" 
d="M317 254q-24 -9 -52 -18.5t-56.5 -19t-56 -19t-51.5 -18.5q17 -14 45 -33.5t55 -38.5q32 -22 66 -46q7 -7 9 -20t-1.5 -24t-12.5 -16t-23 6q-14 10 -33 24t-39 28.5t-39.5 28.5t-35 25.5t-24.5 18l-9 6.5q-8 7 -10.5 20.5t-1 27.5t7.5 26.5t17 17.5l249 90q13 4 20 -3.5
t7 -19.5t-7.5 -24.5t-23.5 -18.5z" />
    <glyph glyph-name="plus" unicode="+" horiz-adv-x="457" 
d="M373 192q9 -4 14.5 -14t3.5 -21t-13.5 -19t-36.5 -8h-93q-3 -22 -5 -41t-4 -33q-2 -17 -3 -31q-3 -17 -13 -22t-21.5 -1.5t-20.5 14t-9 24.5l12 89h-108q-18 0 -24.5 10.5t-4 22.5t12.5 22.5t24 12.5h54.5t54.5 -1l15 108q0 2 1 4.5t2 4.5q5 8 15.5 12t20.5 0.5t16 -15
t3 -34.5q-2 -17 -4.5 -37.5t-5.5 -43.5h53.5t53.5 -1q4 0 10 -2z" />
    <glyph glyph-name="equal" unicode="=" horiz-adv-x="471" 
d="M373 101q9 -4 14.5 -14.5t3.5 -21t-13.5 -19t-36.5 -8.5h-165h-100q-18 0 -24.5 10.5t-4 22.5t12.5 22.5t24 12.5l279 -3q4 0 10 -2zM374 222q-33 0 -78 -0.5t-87 -0.5h-100q-18 0 -24.5 10.5t-4 22.5t12.5 22.5t24 12.5q70 0 139.5 -1t139.5 -2q12 0 20.5 -10t8.5 -22
t-11.5 -22t-39.5 -10z" />
    <glyph glyph-name="hyphen" unicode="-" horiz-adv-x="454" 
d="M363 195q16 0 22.5 -10t4 -22.5t-14.5 -22.5t-34 -10h-165q-48 0 -100 -1q-18 0 -24.5 10.5t-4 23t12.5 23t24 12.5l279 -3v0z" />
    <glyph glyph-name="endash" unicode="&#x2013;" horiz-adv-x="438" 
d="M363 195q16 0 22.5 -10t4 -22.5t-14.5 -22.5t-34 -10h-165q-48 0 -100 -1q-18 0 -24.5 10.5t-4 23t12.5 23t24 12.5l279 -3v0z" />
    <glyph glyph-name="emdash" unicode="&#x2014;" horiz-adv-x="612" 
d="M532 193q16 0 22.5 -10t4 -22.5t-14.5 -22.5t-34 -10h-44t-60.5 0.5t-71 0.5h-74.5h-184q-18 0 -24.5 10.5t-4 23t12.5 23t24 12.5l448 -5v0z" />
    <glyph glyph-name="minus" unicode="&#x2212;" horiz-adv-x="480" 
d="M363 195q16 0 22.5 -10t4 -22.5t-14.5 -22.5t-34 -10h-165q-48 0 -100 -1q-18 0 -24.5 10.5t-4 23t12.5 23t24 12.5l279 -3v0z" />
    <glyph glyph-name="underscore" unicode="_" horiz-adv-x="538" 
d="M439 1q16 0 22.5 -10t4 -22.5t-14.5 -22.5t-34 -10h-41h-52t-58.5 -0.5t-59.5 -0.5q-69 -1 -146 -1q-18 0 -24.5 10.5t-4 23t12.5 23t24 12.5l371 -2v0z" />
    <glyph glyph-name="logicalnot" unicode="&#xac;" horiz-adv-x="440" 
d="M374 121q-13 -21 -33.5 -19.5t-28.5 15.5q-1 2 -1 6v8h-147h-89q-16 0 -21.5 10.5t-1 23t19.5 23t40 10.5l240 -3q17 1 25.5 -5.5t10 -17.5t-2.5 -24.5t-11 -26.5z" />
    <glyph glyph-name="asciitilde" unicode="~" horiz-adv-x="418" 
d="M337 192q7 3 11.5 -0.5t6.5 -9.5t1 -13.5t-4 -12.5q-19 -29 -40.5 -35.5t-45 -2t-48 15t-49 17.5t-49 4.5t-46.5 -24.5q-3 -3 -8.5 -0.5t-10 7.5t-7 10.5t-0.5 8.5q30 35 57 45.5t52 7.5t48 -14t45 -19t43.5 -7t43.5 22z" />
    <glyph glyph-name="multiply" unicode="&#xd7;" horiz-adv-x="346" 
d="M308 421q-23 -47 -46 -93t-46 -93q3 -24 6.5 -59t7.5 -66.5t6.5 -53.5l2.5 -22q2 -18 -6 -26t-19.5 -8t-21.5 7.5t-13 21.5l-12 108q-9 -18 -19.5 -38t-19 -37.5t-15 -29.5t-8.5 -14q-8 -10 -20.5 -14.5t-22.5 -2.5t-14 11t4 26l11.5 22t28 53.5t34 66.5t30.5 60l-18 177
q-3 28 5.5 39t19.5 10.5t21 -9.5t12 -22q3 -21 5 -46.5t4 -48.5q8 17 17 35l16.5 33t12.5 25.5t7 12.5q9 12 21.5 17t22 2t12.5 -14t-6 -30z" />
    <glyph glyph-name="plusminus" unicode="&#xb1;" horiz-adv-x="480" 
d="M391 294q9 -4 14.5 -14t3.5 -21t-13.5 -19t-36.5 -8h-93q-3 -22 -5 -41t-4 -33q-2 -17 -3 -31q-3 -17 -13 -22t-21.5 -1.5t-20.5 14t-9 24.5l12 89h-108q-18 0 -24.5 10.5t-4 22.5t12.5 22.5t24 12.5h54.5t54.5 -1l15 108q0 2 1 4.5t2 4.5q5 8 15.5 12t20.5 0.5t16 -15
t3 -34.5q-2 -17 -4.5 -37.5t-5.5 -43.5h53.5t53.5 -1q4 0 10 -2zM351 65l-279 3q-14 -2 -24 -12.5t-12.5 -23t4 -23t24.5 -10.5q52 1 100 1h165q22 0 34 10t14.5 22.5t-4 22.5t-22.5 10z" />
    <glyph glyph-name="currency" unicode="&#xa4;" horiz-adv-x="383" 
d="M246 186q2 -12 6.5 -33t8.5 -42.5t6.5 -38.5t2.5 -21q-1 -12 -8 -25t-16 -20t-17.5 -5.5t-11.5 17.5v-1q-5 32 -10 63.5t-11 63.5h-20.5t-20.5 -1l-67 -129l1 1q-9 -16 -18 -15t-15.5 11t-8.5 25t4 27q13 26 29.5 55.5t30.5 55.5l14 25q1 2 4.5 12.5t7 23.5t7 25t4.5 17
q-5 33 -10.5 65t-11.5 64q-2 13 4 26t15 21t18.5 7.5t12.5 -15.5q5 -17 8.5 -39t7.5 -39q2 -11 4 -21.5t4 -21.5h19.5t19.5 -1q14 28 29 55t30 55q6 11 14 21.5t19 1.5q10 -7 15 -22.5t-3 -29.5q-18 -35 -36 -68t-35 -68zM201 206l17 55h-22l-18 -54q6 -1 11.5 -1h11.5z" />
    <glyph glyph-name="mu" unicode="&#xb5;" horiz-adv-x="327" 
d="M279 370q-2 -12 -7 -40t-11 -63.5t-12.5 -73.5t-12.5 -70.5t-10.5 -55t-5.5 -26.5q-6 -13 -18 -17.5t-26 -6.5l-28 -4t-24 -9q-2 -10 -4.5 -25.5t-5.5 -31t-5.5 -27t-3.5 -14.5q-5 -10 -16 -16t-21 -5t-16.5 9t-3.5 25q15 84 29 164q6 34 12.5 70.5t13 72.5t12 69.5
t10.5 60.5q5 28 16 40.5t22.5 12.5t19 -11.5t4.5 -29.5q-4 -25 -9 -52.5t-9 -53.5l-30 -171q8 -8 13.5 -12t14.5 -2q11 57 21 111.5t19 111.5q1 5 3 18.5t4.5 28.5t5.5 28t5 17q7 12 17.5 17t19.5 3t14.5 -12.5t2.5 -29.5z" />
    <glyph glyph-name="paragraph" unicode="&#xb6;" horiz-adv-x="833" 
d="M346 679q-32 -161 -62.5 -320t-62.5 -319q-5 -21 -16.5 -30.5t-22.5 -9.5t-18.5 9t-4.5 26l6.5 32t17 84.5l24 120l27.5 137.5t27 137.5t23 119.5q-12 2 -26.5 3t-24.5 -1q-31 -158 -61 -314t-62 -314q-5 -21 -16.5 -30.5t-22.5 -9.5t-18.5 9t-4.5 26l4.5 21.5t12 57
t16.5 81t18.5 93t18.5 93.5t16 81q-11 39 -10 81.5t10 81.5t28.5 61.5t44 33t50.5 10t46.5 -7t33 -18.5t9.5 -25z" />
    <glyph glyph-name="six" unicode="6" horiz-adv-x="339" 
d="M296 570q2 13 2.5 27t-1 27.5t-6.5 25t-15 19.5q-13 10 -27 1t-27 -25.5t-23.5 -35.5t-15.5 -31q-20 -44 -42.5 -112t-39.5 -141q9 19 20.5 36t25.5 30t29.5 20t32.5 5q22 -3 33 -16.5t20 -33.5q8 -27 9 -50t-3 -53q-4 -29 -13.5 -65.5t-24 -71.5t-34 -64.5t-42.5 -44.5
q-24 -17 -46.5 -17t-40 12t-29 35t-14.5 53q-3 34 2 87.5t17 115t30.5 125.5t41 120.5t48.5 99.5t54 63q26 18 47.5 18t37.5 -13t25.5 -37t10.5 -54v-16t-0.5 -21t-2.5 -20.5t-6 -14.5q-8 -11 -19.5 -8.5t-13.5 19.5v6zM89 262q-8 -48 -11.5 -90t1.5 -73q1 -10 5.5 -21.5
t10.5 -19t14.5 -9t19.5 7.5q13 11 27 34t26 52t21.5 61.5t13.5 62t1.5 53.5t-14.5 37q-8 9 -18 5t-20 -13.5t-18 -21.5t-12 -19q-5 -10 -7.5 -16.5t-5.5 -17.5v1q-6 -18 -17 -19.5t-17 6.5z" />
    <glyph glyph-name="zero" unicode="0" horiz-adv-x="312" 
d="M115 524q1 27 7.5 55.5t18 54.5t28.5 47.5t40 35.5q25 15 45 13t35.5 -15.5t26 -36t15.5 -49.5q9 -53 2.5 -127t-23.5 -151t-43 -147t-55 -115q-13 -20 -30 -40t-36.5 -33t-40.5 -15.5t-41 12.5q-24 18 -33 53t-8.5 78.5t9 93t20.5 96t25 87t23 66.5zM195 588
q-12 -21 -21.5 -41t-18.5 -42q0 -23 3 -36.5t10 -34.5q3 -12 -1.5 -21t-11.5 -12.5t-14 -1t-10 12.5l-5 17q-13 -38 -25 -81t-20 -86.5t-11.5 -84.5t1.5 -74q4 -29 13 -40t20 -9.5t23.5 13t24.5 27t22 32.5t16 29q14 28 27.5 66t25.5 81t21.5 89t14.5 89.5t5 83t-6 68.5
q-6 28 -17.5 38.5t-24.5 8t-26.5 -15.5t-24.5 -31q7 -4 10.5 -13.5t1.5 -21.5q0 -3 -2 -9z" />
    <glyph glyph-name="three" unicode="3" horiz-adv-x="343" 
d="M100 525v2q12 55 39 106.5t72 79.5q28 17 53.5 15.5t44 -18t27.5 -45t5 -64.5q-6 -56 -32.5 -108t-64.5 -87l-16 -14q19 -7 31 -24.5t17 -49.5q5 -34 -1.5 -76t-22 -82.5t-38 -75t-47.5 -55.5q-51 -41 -89 -25.5t-55 79.5q-3 10 1 18.5t11 12.5t14 1.5t11 -14.5
q9 -28 25.5 -39t42.5 6q7 5 11 9l10 10q15 19 29.5 48t25 60.5t14.5 62.5t-1 56q-5 20 -14.5 27.5t-22 7t-26.5 -6t-26 -11.5q-11 -5 -22 -5t-13 17q-1 9 2.5 15.5t9.5 12t13 9.5t13 8q27 18 50.5 36t43 40.5t33.5 51t22 66.5q3 12 4.5 28t-1 30t-9.5 23.5t-22 9.5
q-14 0 -28.5 -10t-28 -25t-24 -32t-16.5 -31q-7 -15 -10.5 -27.5t-6.5 -27.5q-3 -11 -9 -16.5t-12 -5.5t-11 5t-6 15q-1 4 0 7z" />
    <glyph glyph-name="four" unicode="4" horiz-adv-x="252" 
d="M312 692q-41 -165 -80.5 -327t-81.5 -326q-5 -16 -10 -24t-20 -13q-14 -5 -23.5 2.5t-4.5 25.5v-1q20 75 39 150l38 150q-14 -23 -29.5 -43.5t-31 -34.5t-31.5 -19.5t-30 2.5q-17 9 -21.5 31.5t-2 51.5t11 62.5t18.5 64.5t19.5 58t13.5 43q4 12 8 29.5t6.5 36t2 35.5
t-4.5 29q-5 -8 -9 -19t-7 -19v1q-5 -12 -12.5 -15.5t-13.5 -0.5t-9.5 11t0.5 19q4 13 10.5 28.5t15.5 27.5t20.5 17.5t25.5 -0.5q16 -7 24 -23.5t10.5 -37t1 -42t-5.5 -39.5q-7 -32 -20.5 -69t-26 -75t-21 -74.5t-5.5 -67.5l2 -8q2 2 3 2q16 13 35.5 39.5t37.5 57.5t33.5 62
t24.5 53q3 11 10 42.5t15.5 65.5t15 61.5t8.5 30.5q5 10 14.5 16.5t18.5 7t15 -6.5t4 -25q-1 -1 -1 -3z" />
    <glyph glyph-name="nine" unicode="9" horiz-adv-x="340" 
d="M65 159q-2 -13 -2.5 -27t1.5 -27.5t7 -25.5t15 -19q12 -10 26 -1t27 25.5t23.5 35.5t16.5 31q20 44 42 112t39 141q-9 -19 -20.5 -36t-25.5 -30t-29.5 -20t-32.5 -5q-21 3 -32 16.5t-21 33.5q-8 27 -9 50t4 53q4 29 13.5 65.5t23.5 71.5t33.5 64.5t42.5 44.5
q24 16 46.5 16.5t40.5 -11.5t29.5 -35t14.5 -53q3 -35 -2.5 -88t-17.5 -114.5t-30 -125.5t-40.5 -120.5t-49 -100t-54.5 -62.5q-26 -18 -47.5 -18t-37.5 13t-25.5 37t-10.5 54v16t1 21t3 20.5t5 14.5q8 11 20 8.5t13 -19.5q1 -3 0 -6zM273 467q8 48 11.5 90t-1.5 73
q-2 10 -6 21.5t-10.5 19t-15 9t-18.5 -7.5q-13 -11 -27 -34t-26 -52t-21.5 -61.5t-13.5 -62t-1.5 -53.5t14.5 -37q7 -9 17 -5t20 13.5t18 21.5t12 19q5 10 8 16.5t6 17.5v-1q5 18 16.5 19.5t17.5 -6.5z" />
    <glyph glyph-name="two" unicode="2" horiz-adv-x="299" 
d="M87 530q10 28 25 58t33.5 57t41.5 47.5t49 28.5q23 7 40 1.5t28.5 -20t17.5 -36t7 -46.5q1 -60 -22 -132t-59.5 -146t-80 -143t-83.5 -123q17 5 34.5 4.5t42.5 -7.5q12 -3 20 -3.5t14 2.5t11 11t12 22q8 16 18.5 11.5t15.5 -19.5q6 -19 2.5 -30.5t-14.5 -28.5
q-19 -30 -39 -35.5t-40.5 -1t-42 12.5t-43.5 6q-16 -2 -27.5 -6t-26.5 -12q-9 -4 -16 0.5t-11.5 12.5t-4.5 17.5t6 16.5q17 22 31.5 40t30.5 42q19 27 42.5 64.5t48.5 81.5t48 91.5t40 94t26.5 89t6.5 76.5q-3 31 -16.5 35t-30 -6t-32.5 -28t-25 -30q-16 -23 -24.5 -41
t-18.5 -43q-4 -10 -10.5 -14t-13 -2.5t-10.5 7.5t-3 17q0 2 0.5 3.5t0.5 3.5h1z" />
    <glyph glyph-name="seven" unicode="7" horiz-adv-x="219" 
d="M39 670q1 0 1 1q10 14 21 26t22 18.5t24 6t28 -10.5q11 -8 20 -17t18.5 -15t21 -7.5t27.5 5.5q11 4 21.5 12t20 16t17.5 14.5t15 8.5q19 6 26.5 -11.5t-8.5 -40.5q-47 -66 -81 -147t-61 -161q6 1 12.5 3.5t15.5 9.5q9 8 16 5.5t10.5 -10t2.5 -17.5t-9 -17
q-17 -15 -32.5 -20.5t-33.5 -4.5q-23 -72 -43.5 -146.5t-34.5 -149.5v1q-3 -13 -12.5 -18t-19 -3.5t-16.5 8.5t-5 18q14 74 34.5 149.5t43.5 147.5q-12 1 -21.5 -3t-23.5 -15l1 1q-9 -9 -16.5 -5.5t-11.5 12.5t-3 20t9 18q23 20 41.5 24.5t41.5 0.5q23 64 48 126t56 122
q-25 -8 -45 -1.5t-46 26.5q-21 16 -30 12.5t-27 -28.5q-7 -9 -14.5 -9.5t-13.5 4.5t-9 13.5t-1 17.5q0 4 3 9v1z" />
    <glyph glyph-name="eight" unicode="8" horiz-adv-x="305" 
d="M188 383q-12 33 -22.5 67t-15 69.5t-1.5 71t19 71.5q15 35 38 51.5t47 16t45.5 -18t33.5 -50.5q15 -38 15 -79.5t-10.5 -83t-29.5 -80.5t-43 -71l-1 -1q18 -57 20 -109.5t-26 -114.5q-12 -27 -30.5 -51.5t-40.5 -41.5t-47.5 -24.5t-50.5 -2.5q-46 11 -61 63l-3 16
q-4 34 3.5 73.5t23 77.5t37 71t46.5 55q8 7 25 17t29 8zM183 330q-20 -7 -34.5 -23t-27.5 -36q-10 -16 -23 -45.5t-21.5 -61t-7.5 -59.5t20 -41q13 -9 27.5 -7.5t29 9t28 20t22.5 25.5q26 38 33 77.5t-3 82.5l-5 18q-8 -11 -18 -23t-19 -22.5t-16.5 -18t-11.5 -8.5
q-7 -2 -12.5 1t-8.5 9.5t-2 15t8 16.5v-1q18 19 33.5 38t31.5 40l-5 13q-3 -12 -13 -17q-4 -2 -5 -2zM247 392q16 25 29 52.5t21.5 56.5t10.5 58.5t-5 58.5q-3 12 -9 24.5t-14.5 21t-19.5 12t-24 -2.5q-18 -8 -26 -28t-10 -44t0.5 -47.5t5.5 -39.5q8 -32 19 -62z" />
    <glyph glyph-name="five" unicode="5" horiz-adv-x="312" 
d="M161 446q20 21 43.5 30.5t50.5 -3.5q29 -15 40 -48.5t10 -74t-10 -82t-19 -72.5q-12 -33 -31 -70.5t-44 -67.5t-55 -47t-63 -9q-24 6 -38 21t-19.5 36t-3 45.5t11.5 49.5q5 11 11.5 20.5t18.5 3.5q9 -4 10.5 -13t-2.5 -20l1 1q-12 -29 -9 -54.5t33 -31.5q22 -4 40.5 10
t33.5 36.5t26 48.5t19 47q7 19 15 50.5t13.5 64t5.5 61.5t-10 44q-5 8 -12.5 9.5t-15.5 -1.5t-15.5 -8.5t-13.5 -11.5q-9 -10 -19 -26.5t-20.5 -32.5t-20.5 -28t-19 -13q-12 -1 -15.5 9t-2.5 23.5t4 27.5t5 21q4 19 9.5 48t13.5 61.5t18 66.5t22.5 63.5t27 51.5t30.5 31
q14 7 32 10t37 3.5t37.5 -0.5t33.5 -1q9 0 13.5 -9.5t3.5 -20.5t-7 -21.5t-16 -11.5q-10 0 -27.5 1.5t-36.5 1t-35.5 -3.5t-23.5 -12q-10 -13 -19.5 -36t-17.5 -50.5t-15.5 -58t-13.5 -58.5z" />
    <glyph glyph-name="one" unicode="1" horiz-adv-x="179" 
d="M89 450q21 55 41.5 110.5t43.5 109.5q3 7 8 17.5t11.5 19t14 11.5t16.5 -4q10 -9 10.5 -32t-4 -50t-11 -53t-10.5 -40q-32 -131 -69 -262.5t-64 -264.5q-4 -13 -13.5 -17.5t-19 -3t-16 8.5t-4.5 19q24 118 55.5 230.5t62.5 227.5q-5 -11 -9 -22l-8 -22q-4 -9 -10.5 -12.5
t-13 -2t-11 8t-2.5 17.5z" />
    <glyph glyph-name="asciicircum" unicode="^" horiz-adv-x="375" 
d="M116 487q-9 -14 -23.5 -18t-26 -1t-17.5 11.5t2 19.5q19 27 44.5 64.5t48.5 72.5q27 40 56 83q7 9 21 11.5t28.5 0.5t26.5 -8t17 -15l9 -23t22 -55.5t27 -68t24 -60.5q6 -17 -0.5 -24.5t-18 -8t-24 4.5t-17.5 14q-15 39 -28 75q-11 31 -23.5 63t-20.5 52q-15 -21 -31 -45
t-32.5 -49.5t-32.5 -50t-31 -45.5z" />
    <glyph glyph-name="tilde" unicode="&#x2dc;" horiz-adv-x="305" 
d="M238 716q4 2 7 -1t4.5 -8t1 -11.5t-3.5 -10.5q-12 -24 -26.5 -30t-29.5 -2t-31.5 13t-32.5 15t-32 3.5t-31 -20.5q-2 -3 -5 -1t-6 6.5t-5 9.5t0 7q19 30 37 39t34.5 6.5t31.5 -12.5t29.5 -16.5t29 -5.5t28.5 19z" />
    <glyph glyph-name="asterisk" unicode="*" horiz-adv-x="362" 
d="M199 390q-2 2 -8.5 16.5t-13.5 30.5q-1 -4 -3.5 -13l-5 -18t-4 -15t-1.5 -4q-5 -17 -14.5 -20t-19 3.5t-15.5 19.5t-3 27q3 10 6 21q2 8 5 17.5t5 16.5q-5 -3 -15 -7.5t-19 -9t-15.5 -7.5t-4.5 -2q-14 -6 -20 2.5t-6 23t5.5 29.5t16.5 21l62 28l-33 79v-1q-6 15 0.5 26
t18 15.5t23.5 2.5t17 -14q3 -9 6.5 -18t7.5 -18q5 17 9 32.5t9 29.5t13.5 17t17 -0.5t15 -13t6.5 -19.5q0 -5 -6.5 -29t-13.5 -48q14 7 29 13.5t28 11.5q11 4 17 -3t7.5 -19t-1.5 -24.5t-10 -19.5q-2 -2 -10.5 -6.5t-19.5 -9.5t-23.5 -11t-22.5 -10q8 -20 16 -40.5t16 -40.5
q5 -13 0.5 -23.5t-13 -16.5t-19 -7t-16.5 5z" />
    <glyph glyph-name="ogonek" unicode="&#x2db;" horiz-adv-x="251" 
d="M156 -21q3 17 14 23t20 1.5t11.5 -19.5t-11.5 -41q-11 -20 -28.5 -30t-36.5 -11.5t-36.5 5t-29.5 20.5q-7 9 -9.5 20t-2.5 23.5t1.5 25.5t3.5 25q4 12 12 17.5t15.5 4.5t12.5 -7.5t3 -19.5q-3 -19 -4 -40t13 -31q6 -4 14 -4.5t15.5 3t13.5 12.5t9 23z" />
    <glyph glyph-name="dieresis" unicode="&#xa8;" horiz-adv-x="277" 
d="M246 712q6 -15 3 -35t-12 -35t-21 -21.5t-24 5.5q-8 8 -11 21.5t-1 27.5t7.5 27.5t14.5 21.5q12 11 24.5 7.5t19.5 -19.5zM113 712q6 -15 3 -35t-11.5 -35t-21 -21.5t-24.5 5.5q-8 8 -10.5 21.5t-1 27.5t7.5 27.5t15 21.5q12 11 24.5 7.5t18.5 -19.5z" />
    <glyph glyph-name="dotaccent" unicode="&#x2d9;" horiz-adv-x="163" 
d="M113 712q6 -15 3 -35t-11.5 -35t-21 -21.5t-24.5 5.5q-8 8 -10.5 21.5t-1 27.5t7.5 27.5t15 21.5q12 11 24.5 7.5t18.5 -19.5z" />
    <glyph glyph-name="periodcentered" unicode="&#xb7;" horiz-adv-x="237" 
d="M167 380q6 -15 3 -35t-11.5 -35t-21 -21.5t-24.5 5.5q-8 8 -10.5 21.5t-1 27.5t7.5 27.5t15 21.5q12 11 24.5 7.5t18.5 -19.5z" />
    <glyph glyph-name="ring" unicode="&#x2da;" horiz-adv-x="244" 
d="M117 621q11 4 16 17.5t4.5 26.5t-7 21.5t-19.5 4.5q-13 -5 -19 -18.5t-5.5 -27t8 -22t22.5 -2.5zM168 701q12 -27 4.5 -55.5t-25.5 -47t-41.5 -21t-44.5 21.5q-12 13 -14 33.5t5 40.5t21 36t34 21q17 5 35 -2.5t26 -26.5z" />
    <glyph glyph-name="bullet" unicode="&#x2022;" horiz-adv-x="305" 
d="M233 414q12 -27 4.5 -55.5t-25.5 -47t-41.5 -21t-44.5 21.5q-12 13 -14 33.5t5 40.5t21 36t34 21q17 5 35 -2.5t26 -26.5z" />
    <glyph glyph-name="breve" unicode="&#x2d8;" horiz-adv-x="242" 
d="M156 703q3 17 14.5 23.5t20.5 2t11 -19.5t-12 -41q-11 -20 -28.5 -30.5t-36.5 -12t-36.5 5t-29.5 20.5q-9 12 -11 26.5t1 31.5q4 12 11.5 17.5t15 5t12.5 -7.5t3 -19q-3 -17 5.5 -27.5t20.5 -12t23.5 7t15.5 30.5z" />
    <glyph glyph-name="acute" unicode="&#xb4;" horiz-adv-x="263" 
d="M194 689q-9 -13 -22 -25t-28 -22t-31 -18t-30 -12q-17 -5 -27.5 -1.5t-8.5 21.5q3 16 16.5 33t32.5 31t41 23.5t40 11.5q18 3 25 -8t-8 -34z" />
    <glyph glyph-name="grave" unicode="`" horiz-adv-x="269" 
d="M64 689q-15 23 -8 34t25 8q18 -2 40 -11.5t41 -23.5t32.5 -31t16.5 -33q2 -18 -8.5 -21.5t-27.5 1.5q-14 4 -30 12t-31 18t-28 22t-22 25z" />
    <glyph glyph-name="hungarumlaut" unicode="&#x2dd;" horiz-adv-x="422" 
d="M194 689q-9 -13 -22 -25t-28 -22t-31 -18t-30 -12q-17 -5 -27.5 -1.5t-8.5 21.5q3 16 16.5 33t32.5 31t41 23.5t40 11.5q18 3 25 -8t-8 -34zM374 689q-9 -13 -22 -25t-28 -22t-31 -18t-30 -12q-17 -5 -27.5 -1.5t-8.5 21.5q3 16 16.5 33t32.5 31t41 23.5t40 11.5
q18 3 25 -8t-8 -34z" />
    <glyph glyph-name="quotesingle" unicode="'" horiz-adv-x="143" 
d="M121 714q4 -14 2.5 -32.5t-7 -37t-14 -34.5t-17.5 -23q-18 -15 -29 -2t-9 38q1 12 6 32.5t13 38.5t19 29.5t24 7.5q4 -2 7.5 -6.5t4.5 -10.5z" />
    <glyph glyph-name="quotedbl" unicode="&#x22;" horiz-adv-x="297" 
d="M121 714q4 -14 2.5 -32.5t-7 -37t-14 -34.5t-17.5 -23q-18 -15 -29 -2t-9 38q1 12 6 32.5t13 38.5t19 29.5t24 7.5q4 -2 7.5 -6.5t4.5 -10.5zM261 714q4 -14 2.5 -32.5t-7 -37t-14 -34.5t-17.5 -23q-18 -15 -29 -2t-9 38q1 12 6 32.5t13 38.5t19 29.5t24 7.5
q4 -2 7.5 -6.5t4.5 -10.5z" />
    <glyph glyph-name="caron" unicode="&#x2c7;" horiz-adv-x="289" 
d="M96 720q20 -25 38 -44q8 7 18 15.5t19.5 16t17 13t10.5 6.5q11 3 20 1t13.5 -7t3.5 -13.5t-11 -17.5q3 2 -8.5 -8.5t-28 -24t-33 -25t-23.5 -12.5q-9 -1 -18.5 5.5t-18.5 15.5t-17 18.5t-12 15.5q-19 24 -19 36.5t9 17t21.5 2t18.5 -10.5z" />
    <glyph glyph-name="circumflex" unicode="&#x2c6;" horiz-adv-x="251" 
d="M170 638q-20 25 -38 44q-8 -7 -18 -15.5t-19.5 -16t-17 -13t-10.5 -6.5q-11 -3 -20 -1t-13.5 7t-3.5 13.5t11 17.5q-3 -2 8.5 8t28 23.5t32.5 25.5t24 13q9 1 18.5 -5.5t18.5 -15.5t16.5 -18.5t12.5 -15.5q19 -24 19 -37t-9 -17.5t-21.5 -1.5t-18.5 11z" />
    <glyph glyph-name="cedilla" unicode="&#xb8;" horiz-adv-x="310" 
d="M217 -69q-11 -20 -28.5 -30t-36.5 -11.5t-36.5 5t-29.5 20.5q-18 22 -10 58q4 12 11.5 17.5t15 5t12.5 -7.5t3 -19q-2 -15 3.5 -25t15 -13.5t20 -0.5t18.5 15q5 8 4.5 11.5t-10.5 5.5q-10 1 -15 10t-5.5 21.5t4 25.5t14.5 22q13 11 20 6.5t0 -20.5q-7 -17 -7 -25.5
t3.5 -12t10 -3t13.5 0.5q14 1 18.5 -4.5t4 -14.5t-4.5 -19.5t-8 -17.5z" />
    <glyph glyph-name="threesuperior" unicode="&#xb3;" horiz-adv-x="251" 
d="M68 621q0 2 1 3q5 31 17.5 58t36.5 41q17 10 33.5 8.5t28.5 -13t17.5 -31.5t2.5 -46q-4 -29 -14 -49t-25 -36q13 -12 19 -36q6 -25 1 -56.5t-18.5 -58.5t-33 -44.5t-43.5 -13.5q-12 2 -23 13.5t-16.5 25t-4 25.5t13.5 16q13 4 21 -14v1q6 -16 14.5 -15.5t19.5 11.5
q6 8 11.5 21t9 27.5t4.5 28.5t-3 24q-4 11 -12.5 9t-18.5 -6.5t-19 -5t-14 13.5q-4 10 -1.5 17t8 12.5t12 9.5t11.5 7q21 15 38 35.5t19 55.5q0 18 -7 21t-16.5 -4t-19 -21t-12.5 -31l-2 -9h1q-4 -20 -17.5 -21t-18.5 15q-1 4 -1 11v1z" />
    <glyph glyph-name="onesuperior" unicode="&#xb9;" horiz-adv-x="189" 
d="M63 591q3 10 8.5 29.5t12.5 40.5l13 39t11 24q11 14 22.5 6t13.5 -27q1 -14 -1.5 -37.5t-7 -50t-9.5 -51t-8 -39.5q-8 -40 -15 -79t-12 -79q-3 -13 -11 -17.5t-15.5 -2.5t-13.5 9t-4 18q6 48 15 93.5t18 91.5q-7 0 -12.5 5.5t-5.5 16.5q-1 4 1 10z" />
    <glyph glyph-name="twosuperior" unicode="&#xb2;" horiz-adv-x="262" 
d="M77 628v1q6 18 14.5 37t20.5 34t26.5 24t31.5 7q18 -2 28 -15.5t14 -32.5t3 -40t-5 -39q-10 -47 -34.5 -98t-52.5 -95q9 0 21 -3q10 -2 12.5 -1.5t7.5 11.5q6 12 13.5 12t13.5 -7t8.5 -18t-1.5 -20q-7 -17 -14 -25t-15.5 -10.5t-19 -1t-22.5 5.5q-17 5 -25.5 4t-25.5 -8
q-8 -3 -14.5 0.5t-10.5 10.5t-4 16t5 16q29 38 51 77t41 87q4 10 9.5 26t9.5 33t5 32.5t-3 26.5q-2 5 -7 3t-10.5 -6.5t-10.5 -10t-6 -7.5q-8 -11 -11.5 -20t-8.5 -23q-3 -9 -8.5 -12.5t-11.5 -2.5t-10.5 6.5t-4.5 14.5q-2 5 0 10z" />
    <glyph glyph-name="ordmasculine" unicode="&#xba;" horiz-adv-x="477" 
d="M158 720q12 4 17 -15q10 10 21 14q29 12 53 5t38 -37q14 -28 15.5 -69t-7.5 -85q24 -3 44 3.5t35.5 19.5t26.5 30.5t18 37.5q2 8 4.5 14.5t4.5 12.5q1 3 5.5 4t9 0t8 -3t2.5 -5l-9 -27q-8 -24 -21.5 -45.5t-32.5 -37.5t-44.5 -24.5t-56.5 -5.5q-11 -38 -28.5 -71.5
t-41.5 -56.5q-26 -26 -55 -33.5t-55 0t-46 29t-28 53.5q-9 34 -3.5 79.5t22 88t43 77t61.5 47.5zM157 645q-13 -15 -24.5 -40t-20 -53.5t-13 -57t-3.5 -50.5q2 -20 7.5 -35.5t16.5 -18.5q17 -6 32 7.5t33 40.5q13 19 23.5 45.5t16.5 54.5q-30 14 -48 44.5t-20 62.5zM231 565
q2 10 2.5 19t1.5 17q0 20 -6 37.5t-17 25.5q-8 5 -14.5 1.5t-8.5 -14.5q-3 -19 7 -42t35 -44z" />
    <glyph glyph-name="degree" unicode="&#xb0;" horiz-adv-x="262" 
d="M79 621q0 29 7.5 54t26.5 42q25 22 49.5 12t36.5 -45q10 -29 11 -71t-6 -85t-19.5 -82t-28.5 -62q-19 -27 -38.5 -34.5t-35 2t-25.5 34.5t-10 62q0 43 9 88t23 85zM132 643q-5 -10 -8 -18t-7 -18l3 -13.5t5 -14.5q3 -10 1.5 -17.5t-6 -12t-10 -5.5t-10.5 3
q-5 -18 -8.5 -39t-5 -40.5t0 -36.5t7.5 -29q5 -10 12.5 -4t15 17.5t13 24.5t6.5 16q6 18 12.5 47.5t10 60.5t2.5 60t-8 47q-5 13 -12.5 12t-14.5 -10q3 -6 4 -14.5t-3 -15.5z" />
    <glyph glyph-name="ordfeminine" unicode="&#xaa;" horiz-adv-x="502" 
d="M222 432q-16 -32 -35.5 -57t-42.5 -35q-29 -11 -52.5 -4t-38.5 36q-17 34 -16 85.5t16.5 103t44.5 93.5t68 57q32 12 59 1t39 -41q1 1 1 5q0 1 13.5 11.5t28 19.5t25 10t5.5 -17q-3 -12 -11.5 -44t-17 -73t-15.5 -85t-7 -80q0 -27 6 -36t15 -10q17 -2 38.5 17t35.5 43
q17 29 32 64.5t27 67.5l27 77q1 3 5.5 4t9 0t8 -3t2.5 -5q-5 -16 -12 -35.5t-15 -41.5q-12 -34 -27 -70.5t-33 -68.5q-24 -42 -54.5 -65.5t-60.5 -22.5q-25 1 -45.5 19.5t-22.5 60.5v19zM243 584q2 55 -14.5 69.5t-51.5 -7.5q-13 -9 -25.5 -30t-22.5 -48t-16.5 -56t-6.5 -53
q-1 -27 9.5 -48.5t30.5 -20.5q11 1 23 13t23 30.5t21 41t18 45.5q5 34 12 64z" />
    <glyph glyph-name="registered" unicode="&#xae;" horiz-adv-x="632" 
d="M421 728h2l13 -3q54 -12 90.5 -46.5t56.5 -82.5t24.5 -104.5t-5.5 -113.5t-34.5 -109.5t-62.5 -92.5t-89 -63t-114 -20q-83 4 -138.5 42.5t-85 96.5t-31.5 129.5t22 141.5q20 58 54 104t79.5 76t100.5 42t118 3zM418 703q-58 9 -109 -2t-93 -39t-73.5 -70.5t-50.5 -96.5
q-22 -64 -20.5 -129.5t27.5 -119.5t77 -89t127 -39q58 -3 104.5 18t81 58t57.5 86t32.5 101.5t5.5 105t-22 96.5t-50.5 75.5t-80.5 42.5zM174 210q8 28 22.5 77.5t29.5 105.5t27.5 110.5t15.5 92.5q-12 -8 -22 -17.5t-18 -19.5q-5 -6 -11.5 -1t-1.5 11q11 13 24 25t29 22
q0 14 -4 19t-9 6q-11 2 -24.5 -10.5t-21.5 -27.5q-9 -16 -17.5 -34.5t-15.5 -37t-12.5 -34t-8.5 -25.5q0 -2 -3 -2.5t-6 0t-5 2t-1 3.5q8 24 21.5 63t32.5 72q15 26 34 40.5t38 14.5q11 -1 22 -7.5t16 -20.5q25 11 50.5 16.5t48.5 1.5q29 -5 48.5 -24t27 -46t3 -58.5
t-22 -62t-48.5 -57t-77 -42.5q19 -17 35.5 -39.5t29 -47.5t20.5 -50t10 -48q0 -4 -5.5 -7.5t-12 -5.5t-12.5 -1.5t-6 4.5q-2 24 -8.5 50.5t-17.5 52t-26 47.5t-35 37q-24 -6 -53 -9q-11 -37 -20 -68.5t-15 -54.5l-8 -7t-17.5 -12.5t-16 -6t-3.5 10.5zM309 619v-4
q2 -38 -11 -97t-30 -121q14 1 24 -2.5t17 -8.5q56 19 87.5 56.5t40 77t-5 71.5t-47.5 40q-17 4 -36 0.5t-39 -12.5z" />
    <glyph glyph-name="copyright" unicode="&#xa9;" horiz-adv-x="638" 
d="M421 728h2l13 -3q54 -12 90.5 -46.5t56.5 -82.5t24.5 -104.5t-5.5 -113.5t-34.5 -109.5t-62.5 -92.5t-89 -63t-114 -20q-83 4 -138.5 42.5t-85 96.5t-31.5 129.5t22 141.5q20 58 54 104t79.5 76t100.5 42t118 3zM418 703q-58 9 -109 -2t-93 -39t-73.5 -70.5t-50.5 -96.5
q-22 -64 -20.5 -129.5t27.5 -119.5t77 -89t127 -39q58 -3 104.5 18t81 58t57.5 86t32.5 101.5t5.5 105t-22 96.5t-50.5 75.5t-80.5 42.5zM197 189q-27 26 -35 74t0 104t30 113t56 101t78.5 67.5t96.5 12.5q2 4 7.5 3t11 -5t9 -10t1.5 -11q-7 -18 -12 -36.5t-12 -36.5
q-2 -5 -7 -4t-10 5t-8 10.5t-1 11.5q6 14 8.5 28t6.5 28q-37 2 -71 -22.5t-62 -65t-48 -91t-29 -99t-4 -89.5t26 -63q14 -14 34 -15t40 6q47 16 76.5 53.5t48.5 87.5l16 46q2 4 9.5 3t6.5 -5l-17 -49q-11 -29 -25 -57t-33 -51t-44 -40t-57 -24q-24 -5 -47 -1t-40 21z" />
    <glyph glyph-name="trademark" unicode="&#x2122;" horiz-adv-x="813" 
d="M78 194q8 29 23 79t30.5 107.5t28.5 114.5t18 99q-25 -5 -47.5 -6.5t-41.5 3.5q-17 4 -27 13.5t-13.5 21t0.5 24.5t17 24q9 9 23.5 14t31.5 7q18 2 35.5 -0.5t32.5 -10t24.5 -20.5t10.5 -32q28 9 57 21.5t55.5 26t50 27t41.5 24.5q4 2 7.5 0.5t5.5 -4.5t2 -7t-4 -6
q-19 -12 -43.5 -26t-53 -28.5t-59 -28.5t-60.5 -24q-3 -40 -15 -94.5t-27 -110.5t-30.5 -107t-24.5 -84l-9 -7.5t-18.5 -13.5t-16.5 -7t-4 11zM313 195q6 21 15.5 54.5t21 73t23 83t21 84t15.5 76.5t6 61q0 19 -4 25t-11 7q-11 2 -25.5 -11.5t-23.5 -29.5q-10 -17 -19 -37
t-16.5 -39.5t-13 -36.5t-9.5 -27q-2 -5 -10 -3.5t-7 5.5q5 13 11 31t13.5 37.5t16 39.5t18.5 37q16 29 36.5 44.5t40.5 15.5q17 -1 31 -13t15 -41q1 -14 -1 -30.5t-5 -35.5q5 10 8.5 19.5t7.5 19.5q4 9 11 23.5t16 27.5t20.5 19.5t24.5 -2.5q15 -11 20.5 -39.5t5 -66
t-5.5 -79t-11 -77.5q14 33 32 70t37 72.5t38.5 64.5t37.5 45q8 8 20 12t22 2q5 -2 10 -7t2 -13q-7 -24 -17 -58t-20.5 -72t-21 -78.5t-19 -78.5t-14 -71.5t-5.5 -56.5q0 -18 4 -24t10 -7t12.5 2.5t13.5 9t13 13.5t11 16q10 17 18.5 37t16 39.5t13.5 36l10 27.5q1 2 3.5 2.5
t5.5 0t5.5 -2t1.5 -3.5q-5 -13 -10.5 -31t-13 -37.5t-16 -39t-18.5 -37.5q-16 -29 -36.5 -44.5t-40.5 -14.5q-17 0 -31 12.5t-15 41.5q-1 35 9.5 89t26 112.5t31.5 113.5t27 93q-20 -20 -44.5 -61t-47 -86t-40.5 -85t-26 -59q-1 -3 -3.5 -10t-5.5 -14q-7 -15 -15.5 -15
t-4.5 17q8 32 13.5 65.5t10.5 66.5q1 8 3 24.5t3.5 36.5t2 41.5t-1 40t-5.5 32t-12 17.5q-6 3 -13 -4.5t-13 -18t-11 -22t-7 -15.5q-24 -56 -43.5 -119.5t-36.5 -122.5q-10 -32 -20 -68.5t-23 -68.5q-2 -8 -11 -16.5t-18.5 -13t-16 -3.5t-3.5 10zM180 621q0 4 1 6
q0 24 -18.5 35t-41.5 9q-20 -1 -32 -10t-12.5 -19t12.5 -18t44 -8q21 -1 47 5z" />
    <glyph glyph-name="period" unicode="." horiz-adv-x="251" 
d="M113 93q6 -15 3 -35t-11.5 -35t-21 -21.5t-24.5 5.5q-8 8 -10.5 21.5t-1 27.5t7.5 27.5t15 21.5q12 11 24.5 7.5t18.5 -19.5z" />
    <glyph glyph-name="colon" unicode=":" horiz-adv-x="250" 
d="M154 365q6 -15 3 -35t-11.5 -35.5t-21 -22t-24.5 5.5q-9 8 -11 22.5t0.5 30t9.5 29.5t17 20q11 7 21.5 3t16.5 -18zM112 93q6 -15 3 -34.5t-11.5 -34.5t-21 -21.5t-24.5 4.5q-8 8 -10.5 21.5t-1 27.5t7.5 27.5t15 21.5q12 11 24.5 7.5t18.5 -19.5z" />
    <glyph glyph-name="semicolon" unicode=";" horiz-adv-x="250" 
d="M110 97q6 -11 5.5 -25.5t-4 -30t-9 -29.5t-11.5 -24q-6 -11 -17 -19.5t-21 2.5q-7 8 -4 19t5 23q-6 9 -7.5 22.5t1 27t8.5 25t14 18.5q11 9 22 7t18 -16zM153 366q7 -15 4 -35t-11.5 -35.5t-21 -22t-24.5 5.5q-9 8 -11.5 22.5t0 30t9.5 29t18 19.5q11 8 21.5 4t15.5 -18z
" />
    <glyph glyph-name="comma" unicode="," horiz-adv-x="232" 
d="M110 97q6 -11 5.5 -25.5t-4 -30t-9 -29.5t-11.5 -24q-6 -11 -17 -19.5t-21 2.5q-7 8 -4 19t5 23q-6 9 -7.5 22.5t1 27t8.5 25t14 18.5q11 9 22 7t18 -16z" />
    <glyph glyph-name="slash" unicode="/" horiz-adv-x="414" 
d="M467 678q-8 -15 -27.5 -51t-46 -84.5t-57 -105.5t-62 -114.5t-61 -111t-53 -96t-38.5 -69t-18 -29.5q-8 -9 -20.5 -13.5t-22.5 -3t-13.5 10t5.5 26.5l135 243q28 51 58 105t59 107.5t56 103t49 90.5q9 17 19.5 28t26.5 16q10 3 15.5 -0.5t6.5 -11.5t-2 -19t-9 -21z" />
    <glyph glyph-name="bar" unicode="|" horiz-adv-x="290" 
d="M285 733q-45 -192 -87 -382.5t-88 -381.5q-4 -17 -10 -25t-22 -13q-14 -5 -24.5 3.5t-5.5 28.5v-1q47 192 90 383.5t86 384.5q4 17 10 25.5t21 14.5q13 5 23 -2.5t8 -26.5l-1 -5v-3z" />
    <glyph glyph-name="backslash" unicode="\" horiz-adv-x="471" 
d="M45 678q-6 10 -9 21t-2 19t6 11.5t16 0.5q16 -5 26.5 -16t19.5 -28q22 -41 48.5 -90.5t56 -103t59.5 -107.5t58 -105l135 -243q9 -18 5.5 -26.5t-13.5 -10t-22.5 3t-20.5 13.5q-3 3 -18 29.5t-38.5 69t-53 96t-61 111t-62 114.5t-57 105.5t-46 84.5t-27.5 51z" />
    <glyph glyph-name="fraction" unicode="&#x2044;" horiz-adv-x="414" 
d="M463 676q-8 -15 -27.5 -51t-46 -84.5t-57 -105.5t-62 -114.5t-61 -111t-53 -96t-38.5 -69t-18 -29.5q-8 -9 -20.5 -13.5t-22.5 -3t-13.5 10t5.5 26.5l135 243q28 51 58 105t59 107.5t56 103t49 90.5q9 17 19.5 28t26.5 16q10 3 15.5 -0.5t6.5 -11.5t-2 -19t-9 -21z" />
    <glyph glyph-name="divide" unicode="&#xf7;" horiz-adv-x="412" 
d="M243 365q6 -15 3 -35t-11.5 -35.5t-21 -22t-24.5 5.5q-9 8 -11 22.5t0.5 30t9.5 29.5t17 20q11 7 21.5 3t16.5 -18zM201 93q6 -15 3 -34.5t-11.5 -34.5t-21 -21.5t-24.5 4.5q-8 8 -10.5 21.5t-1 27.5t7.5 27.5t15 21.5q12 11 24.5 7.5t18.5 -19.5zM347 218l-279 3
q-14 -2 -24 -12.5t-12.5 -23t4 -23t24.5 -10.5q52 1 100 1h165q22 0 34 10t14.5 22.5t-4 22.5t-22.5 10z" />
    <glyph glyph-name="Oslash" unicode="&#xd8;" horiz-adv-x="450" 
d="M436 678q-5 -11 -15.5 -30t-24.5 -45q13 -39 16.5 -91.5t-2.5 -110t-20.5 -117t-37 -111t-52.5 -91.5t-66 -59q-32 -17 -58 -21t-48 4q-23 8 -44 29l-11 -18q-8 -9 -20.5 -13.5t-22.5 -3t-13.5 10t5.5 26.5q4 6 8 14q4 7 9 16.5t12 21.5q-23 55 -27.5 131.5t9.5 157
t47.5 155.5t86.5 128q20 20 48.5 38t59 27t60 4.5t53.5 -29.5q8 11 16.5 18t20.5 11q10 3 15.5 -0.5t6.5 -11.5t-2 -19t-9 -21zM159 54q25 -6 58 8q29 12 54.5 43.5t45.5 75t34.5 95.5t22 104t8.5 101t-6 87l-88 -163q1 -2 1 -3.5t1 -2.5q2 -8 -2.5 -11.5t-10.5 -2.5
q-22 -41 -44.5 -82t-43.5 -79t-39.5 -72t-33.5 -61q17 -29 43 -37zM180 595q-32 -46 -53.5 -103t-32.5 -115.5t-11.5 -114.5t8.5 -101l164 297q-2 31 -1.5 67.5t7.5 68t21.5 53.5t40.5 24q10 0 20.5 -3t19.5 -11q4 6 7 12.5t6 11.5q-26 20 -54.5 17t-55 -19t-49 -39.5
t-37.5 -44.5zM323 644q-12 -2 -20 -15t-13 -32.5t-7.5 -43.5t-2.5 -48l71 128q-13 13 -28 11z" />
    <glyph glyph-name="oslash" unicode="&#xf8;" horiz-adv-x="335" 
d="M256 401l-46 -75q8 -27 8.5 -62.5t-7.5 -72.5q24 -3 44 3.5t35.5 19.5t26.5 30.5t18 37.5q2 8 4.5 14.5t4.5 12.5q1 3 5.5 4t9 0t8 -3t2.5 -5l-9 -27q-8 -24 -21.5 -45.5t-32.5 -37.5t-44.5 -24.5t-56.5 -5.5q-11 -38 -28.5 -71.5t-41.5 -56.5q-30 -29 -63 -35t-61 6
q-13 -21 -21.5 -34t-10.5 -15q-6 -6 -15.5 -9t-17.5 -2t-11 7t5 18q5 6 11 16q5 8 12 19t16 25q-21 22 -28 53q-9 34 -3.5 79.5t22 88t43 77t61.5 47.5q12 4 17 -15q10 10 21 14q22 9 42 7t34 -18l25 40q7 11 15 18.5t20 10.5q8 2 12 -0.5t4.5 -7.5t-1.5 -12t-7 -14zM73 303
q-13 -15 -24.5 -40t-20 -53.5t-13 -57t-3.5 -50.5q0 -4 0.5 -7t0.5 -7q20 32 42.5 67t45.5 73q-13 16 -19.5 35.5t-8.5 39.5zM101 96q13 19 23.5 45.5t16.5 54.5q-3 1 -9 5l-96 -153q17 -6 32 7.5t33 40.5zM128 322q-8 5 -14.5 1.5t-8.5 -14.5q-5 -26 13 -54l27 42
q-6 17 -17 25zM147 223v2q0 -1 -1 -2h1z" />
    <glyph glyph-name="cent" unicode="&#xa2;" horiz-adv-x="273" 
d="M236 421l-60 -98q5 -23 0 -53q-1 -4 -5.5 -12t-9 -14t-8 -7t-3.5 10v18t-1 16q-32 -51 -65 -105.5t-62 -99.5q10 -20 31 -25q35 -8 66 9.5t56.5 47t44 64t28.5 61.5l26 75q1 3 5.5 4t9 0t8 -3t2.5 -5l-27 -79q-12 -33 -33 -72.5t-49.5 -73.5t-64 -56.5t-76.5 -22.5
q-37 0 -63 20q-11 -17 -18 -28t-9 -13q-6 -6 -15.5 -9t-17.5 -2t-11 7t5 18q5 7 11 16q5 8 12 19t16 25q-13 24 -14 55q-2 38 6.5 80.5t25 80.5t41 67t56.5 41q23 9 44 5t36 -18l39 62q7 11 15 18.5t20 10.5q8 2 12 -0.5t4.5 -7.5t-1.5 -12t-7 -14zM85 313q-13 -8 -24.5 -27
t-21.5 -43.5t-16.5 -51.5t-8.5 -51l115 184q-16 7 -44 -11z" />
    <glyph glyph-name="Ccedilla" unicode="&#xc7;" horiz-adv-x="478" 
d="M241 -142q-11 -20 -28.5 -30t-36.5 -11.5t-36.5 5t-29.5 20.5q-18 22 -10 58q4 12 11.5 17.5t15 5t12.5 -7.5t3 -19q-2 -15 3.5 -25t15 -13.5t20 -0.5t18.5 15q5 8 4.5 11.5t-10.5 5.5q-15 2 -19.5 20t2.5 37q-26 1 -49.5 9t-42.5 27q-32 31 -47 83t-15 115t14 132.5
t40 136t63.5 125t84.5 99t102.5 59.5t118.5 6q4 7 13 4.5t17.5 -9t14 -16t2.5 -17.5q-11 -29 -19.5 -58t-19.5 -58q-3 -8 -11 -6.5t-15.5 8.5t-12 16.5t-1.5 17.5q8 23 12.5 45t10.5 45q-44 3 -85.5 -19t-79 -61.5t-69 -92.5t-55.5 -112t-38.5 -119.5t-17 -114.5t8 -98.5
t36.5 -70.5q22 -22 53.5 -23t64.5 10q74 24 122 84.5t77 139.5l27 75q1 3 5 4t8.5 0t8 -3t2.5 -5q-7 -20 -13 -39t-14 -39q-17 -46 -39.5 -90.5t-53 -81.5t-70.5 -64t-91 -39l-15 -3q-5 -15 -4.5 -22t4.5 -10t10.5 -2.5t12.5 0.5q14 1 18.5 -4.5t4 -14.5t-4.5 -19.5
t-8 -17.5z" />
    <glyph glyph-name="ccedilla" unicode="&#xe7;" horiz-adv-x="273" 
d="M82 -84q-11 -20 -28.5 -30t-36.5 -11.5t-36.5 5t-29.5 20.5q-18 22 -10 58q4 12 11.5 17.5t15 5t12.5 -7.5t3 -19q-2 -15 3.5 -25t15 -13.5t20 -0.5t18.5 15q5 8 4.5 11.5t-10.5 5.5q-15 2 -19.5 20.5t2.5 36.5q-29 8 -49.5 33.5t-22.5 70.5q-2 38 6.5 80.5t25 80.5
t41 67t56.5 41q23 9 44 5.5t35.5 -17.5t21.5 -38t1 -57q-1 -4 -5.5 -12t-9 -14t-8 -7t-3.5 10q6 112 -65 66q-14 -9 -26.5 -30t-22.5 -48t-16 -56t-7 -53q-1 -35 10.5 -52.5t29.5 -22.5q35 -8 66 9.5t56.5 47t44 64t28.5 61.5l26 75q1 3 5.5 4t9 0t8 -3t2.5 -5l-27 -79
q-12 -33 -33 -72.5t-49.5 -73.5t-64 -56.5t-76.5 -22.5h-2q-4 -12 -3 -18.5t5 -8.5t10.5 -1.5t12.5 0.5q14 1 18.5 -4.5t4 -14.5t-4.5 -19.5t-8 -17.5z" />
    <glyph glyph-name="eth" unicode="&#xf0;" horiz-adv-x="434" 
d="M7 618q-9 3 -9 10t9 10q20 -2 40 -6q3 29 12.5 51.5t25.5 34.5t37 11t46 -18q28 -20 54.5 -63t49 -99.5t40.5 -120.5t30 -125.5t17.5 -115t2.5 -87.5q-3 -30 -14.5 -53t-29.5 -35t-40.5 -12t-46.5 17q-23 15 -42.5 44.5t-33.5 64.5t-23.5 71.5t-13.5 65.5q-5 30 -4 53
t9 50q10 20 21 33.5t32 16.5q17 2 32.5 -5t29.5 -20t25.5 -30t20.5 -36q-17 73 -39 141t-42 112q-6 12 -16.5 31t-23.5 35.5t-27 25.5t-26 -1q-19 -15 -22 -46q22 -5 27 -5q11 -2 11 -10t-11 -10q-8 1 -14.5 1.5t-13.5 2.5q0 -8 0.5 -16t1.5 -16q1 -3 0 -6q-1 -17 -13 -19.5
t-20 8.5q-5 8 -7.5 26t-2.5 32q-10 2 -19.5 4t-19.5 3zM297 262q-6 -8 -17.5 -6.5t-16.5 19.5v-1q-3 11 -6 17.5t-8 16.5q-4 7 -12 19t-18 21.5t-20 13.5t-17 -5q-17 -20 -15 -62.5t15.5 -90t34 -89t40.5 -58.5q10 -9 18.5 -7.5t15 9t10.5 19t6 21.5q5 31 1.5 73t-11.5 90z
" />
    <glyph glyph-name="Eth" unicode="&#xd0;" horiz-adv-x="591" 
d="M340 329q16 0 22.5 -10t4 -22.5t-14.5 -22.5t-34 -10h-106q-19 -66 -36 -124.5t-28 -98.5q0 -1 -13 -11.5t-27.5 -19.5t-25 -10.5t-5.5 16.5q11 39 30.5 105t40.5 143q-20 -1 -37 -1h-30h-28q-18 0 -24.5 10.5t-4 23t12.5 23t24 12.5l105 -1q12 47 23.5 93.5t20 89.5
t14 80t5.5 65q0 27 -6 36t-16 10q-8 1 -18 -3.5t-20 -13t-19.5 -20t-16.5 -23.5q-14 -25 -27 -55t-24.5 -59t-20 -54t-13.5 -41q-1 -3 -5.5 -4t-9 0t-8 3t-2.5 5q7 19 16 45.5t20 55.5t23.5 59t27.5 56q24 42 54 65.5t60 22.5q18 -1 35 -10.5t26 -30.5q34 22 63 31.5
t53.5 8.5t45 -11t37.5 -25q34 -32 53.5 -85t24 -118t-6 -136t-35 -138t-64.5 -125t-94 -97.5t-122 -54.5t-151 4q-6 1 -8 5.5t-1.5 9.5t4.5 8.5t10 2.5q66 -16 122 -1t101 52t79.5 90.5t56.5 115t32.5 125.5t8.5 122.5t-17 105.5t-43 74q-23 22 -58.5 24.5t-83.5 -20.5
q1 -2 1 -7q1 -29 -4 -67t-13.5 -81.5t-20 -90.5t-24.5 -95l109 -1v0z" />
    <glyph glyph-name="daggerdbl" unicode="&#x2021;" horiz-adv-x="411" 
d="M358 460h-97q-12 -54 -24 -107.5t-25 -107.5l106 -1q4 0 10 -2q9 -4 14.5 -14.5t3.5 -21t-13.5 -19t-36.5 -8.5h-99q-12 -53 -24 -105t-25 -105q-4 -17 -10 -25t-22 -13q-14 -5 -24.5 3.5t-5.5 28.5v-1l51 217h-106q-18 0 -24.5 10.5t-4 22.5t12.5 22.5t24 12.5l114 -1
l49 214q-22 -1 -41.5 -1h-34.5h-33q-18 0 -24.5 10.5t-4 22.5t12.5 22.5t24 12.5h58t58 -1l45 204q4 17 10 25.5t21 14.5q13 5 23 -2.5t8 -26.5l-1 -5v-3l-48 -208q26 0 52.5 -0.5t52.5 -0.5q12 0 20.5 -10t8.5 -22t-11.5 -22t-39.5 -10z" />
    <glyph glyph-name="dagger" unicode="&#x2020;" horiz-adv-x="373" 
d="M320 460h-97q-28 -124 -56 -246t-57 -245q-4 -17 -10 -25t-22 -13q-14 -5 -24.5 3.5t-5.5 28.5v-1q30 125 58.5 248.5t57.5 249.5q-22 -1 -41.5 -1h-34.5h-33q-18 0 -24.5 10.5t-4 22.5t12.5 22.5t24 12.5h58t58 -1l45 204q4 17 10 25.5t21 14.5q13 5 23 -2.5t8 -26.5
l-1 -5v-3l-48 -208q26 0 52.5 -0.5t52.5 -0.5q12 0 20.5 -10t8.5 -22t-11.5 -22t-39.5 -10z" />
    <glyph glyph-name="ellipsis" unicode="&#x2026;" horiz-adv-x="568" 
d="M113 93q6 -15 3 -35t-11.5 -35t-21 -21.5t-24.5 5.5q-8 8 -10.5 21.5t-1 27.5t7.5 27.5t15 21.5q12 11 24.5 7.5t18.5 -19.5zM305 93q6 -15 3 -35t-11.5 -35t-21 -21.5t-24.5 5.5q-8 8 -10.5 21.5t-1 27.5t7.5 27.5t15 21.5q12 11 24.5 7.5t18.5 -19.5zM497 93
q6 -15 3 -35t-11.5 -35t-21 -21.5t-24.5 5.5q-8 8 -10.5 21.5t-1 27.5t7.5 27.5t15 21.5q12 11 24.5 7.5t18.5 -19.5z" />
    <glyph glyph-name="quotedblbase" unicode="&#x201e;" horiz-adv-x="379" 
d="M112 97q6 -11 5.5 -25.5t-4 -30t-9 -29.5t-11.5 -24q-6 -11 -17 -19.5t-21 2.5q-7 8 -4 19t5 23q-6 9 -7.5 22.5t1 27t8.5 25t14 18.5q11 9 22 7t18 -16zM245 97q6 -11 5.5 -25.5t-4 -30t-9 -29.5t-11.5 -24q-6 -11 -17 -19.5t-21 2.5q-7 8 -4 19t5 23q-6 9 -7.5 22.5
t1 27t8.5 25t14 18.5q11 9 22 7t18 -16z" />
    <glyph glyph-name="quotesinglbase" unicode="&#x201a;" horiz-adv-x="205" 
d="M112 97q6 -11 5.5 -25.5t-4 -30t-9 -29.5t-11.5 -24q-6 -11 -17 -19.5t-21 2.5q-7 8 -4 19t5 23q-6 9 -7.5 22.5t1 27t8.5 25t14 18.5q11 9 22 7t18 -16z" />
    <glyph glyph-name="quotedblright" unicode="&#x201d;" horiz-adv-x="294" 
d="M111 716q6 -11 5.5 -25.5t-4 -30t-9 -29.5t-11.5 -24q-6 -11 -17 -19.5t-21 2.5q-7 8 -4 19t5 23q-6 9 -7.5 22.5t1 27t8.5 25t14 18.5q11 9 22 7t18 -16zM244 716q6 -11 5.5 -25.5t-4 -30t-9 -29.5t-11.5 -24q-6 -11 -17 -19.5t-21 2.5q-7 8 -4 19t5 23q-6 9 -7.5 22.5
t1 27t8.5 25t14 18.5q11 9 22 7t18 -16z" />
    <glyph glyph-name="quotedblleft" unicode="&#x201c;" horiz-adv-x="303" 
d="M186 596q-6 11 -5.5 25.5t4 30t9 29.5t11.5 24q6 11 17 19.5t21 -2.5q7 -8 4 -19t-5 -23q6 -9 7.5 -22.5t-1 -27t-8.5 -25t-14 -18.5q-11 -9 -22 -7t-18 16zM53 596q-6 11 -5.5 25.5t4 30t9 29.5t11.5 24q6 11 17 19.5t21 -2.5q7 -8 4 -19t-5 -23q6 -9 7.5 -22.5t-1 -27
t-8.5 -25t-14 -18.5q-11 -9 -22 -7t-18 16z" />
    <glyph glyph-name="quoteright" unicode="&#x2019;" horiz-adv-x="162" 
d="M111 716q6 -11 5.5 -25.5t-4 -30t-9 -29.5t-11.5 -24q-6 -11 -17 -19.5t-21 2.5q-7 8 -4 19t5 23q-6 9 -7.5 22.5t1 27t8.5 25t14 18.5q11 9 22 7t18 -16z" />
    <glyph glyph-name="quoteleft" unicode="&#x2018;" horiz-adv-x="171" 
d="M53 596q-6 11 -5.5 25.5t4 30t9 29.5t11.5 24q6 11 17 19.5t21 -2.5q7 -8 4 -19t-5 -23q6 -9 7.5 -22.5t-1 -27t-8.5 -25t-14 -18.5q-11 -9 -22 -7t-18 16z" />
    <glyph glyph-name="section" unicode="&#xa7;" horiz-adv-x="602" 
d="M522 661q-19 30 -40.5 41t-42.5 7t-39 -20.5t-30.5 -39.5t-18 -51t-0.5 -55q7 -39 28.5 -78.5t47.5 -80t51 -81.5t39 -83q15 -45 8 -91.5t-31 -84.5t-63 -62t-87 -24q10 -44 0 -88t-35.5 -79t-64 -56.5t-86.5 -19.5q-43 2 -79 25.5t-57.5 65.5t-25 100t19.5 130
q1 6 6 8.5t10 2t8 -4.5t2 -10q-16 -56 -15.5 -105t16.5 -86t46 -58t72 -21q35 0 61 18t42 45t21 60t-2 63q-11 42 -36.5 86t-53.5 88t-52 87t-31 84q-9 48 6 90t43.5 71t66 41t73.5 0q-4 11 -6.5 20.5t-4.5 20.5q-7 39 2 74.5t28 63t46.5 45.5t57 23t59.5 -5t54 -39l1 1
q3 8 10.5 6t15 -8.5t12.5 -16.5t2 -18q-11 -29 -16 -58t-16 -58q-3 -8 -12 -6.5t-18 8.5t-15 16.5t-3 17.5q8 20 14 39.5t12 39.5zM339 5q35 0 61 18t42 45t21 60t-2 63q-8 31 -24 62.5t-36 63.5t-40.5 64t-37.5 63q-28 27 -57.5 22t-52.5 -29.5t-35 -62t-5 -74.5
q6 -36 25 -72t42 -73t47 -74.5t41 -75.5h11z" />
    <glyph glyph-name="brokenbar" unicode="&#xa6;" horiz-adv-x="833" 
d="M48 -38q19 78 37.5 157.5t36.5 159.5q10 -2 22.5 -3t36.5 -1q-17 -78 -35 -154l-36 -152q-4 -17 -10 -25t-22 -13q-14 -5 -24.5 3.5t-5.5 28.5v-1zM285 733q-19 -79 -36.5 -156.5t-35.5 -156.5q-8 0 -19 1t-37 11l67 298q4 17 10 25.5t21 14.5q13 5 23 -2.5t8 -26.5
l-1 -5v-3z" />
    <glyph glyph-name="yen" unicode="&#xa5;" horiz-adv-x="587" 
d="M619 583q9 -4 14.5 -14.5t3.5 -21t-13.5 -19t-36.5 -8.5h-51l-9 -31l45 -1q4 0 10 -2q9 -4 14.5 -14.5t3.5 -21t-13.5 -19t-36.5 -8.5h-41q-23 -81 -45.5 -162.5t-45.5 -162.5q3 1 9 5q49 30 73 52.5t41 45.5q14 20 27.5 43t27.5 65q1 3 5.5 4t9 0t8 -3t2.5 -5
q-16 -45 -30 -70.5t-30 -48.5q-18 -26 -44 -50.5t-77 -55.5l-33 -20q-12 -42 -27 -90t-33 -96t-39.5 -92.5t-47.5 -80.5q-31 -42 -70.5 -57t-71 -3t-46.5 50t4 100q12 40 40 76.5t64 69t77.5 61t82.5 53.5q23 81 44.5 158.5t42.5 158.5q-46 -115 -98 -216
q-17 -31 -34.5 -58.5t-36.5 -48.5t-38.5 -32.5t-39.5 -11.5q-25 1 -46 19.5t-22 60.5q-1 33 5 77t17 95t25 105.5t29 107.5q14 50 27 95t13 99q1 27 -5.5 35.5t-15.5 10.5q-17 2 -38.5 -17.5t-35.5 -43.5q-14 -25 -27 -55t-24.5 -59t-20 -54t-13.5 -40q-1 -3 -5.5 -4t-9 0
t-8 3t-2.5 5q7 19 15.5 45.5t19.5 55.5t24 59t28 56q23 42 53.5 65.5t60.5 22.5q25 -1 46 -19.5t22 -61.5q1 -25 -3 -52t-11 -54.5t-14.5 -54t-14.5 -50.5q-14 -52 -27 -104t-23 -100.5t-16.5 -90t-6.5 -72.5q0 -27 6 -36t15 -11q12 -2 25.5 7.5t28 26.5t29 40.5t28.5 50.5
q32 61 60.5 126t54.5 134h-64q-18 0 -24.5 10.5t-4 22.5t12.5 22.5t24 12.5l81 -2q7 17 11 31h-63q-18 0 -24.5 10.5t-4 22.5t12.5 22.5t24 12.5l79 -2l33 94l6 23q0 1 13.5 11.5t28 19.5t24.5 10t5 -17l-39 -142l55 -1q4 0 10 -2zM329 13q-36 -23 -72 -49t-67.5 -54.5
t-55 -60.5t-33.5 -66q-12 -42 -3 -64.5t29.5 -27t46.5 9t47 44.5q15 23 32 57.5t32 72t27 74.5t17 64z" />
    <glyph glyph-name="sterling" unicode="&#xa3;" horiz-adv-x="400" 
d="M336 316q16 0 22.5 -10t4 -22.5t-14.5 -22.5t-34 -10h-105q-18 -63 -34 -117t-26 -92q33 3 66.5 -4.5t65 -17.5t60 -19t51.5 -9q7 1 10.5 -6t3.5 -15.5t-3 -16t-10 -7.5q-35 -2 -67 6.5t-61.5 19.5t-57.5 20.5t-55.5 10.5t-55 -11t-55.5 -44q-5 -5 -9 -4t-6.5 4.5
t-2.5 9.5t4 11q12 16 24.5 27.5t25.5 19.5l67 234q-20 -1 -37 -1h-30h-28q-18 0 -24.5 10.5t-4 23t12.5 23t24 12.5l106 -1q13 48 24.5 96.5t20.5 93.5t15 83.5t6 67.5q0 27 -6 36t-15 10q-17 2 -38.5 -17t-35.5 -43q-15 -25 -28 -55t-24 -59t-19.5 -54t-14.5 -41
q-1 -3 -5 -4t-9 0t-8.5 3t-2.5 5q7 19 16 45.5t20 55.5t23.5 59t27.5 56q24 42 54.5 65.5t60.5 22.5q25 -1 45.5 -19.5t22.5 -60.5q1 -30 -4 -69.5t-14 -85t-21.5 -94.5t-25.5 -98z" />
    <glyph glyph-name="exclamdown" unicode="&#xa1;" horiz-adv-x="258" 
d="M203 622q-15 11 -16 33.5t7.5 42t22.5 29.5t28 -3q10 -10 11.5 -28t-3.5 -36t-15.5 -30.5t-25.5 -10.5q-6 0 -9 3zM48 40q15 66 28.5 128t27 123.5t27.5 124t30 128.5q5 21 17 30.5t23.5 10t18.5 -8.5t3 -26l-5.5 -25.5t-15 -67t-21.5 -95t-25 -110t-25.5 -111.5
l-22.5 -99q-5 -22 -16.5 -32.5t-23 -10t-18.5 11t-2 29.5z" />
    <glyph glyph-name="dotlessi" unicode="&#x131;" horiz-adv-x="207" 
d="M79 367q-3 -12 -11.5 -44t-17 -73t-15.5 -85t-7 -80q0 -27 6 -36t16 -10q16 -2 38 17t36 43q17 29 31.5 64.5t26.5 67.5q9 23 15.5 43t11.5 34q1 3 5.5 4t9 0t8 -3t2.5 -5q-5 -16 -12 -35.5t-15 -41.5q-12 -35 -27 -71t-33 -68q-24 -42 -54.5 -65.5t-60.5 -22.5
q-24 1 -45 19.5t-23 60.5q-1 29 3 63t10.5 69t14.5 68.5t16 62.5q0 1 13 11.5t27.5 19.5t25 10t5.5 -17zM86 516q14 -5 20 -20.5t1 -32.5t-19 -26t-28 -4t-20 20t-1 32q6 17 19.5 26.5t27.5 4.5z" />
    <glyph glyph-name="florin" unicode="&#x192;" horiz-adv-x="271" 
d="M273 308q1 3 5.5 4t9 0t8 -3t2.5 -5q-9 -26 -16 -47.5t-16 -41t-21.5 -38.5t-31.5 -39q-30 -31 -67 -54t-72 -37q-6 -2 -11.5 -4t-11.5 -4q12 -15 19.5 -33t12 -37.5t7 -39t2.5 -37.5q0 -19 -2.5 -53.5t-10.5 -72.5q-5 -26 -13.5 -50t-20 -42.5t-27 -29t-35.5 -8.5
q-30 2 -46.5 28.5t-22.5 66t-3.5 87.5t8.5 93q6 42 16.5 100.5t23.5 119t26 117t23 95.5q20 79 42.5 155t38.5 134q7 22 18 50.5t25 43.5q11 11 23 15t22.5 1.5t18.5 -12t11 -25.5q2 -11 1 -23t-3 -25q-7 -38 -22 -80.5t-34.5 -85.5t-40 -83.5t-38.5 -75.5
q-11 -45 -23.5 -101t-25 -113.5t-23.5 -114t-18 -102.5q-8 -51 -11 -99.5t4 -83.5q1 -5 3 -11.5t5.5 -12.5t8 -9.5t10.5 -2.5q12 1 21.5 11.5t16 24.5t10.5 28t6 22q9 42 11.5 85.5t-0.5 69.5q-3 33 -12 61t-26 45q-5 5 -10.5 11t2.5 14q1 1 8 3t15.5 5t17 5.5t12.5 4.5
q31 13 64 34.5t59 49.5q17 17 28 34.5t19.5 36t15.5 38.5t15 43zM163 664q-10 -35 -24 -83t-30 -102q-2 -7 -3.5 -13.5t-3.5 -12.5q11 24 23.5 49.5t23.5 52.5t19.5 54t12.5 53q2 15 2 25t-2.5 11.5t-7 -6t-10.5 -28.5z" />
    <glyph glyph-name="Scaron" unicode="&#x160;" horiz-adv-x="466" 
d="M370 661q-19 30 -40.5 41t-42.5 7t-39 -20.5t-30.5 -39.5t-18 -51t-0.5 -55q7 -39 28.5 -78.5t47.5 -80t51 -81.5t39 -83q15 -46 7.5 -93.5t-32.5 -85.5t-65.5 -61.5t-90.5 -21.5q-43 2 -79 25.5t-57.5 65.5t-25 100t19.5 130q1 6 6 8.5t10 2t8 -4.5t2 -10
q-16 -56 -15.5 -105t16.5 -86t46 -58t72 -21q35 0 61 18t42 45t21 60t-2 63q-11 42 -36.5 86t-53.5 88t-52 87t-31 84q-7 39 2 74.5t28 63t46.5 45.5t57 23t59.5 -5t54 -39l1 1q3 8 10.5 6t15 -8.5t12.5 -16.5t2 -18q-11 -29 -16 -58t-16 -58q-3 -8 -12 -6.5t-18 8.5
t-15 16.5t-3 17.5q8 20 14 39.5t12 39.5zM289 858q20 -25 38 -44q8 7 18 15.5t19.5 16t17 13t10.5 6.5q11 3 20 1t13.5 -7t3.5 -13.5t-11 -17.5q3 2 -8.5 -8.5t-28 -24t-33 -25t-23.5 -12.5q-9 -1 -18.5 5.5t-18.5 15.5t-17 18.5t-12 15.5q-19 24 -19 36.5t9 17t21.5 2
t18.5 -10.5z" />
    <glyph glyph-name="scaron" unicode="&#x161;" horiz-adv-x="220" 
d="M53 306q4 -41 17 -81.5t24 -82.5q16 10 30.5 19.5t28.5 19.5q17 14 27 28t18 30q7 15 12 32t12 37q1 3 5 4t9 0t8.5 -3t2.5 -5q-8 -22 -13.5 -39.5t-12.5 -34.5q-8 -18 -20 -34.5t-33 -33.5q-15 -12 -32.5 -23t-34.5 -22q7 -28 9 -58t-2.5 -58.5t-16.5 -53.5t-31 -42
q-24 -20 -56.5 -25t-58.5 5.5t-38.5 35.5t4.5 64q13 31 38 57.5t47 41.5l42 26q-7 28 -16.5 57.5t-17 58.5t-11.5 59t1 60q5 31 21.5 36.5t31.5 -1.5q7 -3 12 -6.5t6.5 -11.5t-1 -21.5t-11.5 -34.5zM26 -63q10 14 15 33t6.5 39t0.5 39.5t-4 34.5q-10 -5 -18.5 -11t-16.5 -11
q-8 -6 -18.5 -15t-21 -20.5t-19.5 -24.5t-15 -26q-11 -28 -3 -44.5t24.5 -21.5t36.5 2t33 26zM54 491q20 -25 38 -44q8 7 18 15.5t19.5 16t17 13t10.5 6.5q11 3 20 1t13.5 -7t3.5 -13.5t-11 -17.5q3 2 -8.5 -8.5t-28 -24t-33 -25t-23.5 -12.5q-9 -1 -18.5 5.5t-18.5 15.5
t-17 18.5t-12 15.5q-19 24 -19 36.5t9 17t21.5 2t18.5 -10.5z" />
    <glyph glyph-name="Ydieresis" unicode="&#x178;" horiz-adv-x="587" 
d="M340 51q23 81 44.5 158.5t42.5 158.5q-46 -115 -98 -216q-17 -31 -34.5 -58.5t-36.5 -48.5t-38.5 -32.5t-39.5 -11.5q-25 1 -46 19.5t-22 60.5q-1 33 5 77t17 95t25 105.5t29 107.5q14 50 27 95t13 99q1 27 -5.5 35.5t-15.5 10.5q-17 2 -38.5 -17.5t-35.5 -43.5
q-14 -25 -27 -55t-24.5 -59t-20 -54t-13.5 -40q-1 -3 -5.5 -4t-9 0t-8 3t-2.5 5q7 19 15.5 45.5t19.5 55.5t24 59t28 56q23 42 53.5 65.5t60.5 22.5q25 -1 46 -19.5t22 -61.5q1 -25 -3 -52t-11 -54.5t-14.5 -54t-14.5 -50.5q-14 -52 -27 -104t-23 -100.5t-16.5 -90
t-6.5 -72.5q0 -27 6 -36t15 -11q12 -2 25.5 7.5t28 26.5t29 40.5t28.5 50.5q31 59 59 123.5t53.5 130.5t49.5 132.5t46 130.5l6 23q0 1 13.5 11.5t28 19.5t24.5 10t5 -17q-44 -158 -87 -315t-88 -315q3 1 9 5q49 30 73 52.5t41 45.5q14 20 27.5 43t27.5 65q1 3 5.5 4t9 0
t8 -3t2.5 -5q-16 -45 -30 -70.5t-30 -48.5q-18 -26 -44 -50.5t-77 -55.5l-33 -20q-12 -42 -27 -90t-33 -96t-39.5 -92.5t-47.5 -80.5q-31 -42 -70.5 -57t-71 -3t-46.5 50t4 100q12 40 40 76.5t64 69t77.5 61t82.5 53.5zM329 13q-36 -23 -72 -49t-67.5 -54.5t-55 -60.5
t-33.5 -66q-12 -42 -3 -64.5t29.5 -27t46.5 9t47 44.5q15 23 32 57.5t32 72t27 74.5t17 64zM520 842q6 -15 3 -35t-12 -35t-21 -21.5t-24 5.5q-8 8 -11 21.5t-1 27.5t7.5 27.5t14.5 21.5q12 11 24.5 7.5t19.5 -19.5zM387 842q6 -15 3 -35t-11.5 -35t-21 -21.5t-24.5 5.5
q-8 8 -10.5 21.5t-1 27.5t7.5 27.5t15 21.5q12 11 24.5 7.5t18.5 -19.5z" />
    <glyph glyph-name="zcaron" unicode="&#x17e;" horiz-adv-x="348" 
d="M323 231l26 77q1 3 5.5 4t9 0t8 -3t2.5 -5l-26 -77q-11 -30 -30 -59.5t-42.5 -57t-48.5 -52.5t-49 -46q-11 -60 -20.5 -118t-17.5 -107q-5 -33 -18 -69t-46 -64q-13 -11 -37 -16.5t-41 0.5q-16 6 -23 20t-7 33t5 42t13 46q9 24 22.5 55t30 61t34 55.5t34.5 39.5
q5 24 8.5 48t8.5 47q-18 -23 -37.5 -40t-38.5 -20q-20 -3 -34 7t-19.5 27t-2 38.5t17.5 39.5q16 21 37 38.5t42.5 35.5t41.5 36.5t35 41.5q9 14 11.5 27.5t-8.5 21.5q-8 6 -23.5 0.5t-34 -15t-37 -19.5t-31.5 -12q-29 -5 -50 8.5t-29 46.5q-3 10 -3.5 24.5t1.5 30t6.5 30.5
t12.5 26q16 21 34 20t28 -21q7 -12 7.5 -28.5t-1.5 -33.5t-6 -34.5t-7 -30.5q13 4 35 17.5t47 24t49.5 12.5t41.5 -16q23 -24 18.5 -52.5t-24.5 -55.5q-14 -18 -30.5 -35t-34.5 -33.5t-35 -32.5t-32 -33q-8 -10 -13 -21t-5 -17.5t6.5 -4.5t21.5 18q14 14 28.5 33.5
t25.5 33.5q13 19 26.5 24.5t24 4t17 -7.5t5.5 -10l-22 -121q39 37 78 79.5t59 93.5zM101 -56q-12 -14 -26 -37.5t-26.5 -49t-22.5 -49t-15 -37.5q-6 -20 -11 -39t-6 -34t2.5 -24.5t13.5 -11.5q18 -3 30 10t18.5 32.5t10 41t5.5 33.5q2 14 5.5 35t7 44.5t7.5 46t7 39.5z
M24 437q-3 12 -10 14t-15 -14q-6 -13 -9 -30t-3 -24q-2 -27 9 -41q5 -8 11 -12q3 11 6.5 25.5t6.5 29.5t4.5 28.5t-0.5 23.5zM139 498q20 -25 38 -44q8 7 18 15.5t19.5 16t17 13t10.5 6.5q11 3 20 1t13.5 -7t3.5 -13.5t-11 -17.5q3 2 -8.5 -8.5t-28 -24t-33 -25t-23.5 -12.5
q-9 -1 -18.5 5.5t-18.5 15.5t-17 18.5t-12 15.5q-19 24 -19 36.5t9 17t21.5 2t18.5 -10.5z" />
    <glyph glyph-name="Zcaron" unicode="&#x17d;" horiz-adv-x="508" 
d="M58 655q16 33 35.5 52.5t41.5 28t46 8.5t50 -6q29 -6 59 -16t60 -18t60 -11.5t58 3.5q19 11 38 11t31 -6t13 -15t-16 -15q-7 -4 -19 -7q-13 -8 -23 -18.5t-20 -24.5q-32 -43 -57.5 -93.5t-48 -104t-44 -109.5t-45.5 -109.5t-52.5 -104t-64.5 -93.5q33 -7 71 -11t76.5 -4
t76 4.5t70.5 15.5q9 3 15.5 -2t8 -12t-1.5 -14t-12 -10q-42 -14 -81.5 -16.5t-78 1t-78 11.5t-82.5 16q-19 -18 -35.5 -23t-30.5 -5q-25 -1 -42 13.5t-13 29.5q3 13 19.5 19.5t50.5 0.5q39 42 69.5 95t56.5 111.5t49.5 120t48 119t53 109t63.5 90.5q-29 0 -55.5 6t-52 13.5
t-51 14t-51.5 8.5q-39 2 -68.5 -18t-55.5 -75q-3 -5 -10.5 -1.5t-15 11t-13 16t-2.5 14.5zM70 -1q-2 0 -4 1q-12 1 -16.5 -2t-4 -6t5 -4t11.5 5zM331 846q20 -25 38 -44q8 7 18 15.5t19.5 16t17 13t10.5 6.5q11 3 20 1t13.5 -7t3.5 -13.5t-11 -17.5q3 2 -8.5 -8.5t-28 -24
t-33 -25t-23.5 -12.5q-9 -1 -18.5 5.5t-18.5 15.5t-17 18.5t-12 15.5q-19 24 -19 36.5t9 17t21.5 2t18.5 -10.5z" />
    <glyph glyph-name="lslash" unicode="&#x142;" 
d="M70 331q-4 -15 -7.5 -30t-6.5 -30l90 25q13 4 21 -1.5t8 -14.5t-8 -18.5t-27 -15.5q-20 -5 -44.5 -11.5t-50.5 -14.5q-8 -39 -12 -73t-4 -62q0 -27 6 -36t16 -10q16 -2 38 17t36 43q17 30 32 65.5t27 68.5l26 75q1 3 5.5 4t9 0t8 -3t2.5 -5l-27 -78q-12 -35 -27.5 -70.5
t-32.5 -67.5q-24 -42 -54.5 -65.5t-60.5 -22.5q-24 1 -45 19.5t-23 60.5q-1 25 2.5 55.5t9.5 64.5q-13 -4 -23.5 -7t-18.5 -5q-10 -3 -17 -5q-15 -5 -22.5 0.5t-8 14.5t5.5 18.5t18 14.5l75 21q10 49 23.5 100.5t27.5 101t27.5 95t24.5 82.5q3 11 7.5 24.5t10 26.5t12 24.5
t13.5 18.5q11 11 23 15.5t22.5 1.5t18.5 -12.5t11 -25.5q3 -21 -2 -47q-7 -38 -22 -81t-34.5 -85.5t-40 -83.5t-38.5 -76zM163 663q-11 -35 -24.5 -82.5t-29.5 -102.5l-7 -26q11 23 23 49t23 53t19.5 54.5t12.5 53.5q3 15 2.5 25t-3 11.5t-6.5 -6.5t-10 -29z" />
    <glyph glyph-name="Lslash" unicode="&#x141;" horiz-adv-x="400" 
d="M296 332q13 4 21 -1.5t8 -14.5t-8 -18.5t-27 -15.5l-78 -21q-19 -66 -35.5 -122.5t-27.5 -96.5q33 3 66.5 -4.5t65 -17.5t60 -19t51.5 -9q7 1 10.5 -6t3.5 -15.5t-3 -16t-10 -7.5q-35 -2 -67 6.5t-61.5 19.5t-57.5 20.5t-55.5 10.5t-55 -11t-55.5 -44q-5 -5 -9 -4
t-6.5 4.5t-2.5 9.5t4 11q12 16 24.5 27.5t25.5 19.5q10 36 27.5 95t37.5 128q-16 -5 -29.5 -8.5t-23.5 -6.5q-11 -4 -21 -6q-15 -5 -22.5 0.5t-8 14.5t5.5 18.5t18 14.5l95 26q14 51 27 103.5t23 100.5t16.5 89.5t6.5 72.5q0 27 -6 36t-15 10q-17 2 -38.5 -17t-35.5 -43
q-15 -25 -28 -55t-24 -59t-19.5 -54t-14.5 -41q-1 -3 -5 -4t-9 0t-8.5 3t-2.5 5q7 19 16 45.5t20 55.5t23.5 59t27.5 56q24 42 54.5 65.5t60.5 22.5q25 -1 45.5 -19.5t22.5 -60.5q1 -30 -4 -70.5t-14.5 -86t-22 -95.5t-26.5 -99z" />
    <glyph glyph-name="fl" unicode="&#xfb02;" horiz-adv-x="480" 
d="M341 331q-17 -71 -28.5 -135t-12.5 -111q0 -27 6 -36t16 -10q16 -2 38 17t36 43q17 30 32 65.5t27 68.5l26 75q1 3 5.5 4t9 0t8 -3t2.5 -5l-27 -78q-12 -35 -27.5 -70.5t-32.5 -67.5q-24 -42 -54.5 -65.5t-60.5 -22.5q-24 1 -45 19.5t-23 60.5q-1 20 1 44t6 50
q-12 -18 -30 -36q-30 -31 -67 -54t-72 -37q-6 -2 -11.5 -4t-11.5 -4q12 -15 19.5 -33t12 -37.5t7 -39t2.5 -37.5q0 -19 -2.5 -53.5t-10.5 -72.5q-5 -26 -13.5 -50t-20 -42.5t-27 -29t-35.5 -8.5q-30 2 -46.5 28.5t-22.5 66t-3.5 87.5t8.5 93q6 42 16.5 100.5t23.5 119
t26 117t23 95.5q20 79 42.5 155t38.5 134q7 22 18 50.5t25 43.5q11 11 23 15t22.5 1.5t18.5 -12t11 -25.5q2 -11 1 -23t-3 -25q-7 -38 -22 -80.5t-34.5 -85.5t-40 -83.5t-38.5 -75.5q-11 -45 -23.5 -101t-25 -113.5t-23.5 -114t-18 -102.5q-8 -51 -11 -99.5t4 -83.5
q1 -5 3 -11.5t5.5 -12.5t8 -9.5t10.5 -2.5q12 1 21.5 11.5t16 24.5t10.5 28t6 22q9 42 11.5 85.5t-0.5 69.5q-3 33 -12 61t-26 45q-5 5 -10.5 11t2.5 14q1 1 8 3t15.5 5t17 5.5t12.5 4.5q31 13 64 34.5t59 49.5q29 29 42.5 59t26.5 66q10 46 23 93.5t26 93.5t25 87.5
t22 75.5q3 11 7.5 24.5t10 26.5t12 24.5t13.5 18.5q11 11 23 15.5t22.5 1.5t18.5 -12.5t11 -25.5q3 -21 -2 -47q-7 -38 -22 -81t-34.5 -85.5t-40 -83.5t-38.5 -76zM163 664q-10 -35 -24 -83t-30 -102l-6 -24q11 24 23 49.5t23 52t19.5 53t12.5 52.5q2 15 2 25t-2.5 11.5
t-7 -6t-10.5 -28.5zM434 663q-11 -35 -24.5 -82.5t-29.5 -102.5l-7 -26q11 23 23 49t23 53t19.5 54.5t12.5 53.5q3 15 2.5 25t-3 11.5t-6.5 -6.5t-10 -29z" />
    <glyph glyph-name="fi" unicode="&#xfb01;" horiz-adv-x="478" 
d="M350 367q-3 -12 -11.5 -44t-17 -73t-15.5 -85t-7 -80q0 -27 6 -36t16 -10q16 -2 38 17t36 43q17 29 31.5 64.5t26.5 67.5q9 23 15.5 43t11.5 34q1 3 5.5 4t9 0t8 -3t2.5 -5q-5 -16 -12 -35.5t-15 -41.5q-12 -35 -27 -71t-33 -68q-24 -42 -54.5 -65.5t-60.5 -22.5
q-24 1 -45 19.5t-23 60.5q-1 21 1 44t6 48q-6 -8 -13.5 -16.5t-15.5 -17.5q-30 -31 -67 -54t-72 -37q-6 -2 -11.5 -4t-11.5 -4q12 -15 19.5 -33t12 -37.5t7 -39t2.5 -37.5q0 -19 -2.5 -53.5t-10.5 -72.5q-5 -26 -13.5 -50t-20 -42.5t-27 -29t-35.5 -8.5q-30 2 -46.5 28.5
t-22.5 66t-3.5 87.5t8.5 93q6 42 16.5 100.5t23.5 119t26 117t23 95.5q20 79 42.5 155t38.5 134q7 22 18 50.5t25 43.5q11 11 23 15t22.5 1.5t18.5 -12t11 -25.5q2 -11 1 -23t-3 -25q-7 -38 -22 -80.5t-34.5 -85.5t-40 -83.5t-38.5 -75.5q-11 -45 -23.5 -101t-25 -113.5
t-23.5 -114t-18 -102.5q-8 -51 -11 -99.5t4 -83.5q1 -5 3 -11.5t5.5 -12.5t8 -9.5t10.5 -2.5q12 1 21.5 11.5t16 24.5t10.5 28t6 22q9 42 11.5 85.5t-0.5 69.5q-3 33 -12 61t-26 45q-5 5 -10.5 11t2.5 14q1 1 8 3t15.5 5t17 5.5t12.5 4.5q31 13 64 34.5t59 49.5
q27 28 40.5 56.5t25.5 62.5l18 68q0 1 13 11.5t27.5 19.5t25 10t5.5 -17zM357 516q14 -5 20 -20.5t1 -32.5t-19 -26t-28 -4t-20 20t-1 32q6 17 19.5 26.5t27.5 4.5zM163 664q-10 -35 -24 -83t-30 -102l-6 -24q11 24 23 49.5t23 52t19.5 53t12.5 52.5q2 15 2 25t-2.5 11.5
t-7 -6t-10.5 -28.5z" />
    <glyph glyph-name="questiondown" unicode="&#xbf;" horiz-adv-x="302" 
d="M242 622q-15 11 -16 33.5t7.5 42t22.5 29.5t28 -3q10 -10 11.5 -28t-3.5 -36t-15.5 -30.5t-25.5 -10.5q-6 0 -9 3zM263 550q-15 -46 -32 -91q-14 -38 -31 -81.5t-34 -77.5q-9 -17 -23.5 -49t-26 -66.5t-15 -66.5t10.5 -49q7 -9 17.5 -6.5t21.5 10.5t20.5 18t14.5 17
q7 10 12 19t9 20q6 16 14.5 20t15 0t10 -13.5t0.5 -19.5q-8 -26 -25 -54t-38.5 -48t-46 -29t-46.5 3q-17 9 -26.5 25t-14 36.5t-4 42.5t4.5 43q7 39 22.5 77.5t33 76t35.5 75t32 75.5q6 16 9.5 27t6.5 21t6 21.5t7 28.5q3 12 14.5 20t23 8.5t19 -7t3.5 -26.5z" />
    <glyph glyph-name="Agrave" unicode="&#xc0;" horiz-adv-x="585" 
d="M27 17q23 39 62.5 104t83.5 141l-64 -18q-21 -6 -31 -4t-9 7.5t13 12.5t33 13q20 5 39.5 10.5t38.5 11.5q24 42 48.5 85t46 84t40 78t32.5 69q-40 -8 -74 -10.5t-60 5.5q-23 6 -34 20t-10.5 31.5t12.5 36.5t36 36q18 13 42 21t50 10q27 3 52 -1t43 -15.5t26.5 -30.5
t1.5 -47q8 2 12 4q8 5 16 7t16 3q36 12 73 26.5t72 30.5q4 1 7 -2t4.5 -8t0.5 -10t-5 -7q-34 -15 -69 -29.5t-71 -27.5l-28 -140t-30 -161q2 -4 -1 -8q-13 -80 -19.5 -149.5t0.5 -111.5q3 -19 10.5 -32t21.5 -3q13 9 25 22.5t20 28.5q17 29 32 65t27 69q8 19 14 37.5
t13 37.5q1 3 5 4t9 0t8.5 -3.5t2.5 -5.5l-27 -78q-13 -34 -28 -69.5t-32 -67.5q-25 -45 -58 -68q-25 -18 -42.5 -20t-28.5 6.5t-17.5 25.5t-9.5 37q-6 42 -1.5 108t15.5 142l-66 -18t-65 -19q-43 -72 -81.5 -135t-63.5 -106q0 -1 -8 -6t-19 -12t-23 -13t-21 -8.5t-12 0
t4 14.5zM387 352q11 75 25.5 148t26.5 132q-2 0 -6 -2q-12 -30 -29 -66.5t-38.5 -77t-45.5 -83t-49 -84.5q29 8 57 16.5t59 16.5zM375 650l3 9q6 18 2.5 31t-13 21t-24.5 11.5t-33 2.5q-30 -2 -52 -14.5t-27 -27.5t10.5 -27.5t61.5 -13.5q17 0 34.5 2t37.5 6zM393 832
q-15 23 -8 34t25 8q18 -2 40 -11.5t41 -23.5t32.5 -31t16.5 -33q2 -18 -8.5 -21.5t-27.5 1.5q-14 4 -30 12t-31 18t-28 22t-22 25z" />
    <glyph glyph-name="Aacute" unicode="&#xc1;" horiz-adv-x="585" 
d="M27 17q23 39 62.5 104t83.5 141l-64 -18q-21 -6 -31 -4t-9 7.5t13 12.5t33 13q20 5 39.5 10.5t38.5 11.5q24 42 48.5 85t46 84t40 78t32.5 69q-40 -8 -74 -10.5t-60 5.5q-23 6 -34 20t-10.5 31.5t12.5 36.5t36 36q18 13 42 21t50 10q27 3 52 -1t43 -15.5t26.5 -30.5
t1.5 -47q8 2 12 4q8 5 16 7t16 3q36 12 73 26.5t72 30.5q4 1 7 -2t4.5 -8t0.5 -10t-5 -7q-34 -15 -69 -29.5t-71 -27.5l-28 -140t-30 -161q2 -4 -1 -8q-13 -80 -19.5 -149.5t0.5 -111.5q3 -19 10.5 -32t21.5 -3q13 9 25 22.5t20 28.5q17 29 32 65t27 69q8 19 14 37.5
t13 37.5q1 3 5 4t9 0t8.5 -3.5t2.5 -5.5l-27 -78q-13 -34 -28 -69.5t-32 -67.5q-25 -45 -58 -68q-25 -18 -42.5 -20t-28.5 6.5t-17.5 25.5t-9.5 37q-6 42 -1.5 108t15.5 142l-66 -18t-65 -19q-43 -72 -81.5 -135t-63.5 -106q0 -1 -8 -6t-19 -12t-23 -13t-21 -8.5t-12 0
t4 14.5zM387 352q11 75 25.5 148t26.5 132q-2 0 -6 -2q-12 -30 -29 -66.5t-38.5 -77t-45.5 -83t-49 -84.5q29 8 57 16.5t59 16.5zM375 650l3 9q6 18 2.5 31t-13 21t-24.5 11.5t-33 2.5q-30 -2 -52 -14.5t-27 -27.5t10.5 -27.5t61.5 -13.5q17 0 34.5 2t37.5 6zM577 828
q-9 -13 -22 -25t-28 -22t-31 -18t-30 -12q-17 -5 -27.5 -1.5t-8.5 21.5q3 16 16.5 33t32.5 31t41 23.5t40 11.5q18 3 25 -8t-8 -34z" />
    <glyph glyph-name="Acircumflex" unicode="&#xc2;" horiz-adv-x="585" 
d="M412 830q-15 23 -8 34t25 8q18 -2 40 -11.5t41 -23.5t32.5 -31t16.5 -33q2 -18 -8.5 -21.5t-27.5 1.5q-14 4 -30 12t-31 18t-28 22t-22 25zM379 830q-9 -13 -22 -25t-28 -22t-31 -18t-30 -12q-17 -5 -27.5 -1.5t-8.5 21.5q3 16 16.5 33t32.5 31t41 23.5t40 11.5
q18 3 25 -8t-8 -34zM27 17q23 39 62.5 104t83.5 141l-64 -18q-21 -6 -31 -4t-9 7.5t13 12.5t33 13q20 5 39.5 10.5t38.5 11.5q24 42 48.5 85t46 84t40 78t32.5 69q-40 -8 -74 -10.5t-60 5.5q-23 6 -34 20t-10.5 31.5t12.5 36.5t36 36q18 13 42 21t50 10q27 3 52 -1t43 -15.5
t26.5 -30.5t1.5 -47q8 2 12 4q8 5 16 7t16 3q36 12 73 26.5t72 30.5q4 1 7 -2t4.5 -8t0.5 -10t-5 -7q-34 -15 -69 -29.5t-71 -27.5l-28 -140t-30 -161q2 -4 -1 -8q-13 -80 -19.5 -149.5t0.5 -111.5q3 -19 10.5 -32t21.5 -3q13 9 25 22.5t20 28.5q17 29 32 65t27 69
q8 19 14 37.5t13 37.5q1 3 5 4t9 0t8.5 -3.5t2.5 -5.5l-27 -78q-13 -34 -28 -69.5t-32 -67.5q-25 -45 -58 -68q-25 -18 -42.5 -20t-28.5 6.5t-17.5 25.5t-9.5 37q-6 42 -1.5 108t15.5 142l-66 -18t-65 -19q-43 -72 -81.5 -135t-63.5 -106q0 -1 -8 -6t-19 -12t-23 -13
t-21 -8.5t-12 0t4 14.5zM387 352q11 75 25.5 148t26.5 132q-2 0 -6 -2q-12 -30 -29 -66.5t-38.5 -77t-45.5 -83t-49 -84.5q29 8 57 16.5t59 16.5zM375 650l3 9q6 18 2.5 31t-13 21t-24.5 11.5t-33 2.5q-30 -2 -52 -14.5t-27 -27.5t10.5 -27.5t61.5 -13.5q17 0 34.5 2t37.5 6
z" />
    <glyph glyph-name="Atilde" unicode="&#xc3;" horiz-adv-x="585" 
d="M27 17q23 39 62.5 104t83.5 141l-64 -18q-21 -6 -31 -4t-9 7.5t13 12.5t33 13q20 5 39.5 10.5t38.5 11.5q24 42 48.5 85t46 84t40 78t32.5 69q-40 -8 -74 -10.5t-60 5.5q-23 6 -34 20t-10.5 31.5t12.5 36.5t36 36q18 13 42 21t50 10q27 3 52 -1t43 -15.5t26.5 -30.5
t1.5 -47q8 2 12 4q8 5 16 7t16 3q36 12 73 26.5t72 30.5q4 1 7 -2t4.5 -8t0.5 -10t-5 -7q-34 -15 -69 -29.5t-71 -27.5l-28 -140t-30 -161q2 -4 -1 -8q-13 -80 -19.5 -149.5t0.5 -111.5q3 -19 10.5 -32t21.5 -3q13 9 25 22.5t20 28.5q17 29 32 65t27 69q8 19 14 37.5
t13 37.5q1 3 5 4t9 0t8.5 -3.5t2.5 -5.5l-27 -78q-13 -34 -28 -69.5t-32 -67.5q-25 -45 -58 -68q-25 -18 -42.5 -20t-28.5 6.5t-17.5 25.5t-9.5 37q-6 42 -1.5 108t15.5 142l-66 -18t-65 -19q-43 -72 -81.5 -135t-63.5 -106q0 -1 -8 -6t-19 -12t-23 -13t-21 -8.5t-12 0
t4 14.5zM387 352q11 75 25.5 148t26.5 132q-2 0 -6 -2q-12 -30 -29 -66.5t-38.5 -77t-45.5 -83t-49 -84.5q29 8 57 16.5t59 16.5zM375 650l3 9q6 18 2.5 31t-13 21t-24.5 11.5t-33 2.5q-30 -2 -52 -14.5t-27 -27.5t10.5 -27.5t61.5 -13.5q17 0 34.5 2t37.5 6zM574 815
q4 2 7 -1t4.5 -8t1 -11.5t-3.5 -10.5q-12 -24 -26.5 -30t-29.5 -2t-31.5 13t-32.5 15t-32 3.5t-31 -20.5q-2 -3 -5 -1t-6 6.5t-5 9.5t0 7q19 30 37 39t34.5 6.5t31.5 -12.5t29.5 -16.5t29 -5.5t28.5 19z" />
    <glyph glyph-name="Adieresis" unicode="&#xc4;" horiz-adv-x="585" 
d="M27 17q23 39 62.5 104t83.5 141l-64 -18q-21 -6 -31 -4t-9 7.5t13 12.5t33 13q20 5 39.5 10.5t38.5 11.5q24 42 48.5 85t46 84t40 78t32.5 69q-40 -8 -74 -10.5t-60 5.5q-23 6 -34 20t-10.5 31.5t12.5 36.5t36 36q18 13 42 21t50 10q27 3 52 -1t43 -15.5t26.5 -30.5
t1.5 -47q8 2 12 4q8 5 16 7t16 3q36 12 73 26.5t72 30.5q4 1 7 -2t4.5 -8t0.5 -10t-5 -7q-34 -15 -69 -29.5t-71 -27.5l-28 -140t-30 -161q2 -4 -1 -8q-13 -80 -19.5 -149.5t0.5 -111.5q3 -19 10.5 -32t21.5 -3q13 9 25 22.5t20 28.5q17 29 32 65t27 69q8 19 14 37.5
t13 37.5q1 3 5 4t9 0t8.5 -3.5t2.5 -5.5l-27 -78q-13 -34 -28 -69.5t-32 -67.5q-25 -45 -58 -68q-25 -18 -42.5 -20t-28.5 6.5t-17.5 25.5t-9.5 37q-6 42 -1.5 108t15.5 142l-66 -18t-65 -19q-43 -72 -81.5 -135t-63.5 -106q0 -1 -8 -6t-19 -12t-23 -13t-21 -8.5t-12 0
t4 14.5zM387 352q11 75 25.5 148t26.5 132q-2 0 -6 -2q-12 -30 -29 -66.5t-38.5 -77t-45.5 -83t-49 -84.5q29 8 57 16.5t59 16.5zM375 650l3 9q6 18 2.5 31t-13 21t-24.5 11.5t-33 2.5q-30 -2 -52 -14.5t-27 -27.5t10.5 -27.5t61.5 -13.5q17 0 34.5 2t37.5 6zM601 843
q6 -15 3 -35t-12 -35t-21 -21.5t-24 5.5q-8 8 -11 21.5t-1 27.5t7.5 27.5t14.5 21.5q12 11 24.5 7.5t19.5 -19.5zM468 843q6 -15 3 -35t-11.5 -35t-21 -21.5t-24.5 5.5q-8 8 -10.5 21.5t-1 27.5t7.5 27.5t15 21.5q12 11 24.5 7.5t18.5 -19.5z" />
    <glyph glyph-name="Aring" unicode="&#xc5;" horiz-adv-x="585" 
d="M27 17q23 39 62.5 104t83.5 141l-64 -18q-21 -6 -31 -4t-9 7.5t13 12.5t33 13q20 5 39.5 10.5t38.5 11.5q24 42 48.5 85t46 84t40 78t32.5 69q-40 -8 -74 -10.5t-60 5.5q-23 6 -34 20t-10.5 31.5t12.5 36.5t36 36q18 13 42 21t50 10q27 3 52 -1t43 -15.5t26.5 -30.5
t1.5 -47q8 2 12 4q8 5 16 7t16 3q36 12 73 26.5t72 30.5q4 1 7 -2t4.5 -8t0.5 -10t-5 -7q-34 -15 -69 -29.5t-71 -27.5l-28 -140t-30 -161q2 -4 -1 -8q-13 -80 -19.5 -149.5t0.5 -111.5q3 -19 10.5 -32t21.5 -3q13 9 25 22.5t20 28.5q17 29 32 65t27 69q8 19 14 37.5
t13 37.5q1 3 5 4t9 0t8.5 -3.5t2.5 -5.5l-27 -78q-13 -34 -28 -69.5t-32 -67.5q-25 -45 -58 -68q-25 -18 -42.5 -20t-28.5 6.5t-17.5 25.5t-9.5 37q-6 42 -1.5 108t15.5 142l-66 -18t-65 -19q-43 -72 -81.5 -135t-63.5 -106q0 -1 -8 -6t-19 -12t-23 -13t-21 -8.5t-12 0
t4 14.5zM387 352q11 75 25.5 148t26.5 132q-2 0 -6 -2q-12 -30 -29 -66.5t-38.5 -77t-45.5 -83t-49 -84.5q29 8 57 16.5t59 16.5zM375 650l3 9q6 18 2.5 31t-13 21t-24.5 11.5t-33 2.5q-30 -2 -52 -14.5t-27 -27.5t10.5 -27.5t61.5 -13.5q17 0 34.5 2t37.5 6zM483 794
q11 4 16 17.5t4.5 26.5t-7 21.5t-19.5 4.5q-13 -5 -19 -18.5t-5.5 -27t8 -22t22.5 -2.5zM534 874q12 -27 4.5 -55.5t-25.5 -47t-41.5 -21t-44.5 21.5q-12 13 -14 33.5t5 40.5t21 36t34 21q17 5 35 -2.5t26 -26.5z" />
    <glyph glyph-name="Egrave" unicode="&#xc8;" horiz-adv-x="481" 
d="M199 386q-40 11 -59 45.5t-18 78t22.5 89.5t62.5 81t101.5 52.5t139.5 4.5q3 7 12 5.5t18 -8.5t14.5 -16.5t2.5 -17.5q-11 -29 -19.5 -58t-19.5 -58q-3 -8 -11 -6.5t-15.5 8t-12 16.5t-1.5 18q8 23 12.5 45.5t10.5 45.5q-54 8 -99.5 -10t-78 -49t-51 -70t-20 -74
t16.5 -60t58 -28q12 -2 13.5 -15t-2.5 -22q-32 1 -60 -18t-51 -50t-38.5 -70.5t-21.5 -79t-1.5 -75t22.5 -59t50 -31.5t81 8q74 25 122 85.5t77 139.5l27 75q1 3 5 4t8.5 0t8 -3t2.5 -5q-7 -20 -13 -39t-14 -39q-17 -47 -39.5 -91.5t-53 -81.5t-70.5 -64t-91 -38t-88.5 -0.5
t-62.5 35.5t-38 61t-14 77q-2 48 12 95t38 84.5t57 60t69 22.5zM312 833q-15 23 -8 34t25 8q18 -2 40 -11.5t41 -23.5t32.5 -31t16.5 -33q2 -18 -8.5 -21.5t-27.5 1.5q-14 4 -30 12t-31 18t-28 22t-22 25z" />
    <glyph glyph-name="Eacute" unicode="&#xc9;" horiz-adv-x="481" 
d="M199 386q-40 11 -59 45.5t-18 78t22.5 89.5t62.5 81t101.5 52.5t139.5 4.5q3 7 12 5.5t18 -8.5t14.5 -16.5t2.5 -17.5q-11 -29 -19.5 -58t-19.5 -58q-3 -8 -11 -6.5t-15.5 8t-12 16.5t-1.5 18q8 23 12.5 45.5t10.5 45.5q-54 8 -99.5 -10t-78 -49t-51 -70t-20 -74
t16.5 -60t58 -28q12 -2 13.5 -15t-2.5 -22q-32 1 -60 -18t-51 -50t-38.5 -70.5t-21.5 -79t-1.5 -75t22.5 -59t50 -31.5t81 8q74 25 122 85.5t77 139.5l27 75q1 3 5 4t8.5 0t8 -3t2.5 -5q-7 -20 -13 -39t-14 -39q-17 -47 -39.5 -91.5t-53 -81.5t-70.5 -64t-91 -38t-88.5 -0.5
t-62.5 35.5t-38 61t-14 77q-2 48 12 95t38 84.5t57 60t69 22.5zM481 828q-9 -13 -22 -25t-28 -22t-31 -18t-30 -12q-17 -5 -27.5 -1.5t-8.5 21.5q3 16 16.5 33t32.5 31t41 23.5t40 11.5q18 3 25 -8t-8 -34z" />
    <glyph glyph-name="Ecircumflex" unicode="&#xca;" horiz-adv-x="481" 
d="M364 830q-15 23 -8 34t25 8q18 -2 40 -11.5t41 -23.5t32.5 -31t16.5 -33q2 -18 -8.5 -21.5t-27.5 1.5q-14 4 -30 12t-31 18t-28 22t-22 25zM331 830q-9 -13 -22 -25t-28 -22t-31 -18t-30 -12q-17 -5 -27.5 -1.5t-8.5 21.5q3 16 16.5 33t32.5 31t41 23.5t40 11.5
q18 3 25 -8t-8 -34zM199 386q-40 11 -59 45.5t-18 78t22.5 89.5t62.5 81t101.5 52.5t139.5 4.5q3 7 12 5.5t18 -8.5t14.5 -16.5t2.5 -17.5q-11 -29 -19.5 -58t-19.5 -58q-3 -8 -11 -6.5t-15.5 8t-12 16.5t-1.5 18q8 23 12.5 45.5t10.5 45.5q-54 8 -99.5 -10t-78 -49t-51 -70
t-20 -74t16.5 -60t58 -28q12 -2 13.5 -15t-2.5 -22q-32 1 -60 -18t-51 -50t-38.5 -70.5t-21.5 -79t-1.5 -75t22.5 -59t50 -31.5t81 8q74 25 122 85.5t77 139.5l27 75q1 3 5 4t8.5 0t8 -3t2.5 -5q-7 -20 -13 -39t-14 -39q-17 -47 -39.5 -91.5t-53 -81.5t-70.5 -64t-91 -38
t-88.5 -0.5t-62.5 35.5t-38 61t-14 77q-2 48 12 95t38 84.5t57 60t69 22.5z" />
    <glyph glyph-name="Icircumflex" unicode="&#xce;" horiz-adv-x="292" 
d="M233 830q-15 23 -8 34t25 8q18 -2 40 -11.5t41 -23.5t32.5 -31t16.5 -33q2 -18 -8.5 -21.5t-27.5 1.5q-14 4 -30 12t-31 18t-28 22t-22 25zM200 830q-9 -13 -22 -25t-28 -22t-31 -18t-30 -12q-17 -5 -27.5 -1.5t-8.5 21.5q3 16 16.5 33t32.5 31t41 23.5t40 11.5
q18 3 25 -8t-8 -34zM77 16q9 32 23.5 81.5t31 108.5t34 123t31 125t22.5 114.5t10 90.5q0 27 -6 36t-16 10q-17 2 -38.5 -17t-35.5 -43q-14 -25 -27 -55t-24.5 -59t-20 -54t-13.5 -41q-1 -3 -5.5 -4t-9 0t-8 3t-2.5 5q7 19 16 45.5t20 55.5t23.5 59t27.5 56q24 42 54 65.5
t60 22.5q25 -1 46 -19.5t23 -60.5q1 -37 -6.5 -87.5t-20.5 -108t-29.5 -118t-33 -117.5t-31.5 -107t-24 -85q0 -1 -13 -11.5t-27.5 -19.5t-25 -10.5t-5.5 16.5z" />
    <glyph glyph-name="Ocircumflex" unicode="&#xd4;" horiz-adv-x="450" 
d="M323 830q-15 23 -8 34t25 8q18 -2 40 -11.5t41 -23.5t32.5 -31t16.5 -33q2 -18 -8.5 -21.5t-27.5 1.5q-14 4 -30 12t-31 18t-28 22t-22 25zM290 830q-9 -13 -22 -25t-28 -22t-31 -18t-30 -12q-17 -5 -27.5 -1.5t-8.5 21.5q3 16 16.5 33t32.5 31t41 23.5t40 11.5
q18 3 25 -8t-8 -34zM383 676q-26 24 -55.5 22.5t-57.5 -17.5t-51.5 -40t-38.5 -46q-32 -46 -53 -101.5t-32 -113t-12 -113t7 -100.5t25.5 -75.5t43.5 -37.5q25 -6 58 8q34 14 62 52.5t49 91t34.5 113.5t18 118.5t-0.5 106t-20 77.5q-7 13 -17 19t-20 4q-14 -2 -22.5 -18.5
t-13 -40.5t-6 -52t-0.5 -54.5t3.5 -48t5.5 -31.5q2 -6 -1.5 -9.5t-8.5 -4t-10.5 2.5t-6.5 9q-3 13 -5.5 37.5t-3.5 54.5t1.5 61.5t10 58t21.5 43.5t36 19q15 1 30 -7t26 -25q20 -32 28.5 -84t5.5 -113.5t-16.5 -126.5t-36 -123t-54.5 -103t-72 -66q-32 -17 -58 -21t-48 4
q-38 13 -62.5 54.5t-35 99.5t-7.5 126.5t19.5 137t48 130.5t76.5 107q21 20 50 39t60 27.5t61.5 3t54.5 -33.5q12 -14 4.5 -20.5t-14.5 -0.5z" />
    <glyph glyph-name="Ucircumflex" unicode="&#xdb;" horiz-adv-x="621" 
d="M434 830q-15 23 -8 34t25 8q18 -2 40 -11.5t41 -23.5t32.5 -31t16.5 -33q2 -18 -8.5 -21.5t-27.5 1.5q-14 4 -30 12t-31 18t-28 22t-22 25zM401 830q-9 -13 -22 -25t-28 -22t-31 -18t-30 -12q-17 -5 -27.5 -1.5t-8.5 21.5q3 16 16.5 33t32.5 31t41 23.5t40 11.5
q18 3 25 -8t-8 -34zM594 728q-9 -32 -23.5 -81.5t-31.5 -108.5t-34 -123t-31 -125t-23 -114.5t-9 -90.5q-1 -27 5 -36t16 -10q17 -2 38.5 17t35.5 43q14 25 27 55t24.5 59t20 54t13.5 41q1 3 5.5 4t9 0t8 -3t2.5 -5q-7 -20 -15.5 -46t-19.5 -55.5t-24 -59t-28 -55.5
q-24 -42 -54 -65.5t-60 -22.5q-25 1 -46 19.5t-23 60.5q-1 25 3 57.5t10.5 69.5t16 77.5t20.5 82.5q-23 -57 -47 -110.5t-51 -105.5q-17 -31 -34.5 -58.5t-36.5 -48.5t-38.5 -32.5t-39.5 -11.5q-25 1 -45.5 19.5t-22.5 60.5q-1 33 5 77.5t17 95t25 105t29 107.5q14 51 27 96
t13 98q1 27 -5.5 36t-15.5 10q-17 2 -38.5 -17t-35.5 -43q-14 -25 -27 -55t-24.5 -59t-20 -54t-13.5 -41q-1 -3 -5.5 -4t-9 0t-8 3t-2.5 5q7 19 15.5 45.5t19.5 55.5t24 59t28 56q23 42 53.5 65.5t60.5 22.5q25 -1 46 -19.5t22 -60.5q1 -25 -3 -52.5t-11 -55t-14.5 -54
t-14.5 -50.5q-14 -51 -27 -103.5t-23 -100.5t-16.5 -90t-6.5 -73q0 -27 6 -36t15 -10q12 -2 25.5 7t28 26t29.5 40.5t29 50.5q30 59 58 123.5t53.5 131t49.5 133t46 129.5l6 23q0 1 13.5 11.5t28 19.5t25 10.5t5.5 -16.5z" />
    <glyph glyph-name="Edieresis" unicode="&#xcb;" horiz-adv-x="481" 
d="M199 386q-40 11 -59 45.5t-18 78t22.5 89.5t62.5 81t101.5 52.5t139.5 4.5q3 7 12 5.5t18 -8.5t14.5 -16.5t2.5 -17.5q-11 -29 -19.5 -58t-19.5 -58q-3 -8 -11 -6.5t-15.5 8t-12 16.5t-1.5 18q8 23 12.5 45.5t10.5 45.5q-54 8 -99.5 -10t-78 -49t-51 -70t-20 -74
t16.5 -60t58 -28q12 -2 13.5 -15t-2.5 -22q-32 1 -60 -18t-51 -50t-38.5 -70.5t-21.5 -79t-1.5 -75t22.5 -59t50 -31.5t81 8q74 25 122 85.5t77 139.5l27 75q1 3 5 4t8.5 0t8 -3t2.5 -5q-7 -20 -13 -39t-14 -39q-17 -47 -39.5 -91.5t-53 -81.5t-70.5 -64t-91 -38t-88.5 -0.5
t-62.5 35.5t-38 61t-14 77q-2 48 12 95t38 84.5t57 60t69 22.5zM468 844q6 -15 3 -35t-12 -35t-21 -21.5t-24 5.5q-8 8 -11 21.5t-1 27.5t7.5 27.5t14.5 21.5q12 11 24.5 7.5t19.5 -19.5zM335 844q6 -15 3 -35t-11.5 -35t-21 -21.5t-24.5 5.5q-8 8 -10.5 21.5t-1 27.5
t7.5 27.5t15 21.5q12 11 24.5 7.5t18.5 -19.5z" />
    <glyph glyph-name="Igrave" unicode="&#xcc;" horiz-adv-x="292" 
d="M77 16q9 32 23.5 81.5t31 108.5t34 123t31 125t22.5 114.5t10 90.5q0 27 -6 36t-16 10q-17 2 -38.5 -17t-35.5 -43q-14 -25 -27 -55t-24.5 -59t-20 -54t-13.5 -41q-1 -3 -5.5 -4t-9 0t-8 3t-2.5 5q7 19 16 45.5t20 55.5t23.5 59t27.5 56q24 42 54 65.5t60 22.5
q25 -1 46 -19.5t23 -60.5q1 -37 -6.5 -87.5t-20.5 -108t-29.5 -118t-33 -117.5t-31.5 -107t-24 -85q0 -1 -13 -11.5t-27.5 -19.5t-25 -10.5t-5.5 16.5zM135 830q-15 23 -8 34t25 8q18 -2 40 -11.5t41 -23.5t32.5 -31t16.5 -33q2 -18 -8.5 -21.5t-27.5 1.5q-14 4 -30 12
t-31 18t-28 22t-22 25z" />
    <glyph glyph-name="Iacute" unicode="&#xcd;" horiz-adv-x="292" 
d="M77 16q9 32 23.5 81.5t31 108.5t34 123t31 125t22.5 114.5t10 90.5q0 27 -6 36t-16 10q-17 2 -38.5 -17t-35.5 -43q-14 -25 -27 -55t-24.5 -59t-20 -54t-13.5 -41q-1 -3 -5.5 -4t-9 0t-8 3t-2.5 5q7 19 16 45.5t20 55.5t23.5 59t27.5 56q24 42 54 65.5t60 22.5
q25 -1 46 -19.5t23 -60.5q1 -37 -6.5 -87.5t-20.5 -108t-29.5 -118t-33 -117.5t-31.5 -107t-24 -85q0 -1 -13 -11.5t-27.5 -19.5t-25 -10.5t-5.5 16.5zM304 835q-9 -13 -22 -25t-28 -22t-31 -18t-30 -12q-17 -5 -27.5 -1.5t-8.5 21.5q3 16 16.5 33t32.5 31t41 23.5t40 11.5
q18 3 25 -8t-8 -34z" />
    <glyph glyph-name="Idieresis" unicode="&#xcf;" horiz-adv-x="292" 
d="M77 16q9 32 23.5 81.5t31 108.5t34 123t31 125t22.5 114.5t10 90.5q0 27 -6 36t-16 10q-17 2 -38.5 -17t-35.5 -43q-14 -25 -27 -55t-24.5 -59t-20 -54t-13.5 -41q-1 -3 -5.5 -4t-9 0t-8 3t-2.5 5q7 19 16 45.5t20 55.5t23.5 59t27.5 56q24 42 54 65.5t60 22.5
q25 -1 46 -19.5t23 -60.5q1 -37 -6.5 -87.5t-20.5 -108t-29.5 -118t-33 -117.5t-31.5 -107t-24 -85q0 -1 -13 -11.5t-27.5 -19.5t-25 -10.5t-5.5 16.5zM327 843q6 -15 3 -35t-12 -35t-21 -21.5t-24 5.5q-8 8 -11 21.5t-1 27.5t7.5 27.5t14.5 21.5q12 11 24.5 7.5t19.5 -19.5
zM194 843q6 -15 3 -35t-11.5 -35t-21 -21.5t-24.5 5.5q-8 8 -10.5 21.5t-1 27.5t7.5 27.5t15 21.5q12 11 24.5 7.5t18.5 -19.5z" />
    <glyph glyph-name="Ntilde" unicode="&#xd1;" horiz-adv-x="660" 
d="M260 442q19 47 40 90.5t42.5 79.5t44.5 62.5t46 38.5q32 18 60 18.5t48 -10.5q35 -17 47 -60t-3 -98q-18 -60 -36.5 -127.5t-33.5 -132.5t-25 -122t-10 -96q0 -27 6 -36t16 -10q16 -2 38 17t36 43q14 25 27 55t24.5 59t20 54t13.5 41q1 3 5.5 4t9 0t8 -3t2.5 -5
q-7 -20 -16 -46t-20 -55.5t-23.5 -59t-27.5 -55.5q-24 -42 -54 -65.5t-60 -22.5q-25 1 -46 19.5t-23 60.5q-2 52 10.5 119.5t30.5 139t38.5 139.5t35.5 120q8 28 5 51t-14.5 37t-31 16t-44.5 -12q-28 -15 -58 -59.5t-60 -105t-58.5 -130.5t-52 -137t-41.5 -124.5t-28 -92.5
q0 -1 -13 -11.5t-27.5 -19.5t-25 -10.5t-5.5 16.5q9 32 23.5 81.5t31.5 108.5t34 123t31 125t23 114.5t9 90.5q0 27 -6 36t-16 10q-17 2 -38 -17t-35 -43q-15 -25 -28 -55t-24 -59t-19.5 -54t-14.5 -41q-1 -3 -5.5 -4t-9 0t-8 3t-2.5 5q7 19 16 45.5t20 55.5t23.5 59
t27.5 56q24 42 54.5 65.5t60.5 22.5q25 -1 45.5 -19.5t22.5 -60.5q2 -41 -8 -98.5t-25 -123.5zM512 820q4 2 7 -1t4.5 -8t1 -11.5t-3.5 -10.5q-12 -24 -26.5 -30t-29.5 -2t-31.5 13t-32.5 15t-32 3.5t-31 -20.5q-2 -3 -5 -1t-6 6.5t-5 9.5t0 7q19 30 37 39t34.5 6.5
t31.5 -12.5t29.5 -16.5t29 -5.5t28.5 19z" />
    <glyph glyph-name="Ograve" unicode="&#xd2;" horiz-adv-x="450" 
d="M383 676q-26 24 -55.5 22.5t-57.5 -17.5t-51.5 -40t-38.5 -46q-32 -46 -53 -101.5t-32 -113t-12 -113t7 -100.5t25.5 -75.5t43.5 -37.5q25 -6 58 8q34 14 62 52.5t49 91t34.5 113.5t18 118.5t-0.5 106t-20 77.5q-7 13 -17 19t-20 4q-14 -2 -22.5 -18.5t-13 -40.5t-6 -52
t-0.5 -54.5t3.5 -48t5.5 -31.5q2 -6 -1.5 -9.5t-8.5 -4t-10.5 2.5t-6.5 9q-3 13 -5.5 37.5t-3.5 54.5t1.5 61.5t10 58t21.5 43.5t36 19q15 1 30 -7t26 -25q20 -32 28.5 -84t5.5 -113.5t-16.5 -126.5t-36 -123t-54.5 -103t-72 -66q-32 -17 -58 -21t-48 4q-38 13 -62.5 54.5
t-35 99.5t-7.5 126.5t19.5 137t48 130.5t76.5 107q21 20 50 39t60 27.5t61.5 3t54.5 -33.5q12 -14 4.5 -20.5t-14.5 -0.5zM240 826q-15 23 -8 34t25 8q18 -2 40 -11.5t41 -23.5t32.5 -31t16.5 -33q2 -18 -8.5 -21.5t-27.5 1.5q-14 4 -30 12t-31 18t-28 22t-22 25z" />
    <glyph glyph-name="Oacute" unicode="&#xd3;" horiz-adv-x="450" 
d="M383 676q-26 24 -55.5 22.5t-57.5 -17.5t-51.5 -40t-38.5 -46q-32 -46 -53 -101.5t-32 -113t-12 -113t7 -100.5t25.5 -75.5t43.5 -37.5q25 -6 58 8q34 14 62 52.5t49 91t34.5 113.5t18 118.5t-0.5 106t-20 77.5q-7 13 -17 19t-20 4q-14 -2 -22.5 -18.5t-13 -40.5t-6 -52
t-0.5 -54.5t3.5 -48t5.5 -31.5q2 -6 -1.5 -9.5t-8.5 -4t-10.5 2.5t-6.5 9q-3 13 -5.5 37.5t-3.5 54.5t1.5 61.5t10 58t21.5 43.5t36 19q15 1 30 -7t26 -25q20 -32 28.5 -84t5.5 -113.5t-16.5 -126.5t-36 -123t-54.5 -103t-72 -66q-32 -17 -58 -21t-48 4q-38 13 -62.5 54.5
t-35 99.5t-7.5 126.5t19.5 137t48 130.5t76.5 107q21 20 50 39t60 27.5t61.5 3t54.5 -33.5q12 -14 4.5 -20.5t-14.5 -0.5zM371 828q-9 -13 -22 -25t-28 -22t-31 -18t-30 -12q-17 -5 -27.5 -1.5t-8.5 21.5q3 16 16.5 33t32.5 31t41 23.5t40 11.5q18 3 25 -8t-8 -34z" />
    <glyph glyph-name="Otilde" unicode="&#xd5;" horiz-adv-x="450" 
d="M383 676q-26 24 -55.5 22.5t-57.5 -17.5t-51.5 -40t-38.5 -46q-32 -46 -53 -101.5t-32 -113t-12 -113t7 -100.5t25.5 -75.5t43.5 -37.5q25 -6 58 8q34 14 62 52.5t49 91t34.5 113.5t18 118.5t-0.5 106t-20 77.5q-7 13 -17 19t-20 4q-14 -2 -22.5 -18.5t-13 -40.5t-6 -52
t-0.5 -54.5t3.5 -48t5.5 -31.5q2 -6 -1.5 -9.5t-8.5 -4t-10.5 2.5t-6.5 9q-3 13 -5.5 37.5t-3.5 54.5t1.5 61.5t10 58t21.5 43.5t36 19q15 1 30 -7t26 -25q20 -32 28.5 -84t5.5 -113.5t-16.5 -126.5t-36 -123t-54.5 -103t-72 -66q-32 -17 -58 -21t-48 4q-38 13 -62.5 54.5
t-35 99.5t-7.5 126.5t19.5 137t48 130.5t76.5 107q21 20 50 39t60 27.5t61.5 3t54.5 -33.5q12 -14 4.5 -20.5t-14.5 -0.5zM421 811q4 2 7 -1t4.5 -8t1 -11.5t-3.5 -10.5q-12 -24 -26.5 -30t-29.5 -2t-31.5 13t-32.5 15t-32 3.5t-31 -20.5q-2 -3 -5 -1t-6 6.5t-5 9.5t0 7
q19 30 37 39t34.5 6.5t31.5 -12.5t29.5 -16.5t29 -5.5t28.5 19z" />
    <glyph glyph-name="Odieresis" unicode="&#xd6;" horiz-adv-x="450" 
d="M383 676q-26 24 -55.5 22.5t-57.5 -17.5t-51.5 -40t-38.5 -46q-32 -46 -53 -101.5t-32 -113t-12 -113t7 -100.5t25.5 -75.5t43.5 -37.5q25 -6 58 8q34 14 62 52.5t49 91t34.5 113.5t18 118.5t-0.5 106t-20 77.5q-7 13 -17 19t-20 4q-14 -2 -22.5 -18.5t-13 -40.5t-6 -52
t-0.5 -54.5t3.5 -48t5.5 -31.5q2 -6 -1.5 -9.5t-8.5 -4t-10.5 2.5t-6.5 9q-3 13 -5.5 37.5t-3.5 54.5t1.5 61.5t10 58t21.5 43.5t36 19q15 1 30 -7t26 -25q20 -32 28.5 -84t5.5 -113.5t-16.5 -126.5t-36 -123t-54.5 -103t-72 -66q-32 -17 -58 -21t-48 4q-38 13 -62.5 54.5
t-35 99.5t-7.5 126.5t19.5 137t48 130.5t76.5 107q21 20 50 39t60 27.5t61.5 3t54.5 -33.5q12 -14 4.5 -20.5t-14.5 -0.5zM422 839q6 -15 3 -35t-12 -35t-21 -21.5t-24 5.5q-8 8 -11 21.5t-1 27.5t7.5 27.5t14.5 21.5q12 11 24.5 7.5t19.5 -19.5zM289 839q6 -15 3 -35
t-11.5 -35t-21 -21.5t-24.5 5.5q-8 8 -10.5 21.5t-1 27.5t7.5 27.5t15 21.5q12 11 24.5 7.5t18.5 -19.5z" />
    <glyph glyph-name="Ugrave" unicode="&#xd9;" horiz-adv-x="621" 
d="M594 728q-9 -32 -23.5 -81.5t-31.5 -108.5t-34 -123t-31 -125t-23 -114.5t-9 -90.5q-1 -27 5 -36t16 -10q17 -2 38.5 17t35.5 43q14 25 27 55t24.5 59t20 54t13.5 41q1 3 5.5 4t9 0t8 -3t2.5 -5q-7 -20 -15.5 -46t-19.5 -55.5t-24 -59t-28 -55.5q-24 -42 -54 -65.5
t-60 -22.5q-25 1 -46 19.5t-23 60.5q-1 25 3 57.5t10.5 69.5t16 77.5t20.5 82.5q-23 -57 -47 -110.5t-51 -105.5q-17 -31 -34.5 -58.5t-36.5 -48.5t-38.5 -32.5t-39.5 -11.5q-25 1 -45.5 19.5t-22.5 60.5q-1 33 5 77.5t17 95t25 105t29 107.5q14 51 27 96t13 98
q1 27 -5.5 36t-15.5 10q-17 2 -38.5 -17t-35.5 -43q-14 -25 -27 -55t-24.5 -59t-20 -54t-13.5 -41q-1 -3 -5.5 -4t-9 0t-8 3t-2.5 5q7 19 15.5 45.5t19.5 55.5t24 59t28 56q23 42 53.5 65.5t60.5 22.5q25 -1 46 -19.5t22 -60.5q1 -25 -3 -52.5t-11 -55t-14.5 -54
t-14.5 -50.5q-14 -51 -27 -103.5t-23 -100.5t-16.5 -90t-6.5 -73q0 -27 6 -36t15 -10q12 -2 25.5 7t28 26t29.5 40.5t29 50.5q30 59 58 123.5t53.5 131t49.5 133t46 129.5l6 23q0 1 13.5 11.5t28 19.5t25 10.5t5.5 -16.5zM341 830q-15 23 -8 34t25 8q18 -2 40 -11.5
t41 -23.5t32.5 -31t16.5 -33q2 -18 -8.5 -21.5t-27.5 1.5q-14 4 -30 12t-31 18t-28 22t-22 25z" />
    <glyph glyph-name="Uacute" unicode="&#xda;" horiz-adv-x="621" 
d="M594 728q-9 -32 -23.5 -81.5t-31.5 -108.5t-34 -123t-31 -125t-23 -114.5t-9 -90.5q-1 -27 5 -36t16 -10q17 -2 38.5 17t35.5 43q14 25 27 55t24.5 59t20 54t13.5 41q1 3 5.5 4t9 0t8 -3t2.5 -5q-7 -20 -15.5 -46t-19.5 -55.5t-24 -59t-28 -55.5q-24 -42 -54 -65.5
t-60 -22.5q-25 1 -46 19.5t-23 60.5q-1 25 3 57.5t10.5 69.5t16 77.5t20.5 82.5q-23 -57 -47 -110.5t-51 -105.5q-17 -31 -34.5 -58.5t-36.5 -48.5t-38.5 -32.5t-39.5 -11.5q-25 1 -45.5 19.5t-22.5 60.5q-1 33 5 77.5t17 95t25 105t29 107.5q14 51 27 96t13 98
q1 27 -5.5 36t-15.5 10q-17 2 -38.5 -17t-35.5 -43q-14 -25 -27 -55t-24.5 -59t-20 -54t-13.5 -41q-1 -3 -5.5 -4t-9 0t-8 3t-2.5 5q7 19 15.5 45.5t19.5 55.5t24 59t28 56q23 42 53.5 65.5t60.5 22.5q25 -1 46 -19.5t22 -60.5q1 -25 -3 -52.5t-11 -55t-14.5 -54
t-14.5 -50.5q-14 -51 -27 -103.5t-23 -100.5t-16.5 -90t-6.5 -73q0 -27 6 -36t15 -10q12 -2 25.5 7t28 26t29.5 40.5t29 50.5q30 59 58 123.5t53.5 131t49.5 133t46 129.5l6 23q0 1 13.5 11.5t28 19.5t25 10.5t5.5 -16.5zM495 835q-9 -13 -22 -25t-28 -22t-31 -18t-30 -12
q-17 -5 -27.5 -1.5t-8.5 21.5q3 16 16.5 33t32.5 31t41 23.5t40 11.5q18 3 25 -8t-8 -34z" />
    <glyph glyph-name="Udieresis" unicode="&#xdc;" horiz-adv-x="621" 
d="M594 728q-9 -32 -23.5 -81.5t-31.5 -108.5t-34 -123t-31 -125t-23 -114.5t-9 -90.5q-1 -27 5 -36t16 -10q17 -2 38.5 17t35.5 43q14 25 27 55t24.5 59t20 54t13.5 41q1 3 5.5 4t9 0t8 -3t2.5 -5q-7 -20 -15.5 -46t-19.5 -55.5t-24 -59t-28 -55.5q-24 -42 -54 -65.5
t-60 -22.5q-25 1 -46 19.5t-23 60.5q-1 25 3 57.5t10.5 69.5t16 77.5t20.5 82.5q-23 -57 -47 -110.5t-51 -105.5q-17 -31 -34.5 -58.5t-36.5 -48.5t-38.5 -32.5t-39.5 -11.5q-25 1 -45.5 19.5t-22.5 60.5q-1 33 5 77.5t17 95t25 105t29 107.5q14 51 27 96t13 98
q1 27 -5.5 36t-15.5 10q-17 2 -38.5 -17t-35.5 -43q-14 -25 -27 -55t-24.5 -59t-20 -54t-13.5 -41q-1 -3 -5.5 -4t-9 0t-8 3t-2.5 5q7 19 15.5 45.5t19.5 55.5t24 59t28 56q23 42 53.5 65.5t60.5 22.5q25 -1 46 -19.5t22 -60.5q1 -25 -3 -52.5t-11 -55t-14.5 -54
t-14.5 -50.5q-14 -51 -27 -103.5t-23 -100.5t-16.5 -90t-6.5 -73q0 -27 6 -36t15 -10q12 -2 25.5 7t28 26t29.5 40.5t29 50.5q30 59 58 123.5t53.5 131t49.5 133t46 129.5l6 23q0 1 13.5 11.5t28 19.5t25 10.5t5.5 -16.5zM496 844q6 -15 3 -35t-12 -35t-21 -21.5t-24 5.5
q-8 8 -11 21.5t-1 27.5t7.5 27.5t14.5 21.5q12 11 24.5 7.5t19.5 -19.5zM363 844q6 -15 3 -35t-11.5 -35t-21 -21.5t-24.5 5.5q-8 8 -10.5 21.5t-1 27.5t7.5 27.5t15 21.5q12 11 24.5 7.5t18.5 -19.5z" />
    <glyph glyph-name="Yacute" unicode="&#xdd;" horiz-adv-x="587" 
d="M340 51q23 81 44.5 158.5t42.5 158.5q-46 -115 -98 -216q-17 -31 -34.5 -58.5t-36.5 -48.5t-38.5 -32.5t-39.5 -11.5q-25 1 -46 19.5t-22 60.5q-1 33 5 77t17 95t25 105.5t29 107.5q14 50 27 95t13 99q1 27 -5.5 35.5t-15.5 10.5q-17 2 -38.5 -17.5t-35.5 -43.5
q-14 -25 -27 -55t-24.5 -59t-20 -54t-13.5 -40q-1 -3 -5.5 -4t-9 0t-8 3t-2.5 5q7 19 15.5 45.5t19.5 55.5t24 59t28 56q23 42 53.5 65.5t60.5 22.5q25 -1 46 -19.5t22 -61.5q1 -25 -3 -52t-11 -54.5t-14.5 -54t-14.5 -50.5q-14 -52 -27 -104t-23 -100.5t-16.5 -90
t-6.5 -72.5q0 -27 6 -36t15 -11q12 -2 25.5 7.5t28 26.5t29 40.5t28.5 50.5q31 59 59 123.5t53.5 130.5t49.5 132.5t46 130.5l6 23q0 1 13.5 11.5t28 19.5t24.5 10t5 -17q-44 -158 -87 -315t-88 -315q3 1 9 5q49 30 73 52.5t41 45.5q14 20 27.5 43t27.5 65q1 3 5.5 4t9 0
t8 -3t2.5 -5q-16 -45 -30 -70.5t-30 -48.5q-18 -26 -44 -50.5t-77 -55.5l-33 -20q-12 -42 -27 -90t-33 -96t-39.5 -92.5t-47.5 -80.5q-31 -42 -70.5 -57t-71 -3t-46.5 50t4 100q12 40 40 76.5t64 69t77.5 61t82.5 53.5zM329 13q-36 -23 -72 -49t-67.5 -54.5t-55 -60.5
t-33.5 -66q-12 -42 -3 -64.5t29.5 -27t46.5 9t47 44.5q15 23 32 57.5t32 72t27 74.5t17 64zM510 832q-9 -13 -22 -25t-28 -22t-31 -18t-30 -12q-17 -5 -27.5 -1.5t-8.5 21.5q3 16 16.5 33t32.5 31t41 23.5t40 11.5q18 3 25 -8t-8 -34z" />
    <glyph glyph-name="agrave" unicode="&#xe0;" horiz-adv-x="373" 
d="M130 99v-19q2 -42 22.5 -60.5t45.5 -19.5q30 -1 60.5 22.5t54.5 65.5q18 32 33 68.5t27 70.5q8 22 15 41.5t12 35.5q1 3 -2.5 5t-8 3t-9 0t-5.5 -4l-27 -77q-12 -32 -27 -67.5t-32 -64.5q-14 -24 -35.5 -43t-38.5 -17q-9 1 -15 10t-6 36q0 36 7 80t15.5 85t17 73t11.5 44
q5 18 -5.5 17t-25 -10t-28 -19.5t-13.5 -11.5q0 -4 -1 -5q-12 30 -39 41t-59 -1q-39 -15 -68 -57t-44.5 -93.5t-16.5 -103t16 -85.5q15 -29 38.5 -36t52.5 4q23 10 42.5 35t35.5 57zM151 251q-7 -30 -12 -64q-8 -23 -18 -45.5t-21 -41t-23 -30.5t-23 -13q-20 -1 -30.5 20.5
t-9.5 48.5q0 24 6.5 53t16.5 56t22.5 48t25.5 30q35 22 51.5 7.5t14.5 -69.5zM101 490q-15 23 -8 34t25 8q18 -2 40 -11.5t41 -23.5t32.5 -31t16.5 -33q2 -18 -8.5 -21.5t-27.5 1.5q-14 4 -30 12t-31 18t-28 22t-22 25z" />
    <glyph glyph-name="aacute" unicode="&#xe1;" horiz-adv-x="373" 
d="M130 99v-19q2 -42 22.5 -60.5t45.5 -19.5q30 -1 60.5 22.5t54.5 65.5q18 32 33 68.5t27 70.5q8 22 15 41.5t12 35.5q1 3 -2.5 5t-8 3t-9 0t-5.5 -4l-27 -77q-12 -32 -27 -67.5t-32 -64.5q-14 -24 -35.5 -43t-38.5 -17q-9 1 -15 10t-6 36q0 36 7 80t15.5 85t17 73t11.5 44
q5 18 -5.5 17t-25 -10t-28 -19.5t-13.5 -11.5q0 -4 -1 -5q-12 30 -39 41t-59 -1q-39 -15 -68 -57t-44.5 -93.5t-16.5 -103t16 -85.5q15 -29 38.5 -36t52.5 4q23 10 42.5 35t35.5 57zM151 251q-7 -30 -12 -64q-8 -23 -18 -45.5t-21 -41t-23 -30.5t-23 -13q-20 -1 -30.5 20.5
t-9.5 48.5q0 24 6.5 53t16.5 56t22.5 48t25.5 30q35 22 51.5 7.5t14.5 -69.5zM232 488q-9 -13 -22 -25t-28 -22t-31 -18t-30 -12q-17 -5 -27.5 -1.5t-8.5 21.5q3 16 16.5 33t32.5 31t41 23.5t40 11.5q18 3 25 -8t-8 -34z" />
    <glyph glyph-name="acircumflex" unicode="&#xe2;" horiz-adv-x="373" 
d="M130 99v-19q2 -42 22.5 -60.5t45.5 -19.5q30 -1 60.5 22.5t54.5 65.5q18 32 33 68.5t27 70.5q8 22 15 41.5t12 35.5q1 3 -2.5 5t-8 3t-9 0t-5.5 -4l-27 -77q-12 -32 -27 -67.5t-32 -64.5q-14 -24 -35.5 -43t-38.5 -17q-9 1 -15 10t-6 36q0 36 7 80t15.5 85t17 73t11.5 44
q5 18 -5.5 17t-25 -10t-28 -19.5t-13.5 -11.5q0 -4 -1 -5q-12 30 -39 41t-59 -1q-39 -15 -68 -57t-44.5 -93.5t-16.5 -103t16 -85.5q15 -29 38.5 -36t52.5 4q23 10 42.5 35t35.5 57zM151 251q-7 -30 -12 -64q-8 -23 -18 -45.5t-21 -41t-23 -30.5t-23 -13q-20 -1 -30.5 20.5
t-9.5 48.5q0 24 6.5 53t16.5 56t22.5 48t25.5 30q35 22 51.5 7.5t14.5 -69.5zM213 432q-20 25 -38 44q-8 -7 -18 -15.5t-19.5 -16t-17 -13t-10.5 -6.5q-11 -3 -20 -1t-13.5 7t-3.5 13.5t11 17.5q-3 -2 8.5 8t28 23.5t32.5 25.5t24 13q9 1 18.5 -5.5t18.5 -15.5t16.5 -18.5
t12.5 -15.5q19 -24 19 -37t-9 -17.5t-21.5 -1.5t-18.5 11z" />
    <glyph glyph-name="atilde" unicode="&#xe3;" horiz-adv-x="373" 
d="M130 99v-19q2 -42 22.5 -60.5t45.5 -19.5q30 -1 60.5 22.5t54.5 65.5q18 32 33 68.5t27 70.5q8 22 15 41.5t12 35.5q1 3 -2.5 5t-8 3t-9 0t-5.5 -4l-27 -77q-12 -32 -27 -67.5t-32 -64.5q-14 -24 -35.5 -43t-38.5 -17q-9 1 -15 10t-6 36q0 36 7 80t15.5 85t17 73t11.5 44
q5 18 -5.5 17t-25 -10t-28 -19.5t-13.5 -11.5q0 -4 -1 -5q-12 30 -39 41t-59 -1q-39 -15 -68 -57t-44.5 -93.5t-16.5 -103t16 -85.5q15 -29 38.5 -36t52.5 4q23 10 42.5 35t35.5 57zM151 251q-7 -30 -12 -64q-8 -23 -18 -45.5t-21 -41t-23 -30.5t-23 -13q-20 -1 -30.5 20.5
t-9.5 48.5q0 24 6.5 53t16.5 56t22.5 48t25.5 30q35 22 51.5 7.5t14.5 -69.5zM256 480q4 2 7 -1t4.5 -8t1 -11.5t-3.5 -10.5q-12 -24 -26.5 -30t-29.5 -2t-31.5 13t-32.5 15t-32 4t-31 -21q-2 -3 -5 -1t-6 6.5t-5 9.5t0 7q19 30 37 39t34.5 6.5t31.5 -12.5t29.5 -16.5
t29 -5.5t28.5 19z" />
    <glyph glyph-name="adieresis" unicode="&#xe4;" horiz-adv-x="373" 
d="M130 99q-16 -32 -35.5 -57t-42.5 -35q-29 -11 -52.5 -4t-38.5 36q-17 34 -16 85.5t16.5 103t44.5 93.5t68 57q32 12 59 1t39 -41q1 1 1 5q0 1 13.5 11.5t28 19.5t25 10t5.5 -17q-3 -12 -11.5 -44t-17 -73t-15.5 -85t-7 -80q0 -27 6 -36t15 -10q17 -2 38.5 17t35.5 43
q17 29 32 64.5t27 67.5l27 77q1 3 5.5 4t9 0t8 -3t2.5 -5q-5 -16 -12 -35.5t-15 -41.5q-12 -34 -27 -70.5t-33 -68.5q-24 -42 -54.5 -65.5t-60.5 -22.5q-25 1 -45.5 19.5t-22.5 60.5v19zM151 251q2 55 -14.5 69.5t-51.5 -7.5q-13 -9 -25.5 -30t-22.5 -48t-16.5 -56t-6.5 -53
q-1 -27 9.5 -48.5t30.5 -20.5q11 1 23 13t23 30.5t21 41t18 45.5q5 34 12 64zM273 494q6 -15 3 -35t-12 -35t-21 -21.5t-24 5.5q-8 8 -11 21.5t-1 27.5t7.5 27.5t14.5 21.5q12 11 24.5 7.5t19.5 -19.5zM140 494q6 -15 3 -35t-11.5 -35t-21 -21.5t-24.5 5.5q-8 8 -10.5 21.5
t-1 27.5t7.5 27.5t15 21.5q12 11 24.5 7.5t18.5 -19.5z" />
    <glyph glyph-name="aring" unicode="&#xe5;" horiz-adv-x="373" 
d="M130 99v-19q2 -42 22.5 -60.5t45.5 -19.5q30 -1 60.5 22.5t54.5 65.5q18 32 33 68.5t27 70.5q8 22 15 41.5t12 35.5q1 3 -2.5 5t-8 3t-9 0t-5.5 -4l-27 -77q-12 -32 -27 -67.5t-32 -64.5q-14 -24 -35.5 -43t-38.5 -17q-9 1 -15 10t-6 36q0 36 7 80t15.5 85t17 73t11.5 44
q5 18 -5.5 17t-25 -10t-28 -19.5t-13.5 -11.5q0 -4 -1 -5q-12 30 -39 41t-59 -1q-39 -15 -68 -57t-44.5 -93.5t-16.5 -103t16 -85.5q15 -29 38.5 -36t52.5 4q23 10 42.5 35t35.5 57zM151 251q-7 -30 -12 -64q-8 -23 -18 -45.5t-21 -41t-23 -30.5t-23 -13q-20 -1 -30.5 20.5
t-9.5 48.5q0 24 6.5 53t16.5 56t22.5 48t25.5 30q35 22 51.5 7.5t14.5 -69.5zM187 449q11 4 16 17.5t4.5 26.5t-7 21.5t-19.5 4.5q-13 -5 -19 -18.5t-5.5 -27t8 -22t22.5 -2.5zM238 529q12 -27 4.5 -55.5t-25.5 -47t-41.5 -21t-44.5 21.5q-12 13 -14 33.5t5 40.5t21 36
t34 21q17 5 35 -2.5t26 -26.5z" />
    <glyph glyph-name="egrave" unicode="&#xe8;" horiz-adv-x="261" 
d="M236 233l27 75q1 3 5 4t8.5 0t8 -3t2.5 -5q-7 -20 -13 -39.5t-14 -39.5q-12 -33 -31 -72.5t-45.5 -73.5t-60.5 -56.5t-75 -22.5q-41 1 -71 26.5t-32 81.5q-2 38 6 80.5t25 80.5t41.5 67t55.5 41q49 19 81 -13q13 -13 15 -32.5t-4 -42t-19 -46.5t-30 -47
q-24 -32 -52.5 -58.5t-49.5 -39.5q7 -41 38 -47q35 -8 64.5 9.5t53 47t40 64t26.5 61.5zM12 127q19 13 40.5 35.5t41.5 48.5q13 18 23.5 36.5t16.5 34.5t6 28t-6 17q-5 4 -13.5 2.5t-17 -5.5t-16.5 -9.5t-12 -9.5q-13 -13 -24.5 -35.5t-20 -48t-13.5 -50.5t-5 -44zM53 488
q-15 23 -8 34t25 8q18 -2 40 -11.5t41 -23.5t32.5 -31t16.5 -33q2 -18 -8.5 -21.5t-27.5 1.5q-14 4 -30 12t-31 18t-28 22t-22 25z" />
    <glyph glyph-name="eacute" unicode="&#xe9;" horiz-adv-x="261" 
d="M236 233l27 75q1 3 5 4t8.5 0t8 -3t2.5 -5q-7 -20 -13 -39.5t-14 -39.5q-12 -33 -31 -72.5t-45.5 -73.5t-60.5 -56.5t-75 -22.5q-41 1 -71 26.5t-32 81.5q-2 38 6 80.5t25 80.5t41.5 67t55.5 41q49 19 81 -13q13 -13 15 -32.5t-4 -42t-19 -46.5t-30 -47
q-24 -32 -52.5 -58.5t-49.5 -39.5q7 -41 38 -47q35 -8 64.5 9.5t53 47t40 64t26.5 61.5zM12 127q19 13 40.5 35.5t41.5 48.5q13 18 23.5 36.5t16.5 34.5t6 28t-6 17q-5 4 -13.5 2.5t-17 -5.5t-16.5 -9.5t-12 -9.5q-13 -13 -24.5 -35.5t-20 -48t-13.5 -50.5t-5 -44zM187 483
q-9 -13 -22 -25t-28 -22t-31 -18t-30 -12q-17 -5 -27.5 -1.5t-8.5 21.5q3 16 16.5 33t32.5 31t41 23.5t40 11.5q18 3 25 -8t-8 -34z" />
    <glyph glyph-name="ecircumflex" unicode="&#xea;" horiz-adv-x="261" 
d="M236 233l27 75q1 3 5 4t8.5 0t8 -3t2.5 -5q-7 -20 -13 -39.5t-14 -39.5q-12 -33 -31 -72.5t-45.5 -73.5t-60.5 -56.5t-75 -22.5q-41 1 -71 26.5t-32 81.5q-2 38 6 80.5t25 80.5t41.5 67t55.5 41q49 19 81 -13q13 -13 15 -32.5t-4 -42t-19 -46.5t-30 -47
q-24 -32 -52.5 -58.5t-49.5 -39.5q7 -41 38 -47q35 -8 64.5 9.5t53 47t40 64t26.5 61.5zM12 127q19 13 40.5 35.5t41.5 48.5q13 18 23.5 36.5t16.5 34.5t6 28t-6 17q-5 4 -13.5 2.5t-17 -5.5t-16.5 -9.5t-12 -9.5q-13 -13 -24.5 -35.5t-20 -48t-13.5 -50.5t-5 -44zM178 425
q-20 25 -38 44q-8 -7 -18 -15.5t-19.5 -16t-17 -13t-10.5 -6.5q-11 -3 -20 -1t-13.5 7t-3.5 13.5t11 17.5q-3 -2 8.5 8t28 23.5t32.5 25.5t24 13q9 1 18.5 -5.5t18.5 -15.5t16.5 -18.5t12.5 -15.5q19 -24 19 -37t-9 -17.5t-21.5 -1.5t-18.5 11z" />
    <glyph glyph-name="edieresis" unicode="&#xeb;" horiz-adv-x="261" 
d="M236 233l27 75q1 3 5 4t8.5 0t8 -3t2.5 -5q-7 -20 -13 -39.5t-14 -39.5q-12 -33 -31 -72.5t-45.5 -73.5t-60.5 -56.5t-75 -22.5q-41 1 -71 26.5t-32 81.5q-2 38 6 80.5t25 80.5t41.5 67t55.5 41q49 19 81 -13q13 -13 15 -32.5t-4 -42t-19 -46.5t-30 -47
q-24 -32 -52.5 -58.5t-49.5 -39.5q7 -41 38 -47q35 -8 64.5 9.5t53 47t40 64t26.5 61.5zM12 127q19 13 40.5 35.5t41.5 48.5q13 18 23.5 36.5t16.5 34.5t6 28t-6 17q-5 4 -13.5 2.5t-17 -5.5t-16.5 -9.5t-12 -9.5q-13 -13 -24.5 -35.5t-20 -48t-13.5 -50.5t-5 -44zM227 499
q6 -15 3 -35t-12 -35t-21 -21.5t-24 5.5q-8 8 -11 21.5t-1 27.5t7.5 27.5t14.5 21.5q12 11 24.5 7.5t19.5 -19.5zM94 499q6 -15 3 -35t-11.5 -35t-21 -21.5t-24.5 5.5q-8 8 -10.5 21.5t-1 27.5t7.5 27.5t15 21.5q12 11 24.5 7.5t18.5 -19.5z" />
    <glyph glyph-name="igrave" unicode="&#xec;" horiz-adv-x="207" 
d="M79 367q-3 -12 -11.5 -44t-17 -73t-15.5 -85t-7 -80q0 -27 6 -36t16 -10q16 -2 38 17t36 43q17 29 31.5 64.5t26.5 67.5q9 23 15.5 43t11.5 34q1 3 5.5 4t9 0t8 -3t2.5 -5q-5 -16 -12 -35.5t-15 -41.5q-12 -35 -27 -71t-33 -68q-24 -42 -54.5 -65.5t-60.5 -22.5
q-24 1 -45 19.5t-23 60.5q-1 29 3 63t10.5 69t14.5 68.5t16 62.5q0 1 13 11.5t27.5 19.5t25 10t5.5 -17zM86 516q14 -5 20 -20.5t1 -32.5t-19 -26t-28 -4t-20 20t-1 32q6 17 19.5 26.5t27.5 4.5zM21 594q-15 23 -8 34t25 8q18 -2 40 -11.5t41 -23.5t32.5 -31t16.5 -33
q2 -18 -8.5 -21.5t-27.5 1.5q-14 4 -30 12t-31 18t-28 22t-22 25z" />
    <glyph glyph-name="iacute" unicode="&#xed;" horiz-adv-x="207" 
d="M79 367q-3 -12 -11.5 -44t-17 -73t-15.5 -85t-7 -80q0 -27 6 -36t16 -10q16 -2 38 17t36 43q17 29 31.5 64.5t26.5 67.5q9 23 15.5 43t11.5 34q1 3 5.5 4t9 0t8 -3t2.5 -5q-5 -16 -12 -35.5t-15 -41.5q-12 -35 -27 -71t-33 -68q-24 -42 -54.5 -65.5t-60.5 -22.5
q-24 1 -45 19.5t-23 60.5q-1 29 3 63t10.5 69t14.5 68.5t16 62.5q0 1 13 11.5t27.5 19.5t25 10t5.5 -17zM86 516q14 -5 20 -20.5t1 -32.5t-19 -26t-28 -4t-20 20t-1 32q6 17 19.5 26.5t27.5 4.5zM137 584q-9 -13 -22 -25t-28 -22t-31 -18t-30 -12q-17 -5 -27.5 -1.5
t-8.5 21.5q3 16 16.5 33t32.5 31t41 23.5t40 11.5q18 3 25 -8t-8 -34z" />
    <glyph glyph-name="icircumflex" unicode="&#xee;" horiz-adv-x="207" 
d="M79 367q-3 -12 -11.5 -44t-17 -73t-15.5 -85t-7 -80q0 -27 6 -36t16 -10q16 -2 38 17t36 43q17 29 31.5 64.5t26.5 67.5q9 23 15.5 43t11.5 34q1 3 5.5 4t9 0t8 -3t2.5 -5q-5 -16 -12 -35.5t-15 -41.5q-12 -35 -27 -71t-33 -68q-24 -42 -54.5 -65.5t-60.5 -22.5
q-24 1 -45 19.5t-23 60.5q-1 29 3 63t10.5 69t14.5 68.5t16 62.5q0 1 13 11.5t27.5 19.5t25 10t5.5 -17zM86 516q14 -5 20 -20.5t1 -32.5t-19 -26t-28 -4t-20 20t-1 32q6 17 19.5 26.5t27.5 4.5zM126 506q-20 25 -38 44q-8 -7 -18 -15.5t-19.5 -16t-17 -13t-10.5 -6.5
q-11 -3 -20 -1t-13.5 7t-3.5 13.5t11 17.5q-3 -2 8.5 8t28 23.5t32.5 25.5t24 13q9 1 18.5 -5.5t18.5 -15.5t16.5 -18.5t12.5 -15.5q19 -24 19 -37t-9 -17.5t-21.5 -1.5t-18.5 11z" />
    <glyph glyph-name="idieresis" unicode="&#xef;" horiz-adv-x="207" 
d="M79 367q-3 -12 -11.5 -44t-17 -73t-15.5 -85t-7 -80q0 -27 6 -36t16 -10q16 -2 38 17t36 43q17 29 31.5 64.5t26.5 67.5q9 23 15.5 43t11.5 34q1 3 5.5 4t9 0t8 -3t2.5 -5q-5 -16 -12 -35.5t-15 -41.5q-12 -35 -27 -71t-33 -68q-24 -42 -54.5 -65.5t-60.5 -22.5
q-24 1 -45 19.5t-23 60.5q-1 29 3 63t10.5 69t14.5 68.5t16 62.5q0 1 13 11.5t27.5 19.5t25 10t5.5 -17zM86 516q14 -5 20 -20.5t1 -32.5t-19 -26t-28 -4t-20 20t-1 32q6 17 19.5 26.5t27.5 4.5zM183 592q6 -15 3 -35t-12 -35t-21 -21.5t-24 5.5q-8 8 -11 21.5t-1 27.5
t7.5 27.5t14.5 21.5q12 11 24.5 7.5t19.5 -19.5zM50 592q6 -15 3 -35t-11.5 -35t-21 -21.5t-24.5 5.5q-8 8 -10.5 21.5t-1 27.5t7.5 27.5t15 21.5q12 11 24.5 7.5t18.5 -19.5z" />
    <glyph glyph-name="ntilde" unicode="&#xf1;" horiz-adv-x="400" 
d="M159 339q-16 -9 -31 -31t-29 -50.5t-26.5 -62t-23 -65.5t-19.5 -60t-15 -46q-1 -8 -12 -14.5t-23 -9t-21.5 1.5t-7.5 17q4 28 10.5 71.5t14 90t15.5 90t16 72.5q0 1 13.5 11.5t28 19.5t25 10t5.5 -17q-2 -6 -5.5 -23t-8 -40t-9.5 -51.5t-11 -58.5q20 54 44 101t53 68
q28 21 57 21q23 -1 35 -13t15.5 -30t2 -38.5t-5.5 -36.5q-10 -44 -17.5 -92.5t-8.5 -88.5q0 -27 6 -36t16 -10q17 -2 38.5 17t35.5 43q17 29 31.5 64.5t26.5 67.5q9 24 15.5 43.5t11.5 33.5q1 3 5.5 4t9 0t8 -3t2.5 -5l-26 -77q-13 -34 -28 -70.5t-33 -68.5
q-24 -42 -54 -65.5t-60 -22.5q-25 1 -46 19.5t-23 60.5q-2 45 7.5 100t21.5 106q2 9 5.5 22.5t3 24t-8 14t-26.5 -7.5zM255 485q4 2 7 -1t4.5 -8t1 -11.5t-3.5 -10.5q-12 -24 -26.5 -30t-29.5 -2t-31.5 13t-32.5 15t-32 3.5t-31 -20.5q-2 -3 -5 -1t-6 6.5t-5 9.5t0 7
q19 30 37 39t34.5 6.5t31.5 -12.5t29.5 -16.5t29 -5.5t28.5 19z" />
    <glyph glyph-name="ograve" unicode="&#xf2;" horiz-adv-x="335" 
d="M74 378q12 4 17 -15q10 10 21 14q29 12 53 5t38 -37q14 -28 15.5 -69t-7.5 -85q24 -3 44 3.5t35.5 19.5t26.5 30.5t18 37.5q2 8 4.5 14.5t4.5 12.5q1 3 5.5 4t9 0t8 -3t2.5 -5l-9 -27q-8 -24 -21.5 -45.5t-32.5 -37.5t-44.5 -24.5t-56.5 -5.5q-11 -38 -28.5 -71.5
t-41.5 -56.5q-26 -26 -55 -33.5t-55 0t-46 29t-28 53.5q-9 34 -3.5 79.5t22 88t43 77t61.5 47.5zM73 303q-13 -15 -24.5 -40t-20 -53.5t-13 -57t-3.5 -50.5q2 -20 7.5 -35.5t16.5 -18.5q17 -6 32 7.5t33 40.5q13 19 23.5 45.5t16.5 54.5q-30 14 -48 44.5t-20 62.5zM147 223
q2 10 2.5 19t1.5 17q0 20 -6 37.5t-17 25.5q-8 5 -14.5 1.5t-8.5 -14.5q-3 -19 7 -42t35 -44zM55 503q-15 23 -8 34t25 8q18 -2 40 -11.5t41 -23.5t32.5 -31t16.5 -33q2 -18 -8.5 -21.5t-27.5 1.5q-14 4 -30 12t-31 18t-28 22t-22 25z" />
    <glyph glyph-name="oacute" unicode="&#xf3;" horiz-adv-x="335" 
d="M74 378q12 4 17 -15q10 10 21 14q29 12 53 5t38 -37q14 -28 15.5 -69t-7.5 -85q24 -3 44 3.5t35.5 19.5t26.5 30.5t18 37.5q2 8 4.5 14.5t4.5 12.5q1 3 5.5 4t9 0t8 -3t2.5 -5l-9 -27q-8 -24 -21.5 -45.5t-32.5 -37.5t-44.5 -24.5t-56.5 -5.5q-11 -38 -28.5 -71.5
t-41.5 -56.5q-26 -26 -55 -33.5t-55 0t-46 29t-28 53.5q-9 34 -3.5 79.5t22 88t43 77t61.5 47.5zM73 303q-13 -15 -24.5 -40t-20 -53.5t-13 -57t-3.5 -50.5q2 -20 7.5 -35.5t16.5 -18.5q17 -6 32 7.5t33 40.5q13 19 23.5 45.5t16.5 54.5q-30 14 -48 44.5t-20 62.5zM147 223
q2 10 2.5 19t1.5 17q0 20 -6 37.5t-17 25.5q-8 5 -14.5 1.5t-8.5 -14.5q-3 -19 7 -42t35 -44zM203 493q-9 -13 -22 -25t-28 -22t-31 -18t-30 -12q-17 -5 -27.5 -1.5t-8.5 21.5q3 16 16.5 33t32.5 31t41 23.5t40 11.5q18 3 25 -8t-8 -34z" />
    <glyph glyph-name="ocircumflex" unicode="&#xf4;" horiz-adv-x="335" 
d="M74 378q12 4 17 -15q10 10 21 14q29 12 53 5t38 -37q14 -28 15.5 -69t-7.5 -85q24 -3 44 3.5t35.5 19.5t26.5 30.5t18 37.5q2 8 4.5 14.5t4.5 12.5q1 3 5.5 4t9 0t8 -3t2.5 -5l-9 -27q-8 -24 -21.5 -45.5t-32.5 -37.5t-44.5 -24.5t-56.5 -5.5q-11 -38 -28.5 -71.5
t-41.5 -56.5q-26 -26 -55 -33.5t-55 0t-46 29t-28 53.5q-9 34 -3.5 79.5t22 88t43 77t61.5 47.5zM73 303q-13 -15 -24.5 -40t-20 -53.5t-13 -57t-3.5 -50.5q2 -20 7.5 -35.5t16.5 -18.5q17 -6 32 7.5t33 40.5q13 19 23.5 45.5t16.5 54.5q-30 14 -48 44.5t-20 62.5zM147 223
q2 10 2.5 19t1.5 17q0 20 -6 37.5t-17 25.5q-8 5 -14.5 1.5t-8.5 -14.5q-3 -19 7 -42t35 -44zM185 418q-20 25 -38 44q-8 -7 -18 -15.5t-19.5 -16t-17 -13t-10.5 -6.5q-11 -3 -20 -1t-13.5 7t-3.5 13.5t11 17.5q-3 -2 8.5 8t28 23.5t32.5 25.5t24 13q9 1 18.5 -5.5
t18.5 -15.5t16.5 -18.5t12.5 -15.5q19 -24 19 -37t-9 -17.5t-21.5 -1.5t-18.5 11z" />
    <glyph glyph-name="otilde" unicode="&#xf5;" horiz-adv-x="335" 
d="M74 378q12 4 17 -15q10 10 21 14q29 12 53 5t38 -37q14 -28 15.5 -69t-7.5 -85q24 -3 44 3.5t35.5 19.5t26.5 30.5t18 37.5q2 8 4.5 14.5t4.5 12.5q1 3 5.5 4t9 0t8 -3t2.5 -5l-9 -27q-8 -24 -21.5 -45.5t-32.5 -37.5t-44.5 -24.5t-56.5 -5.5q-11 -38 -28.5 -71.5
t-41.5 -56.5q-26 -26 -55 -33.5t-55 0t-46 29t-28 53.5q-9 34 -3.5 79.5t22 88t43 77t61.5 47.5zM73 303q-13 -15 -24.5 -40t-20 -53.5t-13 -57t-3.5 -50.5q2 -20 7.5 -35.5t16.5 -18.5q17 -6 32 7.5t33 40.5q13 19 23.5 45.5t16.5 54.5q-30 14 -48 44.5t-20 62.5zM147 223
q2 10 2.5 19t1.5 17q0 20 -6 37.5t-17 25.5q-8 5 -14.5 1.5t-8.5 -14.5q-3 -19 7 -42t35 -44zM227 488q4 2 7 -1t4.5 -8t1 -11.5t-3.5 -10.5q-12 -24 -26.5 -30t-29.5 -2t-31.5 13t-32.5 15t-32 3.5t-31 -20.5q-2 -3 -5 -1t-6 6.5t-5 9.5t0 7q19 30 37 39t34.5 6.5
t31.5 -12.5t29.5 -16.5t29 -5.5t28.5 19z" />
    <glyph glyph-name="odieresis" unicode="&#xf6;" horiz-adv-x="335" 
d="M74 378q12 4 17 -15q10 10 21 14q29 12 53 5t38 -37q14 -28 15.5 -69t-7.5 -85q24 -3 44 3.5t35.5 19.5t26.5 30.5t18 37.5q2 8 4.5 14.5t4.5 12.5q1 3 5.5 4t9 0t8 -3t2.5 -5l-9 -27q-8 -24 -21.5 -45.5t-32.5 -37.5t-44.5 -24.5t-56.5 -5.5q-11 -38 -28.5 -71.5
t-41.5 -56.5q-26 -26 -55 -33.5t-55 0t-46 29t-28 53.5q-9 34 -3.5 79.5t22 88t43 77t61.5 47.5zM73 303q-13 -15 -24.5 -40t-20 -53.5t-13 -57t-3.5 -50.5q2 -20 7.5 -35.5t16.5 -18.5q17 -6 32 7.5t33 40.5q13 19 23.5 45.5t16.5 54.5q-30 14 -48 44.5t-20 62.5zM147 223
q2 10 2.5 19t1.5 17q0 20 -6 37.5t-17 25.5q-8 5 -14.5 1.5t-8.5 -14.5q-3 -19 7 -42t35 -44zM236 508q6 -15 3 -35t-12 -35t-21 -21.5t-24 5.5q-8 8 -11 21.5t-1 27.5t7.5 27.5t14.5 21.5q12 11 24.5 7.5t19.5 -19.5zM103 508q6 -15 3 -35t-11.5 -35t-21 -21.5t-24.5 5.5
q-8 8 -10.5 21.5t-1 27.5t7.5 27.5t15 21.5q12 11 24.5 7.5t18.5 -19.5z" />
    <glyph glyph-name="ugrave" unicode="&#xf9;" horiz-adv-x="392" 
d="M264 367q-3 -12 -11.5 -44t-17 -73t-15.5 -85t-7 -80q-1 -27 5.5 -36t15.5 -10q17 -2 38.5 17t35.5 43q17 29 32 64.5t27 67.5q8 23 14.5 43t11.5 34q1 3 5.5 4t9 0t8 -3t2.5 -5l-26 -77q-12 -35 -27.5 -71t-33.5 -68q-23 -42 -53.5 -65.5t-60.5 -22.5q-25 1 -46 19.5
t-22 60.5q-2 16 0 33q-20 -48 -48.5 -81t-67.5 -32q-25 1 -46 19.5t-23 60.5q-1 29 3 63t10.5 69t14.5 68.5t16 62.5q0 1 13 11.5t27.5 19.5t25 10t5.5 -17q-3 -12 -11.5 -44t-17 -73t-15.5 -85t-7 -80q0 -27 6 -36t16 -10q21 -3 40 22t35 63.5t29.5 82.5t23.5 80l14 56
q0 1 13.5 11.5t28 19.5t25 10t5.5 -17zM75 479q-15 23 -8 34t25 8q18 -2 40 -11.5t41 -23.5t32.5 -31t16.5 -33q2 -18 -8.5 -21.5t-27.5 1.5q-14 4 -30 12t-31 18t-28 22t-22 25z" />
    <glyph glyph-name="uacute" unicode="&#xfa;" horiz-adv-x="392" 
d="M264 367q-3 -12 -11.5 -44t-17 -73t-15.5 -85t-7 -80q-1 -27 5.5 -36t15.5 -10q17 -2 38.5 17t35.5 43q17 29 32 64.5t27 67.5q8 23 14.5 43t11.5 34q1 3 5.5 4t9 0t8 -3t2.5 -5l-26 -77q-12 -35 -27.5 -71t-33.5 -68q-23 -42 -53.5 -65.5t-60.5 -22.5q-25 1 -46 19.5
t-22 60.5q-2 16 0 33q-20 -48 -48.5 -81t-67.5 -32q-25 1 -46 19.5t-23 60.5q-1 29 3 63t10.5 69t14.5 68.5t16 62.5q0 1 13 11.5t27.5 19.5t25 10t5.5 -17q-3 -12 -11.5 -44t-17 -73t-15.5 -85t-7 -80q0 -27 6 -36t16 -10q21 -3 40 22t35 63.5t29.5 82.5t23.5 80l14 56
q0 1 13.5 11.5t28 19.5t25 10t5.5 -17zM215 490q-9 -13 -22 -25t-28 -22t-31 -18t-30 -12q-17 -5 -27.5 -1.5t-8.5 21.5q3 16 16.5 33t32.5 31t41 23.5t40 11.5q18 3 25 -8t-8 -34z" />
    <glyph glyph-name="ucircumflex" unicode="&#xfb;" horiz-adv-x="392" 
d="M264 367q-3 -12 -11.5 -44t-17 -73t-15.5 -85t-7 -80q-1 -27 5.5 -36t15.5 -10q17 -2 38.5 17t35.5 43q17 29 32 64.5t27 67.5q8 23 14.5 43t11.5 34q1 3 5.5 4t9 0t8 -3t2.5 -5l-26 -77q-12 -35 -27.5 -71t-33.5 -68q-23 -42 -53.5 -65.5t-60.5 -22.5q-25 1 -46 19.5
t-22 60.5q-2 16 0 33q-20 -48 -48.5 -81t-67.5 -32q-25 1 -46 19.5t-23 60.5q-1 29 3 63t10.5 69t14.5 68.5t16 62.5q0 1 13 11.5t27.5 19.5t25 10t5.5 -17q-3 -12 -11.5 -44t-17 -73t-15.5 -85t-7 -80q0 -27 6 -36t16 -10q21 -3 40 22t35 63.5t29.5 82.5t23.5 80l14 56
q0 1 13.5 11.5t28 19.5t25 10t5.5 -17zM182 439q-20 25 -38 44q-8 -7 -18 -15.5t-19.5 -16t-17 -13t-10.5 -6.5q-11 -3 -20 -1t-13.5 7t-3.5 13.5t11 17.5q-3 -2 8.5 8t28 23.5t32.5 25.5t24 13q9 1 18.5 -5.5t18.5 -15.5t16.5 -18.5t12.5 -15.5q19 -24 19 -37t-9 -17.5
t-21.5 -1.5t-18.5 11z" />
    <glyph glyph-name="udieresis" unicode="&#xfc;" horiz-adv-x="392" 
d="M264 367q-3 -12 -11.5 -44t-17 -73t-15.5 -85t-7 -80q-1 -27 5.5 -36t15.5 -10q17 -2 38.5 17t35.5 43q17 29 32 64.5t27 67.5q8 23 14.5 43t11.5 34q1 3 5.5 4t9 0t8 -3t2.5 -5l-26 -77q-12 -35 -27.5 -71t-33.5 -68q-23 -42 -53.5 -65.5t-60.5 -22.5q-25 1 -46 19.5
t-22 60.5q-2 16 0 33q-20 -48 -48.5 -81t-67.5 -32q-25 1 -46 19.5t-23 60.5q-1 29 3 63t10.5 69t14.5 68.5t16 62.5q0 1 13 11.5t27.5 19.5t25 10t5.5 -17q-3 -12 -11.5 -44t-17 -73t-15.5 -85t-7 -80q0 -27 6 -36t16 -10q21 -3 40 22t35 63.5t29.5 82.5t23.5 80l14 56
q0 1 13.5 11.5t28 19.5t25 10t5.5 -17zM250 499q6 -15 3 -35t-12 -35t-21 -21.5t-24 5.5q-8 8 -11 21.5t-1 27.5t7.5 27.5t14.5 21.5q12 11 24.5 7.5t19.5 -19.5zM117 499q6 -15 3 -35t-11.5 -35t-21 -21.5t-24.5 5.5q-8 8 -10.5 21.5t-1 27.5t7.5 27.5t15 21.5
q12 11 24.5 7.5t18.5 -19.5z" />
    <glyph glyph-name="yacute" unicode="&#xfd;" horiz-adv-x="369" 
d="M344 232l27 76q1 3 5 4t9 0t8.5 -3t2.5 -5q-6 -15 -12.5 -34.5t-14.5 -41.5q-11 -30 -30 -59.5t-42.5 -57t-48.5 -52.5t-49 -47q-11 -60 -20.5 -118t-17.5 -107q-5 -33 -17.5 -69t-45.5 -64q-7 -6 -17 -10t-21 -6.5t-21.5 -2t-19.5 3.5q-16 6 -23 19.5t-7 32.5t5 42
t13 46q9 24 22.5 55t30 61t34 55.5t34.5 39.5q12 61 21 122q-10 -24 -22 -44.5t-26.5 -35.5t-31.5 -23.5t-36 -7.5q-25 1 -45.5 19.5t-22.5 60.5q-1 29 3 63t10.5 69t14 68.5t15.5 61.5q0 1 13.5 11.5t28 19.5t25 10.5t5.5 -16.5q-3 -12 -11.5 -44t-17 -73t-15.5 -85t-7 -80
q0 -27 6 -36t15 -11q17 -2 32.5 14t29.5 42.5t26 60.5t22 67t18 62.5t14 46.5q2 10 15.5 23t28 21t24.5 8t6 -16q-2 -6 -7 -33.5t-13.5 -69.5t-18.5 -95.5t-20 -110.5q39 37 78 79.5t59 93.5zM122 -56q-12 -14 -26 -37.5t-26.5 -48.5t-22.5 -48.5t-14 -37.5
q-7 -20 -11.5 -39t-6 -34t2 -24.5t13.5 -11.5q18 -4 30 9.5t19 33t10 40.5t5 33q2 14 5.5 35t7 44.5t7.5 46t7 39.5zM237 483q-9 -13 -22 -25t-28 -22t-31 -18t-30 -12q-17 -5 -27.5 -1.5t-8.5 21.5q3 16 16.5 33t32.5 31t41 23.5t40 11.5q18 3 25 -8t-8 -34z" />
    <glyph glyph-name="ydieresis" unicode="&#xff;" horiz-adv-x="369" 
d="M344 232l27 76q1 3 5 4t9 0t8.5 -3t2.5 -5q-6 -15 -12.5 -34.5t-14.5 -41.5q-11 -30 -30 -59.5t-42.5 -57t-48.5 -52.5t-49 -47q-11 -60 -20.5 -118t-17.5 -107q-5 -33 -17.5 -69t-45.5 -64q-7 -6 -17 -10t-21 -6.5t-21.5 -2t-19.5 3.5q-16 6 -23 19.5t-7 32.5t5 42
t13 46q9 24 22.5 55t30 61t34 55.5t34.5 39.5q12 61 21 122q-10 -24 -22 -44.5t-26.5 -35.5t-31.5 -23.5t-36 -7.5q-25 1 -45.5 19.5t-22.5 60.5q-1 29 3 63t10.5 69t14 68.5t15.5 61.5q0 1 13.5 11.5t28 19.5t25 10.5t5.5 -16.5q-3 -12 -11.5 -44t-17 -73t-15.5 -85t-7 -80
q0 -27 6 -36t15 -11q17 -2 32.5 14t29.5 42.5t26 60.5t22 67t18 62.5t14 46.5q2 10 15.5 23t28 21t24.5 8t6 -16q-2 -6 -7 -33.5t-13.5 -69.5t-18.5 -95.5t-20 -110.5q39 37 78 79.5t59 93.5zM122 -56q-12 -14 -26 -37.5t-26.5 -48.5t-22.5 -48.5t-14 -37.5
q-7 -20 -11.5 -39t-6 -34t2 -24.5t13.5 -11.5q18 -4 30 9.5t19 33t10 40.5t5 33q2 14 5.5 35t7 44.5t7.5 46t7 39.5zM263 499q6 -15 3 -35t-12 -35t-21 -21.5t-24 5.5q-8 8 -11 21.5t-1 27.5t7.5 27.5t14.5 21.5q12 11 24.5 7.5t19.5 -19.5zM130 499q6 -15 3 -35t-11.5 -35
t-21 -21.5t-24.5 5.5q-8 8 -10.5 21.5t-1 27.5t7.5 27.5t15 21.5q12 11 24.5 7.5t18.5 -19.5z" />
    <glyph glyph-name="z" unicode="z" horiz-adv-x="348" 
d="M323 231l26 77q1 3 5.5 4t9 0t8 -3t2.5 -5l-26 -77q-11 -30 -30 -59.5t-42.5 -57t-48.5 -52.5t-49 -46q-11 -60 -20.5 -118t-17.5 -107q-5 -33 -18 -69t-46 -64q-13 -11 -37 -16.5t-41 0.5q-16 6 -23 20t-7 33t5 42t13 46q9 24 22.5 55t30 61t34 55.5t34.5 39.5
q5 24 8.5 48t8.5 47q-18 -23 -37.5 -40t-38.5 -20q-20 -3 -34 7t-19.5 27t-2 38.5t17.5 39.5q16 21 37 38.5t42.5 35.5t41.5 36.5t35 41.5q9 14 11.5 27.5t-8.5 21.5q-8 6 -23.5 0.5t-34 -15t-37 -19.5t-31.5 -12q-29 -5 -50 8.5t-29 46.5q-3 10 -3.5 24.5t1.5 30t6.5 30.5
t12.5 26q16 21 34 20t28 -21q7 -12 7.5 -28.5t-1.5 -33.5t-6 -34.5t-7 -30.5q13 4 35 17.5t47 24t49.5 12.5t41.5 -16q23 -24 18.5 -52.5t-24.5 -55.5q-14 -18 -30.5 -35t-34.5 -33.5t-35 -32.5t-32 -33q-8 -10 -13 -21t-5 -17.5t6.5 -4.5t21.5 18q14 14 28.5 33.5
t25.5 33.5q13 19 26.5 24.5t24 4t17 -7.5t5.5 -10l-22 -121q39 37 78 79.5t59 93.5zM101 -56q-12 -14 -26 -37.5t-26.5 -49t-22.5 -49t-15 -37.5q-6 -20 -11 -39t-6 -34t2.5 -24.5t13.5 -11.5q18 -3 30 10t18.5 32.5t10 41t5.5 33.5q2 14 5.5 35t7 44.5t7.5 46t7 39.5z
M24 437q-3 12 -10 14t-15 -14q-6 -13 -9 -30t-3 -24q-2 -27 9 -41q5 -8 11 -12q3 11 6.5 25.5t6.5 29.5t4.5 28.5t-0.5 23.5z" />
    <glyph glyph-name="A.001" unicode="&#xe000;" horiz-adv-x="585" 
d="M387 352q11 75 25.5 148t26.5 132q-2 0 -6 -2q-12 -30 -29 -66.5t-38.5 -77t-45.5 -83t-49 -84.5q29 8 57 16.5t59 16.5zM-235 9q-54 -13 -104 2.5t-82 72.5q-18 33 -21.5 68.5t2.5 71t19.5 70t30.5 64.5q3 4 7 5t7.5 -1.5t5 -6.5t-1.5 -8q-15 -26 -27.5 -57.5t-17 -64
t0.5 -64.5t25 -59q24 -32 67 -44t86 -1q74 19 124 62t86 100.5t63 125t56.5 134t66 127.5t91.5 107q17 14 40.5 26t48 18.5t47.5 6t39 -10.5t22.5 -31t-1.5 -55q8 2 12 4t10.5 3t13.5 -0.5t12.5 -6t7.5 -13.5l-28 -140t-30 -161q2 -4 -1 -8q-13 -80 -19.5 -149.5t0.5 -111.5
q3 -19 10.5 -32t21.5 -3q13 9 25 22.5t20 28.5q17 29 32 65t27 69q8 19 14 37.5t13 37.5q1 3 5 4t9 0t8.5 -3.5t2.5 -5.5l-27 -78q-13 -34 -28 -69.5t-32 -67.5q-25 -45 -58 -68q-25 -18 -42.5 -20t-28.5 6.5t-17.5 25.5t-9.5 37q-6 42 -1.5 108t15.5 142l-66 -18t-65 -19
q-43 -72 -81.5 -135t-63.5 -106q0 -1 -8 -6t-19 -12t-23 -13t-21 -8.5t-12 0t4 14.5q23 39 62.5 104t83.5 141l-64 -18q-21 -6 -31 -4t-9 7.5t13 12.5t33 13q20 5 39.5 10.5t38.5 11.5q24 42 48.5 85t46 84t40 78t32.5 69q14 38 16.5 60.5t-4 34t-18.5 13t-26.5 -2
t-29.5 -11.5t-26 -15q-35 -24 -63 -62.5t-52.5 -86t-47 -101.5t-47 -108t-52 -105.5t-63 -95t-80 -75.5t-102.5 -47z" />
    <glyph glyph-name="B.001" unicode="&#xe001;" horiz-adv-x="617" 
d="M110 656q24 42 54 65.5t60 22.5q25 -1 46 -19.5t23 -60.5v-7q19 17 41 33t45.5 28t48 18.5t47.5 4.5q37 -3 69.5 -27t39.5 -62q8 -44 -11 -86t-52 -78t-73.5 -63.5t-76.5 -42.5q53 -1 90.5 -20.5t58.5 -50t27.5 -69t-2.5 -78.5t-32.5 -77t-60.5 -65q-38 -29 -84 -45.5
t-95 -24t-99 -7.5t-96 5q-7 1 -10 5.5t-2 9.5t4.5 9t10.5 3q40 -5 83.5 -3t87 11t83.5 25t73 41q28 22 47 54t26 66.5t0.5 69t-28 61t-60.5 41.5t-97 12q-19 -1 -29.5 4t-13 12.5t3.5 14.5t21 10q48 8 91 31.5t76.5 55.5t54.5 67t23.5 65.5t-15 52t-61.5 25.5q-23 2 -44 -3
t-41 -15.5t-38 -25t-33 -30.5q-4 -40 -13.5 -89.5t-22.5 -103.5t-28 -108.5t-30 -105.5t-28 -95t-21 -76q0 -1 -13.5 -11.5t-28 -19.5t-24.5 -10.5t-5 16.5q9 32 23.5 81.5t31 108.5t34 123t31 125t22.5 114.5t10 90.5q0 27 -6 36t-16 10q-17 2 -38.5 -17t-35.5 -43
q-28 -48 -48 -99t-37.5 -102t-36 -101t-43.5 -96q-22 -41 -48.5 -79t-58 -70t-67.5 -55.5t-78 -33.5q-54 -13 -104 2.5t-82 72.5q-18 33 -21.5 68.5t2.5 71t19.5 70t30.5 64.5q3 4 7 5t7.5 -1.5t5 -6.5t-1.5 -8q-15 -26 -27.5 -57.5t-17 -64t0.5 -64.5t25 -59q24 -32 67 -44
t86 -1q39 10 73 30.5t63 48.5t54 61.5t45 69.5q26 47 45 96.5t36.5 99.5t36 98.5t44.5 94.5z" />
    <glyph glyph-name="C.001" unicode="&#xe002;" horiz-adv-x="478" 
d="M445 738q27 -8 43.5 -21.5t23.5 -31.5t6 -39.5t-8 -45.5q-11 -35 -32 -78t-50.5 -89.5t-66 -94t-78.5 -93t-88 -86.5t-94 -73q6 -20 14.5 -36t20.5 -28q22 -22 53.5 -23t64.5 10q74 24 122 84.5t77 139.5l27 75q1 3 5 4t8.5 0t8 -3t2.5 -5q-7 -20 -13 -39t-14 -39
q-17 -46 -39.5 -90.5t-53 -81.5t-70.5 -64t-91 -39q-38 -8 -75 -2t-64 33t-42 68l-14 -7q-63 -32 -116.5 -37t-94 11t-66.5 50t-34 79.5t2.5 100t43.5 111.5q3 4 7 5t7.5 -1.5t5 -6.5t-1.5 -8q-28 -49 -37.5 -96.5t-2 -87.5t30 -69.5t58 -43.5t83 -9.5t103.5 33.5l17 9
q-14 61 -9 137t27 154t59.5 150t88 124.5t113 78.5t133.5 11zM436 710q-49 4 -95 -24t-86.5 -75.5t-73 -110.5t-54.5 -129.5t-31 -131.5t-2 -118q68 46 132 109.5t116 131t88.5 133t50.5 116.5q11 39 2 66.5t-47 32.5z" />
    <glyph glyph-name="D.001" unicode="&#xe003;" horiz-adv-x="591" 
d="M110 656q24 42 54 65.5t60 22.5q18 -1 35 -10.5t26 -30.5q34 22 63 31.5t53.5 8.5t45 -11t37.5 -25q34 -32 53.5 -85t24 -118t-6 -136t-35 -138t-64.5 -125t-94 -97.5t-122 -54.5t-151 4q-6 1 -8 5.5t-1.5 9.5t4.5 8.5t10 2.5q66 -16 122 -1t101 52t79.5 90.5t56.5 115
t32.5 125.5t8.5 122.5t-17 105.5t-43 74q-23 22 -58.5 24.5t-83.5 -20.5q1 -2 1 -7q1 -37 -6.5 -87.5t-20.5 -108t-29.5 -118t-33 -117.5t-31.5 -107t-24 -85q0 -1 -13 -11.5t-27.5 -19.5t-25 -10.5t-5.5 16.5q9 32 23.5 81.5t31 108.5t34 123t31 125t22.5 114.5t10 90.5
q0 27 -6 36t-16 10q-8 1 -18 -3.5t-20 -13t-19.5 -20t-16.5 -23.5q-28 -48 -48 -99t-37.5 -102t-36 -101t-43.5 -96q-22 -41 -48.5 -79t-58 -70t-67.5 -55.5t-78 -33.5q-54 -13 -104 2.5t-82 72.5q-18 33 -21.5 68.5t2.5 71t19.5 70t30.5 64.5q3 4 7 5t7.5 -1.5t5 -6.5
t-1.5 -8q-15 -26 -27.5 -57.5t-17 -64t0.5 -64.5t25 -59q24 -32 67 -44t86 -1q39 10 73 30.5t63 48.5t54 61.5t45 69.5q26 47 45 96.5t36.5 99.5t36 98.5t44.5 94.5z" />
    <glyph glyph-name="E.001" unicode="&#xe004;" horiz-adv-x="481" 
d="M257 8q74 25 122 85.5t77 139.5l27 75q1 3 5 4t8.5 0t8 -3t2.5 -5q-7 -20 -13 -39t-14 -39q-17 -47 -39.5 -91.5t-53 -81.5t-70.5 -64t-91 -38q-38 -8 -68.5 -4.5t-54 17t-40 34.5t-26.5 47l-5 -3q-64 -32 -117 -37t-93.5 11t-66.5 50t-34 79.5t2.5 100t43.5 111.5
q3 4 7 5t7.5 -1.5t5 -6.5t-1.5 -8q-29 -49 -38 -96.5t-1.5 -87.5t30 -69.5t58 -43.5t83 -9t103.5 33l8 4q-5 25 -5 47q-2 48 12 95t38 84.5t57 60t69 22.5q-37 11 -56.5 41.5t-21 70t14.5 82.5t49 79.5t83 60t116 23.5q37 0 66.5 -8.5t47.5 -26t22.5 -45t-6.5 -64.5
q-16 -53 -55 -122t-93.5 -140.5t-121.5 -138t-139 -114.5q4 -25 15 -44t29.5 -30t45 -12.5t62.5 10.5zM378 711q-44 -7 -80 -30.5t-60.5 -54.5t-37 -66.5t-10 -65.5t20.5 -50.5t54 -23.5q12 -2 13.5 -15t-2.5 -22q-36 1 -68 -23.5t-55.5 -63t-37.5 -85t-14 -89.5
q67 47 130.5 110t115.5 129.5t88 132t50 116.5q9 33 2 54.5t-23.5 32.5t-39.5 14t-46 0z" />
    <glyph glyph-name="F.001" unicode="&#xe005;" horiz-adv-x="391" 
d="M239 718q1 10 11.5 17t23 8.5t22 -2.5t8.5 -17q-2 -16 -6 -45.5t-10 -69t-14 -86.5t-18 -97l79 16l3 7q3 8 12.5 6.5t18.5 -8t14.5 -16.5t2.5 -18q-11 -29 -19.5 -58t-19.5 -58q-3 -8 -11 -6.5t-15.5 8t-12 16.5t-1.5 18q8 20 11.5 40t8.5 40l-77 -16q-15 -71 -33.5 -141
t-40.5 -126.5t-47.5 -92t-53.5 -37.5q-32 -3 -53 13t-34 42t-19.5 59.5t-8 66.5t-0.5 61.5t3 45.5q0 3 5 6t10 3.5t9 -2t2 -10.5q-3 -14 -4 -40.5t1 -57t7.5 -60.5t15.5 -50.5t24.5 -28t34.5 7.5q19 14 36.5 47t33 77.5t28.5 97.5t24 108l-101 -20q-6 -2 -10.5 1.5t-5.5 8.5
q-3 12 10 16l112 22q9 49 16.5 96t13 87.5t9 72t5.5 48.5zM-93 578q-3 -11 -15 -9.5t-13 7.5q17 81 59 126.5t101 67.5t129.5 26.5t144 2.5t144.5 -4.5t131.5 6.5t105.5 34t65 79q1 5 5.5 5.5t9.5 -2.5t8 -8.5t1 -11.5q-26 -60 -73 -90.5t-107 -43t-128.5 -12t-138.5 3
t-138 1t-125 -18t-100.5 -53.5t-65.5 -106z" />
    <glyph glyph-name="G.001" unicode="&#xe006;" horiz-adv-x="544" 
d="M385 367q2 9 14 15t24.5 8.5t22.5 0.5t8 -10q-20 -77 -42 -151.5t-39 -132.5l10 5q49 30 73 52.5t41 45.5q14 20 27 43t28 65q1 3 5 4t9 0t8.5 -3t2.5 -5q-16 -45 -30 -70.5t-30 -47.5q-18 -26 -44 -51t-77 -55q-15 -11 -33 -21q-12 -42 -27 -90t-33 -96t-39.5 -92.5
t-47.5 -80.5q-31 -42 -70.5 -57t-71 -3t-46.5 50t4 100q12 41 39.5 77.5t64 68.5t78 60.5t82.5 53.5l48 166q-32 -46 -67.5 -79t-70.5 -50t-66.5 -17t-53.5 21q-20 -14 -41 -26t-41 -22q-64 -32 -117 -37t-93.5 11t-66.5 50t-34 79.5t2.5 100t43.5 111.5q3 4 7 5t7.5 -1.5
t5 -6.5t-1.5 -8q-29 -49 -38 -96.5t-1.5 -87.5t30 -69.5t58 -43.5t83 -9.5t103.5 33.5q35 18 74 44q-14 24 -18 60q-9 59 -3.5 127t24.5 135t51 127t76 103t100.5 62.5t124.5 5.5q27 -8 43.5 -21.5t23.5 -31.5t6 -39.5t-8 -45.5q-14 -47 -47 -107.5t-79 -124t-102.5 -125
t-119.5 -112.5q15 -15 37.5 -11t47.5 21t51 44.5t48 58.5t39 63.5t24 59.5zM412 710q-47 3 -88.5 -19t-75.5 -62t-60.5 -93t-44 -110.5t-25.5 -115.5t-4 -108q2 -28 7 -43q60 48 115.5 107.5t100.5 120.5t76.5 119t43.5 105q11 39 2 66.5t-47 32.5zM285 13
q-36 -23 -72.5 -49t-67.5 -55t-54.5 -61t-33.5 -66q-12 -42 -3 -64.5t29 -27t46.5 9t47.5 44.5q15 23 32 57.5t32 72.5t27 75t17 64z" />
    <glyph glyph-name="H.001" unicode="&#xe007;" horiz-adv-x="578" 
d="M110 656q24 42 54 65.5t60 22.5q25 -1 46 -19.5t23 -60.5q1 -33 -5.5 -78.5t-18 -97.5t-26 -108t-29.5 -110q43 -4 82.5 6.5t73.5 39.5q10 42 22 85t24 84t23 78t20 68q3 11 7.5 24.5t9.5 26.5t11.5 24.5t13.5 18.5q11 11 23.5 15.5t23 1.5t18.5 -12t11 -25q3 -21 -2 -48
q-7 -38 -22.5 -80.5t-34.5 -85.5t-40 -84t-38 -76q-17 -70 -29 -134.5t-12 -111.5q-1 -27 5.5 -35.5t15.5 -10.5q17 -2 38.5 17.5t35.5 43.5q17 29 32 65t27 68q7 19 13.5 37.5t12.5 37.5q1 3 5.5 4t9 0t8 -3t2.5 -5q-7 -20 -13 -39t-14 -39q-12 -34 -27 -70t-33 -68
q-23 -42 -53.5 -65.5t-60.5 -22.5q-25 1 -46 19.5t-22 61.5q-2 38 5.5 88t20.5 107q-35 -22 -73.5 -29t-80.5 -2q-17 -61 -33 -114t-26 -90q0 -1 -13 -11.5t-27.5 -19.5t-25 -10.5t-5.5 16.5q11 38 29.5 102t39.5 139q-39 12 -79 30q-6 3 -7 8t1 9.5t7 7t11 -0.5
q18 -8 36 -15.5t38 -12.5q14 52 27.5 105.5t24 103t17.5 92.5t7 75q0 27 -6 36t-16 10q-8 1 -18 -3.5t-20 -13t-19.5 -20t-16.5 -23.5q-28 -48 -48 -99t-37.5 -102t-36 -101t-43.5 -96q-22 -41 -48.5 -79t-58 -70t-67.5 -55.5t-78 -33.5q-54 -13 -104 2.5t-82 72.5
q-18 33 -21.5 68.5t2.5 71t19.5 70t30.5 64.5q3 4 7 5t7.5 -1.5t5 -6.5t-1.5 -8q-15 -26 -27.5 -57.5t-17 -64t0.5 -64.5t25 -59q24 -32 67 -44t86 -1q39 10 73 30.5t63 48.5t54 61.5t45 69.5q26 47 45 96.5t36.5 99.5t36 98.5t44.5 94.5zM532 664q-10 -35 -24 -83t-29 -102
q-2 -7 -4 -13.5t-4 -11.5q23 48 47 102t32 106q2 15 2 25t-2.5 11.5t-7 -6t-10.5 -28.5z" />
    <glyph glyph-name="I.001" unicode="&#xe008;" horiz-adv-x="292" 
d="M110 656q24 42 54 65.5t60 22.5q25 -1 46 -19.5t23 -60.5q1 -37 -6.5 -87.5t-20.5 -108t-29.5 -118t-33 -117.5t-31.5 -107t-24 -85q0 -1 -13 -11.5t-27.5 -19.5t-25 -10.5t-5.5 16.5q9 32 23.5 81.5t31 108.5t34 123t31 125t22.5 114.5t10 90.5q0 27 -6 36t-16 10
q-17 2 -38.5 -17t-35.5 -43q-28 -48 -48 -99t-37.5 -102t-36 -101t-43.5 -96q-22 -41 -48.5 -79t-58 -70t-67.5 -55.5t-78 -33.5q-54 -13 -104 2.5t-82 72.5q-18 33 -21.5 68.5t2.5 71t19.5 70t30.5 64.5q3 4 7 5t7.5 -1.5t5 -6.5t-1.5 -8q-15 -26 -27.5 -57.5t-17 -64
t0.5 -64.5t25 -59q24 -32 67 -44t86 -1q39 10 73 30.5t63 48.5t54 61.5t45 69.5q26 47 45 96.5t36.5 99.5t36 98.5t44.5 94.5z" />
    <glyph glyph-name="J.001" unicode="&#xe009;" horiz-adv-x="377" 
d="M153 656q24 42 54 65.5t60 22.5q25 -1 46 -19.5t23 -60.5q1 -48 -12.5 -120.5t-33.5 -151.5t-43 -157t-40 -138l9 5q49 30 73 52.5t41 45.5q14 20 27.5 43t27.5 65q1 3 5.5 4t9 0t8 -3t2.5 -5q-16 -45 -30 -70.5t-30 -48.5q-18 -26 -44 -50.5t-77 -54.5q-15 -11 -33 -21
q-12 -42 -27 -90t-33 -96t-39.5 -92.5t-47.5 -80.5q-31 -42 -70.5 -57t-71 -3t-46.5 50t4 100q12 41 40 77.5t64 68.5t77.5 60.5t82.5 53.5q11 37 25.5 87t30 106.5t31 115.5t27.5 114t20 103t8 83q1 27 -5 36t-16 10q-17 2 -38.5 -17t-35.5 -43q-28 -48 -48 -99t-37.5 -102
t-36 -101t-43.5 -96q-22 -41 -48.5 -79t-58 -70t-67.5 -55.5t-78 -33.5q-54 -13 -104 2.5t-82 72.5q-18 33 -21.5 68.5t2.5 71t19.5 70t30.5 64.5q3 4 7 5t7.5 -1.5t5 -6.5t-1.5 -8q-15 -26 -27.5 -57.5t-17 -64t0.5 -64.5t25 -59q24 -32 67 -44t86 -1q39 10 73 30.5
t63 48.5t54 61.5t45 69.5q26 47 45 97t36 99.5t36 98.5t45 94zM119 13q-36 -23 -72.5 -49t-68 -55t-55 -61t-33.5 -66q-12 -42 -3 -64.5t29.5 -27t46.5 9t47 44.5q15 23 32 57.5t32 72.5t27 75t18 64z" />
    <glyph glyph-name="K.001" unicode="&#xe00a;" horiz-adv-x="500" 
d="M110 656q24 42 54 65.5t60 22.5q25 -1 46 -19.5t23 -60.5q2 -45 -10 -110t-30 -138q19 20 37.5 38.5t36.5 38.5q45 46 91 94.5t88 96.5q4 5 13 4.5t17 -3.5t12.5 -8t0.5 -10q-42 -49 -89 -97.5t-92 -95.5q-23 -23 -45.5 -47t-45.5 -47q8 -3 17 -8q19 -13 33 -40.5
t25 -63.5t20.5 -77.5t20.5 -82.5t24.5 -77.5t32.5 -63.5q4 -5 -1 -10.5t-13 -8.5t-16.5 -2.5t-12.5 5.5q-19 26 -33 63t-25.5 77.5t-21.5 81.5t-20.5 76.5t-22 62t-26.5 37.5q-7 5 -11 6.5t-9 1.5q-12 -46 -25 -91t-25 -86t-22.5 -76.5t-17.5 -62.5q0 -1 -13 -11.5
t-27.5 -19.5t-25 -10.5t-5.5 16.5q9 32 23.5 81.5t31.5 108.5t34 123t31 125t23 114.5t9 90.5q0 27 -6 36t-16 10q-8 1 -18 -3.5t-20 -13t-19.5 -20t-16.5 -23.5q-28 -48 -48 -99t-37.5 -102t-36 -101t-43.5 -96q-22 -41 -48.5 -79t-58 -70t-67.5 -55.5t-78 -33.5
q-54 -13 -104 2.5t-82 72.5q-18 33 -21.5 68.5t2.5 71t19.5 70t30.5 64.5q3 4 7 5t7.5 -1.5t5 -6.5t-1.5 -8q-15 -26 -27.5 -57.5t-17 -64t0.5 -64.5t25 -59q24 -32 67 -44t86 -1q39 10 73 30.5t63 48.5t54 61.5t45 69.5q26 47 45 96.5t36.5 99.5t36 98.5t44.5 94.5z" />
    <glyph glyph-name="L.001" unicode="&#xe00b;" horiz-adv-x="400" 
d="M110 656q24 42 54.5 65.5t60.5 22.5q25 -1 45.5 -19.5t22.5 -60.5q1 -36 -6.5 -86.5t-20.5 -107.5t-29 -118t-32.5 -118t-31.5 -107t-24 -85q33 3 66.5 -4.5t65 -17.5t60 -19t51.5 -9q7 1 10.5 -6t3.5 -15.5t-3 -16t-10 -7.5q-35 -2 -67 6.5t-61.5 19.5t-57.5 20.5
t-55.5 10.5t-55 -11t-55.5 -44q-5 -5 -9 -4t-6.5 4.5t-2.5 9.5t4 11q12 16 24.5 27.5t25.5 19.5q9 32 23.5 81.5t31.5 108.5t34 123t31 124.5t23 114t9 90.5q0 27 -6 36t-15 10q-17 2 -38.5 -17t-35.5 -43q-28 -48 -48 -98.5t-37.5 -101.5t-36 -101t-44.5 -97
q-22 -41 -48.5 -79t-58 -70t-67.5 -55.5t-78 -33.5q-54 -13 -104 2.5t-82 72.5q-18 33 -21.5 68.5t2.5 71t19.5 70t30.5 64.5q3 4 7 5t7.5 -1.5t5 -6.5t-1.5 -8q-15 -26 -27.5 -57.5t-17 -64t0.5 -64.5t25 -59q24 -32 67 -44t86 -1q39 10 73 30.5t63 48.5t54 61.5t45 69.5
q26 47 45 97t36.5 99.5t36 98.5t44.5 94z" />
    <glyph glyph-name="M.001" unicode="&#xe00c;" horiz-adv-x="758" 
d="M110 656q23 42 53.5 65.5t60.5 22.5q25 -1 46 -19.5t22 -60.5q1 -20 -1 -45t-7 -54q6 16 12 30.5t12 28.5q5 13 15 35t24 41t31 28.5t36 -3.5q22 -16 30.5 -58.5t8 -98t-8.5 -117t-17 -115.5q21 48 47.5 104t55 108t57.5 95t55 67q13 11 31 18t32 3q8 -3 15 -10t4 -19
q-11 -36 -25.5 -86t-30.5 -107t-32 -117.5t-28.5 -117t-20.5 -105.5t-8 -84q0 -27 6 -36t15 -10q17 -2 38.5 17t35.5 43q15 25 28 55t24 59t19.5 54t14.5 41q1 3 5 4t9 0t8.5 -3t2.5 -5q-7 -20 -16 -46t-20 -55.5t-23.5 -59t-27.5 -55.5q-24 -42 -54.5 -65.5t-60.5 -22.5
q-25 1 -45.5 19.5t-22.5 60.5q-1 35 6 83t19 103t27.5 113.5t31.5 114t30.5 105t25.5 87.5q-20 -20 -43 -54.5t-46.5 -76.5t-46.5 -87t-42 -86.5t-34 -75t-22 -52.5q-2 -4 -6 -14.5t-9 -21.5t-11 -17t-11 -5.5t-7.5 6.5t0.5 19q22 97 36 197q1 12 4 36.5t5 54t3 61.5
t-1.5 59.5t-8.5 47.5t-18 26q-9 4 -19 -6.5t-19 -27t-16.5 -33t-10.5 -22.5q-35 -83 -64 -177.5t-55 -181.5q-14 -48 -29 -102t-34 -102q-3 -13 -16.5 -25t-27.5 -19t-24 -6t-6 15q9 32 23.5 81.5t31.5 108.5t34 123t31 125t23 114.5t9 90.5q1 27 -5.5 36t-15.5 10
q-17 2 -38.5 -17t-35.5 -43q-30 -52 -49.5 -103t-37 -101t-36 -101t-47.5 -103q-22 -39 -48 -75.5t-57 -67t-66.5 -53t-75.5 -32.5q-54 -13 -104 2.5t-82 72.5q-18 33 -21.5 68.5t2.5 71t19.5 70t30.5 64.5q3 4 7 5t7.5 -1.5t5 -6.5t-1.5 -8q-15 -26 -27.5 -57.5t-17 -64
t0.5 -64.5t25 -59q24 -32 67 -44t86 -1q74 19 129.5 73t96.5 122q29 49 49 100.5t38 103t37.5 102.5t46.5 98z" />
    <glyph glyph-name="N.001" unicode="&#xe00d;" horiz-adv-x="660" 
d="M110 656q24 42 54.5 65.5t60.5 22.5q25 -1 45.5 -19.5t22.5 -60.5q2 -41 -8 -98.5t-25 -123.5q19 47 40 90.5t42.5 79.5t44.5 62.5t46 38.5q32 18 60 18.5t48 -10.5q35 -17 47 -60t-3 -98q-18 -60 -36.5 -127.5t-33.5 -132.5t-25 -122t-10 -96q0 -27 6 -36t16 -10
q16 -2 38 17t36 43q14 25 27 55t24.5 59t20 54t13.5 41q1 3 5.5 4t9 0t8 -3t2.5 -5q-7 -20 -16 -46t-20 -55.5t-23.5 -59t-27.5 -55.5q-24 -42 -54 -65.5t-60 -22.5q-25 1 -46 19.5t-23 60.5q-2 52 10.5 119.5t30.5 139t38.5 139.5t35.5 120q8 28 5 51t-14.5 37t-31 16
t-44.5 -12q-28 -15 -58 -59.5t-60 -105t-58.5 -130.5t-52 -137t-41.5 -124.5t-28 -92.5q0 -1 -13 -11.5t-27.5 -19.5t-25 -10.5t-5.5 16.5q9 32 23.5 81.5t31.5 108.5t34 123t31 125t23 114.5t9 90.5q0 27 -6 36t-16 10q-17 2 -38 -17t-35 -43q-32 -55 -52.5 -109
t-39.5 -107.5t-40 -107.5t-54 -109q-21 -35 -46 -67.5t-54 -59.5t-62 -47t-70 -29q-54 -13 -104 2.5t-82 72.5q-18 33 -21.5 68.5t2.5 71t19.5 70t30.5 64.5q3 4 7 5t7.5 -1.5t5 -6.5t-1.5 -8q-15 -26 -27.5 -57.5t-17 -64t0.5 -64.5t25 -59q24 -32 67 -44t86 -1
q67 17 119.5 64t91.5 107q33 51 55.5 105t41.5 109t39.5 109.5t49.5 104.5z" />
    <glyph glyph-name="O.001" unicode="&#xe00e;" horiz-adv-x="450" 
d="M234 23q-32 -17 -58 -21t-48 4q-26 9 -45 30.5t-32 53.5q-25 -17 -49 -32.5t-50 -27.5q-64 -32 -117 -37t-93.5 11t-66.5 50t-34 79.5t2.5 100t43.5 111.5q3 4 7 5t7.5 -1.5t5 -6.5t-1.5 -8q-29 -49 -38 -96.5t-1.5 -87.5t30 -69.5t58 -43.5t83 -9.5t103.5 33.5
q48 23 99 62q-17 57 -17.5 130t15.5 147.5t48 143t82 117.5q17 17 37.5 30t42.5 24q42 19 82 21t68.5 -14t40 -50t-3.5 -85q-5 -14 -10.5 -29t-12.5 -31q6 -64 -3 -141.5t-32 -149.5t-59 -130t-83 -83zM266 678q-26 -17 -48 -38.5t-38 -44.5q-32 -46 -53.5 -102.5
t-32 -114.5t-11.5 -114t8 -101q47 40 91 87t81.5 95.5t67.5 96.5t50 91q-2 27 -7.5 49.5t-13.5 38.5q-7 13 -17 19t-20 4q-14 -2 -22.5 -18.5t-13 -40.5t-6 -52t-0.5 -54.5t3.5 -48t5.5 -31.5q2 -6 -1.5 -9.5t-8.5 -4t-10.5 2.5t-6.5 9q-3 13 -5.5 37.5t-3.5 54.5t1.5 61.5
t10 58t21.5 43.5t36 19q15 1 30 -7t26 -25q7 -11 12.5 -24.5t9.5 -29.5q2 3 2.5 6.5t1.5 6.5q12 44 2.5 69.5t-31 34t-51.5 2t-59 -25.5zM159 54q25 -6 58 8q36 15 66 58t51 101.5t33.5 124t14.5 125.5q-23 -42 -54 -87t-67 -89.5t-77 -86.5t-85 -79q10 -30 25 -50t35 -25z
" />
    <glyph glyph-name="P.001" unicode="&#xe00f;" horiz-adv-x="542" 
d="M110 656q24 42 54 65.5t60 22.5q19 -1 36.5 -11.5t25.5 -33.5q40 19 81 27t78 2q53 -9 85 -46t40 -88.5t-9 -109.5t-61.5 -109.5t-117.5 -89.5t-177 -48q-17 -58 -32 -109t-25 -87q0 -1 -13 -11.5t-27.5 -19.5t-25 -10.5t-5.5 16.5q8 30 21.5 76t29.5 101.5t32.5 116
t30.5 119t24 111.5t13 94q-39 -28 -64 -59q-4 -5 -9.5 -5t-9.5 3t-5 8t3 10q17 21 39 40t47 36q-1 22 -7 29.5t-15 8.5q-8 1 -18 -3.5t-20 -13t-19.5 -20t-16.5 -23.5q-27 -48 -46.5 -98.5t-37.5 -101.5t-36.5 -101t-44.5 -97q-22 -41 -48.5 -79t-58 -70t-67.5 -55.5
t-78 -33.5q-54 -13 -104 2.5t-82 72.5q-18 33 -21.5 68.5t2.5 71t19.5 70t30.5 64.5q3 4 7 5t7.5 -1.5t5 -6.5t-1.5 -8q-15 -26 -27.5 -57.5t-17 -64t0.5 -64.5t25 -59q24 -32 67 -44t86 -1q39 10 73 30.5t63 48.5t54 61.5t45 69.5q26 47 45 96.5t36.5 99.5t36 98.5
t44.5 94.5zM292 671q1 -2 1 -7q1 -33 -5 -77t-17 -94.5t-25 -105t-29 -107.5q77 10 132.5 42t90.5 74.5t50 90.5t11 90t-26.5 73t-62.5 40q-28 6 -58.5 0.5t-61.5 -19.5z" />
    <glyph glyph-name="Q.001" unicode="&#xe010;" horiz-adv-x="450" 
d="M297 88q17 -24 28 -53.5t13 -61.5q0 -7 -4.5 -10.5t-10 -4.5t-10.5 2t-5 9q-5 54 -36 92q-17 -16 -38 -27q-32 -17 -58 -21t-48 4q-26 9 -45 30.5t-32 53.5q-25 -17 -49 -32.5t-50 -27.5q-64 -32 -117 -37t-93.5 11t-66.5 50t-34 79.5t2.5 100t43.5 111.5q3 4 7 5
t7.5 -1.5t5 -6.5t-1.5 -8q-29 -49 -38 -96.5t-1.5 -87.5t30 -69.5t58 -43.5t83 -9t103.5 33q48 23 99 62q-17 57 -17.5 130t15.5 147.5t48 143t82 117.5q17 17 37.5 30t42.5 24q42 19 82 21t68.5 -14t40 -50t-3.5 -85q-5 -14 -10.5 -29t-12.5 -31q5 -53 0 -114.5t-20 -123
t-38.5 -117t-55.5 -95.5zM180 606q-32 -46 -53.5 -102.5t-32.5 -114.5t-12 -114t8 -101q48 40 92 87t81.5 95.5t67.5 96.5t50 91q-2 27 -7.5 49.5t-13.5 38.5q-7 13 -17 19t-20 4q-14 -2 -22.5 -18.5t-13 -40.5t-6 -52t-0.5 -54.5t3.5 -48t5.5 -31.5q2 -6 -1.5 -9.5t-8.5 -4
t-10.5 2.5t-6.5 9q-3 13 -5.5 37.5t-3.5 54.5t1.5 61.5t10 57.5t21.5 43.5t36 18.5q15 2 30 -6t26 -25q7 -11 12.5 -24.5t9.5 -29.5q2 3 2.5 6.5t1.5 6.5q12 44 2.5 69.5t-31 34t-51.5 2t-59 -25.5q-26 -17 -48 -38.5t-38 -44.5zM159 65q24 -7 59 7q6 3 12.5 6.5t12.5 8.5
q-19 12 -42 15t-49 -5q-6 -2 -9.5 3.5t-4 13t2.5 15.5t9 10q36 11 66.5 3.5t54.5 -27.5q25 30 44.5 73t34 92.5t22.5 101.5t10 100q-23 -42 -54 -87t-67 -89.5t-77 -87t-85 -79.5q10 -29 25 -49t35 -25z" />
    <glyph glyph-name="R.001" unicode="&#xe011;" horiz-adv-x="591" 
d="M110 656q24 42 54 65.5t60 22.5q19 -1 36.5 -11.5t25.5 -33.5q40 19 81 27t78 2q47 -8 77.5 -38.5t42.5 -73.5t5 -93.5t-35 -99.5t-78 -91t-123 -67q31 -27 57.5 -63t46.5 -75.5t32.5 -80t15.5 -77.5q0 -7 -8.5 -12.5t-19.5 -8.5t-20.5 -2t-9.5 7q-3 38 -13.5 80.5
t-27.5 83t-41.5 76t-56.5 59.5q-39 -11 -84 -15q-17 -59 -32 -109.5t-25 -86.5q0 -1 -13 -11.5t-27.5 -19.5t-25 -10.5t-5.5 16.5q8 30 21.5 76t29.5 101.5t32.5 116t30.5 119t24 111.5t13 94q-39 -28 -64 -59q-4 -5 -9.5 -5t-9.5 3t-5 8t3 10q17 21 39 40t47 36
q-1 22 -7 29.5t-15 8.5q-8 1 -18 -3.5t-20 -13t-19.5 -20t-16.5 -23.5q-28 -48 -48 -99t-37.5 -102t-36 -101t-43.5 -96q-22 -41 -48.5 -79t-58 -70t-67.5 -55.5t-78 -33.5q-54 -13 -104 2.5t-82 72.5q-18 33 -21.5 68.5t2.5 71t19.5 70t30.5 64.5q3 4 7 5t7.5 -1.5t5 -6.5
t-1.5 -8q-15 -26 -27.5 -57.5t-17 -64t0.5 -64.5t25 -59q24 -32 67 -44t86 -1q39 10 73 30.5t63 48.5t54 61.5t45 69.5q26 47 45 96.5t36.5 99.5t36 98.5t44.5 94.5zM292 671q1 -2 1 -7q1 -30 -4.5 -69.5t-14.5 -85t-21.5 -95t-25.5 -98.5q21 2 37.5 -4.5t27.5 -13.5
q59 20 101.5 54.5t68 75.5t34.5 84t2.5 80t-28 63.5t-58.5 34.5q-28 6 -58.5 0.5t-61.5 -19.5z" />
    <glyph glyph-name="S.001" unicode="&#xe012;" horiz-adv-x="466" 
d="M365 220q15 -46 7.5 -93.5t-32.5 -85.5t-65.5 -61.5t-90.5 -21.5q-51 3 -91.5 35t-58.5 90q-21 -14 -42 -26.5t-42 -23.5q-64 -32 -117 -37t-93.5 11t-66.5 50t-34 79.5t2.5 100t43.5 111.5q3 4 7 5t7.5 -1.5t5 -6.5t-1.5 -8q-29 -49 -38 -96.5t-1.5 -87t30 -69.5t58 -44
t83 -9.5t103.5 33.5q23 11 44.5 24t43.5 29q-6 35 -2.5 75t18.5 87q1 6 6 8.5t10 2t8 -4.5t2 -10q-11 -38 -14 -72t1 -64q51 39 99 87t90 99q-17 27 -34.5 54t-32.5 53.5t-26 52.5t-15 51q-7 40 3 73t30 58t47.5 41.5t56.5 24.5q40 12 74.5 6.5t57.5 -25t31 -51.5t-4 -73
q-15 -50 -49.5 -113t-84.5 -130q20 -32 38 -63.5t29 -63.5zM287 698q-19 -9 -37 -24.5t-31 -36t-19 -44.5t-1 -50q7 -42 30.5 -84t51.5 -85q45 63 77 121t45 106q9 34 2.5 58.5t-24 37t-42.5 13.5t-52 -12zM187 5q35 0 61 18t42 45t21 60t-2 63q-7 26 -19.5 53t-29.5 54
q-44 -54 -94 -103.5t-104 -91.5q14 -45 45.5 -71.5t79.5 -26.5z" />
    <glyph glyph-name="T.001" unicode="&#xe013;" horiz-adv-x="375" 
d="M239 718q1 10 11.5 17t23 8.5t22 -2.5t8.5 -17q-2 -19 -7.5 -60t-14.5 -95t-21 -116.5t-26.5 -125t-32 -120.5t-37.5 -103.5t-42.5 -73.5t-47.5 -30q-32 -3 -53 13t-34 42t-19.5 59.5t-8 66.5t-0.5 61.5t3 45.5q0 3 5 6t10 3.5t9 -2t2 -10.5q-3 -14 -4 -40.5t1 -57
t7.5 -60.5t15.5 -50.5t24.5 -28t34.5 7.5q26 19 48 68.5t40 114.5t32.5 139t25 141t17 120.5t8.5 78.5zM-93 578q-3 -11 -15 -9.5t-13 7.5q17 81 59 126.5t101 67.5t129.5 26.5t144 2.5t144.5 -4.5t131.5 6.5t105.5 34t65 79q1 5 5.5 5.5t9.5 -2.5t8 -8.5t1 -11.5
q-26 -60 -73 -90.5t-107 -43t-128.5 -12t-138.5 3t-138 1t-125 -18t-100.5 -53.5t-65.5 -106z" />
    <glyph glyph-name="U.001" unicode="&#xe014;" horiz-adv-x="621" 
d="M110 656q23 42 53.5 65.5t60.5 22.5q25 -1 46 -19.5t22 -60.5q1 -25 -3 -52.5t-11 -55t-14.5 -54t-14.5 -50.5q-14 -51 -27 -103.5t-23 -100.5t-16.5 -90t-6.5 -73q0 -27 6 -36t15 -10q12 -2 25.5 7t28 26t29.5 40.5t29 50.5q30 59 58 123.5t53.5 131t49.5 133t46 129.5
l6 23q0 1 13.5 11.5t28 19.5t25 10.5t5.5 -16.5q-9 -32 -23.5 -81.5t-31.5 -108.5t-34 -123t-31 -125t-23 -114.5t-9 -90.5q-1 -27 5 -36t16 -10q17 -2 38.5 17t35.5 43q14 25 27 55t24.5 59t20 54t13.5 41q1 3 5.5 4t9 0t8 -3t2.5 -5q-7 -20 -15.5 -46t-19.5 -55.5t-24 -59
t-28 -55.5q-24 -42 -54 -65.5t-60 -22.5q-25 1 -46 19.5t-23 60.5q-1 25 3 57.5t10.5 69.5t16 77.5t20.5 82.5q-23 -57 -47 -110.5t-51 -105.5q-17 -31 -34.5 -58.5t-36.5 -48.5t-38.5 -32.5t-39.5 -11.5q-25 1 -45.5 19.5t-22.5 60.5q-1 33 5 77.5t17 95t25 105t29 107.5
q14 51 27 96t13 98q1 27 -5.5 36t-15.5 10q-17 2 -38.5 -17t-35.5 -43q-28 -48 -48 -99t-37.5 -102t-36 -101t-43.5 -96q-22 -41 -48.5 -79t-58 -70t-67.5 -55.5t-78 -33.5q-54 -13 -104 2.5t-82 72.5q-18 33 -21.5 68.5t2.5 71t19.5 70t30.5 64.5q3 4 7 5t7.5 -1.5t5 -6.5
t-1.5 -8q-15 -26 -27.5 -57.5t-17 -64t0.5 -64.5t25 -59q24 -32 67 -44t86 -1q39 10 73 30.5t63 48.5t54 61.5t45 69.5q26 47 45 97t36 99.5t36 98.5t45 94z" />
    <glyph glyph-name="V.001" unicode="&#xe015;" horiz-adv-x="584" 
d="M110 656q24 42 54.5 65.5t60.5 22.5q24 -1 45 -19.5t23 -60.5q1 -25 -3.5 -52.5t-11 -55t-14.5 -54t-14 -50.5q-14 -51 -27.5 -103.5t-23.5 -100.5t-16.5 -90t-6.5 -73q0 -26 11.5 -33.5t27.5 -5.5t33 11.5t29 18.5q37 29 72 81.5t66.5 115.5t59.5 131.5t50.5 131
t39 112.5t26.5 77q1 4 7.5 5.5t13.5 1t12.5 -2.5t4.5 -6q-11 -31 -26 -78.5t-34.5 -104.5t-43.5 -119.5t-52 -122.5t-60.5 -114.5t-69 -95.5t-77 -65t-85.5 -23q-25 1 -46 19.5t-23 60.5q-1 33 5.5 77.5t17.5 95t25 105t29 107.5q14 51 26.5 96t13.5 98q0 27 -6 36t-16 10
q-8 1 -18 -3.5t-20 -13t-19.5 -20t-16.5 -23.5q-28 -50 -47.5 -101t-37 -101.5t-36.5 -100t-44 -95.5q-22 -41 -48.5 -79t-58 -70t-67.5 -55.5t-78 -33.5q-54 -13 -104 2.5t-82 72.5q-18 33 -21.5 68.5t2.5 71t19.5 70t30.5 64.5q3 4 7 5t7.5 -1.5t5 -6.5t-1.5 -8
q-15 -26 -27.5 -57.5t-17 -64t0.5 -64.5t25 -59q24 -32 67 -44t86 -1q39 10 73 30.5t63 48.5t54 61.5t45 69.5q26 47 45 96.5t36.5 99.5t36 98.5t44.5 94.5z" />
    <glyph glyph-name="W.001" unicode="&#xe016;" horiz-adv-x="850" 
d="M110 656q24 42 54.5 65.5t60.5 22.5q25 -1 45.5 -19.5t22.5 -60.5q1 -25 -3.5 -52.5t-11 -55t-14.5 -54t-14 -50.5q-14 -51 -27 -103.5t-23.5 -100.5t-16.5 -90t-6 -73q-1 -27 5.5 -36t15.5 -10q12 -2 25.5 7t28 26t29 40.5t28.5 50.5q55 106 101 225.5t87 236.5
q6 17 18 32.5t24 21.5t20 -2.5t6 -39.5q-3 -46 -17 -94.5t-26 -90.5q-14 -51 -27 -103.5t-23 -100.5t-16.5 -90t-6.5 -73q0 -26 11.5 -33.5t27.5 -5.5t33 11.5t28 18.5q37 29 72 81.5t67 115.5t59.5 131.5t50.5 131t39.5 112.5t25.5 77q1 4 8 5.5t14 1t12.5 -2.5t4.5 -6
q-14 -41 -36.5 -111t-52.5 -150.5t-67.5 -163.5t-82.5 -149.5t-97.5 -108t-111.5 -40.5q-25 1 -46 19.5t-23 60.5q-1 29 4 68t14 83.5t21 92.5t25 96q-27 -70 -56.5 -137.5t-63.5 -131.5q-16 -31 -34 -58.5t-36.5 -48.5t-38 -32.5t-39.5 -11.5q-25 1 -46 19.5t-22 60.5
q-1 33 5 77.5t17 95t25 105t29 107.5q14 51 26.5 96t13.5 98q0 27 -6 36t-15 10q-17 2 -38.5 -17t-35.5 -43q-28 -48 -48 -98.5t-37.5 -101.5t-36 -101t-44.5 -97q-22 -41 -48.5 -79t-58 -70t-67.5 -55.5t-78 -33.5q-54 -13 -104 2.5t-82 72.5q-18 33 -21.5 68.5t2.5 71
t19.5 70t30.5 64.5q3 4 7 5t7.5 -1.5t5 -6.5t-1.5 -8q-15 -26 -27.5 -57.5t-17 -64t0.5 -64.5t25 -59q24 -32 67 -44t86 -1q39 10 73 30.5t63 48.5t54 61.5t45 69.5q26 47 45 97t36.5 99.5t36 98.5t44.5 94z" />
    <glyph glyph-name="X.001" unicode="&#xe017;" horiz-adv-x="499" 
d="M166 656q23 42 53.5 65.5t60.5 22.5q22 0 35.5 -9.5t21 -24.5t10 -33t2.5 -36q0 -32 -5 -81t-12 -106q53 65 93 130t53 137q1 6 5.5 8.5t9 1.5t8 -4.5t2.5 -9.5q-8 -42 -25 -82t-40.5 -78t-52 -75t-59.5 -73q-6 -51 -12 -103t-9.5 -98.5t-2.5 -84.5t8 -62q5 -18 21 -22.5
t36 7.5q13 8 26 22.5t22 31.5q14 25 27 54.5t24.5 58.5t20 54.5t14.5 40.5q1 3 5 4t8.5 0t8 -3t2.5 -5q-7 -20 -15.5 -46t-19.5 -55t-24 -59t-28 -56q-27 -47 -59 -69q-18 -12 -37 -16.5t-36.5 -0.5t-31.5 16t-20 32q-5 16 -6.5 45.5t0 67.5t5.5 82t9 90
q-33 -38 -65.5 -76.5t-61 -79t-51.5 -83t-38 -87.5q-2 -6 -6 -8t-8.5 -0.5t-7.5 5.5t-1 10q16 51 42.5 98t59 91.5t69 87.5t73.5 85q4 39 8.5 76.5t8 71t6 61.5t2.5 48v20.5t-2.5 22t-8.5 18.5t-18 10q-17 2 -38.5 -17.5t-35.5 -43.5q-28 -50 -48 -101t-37.5 -101.5
t-36.5 -100t-44 -95.5q-22 -41 -48.5 -79t-58 -70t-67.5 -55.5t-78 -33.5q-54 -13 -104 2.5t-82 72.5q-18 33 -21.5 68.5t2.5 71t19.5 70t30.5 64.5q3 4 7 5t7.5 -1.5t5 -6.5t-1.5 -8q-15 -26 -27.5 -57.5t-17 -64t0.5 -64.5t25 -59q24 -32 67 -44t86 -1q39 10 73 30.5
t63 48.5t54 61.5t45 69.5q26 47 45 97t36.5 99.5t36.5 98.5t45 94z" />
    <glyph glyph-name="Y.001" unicode="&#xe018;" horiz-adv-x="587" 
d="M110 657q23 42 53.5 65.5t60.5 22.5q25 -1 46 -19.5t22 -61.5q1 -25 -3 -52t-11 -54.5t-14.5 -54t-14.5 -50.5q-14 -52 -27 -104t-23 -100.5t-16.5 -90t-6.5 -72.5q0 -27 6 -36t15 -11q12 -2 25.5 7.5t28 26.5t29 40.5t28.5 50.5q31 59 59 123.5t53.5 130.5t49.5 132.5
t46 130.5l6 23q0 1 13.5 11.5t28 19.5t24.5 10t5 -17q-44 -158 -87 -315t-88 -315q3 1 9 5q49 30 73 52.5t41 45.5q14 20 27.5 43t27.5 65q1 3 5.5 4t9 0t8 -3t2.5 -5q-16 -45 -30 -70.5t-30 -48.5q-18 -26 -44 -50.5t-77 -55.5l-33 -20q-12 -42 -27 -90t-33 -96
t-39.5 -92.5t-47.5 -80.5q-31 -42 -70.5 -57t-71 -3t-46.5 50t4 100q12 40 40 76.5t64 69t77.5 61t82.5 53.5q23 81 44.5 158.5t42.5 158.5q-46 -115 -98 -216q-17 -31 -34.5 -58.5t-36.5 -48.5t-38.5 -32.5t-39.5 -11.5q-25 1 -46 19.5t-22 60.5q-1 33 5 77t17 95t25 105.5
t29 107.5q14 50 27 95t13 99q1 27 -5.5 35.5t-15.5 10.5q-17 2 -38.5 -17.5t-35.5 -43.5q-28 -49 -48 -99.5t-37.5 -101.5t-36 -101t-43.5 -96q-22 -41 -48.5 -79t-58 -70t-67.5 -55.5t-78 -33.5q-54 -13 -104 2.5t-82 72.5q-18 33 -21.5 68.5t2.5 71t19.5 70t30.5 64.5
q3 4 7 5t7.5 -1.5t5 -6.5t-1.5 -8q-15 -26 -27.5 -57.5t-17 -64t0.5 -64.5t25 -59q24 -32 67 -44t86 -1q39 10 73 30.5t63 48.5t54 61.5t45 69.5q26 47 45 97t36 99.5t36 98.5t45 95zM329 13q-36 -23 -72 -49t-67.5 -54.5t-55 -60.5t-33.5 -66q-12 -42 -3 -64.5t29.5 -27
t46.5 9t47 44.5q15 23 32 57.5t32 72t27 74.5t17 64z" />
    <glyph glyph-name="Z.001" unicode="&#xe019;" horiz-adv-x="508" 
d="M417 363q17 10 32 20.5t31 20.5q4 2 8.5 1t8 -4t4.5 -6.5t-2 -6.5l-65 -44q-28 -19 -60.5 -38t-68.5 -36q-29 -72 -63 -139.5t-82 -123.5q33 -7 71 -11t76.5 -4t76 4.5t70.5 15.5q9 3 15.5 -2t8 -12t-1.5 -14t-12 -10q-42 -14 -81.5 -16.5t-78 1t-78 11.5t-82.5 16
q-19 -18 -35.5 -23t-30.5 -5q-25 -1 -42 13.5t-13 29.5q3 13 19.5 19.5t50.5 0.5q41 43 72 98.5t58 116.5q-71 -25 -142.5 -30.5t-134.5 21.5q-25 11 -46 27t-35 37.5t-20.5 48.5t-1.5 59q6 36 24 67t44.5 55.5t58 43.5t63.5 33q10 4 13.5 -5.5t-5.5 -13.5
q-28 -12 -56.5 -29.5t-52 -41t-39 -52t-15.5 -61.5q-1 -41 26.5 -76t68.5 -52q62 -27 130.5 -22t134.5 28q22 54 43.5 109t44.5 106.5t49 97t58 80.5q-29 0 -55.5 6t-52 13.5t-51 14t-51.5 8.5q-39 2 -68.5 -18t-55.5 -75q-3 -5 -10.5 -1.5t-15 11t-13 16t-2.5 14.5
q16 33 35.5 52.5t41.5 28t46 8.5t50 -6q29 -6 59 -16t60 -18t60 -11.5t58 3.5q19 11 38 11t31 -6t13 -15t-16 -15q-7 -4 -19 -7q-13 -8 -23 -18.5t-20 -24.5q-49 -66 -83.5 -147.5t-68.5 -165.5q26 13 50 27t47 28zM70 -1q-2 0 -4 1q-12 1 -16.5 -2t-4 -6t5 -4t11.5 5z" />
    <glyph glyph-name="b.001" unicode="&#xe01a;" horiz-adv-x="352" 
d="M102 451q-43 -144 -68 -288q-4 -18 -5 -37.5t1.5 -36t8 -27.5t14.5 -14q17 -6 32 7.5t33 40.5q13 19 23.5 45.5t16.5 54.5q-27 13 -44 39t-22 54.5t3.5 53t33.5 34.5q29 12 53 5t38 -37q14 -28 15.5 -69t-7.5 -85q24 -3 44 3.5t35.5 19.5t26.5 30.5t18 37.5q4 16 9 27
q1 3 5.5 4t9 0t8 -3t2.5 -5l-9 -27q-8 -24 -21.5 -45.5t-32.5 -37.5t-44.5 -24.5t-56.5 -5.5q-11 -38 -28.5 -71.5t-41.5 -56.5q-33 -32 -69.5 -36t-65 14t-44 54.5t-6.5 86.5q6 33 13 65t15 65t17 68.5t20 76.5q-46 -4 -99.5 11.5t-108.5 36.5t-109.5 39t-102 19.5
t-85.5 -21.5t-60 -85q-4 -10 -13.5 -6.5t-6.5 12.5q29 77 71.5 107t93 30.5t106.5 -19.5t112 -43.5t109.5 -41.5t99.5 -13q6 19 13 43t14 48.5t13 46.5t10 36q3 11 7.5 24.5t10 26.5t12 24.5t13.5 18.5q11 11 23 15.5t22.5 1.5t18.5 -12t11 -25q4 -23 -1.5 -56t-17.5 -68
q-15 -43 -38 -79.5t-48 -50.5zM112 488q12 10 28 38.5t27 61.5q11 32 15.5 61.5t-0.5 45.5q-2 7 -7 0.5t-12 -32.5q-4 -14 -10 -35.5t-13 -46t-14.5 -49t-13.5 -44.5zM164 223q2 10 2.5 19t1.5 17q0 20 -6 37.5t-17 25.5q-8 5 -14.5 1.5t-8.5 -14.5q-3 -19 7 -42t35 -44z
" />
    <glyph glyph-name="d.001" unicode="&#xe01b;" horiz-adv-x="372" 
d="M266 451q-15 -53 -28.5 -105t-24.5 -105q-9 -45 -14.5 -85t-6.5 -71q0 -27 6 -36t16 -10q17 -2 38.5 17t35.5 43q17 30 32 65.5t27 68.5l26 75q1 3 5.5 4t9 0t8 -3t2.5 -5l-27 -78q-12 -34 -27 -70t-33 -68q-24 -42 -54 -65.5t-60 -22.5q-25 1 -46 19.5t-23 60.5v19
q-16 -32 -35 -57t-42 -35q-29 -11 -53 -4t-38 36q-17 34 -16 85.5t16.5 103t44.5 93.5t68 57q32 11 58.5 0.5t38.5 -39.5q4 17 9.5 36.5t16.5 55.5q-46 -4 -99.5 11.5t-108.5 36.5t-109.5 39t-102 19.5t-85.5 -21.5t-60 -85q-4 -10 -13.5 -6.5t-6.5 12.5q29 77 71.5 107
t93 30.5t106.5 -19.5t112 -43.5t109.5 -41.5t99.5 -13q6 19 13 43t14 48.5t13 46.5t10 36q3 11 7.5 24.5t10 26.5t12 24.5t13.5 18.5q11 11 23 15.5t22.5 1.5t18.5 -12t11 -25q4 -23 -1.5 -56t-17.5 -68q-15 -43 -38 -79.5t-48 -50.5zM149 251q4 107 -65 62
q-14 -9 -26.5 -30t-22.5 -48t-16 -56t-7 -53q-1 -27 9.5 -48.5t30.5 -20.5q11 1 23 13t23 30.5t21 41t18 45.5zM276 488q12 10 28 38.5t27 61.5q11 32 15.5 61.5t-0.5 45.5q-2 7 -7 0.5t-12 -32.5q-4 -14 -10 -35.5t-13 -46t-14.5 -49t-13.5 -44.5z" />
    <glyph glyph-name="f.001" unicode="&#xe01c;" horiz-adv-x="271" 
d="M102 451q-20 -75 -39 -152t-36 -157q-14 -64 -26 -126.5t-21 -114.5q-8 -51 -11 -99.5t4 -83.5q1 -5 3 -11.5t5.5 -12.5t8 -9.5t10.5 -2.5q12 1 21.5 11.5t16 24.5t10.5 28t6 22q9 42 11.5 85.5t-0.5 69.5q-3 33 -12 61t-26 45q-5 5 -10.5 11t2.5 14q1 1 8 3t15.5 5
t17 5.5t12.5 4.5q31 13 64 34.5t59 49.5q17 17 28 34.5t19.5 36t15.5 38.5t15 43q1 3 5.5 4t9 0t8 -3t2.5 -5q-9 -26 -16 -47.5t-16 -41t-21.5 -38.5t-31.5 -39q-30 -31 -67 -54t-72 -37q-6 -2 -11.5 -4t-11.5 -4q12 -15 19.5 -33t12 -37.5t7 -39t2.5 -37.5
q0 -19 -2.5 -53.5t-10.5 -72.5q-5 -26 -13.5 -50t-20 -42.5t-27 -29t-35.5 -8.5q-30 2 -46.5 28.5t-22.5 66t-3.5 87.5t8.5 93q6 48 19 114.5t27 134.5q6 26 12 53t13.5 59t17.5 70.5t24 88.5q-46 -4 -99.5 11.5t-108.5 36.5t-109.5 39t-102 19.5t-85.5 -21.5t-60 -85
q-4 -10 -13.5 -6.5t-6.5 12.5q29 77 71.5 107t93 30.5t106.5 -19.5t112 -43.5t109.5 -41.5t99.5 -13q6 19 13 43t14 48.5t13 46.5t10 36q3 11 7.5 24.5t10 26.5t12 24.5t13.5 18.5q11 11 23 15.5t22.5 1.5t18.5 -12t11 -25q4 -23 -1.5 -56t-17.5 -68q-15 -43 -38 -79.5
t-48 -50.5zM112 488q12 10 28 38.5t27 61.5q11 32 15.5 61.5t-0.5 45.5q-2 7 -7 0.5t-12 -32.5q-4 -14 -10 -35.5t-13 -46t-14.5 -49t-13.5 -44.5z" />
    <glyph glyph-name="g.001" unicode="&#xe01d;" horiz-adv-x="343" 
d="M90 -98q1 7 2.5 15.5t4.5 26.5t8 50t13 86q-14 -26 -30.5 -45t-36.5 -27q-29 -12 -53 -5t-38 37q-11 22 -14 53.5t0.5 65.5t14 69t26.5 65t38 52.5t48 32.5q31 12 57 2t39 -38v1q0 1 13.5 11.5t28 19.5t25 10.5t5.5 -16.5q-2 -5 -7 -29t-12.5 -61.5t-16.5 -85t-18 -99.5
q-1 -4 -2 -9.5t-3.5 -22t-8 -47.5t-15.5 -85q45 8 99.5 -2t112 -25t113 -28t103 -9.5t83 30t51.5 90.5q1 5 4.5 7t7.5 1t6.5 -4t1.5 -8q-16 -60 -42 -93.5t-60 -47.5t-73.5 -13t-82 10t-86.5 23.5t-87 26t-82.5 17.5t-73.5 -1q-4 -20 -8.5 -44.5t-9 -49.5t-8.5 -47.5
t-6 -36.5q-2 -11 -5.5 -25t-7.5 -27.5t-9.5 -26t-11.5 -19.5q-10 -12 -21.5 -17.5t-22 -4t-19.5 10t-13 23.5q-6 23 -4 56.5t10 68.5q11 45 30.5 83.5t42.5 54.5zM149 250q4 109 -65 63q-14 -9 -26.5 -30t-22.5 -48t-16 -56t-7 -53q0 -14 2.5 -26.5t7.5 -22t12.5 -15
t17.5 -4.5q11 1 23 13t23.5 30.5t21.5 41.5t18 46zM84 -135q-11 -11 -24.5 -41t-20.5 -64q-8 -33 -9 -63t5 -45q3 -7 7 0t8 33q3 14 7 36t8.5 47t9.5 50.5t9 46.5z" />
    <glyph glyph-name="h.001" unicode="&#xe01e;" horiz-adv-x="389" 
d="M102 451q-2 -6 -4.5 -15.5t-8.5 -33t-16.5 -67t-29.5 -119.5q18 48 40 88t48 59q28 21 58 21q23 -1 34.5 -13t15 -30t2 -38.5t-5.5 -36.5q-9 -44 -17 -92.5t-8 -88.5q-1 -27 5.5 -36t15.5 -10q17 -2 38.5 17t35.5 43q17 29 31.5 64.5t26.5 67.5q9 23 15.5 43t11.5 34
q1 3 5.5 4t9 0t8 -3t2.5 -5l-26 -77q-13 -35 -28 -71t-33 -68q-23 -42 -53.5 -65.5t-60.5 -22.5q-25 1 -46 19.5t-22 60.5q-2 45 7 99.5t21 105.5q2 9 6 23t3.5 24.5t-8 14t-27.5 -7.5q-12 -7 -24 -22.5t-23.5 -36t-22 -45t-20.5 -49.5q-6 -17 -13 -39.5t-14.5 -45.5
t-14 -44.5t-12.5 -35.5q-3 -8 -14 -13.5t-22.5 -7t-20 2.5t-6.5 16q8 56 18 109.5t22 107.5q3 13 6.5 27.5t9 36.5t14 53t21.5 78q-46 -4 -99.5 11.5t-108.5 36.5t-109.5 39t-102 19.5t-85.5 -21.5t-60 -85q-4 -10 -13.5 -6.5t-6.5 12.5q29 77 71.5 107t93 30.5t106.5 -19.5
t112 -43.5t109.5 -41.5t99.5 -13q6 19 13 43t14 48.5t13 46.5t10 36q3 11 7.5 24.5t10 26.5t12 24.5t13.5 18.5q11 11 23 15.5t22.5 1.5t18.5 -12t11 -25q4 -23 -1.5 -56t-17.5 -68q-15 -43 -38 -79.5t-48 -50.5zM112 488q12 10 28 38.5t27 61.5q11 32 15.5 61.5t-0.5 45.5
q-2 7 -7 0.5t-12 -32.5q-4 -14 -10 -35.5t-13 -46t-14.5 -49t-13.5 -44.5z" />
    <glyph glyph-name="j.001" unicode="&#xe01f;" horiz-adv-x="181" 
d="M-71 -98q11 65 20.5 128t20.5 126q12 68 22 117.5t15 69.5q0 1 13.5 11.5t28 19.5t25 10t5.5 -17q-2 -4 -5.5 -22.5t-9.5 -48t-13.5 -67.5t-15.5 -81q-2 -10 -4 -22t-6 -35t-11 -61.5t-17 -100.5q45 8 99.5 -2t112 -25t113 -28t103 -9.5t83 30t51.5 90.5q1 5 4.5 7t7.5 1
t6.5 -4t1.5 -8q-16 -60 -42 -93.5t-60 -47.5t-73.5 -13t-82 10t-86.5 23.5t-87 26t-82.5 17.5t-73.5 -1q-4 -20 -8.5 -44.5t-9 -49.5t-8.5 -47.5t-6 -36.5q-2 -11 -5.5 -25t-7.5 -27.5t-9.5 -26t-11.5 -19.5q-10 -12 -21.5 -17.5t-22 -4t-19.5 10t-13 23.5q-6 23 -4 56.5
t10 68.5q11 45 30.5 83.5t42.5 54.5zM76 516q14 -5 20 -20t1 -32t-19 -26.5t-28 -4.5t-20 20t-1 32q6 17 19.5 26.5t27.5 4.5zM-77 -135q-11 -11 -24.5 -41t-20.5 -64q-8 -33 -9 -63t5 -45q3 -7 7 0t8 33q3 14 7 36t8.5 47t9.5 50.5t9 46.5z" />
    <glyph glyph-name="k.001" unicode="&#xe020;" horiz-adv-x="355" 
d="M101 451q-2 -6 -4.5 -15.5t-8 -33t-16.5 -67t-29 -119.5q18 48 40 88t48 59q28 21 57 21q14 0 19 -8t4 -18.5t-6 -22t-11 -18.5q-18 -21 -41.5 -41t-41.5 -30q24 -5 37 -25.5t19 -46t7.5 -50.5t1.5 -39q-1 -27 5 -36t16 -10q17 -2 38.5 17t35.5 43q17 29 31.5 64.5
t26.5 67.5q9 23 15.5 43t11.5 34q1 3 5.5 4t9 0t8 -3t2.5 -5l-26 -77q-13 -35 -28 -71t-33 -68q-24 -42 -54 -65.5t-60 -22.5q-25 1 -46 19.5t-23 60.5q0 15 -1.5 36t-5 42.5t-11 40t-19.5 27.5l-16 -40q-6 -17 -13 -39.5t-14.5 -45.5t-14.5 -44.5t-13 -35.5
q-3 -8 -14 -13.5t-22 -7t-20 2.5t-7 16q8 58 18.5 114t24.5 113q10 39 20.5 81.5t27.5 103.5q-46 -4 -99.5 11.5t-108.5 36.5t-109.5 39t-102 19.5t-85.5 -21.5t-60 -85q-4 -10 -13.5 -6.5t-6.5 12.5q29 77 71.5 107t93 30.5t106.5 -19.5t112 -43.5t109.5 -41.5t99.5 -13
q6 19 13 43t14 48.5t13 46.5t10 36q3 11 7.5 24.5t10 26.5t12 24.5t13.5 18.5q11 11 23 15.5t22.5 1.5t18.5 -12t11 -25q4 -23 -1.5 -56t-17.5 -68q-15 -43 -38 -79.5t-48 -50.5zM111 488q12 10 28 38.5t27 61.5q11 32 15.5 61.5t-0.5 45.5q-2 7 -7 0.5t-12 -32.5
q-4 -14 -10 -35.5t-13 -46t-14.5 -49t-13.5 -44.5zM148 339q-16 -9 -31 -30.5t-29 -50.5q9 6 19.5 14.5t21.5 18t20.5 19t16.5 17.5q9 10 10.5 15t-2.5 5.5t-11.5 -2t-14.5 -6.5z" />
    <glyph glyph-name="l.001" unicode="&#xe021;" 
d="M-35 80q1 43 8 84t15 80q10 49 20.5 95t23.5 92q-46 -4 -99.5 11.5t-108.5 36.5t-109.5 39t-102 19.5t-85.5 -21.5t-60 -85q-4 -10 -13.5 -6.5t-6.5 12.5q29 77 71.5 107t93 30.5t106.5 -19.5t112 -43.5t109.5 -41.5t99.5 -13q6 19 13 43t14 48.5t13 46.5t10 36
q3 11 7.5 24.5t10 26.5t12 24.5t13.5 18.5q11 11 23 15.5t22.5 1.5t18.5 -12t11 -25q4 -23 -1.5 -56t-17.5 -68q-15 -43 -38 -79.5t-48 -50.5q-16 -54 -28.5 -108t-23.5 -109q-8 -38 -14 -74.5t-7 -74.5q0 -27 6 -36t16 -10q16 -2 38 17t36 43q17 30 32 65.5t27 68.5l26 75
q1 3 5.5 4t9 0t8 -3t2.5 -5l-27 -78q-12 -35 -27.5 -70.5t-32.5 -67.5q-24 -42 -54.5 -65.5t-60.5 -22.5q-24 1 -45 19.5t-23 60.5zM112 488q12 10 28 38.5t27 61.5q11 32 15.5 61.5t-0.5 45.5q-2 7 -7 0.5t-12 -32.5q-4 -14 -10 -35.5t-13 -46t-14.5 -49t-13.5 -44.5z" />
    <glyph glyph-name="p.001" unicode="&#xe022;" horiz-adv-x="334" 
d="M-72 -98q11 68 21.5 134t22.5 132q12 63 21 109t14 66q0 1 13.5 11.5t28 19.5t24.5 10.5t5 -16.5l-18 -75q15 30 33.5 52.5t40.5 31.5q29 11 53 4.5t38 -36.5q13 -26 15.5 -61.5t-4.5 -74.5q-2 -9 -3 -16.5t-4 -16.5q41 11 61 34.5t33 53.5q5 11 8.5 22t8.5 22q1 3 5.5 4
t9 0t8 -3t2.5 -5q-9 -27 -18 -48q-8 -21 -17.5 -37t-24 -29.5t-35 -24.5t-50.5 -21q-16 -48 -43.5 -85.5t-64.5 -51.5q-52 -20 -63 19q-8 27 0 47t24.5 35.5t37.5 26t39 18.5q21 55 23 105q1 28 -10 49t-30 20q-14 -1 -28.5 -19t-28 -43.5t-24.5 -54t-17 -52.5l-39 -229
q45 8 99.5 -2t112 -25t113 -28t103 -9.5t83 30t51.5 90.5q1 5 4.5 7t7.5 1t6.5 -4t1.5 -8q-16 -60 -42 -93.5t-60 -47.5t-73.5 -13t-82 10t-86.5 23.5t-87 26t-82.5 17.5t-73.5 -1q-4 -20 -8.5 -44.5t-9 -49.5t-8.5 -47.5t-6 -36.5q-2 -11 -5.5 -25t-7.5 -27.5t-9.5 -26
t-11.5 -19.5q-10 -12 -21.5 -17.5t-22 -4t-19.5 10t-13 23.5q-6 23 -4 56.5t10 68.5q11 45 30.5 83.5t42.5 54.5zM-78 -135q-11 -11 -24.5 -41t-20.5 -64q-8 -33 -9 -63t5 -45q3 -7 7 0t8 33q3 14 7 36t8.5 47t9.5 50.5t9 46.5zM133 114q-6 -1 -15 -5.5t-17.5 -11.5
t-14.5 -15.5t-6 -17.5q0 -8 4.5 -6.5t11.5 8t14.5 16t13.5 17.5q7 8 9 15z" />
    <glyph glyph-name="t.001" unicode="&#xe023;" 
d="M516 654q-43 -50 -90.5 -84t-98.5 -54t-105 -28.5t-111 -8.5q-1 -1 -1 -2q-14 -49 -28.5 -100.5t-25.5 -102.5t-18.5 -99t-7.5 -90q0 -27 6 -36t15 -10q17 -2 38.5 17t35.5 43q14 25 27 55t24.5 59t20 54t14.5 41q1 3 5 4t8.5 0t8 -3t2.5 -5q-7 -20 -15.5 -46
t-19.5 -55.5t-24 -59t-28 -55.5q-23 -42 -53.5 -65.5t-60.5 -22.5q-25 1 -46 19.5t-22 60.5q-2 43 5 92.5t19 102t27 105t30 102.5q-94 8 -191 31t-193 49t-188.5 47.5t-177 27t-159 -12.5t-134.5 -72q-11 -10 -21 -6.5t-1 13.5q45 48 98.5 72.5t114.5 32t128 1t138.5 -21
t146 -34t150 -38.5t150.5 -33.5t149 -19.5l17 58q0 1 13 11.5t27.5 19.5t25 10t5.5 -17l-24 -84q104 1 200 33.5t178 115.5q7 8 15.5 2.5t1.5 -13.5z" />
    <glyph glyph-name="y.001" unicode="&#xe024;" horiz-adv-x="369" 
d="M266 368q-1 -5 -5.5 -26.5t-11 -54.5t-14.5 -76t-17 -91q-7 -37 -16.5 -89.5t-17.5 -100.5q45 8 99.5 -2t112 -25t113 -28t103 -9.5t83 30t51.5 90.5q1 5 4.5 7t7.5 1t6.5 -4t1.5 -8q-16 -60 -42 -93.5t-60 -47.5t-73.5 -13t-82 10t-86.5 23.5t-87 26t-82.5 17.5
t-73.5 -1q-4 -20 -8.5 -44.5t-9 -49.5t-8.5 -47.5t-6 -36.5q-2 -11 -5.5 -25t-7.5 -27.5t-9.5 -26t-11.5 -19.5q-10 -12 -21.5 -17.5t-22 -4t-19.5 10t-13 23.5q-6 23 -4 56.5t10 68.5q11 45 30.5 83.5t42.5 54.5q8 52 13.5 86.5t9 57t6 37.5t4.5 28q-10 -24 -22 -44.5
t-26.5 -35.5t-31.5 -23.5t-36 -7.5q-25 1 -45.5 19.5t-22.5 60.5q-1 29 3 63t10.5 69t14 68.5t15.5 61.5q0 1 13.5 11.5t28 19.5t25 10.5t5.5 -16.5q-3 -12 -11.5 -44t-17 -73t-15.5 -85t-7 -80q0 -27 6 -36t15 -11q17 -2 32.5 14t29.5 42.5t26 60.5t22 67t18 62.5t14 46.5
q2 10 15.5 23t28 21t24.5 8t6 -16zM110 -134q-11 -11 -24.5 -41t-20.5 -64q-8 -33 -9 -63t5 -45q3 -7 7 0t8 33q3 14 7 36t8.5 47t9.5 50.5t9 46.5z" />
    <glyph glyph-name="z.001" unicode="&#xe025;" horiz-adv-x="348" 
d="M208 179q-10 -54 -17 -91t-12 -64.5t-8.5 -49t-7.5 -44.5q45 8 99.5 -2t112 -25t113 -28t103 -9.5t83 30t51.5 90.5q1 5 4.5 7t7.5 1t6.5 -4t1.5 -8q-16 -60 -42 -93.5t-60 -47.5t-73.5 -13t-82 10t-86.5 23.5t-87 26t-82.5 17.5t-73.5 -1q-4 -20 -8.5 -44.5t-9 -49.5
t-8.5 -47.5t-6 -36.5q-2 -11 -5.5 -25t-7.5 -27.5t-9.5 -26t-11.5 -19.5q-10 -12 -21.5 -17.5t-22 -4t-19.5 10t-13 23.5q-6 23 -4 56.5t10 68.5q11 45 30.5 83.5t42.5 54.5q7 50 12 81t8 50.5t5 30.5t4 20q-18 -23 -37.5 -40t-38.5 -20q-20 -3 -34 7t-19.5 27t-2 38.5
t17.5 39.5q16 21 37 38.5t42.5 35.5t41.5 36.5t35 41.5q9 14 11.5 27.5t-8.5 21.5q-8 6 -23.5 0.5t-34 -15t-37 -19.5t-31.5 -12q-29 -5 -50 8.5t-29 46.5q-3 10 -3.5 24.5t1.5 30t6.5 30.5t12.5 26q16 21 34 20t28 -21q7 -12 7.5 -28.5t-1.5 -33.5t-6 -34.5t-7 -30.5
q13 4 35 17.5t47 24t49.5 12.5t41.5 -16q23 -24 18.5 -52.5t-24.5 -55.5q-14 -18 -30.5 -35t-34.5 -33.5t-35 -32.5t-32 -33q-8 -10 -13 -21t-5 -17.5t6.5 -4.5t21.5 18q14 14 28.5 33.5t25.5 33.5q13 19 26.5 24.5t24 4t17 -7.5t5.5 -10zM89 -134q-11 -11 -24.5 -41
t-20.5 -64q-8 -33 -9 -63t5 -45q3 -7 7 0t8 33q3 14 7 36t8.5 47t9.5 50.5t9 46.5zM24 437q-3 12 -10 14t-15 -14q-6 -13 -9 -30t-3 -24q-2 -27 9 -41q5 -8 11 -12q3 11 6.5 25.5t6.5 29.5t4.5 28.5t-0.5 23.5z" />
    <glyph glyph-name="b.002" unicode="&#xe026;" horiz-adv-x="352" 
d="M164 223q2 10 2.5 19t1.5 17q0 20 -6 37.5t-17 25.5q-8 5 -14.5 1.5t-8.5 -14.5q-3 -19 7 -42t35 -44zM40 457q5 19 12 43t14 48.5t13.5 46.5t10.5 36q11 39 33 71.5t53 49.5q28 15 58.5 13.5t53 -17.5t33 -43t-0.5 -63q-7 -23 -22 -44.5t-34 -41.5q-36 -36 -76.5 -59
t-85.5 -46q-43 -144 -68 -288q-4 -18 -5 -37.5t1.5 -36t8 -27.5t14.5 -14q17 -6 32 7.5t33 40.5q13 19 23.5 45.5t16.5 54.5q-27 13 -44 39t-22 54.5t3.5 53t33.5 34.5q29 12 53 5t38 -37q14 -28 15.5 -69t-7.5 -85q24 -3 44 3.5t35.5 19.5t26.5 30.5t18 37.5q4 16 9 27
q1 3 5.5 4t9 0t8 -3t2.5 -5l-9 -27q-8 -24 -21.5 -45.5t-32.5 -37.5t-44.5 -24.5t-56.5 -5.5q-11 -38 -28.5 -71.5t-41.5 -56.5q-33 -32 -69.5 -36t-65 14t-44 54.5t-6.5 86.5q6 33 13 65t15 65t17 68.5t20 76.5q-46 -4 -99.5 11.5t-108.5 36.5t-109.5 39t-102 19.5
t-85.5 -21.5t-60 -85q-4 -10 -13.5 -6.5t-6.5 12.5q29 77 71.5 107t93 30.5t106.5 -19.5t112.5 -43.5t110 -41.5t99.5 -13zM111 484q15 6 32.5 16.5t35 22.5t33.5 24.5t27 24.5q17 17 29.5 36t16.5 39q5 21 -1.5 38.5t-19 27.5t-29 11t-31.5 -11q-20 -15 -34 -45.5
t-22 -56.5q-8 -29 -18.5 -65t-18.5 -62z" />
    </font>
</defs>
</svg>
