<?xml version="1.0" standalone="no"?>
<!DOCTYPE svg PUBLIC "-//W3C//DTD SVG 1.1//EN" "http://www.w3.org/Graphics/SVG/1.1/DTD/svg11.dtd" >
<svg xmlns="http://www.w3.org/2000/svg" xmlns:xlink="http://www.w3.org/1999/xlink" version="1.1">
<metadata>
Created by FontForge 20230101 at Wed Mar 30 01:13:10 2011
 By Unknown
Typeface (c) 2011 Zdenek Gromnica
</metadata>
<defs>
<font id="NotJustGroovy" horiz-adv-x="1200" >
  <font-face 
    font-family="Not Just Groovy"
    font-weight="400"
    font-stretch="normal"
    units-per-em="2048"
    panose-1="2 0 5 0 0 0 0 0 0 0"
    ascent="1638"
    descent="-410"
    x-height="1050"
    cap-height="1500"
    bbox="-342 -450 2048 1950"
    underline-thickness="150"
    underline-position="-292"
    unicode-range="U+0020-2265"
  />
<missing-glyph 
d="M50 1500h1050v-1500h-1050v1500zM150 1400v-1300h850v1300h-850z" />
    <glyph glyph-name=".notdef" 
d="M50 1500h1050v-1500h-1050v1500zM150 1400v-1300h850v1300h-850z" />
    <glyph glyph-name=".null" horiz-adv-x="0" 
 />
    <glyph glyph-name="nonmarkingreturn" horiz-adv-x="500" 
 />
    <glyph glyph-name="space" unicode=" " horiz-adv-x="500" 
 />
    <glyph glyph-name="space" unicode="&#xa0;" horiz-adv-x="500" 
 />
    <glyph glyph-name="space" unicode="&#xa0;" horiz-adv-x="500" 
 />
    <glyph glyph-name="exclam" unicode="!" horiz-adv-x="300" 
d="M50 300v1200h150v-1200h-150zM125 -25q-100 0 -100 100t100 100t100 -100t-100 -100z" />
    <glyph glyph-name="quotedbl" unicode="&#x22;" horiz-adv-x="672" 
d="M197 1108h-30l-62 359q-4 23 -4 33q0 37 20.5 57t59.5 20t60.5 -19.5t21.5 -56.5q0 -8 -4 -34zM509 1108h-30l-62 359q-4 23 -4 33q0 37 20.5 57t59.5 20t60.5 -19.5t21.5 -56.5q0 -8 -4 -34z" />
    <glyph glyph-name="numbersign" unicode="#" horiz-adv-x="1336" 
d="M596 859l-85 -290h242l86 290h-243zM673 1434h93l-141 -477h242l142 477h92l-141 -477h259l-29 -97h-259l-83 -290h279l-30 -98h-280l-140 -472h-92l139 472h-240l-142 -472h-92l140 472h-273l30 98h271l86 290h-295l29 97h295z" />
    <glyph glyph-name="dollar" unicode="$" horiz-adv-x="1014" 
d="M577 1552v-102q68 -8 141 -35q10 -6 19 -6q25 0 41 45h50l103 -282h-49q-60 134 -168 179q-74 30 -137 39v-540q241 -93 322.5 -183t81.5 -264q0 -197 -119.5 -300t-284.5 -120v-239h-73v237q-188 3 -266 38q-10 6 -19 6q-25 0 -41 -45h-50v331h49q50 -183 152.5 -226
t174.5 -43v635q-214 67 -299 153q-92 91 -92 249q0 166 125 271q105 88 266 102v100h73zM577 655v-610q125 17 211.5 96t86.5 219q0 116 -69 183q-62 59 -229 112zM504 873v520q-119 -5 -199 -72q-86 -73 -86 -182q0 -98 55 -153q52 -54 230 -113z" />
    <glyph glyph-name="percent" unicode="%" horiz-adv-x="1610" 
d="M449 1459q98 0 190.5 -49t144.5 -139.5t52 -190.5q0 -99 -50.5 -188.5t-143 -140t-193.5 -50.5q-100 0 -192.5 50.5t-143.5 140t-51 188.5q0 100 52 190.5t144.5 139.5t190.5 49zM206 1066q13 -92 55.5 -173.5t106.5 -124.5q57 -40 114 -40q7 0 13 1q63 3 115 53t73 136
q13 54 13 111q0 32 -4 65q-12 93 -56 175.5t-107 124.5q-58 38 -115 38h-11q-61 -3 -113 -52t-73 -135q-15 -58 -15 -117q0 -31 4 -62zM297 -29l940 1461h84l-938 -1461h-86zM1161 738q97 0 190 -49.5t145 -140t52 -189.5q0 -100 -50.5 -189.5t-143 -139.5t-193.5 -50
t-193 50t-143 139.5t-51 189.5q0 99 52 189.5t144.5 140t190.5 49.5zM918 344q13 -92 55.5 -173.5t106.5 -124.5q59 -39 116 -39h11q63 3 115 53t73 136q13 54 13 111q0 32 -4 65q-12 93 -56 175.5t-107 124.5q-58 38 -115 38h-11q-61 -3 -113 -52t-73 -135
q-15 -58 -15 -117q0 -31 4 -62z" />
    <glyph glyph-name="ampersand" unicode="&#x26;" horiz-adv-x="1683" 
d="M1051 196l-554 683q-118 0 -179.5 -86t-61.5 -204q0 -91 35.5 -181.5t101.5 -164.5q72 -83 165 -127t194 -44q88 0 169 33.5t130 90.5zM1394 0q-56 0 -139 25t-167 132q-67 -74 -175 -123.5t-241 -49.5q-229 0 -374.5 150.5t-145.5 385.5q0 161 76 266.5t225 151.5
q-42 61 -62.5 116t-20.5 111q0 105 77 197t182 92q68 0 142 -39q9 -6 18 -6q23 0 38 45h46l96 -281h-46q-55 133 -155 178q-85 37 -141 37q-65 0 -106 -45.5t-41 -117.5q0 -131 102 -267l531 -670q98 146 121 244q17 78 17 130q0 97 -62 97h-90v50h443v-50h-90
q-95 0 -145 -227q-31 -132 -155 -292q109 -136 248 -136h16q143 17 192 128l49 -1l-103 -231h-160z" />
    <glyph glyph-name="quotesingle" unicode="'" horiz-adv-x="346" 
d="M197 1108h-30l-62 359q-4 23 -4 33q0 37 20.5 57t59.5 20t60.5 -19.5t21.5 -56.5q0 -8 -4 -34z" />
    <glyph glyph-name="parenleft" unicode="(" horiz-adv-x="758" 
d="M252 601q2 277 99.5 530t268.5 442h80q-172 -242 -230 -438q-57 -193 -57 -523v-22q0 -330 57 -522q58 -196 230 -438h-80q-171 189 -268.5 441.5t-99.5 529.5z" />
    <glyph glyph-name="parenright" unicode=")" horiz-adv-x="758" 
d="M138 -370h-80q172 242 230 438q57 192 57 522v22q0 330 -57 523q-58 196 -230 438h80q171 -189 268.5 -442t99.5 -530q-2 -277 -99.5 -529.5t-268.5 -441.5z" />
    <glyph glyph-name="asterisk" unicode="*" horiz-adv-x="1024" 
d="M498 1294q-4 71 -37 130q-37 66 -37 84q0 32 23.5 51.5t62.5 19.5q37 0 61.5 -18t24.5 -47q0 -21 -36 -89q-33 -61 -37 -130q66 25 113 75q51 55 69 61q11 3 21 3q18 0 35 -10q26 -17 38 -53q6 -19 6 -36q0 -15 -4 -28q-10 -30 -38 -38q-6 -2 -19 -2q-25 0 -76 9
q-28 5 -55 5q-41 0 -81 -11q44 -55 105 -83q68 -32 79 -47q13 -18 13 -38q0 -9 -2 -17q-8 -30 -39 -53q-29 -22 -59 -22q-1 0 -1 1q-31 0 -48 23q-12 17 -22 94q-10 67 -47 125q-38 -58 -46 -124q-9 -75 -20 -90q-19 -25 -49 -27h-5q-28 0 -57 21q-30 21 -39 51q-4 10 -4 20
q0 17 11 32q13 17 83 51q61 29 105 82q-41 11 -80 11q-27 0 -53 -5q-54 -11 -78 -11q-9 0 -14 2q-30 9 -41 38q-6 13 -6 29q0 17 6 36q11 35 36 53q17 12 34 12q9 0 18 -3q20 -6 74 -62q47 -49 112 -75z" />
    <glyph glyph-name="plus" unicode="+" horiz-adv-x="1014" 
d="M437 647h-350v140h350v369l1 1h139v-370h349l1 -1v-139h-350v-370h-140v370z" />
    <glyph glyph-name="comma" unicode="," horiz-adv-x="400" 
d="M163 258q44 0 88.5 -65.5t44.5 -151.5q0 -109 -71 -226.5t-139 -117.5q73 86 87 233q0 119 -129 203z" />
    <glyph glyph-name="hyphen" unicode="-" horiz-adv-x="670" 
d="M156 409q-40 0 -40 28v83q0 29 41 29h356q41 0 41 -29v-83q0 -28 -40 -28h-358z" />
    <glyph glyph-name="hyphen" unicode="&#xad;" horiz-adv-x="670" 
d="M156 409q-40 0 -40 28v83q0 29 41 29h356q41 0 41 -29v-83q0 -28 -40 -28h-358z" />
    <glyph glyph-name="hyphen" unicode="&#xad;" horiz-adv-x="670" 
d="M156 409q-40 0 -40 28v83q0 29 41 29h356q41 0 41 -29v-83q0 -28 -40 -28h-358z" />
    <glyph glyph-name="period" unicode="." horiz-adv-x="350" 
d="M150 0q-100 0 -100 100t100 100t100 -100t-100 -100z" />
    <glyph glyph-name="slash" unicode="/" horiz-adv-x="569" 
d="M93 -50h-80l541 1484h80z" />
    <glyph glyph-name="zero" unicode="0" 
d="M50 1150q0 350 350 350h350q350 0 350 -350v-800q0 -350 -350 -350h-350q-350 0 -350 350v800zM400 1350q-200 0 -200 -200v-800q0 -200 200 -200h350q200 0 200 200v800q0 200 -200 200h-350z" />
    <glyph glyph-name="one" unicode="1" horiz-adv-x="300" 
d="M50 0v1500h150v-1500h-150z" />
    <glyph glyph-name="two" unicode="2" 
d="M50 0v400q0 400 350 400h300q250 0 250 250q0 300 -250 300h-650v150h650q400 0 400 -450q0 -400 -400 -400h-300q-200 0 -200 -250v-250h900v-150h-1050z" />
    <glyph glyph-name="three" unicode="3" 
d="M700 850q250 0 250 250t-250 250h-650v150h650q400 0 400 -400q0 -222 -123 -321q123 -102 123 -354q0 -425 -350 -425h-700v150h700q200 0 200 275t-200 275h-225v150h175z" />
    <glyph glyph-name="four" unicode="4" 
d="M50 1500h150v-750h750v750h150v-1500h-150v600h-900v900z" />
    <glyph glyph-name="five" unicode="5" 
d="M1100 1500v-150h-900v-500h500q400 0 400 -400q0 -450 -400 -450h-650v150h650q250 0 250 300q0 250 -250 250h-650v800h1050z" />
    <glyph glyph-name="six" unicode="6" 
d="M1100 350q0 -350 -350 -350h-350q-350 0 -350 350v800q0 350 350 350h700v-150h-700q-200 0 -200 -200v-100h550q350 0 350 -350v-350zM750 150q200 0 200 200v350q0 200 -200 200h-550v-550q0 -200 200 -200h350z" />
    <glyph glyph-name="seven" unicode="7" 
d="M1100 0h-150v1350h-900v150h1050v-1500z" />
    <glyph glyph-name="eight" unicode="8" 
d="M475 850h175q300 0 300 250t-275 250h-200q-275 0 -275 -250t275 -250zM700 150q250 0 250 275t-250 275h-250q-250 0 -250 -275t250 -275h250zM450 0q-400 0 -400 425q0 247 136 351q-136 98 -136 324q0 400 425 400h200q425 0 425 -400q0 -223 -139 -321
q139 -103 139 -354q0 -425 -400 -425h-250z" />
    <glyph glyph-name="nine" unicode="9" 
d="M50 1150q0 350 350 350h350q350 0 350 -350v-800q0 -350 -350 -350h-700v150h700q200 0 200 200v100h-550q-350 0 -350 350v350zM400 1350q-200 0 -200 -200v-350q0 -200 200 -200h550v550q0 200 -200 200h-350z" />
    <glyph glyph-name="colon" unicode=":" horiz-adv-x="350" 
d="M150 0q-100 0 -100 100t100 100t100 -100t-100 -100zM150 825q-100 0 -100 100t100 100t100 -100t-100 -100z" />
    <glyph glyph-name="semicolon" unicode=";" horiz-adv-x="350" 
d="M150 825q-100 0 -100 100t100 100t100 -100t-100 -100zM144 261q44 0 88.5 -65.5t44.5 -151.5q0 -109 -71 -226.5t-139 -117.5q73 86 87 233q0 119 -129 203z" />
    <glyph glyph-name="semicolon" unicode="&#x37e;" horiz-adv-x="350" 
d="M150 825q-100 0 -100 100t100 100t100 -100t-100 -100zM144 261q44 0 88.5 -65.5t44.5 -151.5q0 -109 -71 -226.5t-139 -117.5q73 86 87 233q0 119 -129 203z" />
    <glyph glyph-name="semicolon" unicode="&#x37e;" horiz-adv-x="350" 
d="M150 825q-100 0 -100 100t100 100t100 -100t-100 -100zM144 261q44 0 88.5 -65.5t44.5 -151.5q0 -109 -71 -226.5t-139 -117.5q73 86 87 233q0 119 -129 203z" />
    <glyph glyph-name="less" unicode="&#x3c;" horiz-adv-x="1014" 
d="M927 1074l-625 -359l625 -355v-167l-840 481v83l840 484v-167z" />
    <glyph glyph-name="equal" unicode="=" horiz-adv-x="1014" 
d="M87 631h840v-140h-840v140zM87 943h840v-140h-840v140z" />
    <glyph glyph-name="greater" unicode="&#x3e;" horiz-adv-x="1014" 
d="M87 1241l840 -484v-83l-840 -481v167l625 355l-625 359v167z" />
    <glyph glyph-name="question" unicode="?" 
d="M425 -25q-100 0 -100 100t100 100t100 -100t-100 -100zM350 400q0 400 350 400q250 0 250 250q0 300 -250 300h-650v150h650q400 0 400 -450q0 -400 -400 -400q-200 0 -200 -250v-100h-150v100z" />
    <glyph glyph-name="at" unicode="@" horiz-adv-x="2019" 
d="M972 622q-83 -10 -151 -80t-68 -199q0 -107 64 -194t183 -87q97 5 126 167v476q-54 -63 -154 -83zM1360 29q-63 1 -100.5 18t-61.5 54q-29 -37 -82 -64.5t-133 -27.5q-144 0 -256.5 100.5t-112.5 233.5q1 87 53 166.5t132.5 115t173.5 49.5q67 16 110 42.5t43 74.5
q-2 69 -41 125t-129 56q-72 0 -121.5 -59t-50.5 -125h-45v159q0 20 72 40q73 20 178 20q109 -2 193.5 -64.5t84.5 -157.5v-589q0 -117 94 -117q185 35 267 191.5t82 382.5q-20 335 -232 540q-197 188 -480 188q-205 0 -392.5 -137.5t-269.5 -355.5q-67 -178 -67 -361
q0 -313 129.5 -511.5t305 -290.5t318.5 -92q274 0 575 208v-75q-263 -184 -571 -184q-240 0 -461 122.5t-343 342t-122 461.5t124 464.5t345.5 342t456.5 119.5q362 0 609 -230t247 -566q0 -270 -176 -439q-175 -168 -346 -170z" />
    <glyph glyph-name="A" unicode="A" horiz-adv-x="1150" 
d="M551 1292l-198 -692h396zM310 450l-129 -450h-156l430 1500h192l430 -1500h-156l-129 450h-482z" />
    <glyph glyph-name="B" unicode="B" 
d="M200 1350v-500h400q325 0 325 250t-325 250h-400zM200 700v-550h400q350 0 350 275t-350 275h-400zM50 0v1500h550q475 0 475 -400q0 -223 -148 -322q173 -103 173 -353q0 -425 -500 -425h-550z" />
    <glyph glyph-name="C" unicode="C" 
d="M750 150q200 0 200 200h150q0 -350 -350 -350h-350q-350 0 -350 350v800q0 350 350 350h350q350 0 350 -350h-150q0 200 -200 200h-350q-200 0 -200 -200v-800q0 -200 200 -200h350z" />
    <glyph glyph-name="D" unicode="D" 
d="M600 1350h-400v-1200h400q350 0 350 350v500q0 350 -350 350zM600 0h-550v1500h550q500 0 500 -500v-500q0 -500 -500 -500z" />
    <glyph glyph-name="E" unicode="E" 
d="M1100 1500v-150h-900v-500h750v-150h-750v-550h900v-150h-1050v1500h1050z" />
    <glyph glyph-name="F" unicode="F" 
d="M1100 1500v-150h-900v-500h750v-150h-750v-700h-150v1500h1050z" />
    <glyph glyph-name="G" unicode="G" 
d="M900 673v-2l-500 -115v155l500 114q200 -6 200 -256v-219q0 -350 -350 -350h-350q-350 0 -350 350v800q0 350 350 350h350q350 0 350 -350h-150q0 200 -200 200h-350q-200 0 -200 -200v-800q0 -200 200 -200h350q200 0 200 200v269q0 42 -50 54z" />
    <glyph glyph-name="H" unicode="H" 
d="M200 700v-700h-150v1500h150v-650h750v650h150v-1500h-150v700h-750z" />
    <glyph glyph-name="I" unicode="I" horiz-adv-x="300" 
d="M50 0v1500h150v-1500h-150z" />
    <glyph glyph-name="J" unicode="J" 
d="M750 150q200 0 200 200v1150h150v-1150q0 -350 -350 -350h-350q-350 0 -350 350v150h150v-150q0 -200 200 -200h350z" />
    <glyph glyph-name="K" unicode="K" horiz-adv-x="1150" 
d="M363 751l737 -682v-69h-146l-701 649l-53 -49v-600h-150v1500h150v-695l751 695h149v-67z" />
    <glyph glyph-name="L" unicode="L" 
d="M50 1500h150v-1350h900v-150h-1050v1500z" />
    <glyph glyph-name="M" unicode="M" horiz-adv-x="1525" 
d="M1263 1500l-525 -1301l-526 1301h-162v-1500h150v1129l457 -1129h162l456 1129v-1129h150v1500h-162z" />
    <glyph glyph-name="N" unicode="N" 
d="M950 284v1216h150v-1500h-151l-749 1216v-1216h-150v1500h151z" />
    <glyph glyph-name="O" unicode="O" 
d="M50 1150q0 350 350 350h350q350 0 350 -350v-800q0 -350 -350 -350h-350q-350 0 -350 350v800zM400 1350q-200 0 -200 -200v-800q0 -200 200 -200h350q200 0 200 200v800q0 200 -200 200h-350z" />
    <glyph glyph-name="P" unicode="P" 
d="M200 450v-450h-150v1500h700q350 0 350 -350v-350q0 -350 -350 -350h-550zM200 1350v-750h550q200 0 200 200v350q0 200 -200 200h-550z" />
    <glyph glyph-name="Q" unicode="Q" 
d="M400 1350q-200 0 -200 -200v-800q0 -200 200 -200h350q46 0 82 11l-182 181l106 106l183 -182q11 36 11 84v800q0 200 -200 200h-350zM50 1150q0 350 350 350h350q350 0 350 -350v-800q0 -123 -43 -202l158 -158l-106 -106l-158 158q-80 -42 -201 -42h-350
q-350 0 -350 350v800z" />
    <glyph glyph-name="R" unicode="R" 
d="M200 1350v-750h550q200 0 200 200v350q0 200 -200 200h-550zM200 450v-450h-150v1500h700q350 0 350 -350v-350q0 -347 -344 -350l394 -394v-56h-156l-450 450h-344z" />
    <glyph glyph-name="S" unicode="S" 
d="M50 0v150h700q200 0 200 250t-200 250h-300q-400 0 -400 400q0 450 400 450h650v-150h-650q-250 0 -250 -300q0 -250 250 -250h300q350 0 350 -400t-350 -400h-700z" />
    <glyph glyph-name="T" unicode="T" 
d="M650 1350v-1350h-150v1350h-450v150h1050v-150h-450z" />
    <glyph glyph-name="U" unicode="U" 
d="M750 150q200 0 200 200v1150h150v-1150q0 -350 -350 -350h-350q-350 0 -350 350v1150h150v-1150q0 -200 200 -200h350z" />
    <glyph glyph-name="V" unicode="V" horiz-adv-x="1150" 
d="M455 0l-430 1500h156l370 -1292l370 1292h156l-430 -1500h-192z" />
    <glyph glyph-name="W" unicode="W" horiz-adv-x="1650" 
d="M1072 0l-272 1176l-272 -1176h-156l-347 1500h153l272 -1176l272 1176h156l272 -1176l272 1176h153l-347 -1500h-156z" />
    <glyph glyph-name="X" unicode="X" 
d="M586 606l-365 -605h-175l452 750l-452 750h175l365 -605l364 605h175l-452 -750l452 -750h-175z" />
    <glyph glyph-name="Y" unicode="Y" 
d="M675 750v-750h-175v750l-452 750h175l365 -605l364 605h175z" />
    <glyph glyph-name="Z" unicode="Z" 
d="M224 150h876v-150h-1050v166l871 1184h-871v150h1050v-160z" />
    <glyph glyph-name="bracketleft" unicode="[" horiz-adv-x="758" 
 />
    <glyph glyph-name="backslash" unicode="\" horiz-adv-x="569" 
 />
    <glyph glyph-name="bracketright" unicode="]" horiz-adv-x="758" 
 />
    <glyph glyph-name="asciicircum" unicode="^" horiz-adv-x="1014" 
 />
    <glyph glyph-name="underscore" unicode="_" 
d="M0 -300v150h1200v-150h-1200z" />
    <glyph glyph-name="grave" unicode="`" horiz-adv-x="650" 
d="M220 1351l343 -251h-170l-343 251h170z" />
    <glyph glyph-name="a" unicode="a" 
d="M750 150q200 0 200 200v215l-709 -163q-41 -14 -41 -52q0 -200 200 -200h350zM400 900q-200 0 -200 -200h-150q0 350 350 350h350q350 0 350 -350v-350q0 -350 -350 -350h-350q-350 0 -350 300q0 218 152 250l747 170q-9 180 -199 180h-350z" />
    <glyph glyph-name="b" unicode="b" 
d="M1100 350q0 -350 -350 -350h-350q-350 0 -350 350v1150h150v-450h550q350 0 350 -350v-350zM750 150q200 0 200 200v350q0 200 -200 200h-550v-550q0 -200 200 -200h350z" />
    <glyph glyph-name="c" unicode="c" 
d="M750 150q200 0 200 200h150q0 -350 -350 -350h-350q-350 0 -350 350v350q0 350 350 350h350q350 0 350 -350h-150q0 200 -200 200h-350q-200 0 -200 -200v-350q0 -200 200 -200h350z" />
    <glyph glyph-name="d" unicode="d" 
d="M200 350q0 -200 200 -200h350q200 0 200 200v550h-550q-200 0 -200 -200v-350zM400 0q-350 0 -350 350v350q0 350 350 350h550v450h150v-1150q0 -350 -350 -350h-350z" />
    <glyph glyph-name="e" unicode="e" horiz-adv-x="1125" 
d="M375 900q-200 0 -200 -200v-215l709 163q41 14 41 52q0 200 -200 200h-350zM725 150q200 0 200 200h150q0 -350 -350 -350h-350q-350 0 -350 350v350q0 350 350 350h350q350 0 350 -300q0 -218 -152 -250l-747 -170q9 -180 199 -180h350z" />
    <glyph glyph-name="f" unicode="f" horiz-adv-x="750" 
d="M200 1050v100q0 350 350 350h100v-150h-100q-200 0 -200 -200v-100h250v-150h-250v-900h-150v900h-150v150h150z" />
    <glyph glyph-name="g" unicode="g" 
d="M50 700q0 350 350 350h350q350 0 350 -350v-800q0 -350 -350 -350h-700v150h700q200 0 200 200v100h-550q-350 0 -350 350v350zM400 900q-200 0 -200 -200v-350q0 -200 200 -200h550v550q0 200 -200 200h-350z" />
    <glyph glyph-name="h" unicode="h" 
d="M50 1500h150v-450h400q500 0 500 -500v-550h-150v550q0 350 -350 350h-400v-900h-150v1500z" />
    <glyph glyph-name="i" unicode="i" horiz-adv-x="300" 
d="M50 0v1050h150v-1050h-150zM125 1175q-100 0 -100 100t100 100t100 -100t-100 -100z" />
    <glyph glyph-name="j" unicode="j" horiz-adv-x="300" 
d="M200 -100q0 -350 -350 -350h-50v150h50q200 0 200 200v1150h150v-1150zM125 1175q-100 0 -100 100t100 100t100 -100t-100 -100z" />
    <glyph glyph-name="k" unicode="k" 
d="M521 524l579 -452v-72h-150l-550 429l-200 -156v-273h-150v1500h150v-1037l750 587h150v-73z" />
    <glyph glyph-name="l" unicode="l" horiz-adv-x="300" 
d="M50 0v1500h150v-1500h-150z" />
    <glyph glyph-name="m" unicode="m" horiz-adv-x="1800" 
d="M450 900h-250v-900h-150v1050h400q238 0 362 -113q38 113 188 113h200q500 0 500 -500v-550h-150v550q0 350 -350 350h-200q-50 0 -50 -50v-850h-150v550q0 350 -350 350z" />
    <glyph glyph-name="n" unicode="n" 
d="M600 900h-400v-900h-150v1050h550q500 0 500 -500v-550h-150v550q0 350 -350 350z" />
    <glyph glyph-name="o" unicode="o" 
d="M50 700q0 350 350 350h350q350 0 350 -350v-350q0 -350 -350 -350h-350q-350 0 -350 350v350zM400 900q-200 0 -200 -200v-350q0 -200 200 -200h350q200 0 200 200v350q0 200 -200 200h-350z" />
    <glyph glyph-name="p" unicode="p" 
d="M950 700q0 200 -200 200h-350q-200 0 -200 -200v-550h550q200 0 200 200v350zM750 1050q350 0 350 -350v-350q0 -350 -350 -350h-550v-450h-150v1150q0 350 350 350h350z" />
    <glyph glyph-name="q" unicode="q" 
d="M50 700q0 350 350 350h350q350 0 350 -350v-1150h-150v450h-550q-350 0 -350 350v350zM400 900q-200 0 -200 -200v-350q0 -200 200 -200h550v550q0 200 -200 200h-350z" />
    <glyph glyph-name="r" unicode="r" horiz-adv-x="1050" 
d="M550 1050h400v-150h-400q-350 0 -350 -350v-550h-150v550q0 500 500 500z" />
    <glyph glyph-name="s" unicode="s" 
d="M50 0v150h750q150 0 150 150t-150 150h-450q-300 0 -300 300t300 300h750v-150h-750q-150 0 -150 -150t150 -150h450q300 0 300 -300t-300 -300h-750z" />
    <glyph glyph-name="t" unicode="t" horiz-adv-x="750" 
d="M350 350q0 -200 200 -200h100v-150h-100q-350 0 -350 350v550h-150v150h150v250h150v-250h250v-150h-250v-550z" />
    <glyph glyph-name="u" unicode="u" 
d="M50 1050h150v-700q0 -200 200 -200h350q200 0 200 200v700h150v-700q0 -350 -350 -350h-350q-350 0 -350 350v700z" />
    <glyph glyph-name="v" unicode="v" horiz-adv-x="1150" 
d="M551 185l361 865h163l-440 -1050h-169l-441 1050h164z" />
    <glyph glyph-name="w" unicode="w" horiz-adv-x="1800" 
d="M402 0l-377 1050h161l302 -842l301 842h172l302 -842l301 842h161l-378 -1050h-170l-302 841l-303 -841h-170z" />
    <glyph glyph-name="x" unicode="x" 
d="M575 643l330 407h193l-427 -525l427 -525h-193l-330 406l-330 -406h-193l427 525l-427 525h192z" />
    <glyph glyph-name="y" unicode="y" 
d="M50 1050h150v-700q0 -200 200 -200h350q200 0 200 200v700h150v-1150q0 -350 -350 -350h-700v150h700q200 0 200 200v142q-79 -42 -200 -42h-350q-350 0 -350 350v700z" />
    <glyph glyph-name="z" unicode="z" 
d="M874 900h-824v150h1050v-150l-826 -750h826v-150h-1050v150z" />
    <glyph glyph-name="braceleft" unicode="{" horiz-adv-x="1014" 
d="M240 698q172 5 223 71t51 133v468q0 74 77 141.5t185 67.5h108v-50h-90q-61 0 -107 -33.5t-47 -91.5v-500q0 -83 -60.5 -158.5t-142.5 -76.5v-2q82 -1 143 -76t61 -158l-1 -500q1 -58 47 -91.5t107 -33.5h90v-50h-108q-108 0 -184.5 67.5t-77.5 141.5v468q0 66 -51 132
t-223 71v60z" />
    <glyph glyph-name="bar" unicode="|" horiz-adv-x="1014" 
d="M427 1577h160v-1995h-160v1995z" />
    <glyph glyph-name="braceright" unicode="}" horiz-adv-x="1014" 
d="M774 638q-172 -5 -223 -71t-51 -132v-468q-1 -74 -77.5 -141.5t-184.5 -67.5h-108v50h90q61 0 107 33.5t47 91.5l-1 500q0 83 61 158t144 76v2q-83 1 -143.5 76.5t-60.5 158.5v500q-1 58 -47 91.5t-107 33.5h-90v50h108q108 0 185 -67.5t77 -141.5v-468q0 -67 51 -133
t223 -71v-60z" />
    <glyph glyph-name="asciitilde" unicode="~" horiz-adv-x="1014" 
d="M923 878v-156q-63 -72 -122 -97.5t-116 -25.5q-60 0 -177.5 48.5t-176.5 48.5q-51 0 -107.5 -28t-129.5 -112v156q64 73 123 99t114 26q64 0 181.5 -49.5t172.5 -49.5q52 0 108.5 28t129.5 112z" />
    <glyph glyph-name="exclamdown" unicode="&#xa1;" horiz-adv-x="300" 
d="M200 750v-1200h-150v1200h150zM225 975q0 -100 -100 -100t-100 100t100 100t100 -100z" />
    <glyph glyph-name="cent" unicode="&#xa2;" horiz-adv-x="1139" 
 />
    <glyph glyph-name="sterling" unicode="&#xa3;" horiz-adv-x="1014" 
d="M748 1347q-72 31 -160 31h-2q-100 0 -190 -101q-84 -93 -84 -241q0 -15 1 -30q0 -135 53 -273h360v-60h-334q14 -30 31 -60q35 -63 35 -138q0 -161 -162 -375h402q130 0 189 132l49 -1l-103 -231h-719l1 50q187 238 187 418q0 77 -34 143q-17 32 -31 62h-161v60h135
q-58 143 -58 253q0 226 123.5 347t306.5 121h4q75 0 185.5 -14t110.5 -34v-161h-58q-5 61 -77 102z" />
    <glyph glyph-name="currency" unicode="&#xa4;" horiz-adv-x="1014" 
d="M350 560q41 -40 99 -57q29 -8 58 -8t58 8q58 17 99 57q40 41 57 99q9 29 9 58t-9 58q-17 58 -57 99q-41 40 -100 57q-29 8 -58 8t-58 -9q-58 -17 -98 -56q-39 -40 -56 -98q-10 -30 -10 -60q0 -28 9 -56q16 -59 57 -100zM240 903l-118 118l80 81l118 -118q44 30 99 46
q44 14 89 14q41 0 83 -12q57 -17 102 -48l118 118l80 -81l-117 -117q31 -46 48 -102q12 -42 12 -85q0 -42 -12 -85q-17 -56 -48 -102l117 -117l-80 -81l-118 118q-45 -32 -101 -48q-42 -12 -85 -12q-42 0 -85 12q-57 16 -102 48l-118 -118l-80 81l118 117q-32 46 -48 103
q-12 42 -12 84q0 44 13 87q16 55 47 99z" />
    <glyph glyph-name="yen" unicode="&#xa5;" horiz-adv-x="1262" 
d="M547 225l-2 242q0 19 -1.5 35t-4.5 32l-484 1q-14 0 -21 6.5t-7 19.5t6.5 19t21.5 6h467l-121 172h-344q-17 0 -23.5 5.5t-6.5 18.5q0 14 6 19.5t22 5.5h307q-43 57 -108 155q-131 197 -227 197q-7 0 -13 5.5t-6 11.5q0 19 10.5 27.5t32.5 8.5q27 0 123 -8t164 -8h57h31
q33 0 41 -6.5t8 -26.5q0 -8 -15 -14t-38 -6q-6 0 -18.5 2t-18.5 2q-24 0 -37.5 -9.5t-13.5 -25.5q0 -18 16.5 -52t46.5 -77l158 -221q13 -19 33 -53q41 -70 71 -70q9 0 16.5 5t14.5 15l277 396q8 12 13 26.5t5 24.5q0 18 -10 27t-37 14q-15 2 -41 4q-47 3 -47 25
q0 15 8 22.5t25 7.5q3 0 15 -1q56 -7 108 -7h139q30 0 65 1t37 1q11 0 18.5 -4.5t8.5 -11.5q0 -28 -38 -34q-18 -3 -27 -5q-63 -15 -147 -117q-7 -9 -12 -15l-169 -206h323q15 0 24 -6t9 -17q0 -15 -6 -20.5t-23 -5.5h-366q-46 -57 -96.5 -112.5t-52.5 -59.5h511
q18 0 25.5 -5.5t7.5 -17.5q0 -14 -7 -21t-22 -7h-530q0 -11 -1 -30.5t-1 -29.5l2 -215q0 -114 5.5 -150t20.5 -44q30 -17 107.5 -19t77.5 -31q0 -12 -10 -20t-25 -8q-2 0 -35.5 4t-64.5 4q-91 0 -208.5 -4t-142.5 -4q-31 0 -40 4t-9 16t8 18.5t37 12.5q9 2 25 5q74 16 92 32
q17 13 24 47t7 102z" />
    <glyph glyph-name="brokenbar" unicode="&#xa6;" horiz-adv-x="1014" 
d="M427 371h160v-789h-160v789zM427 1578h160v-789h-160v789z" />
    <glyph glyph-name="section" unicode="&#xa7;" horiz-adv-x="1014" 
d="M545 321q56 16 97 53q73 65 73 166q0 5 -1 10h-2q-1 14 -4 27q-22 61 -113 127q-59 29 -126 29q-78 0 -125 -44.5t-47 -117.5q0 -123 248 -250zM466 -346q113 6 185 69q72 64 72 165q0 125 -316 276q-123 64 -175.5 137t-52.5 177q0 148 89 237q67 65 170 82l-40 19
q-123 64 -175.5 137t-52.5 177q0 148 89 237q82 79 216 86q8 1 17 1h3q66 0 163 -16.5t97 -41.5v-194h-51q-5 81 -80 132q-70 47 -149 51h-15q-78 0 -125 -44.5t-47 -117.5q0 -132 287 -269q149 -67 204.5 -143.5t55.5 -187.5q0 -171 -101 -282q-47 -39 -99 -64
q108 -56 154 -118q55 -77 55 -187q0 -171 -101 -283q-124 -102 -277 -105v1q-6 -1 -13 -1h-3q-66 0 -163 16.5t-97 41.5v194h51q5 -81 80 -132q68 -45 145 -50z" />
    <glyph glyph-name="dieresis" unicode="&#xa8;" horiz-adv-x="650" 
d="M150 1050q-100 0 -100 100t100 100t100 -100t-100 -100zM450 1050q-100 0 -100 100t100 100t100 -100t-100 -100z" />
    <glyph glyph-name="copyright" unicode="&#xa9;" horiz-adv-x="1674" 
d="M840 1456q145 0 280 -56.5t239 -160.5q102 -101 158.5 -238t56.5 -283q0 -147 -56.5 -282t-162.5 -240q-105 -105 -239 -159.5t-283 -54.5q-146 0 -278 55.5t-238 160.5q-106 104 -161.5 237.5t-55.5 282.5q0 148 55.5 283t159.5 238q102 104 238.5 160.5t286.5 56.5z
M357 1197q-95 -96 -146 -219.5t-51 -259.5q0 -137 51 -259t148 -219q98 -96 219 -147t256 -51q137 0 259.5 50.5t219.5 145.5q97 98 149 221.5t52 258.5q0 134 -52 259.5t-145 219.5q-96 96 -220 147.5t-258 51.5q-137 0 -262 -51.5t-220 -147.5zM865 223q-142 0 -264 68
t-186 185t-64 243t65.5 244t187.5 184.5t254 66.5q38 0 75 -6.5t76 -20.5q5 -1 9 -1q19 0 26 30h42l72 -198h-44q-52 94 -131 124q-72 26 -147 26h-15q-86 -8 -166.5 -71t-121.5 -177q-33 -90 -33 -184q0 -25 2 -50q11 -121 69.5 -224t149.5 -152q72 -40 166 -42
q124 0 194 56t70 126h53v-100q0 -46 -96.5 -86.5t-242.5 -40.5z" />
    <glyph glyph-name="ordfeminine" unicode="&#xaa;" horiz-adv-x="648" 
 />
    <glyph glyph-name="guillemotleft" unicode="&#xab;" horiz-adv-x="944" 
d="M174 479l342 303h14v-37l-205 -266l205 -266v-37h-14zM487 479l342 303h14v-37l-205 -266l205 -266v-37h-14z" />
    <glyph glyph-name="logicalnot" unicode="&#xac;" horiz-adv-x="1014" 
d="M87 767h840v-491l-1 -1h-98v392h-741v100z" />
    <glyph glyph-name="registered" unicode="&#xae;" horiz-adv-x="1674" 
d="M751 1099v-374l3 -8q23 -56 56 -81q29 -22 56 -22h6q31 4 61.5 38.5t46.5 97.5q13 50 13 103q0 13 -1 27q-4 67 -28 124.5t-56.5 76t-63.5 18.5h-93zM984 576l82 -116q100 -141 150 -141h34v-50h-346v50h45q30 0 30 22q0 29 -69 114l-75 102q-42 0 -84 42v-159
q0 -121 36 -121h53v-50h-316v50h43q37 0 37 121v538q0 121 -37 121h-43v70h356q64 -1 125 -42q60 -41 92.5 -114t32.5 -152q0 -78 -32 -150.5t-114 -134.5zM840 1456q145 0 280 -56.5t239 -160.5q102 -101 158.5 -238t56.5 -283q0 -147 -56.5 -282t-162.5 -240
q-105 -105 -239 -159.5t-283 -54.5q-146 0 -278 55.5t-238 160.5q-106 104 -161.5 237.5t-55.5 282.5q0 148 55.5 283t159.5 238q102 104 238.5 160.5t286.5 56.5zM357 1197q-95 -96 -146 -219.5t-51 -259.5q0 -137 51 -259t148 -219q98 -96 219 -147t256 -51
q137 0 259.5 50.5t219.5 145.5q97 98 149 221.5t52 258.5q0 134 -52 259.5t-145 219.5q-96 96 -220 147.5t-258 51.5q-137 0 -262 -51.5t-220 -147.5z" />
    <glyph glyph-name="macron" unicode="&#xaf;" horiz-adv-x="670" 
 />
    <glyph glyph-name="degree" unicode="&#xb0;" horiz-adv-x="674" 
d="M339 1372q-86 0 -147.5 -61t-61.5 -148t61 -147t148 -60t147 60t60 147t-60.5 148t-146.5 61zM339 1442q115 0 196 -81.5t81 -196.5q0 -114 -82 -196t-197 -82q-117 0 -197 81t-80 197t81.5 197t197.5 81z" />
    <glyph glyph-name="plusminus" unicode="&#xb1;" horiz-adv-x="1014" 
 />
    <glyph glyph-name="uni00B2" unicode="&#xb2;" horiz-adv-x="1014" 
 />
    <glyph glyph-name="uni00B3" unicode="&#xb3;" horiz-adv-x="1014" 
 />
    <glyph glyph-name="acute" unicode="&#xb4;" horiz-adv-x="650" 
d="M563 1351l-343 -251h-170l343 251h170z" />
    <glyph glyph-name="paragraph" unicode="&#xb6;" horiz-adv-x="1024" 
d="M929 1435v-70h-127v-1365h-82v1365h-166v-1365h-84v738q-174 8 -275.5 102.5t-101.5 245.5q0 157 107.5 253t285.5 96h443z" />
    <glyph glyph-name="periodcentered" unicode="&#xb7;" horiz-adv-x="350" 
d="M150 500q-100 0 -100 100t100 100t100 -100t-100 -100z" />
    <glyph glyph-name="periodcentered" unicode="&#x2219;" horiz-adv-x="350" 
d="M150 500q-100 0 -100 100t100 100t100 -100t-100 -100z" />
    <glyph glyph-name="periodcentered" unicode="&#x2219;" horiz-adv-x="350" 
d="M150 500q-100 0 -100 100t100 100t100 -100t-100 -100z" />
    <glyph glyph-name="cedilla" unicode="&#xb8;" horiz-adv-x="1024" 
d="M360 -290q85 -52 152 -52q66 0 94.5 21.5t28.5 66.5t-49 64q-40 16 -102 16q-16 0 -34 -2l48 176h63l-37 -104q32 4 62 5q86 0 134 -40.5t48 -113.5q0 -76 -58.5 -120.5t-160.5 -44.5q-109 0 -189 32v96z" />
    <glyph glyph-name="uni00B9" unicode="&#xb9;" horiz-adv-x="1014" 
 />
    <glyph glyph-name="ordmasculine" unicode="&#xba;" horiz-adv-x="718" 
 />
    <glyph glyph-name="guillemotright" unicode="&#xbb;" horiz-adv-x="944" 
d="M115 176h-14v37l205 266l-205 266v37h14l342 -303zM428 176h-14v37l205 266l-205 266v37h14l342 -303z" />
    <glyph glyph-name="onequarter" unicode="&#xbc;" horiz-adv-x="1708" 
 />
    <glyph glyph-name="onehalf" unicode="&#xbd;" horiz-adv-x="1964" 
 />
    <glyph glyph-name="threequarters" unicode="&#xbe;" horiz-adv-x="1708" 
 />
    <glyph glyph-name="questiondown" unicode="&#xbf;" horiz-adv-x="748" 
 />
    <glyph glyph-name="Agrave" unicode="&#xc0;" horiz-adv-x="1150" 
d="M551 1292l-198 -692h396zM310 450l-129 -450h-156l430 1500h192l430 -1500h-156l-129 450h-482zM282 1850l343 -251h-170l-343 251h170z" />
    <glyph glyph-name="Aacute" unicode="&#xc1;" horiz-adv-x="1150" 
d="M551 1292l-198 -692h396zM310 450l-129 -450h-156l430 1500h192l430 -1500h-156l-129 450h-482zM976 1851l-343 -251h-170l343 251h170z" />
    <glyph glyph-name="Acircumflex" unicode="&#xc2;" horiz-adv-x="1150" 
d="M551 1292l-198 -692h396zM310 450l-129 -450h-156l430 1500h192l430 -1500h-156l-129 450h-482zM614 1851l202 -251h-129l-202 251h129zM616 1851l-202 -251h-129l203 251h128z" />
    <glyph glyph-name="Atilde" unicode="&#xc3;" horiz-adv-x="1540" 
 />
    <glyph glyph-name="Adieresis" unicode="&#xc4;" horiz-adv-x="1150" 
d="M551 1292l-198 -692h396zM310 450l-129 -450h-156l430 1500h192l430 -1500h-156l-129 450h-482zM400 1600q-100 0 -100 100t100 100t100 -100t-100 -100zM700 1600q-100 0 -100 100t100 100t100 -100t-100 -100z" />
    <glyph glyph-name="Aring" unicode="&#xc5;" horiz-adv-x="1540" 
 />
    <glyph glyph-name="AE" unicode="&#xc6;" horiz-adv-x="2118" 
 />
    <glyph glyph-name="Ccedilla" unicode="&#xc7;" horiz-adv-x="1399" 
 />
    <glyph glyph-name="Egrave" unicode="&#xc8;" 
d="M1100 1500v-150h-900v-500h750v-150h-750v-550h900v-150h-1050v1500h1050zM370 1851l343 -251h-170l-343 251h170z" />
    <glyph glyph-name="Eacute" unicode="&#xc9;" 
d="M1100 1500v-150h-900v-500h750v-150h-750v-550h900v-150h-1050v1500h1050zM1000 1850l-343 -251h-170l343 251h170z" />
    <glyph glyph-name="Ecircumflex" unicode="&#xca;" 
d="M1100 1500v-150h-900v-500h750v-150h-750v-550h900v-150h-1050v1500h1050zM629 1851l202 -251h-129l-202 251h129zM631 1851l-202 -251h-129l203 251h128z" />
    <glyph glyph-name="Edieresis" unicode="&#xcb;" 
d="M1100 1500v-150h-900v-500h750v-150h-750v-550h900v-150h-1050v1500h1050zM425 1600q-100 0 -100 100t100 100t100 -100t-100 -100zM725 1600q-100 0 -100 100t100 100t100 -100t-100 -100z" />
    <glyph glyph-name="Igrave" unicode="&#xcc;" horiz-adv-x="300" 
d="M50 0v1500h150v-1500h-150zM-130 1851l343 -251h-170l-343 251h170z" />
    <glyph glyph-name="Iacute" unicode="&#xcd;" horiz-adv-x="300" 
d="M50 0v1500h150v-1500h-150zM550 1851l-343 -251h-170l343 251h170z" />
    <glyph glyph-name="Icircumflex" unicode="&#xce;" horiz-adv-x="300" 
d="M50 0v1500h150v-1500h-150zM179 1850l202 -251h-129l-202 251h129zM181 1850l-202 -251h-129l203 251h128z" />
    <glyph glyph-name="Idieresis" unicode="&#xcf;" horiz-adv-x="300" 
d="M209 0v1500h150v-1500h-150zM134 1600q-100 0 -100 100t100 100t100 -100t-100 -100zM434 1600q-100 0 -100 100t100 100t100 -100t-100 -100z" />
    <glyph glyph-name="Eth" unicode="&#xd0;" horiz-adv-x="1400" 
d="M790 1350h-400v-1200h400q350 0 350 350v500q0 350 -350 350zM790 0h-550v1500h550q500 0 500 -500v-500q0 -500 -500 -500zM50 650v150h959.985v-150h-959.985z" />
    <glyph glyph-name="Ntilde" unicode="&#xd1;" horiz-adv-x="1554" 
 />
    <glyph glyph-name="Ograve" unicode="&#xd2;" 
d="M50 1150q0 350 350 350h350q350 0 350 -350v-800q0 -350 -350 -350h-350q-350 0 -350 350v800zM400 1350q-200 0 -200 -200v-800q0 -200 200 -200h350q200 0 200 200v800q0 200 -200 200h-350zM320 1850l343 -251h-170l-343 251h170z" />
    <glyph glyph-name="Oacute" unicode="&#xd3;" 
d="M50 1150q0 350 350 350h350q350 0 350 -350v-800q0 -350 -350 -350h-350q-350 0 -350 350v800zM400 1350q-200 0 -200 -200v-800q0 -200 200 -200h350q200 0 200 200v800q0 200 -200 200h-350zM1000 1851l-343 -251h-170l343 251h170z" />
    <glyph glyph-name="Ocircumflex" unicode="&#xd4;" 
d="M50 1150q0 350 350 350h350q350 0 350 -350v-800q0 -350 -350 -350h-350q-350 0 -350 350v800zM400 1350q-200 0 -200 -200v-800q0 -200 200 -200h350q200 0 200 200v800q0 200 -200 200h-350zM629 1851l202 -251h-129l-202 251h129zM631 1851l-202 -251h-129l203 251
h128z" />
    <glyph glyph-name="Otilde" unicode="&#xd5;" horiz-adv-x="1614" 
 />
    <glyph glyph-name="Odieresis" unicode="&#xd6;" 
d="M50 1150q0 350 350 350h350q350 0 350 -350v-800q0 -350 -350 -350h-350q-350 0 -350 350v800zM400 1350q-200 0 -200 -200v-800q0 -200 200 -200h350q200 0 200 200v800q0 200 -200 200h-350zM425 1600q-100 0 -100 100t100 100t100 -100t-100 -100zM725 1600
q-100 0 -100 100t100 100t100 -100t-100 -100z" />
    <glyph glyph-name="multiply" unicode="&#xd7;" horiz-adv-x="1014" 
d="M507 618l-247 -247l-99 99l247 247l-247 248l99 98l247 -247l248 247l98 -99l-247 -247l247 -247l-99 -99z" />
    <glyph glyph-name="Oslash" unicode="&#xd8;" horiz-adv-x="1614" 
 />
    <glyph glyph-name="Ugrave" unicode="&#xd9;" 
d="M750 150q200 0 200 200v1150h150v-1150q0 -350 -350 -350h-350q-350 0 -350 350v1150h150v-1150q0 -200 200 -200h350zM357 1851l343 -251h-170l-343 251h170z" />
    <glyph glyph-name="Uacute" unicode="&#xda;" 
d="M750 150q200 0 200 200v1150h150v-1150q0 -350 -350 -350h-350q-350 0 -350 350v1150h150v-1150q0 -200 200 -200h350zM963 1851l-343 -251h-170l343 251h170z" />
    <glyph glyph-name="Ucircumflex" unicode="&#xdb;" 
d="M750 150q200 0 200 200v1150h150v-1150q0 -350 -350 -350h-350q-350 0 -350 350v1150h150v-1150q0 -200 200 -200h350zM629 1851l202 -251h-129l-202 251h129zM631 1851l-202 -251h-129l203 251h128z" />
    <glyph glyph-name="Udieresis" unicode="&#xdc;" 
d="M750 150q200 0 200 200v1150h150v-1150q0 -350 -350 -350h-350q-350 0 -350 350v1150h150v-1150q0 -200 200 -200h350zM425 1600q-100 0 -100 100t100 100t100 -100t-100 -100zM725 1600q-100 0 -100 100t100 100t100 -100t-100 -100z" />
    <glyph glyph-name="Yacute" unicode="&#xdd;" 
d="M675 750v-750h-175v750l-452 750h175l365 -605l364 605h175zM1013 1851l-343 -251h-170l343 251h170z" />
    <glyph glyph-name="Thorn" unicode="&#xde;" 
d="M50 0v1500h150v-1500h-150zM1100 750v-150q0 -350 -350 -350h-550v150h550q200 0 200 200v150h150zM200 1300h550q350 0 350 -350v-200h-150v200q0 200 -200 200h-550v150z" />
    <glyph glyph-name="germandbls" unicode="&#xdf;" horiz-adv-x="1251" 
 />
    <glyph glyph-name="agrave" unicode="&#xe0;" 
d="M750 150q200 0 200 200v215l-709 -163q-41 -14 -41 -52q0 -200 200 -200h350zM400 900q-200 0 -200 -200h-150q0 350 350 350h350q350 0 350 -350v-350q0 -350 -350 -350h-350q-350 0 -350 300q0 218 152 250l747 170q-9 180 -199 180h-350zM320 1401l343 -251h-170
l-343 251h170z" />
    <glyph glyph-name="aacute" unicode="&#xe1;" 
d="M750 150q200 0 200 200v215l-709 -163q-41 -14 -41 -52q0 -200 200 -200h350zM400 900q-200 0 -200 -200h-150q0 350 350 350h350q350 0 350 -350v-350q0 -350 -350 -350h-350q-350 0 -350 300q0 218 152 250l747 170q-9 180 -199 180h-350zM1013 1400l-343 -251h-170
l343 251h170z" />
    <glyph glyph-name="acircumflex" unicode="&#xe2;" 
d="M750 150q200 0 200 200v215l-709 -163q-41 -14 -41 -52q0 -200 200 -200h350zM400 900q-200 0 -200 -200h-150q0 350 350 350h350q350 0 350 -350v-350q0 -350 -350 -350h-350q-350 0 -350 300q0 218 152 250l747 170q-9 180 -199 180h-350zM648 1400l202 -251h-129
l-202 251h129zM650 1400l-202 -251h-129l203 251h128z" />
    <glyph glyph-name="atilde" unicode="&#xe3;" horiz-adv-x="922" 
 />
    <glyph glyph-name="adieresis" unicode="&#xe4;" 
d="M750 150q200 0 200 200v215l-709 -163q-41 -14 -41 -52q0 -200 200 -200h350zM400 900q-200 0 -200 -200h-150q0 350 350 350h350q350 0 350 -350v-350q0 -350 -350 -350h-350q-350 0 -350 300q0 218 152 250l747 170q-9 180 -199 180h-350zM425 1100q-100 0 -100 100
t100 100t100 -100t-100 -100zM725 1100q-100 0 -100 100t100 100t100 -100t-100 -100z" />
    <glyph glyph-name="aring" unicode="&#xe5;" horiz-adv-x="922" 
 />
    <glyph glyph-name="ae" unicode="&#xe6;" horiz-adv-x="1454" 
 />
    <glyph glyph-name="ccedilla" unicode="&#xe7;" horiz-adv-x="905" 
 />
    <glyph glyph-name="egrave" unicode="&#xe8;" horiz-adv-x="1125" 
d="M375 900q-200 0 -200 -200v-215l709 163q41 14 41 52q0 200 -200 200h-350zM725 150q200 0 200 200h150q0 -350 -350 -350h-350q-350 0 -350 350v350q0 350 350 350h350q350 0 350 -300q0 -218 -152 -250l-747 -170q9 -180 199 -180h350zM320 1401l343 -251h-170
l-343 251h170z" />
    <glyph glyph-name="eacute" unicode="&#xe9;" horiz-adv-x="1125" 
d="M375 900q-200 0 -200 -200v-215l709 163q41 14 41 52q0 200 -200 200h-350zM725 150q200 0 200 200h150q0 -350 -350 -350h-350q-350 0 -350 350v350q0 350 350 350h350q350 0 350 -300q0 -218 -152 -250l-747 -170q9 -180 199 -180h350zM963 1401l-343 -251h-170
l343 251h170z" />
    <glyph glyph-name="ecircumflex" unicode="&#xea;" horiz-adv-x="1125" 
d="M375 900q-200 0 -200 -200v-215l709 163q41 14 41 52q0 200 -200 200h-350zM725 150q200 0 200 200h150q0 -350 -350 -350h-350q-350 0 -350 350v350q0 350 350 350h350q350 0 350 -300q0 -218 -152 -250l-747 -170q9 -180 199 -180h350zM629 1400l202 -251h-129
l-202 251h129zM631 1400l-202 -251h-129l203 251h128z" />
    <glyph glyph-name="edieresis" unicode="&#xeb;" horiz-adv-x="1125" 
d="M375 900q-200 0 -200 -200v-215l709 163q41 14 41 52q0 200 -200 200h-350zM725 150q200 0 200 200h150q0 -350 -350 -350h-350q-350 0 -350 350v350q0 350 350 350h350q350 0 350 -300q0 -218 -152 -250l-747 -170q9 -180 199 -180h350zM400 1150q-100 0 -100 100
t100 100t100 -100t-100 -100zM700 1150q-100 0 -100 100t100 100t100 -100t-100 -100z" />
    <glyph glyph-name="igrave" unicode="&#xec;" horiz-adv-x="300" 
d="M50 0v1050h150v-1050h-150zM-130 1401l343 -251h-170l-343 251h170z" />
    <glyph glyph-name="iacute" unicode="&#xed;" horiz-adv-x="300" 
d="M50 0v1050h150v-1050h-150zM550 1351l-343 -251h-170l343 251h170z" />
    <glyph glyph-name="icircumflex" unicode="&#xee;" horiz-adv-x="300" 
d="M50 0v1050h150v-1050h-150zM179 1401l202 -251h-129l-202 251h129zM181 1401l-202 -251h-129l203 251h128z" />
    <glyph glyph-name="idieresis" unicode="&#xef;" horiz-adv-x="300" 
d="M50 0v1050h150v-1050h-150zM-25 1150q-100 0 -100 100t100 100t100 -100t-100 -100zM275 1150q-100 0 -100 100t100 100t100 -100t-100 -100z" />
    <glyph glyph-name="eth" unicode="&#xf0;" horiz-adv-x="1139" 
 />
    <glyph glyph-name="ntilde" unicode="&#xf1;" horiz-adv-x="1108" 
 />
    <glyph glyph-name="ograve" unicode="&#xf2;" 
d="M50 700q0 350 350 350h350q350 0 350 -350v-350q0 -350 -350 -350h-350q-350 0 -350 350v350zM400 900q-200 0 -200 -200v-350q0 -200 200 -200h350q200 0 200 200v350q0 200 -200 200h-350zM320 1401l343 -251h-170l-343 251h170z" />
    <glyph glyph-name="oacute" unicode="&#xf3;" 
d="M50 700q0 350 350 350h350q350 0 350 -350v-350q0 -350 -350 -350h-350q-350 0 -350 350v350zM400 900q-200 0 -200 -200v-350q0 -200 200 -200h350q200 0 200 200v350q0 200 -200 200h-350zM1000 1401l-343 -251h-170l343 251h170z" />
    <glyph glyph-name="ocircumflex" unicode="&#xf4;" 
d="M50 700q0 350 350 350h350q350 0 350 -350v-350q0 -350 -350 -350h-350q-350 0 -350 350v350zM400 900q-200 0 -200 -200v-350q0 -200 200 -200h350q200 0 200 200v350q0 200 -200 200h-350zM629 1401l202 -251h-129l-202 251h129zM631 1401l-202 -251h-129l203 251h128z
" />
    <glyph glyph-name="otilde" unicode="&#xf5;" horiz-adv-x="1010" 
 />
    <glyph glyph-name="odieresis" unicode="&#xf6;" 
d="M50 700q0 350 350 350h350q350 0 350 -350v-350q0 -350 -350 -350h-350q-350 0 -350 350v350zM400 900q-200 0 -200 -200v-350q0 -200 200 -200h350q200 0 200 200v350q0 200 -200 200h-350zM425 1150q-100 0 -100 100t100 100t100 -100t-100 -100zM725 1150
q-100 0 -100 100t100 100t100 -100t-100 -100z" />
    <glyph glyph-name="divide" unicode="&#xf7;" horiz-adv-x="1014" 
d="M87 647v140h839l1 -1v-139h-840zM398 408l82 84q15 14 29 14q13 0 31 -16l80 -86q12 -16 12 -29q0 -15 -14 -31l-80 -88q-20 -20 -29 -20q-16 0 -29 14l-88 101q-10 13 -10 26q0 15 16 31zM398 1101l82 84q15 14 29 14q13 0 31 -16l80 -86q12 -16 12 -29q0 -15 -14 -31
l-80 -88q-20 -20 -29 -20q-16 0 -29 14l-88 101q-10 13 -10 26q0 15 16 31z" />
    <glyph glyph-name="oslash" unicode="&#xf8;" horiz-adv-x="1010" 
 />
    <glyph glyph-name="ugrave" unicode="&#xf9;" 
d="M50 1050h150v-700q0 -200 200 -200h350q200 0 200 200v700h150v-700q0 -350 -350 -350h-350q-350 0 -350 350v700zM320 1401l343 -251h-170l-343 251h170z" />
    <glyph glyph-name="uacute" unicode="&#xfa;" 
d="M50 1050h150v-700q0 -200 200 -200h350q200 0 200 200v700h150v-700q0 -350 -350 -350h-350q-350 0 -350 350v700zM1000 1401l-343 -251h-170l343 251h170z" />
    <glyph glyph-name="ucircumflex" unicode="&#xfb;" 
d="M50 1050h150v-700q0 -200 200 -200h350q200 0 200 200v700h150v-700q0 -350 -350 -350h-350q-350 0 -350 350v700zM629 1401l202 -251h-129l-202 251h129zM631 1401l-202 -251h-129l203 251h128z" />
    <glyph glyph-name="udieresis" unicode="&#xfc;" 
d="M50 1050h150v-700q0 -200 200 -200h350q200 0 200 200v700h150v-700q0 -350 -350 -350h-350q-350 0 -350 350v700zM425 1150q-100 0 -100 100t100 100t100 -100t-100 -100zM725 1150q-100 0 -100 100t100 100t100 -100t-100 -100z" />
    <glyph glyph-name="yacute" unicode="&#xfd;" 
d="M50 1050h150v-700q0 -200 200 -200h350q200 0 200 200v700h150v-1150q0 -350 -350 -350h-700v150h700q200 0 200 200v142q-79 -42 -200 -42h-350q-350 0 -350 350v700zM1000 1401l-343 -251h-170l343 251h170z" />
    <glyph glyph-name="thorn" unicode="&#xfe;" 
d="M950 500v200q0 200 -200 200h-150v150h150q350 0 350 -350v-200h-150zM600 150h150q200 0 200 200v150h150v-150q0 -350 -350 -350h-150v150zM600 900h-200q-200 0 -200 -200v-100h-150v100q0 350 350 350h200v-150zM200 1500v-1950h-150v1950h150zM200 0v150h400v-150
h-400z" />
    <glyph glyph-name="ydieresis" unicode="&#xff;" 
d="M50 1050h150v-700q0 -200 200 -200h350q200 0 200 200v700h150v-1150q0 -350 -350 -350h-700v150h700q200 0 200 200v142q-79 -42 -200 -42h-350q-350 0 -350 350v700zM425 1150q-100 0 -100 100t100 100t100 -100t-100 -100zM725 1150q-100 0 -100 100t100 100t100 -100
t-100 -100z" />
    <glyph glyph-name="Amacron" unicode="&#x100;" horiz-adv-x="0" 
 />
    <glyph glyph-name="amacron" unicode="&#x101;" horiz-adv-x="0" 
 />
    <glyph glyph-name="Abreve" unicode="&#x102;" horiz-adv-x="0" 
 />
    <glyph glyph-name="abreve" unicode="&#x103;" horiz-adv-x="0" 
 />
    <glyph glyph-name="Aogonek" unicode="&#x104;" horiz-adv-x="0" 
 />
    <glyph glyph-name="aogonek" unicode="&#x105;" horiz-adv-x="0" 
 />
    <glyph glyph-name="Cacute" unicode="&#x106;" 
d="M750 150q200 0 200 200h150q0 -350 -350 -350h-350q-350 0 -350 350v800q0 350 350 350h350q350 0 350 -350h-150q0 200 -200 200h-350q-200 0 -200 -200v-800q0 -200 200 -200h350zM1000 1851l-343 -251h-170l343 251h170z" />
    <glyph glyph-name="cacute" unicode="&#x107;" 
d="M750 150q200 0 200 200h150q0 -350 -350 -350h-350q-350 0 -350 350v350q0 350 350 350h350q350 0 350 -350h-150q0 200 -200 200h-350q-200 0 -200 -200v-350q0 -200 200 -200h350zM1000 1400l-343 -251h-170l343 251h170z" />
    <glyph glyph-name="Ccircumflex" unicode="&#x108;" 
d="M750 150q200 0 200 200h150q0 -350 -350 -350h-350q-350 0 -350 350v800q0 350 350 350h350q350 0 350 -350h-150q0 200 -200 200h-350q-200 0 -200 -200v-800q0 -200 200 -200h350zM629 1851l202 -251h-129l-202 251h129zM631 1851l-202 -251h-129l203 251h128z" />
    <glyph glyph-name="ccircumflex" unicode="&#x109;" 
d="M750 150q200 0 200 200h150q0 -350 -350 -350h-350q-350 0 -350 350v350q0 350 350 350h350q350 0 350 -350h-150q0 200 -200 200h-350q-200 0 -200 -200v-350q0 -200 200 -200h350zM629 1401l202 -251h-129l-202 251h129zM631 1401l-202 -251h-129l203 251h128z" />
    <glyph glyph-name="Cdotaccent" unicode="&#x10a;" 
d="M750 150q200 0 200 200h150q0 -350 -350 -350h-350q-350 0 -350 350v800q0 350 350 350h350q350 0 350 -350h-150q0 200 -200 200h-350q-200 0 -200 -200v-800q0 -200 200 -200h350zM575 1600q-100 0 -100 100t100 100t100 -100t-100 -100z" />
    <glyph glyph-name="cdotaccent" unicode="&#x10b;" 
d="M750 150q200 0 200 200h150q0 -350 -350 -350h-350q-350 0 -350 350v350q0 350 350 350h350q350 0 350 -350h-150q0 200 -200 200h-350q-200 0 -200 -200v-350q0 -200 200 -200h350zM575 1150q-100 0 -100 100t100 100t100 -100t-100 -100z" />
    <glyph glyph-name="Ccaron" unicode="&#x10c;" 
d="M750 150q200 0 200 200h150q0 -350 -350 -350h-350q-350 0 -350 350v800q0 350 350 350h350q350 0 350 -350h-150q0 200 -200 200h-350q-200 0 -200 -200v-800q0 -200 200 -200h350zM500 1599l202 251h129l-202 -251h-129zM503 1599l-203 251h129l202 -251h-128z" />
    <glyph glyph-name="ccaron" unicode="&#x10d;" 
d="M750 150q200 0 200 200h150q0 -350 -350 -350h-350q-350 0 -350 350v350q0 350 350 350h350q350 0 350 -350h-150q0 200 -200 200h-350q-200 0 -200 -200v-350q0 -200 200 -200h350zM519 1150l202 251h129l-202 -251h-129zM522 1150l-203 251h129l202 -251h-128z" />
    <glyph glyph-name="Dcaron" unicode="&#x10e;" 
d="M600 1350h-400v-1200h400q350 0 350 350v500q0 350 -350 350zM600 0h-550v1500h550q500 0 500 -500v-500q0 -500 -500 -500zM500 1600l202 251h129l-202 -251h-129zM503 1600l-203 251h129l202 -251h-128z" />
    <glyph glyph-name="dcaron" unicode="&#x10f;" horiz-adv-x="1450" 
d="M200 350q0 -200 200 -200h350q200 0 200 200v550h-550q-200 0 -200 -200v-350zM400 0q-350 0 -350 350v350q0 350 350 350h550v450h150v-1150q0 -350 -350 -350h-350zM1267 1511q44 0 88.5 -65.5t44.5 -151.5q0 -109 -71 -226.5t-139 -117.5q73 86 87 233q0 119 -129 203
z" />
    <glyph glyph-name="Dcroat" unicode="&#x110;" horiz-adv-x="0" 
 />
    <glyph glyph-name="dcroat" unicode="&#x111;" horiz-adv-x="0" 
 />
    <glyph glyph-name="Emacron" unicode="&#x112;" horiz-adv-x="0" 
 />
    <glyph glyph-name="emacron" unicode="&#x113;" horiz-adv-x="0" 
 />
    <glyph glyph-name="Ebreve" unicode="&#x114;" horiz-adv-x="0" 
 />
    <glyph glyph-name="ebreve" unicode="&#x115;" horiz-adv-x="0" 
 />
    <glyph glyph-name="Edotaccent" unicode="&#x116;" 
d="M1100 1500v-150h-900v-500h750v-150h-750v-550h900v-150h-1050v1500h1050zM575 1600q-100 0 -100 100t100 100t100 -100t-100 -100z" />
    <glyph glyph-name="edotaccent" unicode="&#x117;" horiz-adv-x="1125" 
d="M375 900q-200 0 -200 -200v-215l709 163q41 14 41 52q0 200 -200 200h-350zM725 150q200 0 200 200h150q0 -350 -350 -350h-350q-350 0 -350 350v350q0 350 350 350h350q350 0 350 -300q0 -218 -152 -250l-747 -170q9 -180 199 -180h350zM550 1150q-100 0 -100 100
t100 100t100 -100t-100 -100z" />
    <glyph glyph-name="Eogonek" unicode="&#x118;" horiz-adv-x="0" 
 />
    <glyph glyph-name="eogonek" unicode="&#x119;" horiz-adv-x="0" 
 />
    <glyph glyph-name="Ecaron" unicode="&#x11a;" 
d="M1100 1500v-150h-900v-500h750v-150h-750v-550h900v-150h-1050v1500h1050zM519 1600l202 251h129l-202 -251h-129zM522 1600l-203 251h129l202 -251h-128z" />
    <glyph glyph-name="ecaron" unicode="&#x11b;" horiz-adv-x="1125" 
d="M375 900q-200 0 -200 -200v-215l709 163q41 14 41 52q0 200 -200 200h-350zM725 150q200 0 200 200h150q0 -350 -350 -350h-350q-350 0 -350 350v350q0 350 350 350h350q350 0 350 -300q0 -218 -152 -250l-747 -170q9 -180 199 -180h350zM500 1150l202 251h129l-202 -251
h-129zM503 1150l-203 251h129l202 -251h-128z" />
    <glyph glyph-name="Gcircumflex" unicode="&#x11c;" 
d="M900 673v-2l-500 -115v155l500 114q200 -6 200 -256v-219q0 -350 -350 -350h-350q-350 0 -350 350v800q0 350 350 350h350q350 0 350 -350h-150q0 200 -200 200h-350q-200 0 -200 -200v-800q0 -200 200 -200h350q200 0 200 200v269q0 42 -50 54zM648 1851l202 -251h-129
l-202 251h129zM650 1851l-202 -251h-129l203 251h128z" />
    <glyph glyph-name="gcircumflex" unicode="&#x11d;" 
d="M50 700q0 350 350 350h350q350 0 350 -350v-800q0 -350 -350 -350h-700v150h700q200 0 200 200v100h-550q-350 0 -350 350v350zM400 900q-200 0 -200 -200v-350q0 -200 200 -200h550v550q0 200 -200 200h-350zM629 1401l202 -251h-129l-202 251h129zM631 1401l-202 -251
h-129l203 251h128z" />
    <glyph glyph-name="Gbreve" unicode="&#x11e;" horiz-adv-x="0" 
 />
    <glyph glyph-name="gbreve" unicode="&#x11f;" horiz-adv-x="0" 
 />
    <glyph glyph-name="Gdotaccent" unicode="&#x120;" 
d="M900 673v-2l-500 -115v155l500 114q200 -6 200 -256v-219q0 -350 -350 -350h-350q-350 0 -350 350v800q0 350 350 350h350q350 0 350 -350h-150q0 200 -200 200h-350q-200 0 -200 -200v-800q0 -200 200 -200h350q200 0 200 200v269q0 42 -50 54zM575 1600
q-100 0 -100 100t100 100t100 -100t-100 -100z" />
    <glyph glyph-name="gdotaccent" unicode="&#x121;" 
d="M50 700q0 350 350 350h350q350 0 350 -350v-800q0 -350 -350 -350h-700v150h700q200 0 200 200v100h-550q-350 0 -350 350v350zM400 900q-200 0 -200 -200v-350q0 -200 200 -200h550v550q0 200 -200 200h-350zM575 1150q-100 0 -100 100t100 100t100 -100t-100 -100z" />
    <glyph glyph-name="Gcommaaccent" unicode="&#x122;" horiz-adv-x="0" 
 />
    <glyph glyph-name="gcommaaccent" unicode="&#x123;" horiz-adv-x="0" 
 />
    <glyph glyph-name="Hcircumflex" unicode="&#x124;" 
d="M200 700v-700h-150v1500h150v-650h750v650h150v-1500h-150v700h-750zM629 1851l202 -251h-129l-202 251h129zM631 1851l-202 -251h-129l203 251h128z" />
    <glyph glyph-name="hcircumflex" unicode="&#x125;" 
d="M50 1500h150v-450h400q500 0 500 -500v-550h-150v550q0 350 -350 350h-400v-900h-150v1500zM638 1850l202 -251h-129l-202 251h129zM640 1850l-202 -251h-129l203 251h128z" />
    <glyph glyph-name="Hbar" unicode="&#x126;" horiz-adv-x="0" 
 />
    <glyph glyph-name="hbar" unicode="&#x127;" horiz-adv-x="0" 
 />
    <glyph glyph-name="Itilde" unicode="&#x128;" horiz-adv-x="0" 
 />
    <glyph glyph-name="itilde" unicode="&#x129;" horiz-adv-x="0" 
 />
    <glyph glyph-name="Imacron" unicode="&#x12a;" horiz-adv-x="0" 
 />
    <glyph glyph-name="imacron" unicode="&#x12b;" horiz-adv-x="0" 
 />
    <glyph glyph-name="Ibreve" unicode="&#x12c;" horiz-adv-x="0" 
 />
    <glyph glyph-name="ibreve" unicode="&#x12d;" horiz-adv-x="0" 
 />
    <glyph glyph-name="Iogonek" unicode="&#x12e;" horiz-adv-x="0" 
 />
    <glyph glyph-name="iogonek" unicode="&#x12f;" horiz-adv-x="0" 
 />
    <glyph glyph-name="Idotaccent" unicode="&#x130;" horiz-adv-x="300" 
d="M408 0v1500h150v-1500h-150zM483 1600q-100 0 -100 100t100 100t100 -100t-100 -100z" />
    <glyph glyph-name="dotlessi" unicode="&#x131;" horiz-adv-x="300" 
d="M50 0v1050h150v-1050h-150z" />
    <glyph glyph-name="IJ" unicode="&#x132;" horiz-adv-x="0" 
 />
    <glyph glyph-name="ij" unicode="&#x133;" horiz-adv-x="0" 
 />
    <glyph glyph-name="Jcircumflex" unicode="&#x134;" 
d="M750 150q200 0 200 200v1150h150v-1150q0 -350 -350 -350h-350q-350 0 -350 350v150h150v-150q0 -200 200 -200h350zM1079 1850l202 -251h-129l-202 251h129zM1081 1850l-202 -251h-129l203 251h128z" />
    <glyph glyph-name="jcircumflex" unicode="&#x135;" horiz-adv-x="300" 
d="M200 50v-150q0 -350 -350 -350h-50v150h50q200 0 200 200v150h150zM50 50v1000h150v-1000h-150zM178 1400l203 -251h-129l-202 251h128zM181 1400l-202 -251h-129l202 251h129z" />
    <glyph glyph-name="Kcommaaccent" unicode="&#x136;" horiz-adv-x="0" 
 />
    <glyph glyph-name="kcommaaccent" unicode="&#x137;" horiz-adv-x="0" 
 />
    <glyph glyph-name="kgreenlandic" unicode="&#x138;" horiz-adv-x="0" 
 />
    <glyph glyph-name="Lacute" unicode="&#x139;" 
d="M50 1500h150v-1350h900v-150h-1050v1500zM550 1851l-343 -251h-170l343 251h170z" />
    <glyph glyph-name="lacute" unicode="&#x13a;" horiz-adv-x="300" 
d="M50 0v1500h150v-1500h-150zM550 1851l-343 -251h-170l343 251h170z" />
    <glyph glyph-name="Lcommaaccent" unicode="&#x13b;" horiz-adv-x="0" 
 />
    <glyph glyph-name="lcommaaccent" unicode="&#x13c;" horiz-adv-x="0" 
 />
    <glyph glyph-name="Lcaron" unicode="&#x13d;" 
d="M50 1500h150v-1350h900v-150h-1050v1500zM419 1561q44 0 88.5 -65.5t44.5 -151.5q0 -109 -71 -226.5t-139 -117.5q73 86 87 233q0 119 -129 203z" />
    <glyph glyph-name="lcaron" unicode="&#x13e;" horiz-adv-x="550" 
d="M50 0v1500h150v-1500h-150zM369 1550q44 0 88.5 -65.5t44.5 -151.5q0 -109 -71 -226.5t-139 -117.5q73 86 87 233q0 119 -129 203z" />
    <glyph glyph-name="Ldot" unicode="&#x13f;" 
d="M50 1500h150v-1350h900v-150h-1050v1500zM625 550q-100 0 -100 100t100 100t100 -100t-100 -100z" />
    <glyph glyph-name="ldot" unicode="&#x140;" horiz-adv-x="550" 
d="M50 0v1500h150v-1500h-150zM350 550q-100 0 -100 100t100 100t100 -100t-100 -100z" />
    <glyph glyph-name="Lslash" unicode="&#x141;" horiz-adv-x="0" 
 />
    <glyph glyph-name="lslash" unicode="&#x142;" horiz-adv-x="0" 
 />
    <glyph glyph-name="Nacute" unicode="&#x143;" 
d="M950 284v1216h150v-1500h-151l-749 1216v-1216h-150v1500h151zM1000 1850l-343 -251h-170l343 251h170z" />
    <glyph glyph-name="nacute" unicode="&#x144;" 
d="M600 900h-400v-900h-150v1050h550q500 0 500 -500v-550h-150v550q0 350 -350 350zM988 1401l-343 -251h-170l343 251h170z" />
    <glyph glyph-name="Ncommaaccent" unicode="&#x145;" horiz-adv-x="0" 
 />
    <glyph glyph-name="ncommaaccent" unicode="&#x146;" horiz-adv-x="0" 
 />
    <glyph glyph-name="Ncaron" unicode="&#x147;" 
d="M950 284v1216h150v-1500h-151l-749 1216v-1216h-150v1500h151zM525 1600l202 251h129l-202 -251h-129zM528 1600l-203 251h129l202 -251h-128z" />
    <glyph glyph-name="ncaron" unicode="&#x148;" 
d="M600 900h-400v-900h-150v1050h550q500 0 500 -500v-550h-150v550q0 350 -350 350zM519 1150l202 251h129l-202 -251h-129zM522 1150l-203 251h129l202 -251h-128z" />
    <glyph glyph-name="napostrophe" unicode="&#x149;" horiz-adv-x="0" 
 />
    <glyph glyph-name="Eng" unicode="&#x14a;" horiz-adv-x="0" 
 />
    <glyph glyph-name="eng" unicode="&#x14b;" horiz-adv-x="0" 
 />
    <glyph glyph-name="Omacron" unicode="&#x14c;" horiz-adv-x="0" 
 />
    <glyph glyph-name="omacron" unicode="&#x14d;" horiz-adv-x="0" 
 />
    <glyph glyph-name="Obreve" unicode="&#x14e;" horiz-adv-x="0" 
 />
    <glyph glyph-name="obreve" unicode="&#x14f;" horiz-adv-x="0" 
 />
    <glyph glyph-name="Ohungarumlaut" unicode="&#x150;" 
d="M50 1150q0 350 350 350h350q350 0 350 -350v-800q0 -350 -350 -350h-350q-350 0 -350 350v800zM400 1350q-200 0 -200 -200v-800q0 -200 200 -200h350q200 0 200 200v800q0 200 -200 200h-350zM813 1851l-343 -251h-170l343 251h170zM1150 1851l-343 -251h-170l343 251
h170z" />
    <glyph glyph-name="ohungarumlaut" unicode="&#x151;" 
d="M50 700q0 350 350 350h350q350 0 350 -350v-350q0 -350 -350 -350h-350q-350 0 -350 350v350zM400 900q-200 0 -200 -200v-350q0 -200 200 -200h350q200 0 200 200v350q0 200 -200 200h-350zM813 1401l-343 -251h-170l343 251h170zM1150 1401l-343 -251h-170l343 251h170
z" />
    <glyph glyph-name="OE" unicode="&#x152;" horiz-adv-x="0" 
 />
    <glyph glyph-name="oe" unicode="&#x153;" horiz-adv-x="0" 
 />
    <glyph glyph-name="Racute" unicode="&#x154;" 
d="M200 1350v-750h550q200 0 200 200v350q0 200 -200 200h-550zM200 450v-450h-150v1500h700q350 0 350 -350v-350q0 -347 -344 -350l394 -394v-56h-156l-450 450h-344zM1013 1851l-343 -251h-170l343 251h170z" />
    <glyph glyph-name="racute" unicode="&#x155;" horiz-adv-x="1050" 
d="M550 1050h400v-150h-400q-350 0 -350 -350v-550h-150v550q0 500 500 500zM900 1400l-343 -251h-170l343 251h170z" />
    <glyph glyph-name="Rcommaaccent" unicode="&#x156;" horiz-adv-x="0" 
 />
    <glyph glyph-name="rcommaaccent" unicode="&#x157;" horiz-adv-x="0" 
 />
    <glyph glyph-name="Rcaron" unicode="&#x158;" 
d="M200 1350v-750h550q200 0 200 200v350q0 200 -200 200h-550zM200 450v-450h-150v1500h700q350 0 350 -350v-350q0 -347 -344 -350l394 -394v-56h-156l-450 450h-344zM519 1599l202 251h129l-202 -251h-129zM522 1599l-203 251h129l202 -251h-128z" />
    <glyph glyph-name="rcaron" unicode="&#x159;" horiz-adv-x="1050" 
d="M550 1050h400v-150h-400q-350 0 -350 -350v-550h-150v550q0 500 500 500zM450 1150l202 251h129l-202 -251h-129zM453 1150l-203 251h129l202 -251h-128z" />
    <glyph glyph-name="Sacute" unicode="&#x15a;" 
d="M50 0v150h700q200 0 200 250t-200 250h-300q-400 0 -400 400q0 450 400 450h650v-150h-650q-250 0 -250 -300q0 -250 250 -250h300q350 0 350 -400t-350 -400h-700zM1000 1850l-343 -251h-170l343 251h170z" />
    <glyph glyph-name="sacute" unicode="&#x15b;" 
d="M50 0v150h750q150 0 150 150t-150 150h-450q-300 0 -300 300t300 300h750v-150h-750q-150 0 -150 -150t150 -150h450q300 0 300 -300t-300 -300h-750zM1000 1400l-343 -251h-170l343 251h170z" />
    <glyph glyph-name="Scircumflex" unicode="&#x15c;" 
d="M50 0v150h700q200 0 200 250t-200 250h-300q-400 0 -400 400q0 450 400 450h650v-150h-650q-250 0 -250 -300q0 -250 250 -250h300q350 0 350 -400t-350 -400h-700zM629 1850l202 -251h-129l-202 251h129zM631 1850l-202 -251h-129l203 251h128z" />
    <glyph glyph-name="scircumflex" unicode="&#x15d;" 
d="M50 0v150h750q150 0 150 150t-150 150h-450q-300 0 -300 300t300 300h750v-150h-750q-150 0 -150 -150t150 -150h450q300 0 300 -300t-300 -300h-750zM629 1401l202 -251h-129l-202 251h129zM631 1401l-202 -251h-129l203 251h128z" />
    <glyph glyph-name="Scedilla" unicode="&#x15e;" horiz-adv-x="0" 
 />
    <glyph glyph-name="scedilla" unicode="&#x15f;" horiz-adv-x="0" 
 />
    <glyph glyph-name="Scaron" unicode="&#x160;" 
d="M50 0v150h700q200 0 200 250t-200 250h-300q-400 0 -400 400q0 450 400 450h650v-150h-650q-250 0 -250 -300q0 -250 250 -250h300q350 0 350 -400t-350 -400h-700zM500 1600l202 251h129l-202 -251h-129zM503 1600l-203 251h129l202 -251h-128z" />
    <glyph glyph-name="scaron" unicode="&#x161;" 
d="M50 0v150h750q150 0 150 150t-150 150h-450q-300 0 -300 300t300 300h750v-150h-750q-150 0 -150 -150t150 -150h450q300 0 300 -300t-300 -300h-750zM500 1150l202 251h129l-202 -251h-129zM503 1150l-203 251h129l202 -251h-128z" />
    <glyph glyph-name="Tcommaaccent" unicode="&#x162;" horiz-adv-x="0" 
 />
    <glyph glyph-name="tcommaaccent" unicode="&#x163;" horiz-adv-x="0" 
 />
    <glyph glyph-name="Tcaron" unicode="&#x164;" 
d="M650 1350v-1350h-150v1350h-450v150h1050v-150h-450zM500 1599l202 251h129l-202 -251h-129zM503 1599l-203 251h129l202 -251h-128z" />
    <glyph glyph-name="tcaron" unicode="&#x165;" horiz-adv-x="900" 
d="M350 350q0 -200 200 -200h100v-150h-100q-350 0 -350 350v550h-150v150h150v250h150v-250h250v-150h-250v-550zM717 1361q44 0 88.5 -65.5t44.5 -151.5q0 -109 -71 -226.5t-139 -117.5q73 86 87 233q0 119 -129 203z" />
    <glyph glyph-name="Tbar" unicode="&#x166;" horiz-adv-x="0" 
 />
    <glyph glyph-name="tbar" unicode="&#x167;" horiz-adv-x="0" 
 />
    <glyph glyph-name="Utilde" unicode="&#x168;" horiz-adv-x="0" 
 />
    <glyph glyph-name="utilde" unicode="&#x169;" horiz-adv-x="0" 
 />
    <glyph glyph-name="Umacron" unicode="&#x16a;" horiz-adv-x="0" 
 />
    <glyph glyph-name="umacron" unicode="&#x16b;" horiz-adv-x="0" 
 />
    <glyph glyph-name="Ubreve" unicode="&#x16c;" horiz-adv-x="0" 
 />
    <glyph glyph-name="ubreve" unicode="&#x16d;" horiz-adv-x="0" 
 />
    <glyph glyph-name="Uring" unicode="&#x16e;" 
d="M750 150q200 0 200 200v1150h150v-1150q0 -350 -350 -350h-350q-350 0 -350 350v1150h150v-1150q0 -200 200 -200h350zM471 1773q0 -42 29 -71t71 -29t71 29t29 71q0 40 -29.5 69.5t-70.5 29.5t-70.5 -29.5t-29.5 -69.5zM395 1773q0 75 51 126t125 51q76 0 127.5 -51.5
t51.5 -125.5q0 -75 -51.5 -126.5t-127.5 -51.5q-74 0 -125 51.5t-51 126.5z" />
    <glyph glyph-name="uring" unicode="&#x16f;" 
d="M50 1050h150v-700q0 -200 200 -200h350q200 0 200 200v700h150v-700q0 -350 -350 -350h-350q-350 0 -350 350v700zM474 1257q0 -42 29 -71t71 -29t71 29t29 71q0 40 -29.5 69.5t-70.5 29.5t-70.5 -29.5t-29.5 -69.5zM398 1257q0 75 51 126t125 51q76 0 127.5 -51.5
t51.5 -125.5q0 -75 -51.5 -126.5t-127.5 -51.5q-74 0 -125 51.5t-51 126.5z" />
    <glyph glyph-name="Uhungarumlaut" unicode="&#x170;" 
d="M750 150q200 0 200 200v1150h150v-1150q0 -350 -350 -350h-350q-350 0 -350 350v1150h150v-1150q0 -200 200 -200h350zM813 1851l-343 -251h-170l343 251h170zM1150 1851l-343 -251h-170l343 251h170z" />
    <glyph glyph-name="uhungarumlaut" unicode="&#x171;" 
d="M50 1050h150v-700q0 -200 200 -200h350q200 0 200 200v700h150v-700q0 -350 -350 -350h-350q-350 0 -350 350v700zM813 1401l-343 -251h-170l343 251h170zM1150 1401l-343 -251h-170l343 251h170z" />
    <glyph glyph-name="Uogonek" unicode="&#x172;" horiz-adv-x="0" 
 />
    <glyph glyph-name="uogonek" unicode="&#x173;" horiz-adv-x="0" 
 />
    <glyph glyph-name="Wcircumflex" unicode="&#x174;" horiz-adv-x="1650" 
d="M1072 0l-272 1176l-272 -1176h-156l-347 1500h153l272 -1176l272 1176h156l272 -1176l272 1176h153l-347 -1500h-156zM879 1851l202 -251h-129l-202 251h129zM881 1851l-202 -251h-129l203 251h128z" />
    <glyph glyph-name="wcircumflex" unicode="&#x175;" horiz-adv-x="1800" 
d="M402 0l-377 1050h161l302 -842l301 842h172l302 -842l301 842h161l-378 -1050h-170l-302 841l-303 -841h-170zM948 1401l202 -251h-129l-202 251h129zM950 1401l-202 -251h-129l203 251h128z" />
    <glyph glyph-name="Ycircumflex" unicode="&#x176;" 
d="M675 750v-750h-175v750l-452 750h175l365 -605l364 605h175zM651 1801l202 -251h-129l-202 251h129zM653 1801l-202 -251h-129l203 251h128z" />
    <glyph glyph-name="ycircumflex" unicode="&#x177;" 
d="M50 1050h150v-700q0 -200 200 -200h350q200 0 200 200v700h150v-1150q0 -350 -350 -350h-700v150h700q200 0 200 200v142q-79 -42 -200 -42h-350q-350 0 -350 350v700zM638 1351l202 -251h-129l-202 251h129zM640 1351l-202 -251h-129l203 251h128z" />
    <glyph glyph-name="Ydieresis" unicode="&#x178;" 
d="M675 750v-750h-175v750l-452 750h175l365 -605l364 605h175zM450 1600q-100 0 -100 100t100 100t100 -100t-100 -100zM750 1600q-100 0 -100 100t100 100t100 -100t-100 -100z" />
    <glyph glyph-name="Zacute" unicode="&#x179;" 
d="M224 150h876v-150h-1050v166l871 1184h-871v150h1050v-160zM1000 1851l-343 -251h-170l343 251h170z" />
    <glyph glyph-name="zacute" unicode="&#x17a;" 
d="M874 900h-824v150h1050v-150l-826 -750h826v-150h-1050v150zM1000 1401l-343 -251h-170l343 251h170z" />
    <glyph glyph-name="Zdotaccent" unicode="&#x17b;" 
d="M224 150h876v-150h-1050v166l871 1184h-871v150h1050v-160zM575 1600q-100 0 -100 100t100 100t100 -100t-100 -100z" />
    <glyph glyph-name="zdotaccent" unicode="&#x17c;" 
d="M874 900h-824v150h1050v-150l-826 -750h826v-150h-1050v150zM575 1150q-100 0 -100 100t100 100t100 -100t-100 -100z" />
    <glyph glyph-name="Zcaron" unicode="&#x17d;" 
d="M224 150h876v-150h-1050v166l871 1184h-871v150h1050v-160zM500 1600l202 251h129l-202 -251h-129zM503 1600l-203 251h129l202 -251h-128z" />
    <glyph glyph-name="zcaron" unicode="&#x17e;" 
d="M874 900h-824v150h1050v-150l-826 -750h826v-150h-1050v150zM500 1150l202 251h129l-202 -251h-129zM503 1150l-203 251h129l202 -251h-128z" />
    <glyph glyph-name="longs" unicode="&#x17f;" horiz-adv-x="0" 
 />
    <glyph glyph-name="uni0180" unicode="&#x180;" horiz-adv-x="0" 
 />
    <glyph glyph-name="circumflex" unicode="&#x2c6;" horiz-adv-x="675" 
d="M379 1351l202 -251h-129l-202 251h129zM381 1351l-202 -251h-129l203 251h128z" />
    <glyph glyph-name="caron" unicode="&#x2c7;" horiz-adv-x="675" 
d="M250 1100l202 251h129l-202 -251h-129zM253 1100l-203 251h129l202 -251h-128z" />
    <glyph glyph-name="uni02C9" unicode="&#x2c9;" horiz-adv-x="1024" 
d="M254 1195v125h516v-125h-516z" />
    <glyph glyph-name="breve" unicode="&#x2d8;" horiz-adv-x="1024" 
d="M219 1349h51q17 -73 75 -107t167 -34t166 33.5t74 107.5h51q-20 -133 -94 -201.5t-197 -68.5q-122 0 -197 69t-96 201z" />
    <glyph glyph-name="dotaccent" unicode="&#x2d9;" horiz-adv-x="350" 
d="M150 1050q-100 0 -100 100t100 100t100 -100t-100 -100z" />
    <glyph glyph-name="ring" unicode="&#x2da;" horiz-adv-x="1024" 
d="M411 1257q0 -42 29 -71t71 -29t71 29t29 71q0 40 -29.5 69.5t-70.5 29.5t-70.5 -29.5t-29.5 -69.5zM335 1257q0 75 51 126t125 51q76 0 127.5 -51.5t51.5 -125.5q0 -75 -51.5 -126.5t-127.5 -51.5q-74 0 -125 51.5t-51 126.5z" />
    <glyph glyph-name="ogonek" unicode="&#x2db;" horiz-adv-x="1024" 
d="M640 0q-71 -62 -110.5 -119.5t-39.5 -112.5q0 -47 27 -75t73 -28q40 0 69.5 15.5t49.5 48.5l28 -16q-36 -63 -90.5 -97t-119.5 -34q-70 0 -114 35.5t-44 90.5q0 76 60.5 156.5t161.5 135.5h49z" />
    <glyph glyph-name="tilde" unicode="&#x2dc;" horiz-adv-x="1024" 
d="M808 1382q-20 -103 -68.5 -154t-126.5 -51h-4q-50 0 -113 23q-66 24 -114 24q-39 0 -60.5 -20.5t-33.5 -71.5h-54q19 106 68 158.5t129 52.5q46 -1 113 -24q64 -23 112 -23h4q36 0 58 20t36 66h54z" />
    <glyph glyph-name="hungarumlaut" unicode="&#x2dd;" horiz-adv-x="1000" 
d="M563 1351l-343 -251h-170l343 251h170zM900 1351l-343 -251h-170l343 251h170z" />
    <glyph glyph-name="endash" unicode="&#x2013;" horiz-adv-x="1108" 
d="M56 419v120h996v-120h-996z" />
    <glyph glyph-name="emdash" unicode="&#x2014;" horiz-adv-x="2048" 
d="M0 419v120h2048v-120h-2048z" />
    <glyph glyph-name="quoteleft" unicode="&#x2018;" horiz-adv-x="400" 
d="M302 1425q-129 -84 -129 -203q14 -147 87 -233q-68 0 -139 117.5t-71 226.5q0 86 44.5 151.5t88.5 65.5z" />
    <glyph glyph-name="quoteright" unicode="&#x2019;" horiz-adv-x="400" 
d="M169 1550q44 0 88.5 -65.5t44.5 -151.5q0 -109 -71 -226.5t-139 -117.5q73 86 87 233q0 119 -129 203z" />
    <glyph glyph-name="quotesinglbase" unicode="&#x201a;" horiz-adv-x="400" 
d="M163 258q44 0 88.5 -65.5t44.5 -151.5q0 -109 -71 -226.5t-139 -117.5q73 86 87 233q0 119 -129 203z" />
    <glyph glyph-name="quotedblleft" unicode="&#x201c;" horiz-adv-x="750" 
d="M302 1425q-129 -84 -129 -203q14 -147 87 -233q-68 0 -139 117.5t-71 226.5q0 86 44.5 151.5t88.5 65.5zM652 1425q-129 -84 -129 -203q14 -147 87 -233q-68 0 -139 117.5t-71 226.5q0 86 44.5 151.5t88.5 65.5z" />
    <glyph glyph-name="quotedblright" unicode="&#x201d;" horiz-adv-x="750" 
d="M169 1550q44 0 88.5 -65.5t44.5 -151.5q0 -109 -71 -226.5t-139 -117.5q73 86 87 233q0 119 -129 203zM517 1550q44 0 88.5 -65.5t44.5 -151.5q0 -109 -71 -226.5t-139 -117.5q73 86 87 233q0 119 -129 203z" />
    <glyph glyph-name="quotedblbase" unicode="&#x201e;" horiz-adv-x="750" 
d="M163 258q44 0 88.5 -65.5t44.5 -151.5q0 -109 -71 -226.5t-139 -117.5q73 86 87 233q0 119 -129 203zM519 250q44 0 88.5 -65.5t44.5 -151.5q0 -109 -71 -226.5t-139 -117.5q73 86 87 233q0 119 -129 203z" />
    <glyph glyph-name="dagger" unicode="&#x2020;" horiz-adv-x="1014" 
d="M486 1022q-8 97 -54 178q-57 101 -57 129q0 49 36 78.5t96 29.5q57 0 94.5 -27.5t37.5 -71.5q0 -32 -55 -137q-46 -85 -55 -179q96 8 177 54q101 57 129 57q49 0 79 -36t30 -96q0 -57 -27.5 -94.5t-72.5 -37.5q-32 0 -136 55q-85 46 -179 57q8 -176 110 -277
q-106 -460 -112 -974h-38q-6 514 -114 974q102 101 111 277q-96 -10 -178 -55q-101 -57 -129 -57q-49 0 -78.5 36t-29.5 96q0 57 27.5 94.5t71.5 37.5q32 0 137 -56q85 -46 179 -55z" />
    <glyph glyph-name="daggerdbl" unicode="&#x2021;" horiz-adv-x="1014" 
d="M528 186q94 11 179 57q104 55 136 55q45 0 72.5 -37.5t27.5 -94.5q0 -60 -30 -96t-79 -36q-28 0 -129 57q-81 46 -177 54q9 -94 55 -179q55 -105 55 -137q0 -44 -37.5 -71.5t-94.5 -27.5q-60 0 -96 29.5t-36 78.5q0 28 57 129q46 81 54 178q-94 -9 -179 -55
q-105 -56 -137 -56q-44 0 -71.5 37.5t-27.5 94.5q0 60 29.5 96t78.5 36q28 0 129 -57q82 -45 178 -55q-9 226 -111 398q102 171 111 397q-96 -10 -178 -55q-101 -57 -129 -57q-49 0 -78.5 36t-29.5 96q0 57 27.5 94.5t71.5 37.5q32 0 137 -56q85 -46 179 -55q-8 97 -54 178
q-57 101 -57 129q0 49 36 78.5t96 29.5q57 0 94.5 -27.5t37.5 -71.5q0 -32 -55 -137q-46 -85 -55 -179q96 8 177 54q101 57 129 57q49 0 79 -36t30 -96q0 -57 -27.5 -94.5t-72.5 -37.5q-32 0 -136 55q-85 46 -179 57q8 -226 110 -397q-102 -172 -110 -398z" />
    <glyph glyph-name="bullet" unicode="&#x2022;" horiz-adv-x="1024" 
d="M216 718q0 123 87 209t210 86q122 0 208.5 -86.5t86.5 -208.5t-87.5 -209.5t-209.5 -87.5q-123 0 -209 87t-86 210z" />
    <glyph glyph-name="ellipsis" unicode="&#x2026;" horiz-adv-x="1150" 
d="M150 0q-100 0 -100 100t100 100t100 -100t-100 -100zM550 0q-100 0 -100 100t100 100t100 -100t-100 -100zM950 0q-100 0 -100 100t100 100t100 -100t-100 -100z" />
    <glyph glyph-name="guilsinglleft" unicode="&#x2039;" horiz-adv-x="631" 
d="M174 479l342 303h14v-37l-205 -266l205 -266v-37h-14z" />
    <glyph glyph-name="guilsinglright" unicode="&#x203a;" horiz-adv-x="631" 
d="M115 176h-14v37l205 266l-205 266v37h14l342 -303z" />
    <glyph glyph-name="fraction" unicode="&#x2044;" horiz-adv-x="342" 
d="M-342 -29l940 1461h84l-938 -1461h-86z" />
    <glyph glyph-name="fraction" unicode="&#x2215;" horiz-adv-x="342" 
d="M-342 -29l940 1461h84l-938 -1461h-86z" />
    <glyph glyph-name="fraction" unicode="&#x2215;" horiz-adv-x="342" 
d="M-342 -29l940 1461h84l-938 -1461h-86z" />
    <glyph glyph-name="franc" unicode="&#x20a3;" horiz-adv-x="1014" 
d="M247 357h-194v60h194v732q0 235 -103 235h-96v50h915l103 -231h-49q-59 182 -190 182l-316 -1q-102 0 -102 -235v-352h361q100 0 100 63v58h50v-342h-50v60q0 62 -100 62h-361v-281h194v-60h-194v-72q0 -235 102 -235h97v-50h-560v50h96q103 0 103 235v72z" />
    <glyph glyph-name="lira" unicode="&#x20a4;" horiz-adv-x="1014" 
d="M748 1347q-72 31 -160 31h-2q-100 0 -190 -101q-84 -93 -84 -241q0 -15 1 -30q0 -106 33 -213h380v-60h-360q12 -30 26 -60h352v-60h-321q35 -63 35 -138q0 -161 -162 -375h402q130 0 189 132l49 -1l-103 -231h-719l1 50q187 238 187 418q0 77 -34 143l-2 2h-172v60h143
q-14 31 -26 60h-135v60h113q-36 107 -36 193q0 226 123.5 347t310.5 121q75 0 185.5 -14t110.5 -34v-161h-58q-5 61 -77 102z" />
    <glyph glyph-name="Euro" unicode="&#x20ac;" horiz-adv-x="1014" 
d="M140 372q-62 135 -76 281h-108l17 60h87v29q0 16 1 31h-71l17 60h58q14 145 76 281q81 178 226 274t298 96q43 0 87 -8q40 -10 82 -29q8 -6 16 -6q20 0 34 45h41l84 -281l-40 -1q-49 134 -138 178q-43 22 -81 32v3q-50 16 -101 16q-17 0 -34 -2q-120 -12 -226 -113.5
t-157 -273.5q-32 -104 -39 -211h706l-17 -60h-692q0 -30 2 -60h674l-17 -60h-652q17 -158 83 -298q74 -157 193 -236q102 -68 216 -69q186 3 256 91q74 91 74 185h48v-143q0 -70 -111 -127q-105 -54 -267 -56q-181 0 -325.5 98t-223.5 274z" />
    <glyph glyph-name="trademark" unicode="&#x2122;" horiz-adv-x="1497" 
 />
    <glyph glyph-name="minus" unicode="&#x2212;" horiz-adv-x="1014" 
d="M87 647v140h839l1 -1v-139h-840z" />
    <glyph glyph-name="infinity" unicode="&#x221e;" horiz-adv-x="1350" 
d="M550 500v25q0 300 -175 300t-175 -275v-50q0 -275 175 -275t175 275zM1100 575q0 250 -200 250t-200 -250v-100q0 -250 200 -250t200 250v100zM1250 475q0 -400 -350 -400q-172 0 -276 136q-98 -136 -249 -136q-325 0 -325 425v50q0 425 325 425q148 0 246 -139
q103 139 279 139q350 0 350 -400v-100z" />
    <glyph glyph-name="approxequal" unicode="&#x2248;" horiz-adv-x="1014" 
d="M923 1053v-156q-63 -72 -122 -97.5t-116 -25.5q-60 0 -177.5 48.5t-176.5 48.5q-51 0 -107.5 -28t-129.5 -112v156q64 73 123 99t114 26q64 0 181.5 -49.5t172.5 -49.5q52 0 108.5 28t129.5 112zM923 705v-156q-63 -72 -122 -97.5t-116 -25.5q-60 0 -177.5 48.5
t-176.5 48.5q-51 0 -107.5 -28t-129.5 -112v156q64 73 123 99t114 26q64 0 181.5 -49.5t172.5 -49.5q52 0 108.5 28t129.5 112z" />
    <glyph glyph-name="lessequal" unicode="&#x2264;" horiz-adv-x="1014" 
d="M927 1074l-625 -359l625 -355v-167l-840 481v83l840 484v-167zM87 1v140h839l1 -1v-139h-840z" />
    <glyph glyph-name="greaterequal" unicode="&#x2265;" horiz-adv-x="1014" 
d="M87 1241l840 -484v-83l-840 -481v167l625 355l-625 359v167zM87 2v140h839l1 -1v-139h-840z" />
    </font>
</defs>
</svg>
