<?xml version="1.0" standalone="no"?>
<!DOCTYPE svg PUBLIC "-//W3C//DTD SVG 1.1//EN" "http://www.w3.org/Graphics/SVG/1.1/DTD/svg11.dtd" >
<svg xmlns="http://www.w3.org/2000/svg" xmlns:xlink="http://www.w3.org/1999/xlink" version="1.1">
<metadata>
Created by FontForge 20230101 at Thu May  3 07:57:25 2018
 By Unknown
Copyright (c) 2018 by Khurasan. All rights reserved.
</metadata>
<defs>
<font id="ViksiScript" horiz-adv-x="987" >
  <font-face 
    font-family="Viksi Script"
    font-weight="400"
    font-stretch="normal"
    units-per-em="1000"
    panose-1="0 0 0 0 0 0 0 0 0 0"
    ascent="800"
    descent="-200"
    x-height="483.5"
    cap-height="731.5"
    bbox="-350.533 -417.765 1446.26 996.25"
    underline-thickness="50"
    underline-position="-100"
    unicode-range="U+000D-20AC"
  />
<missing-glyph horiz-adv-x="310" 
 />
    <glyph glyph-name=".notdef" horiz-adv-x="310" 
 />
    <glyph glyph-name="NULL" horiz-adv-x="0" 
 />
    <glyph glyph-name="nonmarkingreturn" unicode="&#xd;" horiz-adv-x="310" 
 />
    <glyph glyph-name="space" unicode=" " horiz-adv-x="310" 
 />
    <glyph glyph-name="t" unicode="t" horiz-adv-x="697" 
d="M271 -89q35 -8 82 18t97.5 70.5t100.5 101t92 109.5q16 20 31.5 42t32.5 48q5 9 14.5 11.5t17.5 -1t10.5 -11t-5.5 -17.5l-57 -71q-40 -51 -86.5 -105t-96 -102.5t-101 -87t-101.5 -58.5q-42 -17 -80.5 -18.5t-70 5.5t-54.5 19t-33 23q-29 27 -47 60.5t-27.5 70t-12.5 75
t0 76.5q6 74 24 146t43 141q14 36 29 71t32 70h-91q-6 0 -15.5 3.5t-9.5 11.5q0 9 9.5 12t15.5 3h106l65 133q5 11 20 16.5t26 8.5q19 6 39 6.5t39 -1.5q10 -1 24.5 -4t27.5 -9.5t19.5 -16t0.5 -23.5q-13 -28 -26 -55.5t-27 -54.5h408q7 0 16 -3t9 -12q0 -8 -9 -11.5
t-16 -3.5h-423q-24 -51 -46.5 -102t-39.5 -104q-14 -45 -26 -93t-18 -96.5t-4.5 -97t15.5 -94.5q5 -13 12 -29t16 -30t21.5 -25t27.5 -15z" />
    <glyph glyph-name="u" unicode="u" horiz-adv-x="1009" 
d="M981 266q14 17 26.5 32.5t23.5 27.5q3 4 9 2.5t11.5 -6.5t8 -11.5t-1.5 -10.5q-15 -18 -26 -31.5t-24 -27.5h1q-37 -39 -84.5 -83t-99.5 -81.5t-106 -61.5t-103 -22q-11 0 -30.5 4t-41.5 14.5t-43 29.5t-35 51t-17.5 78.5t9.5 111.5l4 16q-8 -10 -35 -35.5t-66 -51.5
t-87.5 -45t-99.5 -17q-34 2 -71.5 10.5t-63.5 33.5q-42 42 -44 101q-2 20 2.5 42t13 43t20 40.5t24.5 36.5q6 8 21.5 9.5t25.5 3.5q20 3 39 3.5t39 -0.5q3 0 17 -1.5t28.5 -4.5t23.5 -8.5t3 -13.5t-11 -17q-17 -27 -27.5 -56.5t-17.5 -58.5q-3 -14 -1.5 -31t8.5 -32t19 -26
t30 -12q24 -2 52 12t54.5 35t48.5 43.5t34 38.5q13 17 25.5 35t23.5 36q5 8 9.5 16t8.5 16q2 7 5 10v1q0 2 3 4q14 20 42 25.5t51 6.5q18 1 37.5 -2.5t34.5 -11.5q8 -4 20 -14t10 -22q-8 -38 -22 -75.5t-25 -75.5q-4 -13 -9.5 -38t-9.5 -53.5t-4 -57.5t8.5 -49.5t27 -29.5
t52.5 2q55 18 112 65.5t110 104.5l1 1l29 33v-1z" />
    <glyph glyph-name="r" unicode="r" horiz-adv-x="624" 
d="M375 114q20 3 45 19t51.5 38t52.5 46.5t49 45.5t40 36t26 17q7 5 16.5 5t16 -3.5t7 -10t-10.5 -14.5q-26 -20 -49 -38t-44 -38q-27 -24 -55 -49t-58 -46.5t-64.5 -37t-74.5 -20.5q-23 -3 -49 -2t-49.5 9t-42.5 24t-28.5 44t-7 69.5t22.5 99.5q-13 -5 -39.5 -10.5
t-55.5 -6.5t-56.5 5.5t-42.5 24.5q-14 16 -18 37t1 44.5t17 48.5t30 49q9 9 31.5 14t48.5 6.5t50 -0.5t36 -7q8 -3 10.5 -6t-2.5 -10q0 -1 -1 -1q-6 -7 -15 -22.5t-17 -34.5t-14 -38t-5 -34t11 -23.5t32 -4.5q1 1 8 13t15 26.5t15 26.5t8 13q5 6 13.5 7.5t16.5 3.5h14.5
t33.5 -0.5t43 -1t42 -1.5t30.5 -3t9.5 -5q-29 -39 -50.5 -81.5t-32.5 -89.5q-5 -18 -10 -43t-3.5 -46.5t12.5 -35t40 -8.5z" />
    <glyph glyph-name="A" unicode="A" 
d="M896 361q-11 -35 -19 -68.5t-10 -68.5q-2 -33 -2.5 -66t8.5 -64q6 -14 10.5 -21.5t10 -13t12 -10.5t16.5 -14q8 -5 11.5 -13.5t-1.5 -17.5q-7 -11 -21 -15.5t-25 -7.5q-41 -12 -79 -4t-69 33.5t-51 68.5t-25 103q-17 29 -35.5 55t-40.5 50q-18 -27 -38.5 -57t-43 -61
t-46.5 -59.5t-48 -52.5q-23 -23 -64.5 -40.5t-91 -23t-101.5 6.5t-96 48q-22 17 -38 43.5t-21 55.5q-6 38 4.5 75t33 69.5t54 57t67.5 37.5q71 25 134.5 28.5t114 -4t85 -20.5t46.5 -19q9 -5 18 -10.5t17 -11.5q28 48 60 98t68.5 97.5t79 89.5t92.5 74l1 1q7 11 21 16t25 8
q20 5 39.5 6t38.5 -1q7 -1 22.5 -4t29 -9.5t21 -15.5t-0.5 -22q-50 -78 -96.5 -158t-76.5 -168zM520 269q9 13 16.5 25.5t16.5 24.5q-8 7 -16 13t-17 11t-32 12.5t-52.5 12t-61 3t-56.5 -13.5q-32 -15 -57 -41t-40.5 -58.5t-19 -68.5t8.5 -72q5 -15 13 -28q7 -11 18.5 -21.5
t28.5 -15.5q26 -7 51 1t48.5 25.5t45 42.5t40.5 51.5t35.5 52t29.5 44.5zM667 269q14 88 53.5 172t90.5 169q-12 -13 -22 -25.5t-21 -24.5q-45 -57 -83.5 -118t-77.5 -122q35 -30 58 -65q0 4 2 14z" />
    <glyph glyph-name="C" unicode="C" horiz-adv-x="628" 
d="M534 737q44 -3 68 -15.5t36 -26.5q14 -17 17 -37q0 -19 -1.5 -34t-5.5 -30t-11 -31t-19 -37q-1 -14 -24 -26t-49.5 -19t-48.5 -6.5t-21 12.5q1 10 10 30.5t21 45.5t24.5 50.5t19 45.5t4.5 31.5t-18 8.5q-42 -15 -88.5 -47t-89.5 -75.5t-79.5 -96t-58.5 -109t-26.5 -114.5
t16.5 -112q10 -27 28 -48.5t43 -34.5t56.5 -15.5t70.5 9.5q38 12 68.5 40t56.5 61q5 2 11.5 8t11.5 5q3 -1 7 -4t5.5 -9t-1 -15.5t-12.5 -22.5q-30 -30 -65.5 -54t-76.5 -39q-41 -13 -98.5 -18.5t-114.5 3t-106 34.5t-74 76q-25 56 -24 114t20.5 113t52.5 105t72 90
q37 39 82.5 73.5t96 61t105 42t109.5 17.5z" />
    <glyph glyph-name="H" unicode="H" horiz-adv-x="855" 
d="M911 679q7 6 22.5 9t30.5 3t25.5 -1.5t7.5 -4.5q-43 -37 -79 -86.5t-65.5 -106.5t-51 -119.5t-35 -126.5t-19 -126.5t-1.5 -118.5q1 -6 -11.5 -2t-30 12t-34 17.5t-23.5 16.5q-11 11 -13.5 33.5t1 50t10.5 59t15.5 61t17 54.5t13.5 41q-76 -2 -152 -8t-151 -16
q-13 -22 -24.5 -44.5t-21.5 -45.5q-15 -30 -27 -60t-20 -60q-5 -21 -8 -43.5t5 -43.5q2 -2 3.5 -5t3.5 -5q1 -1 1.5 -1t1.5 -1t2 -1q7 -4 11.5 -9.5t-1.5 -13.5q-7 -8 -21 -11t-25 -5q-29 -6 -62.5 -6t-62 11t-45.5 35t-12 66q4 34 15.5 67t25.5 65q9 20 18.5 38t17.5 37
q-14 -2 -32.5 -1t-30.5 9q-6 4 -5.5 8t4.5 6.5t10 4.5t10 2q17 4 33.5 7t34.5 6q10 20 22 41q39 71 84 140t83 145q1 3 5.5 13t5 20t-6.5 15.5t-28 -1.5q-18 -8 -46.5 -26.5t-60 -44t-60 -56.5t-46 -65.5t-20 -70t20.5 -69.5q1 -2 -8.5 -4.5t-22 -4t-23 -2.5t-11.5 -1
q-8 -1 -16 -0.5t-16 4.5q-24 14 -35 41.5t-7 54.5q4 32 23.5 58.5t42.5 47.5q54 51 117.5 89.5t132.5 65.5q6 3 11.5 4.5t8.5 3.5q49 12 100 15t101 -10q11 -4 25 -9.5t22 -16.5q8 -13 4.5 -25t-8.5 -24q-25 -55 -58.5 -106.5t-63.5 -102.5q-13 -20 -25.5 -42t-24.5 -45
q74 8 147.5 13t148.5 6q16 39 37 80t47 80.5t56.5 75.5t65.5 66z" />
    <glyph glyph-name="a" unicode="a" horiz-adv-x="747" 
d="M755 314q3 5 11 5.5t14.5 -3.5t8.5 -12t-6 -20q-24 -37 -55.5 -74t-69.5 -67t-81 -50t-89 -23q-44 -3 -83.5 5t-66 28t-35 54t9.5 84q-17 -29 -49.5 -60t-73 -53t-83.5 -29t-80 12q-19 8 -33.5 21.5t-22.5 33.5q-13 32 -7.5 63.5t22.5 60.5q17 33 42.5 62t57 51.5t68 38
t74.5 20.5q13 2 39 2.5t53 -4.5t49 -18t27 -38q3 -15 -4 -14t-20 6.5t-31 9t-37 -5.5q-17 -10 -43 -35t-48.5 -56t-36.5 -63.5t-7 -56.5q4 -12 13 -13t20.5 5.5t24.5 19t25 27.5q24 31 49 63t57 57l9 3q7 11 19.5 15.5t23.5 8.5q20 6 39.5 6.5t39.5 -1.5q9 -1 24 -5
t28 -11.5t19.5 -18t-0.5 -25.5q-9 -15 -22.5 -42t-22.5 -56.5t-8.5 -56.5t20.5 -41q12 -9 32.5 -1.5t43.5 25.5t47.5 42.5t46 48.5t37 44.5t21.5 30.5z" />
    <glyph glyph-name="e" unicode="e" horiz-adv-x="541" 
d="M572 305q5 -2 5 -13t-13 -22l-78 -62t-81 -57.5t-87.5 -46.5t-96.5 -28q-32 -5 -68.5 -4.5t-70 7.5t-61 21t-40.5 38q-10 17 -12 41t1 48.5t9.5 48t15.5 39.5q18 34 47 60.5t63.5 45t73 28t77.5 11.5q10 0 28 0.5t35.5 -3t30.5 -11.5t13 -24q0 -34 -21 -62.5t-51 -51.5
t-64.5 -40.5t-61.5 -29.5q-10 -34 -7 -60.5t17.5 -43.5t40.5 -22t61 5q37 12 74.5 34t72 48t65 52.5t55.5 46.5q7 5 13.5 7.5t14.5 -0.5zM304 426q-12 -7 -28 -22t-33 -34.5t-33 -43.5t-29 -49q21 10 45.5 26.5t44.5 36.5t30 42t3 44z" />
    <glyph glyph-name="l" unicode="l" horiz-adv-x="446" 
d="M452 307q7 7 15.5 7.5t13 -4t4.5 -12.5t-9 -17q-9 -10 -14.5 -15.5t-11 -10t-11.5 -9.5t-16 -14q-46 -41 -94 -76.5t-100 -66.5q-27 -17 -55.5 -31.5t-59.5 -24.5q-51 -7 -84 15t-49 59.5t-16 84t17 87.5q21 56 46.5 117.5t55 122.5t62.5 120t68 110q8 11 21.5 16t26.5 9
q19 5 38.5 5.5t38.5 -1.5q15 -1 32 -6t28 -14q8 -6 13.5 -14.5t-1.5 -18.5q-14 -21 -27.5 -42.5t-26.5 -42.5q-51 -95 -101 -195.5t-92 -205.5q-17 -44 -24.5 -81t4.5 -53q7 -8 27.5 -2t45.5 19.5t50.5 30t42.5 29.5q37 30 73 61t69 64z" />
    <glyph glyph-name="h" unicode="h" horiz-adv-x="866" 
d="M874 311q10 8 19 7.5t13 -5.5t1 -14t-16 -18q-33 -28 -68 -54.5t-72.5 -49t-78 -40.5t-85.5 -29q-61 -14 -96 -1.5t-52 40.5t-18.5 66.5t6 76.5t19.5 69.5t23 46.5q-94 -50 -172 -122.5t-147 -151.5q-5 -10 -5 -17t1 -9q7 -20 -12 -25q-48 -13 -84.5 -1.5t-57 39.5
t-24.5 68t12 85q21 58 48 120.5t58.5 124t67 120.5t72.5 112q10 12 26 19t33.5 9.5t35 2t31.5 -1.5t31 -6t29 -14q7 -5 13 -14t-2 -19q-41 -53 -79 -115.5t-71 -129.5t-60.5 -136t-47.5 -133l3 12q-2 -5 -3 -9.5t-3 -9.5q73 76 156.5 141.5t183.5 102.5l8 2t9 1q2 0 4 0.5
t4 0.5q18 3 36.5 4t36.5 1q1 0 17 -0.5t35 -2.5t34.5 -5t15.5 -8q-14 -18 -32.5 -44t-36 -55.5t-31.5 -59.5t-20.5 -56t-2 -44.5t23.5 -24.5q9 -3 21 -1.5t24.5 6t24.5 9.5t21 10q50 27 93.5 61t86.5 69z" />
    <glyph glyph-name="m" unicode="m" horiz-adv-x="1283" 
d="M1279 239q-80 -68 -136.5 -103.5t-108.5 -36.5q-2 -1 -22 -1t-47 7t-54 23.5t-42.5 48t-14 81.5t33.5 123q-25 -15 -47.5 -31t-44.5 -33q-64 -50 -123.5 -102t-119.5 -106q-6 -8 -11.5 -17t-14.5 -12q-12 -5 -37.5 -2t-49.5 15t-39.5 32.5t-7.5 52.5q12 47 30 93t47 106
q-12 -7 -26 -15l-28 -16t-26.5 -15.5t-20.5 -13.5q-64 -50 -123.5 -102t-119.5 -106q0 -3 -5 -3q-1 -3 -3 -5q-5 -11 -21.5 -17.5t-36 -9t-39 -2.5t-29.5 1q-9 1 -23 4t-27 8.5t-19.5 14t-0.5 21.5q38 85 73.5 169.5t77.5 167.5q6 11 21 15.5t26 7.5q19 5 39 5.5t40 -1.5
q8 -1 22.5 -3.5t27 -8t20 -14t1.5 -21.5q-32 -64 -59.5 -128t-56.5 -130q9 8 18.5 17t20.5 17q49 44 99.5 85t107.5 77q8 6 22.5 13t30 14.5t30.5 14.5t24 11q11 5 26 7.5t30 3.5t28.5 0.5t22.5 -0.5q8 -1 22.5 -3.5t27 -8t20 -14t1.5 -21.5q-16 -32 -29 -57t-25 -49
t-24 -49t-26 -58q37 30 82.5 73t96 85t103.5 76.5t107 46.5q20 4 39.5 4.5t38.5 -1.5q7 0 21.5 -2t27.5 -6.5t21 -11.5t1 -18q-17 -29 -33 -58t-30 -60q-10 -23 -20.5 -53t-15.5 -57.5t-1.5 -48t22.5 -26.5q40 7 73.5 26.5t63.5 45.5t58.5 55.5t58.5 57.5q6 6 14 5.5t14 -4
t8.5 -9.5t-3.5 -11l-49 -50v0z" />
    <glyph glyph-name="d" unicode="d" horiz-adv-x="812" 
d="M818 307q7 7 15.5 7.5t13 -4t4.5 -12.5t-9 -17q-9 -10 -14.5 -15.5t-11 -10t-11.5 -9.5t-16 -14q-46 -41 -94 -76.5t-100 -66.5q-27 -17 -55.5 -31.5t-59.5 -24.5q-35 -5 -61.5 4.5t-45 29t-28.5 46.5t-13 57l-16 -14q-23 -20 -45.5 -37.5t-49.5 -25.5l-4 -2l-8 -3
q-28 -8 -60.5 -8.5t-64 8t-57.5 26.5t-41 47q-13 31 -10 65t16.5 67t35 62t46.5 49q18 15 46.5 22.5t61 8.5t66 -5t60.5 -18t45 -30t19 -41q41 103 93.5 210.5t114.5 197.5q8 11 21.5 16t26.5 9q19 5 38.5 5.5t38.5 -1.5q15 -1 32 -6t28 -14q8 -6 13.5 -14.5t-1.5 -18.5
q-14 -21 -27.5 -42.5t-26.5 -42.5q-51 -95 -101 -195.5t-92 -205.5q-17 -44 -24.5 -81t4.5 -53q7 -8 27.5 -2t45.5 19.5t50.5 30t42.5 29.5q37 30 73 61t69 64zM354 295v1q-11 49 -33.5 64t-49 7t-54 -34t-49.5 -58.5t-35 -67t-10.5 -59t24 -35t68.5 5.5q28 12 49 29.5
t36.5 38.5t27 44.5t20.5 47.5z" />
    <glyph glyph-name="B" unicode="B" horiz-adv-x="1009" 
d="M900 678q39 -20 58 -50.5t18.5 -64t-20 -66t-55.5 -56.5q-23 -16 -49 -28t-54 -21l4 -2l4 -2q38 -23 69 -56t44 -75q23 -78 -3.5 -135.5t-85 -93.5t-139 -50.5t-164.5 -6.5q-33 3 -71 14t-68 32t-47.5 52.5t-9.5 74.5q6 35 26 55t58 22q21 1 37.5 -4.5t16.5 -16.5
q0 -6 -5.5 -8.5t-12.5 -3.5q-3 0 -10 -6.5t-13 -19t-9 -31.5t1 -46q4 -26 16.5 -43t31 -27.5t41.5 -15t48 -4.5q53 -1 90 18t60 49t32 66t6 70q-4 39 -24 64t-49 41.5t-63.5 26.5t-67.5 19q-9 3 -17.5 14.5t-15 24t-10.5 24t-5 16.5q0 4 10 6.5t24.5 3t30 0.5h26.5
q21 1 47 6.5t51 15.5t46.5 25t33.5 36t12 45.5t-11 42.5t-32.5 25.5t-51.5 -4.5q-70 -28 -128 -70.5t-106.5 -95.5t-88 -114.5t-70.5 -126.5q-9 -19 -20.5 -45t-20.5 -54.5t-12 -56t5 -49.5q2 -3 3.5 -5t3.5 -4l3 -3q1 -1 2 -1q8 -3 12 -9.5t-2 -13.5q-7 -9 -21 -12t-24 -5
q-34 -6 -72 -5t-67 15t-39 40.5t-5 55.5q4 35 17 72.5t30.5 75t37 73.5t37.5 68q39 70 84 138t84 146q1 3 5 13t4.5 19.5t-6.5 15t-28 -1.5q-18 -8 -46.5 -26t-59.5 -43.5t-59.5 -56.5t-46 -65t-19.5 -69.5t21 -69.5q1 -2 -8.5 -4t-22 -3.5t-23 -3t-11.5 -1.5
q-8 -1 -16.5 -1t-14.5 5q-25 15 -36 42t-7 54q5 32 23.5 58t41.5 48q54 51 117.5 89t132.5 64q6 3 11 4.5t8 2.5q49 13 100 15.5t100 -9.5q12 -5 25 -10t21 -16t5 -24t-8 -24q-30 -65 -71 -128q25 21 51 40t54 38q59 39 113 60t99 29t78.5 5t50.5 -12z" />
    <glyph glyph-name="D" unicode="D" horiz-adv-x="958" 
d="M920 557q1 -2 1 -3t1 -2q8 -32 8.5 -65.5t-3.5 -66.5q-10 -84 -42 -163t-85.5 -143t-127 -108.5t-166.5 -58.5q-26 -5 -60 3t-65 25t-54 41.5t-26 54.5q-2 21 4.5 40t18 35.5t26.5 30t32 22.5q75 42 160 20q7 -2 10.5 -7.5t-1.5 -11.5q-7 -7 -17 -7t-18 2q-27 6 -56.5 0
t-54 -22.5t-40 -41t-14.5 -54.5q1 -17 10 -32t23 -26q0 1 1 1q35 -11 70.5 -1t68.5 33t61.5 55.5t48.5 68.5q21 38 39.5 81t31.5 86.5t20 85t6 76.5q-1 49 -13.5 72.5t-33.5 28.5t-48 -5.5t-56 -30t-58 -45t-54.5 -50.5t-45 -47t-29.5 -34q-51 -63 -92 -134.5t-61 -156.5
q-5 -20 -8 -42.5t5 -42.5q2 -3 3.5 -5t3.5 -4l3 -3q1 -1 2 -1q7 -3 11 -9.5t-1 -13.5q-7 -9 -21 -12t-25 -5q-32 -6 -70.5 -5t-67.5 15q-30 14 -39 40.5t-6 55.5q9 56 31 111.5t51 109.5t62 106.5t63 103.5q21 35 43.5 69.5t39.5 72.5q1 3 5.5 13t5 19.5t-6 15t-27.5 -1.5
q-18 -8 -46 -29t-57.5 -50t-57.5 -63t-45.5 -68t-20.5 -65.5t16 -54.5q2 -3 -6 -8t-21.5 -8t-32 -2t-37.5 10q-25 15 -35.5 42t-5.5 54q4 32 22.5 58t40.5 48q55 51 118.5 89t132.5 64q5 3 11 4.5t9 2.5q48 13 99 15.5t99 -9.5q13 -5 26.5 -10t21.5 -16t4.5 -24t-8.5 -24
q-17 -36 -36.5 -70.5t-41.5 -68.5q37 34 79 64q29 21 59.5 37t65.5 27q21 3 43 6q19 2 42.5 2.5t48.5 -2.5q24 -3 46 -11t40 -19t31 -25t19 -29z" />
    <glyph glyph-name="T" unicode="T" horiz-adv-x="574" 
d="M1133 746q14 9 23 9t12 -6t-0.5 -15t-15.5 -17q-25 -19 -68 -31.5t-95.5 -19t-110 -8.5t-111.5 0t-101 6.5t-77 10.5q-1 -8 -4 -14.5t-5 -14.5q-26 -55 -57.5 -107t-63.5 -103.5t-62.5 -104t-55.5 -108.5q-8 -19 -20 -45t-21 -54.5t-12 -56t6 -49.5q1 -3 3 -5l4 -4l3 -3
l1 -1q8 -3 12 -9.5t-1 -13.5q-8 -9 -22 -12.5t-24 -4.5q-57 -3 -90 15t-47 50.5t-12 75t14 87.5t32 88.5t42 78.5q41 69 85 137.5t83 146.5q8 12 10 28t-12 26q-38 10 -86.5 5t-91.5 -24.5t-73 -54t-31 -82.5q1 -21 10 -33t21 -19.5t23 -11.5t17 -7t-12.5 -11.5t-45 -13.5
t-53.5 -1t-39 25q-17 31 -15 60t17 54t39 45.5t50.5 36.5t52.5 26t45 14q19 7 58.5 14t87.5 10.5t98 2t91 -12.5q31 -11 80 -18t106.5 -10t118.5 -1.5t116.5 8t101 18t72.5 29.5z" />
    <glyph glyph-name="b" unicode="b" horiz-adv-x="724" 
d="M742 347q18 0 25 -5.5t6.5 -12t-6.5 -12t-13 -5.5q-18 0 -33.5 0.5t-33 0t-37.5 -2.5t-46 -7q8 -37 -11.5 -71.5t-53 -63t-73 -48.5t-71.5 -27q-48 -11 -92 -7t-71.5 21.5t-33.5 47.5t22 71q15 22 36 37t45 25t48.5 16.5t45.5 12.5q-2 18 -8 37t-20 19
q-63 -26 -112.5 -60.5t-87.5 -91.5q-12 -21 -22 -50t-17 -58t-9.5 -54t0.5 -39q4 -19 -9 -19.5t-36 7.5q-34 11 -64.5 30t-48.5 49t-20.5 73.5t19.5 104.5t48 124.5t55.5 126.5t63.5 123.5t73 116.5q13 15 37.5 23.5t52 9.5t53.5 -4.5t42 -18.5q8 -6 12.5 -15t-2.5 -18
q-14 -20 -27 -41.5t-25 -44.5q-29 -49 -49 -88t-37 -77t-32.5 -80.5t-34.5 -97.5q38 34 83 59.5t96 40.5q2 1 4 1t4 1q2 0 4 1q9 3 35 6.5t55.5 4.5t56 -1.5t37.5 -12.5q4 -5 8.5 -14t8.5 -19t7.5 -19.5t6.5 -15.5q25 4 42.5 6.5t33.5 3.5t32 1h38zM395 280
q-25 -5 -53.5 -18t-51.5 -30t-37.5 -37.5t-12.5 -40.5q1 -12 11.5 -16t27 0.5t37 17.5t42.5 35q17 20 27 40t12 49h-2z" />
    <glyph glyph-name="k" unicode="k" horiz-adv-x="761" 
d="M770 310q4 4 14 6t17.5 -0.5t8.5 -11t-11 -23.5q-39 -38 -71 -73t-66.5 -64.5t-77.5 -52.5t-103 -35q-50 -10 -98.5 -8.5t-89.5 19.5t-72 53.5t-47 92.5q-9 -11 -16 -29t-11.5 -40.5t-5.5 -46t1 -44.5q0 -2 2 -4.5t2.5 -5.5t-2 -6t-9.5 -7q-29 -14 -60.5 -3t-56.5 38
t-39 66t-7 81q4 22 9.5 39t10.5 34q19 62 45 124.5t56 123t64 117t71 106.5q12 15 36.5 23.5t52.5 9.5t54 -5t41 -18q8 -6 13 -15t-2 -18q-15 -20 -28 -41.5t-25 -44.5q-76 -134 -138 -281q26 15 61 35.5t73.5 38t77.5 26t73 -0.5q5 -1 4 -3t-4.5 -4t-8 -3.5t-5.5 -1.5
q-32 -5 -59.5 -16t-54.5 -26.5t-54.5 -34t-59.5 -36.5q3 -23 12.5 -51t24.5 -57t34 -55.5t42 -46.5t49.5 -30.5t55.5 -7.5q42 6 79.5 29.5t72 55t65.5 67t60 66.5z" />
    <glyph glyph-name="p" unicode="p" horiz-adv-x="756" 
d="M771 345q27 0 37.5 -5.5t10 -12.5t-7.5 -12.5t-14 -5.5q-46 -1 -93.5 -2t-98.5 -6q-10 -59 -40 -101.5t-68 -68.5t-79.5 -35t-75.5 -1q-29 7 -48 25t-26.5 41t-1.5 48t27 45q26 24 51 37t58 26q8 39 1 54t-23.5 14t-39 -14.5t-46 -31.5t-44 -37t-32.5 -31
q-19 -18 -46 -56.5t-56 -89.5t-56.5 -108t-46.5 -112t-26 -102.5t5 -77.5l-1 1q1 -14 -2 -19t-9 -4.5t-13 4t-14 8.5q-17 11 -39 30.5t-39.5 46.5t-26 62.5t1.5 79.5q12 55 37.5 124.5t58 140t69.5 136.5t73 115q12 16 36.5 24.5t52 9t54 -5t42.5 -17.5q8 -6 13 -15.5
t-2 -17.5q-18 -26 -34 -53t-32 -56q22 18 47 37.5t52.5 37t58 30.5t63.5 16q24 3 56.5 1t60.5 -12.5t44 -31t8 -56.5q27 3 47 4t37.5 1t36 -0.5t42.5 -0.5zM300 193q13 -6 28 0t27.5 18.5t22 27t11.5 24.5q-8 -2 -20 -7.5t-24.5 -14.5t-24 -21t-20.5 -27z" />
    <glyph glyph-name="i" unicode="i" horiz-adv-x="452" 
d="M-24 217q3 25 9.5 57.5t16.5 65t23 61t29 45.5q5 6 13.5 7.5t16.5 3.5h14t34 -0.5t43 -1t42 -1.5t30.5 -3t9.5 -5q-14 -20 -28.5 -44.5t-27 -51t-22 -53.5t-15.5 -50q-5 -18 -10 -43t-3.5 -46.5t12.5 -35t40 -8.5q20 3 45 19t51.5 38t52.5 46.5t49 45.5t40 36t26 17
q7 5 16.5 5t16 -3.5t7 -10t-10.5 -14.5q-26 -20 -49 -38t-44 -38q-27 -24 -55 -49t-58 -46.5t-64.5 -37t-74.5 -20.5q-30 -3 -63 -0.5t-60 18.5t-42.5 48t-9.5 87zM266 549q1 -10 -6.5 -18t-15.5 -13q-15 -10 -42 -13.5t-53.5 0t-46.5 14t-20 30.5q0 10 6.5 19t13.5 14
q16 10 43 13.5t53 0t46 -15t22 -31.5z" />
    <glyph glyph-name="c" unicode="c" horiz-adv-x="580" 
d="M499 265q21 17 43 32.5t45 32.5q9 6 17.5 4.5t13 -7.5t2.5 -14.5t-15 -16.5q-50 -34 -91.5 -68t-95.5 -72q-30 -20 -60 -37.5t-65 -25.5l-6 -2l-10 -3q-30 -6 -60 -8t-59 3l-38 4q-20 3 -40 7.5t-38.5 13t-34 21.5t-26.5 32q-9 17 -11 35.5t1.5 37.5t10.5 37t15 34
q17 30 41 56t54 44q35 22 73.5 33.5t77.5 16.5q23 2 45.5 4t45.5 2l11 7q10 5 22.5 5.5t23.5 1.5q20 2 39.5 1.5t39.5 -0.5q14 -1 30 -1.5t31 -3.5l3.5 -1t6 -2.5t3 -3t-3.5 -3.5q-1 -2 -2.5 -2.5t-3.5 -2.5q-10 -10 -17.5 -22.5t-14.5 -25.5q-8 -14 -14.5 -28.5
t-12.5 -29.5q-2 -5 -13 -6.5t-16 -2.5q-17 -3 -36 -3.5t-36 -0.5q-3 0 -19.5 1t-35.5 2.5t-33.5 4t-13.5 5.5q5 13 10.5 26t11.5 25q-13 -8 -26 -17.5t-25 -20.5q-35 -41 -56 -85.5t-23.5 -82t17 -62t67.5 -23.5q10 2 19 4.5t17 4.5q32 10 59.5 28.5t54.5 38.5t51.5 39.5
t49.5 39.5z" />
    <glyph glyph-name="F" unicode="F" horiz-adv-x="833" 
d="M907 654q23 -35 14 -69.5t-45 -55.5q-13 -7 -30 -10t-36 -4t-38 0.5t-35 3.5q-4 1 -10.5 2.5t-13 3.5t-12.5 4.5t-9 6.5q-6 7 -1.5 11.5t11.5 9.5q29 22 34 50.5t-12.5 50t-57.5 29t-100 -11.5q0 -3 1 -3.5t2 -2.5q8 -11 3.5 -31t-16 -44.5t-28 -50t-33 -49t-30 -42.5
t-19.5 -28q-8 -14 -15 -26t-15 -23q58 0 117 0.5t122 5.5q18 2 36.5 1t36.5 -3q29 -7 38.5 -14t4.5 -13t-22.5 -11t-42.5 -8q-159 -8 -319 -6q-17 -29 -39.5 -67.5t-40.5 -80t-27.5 -84t-0.5 -78.5q2 -2 3.5 -4.5t4.5 -4.5q0 1 3 -2q0 -2 1 -2q8 -3 12 -9t-2 -13
q-7 -9 -21 -11.5t-25 -4.5q-32 -6 -70 -5.5t-69 14.5q-31 15 -39 42.5t-3 59.5t18 63.5t24 55.5q17 35 35 69.5t38 68.5q-9 2 -17.5 4.5t-15 6t-9 7.5t2.5 9q6 7 21 10t21 5q5 0 10.5 1t11.5 1q36 59 74 118t73 122q16 27 14.5 43t-20.5 11q-10 -2 -22 -8t-23 -12
q-13 -7 -26 -16h-1q-34 -22 -74.5 -54.5t-70.5 -70t-39.5 -78.5t17.5 -81q2 -3 -10 -6t-28 -4.5t-30 -2t-16 0.5q-25 14 -35 39.5t-6 53.5q4 34 30 67t63.5 62t81.5 54t83 43q33 16 88 32t120.5 28t135 17t131.5 -1t111 -25t72 -56z" />
    <glyph glyph-name="G" unicode="G" horiz-adv-x="689" 
d="M531 733q43 -2 72 -14t46 -26t23.5 -26t6.5 -13q-22 -60 -42.5 -101.5t-24.5 -71.5q-1 -9 -22 -9.5t-46 8.5t-46 26t-22 43q0 11 7.5 25t18 28.5t21 28.5t15.5 26q6 9 3 13.5t-9.5 6t-14.5 1t-13 -1.5q-44 -7 -89 -30.5t-84.5 -55t-69.5 -66t-45 -64.5
q-14 -24 -16.5 -53.5t4 -57t22.5 -49.5t40 -30q28 -4 56.5 16.5t56 49.5t53.5 58.5t50 43.5q15 10 33.5 12.5t36.5 2.5q22 1 43 1.5t36.5 -2t24 -9t5.5 -18.5q-17 -70 -45 -137q-12 -29 -27.5 -59.5t-34.5 -61t-42 -58.5t-50 -51q-37 -31 -78.5 -49t-81.5 -27t-75 -10t-59 2
q-26 3 -55 10.5t-54 21.5t-41.5 36.5t-16.5 56.5q0 28 12 51.5t32 40.5t45 27t52 12q24 0 41 -11t26.5 -25t12.5 -26.5t0 -14.5q-4 -2 -13 1.5t-14 5.5v1q-1 1 -2 1q-16 7 -41 5t-48.5 -12t-39.5 -26.5t-13 -39.5q5 -32 33 -51t61 -19q53 -2 98.5 24t82 66.5t62 90
t38.5 96.5q2 9 4 19.5t4 21.5q-35 -44 -71 -70t-90 -31q-34 -3 -71 -1t-71 11t-62.5 25.5t-46.5 42.5q-25 38 -24 78t20.5 78t52.5 72t71 61q37 27 82 50t95 40.5t104 28t108 11.5z" />
    <glyph glyph-name="J" unicode="J" horiz-adv-x="651" 
d="M640 562q-15 -116 -50.5 -216.5t-90 -179.5t-128.5 -132.5t-165 -75.5q-96 -9 -144.5 17t-64.5 74q-8 25 -4 52t15.5 51.5t28.5 44t35 28.5q16 12 36.5 3.5t35.5 -24.5t18 -31.5t-15 -16.5q-5 0 -16 -8t-23.5 -19t-24 -24t-17.5 -25q-12 -23 -8.5 -45t15.5 -30
q26 -14 54.5 -8t57 24.5t56 47t52 61.5t44 66.5t31.5 62.5q28 69 52 144.5t37.5 140t13 108.5t-19.5 50q-23 9 -50.5 4.5t-57 -18.5t-59 -35t-55.5 -45t-47.5 -49.5t-33.5 -47.5q-8 -16 -12 -32.5t-5 -30.5t0.5 -24.5t4.5 -14.5q7 -11 8 -15.5t-3 -5.5t-11.5 1.5t-15.5 7.5
q-66 35 -80 73.5t8 76t70 71.5t106 60t116 42t100 17q57 1 98 -13t66.5 -38.5t35.5 -56.5t6 -67z" />
    <glyph glyph-name="f" unicode="f" horiz-adv-x="550" 
d="M571 329q13 6 22.5 4t13.5 -8.5t1.5 -15.5t-14.5 -16q-77 -40 -155.5 -42.5t-157.5 18.5q14 -23 26 -46.5t21 -49.5q14 -40 23.5 -92t6.5 -104.5t-22.5 -98.5t-63.5 -74q-41 -26 -90 -25t-93 28t-78.5 79.5t-46.5 128.5q-6 59 0.5 125.5t22 134t37 133t46 123.5t48.5 106
t44 80q6 10 26 15.5t44.5 7t51 -1t47 -8.5t30.5 -15t3 -21q-33 -56 -61.5 -111.5t-52 -114.5t-42 -122.5t-31.5 -133.5q-16 -85 -13 -171.5t38 -164.5q16 -36 30.5 -44.5t26 0.5t20.5 31.5t15 48.5t9 51t3 41q1 81 -25.5 157t-77.5 138q-5 6 -2 10.5t10 8.5q17 6 33 -3
q75 -35 162 -31.5t165 45.5z" />
    <glyph glyph-name="q" unicode="q" horiz-adv-x="723" 
d="M732 316q7 3 16 0t14 -9t3.5 -14t-14.5 -15q-20 -11 -47.5 -20t-59.5 -20.5t-67.5 -25.5t-72.5 -34q15 -20 23 -61.5t8 -92t-7.5 -104.5t-23 -100.5t-39 -79.5t-55.5 -41q-55 -14 -94.5 -2t-62.5 44t-28.5 81.5t6.5 111.5q8 40 16.5 77t18.5 72.5t22 71.5t27 76
q-17 -19 -35.5 -38.5t-40.5 -34.5q-27 -26 -69.5 -37.5t-83.5 -5.5t-70.5 29.5t-29.5 68.5q-1 51 16 95t47 77t69.5 54t83.5 25t90.5 -9.5t89.5 -49.5q2 6 4 11t5 11q6 15 24.5 25t42 15t49 5t46.5 -5t33.5 -15t10.5 -25q-19 -48 -38 -95t-36 -95q29 12 54 20.5t49 16.5
t49.5 18t56.5 24zM196 172q50 42 92 92t81 107q-10 11 -23.5 21t-30 12t-35.5 -6.5t-40 -35.5q-28 -45 -41.5 -92.5t-3.5 -94.5q0 -1 0.5 -1.5t0.5 -1.5zM408 -259q16 9 30 34t24 55t16.5 60t8.5 48q6 43 4 85.5t-13 82.5q-28 -91 -47.5 -181.5t-22.5 -181.5v-2z" />
    <glyph glyph-name="s" unicode="s" horiz-adv-x="404" 
d="M420 326q12 1 19.5 -3.5t9 -10.5t-4.5 -11t-20 -5q-19 0 -45.5 -2.5t-55.5 -8t-58 -14t-53 -18.5q15 -11 30 -22.5t27.5 -24.5t22 -28.5t12.5 -34.5t-1.5 -40t-15.5 -40.5t-27 -34.5t-35 -22q-18 -7 -46.5 -9.5t-57.5 0t-55.5 12t-40.5 26.5q-16 18 -15.5 39t9.5 42
t23.5 40.5t26.5 34.5v2q-1 1 -13.5 13t-28.5 32.5t-31.5 49t-22.5 63.5q-7 56 17.5 94t66 58.5t92.5 23.5t97 -10q28 -8 47.5 -24.5t16.5 -45.5q0 -3 -8 -4.5t-17.5 -1.5t-17.5 1.5t-9 4.5q-1 11 -5.5 17t-13.5 14q-10 8 -23 5.5t-24 -9.5q-24 -18 -36.5 -43t-14 -51.5
t8.5 -53t31 -48.5q21 12 54.5 21t68.5 15t67 9t49 3zM66 51q13 7 21.5 20.5t12 29.5t2.5 32t-7 29q-8 -10 -15.5 -23.5t-13 -28.5t-6 -30.5t5.5 -28.5z" />
    <glyph glyph-name="v" unicode="v" horiz-adv-x="513" 
d="M530 327q19 9 28 8.5t10 -6t-5.5 -13.5t-18.5 -14q-46 -24 -92.5 -27.5t-78.5 7.5q-14 -18 -42 -48t-63.5 -63.5t-75 -65t-75.5 -51.5q-20 -9 -41 -12t-40 -3q-14 -1 -29 1t-27 8t-19 17t-3 28q9 46 16.5 88t14 83t14 82.5t16.5 87.5q1 7 6.5 13t12 11t13.5 8.5t12 5.5
q23 11 43 14t40 4q14 0 29.5 -2.5t28 -8.5t19.5 -17t4 -28q-8 -38 -14 -72.5t-11.5 -68.5t-11.5 -69t-14 -74q25 21 44 36t36 30t34 33t38 45q-26 6 -41.5 29t-17 54t11 65.5t41.5 62.5q26 24 53.5 30t49.5 2q37 -9 45.5 -33.5t-0.5 -56t-29.5 -66.5t-40.5 -66
q11 -4 27 -5.5t33.5 0t36 5.5t33.5 12zM345 334l4 -2t5 -2q18 24 35 53t25.5 56t5 48.5t-26.5 30.5q-23 -9 -39.5 -36t-24 -57.5t-4.5 -56.5t20 -34z" />
    <glyph glyph-name="g" unicode="g" horiz-adv-x="833" 
d="M841 324q22 7 30 3.5t6.5 -10.5t-9 -14.5t-14.5 -9.5q-33 -8 -62.5 -18.5t-59.5 -22.5t-62 -25t-69 -26q-12 -51 -29 -109t-40 -115.5t-53.5 -110.5t-69.5 -95t-95 -70t-114 -35t-109.5 11t-81.5 68q-19 31 -19.5 59.5t11 55t32.5 49.5t46 43t51 36.5t47 29.5
q49 29 97.5 55.5t99.5 51.5q24 91 39 185q-28 -31 -47 -57.5t-36.5 -47t-38 -35t-50.5 -21.5q-24 -6 -52.5 -8t-56.5 1.5t-54 13.5t-47 28q-23 20 -32 47t-7 57q2 31 13.5 62t31.5 56q34 37 79 55.5t94 21.5t98.5 -7.5t92.5 -29.5q8 -4 7 -10.5t-7 -11.5q-8 -5 -18 -4.5
t-18 4.5q-30 16 -58 10.5t-51.5 -24.5t-39.5 -48t-20.5 -60t3.5 -59.5t33 -47.5q1 0 4.5 -3t3.5 -2q1 -1 2 -1.5t2 -1.5q14 -5 29.5 7.5t31.5 34t32 48.5t31.5 51t29.5 41.5t26 20.5q0 6 1 9q1 8 12 11.5t17 5.5q20 4 48.5 7.5t55.5 3.5t47 -6t23 -22q-5 -42 -11.5 -82
t-14.5 -82q61 27 118 47t121 42zM336 4q8 21 15 43t14 45q-35 -19 -67.5 -37t-64.5 -37q-30 -17 -65.5 -39t-65 -50t-48 -63t-13.5 -78q2 -15 12.5 -32t30 -25.5t47.5 -3.5t64 35q25 21 45.5 49t37.5 59.5t31 65.5t27 68z" />
    <glyph glyph-name="j" unicode="j" horiz-adv-x="420" 
d="M433 323q17 4 26 1.5t11.5 -8.5t-0.5 -12t-11 -9q-56 -18 -109.5 -45t-107.5 -50q-19 -8 -37.5 -17.5t-37.5 -18.5l-5 -25t-4 -18t-4 -16.5t-5 -18.5q-23 -89 -72.5 -165t-130.5 -129q-30 -20 -64.5 -34.5t-69.5 -18.5t-69 4.5t-64 35.5q-16 15 -23 33.5t-6.5 39t7 40.5
t18.5 37q16 24 50 51t74 52t80.5 45t70.5 29q10 34 20 81t19 96.5t16 96t11 81.5q1 8 12 11.5t18 5.5q3 1 17 2.5t33.5 2.5t41.5 1t40 -2.5t30 -7t11 -13.5q-2 -20 -7 -52.5t-11 -67.5t-12 -67.5t-10 -52.5q0 -3 -1 -5q63 27 127 56.5t128 50.5zM-277 -75q-12 -17 -19 -45.5
t-4 -52.5t19.5 -36.5t52.5 2.5q29 12 56 47t49.5 77t39 84.5t24.5 70.5q-14 -11 -42 -23t-60.5 -29t-63.5 -40t-52 -55zM222 568q1 -10 -6.5 -18t-15.5 -13q-15 -10 -42 -13.5t-53.5 0t-46.5 14t-20 30.5q0 10 6.5 19t13.5 14q16 10 43 13.5t53 0t46 -15t22 -31.5z" />
    <glyph glyph-name="w" unicode="w" horiz-adv-x="812" 
d="M827 319q16 8 23 6.5t7.5 -7.5t-4.5 -13.5t-12 -11.5q-45 -20 -84.5 -27.5t-84.5 6.5q-28 -29 -55 -54.5t-55 -46.5t-58.5 -36.5t-64.5 -22.5q-64 -14 -91.5 1.5t-33 49t6 79t25.5 91.5q-15 -24 -37 -53.5t-49.5 -61t-61 -63t-72.5 -57.5q-1 -3 -1 -8q-4 -12 -22 -22.5
t-28 -15.5q-22 -9 -42.5 -11.5t-37.5 -3.5q-14 0 -29 2t-26.5 8t-17 16t-0.5 27q27 88 53 176t53 177q5 13 21 22.5t27 14.5q21 10 41.5 13t40.5 5q13 0 28.5 -2.5t27 -8.5t17.5 -16.5t1 -27.5q-24 -75 -46.5 -149t-45.5 -149q45 37 86 81q35 38 72.5 88t62.5 107
q5 12 21.5 21t36.5 15t39 8.5t30 2.5h26t20 -4t11.5 -11.5t-0.5 -22.5q-9 -33 -23.5 -73.5t-24.5 -77t-10 -62.5t20 -30q16 2 34.5 15t35.5 29.5t32 33.5t25 29q-14 14 -20.5 40.5t-2.5 58t20.5 64.5t48.5 59q26 20 53 26t47 1q24 -5 31.5 -19.5t4.5 -34.5t-15 -44
t-28.5 -48.5t-34 -46.5t-32.5 -39q24 -11 56.5 -8t64.5 16zM667 328q7 9 20 26t27.5 38t27 43t19 41t4.5 33t-18 18q-29 -12 -50 -41.5t-32 -61t-11 -59.5t13 -37z" />
    <glyph glyph-name="x" unicode="x" horiz-adv-x="502" 
d="M513 316q8 10 18 11.5t17.5 -3t8.5 -14.5t-9 -23q-40 -50 -77.5 -95t-79.5 -77.5t-92 -48.5t-116 -8q-35 3 -62 22t-46 40q-22 25 -38 56q-23 -22 -46.5 -44.5t-44.5 -46.5q-4 -5 -13.5 -6t-18 0t-14 4.5t-0.5 8.5q28 32 59.5 62t65.5 59q-11 22 -21 48.5t-20.5 53.5
t-21 52t-23.5 43q-6 10 -7.5 18.5t6.5 21.5q12 18 39.5 27t57.5 10.5t56 -5t35 -20.5q7 -11 14 -27t13.5 -32.5t13.5 -32t13 -27.5q36 29 71.5 58t71.5 59q9 6 17.5 7.5t16.5 0.5q1 0 5 -1.5t7.5 -3t5 -4t-2.5 -5.5q-45 -36 -88.5 -71.5t-87.5 -71.5q4 -11 11.5 -32.5
t18.5 -45t25.5 -45.5t32.5 -35q20 -14 41 -11.5t42.5 15t42.5 33t39.5 43.5t35 45z" />
    <glyph glyph-name="y" unicode="y" horiz-adv-x="845" 
d="M865 329q7 4 18 4.5t17 -3t4 -10.5t-19 -19q-13 -8 -38 -22.5t-56 -31.5t-66 -35t-66.5 -33.5t-57.5 -27t-39 -15.5q-15 -70 -39.5 -151t-63.5 -155.5t-96 -132.5t-138 -82q-36 -11 -72.5 -13t-69.5 6t-60.5 26.5t-45.5 49.5q-23 38 -15 80.5t31 77.5q13 19 36.5 39
t53.5 40.5t64 41t69 39t68 35.5t60 31q20 72 29.5 144.5t20.5 144.5q-18 -30 -36.5 -64.5t-40.5 -66.5t-50 -58t-66 -39q-33 -12 -71.5 -7t-67.5 25q-32 24 -47.5 56.5t-18.5 70.5t4 80t20 85q6 19 32.5 30t59.5 14.5t63.5 -0.5t43.5 -16q5 -5 5.5 -12t-1 -14.5t-4.5 -15.5
t-4 -14q-2 -5 -5.5 -23.5t-7 -42.5t-5.5 -50t1.5 -47t12.5 -33.5t28 -8.5q9 1 18 10t17 22t15 26t12 22q23 41 45.5 81t57.5 73q0 1 0.5 1t0.5 1q4 4 21 9.5t40 10.5t48.5 8t46.5 1.5t34 -9t12 -23.5q-2 -20 -7 -55.5t-10.5 -74.5t-11 -74.5t-9.5 -55.5q0 -2 -0.5 -2.5
t-0.5 -2.5q31 13 74.5 34.5t87 44t80.5 43.5t55 33zM76 -336q37 0 67.5 18.5t55.5 49t45.5 68.5t36.5 77.5t28.5 76t22.5 63.5q-10 -6 -38 -18.5t-64.5 -31t-76.5 -43.5t-72.5 -55.5t-53 -65.5t-18.5 -75q0 -10 5 -21t13.5 -20.5t20.5 -16t28 -6.5z" />
    <glyph glyph-name="z" unicode="z" horiz-adv-x="759" 
d="M765 309q9 5 18.5 5.5t15.5 -2.5t5.5 -9t-13.5 -14q-32 -20 -62 -35.5t-61 -30t-64.5 -30t-71.5 -35.5q34 -62 33.5 -132.5t-26.5 -138t-73.5 -128t-105.5 -103t-123.5 -62.5t-127.5 -6q-56 18 -88 50.5t-42.5 70.5t-1 76t37.5 67q75 76 163 134.5t181 109.5q0 6 -4 18
t-12.5 23t-22 18t-32.5 4q-20 -6 -31 -11.5t-22.5 -8t-26 -1t-39.5 10.5q-6 3 -15.5 6.5t-18 9t-14.5 12t-6 14.5q0 12 10 20t20 12q26 4 59 12.5t66.5 21t65 29.5t55 38t35.5 46t8 54q-6 23 -25.5 29t-46 0.5t-57.5 -21t-59.5 -36t-51.5 -44.5t-34 -47q-4 -10 -6 -22
q-1 -11 -17 -19.5t-38 -13t-47 -3t-45 9t-32 23t-7 40.5q7 39 33.5 68.5t62.5 51t77.5 36t77.5 24.5q46 12 96.5 13.5t92.5 -9t69.5 -34t28.5 -62.5q1 -28 -11.5 -51.5t-29.5 -41.5q-20 -21 -42.5 -39t-45.5 -35q35 -8 71 -22.5t65 -40.5q43 22 73.5 37.5t57.5 29.5
t54.5 28.5t66.5 35.5zM81 -317q42 0 80.5 18t71.5 48.5t59 70t43.5 82.5t25 85.5t3.5 79.5q-16 -9 -55 -31.5t-85.5 -53t-92.5 -67t-76.5 -75t-37 -75.5t26.5 -69q13 -13 37 -13z" />
    <glyph glyph-name="K" unicode="K" horiz-adv-x="811" 
d="M853 644q-32 -60 -83.5 -108.5t-113 -89.5t-127.5 -75t-127 -64q31 0 67 0.5t72 -3t70 -12.5t60.5 -28t43 -49t18.5 -75q-1 -13 -3 -30.5t-1 -35t6 -33t18 -25.5q8 -2 14.5 -7t6.5 -12q0 -10 -11 -14.5t-18 -6.5q-30 -13 -71 -12.5t-73 12.5q-37 14 -55.5 40t-18.5 68
q0 22 2.5 51.5t-1.5 56.5t-19.5 45.5t-51.5 18.5q-30 0 -58.5 -6t-62.5 -14q-1 -3 -2 -5.5t-3 -5.5q-14 -30 -26 -60t-21 -61q-5 -20 -8 -42.5t5 -42.5q3 -6 7 -10l4 -4q1 0 3 -1q7 -3 11 -8.5t-1 -12.5q-8 -10 -22.5 -13t-24.5 -5q-33 -6 -70.5 -4.5t-68.5 15.5
q-29 14 -38.5 40t-5.5 56q6 38 18.5 75t29 73t36 71.5t39.5 69.5q42 74 83 142q23 36 45 70.5t40 71.5q1 3 5 13.5t4.5 20.5t-6.5 15.5t-27 -0.5q-18 -9 -47 -27t-60 -44t-59.5 -57t-46.5 -65.5t-20 -70.5t21 -70q1 -2 -9.5 -5.5t-26.5 -5.5t-32.5 -2t-27.5 6q-26 14 -36 42
t-7 55q5 32 24 58t42 48q54 51 117.5 89t133.5 64q5 3 10 5t8 3q15 4 42 8t57 6t59.5 -0.5t51 -13t30 -29.5t-2.5 -51q-17 -39 -37 -74t-42 -69.5t-44.5 -70t-44.5 -74.5q57 28 112.5 61.5t105.5 74t93.5 89.5t75.5 109q7 13 21 13t27 -8t21 -20.5t2 -23.5z" />
    <glyph glyph-name="L" unicode="L" horiz-adv-x="552" 
d="M193 -51q-27 4 -49.5 20.5t-39 36.5t-25 39t-7.5 27q5 46 22 94.5t42 98.5t55 99.5t60.5 97.5t59.5 94t51 89q1 3 5.5 13.5t4.5 20.5t-7 15.5t-28 -0.5q-17 -9 -46 -27t-60 -44t-59.5 -57t-46 -65.5t-20 -70.5t20.5 -70q2 -2 -7.5 -3.5t-22 -3t-23.5 -3t-12 -1.5h-16
t-15 4q-25 15 -35.5 42.5t-5.5 54.5q4 32 22.5 58t40.5 48q55 51 118.5 89t132.5 64q6 3 11.5 5t7.5 3q49 12 100.5 14.5t100.5 -9.5q12 -4 25 -9t21 -16q8 -12 5 -25t-8 -25q-22 -50 -55 -110t-68 -123t-69.5 -124.5t-59.5 -115t-37.5 -95.5t-3.5 -64q48 2 97 4.5t99.5 3.5
t100.5 -2t99 -11q17 -3 20 -13t-18 -33q-11 -11 -15.5 -10t-18.5 3q-57 7 -112.5 12.5t-110 6t-109.5 -5.5t-112 -21z" />
    <glyph glyph-name="P" unicode="P" horiz-adv-x="944" 
d="M942 564q4 -42 -4.5 -84.5t-20.5 -83.5q-13 -35 -30.5 -69t-41.5 -62.5t-55 -50t-71 -31.5q-56 -15 -107 -14t-94 20.5t-75.5 58.5t-51.5 101q-32 -57 -63 -117.5t-48 -127.5q-5 -20 -7.5 -42.5t5.5 -42.5q2 -4 6 -10l4 -4l1 -1q8 -3 12.5 -8.5t-1.5 -12.5
q-8 -10 -22 -13t-25 -5q-32 -6 -70 -4.5t-69 15.5q-29 14 -38 40t-5 56q4 37 16.5 74.5t30 74t37.5 72t39 68.5q20 36 41 71.5t43 70.5q21 36 43 70.5t39 71.5q1 3 5.5 13.5t5 20.5t-6 15.5t-27.5 -0.5q-18 -9 -46.5 -27t-60 -44t-60 -57t-46 -65.5t-19.5 -70.5t21 -70
q1 -2 -9 -3.5t-22.5 -3t-23 -3t-11.5 -1.5q-18 0 -32.5 8t-24.5 22t-14 32.5t-1 38.5q4 32 22.5 58t41.5 48q54 51 118 89t133 64q24 8 53 13t58 6.5t57 0t51 -6.5q12 -4 25 -9t21 -16q8 -12 4.5 -25t-8.5 -25q-5 -11 -10 -22.5t-12 -22.5q37 22 72 43.5t72 35.5t79.5 18.5
t95.5 -7.5q21 -5 35.5 -18t24 -31t14.5 -39t7 -40zM726 444q19 81 12.5 123t-30.5 54t-59.5 -1t-74 -41t-74 -67t-59.5 -78q-13 -20 -23 -38q13 -2 13 -7q8 -32 21 -72.5t35 -70t54 -36.5t78 28q44 40 68.5 94.5t38.5 111.5z" />
    <glyph glyph-name="N" unicode="N" horiz-adv-x="980" 
d="M990 562q-45 -75 -79 -158.5t-51 -171.5q0 -4 -3.5 -25t-6.5 -50t-3.5 -60.5t6 -56t22 -37t43.5 -2.5q8 2 10 -1.5t0 -9.5q-5 -7 -35 -23t-83 -26q-52 -10 -86 3.5t-53.5 42.5t-26.5 70t-4 88t13 96t23.5 93.5t29.5 81t31 57.5q-16 -18 -43.5 -48.5t-62 -68.5t-72.5 -81
t-75 -85q-88 -99 -188 -213q-9 -11 -33.5 -16t-53.5 -5t-56 4t-40 10q-29 14 -38 40.5t-6 56.5q13 81 46 154.5t75 144t86.5 140t80.5 142.5q1 2 6 12.5t5.5 20.5t-6.5 15.5t-28 -1.5q-18 -8 -47 -26.5t-60 -44t-59.5 -57t-46 -66t-19.5 -70.5t21 -71q1 -2 -8.5 -4.5
t-21.5 -4t-23 -2.5l-11 -1q-8 0 -16.5 -0.5t-15.5 4.5q-24 15 -35 42t-6 55q4 32 23 59t42 48q54 51 117 90t132 67q5 3 10 4.5t8 1.5q19 5 55 10t74 5t71 -7.5t46 -28.5q8 -12 5 -24.5t-8 -24.5q-18 -42 -48.5 -93.5t-65 -107.5t-68.5 -114t-60 -113t-40 -104.5t-7 -89.5
q141 152 254 273q48 51 94.5 101t83.5 89.5t61 64.5t27 27l2 4t3 4q9 14 24 22t32.5 11.5t35.5 3t32 -1.5q14 -2 31 -7t28 -16q8 -7 12.5 -18t-2.5 -22z" />
    <glyph glyph-name="M" unicode="M" horiz-adv-x="1258" 
d="M1271 562q-11 -9 -26.5 -37t-32.5 -67.5t-34 -87t-30 -96.5t-21 -95.5t-7 -84t13 -62.5t38 -31q9 -2 15.5 -1.5t9.5 1.5q8 2 11 -1.5t-1 -9.5q-4 -7 -33 -24.5t-83 -24.5q-69 -9 -106.5 19t-52.5 77.5t-11 113t19 125.5t36 115t41 82q-83 -91 -155 -188t-145 -193v-2
q-2 -11 -11.5 -16.5t-18.5 -7.5q-29 -4 -58.5 3t-52 25.5t-34 49t-3.5 72.5q12 49 22 84.5t23.5 68.5t31.5 69.5t46 89.5q-3 -4 -6.5 -7t-6.5 -7q-109 -122 -197.5 -250t-163.5 -275q4 -6 -3 -12q-9 -11 -34.5 -16t-54.5 -5t-56.5 4t-39.5 10q-30 14 -38.5 44t-3 67t21 78.5
t34.5 80.5t37 71t28 50q41 72 85 141.5t83 145.5q1 2 5 12.5t4.5 20.5t-6.5 15.5t-28 -1.5q-18 -8 -47.5 -27.5t-61.5 -46t-62 -58.5t-47 -66.5t-17.5 -69.5t25.5 -67q3 -4 -5 -7t-19.5 -4.5t-22 -2t-11.5 -0.5q-8 0 -19.5 0.5t-18.5 5.5q-25 15 -35 42t-7 55q5 32 24 59
t41 48q54 51 117 90t132 67q21 11 49 16t57 6t58.5 -2t53.5 -8q12 -4 25 -9.5t21 -17.5q9 -12 5.5 -24.5t-8.5 -24.5q-24 -51 -56 -108t-65 -115.5t-65 -116t-56.5 -109t-38 -94t-10.5 -70.5q8 14 16.5 28t16.5 28q40 68 89.5 143t106 148.5t118.5 140t127 117.5q2 4 5 4
q9 9 24 13.5t32.5 6.5t34.5 1t30 -2q5 0 22 -2.5t33.5 -7.5t27 -12.5t2.5 -18.5q-66 -93 -118.5 -206t-90.5 -231q39 51 77 104t79 104.5t86 99t96 88.5q2 2 3 4l2 4q11 17 35.5 26.5t52.5 11t54.5 -5t41.5 -20.5q8 -7 12.5 -18t-1.5 -22z" />
    <glyph glyph-name="O" unicode="O" horiz-adv-x="718" 
d="M586 686q37 -19 58.5 -53t30.5 -76t7.5 -89.5t-10.5 -93.5t-22.5 -88.5t-28.5 -73.5q-33 -71 -86.5 -130t-120.5 -96t-144.5 -45.5t-159.5 21.5q-39 18 -62 49t-31 70t-4 82.5t19 87.5q-7 8 -12.5 17.5t-8.5 19.5q-15 38 -13.5 79t15.5 81t38 77.5t56 69.5
q41 40 83.5 65.5t84 39.5t80.5 18t74 3q81 -4 157 -35zM340 -15q61 28 110 80t83 117t53 137.5t20 140.5q1 35 -5 78t-23.5 78.5t-49 54t-81.5 5.5q-40 -14 -78 -39t-70 -58.5t-56.5 -73.5t-36.5 -83q7 0 14 -0.5t13 -1.5q14 -2 30.5 -8t25.5 -16q7 -8 9 -20t-6 -23
q-17 -19 -30 -41.5t-28 -54.5q11 -8 27 -12q14 -4 34.5 -6t49.5 3q28 4 53 15t44 24q22 14 41 32q3 1 7 1q7 0 8 -4q4 -2 3.5 -14.5t-18.5 -25.5q-57 -42 -127 -61t-141 -7q-7 -21 -10 -58.5t2.5 -74t22.5 -65t50 -31.5q11 -2 25 0t31 10z" />
    <glyph glyph-name="Q" unicode="Q" horiz-adv-x="702" 
d="M487 715q55 -9 93 -28t62 -50.5t34 -77.5t8 -108q-3 -71 -22.5 -144t-56.5 -138t-90.5 -117t-123.5 -80q16 -15 36 -21t40.5 -3.5t39 14t30.5 31.5l9 -9q4 -4 8 -8.5t6 -9.5t-2.5 -16.5t-16.5 -23.5t-32.5 -21t-51.5 -7q-39 -2 -68.5 15t-61.5 40q-25 -5 -52 -8.5
t-54 -3.5t-54 4.5t-52 16.5q-40 18 -63 49t-31.5 70t-4.5 82.5t19 87.5q-13 16 -21 37q-14 38 -12.5 79t15 81t38 77.5t56.5 69.5q50 48 101.5 75t100.5 39t93.5 12t80.5 -6zM218 50q5 -16 11.5 -30.5t16.5 -25.5t24.5 -17t35.5 -4q-20 20 -38.5 41.5t-47.5 35.5h-2z
M609 460q0 36 -5.5 79t-23 78t-48.5 53.5t-82 5.5q-40 -12 -77 -38.5t-68.5 -61t-56 -74.5t-37.5 -80q8 0 14 -0.5t11 -1.5q15 -2 31.5 -8t25.5 -16q7 -8 9 -20t-7 -23q-15 -19 -28.5 -42.5t-28.5 -61.5q18 -15 48.5 -16t63 6t62 18.5t44.5 22.5q18 13 26 21q5 4 10 9l4 2
q4 2 7 -2q1 -1 2.5 -8.5t0.5 -17t-4.5 -20t-12.5 -17.5q-34 -28 -72 -42.5t-74.5 -18.5t-68.5 0.5t-53 15.5q-10 -29 -11.5 -57.5t1.5 -60.5q24 3 45.5 -4t41 -20t36 -29.5t31.5 -34.5q58 33 102 84.5t75 113t47.5 130t19.5 136.5z" />
    <glyph glyph-name="R" unicode="R" horiz-adv-x="944" 
d="M930 564q5 -53 -6.5 -114t-39.5 -116t-71.5 -97t-101.5 -57q-52 -14 -106 -11.5t-107 22.5q12 -26 29.5 -57.5t38.5 -62t45 -57t50 -41.5q9 -3 17 -7q7 -3 14.5 -5.5t14.5 -2.5t11.5 -3t5 -7.5t-4.5 -9t-18 -7.5q-64 -15 -121 8t-104.5 67t-84 101.5t-58.5 113.5
q-2 5 -4 8.5t-3 8.5q-2 -5 -4 -8.5t-4 -8.5q-9 -18 -20.5 -44.5t-20.5 -55.5t-12.5 -57.5t4.5 -50.5q2 -4 8 -10l3 -3q1 0 1 -1q8 -3 12.5 -8.5t-1.5 -13.5q-9 -11 -34.5 -16t-54.5 -5t-56 4t-40 10q-29 14 -38 40.5t-5 56.5q8 78 42 152t77.5 145.5t90 142t79.5 141.5
q1 2 5 12.5t4.5 20.5t-6 15.5t-26.5 -1.5q-18 -8 -47 -26.5t-60 -44t-59.5 -57t-46.5 -66t-20 -70.5t21 -71q1 -2 -7.5 -5t-19.5 -5.5t-20.5 -4.5l-9.5 -2q-21 0 -36.5 9t-26 24t-15.5 34t-3 39q5 32 23.5 59t41.5 48q54 51 117 90t132 67q19 10 57.5 17t79.5 7.5t77 -8.5
t51 -31q9 -12 5 -24.5t-9 -24.5q-5 -11 -11 -23t-11 -23q34 21 69.5 43t74.5 37t82 19.5t92 -9.5q20 -6 34 -19.5t23.5 -31.5t14.5 -38.5t7 -39.5zM611 235q22 22 43 55t37.5 71.5t27.5 80t13 81t-6 73.5t-29 58q-83 -30 -148 -89.5t-117 -130.5q-2 -2 -4 -5.5t-3 -5.5
q-1 -17 4 -44.5t15.5 -56.5t26.5 -55.5t37 -42t47 -15t56 25.5z" />
    <glyph glyph-name="zero" unicode="0" horiz-adv-x="462" 
d="M412 567q31 -52 33.5 -118.5t-13 -135.5t-45 -133.5t-60.5 -112.5q-7 -13 -23.5 -19.5t-30.5 -11.5q-29 -9 -64 -10t-69 6.5t-63 25t-46 47.5q-32 53 -34 116.5t14.5 129t45.5 127.5t60 111q8 11 21 15.5t26 8.5q4 1 19.5 2t34.5 0.5t39.5 -3.5t35.5 -8.5t21 -14.5
t-2 -23q-26 -41 -48 -83t-38 -87q-19 -59 -24 -122.5t12 -123.5q19 -37 34 -49t28 -8t24.5 20t22.5 37q19 38 36.5 87t27.5 101.5t8.5 104.5t-20.5 94q-13 29 -36.5 54t-54.5 31q-7 2 -14.5 5.5t-4.5 11.5t14 10t18 0q76 -15 115 -82z" />
    <glyph glyph-name="one" unicode="1" horiz-adv-x="376" 
d="M268 660q3 0 20.5 -0.5t36 -2.5t33 -6t11.5 -11q-16 -45 -34.5 -102.5t-37 -119t-34.5 -122.5t-27.5 -111.5t-16 -86.5t0.5 -48q3 -6 6 -10.5t4 -7.5t-1.5 -5t-12.5 -3q-61 -3 -98.5 11t-56.5 39.5t-21.5 61t7.5 76.5q20 98 47 193t59 189q-68 -39 -146 -54q-5 -2 -17 -2
t-17 6q-5 5 -1 8t10 5q55 10 103.5 34t90.5 60q2 2 9 3t13 -1q17 5 35 6t35 1z" />
    <glyph glyph-name="E" unicode="E" horiz-adv-x="749" 
d="M794 729q-10 -14 -17.5 -34.5t-13 -43t-8 -45.5t-2.5 -44q0 -7 -15 -11t-34 -4t-34.5 3.5t-15.5 11.5q-1 68 23 131q-64 0 -121.5 -26t-105.5 -71q-18 -19 -34.5 -42.5t-25 -48.5t-5.5 -50.5t24 -47.5q17 -12 42 -16.5t50 -6t46.5 -1.5t32.5 -1q6 -1 9 -4.5t3 -5.5
q0 -14 -14.5 -28.5t-32.5 -25t-35 -16t-23 -2.5q-10 5 -26 7.5t-32 3.5t-29.5 1h-18.5h-8h-1q-56 0 -98 -26t-66 -64t-27 -81t17 -78t66 -54.5t122 -9.5q66 8 139 44t135 92q15 15 28.5 19.5t17.5 -1.5t-4 -22.5t-36 -43.5q-47 -42 -108 -72.5t-130 -45.5t-143 -12t-147 28
q-35 12 -62.5 36t-46 55t-26 67t-1.5 72q5 32 28 65t57.5 58t75.5 38.5t82 7.5q-8 5 -14.5 7.5t-13.5 8.5q-23 21 -27 46.5t4 52t26.5 53t41 49.5t46 41.5t43.5 29.5q39 24 85 37.5t92.5 19t88.5 3.5t73 -9q1 4 3 6.5t4 5.5q3 9 19.5 10.5t34.5 -0.5t31.5 -7t11.5 -9z" />
    <glyph glyph-name="S" unicode="S" horiz-adv-x="697" 
d="M590 720q48 -20 67.5 -53t18 -68t-19 -66.5t-42.5 -48.5q-9 -6 -28.5 -10.5t-40.5 -6.5t-39.5 -2.5t-26.5 1.5q-5 1 -11 2.5t3 8.5q4 -1 17.5 10.5t30 30.5t33 42.5t27 46t12.5 41t-11 27.5q-19 13 -49 17.5t-63.5 1t-67.5 -13.5t-61 -26q-31 -17 -48 -46.5t-8 -64.5
q6 -30 32.5 -55.5t62.5 -49.5t76 -48t75 -51.5t58.5 -59.5t26.5 -71q2 -30 -2 -55.5t-12 -46.5q-20 -50 -63.5 -80.5t-98 -45t-115.5 -14.5t-116.5 9.5t-100 27.5t-66.5 41q-37 39 -44 87t19 90q22 24 53.5 37t63.5 15q4 0 10.5 0.5t13 -0.5t11.5 -3t7 -6t-0.5 -7t-7 -4.5
t-9.5 -2t-8 -0.5q-30 -3 -52.5 -23.5t-33 -48.5t-7 -58t24.5 -52q39 -39 95.5 -50.5t111 1t96 47.5t50.5 89q4 24 -12.5 45.5t-45 41.5t-65 39.5t-72 39.5t-66 40.5t-47.5 42.5q-36 47 -38 94t21.5 88.5t69 74t105.5 50.5q98 30 176 27.5t130 -18.5z" />
    <glyph glyph-name="U" unicode="U" horiz-adv-x="962" 
d="M988 739q13 -2 26 -7t21.5 -14.5t10 -22.5t-8.5 -29q-88 -143 -150.5 -297t-93.5 -322q0 -2 -1 -10.5t-1.5 -19.5t0.5 -21.5t4 -16.5q4 -6 10 -8.5t11.5 -4t8.5 -2.5t3 -3t-7.5 -7.5t-17.5 -11t-20 -9.5t-14 -4h-1q-10 -3 -26.5 -5.5t-35 -2t-38.5 6t-36 18.5
q-29 23 -36 57t-2 73t18 80.5t24 79.5q-5 -6 -17.5 -24.5t-32 -42.5t-44.5 -51t-54.5 -51t-63 -41.5t-69.5 -22.5q-74 -12 -132 3t-92 53.5t-39.5 97.5t26.5 136q17 41 41 88t51 95t54 94.5t51 85.5q-17 2 -39.5 -9t-46.5 -32t-48.5 -49t-46.5 -59.5t-39 -64t-27 -61.5
q-3 -10 -15 -8.5t-24.5 11.5t-20.5 26t-2 34q16 51 47 91t69.5 70t80.5 50.5t80.5 32.5t70 15.5t49.5 0.5q11 -2 31.5 -6t38.5 -11t28 -18t1 -26q-74 -117 -131 -239q-13 -28 -30 -62t-32 -69t-26 -69t-13 -63t8 -51.5t36 -33.5q25 -7 51 -3.5t50.5 14.5t46.5 28.5t40 38.5
q74 85 122 157t84 138t68.5 131t75.5 137q8 15 25 23.5t32 13.5q20 7 40.5 7.5t38.5 -2.5z" />
    <glyph glyph-name="V" unicode="V" horiz-adv-x="751" 
d="M813 723q1 7 13 9.5t25 2.5t23.5 -3.5t9.5 -8.5q-39 -53 -80.5 -126t-83.5 -151.5t-84 -156.5t-83 -142t-80 -107t-75 -52q-31 -13 -69 -13.5t-70 4.5q-8 2 -22 4t-19 10q-24 30 -33.5 69t-13.5 78q-7 94 -1 189.5t26 198.5q7 38 15.5 76t24.5 73q-27 -19 -53 -44.5
t-47.5 -55t-36.5 -62.5t-18 -67q0 -5 1 -9q2 -8 8 -16q3 -4 0 -7t-8 -5t-10.5 -3.5t-8.5 -1.5q-6 0 -17 3.5t-21 11.5t-15.5 21t-1.5 32q17 57 51 104.5t80 82.5t100 54.5t112 19.5q17 0 34 -1t32 -6l14 -6q5 -2 8.5 -5.5t1.5 -5.5q-23 -39 -33.5 -80t-20.5 -83
q-9 -41 -17 -93t-13.5 -106t-7 -107.5t1.5 -97.5t11.5 -75t24.5 -41q21 -4 52 31t67.5 94t77 135t81 154.5t78.5 152.5t70 128z" />
    <glyph glyph-name="X" unicode="X" horiz-adv-x="833" 
d="M568 449q21 -53 40 -107.5t40.5 -108.5t47.5 -107t62 -103q8 -12 -1 -22t-24.5 -17.5t-32 -12t-22.5 -5.5q-16 -2 -33.5 -2t-33.5 3.5t-29.5 11t-22.5 20.5q-50 70 -83 147.5t-65 159.5q-75 -74 -146 -152.5t-137 -161.5q-9 -13 -23.5 -16t-25.5 -1q-3 1 -8.5 3t-10 6
t-6 8.5t3.5 10.5q35 46 73 90.5t77 87.5q44 48 89.5 93.5t92.5 90.5q-9 25 -20.5 67t-25.5 85.5t-31.5 82.5t-37.5 59q-7 8 -25 -1.5t-41 -31t-47.5 -51t-43.5 -61t-30 -62t-7 -53.5q-5 -8 -19 -2.5t-28.5 17t-25.5 23.5t-11 17q2 46 28.5 87t65.5 74.5t85.5 59.5t88.5 41
q17 8 40 10.5t46 1.5t44.5 -5t36.5 -10q25 -10 43.5 -35.5t32 -56t23 -62.5t18.5 -55q66 55 135.5 105.5t141.5 98.5q11 8 27.5 7t27.5 -7q9 -7 7 -15.5t-12 -14.5q-48 -31 -92.5 -63t-89.5 -66q-32 -24 -63 -49t-63 -51z" />
    <glyph glyph-name="two" unicode="2" horiz-adv-x="541" 
d="M512 563q11 -46 -3.5 -89t-43 -84.5t-66.5 -81t-74 -78t-65.5 -77.5t-40.5 -78q60 4 120.5 3t120.5 -15q18 -5 17.5 -10t-9.5 -8.5t-22.5 -5.5t-23.5 1q-18 4 -53 5.5t-77 1t-86 -2t-80.5 -3t-61 -3t-26.5 -1.5q-3 0 -9 0.5t-12 2t-11 4.5t-5 8q0 30 19 65.5t48.5 74
t65 78.5t69 78t60.5 73.5t40 65.5q19 45 15.5 76t-23 44.5t-52 7t-71.5 -36.5q-15 -12 -27.5 -31t-21.5 -41t-16 -45t-11 -44q-2 -6 -14.5 -3.5t-26.5 8.5t-26 13t-12 11q-3 42 16 80.5t55 68.5t87 49.5t112 22.5q25 1 60 -2t68.5 -14t60.5 -32t36 -56z" />
    <glyph glyph-name="three" unicode="3" horiz-adv-x="533" 
d="M348 415q58 9 93 -12t49.5 -58.5t9 -84t-26.5 -86.5q-29 -54 -68.5 -90t-101.5 -53q-64 -15 -110.5 -11.5t-77.5 14t-45.5 21.5t-13.5 11h1q-29 23 -45 58t-12 71q3 29 18 48.5t36.5 30.5t47.5 15.5t51 4.5q4 -1 14.5 -3t10.5 -7q0 -8 -10 -10t-15 -1q-22 0 -44.5 -5
t-38.5 -22q-20 -22 -24 -48.5t4.5 -50.5t28.5 -42t49 -24q31 -7 61 5t55 35.5t43.5 54.5t27.5 63q6 20 7 40t-4 37.5t-17.5 30t-34.5 17.5q-11 2 -28 1t-36 -2.5t-37.5 -3t-31.5 0.5q-12 2 -18 7.5t-8.5 11.5t-3 13t-3.5 12q-2 6 -2.5 9.5t5.5 5t20.5 2t41.5 0.5q36 0 73 14
t68.5 35.5t55.5 45.5t34 44.5t2.5 33t-38.5 10.5q-20 -2 -42.5 -9.5t-43.5 -18.5t-38.5 -25t-27.5 -28q-5 -6 -7.5 -10t-5.5 -5.5t-7.5 -0.5t-12.5 5q-9 4 -19.5 10t-19.5 11.5t-15.5 10t-6.5 6.5q-1 10 4 21t13 21.5t17.5 19t18.5 13.5q54 29 94.5 36.5t79.5 2.5
q30 -4 55 -14t43 -21.5t29 -23t14 -19.5q14 -38 4 -66.5t-32 -49.5t-51.5 -34.5t-54.5 -20.5z" />
    <glyph glyph-name="four" unicode="4" horiz-adv-x="553" 
d="M496 632q8 -1 21.5 -3.5t25.5 -8t19 -14t1 -21.5q-24 -56 -54 -125.5t-56 -142t-43 -144.5t-15 -133q0 -16 -14 -22t-34 -3t-43.5 15t-42 32t-29 47.5t-5.5 62.5q7 36 11.5 54t9 32.5t10.5 32.5t17 54q-50 -7 -100.5 -23.5t-103.5 -20.5q-5 0 -20.5 6.5t-30.5 16.5
t-24 21.5t-3 20.5q23 40 40 74t30.5 67.5t25.5 70.5t26 82q3 12 18 13.5t32 -3.5t30.5 -14.5t12.5 -20.5q-3 -42 -15 -77.5t-29.5 -69t-38.5 -67t-42 -69.5q52 11 102.5 16t101.5 7q17 60 39.5 117t48.5 114q6 11 21.5 16.5t34 8t36.5 2t29 -0.5z" />
    <glyph glyph-name="five" unicode="5" horiz-adv-x="529" 
d="M177 421q26 6 63 9.5t76.5 0.5t76.5 -14t64.5 -32t41 -54.5t4.5 -81.5q-11 -61 -38.5 -105t-67 -71.5t-90.5 -40.5t-109 -12q-18 0 -42 5.5t-49 16t-48.5 26.5t-39.5 38.5t-22 51t3 64.5q3 12 14.5 13t25 -4.5t25 -15.5t14.5 -20q-5 -19 -4.5 -42.5t11 -44.5t33 -36
t62.5 -16q30 -1 58 14.5t50.5 40.5t37.5 57t19 66t-5 65.5t-34 56.5q-20 19 -52 23.5t-63.5 2t-55 -8t-26.5 -6.5q-9 -3 -25.5 -5t-33 1.5t-27 13.5t-7.5 30q8 54 17 105.5t18 104.5q3 21 11.5 29t22 10t29.5 0t34 -2q5 0 24.5 -1.5t47 -3.5t60.5 -3.5t65 -2t59.5 0.5
t45.5 6q8 1 18.5 1t16.5 -5q5 -7 1.5 -12t-11.5 -7q-29 -8 -63.5 -12.5t-70 -7t-70 -3t-63.5 0.5q-8 -47 -16 -91.5t-16 -92.5z" />
    <glyph glyph-name="asciicircum" unicode="^" horiz-adv-x="300" 
d="M196 762q12 -12 20 -20.5t16 -16t16 -16.5t20 -22q3 -3 0.5 -8.5t-7.5 -9.5t-12.5 -4.5t-14.5 7.5q-18 19 -32.5 32.5t-33.5 32.5q-14 -14 -27.5 -28.5t-25.5 -31.5q-6 -9 -21 -12.5t-29 -3t-22.5 6t-1.5 15.5q20 25 41 47.5t44 44.5q9 8 23 9t25 -1q1 0 7 -1t11.5 -3
t9 -4.5t0.5 -6.5l-6 -6v0z" />
    <glyph glyph-name="asciitilde" unicode="~" horiz-adv-x="411" 
d="M308 282q0 9 7.5 13.5t16 4.5t16 -4t7.5 -12q-1 -23 -11 -43t-28 -31q-23 -14 -45.5 -18.5t-48.5 5.5q-16 6 -26 15t-18 19t-15.5 20t-18.5 18q-5 2 -8.5 -1.5t-7 -9.5t-6.5 -13t-6 -11q-8 -11 -21.5 -15.5t-24.5 -2.5t-15 11t7 24q13 18 30.5 33t38 21t42 1.5
t41.5 -24.5q11 -11 20 -24.5t22 -27.5q7 -6 16.5 -1.5t17 14t13 20.5t5.5 19z" />
    <glyph glyph-name="circumflex" unicode="&#x2c6;" horiz-adv-x="300" 
d="M196 762q12 -12 20 -20.5t16 -16t16 -16.5t20 -22q3 -3 0.5 -8.5t-7.5 -9.5t-12.5 -4.5t-14.5 7.5q-18 19 -32.5 32.5t-33.5 32.5q-14 -14 -27.5 -28.5t-25.5 -31.5q-6 -9 -21 -12.5t-29 -3t-22.5 6t-1.5 15.5q20 25 41 47.5t44 44.5q9 8 23 9t25 -1q1 0 7 -1t11.5 -3
t9 -4.5t0.5 -6.5l-6 -6v0z" />
    <glyph glyph-name="tilde" unicode="&#x2dc;" horiz-adv-x="372" 
d="M282 751q0 9 7.5 13.5t16 4.5t16 -4t7.5 -12q-1 -23 -11 -43t-28 -31q-23 -14 -45.5 -18.5t-48.5 5.5q-16 6 -26 15t-18 19t-15.5 20t-18.5 18q-5 2 -8.5 -1.5t-7 -9.5t-6.5 -13t-6 -11q-8 -11 -21.5 -15.5t-24.5 -2.5t-15 11t7 24q13 18 30.5 33t38 21t42 1.5
t41.5 -24.5q11 -11 20 -24.5t22 -27.5q7 -6 16.5 -1.5t17 14t13 20.5t5.5 19z" />
    <glyph glyph-name="six" unicode="6" horiz-adv-x="454" 
d="M402 271q23 -21 29 -45t-3 -50q-8 -21 -25 -43t-39 -41.5t-46.5 -33.5t-48.5 -20q-24 -2 -47 -3q-20 -1 -40.5 -2t-33.5 1q-70 8 -104.5 48t-40.5 98t12 125.5t52.5 129.5t81.5 111.5t99 70.5q32 13 67.5 15.5t70.5 -3.5q11 -2 26 -6.5t21 -12.5q5 -7 1.5 -13t-12.5 -10
q-9 -3 -20 -10q-2 -1 -3 -2l-4 -2q-36 -25 -69 -62q-29 -32 -60.5 -79.5t-55.5 -112.5q23 0 48 -1t50.5 -5.5t49.5 -14t44 -27.5zM277 71q32 15 59.5 43.5t38.5 61t-1 63t-59 48.5q-27 11 -56 12t-58 -1q-10 -27 -15 -56.5t-2.5 -58.5t14 -55.5t35.5 -47.5q22 -19 44 -9z
" />
    <glyph glyph-name="seven" unicode="7" horiz-adv-x="474" 
d="M409 636q7 -2 20.5 -5.5t25.5 -9.5t18.5 -14.5t-1.5 -21.5q-32 -48 -62 -96.5t-57 -99.5q14 -1 29 -2t30 -3q7 0 16 -4.5t4 -12.5q-6 -9 -19 -10t-21 -1q-14 2 -27.5 2.5t-27.5 1.5q-26 -48 -49 -95t-45 -96q-10 -26 -19.5 -53.5t-10.5 -52.5q-2 -10 -7 -13.5t-20 -5.5
q-28 0 -50.5 13.5t-36.5 35t-17.5 49t7.5 54.5q20 46 38.5 84.5t41.5 83.5q-31 -1 -62 -5t-63 -12q-9 -3 -22 -2.5t-20 8.5q-7 5 -0.5 10.5t14.5 8.5q42 12 84.5 16.5t86.5 6.5q26 50 55.5 98.5t61.5 96.5q-38 -5 -76.5 -8t-74.5 -1q-8 1 -21 2.5t-27 4t-26 6t-18 9.5
q-5 4 -5.5 10.5t2 11.5t7 8t9.5 1q44 -21 104.5 -24.5t119.5 4.5q11 2 18.5 3t18.5 3q13 8 35 14t39 2z" />
    <glyph glyph-name="eight" unicode="8" horiz-adv-x="531" 
d="M484 271q18 -22 23.5 -46.5t-8.5 -50.5q-16 -33 -50 -61.5t-75.5 -49.5t-86 -32.5t-81.5 -9.5q-55 5 -109 30t-90 71q-14 31 -5.5 63t29 62t47 55.5t49.5 42.5q-27 18 -39.5 41t-16 46.5t-0.5 45t7 36.5q8 26 33.5 47t54.5 36q33 18 73 32q34 12 69.5 17t71.5 0
q28 -4 54.5 -19.5t43.5 -38.5t20 -51.5t-15 -58.5q-19 -29 -41.5 -55t-47.5 -51q-7 -7 -26 -7q13 -8 26.5 -17.5t26.5 -19.5q17 -13 33 -26.5t30 -30.5zM212 88q16 5 39.5 17t44 28.5t33.5 35t9 37.5q-2 9 -10.5 19t-20.5 20t-26.5 19t-29.5 17q-35 18 -77 36
q-26 -23 -49.5 -49t-42.5 -60q-12 -34 -6.5 -61.5t24 -44.5t48 -21.5t64.5 7.5zM329 389q18 9 36 29.5t32 45.5t21 52t3 49t-21 36t-52 14q-18 0 -39 -4t-41.5 -12t-38.5 -20.5t-30 -30.5q-18 -26 -6 -50.5t37 -45.5t54 -37.5t44 -25.5h1z" />
    <glyph glyph-name="nine" unicode="9" horiz-adv-x="478" 
d="M420 559q24 -44 27 -91.5t-10 -95t-38.5 -93t-59.5 -86t-73 -73.5t-78 -55q-30 -17 -67.5 -19t-70.5 6q-11 2 -26 7.5t-21 14.5q-5 9 -1.5 17.5t11.5 13.5q78 42 142.5 107.5t96.5 153.5q2 5 3 10t3 11q-51 -14 -105 -14q-27 0 -59 3.5t-54 22.5q-19 15 -23 37.5t-1 43.5
q5 31 21 59.5t38.5 52t50.5 41.5t58 28q19 4 39 5t40 -1q53 -7 91 -31.5t66 -74.5zM173 396q25 3 47.5 14t37 28t17.5 40t-12 50q-11 23 -24.5 38.5t-37.5 26.5q-18 -3 -31.5 -15t-24 -29t-17.5 -36.5t-11 -36.5q-1 -12 0.5 -27t8 -28t18 -20.5t29.5 -4.5z" />
    <glyph glyph-name="W" unicode="W" horiz-adv-x="1214" 
d="M1219 605q-5 -82 -25.5 -165t-52.5 -161q-30 -74 -76 -141t-102 -115.5t-119 -72.5t-127 -11q-43 9 -66.5 36.5t-33.5 66.5t-9 86t8.5 94.5t19 92.5t22.5 80.5t18 57.5t6 24q-71 -143 -120.5 -239.5t-89.5 -157.5t-76.5 -90.5t-79.5 -38.5q-29 -2 -60.5 7t-58 29.5
t-43 53.5t-15.5 79q3 40 12 79q16 84 45 169q3 15 15 45l26 65t28 70.5t21.5 62.5t6 41t-17.5 6q-39 -20 -83.5 -55t-81 -81.5t-59 -101.5t-17.5 -115q1 -11 -13.5 -9t-32.5 10.5t-33.5 19.5t-15.5 19q0 33 16 71.5t45 76.5t69.5 73.5t89 64t103 47.5t111.5 24q7 1 13 1h13
q17 1 36 -2.5t34 -11.5q6 -4 16.5 -13t7.5 -21q-7 -27 -16 -53.5t-17 -54.5q-23 -63 -44.5 -126t-39.5 -128q-16 -56 -28 -115t-5 -113q3 -15 9.5 -30.5t22.5 -22.5q59 66 102.5 148.5t87.5 172.5q17 36 35 72.5t35 73.5q10 22 20 43t22 42q5 9 22.5 16t41 10.5t50 4.5
t47.5 -1.5t34 -8t11 -14.5q-16 -63 -34 -125.5l-36 -125t-34 -125t-28 -125.5q-4 -30 0 -52q3 -19 13.5 -32t36.5 -5q75 48 130.5 116.5t94.5 149t61 169.5t30 177v20t-1.5 35t-3.5 31.5t-5 10.5v2q3 4 18.5 6.5t33.5 2.5t34 -2t21 -7q4 -5 4.5 -12t1.5 -13q1 -15 1 -30.5
t-2 -31.5z" />
    <glyph glyph-name="Y" unicode="Y" horiz-adv-x="795" 
d="M853 631q-25 -86 -61 -174.5t-79.5 -168.5t-94 -145.5t-104.5 -105.5q-31 -24 -66 -38t-72.5 -20.5t-75.5 -7.5t-74 2q-29 5 -48.5 15t-32 20.5t-17.5 20.5t-5 15q1 11 11.5 17t17.5 4q4 -1 10.5 -9.5t17.5 -17.5t29 -15.5t44 -4.5q41 5 78.5 34.5t71 74t64 100t57 112
t50 110t43.5 94.5q-26 -29 -66.5 -59.5t-88.5 -57t-99 -46t-98 -26t-85.5 3t-60.5 41.5q-14 18 -13.5 42t10 51t26.5 55.5t35.5 55.5t36 51t29.5 43q-23 4 -54 -10.5t-59.5 -42t-49 -65t-21.5 -78.5q0 -8 -12 -7.5t-26.5 5.5t-27 13t-12.5 17q3 38 23 70t50.5 56t68 42
t76 28t74.5 13.5t63 0.5v-1h1q18 0 36.5 -5.5t33 -14t23 -18.5t5.5 -19q-36 -57 -68.5 -113.5t-54.5 -122.5q-10 -28 -6 -40t17 -13t32.5 8t42.5 23q68 42 128 92t111 115q9 12 16 25.5t13 25t13 19.5t18 9q7 1 23 1.5t35.5 -1t40 -6t35.5 -13.5t22 -23t0 -35v-1z" />
    <glyph glyph-name="Z" unicode="Z" horiz-adv-x="774" 
d="M693 417q26 -50 22 -99.5t-29.5 -96t-68.5 -88t-94 -75.5t-105.5 -59.5t-103.5 -39.5q-44 -13 -91 -10.5t-88.5 15t-74.5 33.5t-49 45q-6 14 -8.5 26t-3.5 21q-1 11 -1 19q-2 18 6.5 35t23 33t33 30.5t36.5 27.5q82 54 175.5 87t189.5 44q9 1 24 1.5t23 -3.5
q7 -5 -2 -7.5t-15 -3.5q-45 -6 -90 -17.5t-90 -28.5q-40 -16 -77.5 -35.5t-72.5 -42.5q-17 -12 -34 -25t-30.5 -27t-22 -29.5t-9.5 -32.5q4 -25 31.5 -34.5t69 -5.5t90.5 19.5t97.5 39.5t90 55t66.5 67q25 35 34 66t0.5 55t-35 39.5t-72.5 19.5q-11 1 -24 7.5t-21.5 15.5
t-9 18.5t14.5 17.5l45 22.5t56.5 30t57 35.5t47.5 39q25 37 20 58.5t-28.5 30.5t-59 7.5t-73 -11t-71 -26t-51.5 -35.5q-19 -21 -25 -37t-6.5 -27.5t1.5 -19.5t-1 -13q-4 -8 -12.5 -10t-15.5 -2q-29 -2 -60 -3.5t-57 4.5q-27 6 -29.5 30t14.5 47q12 23 47 44.5t83 39
t104.5 29t112 16t105 0t83.5 -20.5q36 -17 47.5 -36t6.5 -39.5t-22.5 -41t-39 -39t-44 -34t-36.5 -25.5q-7 -5 -15 -9t-16 -9q48 0 77.5 -16.5t49.5 -55.5z" />
    <glyph glyph-name="Acircumflex" unicode="&#xc2;" 
d="M896 361q-11 -35 -19 -68.5t-10 -68.5q-2 -33 -2.5 -66t8.5 -64q6 -14 10.5 -21.5t10 -13t12 -10.5t16.5 -14q8 -5 11.5 -13.5t-1.5 -17.5q-7 -11 -21 -15.5t-25 -7.5q-41 -12 -79 -4t-69 33.5t-51 68.5t-25 103q-17 29 -35.5 55t-40.5 50q-18 -27 -38.5 -57t-43 -61
t-46.5 -59.5t-48 -52.5q-23 -23 -64.5 -40.5t-91 -23t-101.5 6.5t-96 48q-22 17 -38 43.5t-21 55.5q-6 38 4.5 75t33 69.5t54 57t67.5 37.5q71 25 134.5 28.5t114 -4t85 -20.5t46.5 -19q9 -5 18 -10.5t17 -11.5q28 48 60 98t68.5 97.5t79 89.5t92.5 74l1 1q7 11 21 16t25 8
q20 5 39.5 6t38.5 -1q7 -1 22.5 -4t29 -9.5t21 -15.5t-0.5 -22q-50 -78 -96.5 -158t-76.5 -168zM520 269q9 13 16.5 25.5t16.5 24.5q-8 7 -16 13t-17 11t-32 12.5t-52.5 12t-61 3t-56.5 -13.5q-32 -15 -57 -41t-40.5 -58.5t-19 -68.5t8.5 -72q5 -15 13 -28q7 -11 18.5 -21.5
t28.5 -15.5q26 -7 51 1t48.5 25.5t45 42.5t40.5 51.5t35.5 52t29.5 44.5zM667 269q14 88 53.5 172t90.5 169q-12 -13 -22 -25.5t-21 -24.5q-45 -57 -83.5 -118t-77.5 -122q35 -30 58 -65q0 4 2 14zM1028 962q12 -12 20 -20.5t16 -16t16 -16.5t20 -22q3 -3 0.5 -8.5
t-7.5 -9.5t-12.5 -4.5t-14.5 7.5q-18 19 -32.5 32.5t-33.5 32.5q-14 -14 -27.5 -28.5t-25.5 -31.5q-6 -9 -21 -12.5t-29 -3t-22.5 6t-1.5 15.5q20 25 41 47.5t44 44.5q9 8 23 9t25 -1q1 0 7 -1t11.5 -3t9 -4.5t0.5 -6.5l-6 -6v0z" />
    <glyph glyph-name="acircumflex" unicode="&#xe2;" horiz-adv-x="747" 
d="M755 314q3 5 11 5.5t14.5 -3.5t8.5 -12t-6 -20q-24 -37 -55.5 -74t-69.5 -67t-81 -50t-89 -23q-44 -3 -83.5 5t-66 28t-35 54t9.5 84q-17 -29 -49.5 -60t-73 -53t-83.5 -29t-80 12q-19 8 -33.5 21.5t-22.5 33.5q-13 32 -7.5 63.5t22.5 60.5q17 33 42.5 62t57 51.5t68 38
t74.5 20.5q13 2 39 2.5t53 -4.5t49 -18t27 -38q3 -15 -4 -14t-20 6.5t-31 9t-37 -5.5q-17 -10 -43 -35t-48.5 -56t-36.5 -63.5t-7 -56.5q4 -12 13 -13t20.5 5.5t24.5 19t25 27.5q24 31 49 63t57 57l9 3q7 11 19.5 15.5t23.5 8.5q20 6 39.5 6.5t39.5 -1.5q9 -1 24 -5
t28 -11.5t19.5 -18t-0.5 -25.5q-9 -15 -22.5 -42t-22.5 -56.5t-8.5 -56.5t20.5 -41q12 -9 32.5 -1.5t43.5 25.5t47.5 42.5t46 48.5t37 44.5t21.5 30.5zM421 762q12 -12 20 -20.5t16 -16t16 -16.5t20 -22q3 -3 0.5 -8.5t-7.5 -9.5t-12.5 -4.5t-14.5 7.5q-18 19 -32.5 32.5
t-33.5 32.5q-14 -14 -27.5 -28.5t-25.5 -31.5q-6 -9 -21 -12.5t-29 -3t-22.5 6t-1.5 15.5q20 25 41 47.5t44 44.5q9 8 23 9t25 -1q1 0 7 -1t11.5 -3t9 -4.5t0.5 -6.5l-6 -6v0z" />
    <glyph glyph-name="Atilde" unicode="&#xc3;" 
d="M896 361q-11 -35 -19 -68.5t-10 -68.5q-2 -33 -2.5 -66t8.5 -64q6 -14 10.5 -21.5t10 -13t12 -10.5t16.5 -14q8 -5 11.5 -13.5t-1.5 -17.5q-7 -11 -21 -15.5t-25 -7.5q-41 -12 -79 -4t-69 33.5t-51 68.5t-25 103q-17 29 -35.5 55t-40.5 50q-18 -27 -38.5 -57t-43 -61
t-46.5 -59.5t-48 -52.5q-23 -23 -64.5 -40.5t-91 -23t-101.5 6.5t-96 48q-22 17 -38 43.5t-21 55.5q-6 38 4.5 75t33 69.5t54 57t67.5 37.5q71 25 134.5 28.5t114 -4t85 -20.5t46.5 -19q9 -5 18 -10.5t17 -11.5q28 48 60 98t68.5 97.5t79 89.5t92.5 74l1 1q7 11 21 16t25 8
q20 5 39.5 6t38.5 -1q7 -1 22.5 -4t29 -9.5t21 -15.5t-0.5 -22q-50 -78 -96.5 -158t-76.5 -168zM520 269q9 13 16.5 25.5t16.5 24.5q-8 7 -16 13t-17 11t-32 12.5t-52.5 12t-61 3t-56.5 -13.5q-32 -15 -57 -41t-40.5 -58.5t-19 -68.5t8.5 -72q5 -15 13 -28q7 -11 18.5 -21.5
t28.5 -15.5q26 -7 51 1t48.5 25.5t45 42.5t40.5 51.5t35.5 52t29.5 44.5zM667 269q14 88 53.5 172t90.5 169q-12 -13 -22 -25.5t-21 -24.5q-45 -57 -83.5 -118t-77.5 -122q35 -30 58 -65q0 4 2 14zM1122 951q0 9 7.5 13.5t16 4.5t16 -4t7.5 -12q-1 -23 -11 -43t-28 -31
q-23 -14 -45.5 -18.5t-48.5 5.5q-16 6 -26 15t-18 19t-15.5 20t-18.5 18q-5 2 -8.5 -1.5t-7 -9.5t-6.5 -13t-6 -11q-8 -11 -21.5 -15.5t-24.5 -2.5t-15 11t7 24q13 18 30.5 33t38 21t42 1.5t41.5 -24.5q11 -11 20 -24.5t22 -27.5q7 -6 16.5 -1.5t17 14t13 20.5t5.5 19z" />
    <glyph glyph-name="atilde" unicode="&#xe3;" horiz-adv-x="747" 
d="M755 314q3 5 11 5.5t14.5 -3.5t8.5 -12t-6 -20q-24 -37 -55.5 -74t-69.5 -67t-81 -50t-89 -23q-44 -3 -83.5 5t-66 28t-35 54t9.5 84q-17 -29 -49.5 -60t-73 -53t-83.5 -29t-80 12q-19 8 -33.5 21.5t-22.5 33.5q-13 32 -7.5 63.5t22.5 60.5q17 33 42.5 62t57 51.5t68 38
t74.5 20.5q13 2 39 2.5t53 -4.5t49 -18t27 -38q3 -15 -4 -14t-20 6.5t-31 9t-37 -5.5q-17 -10 -43 -35t-48.5 -56t-36.5 -63.5t-7 -56.5q4 -12 13 -13t20.5 5.5t24.5 19t25 27.5q24 31 49 63t57 57l9 3q7 11 19.5 15.5t23.5 8.5q20 6 39.5 6.5t39.5 -1.5q9 -1 24 -5
t28 -11.5t19.5 -18t-0.5 -25.5q-9 -15 -22.5 -42t-22.5 -56.5t-8.5 -56.5t20.5 -41q12 -9 32.5 -1.5t43.5 25.5t47.5 42.5t46 48.5t37 44.5t21.5 30.5zM488 751q0 9 7.5 13.5t16 4.5t16 -4t7.5 -12q-1 -23 -11 -43t-28 -31q-23 -14 -45.5 -18.5t-48.5 5.5q-16 6 -26 15
t-18 19t-15.5 20t-18.5 18q-5 2 -8.5 -1.5t-7 -9.5t-6.5 -13t-6 -11q-8 -11 -21.5 -15.5t-24.5 -2.5t-15 11t7 24q13 18 30.5 33t38 21t42 1.5t41.5 -24.5q11 -11 20 -24.5t22 -27.5q7 -6 16.5 -1.5t17 14t13 20.5t5.5 19z" />
    <glyph glyph-name="Ecircumflex" unicode="&#xca;" horiz-adv-x="749" 
d="M794 729q-10 -14 -17.5 -34.5t-13 -43t-8 -45.5t-2.5 -44q0 -7 -15 -11t-34 -4t-34.5 3.5t-15.5 11.5q-1 68 23 131q-64 0 -121.5 -26t-105.5 -71q-18 -19 -34.5 -42.5t-25 -48.5t-5.5 -50.5t24 -47.5q17 -12 42 -16.5t50 -6t46.5 -1.5t32.5 -1q6 -1 9 -4.5t3 -5.5
q0 -14 -14.5 -28.5t-32.5 -25t-35 -16t-23 -2.5q-10 5 -26 7.5t-32 3.5t-29.5 1h-18.5h-8h-1q-56 0 -98 -26t-66 -64t-27 -81t17 -78t66 -54.5t122 -9.5q66 8 139 44t135 92q15 15 28.5 19.5t17.5 -1.5t-4 -22.5t-36 -43.5q-47 -42 -108 -72.5t-130 -45.5t-143 -12t-147 28
q-35 12 -62.5 36t-46 55t-26 67t-1.5 72q5 32 28 65t57.5 58t75.5 38.5t82 7.5q-8 5 -14.5 7.5t-13.5 8.5q-23 21 -27 46.5t4 52t26.5 53t41 49.5t46 41.5t43.5 29.5q39 24 85 37.5t92.5 19t88.5 3.5t73 -9q1 4 3 6.5t4 5.5q3 9 19.5 10.5t34.5 -0.5t31.5 -7t11.5 -9z
M598 962q12 -12 20 -20.5t16 -16t16 -16.5t20 -22q3 -3 0.5 -8.5t-7.5 -9.5t-12.5 -4.5t-14.5 7.5q-18 19 -32.5 32.5t-33.5 32.5q-14 -14 -27.5 -28.5t-25.5 -31.5q-6 -9 -21 -12.5t-29 -3t-22.5 6t-1.5 15.5q20 25 41 47.5t44 44.5q9 8 23 9t25 -1q1 0 7 -1t11.5 -3
t9 -4.5t0.5 -6.5l-6 -6v0z" />
    <glyph glyph-name="ecircumflex" unicode="&#xea;" horiz-adv-x="541" 
d="M572 305q5 -2 5 -13t-13 -22l-78 -62t-81 -57.5t-87.5 -46.5t-96.5 -28q-32 -5 -68.5 -4.5t-70 7.5t-61 21t-40.5 38q-10 17 -12 41t1 48.5t9.5 48t15.5 39.5q18 34 47 60.5t63.5 45t73 28t77.5 11.5q10 0 28 0.5t35.5 -3t30.5 -11.5t13 -24q0 -34 -21 -62.5t-51 -51.5
t-64.5 -40.5t-61.5 -29.5q-10 -34 -7 -60.5t17.5 -43.5t40.5 -22t61 5q37 12 74.5 34t72 48t65 52.5t55.5 46.5q7 5 13.5 7.5t14.5 -0.5zM304 426q-12 -7 -28 -22t-33 -34.5t-33 -43.5t-29 -49q21 10 45.5 26.5t44.5 36.5t30 42t3 44zM318 762q12 -12 20 -20.5t16 -16
t16 -16.5t20 -22q3 -3 0.5 -8.5t-7.5 -9.5t-12.5 -4.5t-14.5 7.5q-18 19 -32.5 32.5t-33.5 32.5q-14 -14 -27.5 -28.5t-25.5 -31.5q-6 -9 -21 -12.5t-29 -3t-22.5 6t-1.5 15.5q20 25 41 47.5t44 44.5q9 8 23 9t25 -1q1 0 7 -1t11.5 -3t9 -4.5t0.5 -6.5l-6 -6v0z" />
    <glyph glyph-name="Icircumflex" unicode="&#xce;" horiz-adv-x="479" 
d="M570 700q11 -15 5.5 -43t-23 -65.5t-43 -82t-54 -92.5t-57 -97t-51.5 -96q-10 -21 -22 -46.5t-21 -53t-11.5 -55t5.5 -52.5q3 -7 7 -9q3 -3 4 -3q1 -1 1 -2q8 -3 12 -9t-1 -13q-9 -11 -34 -16.5t-54 -5.5t-56.5 4t-41.5 12q-29 13 -38.5 39t-5.5 56q9 67 43.5 140.5
t79 148.5t90.5 148.5t78 139.5q1 3 5.5 13t5 20t-6.5 16t-28 -1q-18 -8 -47 -26.5t-60 -44t-59.5 -57t-46.5 -66t-20 -70.5t21 -70q1 -2 -9 -4t-22 -3.5t-23 -2.5l-11 -1q-8 -1 -16 -1t-16 4q-25 15 -35.5 42t-6.5 55q5 32 23.5 58.5t41.5 47.5q54 51 118 89.5t133 64.5
q22 9 49 14.5t54.5 7t53 0t44.5 -6.5q12 -3 25.5 -8.5t20.5 -16.5zM521 962q12 -12 20 -20.5t16 -16t16 -16.5t20 -22q3 -3 0.5 -8.5t-7.5 -9.5t-12.5 -4.5t-14.5 7.5q-18 19 -32.5 32.5t-33.5 32.5q-14 -14 -27.5 -28.5t-25.5 -31.5q-6 -9 -21 -12.5t-29 -3t-22.5 6
t-1.5 15.5q20 25 41 47.5t44 44.5q9 8 23 9t25 -1q1 0 7 -1t11.5 -3t9 -4.5t0.5 -6.5l-6 -6v0z" />
    <glyph glyph-name="icircumflex" unicode="&#xee;" horiz-adv-x="452" 
d="M-24 217q3 25 9.5 57.5t16.5 65t23 61t29 45.5q5 6 13.5 7.5t16.5 3.5h14t34 -0.5t43 -1t42 -1.5t30.5 -3t9.5 -5q-14 -20 -28.5 -44.5t-27 -51t-22 -53.5t-15.5 -50q-5 -18 -10 -43t-3.5 -46.5t12.5 -35t40 -8.5q20 3 45 19t51.5 38t52.5 46.5t49 45.5t40 36t26 17
q7 5 16.5 5t16 -3.5t7 -10t-10.5 -14.5q-26 -20 -49 -38t-44 -38q-27 -24 -55 -49t-58 -46.5t-64.5 -37t-74.5 -20.5q-30 -3 -63 -0.5t-60 18.5t-42.5 48t-9.5 87zM273 762q12 -12 20 -20.5t16 -16t16 -16.5t20 -22q3 -3 0.5 -8.5t-7.5 -9.5t-12.5 -4.5t-14.5 7.5
q-18 19 -32.5 32.5t-33.5 32.5q-14 -14 -27.5 -28.5t-25.5 -31.5q-6 -9 -21 -12.5t-29 -3t-22.5 6t-1.5 15.5q20 25 41 47.5t44 44.5q9 8 23 9t25 -1q1 0 7 -1t11.5 -3t9 -4.5t0.5 -6.5z" />
    <glyph glyph-name="Ntilde" unicode="&#xd1;" horiz-adv-x="980" 
d="M990 562q-45 -75 -79 -158.5t-51 -171.5q0 -4 -3.5 -25t-6.5 -50t-3.5 -60.5t6 -56t22 -37t43.5 -2.5q8 2 10 -1.5t0 -9.5q-5 -7 -35 -23t-83 -26q-52 -10 -86 3.5t-53.5 42.5t-26.5 70t-4 88t13 96t23.5 93.5t29.5 81t31 57.5q-16 -18 -43.5 -48.5t-62 -68.5t-72.5 -81
t-75 -85q-88 -99 -188 -213q-9 -11 -33.5 -16t-53.5 -5t-56 4t-40 10q-29 14 -38 40.5t-6 56.5q13 81 46 154.5t75 144t86.5 140t80.5 142.5q1 2 6 12.5t5.5 20.5t-6.5 15.5t-28 -1.5q-18 -8 -47 -26.5t-60 -44t-59.5 -57t-46 -66t-19.5 -70.5t21 -71q1 -2 -8.5 -4.5
t-21.5 -4t-23 -2.5l-11 -1q-8 0 -16.5 -0.5t-15.5 4.5q-24 15 -35 42t-6 55q4 32 23 59t42 48q54 51 117 90t132 67q5 3 10 4.5t8 1.5q19 5 55 10t74 5t71 -7.5t46 -28.5q8 -12 5 -24.5t-8 -24.5q-18 -42 -48.5 -93.5t-65 -107.5t-68.5 -114t-60 -113t-40 -104.5t-7 -89.5
q141 152 254 273q48 51 94.5 101t83.5 89.5t61 64.5t27 27l2 4t3 4q9 14 24 22t32.5 11.5t35.5 3t32 -1.5q14 -2 31 -7t28 -16q8 -7 12.5 -18t-2.5 -22zM902 951q0 9 7.5 13.5t16 4.5t16 -4t7.5 -12q-1 -23 -11 -43t-28 -31q-23 -14 -45.5 -18.5t-48.5 5.5q-16 6 -26 15
t-18 19t-15.5 20t-18.5 18q-5 2 -8.5 -1.5t-7 -9.5t-6.5 -13t-6 -11q-8 -11 -21.5 -15.5t-24.5 -2.5t-15 11t7 24q13 18 30.5 33t38 21t42 1.5t41.5 -24.5q11 -11 20 -24.5t22 -27.5q7 -6 16.5 -1.5t17 14t13 20.5t5.5 19z" />
    <glyph glyph-name="ntilde" unicode="&#xf1;" horiz-adv-x="860" 
d="M852 239q-80 -68 -136.5 -103.5t-108.5 -36.5q-2 -1 -22 -1t-47 7t-54 23.5t-42.5 48t-14 81.5t33.5 123q-25 -15 -47.5 -31t-44.5 -33q-64 -50 -123.5 -102t-119.5 -106q0 -3 -5 -3q-1 -3 -3 -5q-5 -11 -21.5 -17.5t-36 -9t-39 -2.5t-29.5 1q-9 1 -23 4t-27 8.5
t-19.5 14t-0.5 21.5q38 85 73.5 169.5t77.5 167.5q6 11 21 15.5t26 7.5q19 5 39 5.5t40 -1.5q8 -1 22.5 -3.5t27 -8t20 -14t1.5 -21.5q-32 -64 -59.5 -128t-56.5 -130q9 8 18.5 17t20.5 17q49 44 99.5 85t107.5 77q39 27 85 47q2 5 5.5 9.5t5.5 8.5q5 10 21 14t26 6
q20 4 39.5 4.5t38.5 -1.5q7 0 21.5 -2t27.5 -6.5t21 -11.5t1 -18q-17 -29 -33 -58t-30 -60q-10 -23 -20.5 -53t-15.5 -57.5t-1.5 -48t22.5 -26.5q40 7 73.5 26.5t63.5 45.5t58.5 55.5t58.5 57.5q6 6 14 5.5t14 -4t8.5 -9.5t-3.5 -11l-49 -50v0zM544 751q0 9 7.5 13.5t16 4.5
t16 -4t7.5 -12q-1 -23 -11 -43t-28 -31q-23 -14 -45.5 -18.5t-48.5 5.5q-16 6 -26 15t-18 19t-15.5 20t-18.5 18q-5 2 -8.5 -1.5t-7 -9.5t-6.5 -13t-6 -11q-8 -11 -21.5 -15.5t-24.5 -2.5t-15 11t7 24q13 18 30.5 33t38 21t42 1.5t41.5 -24.5q11 -11 20 -24.5t22 -27.5
q7 -6 16.5 -1.5t17 14t13 20.5t5.5 19z" />
    <glyph glyph-name="Ocircumflex" unicode="&#xd4;" horiz-adv-x="718" 
d="M586 686q37 -19 58.5 -53t30.5 -76t7.5 -89.5t-10.5 -93.5t-22.5 -88.5t-28.5 -73.5q-33 -71 -86.5 -130t-120.5 -96t-144.5 -45.5t-159.5 21.5q-39 18 -62 49t-31 70t-4 82.5t19 87.5q-7 8 -12.5 17.5t-8.5 19.5q-15 38 -13.5 79t15.5 81t38 77.5t56 69.5
q41 40 83.5 65.5t84 39.5t80.5 18t74 3q81 -4 157 -35zM340 -15q61 28 110 80t83 117t53 137.5t20 140.5q1 35 -5 78t-23.5 78.5t-49 54t-81.5 5.5q-40 -14 -78 -39t-70 -58.5t-56.5 -73.5t-36.5 -83q7 0 14 -0.5t13 -1.5q14 -2 30.5 -8t25.5 -16q7 -8 9 -20t-6 -23
q-17 -19 -30 -41.5t-28 -54.5q11 -8 27 -12q14 -4 34.5 -6t49.5 3q28 4 53 15t44 24q22 14 41 32q3 1 7 1q7 0 8 -4q4 -2 3.5 -14.5t-18.5 -25.5q-57 -42 -127 -61t-141 -7q-7 -21 -10 -58.5t2.5 -74t22.5 -65t50 -31.5q11 -2 25 0t31 10zM406 962q12 -12 20 -20.5t16 -16
t16 -16.5t20 -22q3 -3 0.5 -8.5t-7.5 -9.5t-12.5 -4.5t-14.5 7.5q-18 19 -32.5 32.5t-33.5 32.5q-14 -14 -27.5 -28.5t-25.5 -31.5q-6 -9 -21 -12.5t-29 -3t-22.5 6t-1.5 15.5q20 25 41 47.5t44 44.5q9 8 23 9t25 -1q1 0 7 -1t11.5 -3t9 -4.5t0.5 -6.5l-6 -6v0z" />
    <glyph glyph-name="Otilde" unicode="&#xd5;" horiz-adv-x="718" 
d="M586 686q37 -19 58.5 -53t30.5 -76t7.5 -89.5t-10.5 -93.5t-22.5 -88.5t-28.5 -73.5q-33 -71 -86.5 -130t-120.5 -96t-144.5 -45.5t-159.5 21.5q-39 18 -62 49t-31 70t-4 82.5t19 87.5q-7 8 -12.5 17.5t-8.5 19.5q-15 38 -13.5 79t15.5 81t38 77.5t56 69.5
q41 40 83.5 65.5t84 39.5t80.5 18t74 3q81 -4 157 -35zM340 -15q61 28 110 80t83 117t53 137.5t20 140.5q1 35 -5 78t-23.5 78.5t-49 54t-81.5 5.5q-40 -14 -78 -39t-70 -58.5t-56.5 -73.5t-36.5 -83q7 0 14 -0.5t13 -1.5q14 -2 30.5 -8t25.5 -16q7 -8 9 -20t-6 -23
q-17 -19 -30 -41.5t-28 -54.5q11 -8 27 -12q14 -4 34.5 -6t49.5 3q28 4 53 15t44 24q22 14 41 32q3 1 7 1q7 0 8 -4q4 -2 3.5 -14.5t-18.5 -25.5q-57 -42 -127 -61t-141 -7q-7 -21 -10 -58.5t2.5 -74t22.5 -65t50 -31.5q11 -2 25 0t31 10zM473 951q0 9 7.5 13.5t16 4.5
t16 -4t7.5 -12q-1 -23 -11 -43t-28 -31q-23 -14 -45.5 -18.5t-48.5 5.5q-16 6 -26 15t-18 19t-15.5 20t-18.5 18q-5 2 -8.5 -1.5t-7 -9.5t-6.5 -13t-6 -11q-8 -11 -21.5 -15.5t-24.5 -2.5t-15 11t7 24q13 18 30.5 33t38 21t42 1.5t41.5 -24.5q11 -11 20 -24.5t22 -27.5
q7 -6 16.5 -1.5t17 14t13 20.5t5.5 19z" />
    <glyph glyph-name="otilde" unicode="&#xf5;" horiz-adv-x="539" 
d="M572 370q16 5 25 2t12 -9t-0.5 -12.5t-12.5 -9.5q-49 -17 -93 -28t-95 -18v-1q-2 -34 -12.5 -61.5t-27.5 -56.5q-27 -46 -64.5 -69.5t-74 -32t-68.5 -7t-49 4.5q-46 8 -81 31.5t-49 70.5q-11 34 -4.5 70.5t22.5 68.5q3 6 6 11t7 11q-2 0 -2 2q-12 27 -5.5 52t24 46
t41.5 36.5t48 22.5q35 10 72.5 10.5t72.5 -10.5q6 -2 17.5 -8.5t11.5 -15.5q0 -2 -1 -4q23 -6 43 -16.5t36 -26.5q18 -19 26.5 -43t10.5 -50q42 6 83 16t81 24zM355 350q-5 38 -28 63t-54 36q-2 -1 -4.5 -2t-4.5 -1l-9 -3h-1q-2 -2 -4 -3q-4 -2 -7 -4l-2 -2q-3 -3 -4 -3
q-2 -2 -4 -4.5t-4 -5.5h3q7 -2 19 -5.5t20.5 -9.5t9.5 -13t-13 -16q-10 -6 -14.5 -9t-12.5 -11q-5 -6 -11 -12t-11 -13q23 -5 47.5 -7t48.5 -2q11 1 21.5 1.5t20.5 0.5v12t-2 13zM336 213q9 21 13.5 38.5t6.5 40.5q-14 -1 -29.5 -1h-29.5q-48 -2 -98 9q-18 -23 -27.5 -49.5
t-11 -50.5t6 -43t23.5 -28.5t40.5 -6t58.5 24.5q16 13 27.5 29.5t19.5 36.5zM384 751q0 9 7.5 13.5t16 4.5t16 -4t7.5 -12q-1 -23 -11 -43t-28 -31q-23 -14 -45.5 -18.5t-48.5 5.5q-16 6 -26 15t-18 19t-15.5 20t-18.5 18q-5 2 -8.5 -1.5t-7 -9.5t-6.5 -13t-6 -11
q-8 -11 -21.5 -15.5t-24.5 -2.5t-15 11t7 24q13 18 30.5 33t38 21t42 1.5t41.5 -24.5q11 -11 20 -24.5t22 -27.5q7 -6 16.5 -1.5t17 14t13 20.5t5.5 19z" />
    <glyph glyph-name="ocircumflex" unicode="&#xf4;" horiz-adv-x="539" 
d="M572 370q16 5 25 2t12 -9t-0.5 -12.5t-12.5 -9.5q-49 -17 -93 -28t-95 -18v-1q-2 -34 -12.5 -61.5t-27.5 -56.5q-27 -46 -64.5 -69.5t-74 -32t-68.5 -7t-49 4.5q-46 8 -81 31.5t-49 70.5q-11 34 -4.5 70.5t22.5 68.5q3 6 6 11t7 11q-2 0 -2 2q-12 27 -5.5 52t24 46
t41.5 36.5t48 22.5q35 10 72.5 10.5t72.5 -10.5q6 -2 17.5 -8.5t11.5 -15.5q0 -2 -1 -4q23 -6 43 -16.5t36 -26.5q18 -19 26.5 -43t10.5 -50q42 6 83 16t81 24zM355 350q-5 38 -28 63t-54 36q-2 -1 -4.5 -2t-4.5 -1l-9 -3h-1q-2 -2 -4 -3q-4 -2 -7 -4l-2 -2q-3 -3 -4 -3
q-2 -2 -4 -4.5t-4 -5.5h3q7 -2 19 -5.5t20.5 -9.5t9.5 -13t-13 -16q-10 -6 -14.5 -9t-12.5 -11q-5 -6 -11 -12t-11 -13q23 -5 47.5 -7t48.5 -2q11 1 21.5 1.5t20.5 0.5v12t-2 13zM336 213q9 21 13.5 38.5t6.5 40.5q-14 -1 -29.5 -1h-29.5q-48 -2 -98 9q-18 -23 -27.5 -49.5
t-11 -50.5t6 -43t23.5 -28.5t40.5 -6t58.5 24.5q16 13 27.5 29.5t19.5 36.5zM317 762q12 -12 20 -20.5t16 -16t16 -16.5t20 -22q3 -3 0.5 -8.5t-7.5 -9.5t-12.5 -4.5t-14.5 7.5q-18 19 -32.5 32.5t-33.5 32.5q-14 -14 -27.5 -28.5t-25.5 -31.5q-6 -9 -21 -12.5t-29 -3
t-22.5 6t-1.5 15.5q20 25 41 47.5t44 44.5q9 8 23 9t25 -1q1 0 7 -1t11.5 -3t9 -4.5t0.5 -6.5l-6 -6v0z" />
    <glyph glyph-name="ucircumflex" unicode="&#xfb;" horiz-adv-x="1009" 
d="M981 266q14 17 26.5 32.5t23.5 27.5q3 4 9 2.5t11.5 -6.5t8 -11.5t-1.5 -10.5q-15 -18 -26 -31.5t-24 -27.5h1q-37 -39 -84.5 -83t-99.5 -81.5t-106 -61.5t-103 -22q-11 0 -30.5 4t-41.5 14.5t-43 29.5t-35 51t-17.5 78.5t9.5 111.5l4 16q-8 -10 -35 -35.5t-66 -51.5
t-87.5 -45t-99.5 -17q-34 2 -71.5 10.5t-63.5 33.5q-42 42 -44 101q-2 20 2.5 42t13 43t20 40.5t24.5 36.5q6 8 21.5 9.5t25.5 3.5q20 3 39 3.5t39 -0.5q3 0 17 -1.5t28.5 -4.5t23.5 -8.5t3 -13.5t-11 -17q-17 -27 -27.5 -56.5t-17.5 -58.5q-3 -14 -1.5 -31t8.5 -32t19 -26
t30 -12q24 -2 52 12t54.5 35t48.5 43.5t34 38.5q13 17 25.5 35t23.5 36q5 8 9.5 16t8.5 16q2 7 5 10v1q0 2 3 4q14 20 42 25.5t51 6.5q18 1 37.5 -2.5t34.5 -11.5q8 -4 20 -14t10 -22q-8 -38 -22 -75.5t-25 -75.5q-4 -13 -9.5 -38t-9.5 -53.5t-4 -57.5t8.5 -49.5t27 -29.5
t52.5 2q55 18 112 65.5t110 104.5l1 1l29 33v-1zM465 762q12 -12 20 -20.5t16 -16t16 -16.5t20 -22q3 -3 0.5 -8.5t-7.5 -9.5t-12.5 -4.5t-14.5 7.5q-18 19 -32.5 32.5t-33.5 32.5q-14 -14 -27.5 -28.5t-25.5 -31.5q-6 -9 -21 -12.5t-29 -3t-22.5 6t-1.5 15.5q20 25 41 47.5
t44 44.5q9 8 23 9t25 -1q1 0 7 -1t11.5 -3t9 -4.5t0.5 -6.5l-6 -6v0z" />
    <glyph glyph-name="Ucircumflex" unicode="&#xdb;" horiz-adv-x="962" 
d="M988 739q13 -2 26 -7t21.5 -14.5t10 -22.5t-8.5 -29q-88 -143 -150.5 -297t-93.5 -322q0 -2 -1 -10.5t-1.5 -19.5t0.5 -21.5t4 -16.5q4 -6 10 -8.5t11.5 -4t8.5 -2.5t3 -3t-7.5 -7.5t-17.5 -11t-20 -9.5t-14 -4h-1q-10 -3 -26.5 -5.5t-35 -2t-38.5 6t-36 18.5
q-29 23 -36 57t-2 73t18 80.5t24 79.5q-5 -6 -17.5 -24.5t-32 -42.5t-44.5 -51t-54.5 -51t-63 -41.5t-69.5 -22.5q-74 -12 -132 3t-92 53.5t-39.5 97.5t26.5 136q17 41 41 88t51 95t54 94.5t51 85.5q-17 2 -39.5 -9t-46.5 -32t-48.5 -49t-46.5 -59.5t-39 -64t-27 -61.5
q-3 -10 -15 -8.5t-24.5 11.5t-20.5 26t-2 34q16 51 47 91t69.5 70t80.5 50.5t80.5 32.5t70 15.5t49.5 0.5q11 -2 31.5 -6t38.5 -11t28 -18t1 -26q-74 -117 -131 -239q-13 -28 -30 -62t-32 -69t-26 -69t-13 -63t8 -51.5t36 -33.5q25 -7 51 -3.5t50.5 14.5t46.5 28.5t40 38.5
q74 85 122 157t84 138t68.5 131t75.5 137q8 15 25 23.5t32 13.5q20 7 40.5 7.5t38.5 -2.5zM727 962q12 -12 20 -20.5t16 -16t16 -16.5t20 -22q3 -3 0.5 -8.5t-7.5 -9.5t-12.5 -4.5t-14.5 7.5q-18 19 -32.5 32.5t-33.5 32.5q-14 -14 -27.5 -28.5t-25.5 -31.5q-6 -9 -21 -12.5
t-29 -3t-22.5 6t-1.5 15.5q20 25 41 47.5t44 44.5q9 8 23 9t25 -1q1 0 7 -1t11.5 -3t9 -4.5t0.5 -6.5l-6 -6v0z" />
    <glyph glyph-name="period" unicode="." horiz-adv-x="307" 
d="M214 107q1 -10 -4 -18t-10 -12q-10 -10 -27.5 -13.5t-35 -0.5t-30.5 14t-13 30q0 10 4 18.5t9 13.5q10 10 27.5 13.5t35 0t30 -15t14.5 -30.5z" />
    <glyph glyph-name="dieresis" unicode="&#xa8;" horiz-adv-x="348" 
d="M149 705q1 -7 -2.5 -13t-8.5 -9q-7 -8 -20.5 -10.5t-26.5 0t-23 10.5t-10 22q0 8 3 14.5t7 10.5q8 7 21 10t26 0t23 -11.5t11 -23.5zM283 705q1 -7 -2.5 -13t-8.5 -9q-7 -8 -20.5 -10.5t-26.5 0t-23 10.5t-10 22q0 8 3 14.5t7 10.5q8 7 21 10t26 0t23 -11.5t11 -23.5z
" />
    <glyph glyph-name="Adieresis" unicode="&#xc4;" 
d="M896 361q-11 -35 -19 -68.5t-10 -68.5q-2 -33 -2.5 -66t8.5 -64q6 -14 10.5 -21.5t10 -13t12 -10.5t16.5 -14q8 -5 11.5 -13.5t-1.5 -17.5q-7 -11 -21 -15.5t-25 -7.5q-41 -12 -79 -4t-69 33.5t-51 68.5t-25 103q-17 29 -35.5 55t-40.5 50q-18 -27 -38.5 -57t-43 -61
t-46.5 -59.5t-48 -52.5q-23 -23 -64.5 -40.5t-91 -23t-101.5 6.5t-96 48q-22 17 -38 43.5t-21 55.5q-6 38 4.5 75t33 69.5t54 57t67.5 37.5q71 25 134.5 28.5t114 -4t85 -20.5t46.5 -19q9 -5 18 -10.5t17 -11.5q28 48 60 98t68.5 97.5t79 89.5t92.5 74l1 1q7 11 21 16t25 8
q20 5 39.5 6t38.5 -1q7 -1 22.5 -4t29 -9.5t21 -15.5t-0.5 -22q-50 -78 -96.5 -158t-76.5 -168zM520 269q9 13 16.5 25.5t16.5 24.5q-8 7 -16 13t-17 11t-32 12.5t-52.5 12t-61 3t-56.5 -13.5q-32 -15 -57 -41t-40.5 -58.5t-19 -68.5t8.5 -72q5 -15 13 -28q7 -11 18.5 -21.5
t28.5 -15.5q26 -7 51 1t48.5 25.5t45 42.5t40.5 51.5t35.5 52t29.5 44.5zM667 269q14 88 53.5 172t90.5 169q-12 -13 -22 -25.5t-21 -24.5q-45 -57 -83.5 -118t-77.5 -122q35 -30 58 -65q0 4 2 14zM987 905q1 -7 -2.5 -13t-8.5 -9q-7 -8 -20.5 -10.5t-26.5 0t-23 10.5
t-10 22q0 8 3 14.5t7 10.5q8 7 21 10t26 0t23 -11.5t11 -23.5zM1121 905q1 -7 -2.5 -13t-8.5 -9q-7 -8 -20.5 -10.5t-26.5 0t-23 10.5t-10 22q0 8 3 14.5t7 10.5q8 7 21 10t26 0t23 -11.5t11 -23.5z" />
    <glyph glyph-name="adieresis" unicode="&#xe4;" horiz-adv-x="747" 
d="M755 314q3 5 11 5.5t14.5 -3.5t8.5 -12t-6 -20q-24 -37 -55.5 -74t-69.5 -67t-81 -50t-89 -23q-44 -3 -83.5 5t-66 28t-35 54t9.5 84q-17 -29 -49.5 -60t-73 -53t-83.5 -29t-80 12q-19 8 -33.5 21.5t-22.5 33.5q-13 32 -7.5 63.5t22.5 60.5q17 33 42.5 62t57 51.5t68 38
t74.5 20.5q13 2 39 2.5t53 -4.5t49 -18t27 -38q3 -15 -4 -14t-20 6.5t-31 9t-37 -5.5q-17 -10 -43 -35t-48.5 -56t-36.5 -63.5t-7 -56.5q4 -12 13 -13t20.5 5.5t24.5 19t25 27.5q24 31 49 63t57 57l9 3q7 11 19.5 15.5t23.5 8.5q20 6 39.5 6.5t39.5 -1.5q9 -1 24 -5
t28 -11.5t19.5 -18t-0.5 -25.5q-9 -15 -22.5 -42t-22.5 -56.5t-8.5 -56.5t20.5 -41q12 -9 32.5 -1.5t43.5 25.5t47.5 42.5t46 48.5t37 44.5t21.5 30.5zM351 705q1 -7 -2.5 -13t-8.5 -9q-7 -8 -20.5 -10.5t-26.5 0t-23 10.5t-10 22q0 8 3 14.5t7 10.5q8 7 21 10t26 0
t23 -11.5t11 -23.5zM485 705q1 -7 -2.5 -13t-8.5 -9q-7 -8 -20.5 -10.5t-26.5 0t-23 10.5t-10 22q0 8 3 14.5t7 10.5q8 7 21 10t26 0t23 -11.5t11 -23.5z" />
    <glyph glyph-name="Edieresis" unicode="&#xcb;" horiz-adv-x="749" 
d="M794 729q-10 -14 -17.5 -34.5t-13 -43t-8 -45.5t-2.5 -44q0 -7 -15 -11t-34 -4t-34.5 3.5t-15.5 11.5q-1 68 23 131q-64 0 -121.5 -26t-105.5 -71q-18 -19 -34.5 -42.5t-25 -48.5t-5.5 -50.5t24 -47.5q17 -12 42 -16.5t50 -6t46.5 -1.5t32.5 -1q6 -1 9 -4.5t3 -5.5
q0 -14 -14.5 -28.5t-32.5 -25t-35 -16t-23 -2.5q-10 5 -26 7.5t-32 3.5t-29.5 1h-18.5h-8h-1q-56 0 -98 -26t-66 -64t-27 -81t17 -78t66 -54.5t122 -9.5q66 8 139 44t135 92q15 15 28.5 19.5t17.5 -1.5t-4 -22.5t-36 -43.5q-47 -42 -108 -72.5t-130 -45.5t-143 -12t-147 28
q-35 12 -62.5 36t-46 55t-26 67t-1.5 72q5 32 28 65t57.5 58t75.5 38.5t82 7.5q-8 5 -14.5 7.5t-13.5 8.5q-23 21 -27 46.5t4 52t26.5 53t41 49.5t46 41.5t43.5 29.5q39 24 85 37.5t92.5 19t88.5 3.5t73 -9q1 4 3 6.5t4 5.5q3 9 19.5 10.5t34.5 -0.5t31.5 -7t11.5 -9z
M605 905q1 -7 -2.5 -13t-8.5 -9q-7 -8 -20.5 -10.5t-26.5 0t-23 10.5t-10 22q0 8 3 14.5t7 10.5q8 7 21 10t26 0t23 -11.5t11 -23.5zM739 905q1 -7 -2.5 -13t-8.5 -9q-7 -8 -20.5 -10.5t-26.5 0t-23 10.5t-10 22q0 8 3 14.5t7 10.5q8 7 21 10t26 0t23 -11.5t11 -23.5z" />
    <glyph glyph-name="edieresis" unicode="&#xeb;" horiz-adv-x="541" 
d="M572 305q5 -2 5 -13t-13 -22l-78 -62t-81 -57.5t-87.5 -46.5t-96.5 -28q-32 -5 -68.5 -4.5t-70 7.5t-61 21t-40.5 38q-10 17 -12 41t1 48.5t9.5 48t15.5 39.5q18 34 47 60.5t63.5 45t73 28t77.5 11.5q10 0 28 0.5t35.5 -3t30.5 -11.5t13 -24q0 -34 -21 -62.5t-51 -51.5
t-64.5 -40.5t-61.5 -29.5q-10 -34 -7 -60.5t17.5 -43.5t40.5 -22t61 5q37 12 74.5 34t72 48t65 52.5t55.5 46.5q7 5 13.5 7.5t14.5 -0.5zM304 426q-12 -7 -28 -22t-33 -34.5t-33 -43.5t-29 -49q21 10 45.5 26.5t44.5 36.5t30 42t3 44zM248 705q1 -7 -2.5 -13t-8.5 -9
q-7 -8 -20.5 -10.5t-26.5 0t-23 10.5t-10 22q0 8 3 14.5t7 10.5q8 7 21 10t26 0t23 -11.5t11 -23.5zM382 705q1 -7 -2.5 -13t-8.5 -9q-7 -8 -20.5 -10.5t-26.5 0t-23 10.5t-10 22q0 8 3 14.5t7 10.5q8 7 21 10t26 0t23 -11.5t11 -23.5z" />
    <glyph glyph-name="idieresis" unicode="&#xef;" horiz-adv-x="452" 
d="M-24 217q3 25 9.5 57.5t16.5 65t23 61t29 45.5q5 6 13.5 7.5t16.5 3.5h14t34 -0.5t43 -1t42 -1.5t30.5 -3t9.5 -5q-14 -20 -28.5 -44.5t-27 -51t-22 -53.5t-15.5 -50q-5 -18 -10 -43t-3.5 -46.5t12.5 -35t40 -8.5q20 3 45 19t51.5 38t52.5 46.5t49 45.5t40 36t26 17
q7 5 16.5 5t16 -3.5t7 -10t-10.5 -14.5q-26 -20 -49 -38t-44 -38q-27 -24 -55 -49t-58 -46.5t-64.5 -37t-74.5 -20.5q-30 -3 -63 -0.5t-60 18.5t-42.5 48t-9.5 87zM204 705q1 -7 -2.5 -13t-8.5 -9q-7 -8 -20.5 -10.5t-26.5 0t-23 10.5t-10 22q0 8 3 14.5t7 10.5q8 7 21 10
t26 0t23 -11.5t11 -23.5zM338 705q1 -7 -2.5 -13t-8.5 -9q-7 -8 -20.5 -10.5t-26.5 0t-23 10.5t-10 22q0 8 3 14.5t7 10.5q8 7 21 10t26 0t23 -11.5t11 -23.5z" />
    <glyph glyph-name="Idieresis" unicode="&#xcf;" horiz-adv-x="479" 
d="M570 700q11 -15 5.5 -43t-23 -65.5t-43 -82t-54 -92.5t-57 -97t-51.5 -96q-10 -21 -22 -46.5t-21 -53t-11.5 -55t5.5 -52.5q3 -7 7 -9q3 -3 4 -3q1 -1 1 -2q8 -3 12 -9t-1 -13q-9 -11 -34 -16.5t-54 -5.5t-56.5 4t-41.5 12q-29 13 -38.5 39t-5.5 56q9 67 43.5 140.5
t79 148.5t90.5 148.5t78 139.5q1 3 5.5 13t5 20t-6.5 16t-28 -1q-18 -8 -47 -26.5t-60 -44t-59.5 -57t-46.5 -66t-20 -70.5t21 -70q1 -2 -9 -4t-22 -3.5t-23 -2.5l-11 -1q-8 -1 -16 -1t-16 4q-25 15 -35.5 42t-6.5 55q5 32 23.5 58.5t41.5 47.5q54 51 118 89.5t133 64.5
q22 9 49 14.5t54.5 7t53 0t44.5 -6.5q12 -3 25.5 -8.5t20.5 -16.5zM474 905q1 -7 -2.5 -13t-8.5 -9q-7 -8 -20.5 -10.5t-26.5 0t-23 10.5t-10 22q0 8 3 14.5t7 10.5q8 7 21 10t26 0t23 -11.5t11 -23.5zM608 905q1 -7 -2.5 -13t-8.5 -9q-7 -8 -20.5 -10.5t-26.5 0t-23 10.5
t-10 22q0 8 3 14.5t7 10.5q8 7 21 10t26 0t23 -11.5t11 -23.5z" />
    <glyph glyph-name="odieresis" unicode="&#xf6;" horiz-adv-x="539" 
d="M572 370q16 5 25 2t12 -9t-0.5 -12.5t-12.5 -9.5q-49 -17 -93 -28t-95 -18v-1q-2 -34 -12.5 -61.5t-27.5 -56.5q-27 -46 -64.5 -69.5t-74 -32t-68.5 -7t-49 4.5q-46 8 -81 31.5t-49 70.5q-11 34 -4.5 70.5t22.5 68.5q3 6 6 11t7 11q-2 0 -2 2q-12 27 -5.5 52t24 46
t41.5 36.5t48 22.5q35 10 72.5 10.5t72.5 -10.5q6 -2 17.5 -8.5t11.5 -15.5q0 -2 -1 -4q23 -6 43 -16.5t36 -26.5q18 -19 26.5 -43t10.5 -50q42 6 83 16t81 24zM355 350q-5 38 -28 63t-54 36q-2 -1 -4.5 -2t-4.5 -1l-9 -3h-1q-2 -2 -4 -3q-4 -2 -7 -4l-2 -2q-3 -3 -4 -3
q-2 -2 -4 -4.5t-4 -5.5h3q7 -2 19 -5.5t20.5 -9.5t9.5 -13t-13 -16q-10 -6 -14.5 -9t-12.5 -11q-5 -6 -11 -12t-11 -13q23 -5 47.5 -7t48.5 -2q11 1 21.5 1.5t20.5 0.5v12t-2 13zM336 213q9 21 13.5 38.5t6.5 40.5q-14 -1 -29.5 -1h-29.5q-48 -2 -98 9q-18 -23 -27.5 -49.5
t-11 -50.5t6 -43t23.5 -28.5t40.5 -6t58.5 24.5q16 13 27.5 29.5t19.5 36.5zM247 705q1 -7 -2.5 -13t-8.5 -9q-7 -8 -20.5 -10.5t-26.5 0t-23 10.5t-10 22q0 8 3 14.5t7 10.5q8 7 21 10t26 0t23 -11.5t11 -23.5zM381 705q1 -7 -2.5 -13t-8.5 -9q-7 -8 -20.5 -10.5t-26.5 0
t-23 10.5t-10 22q0 8 3 14.5t7 10.5q8 7 21 10t26 0t23 -11.5t11 -23.5z" />
    <glyph glyph-name="Odieresis" unicode="&#xd6;" horiz-adv-x="718" 
d="M586 686q37 -19 58.5 -53t30.5 -76t7.5 -89.5t-10.5 -93.5t-22.5 -88.5t-28.5 -73.5q-33 -71 -86.5 -130t-120.5 -96t-144.5 -45.5t-159.5 21.5q-39 18 -62 49t-31 70t-4 82.5t19 87.5q-7 8 -12.5 17.5t-8.5 19.5q-15 38 -13.5 79t15.5 81t38 77.5t56 69.5
q41 40 83.5 65.5t84 39.5t80.5 18t74 3q81 -4 157 -35zM340 -15q61 28 110 80t83 117t53 137.5t20 140.5q1 35 -5 78t-23.5 78.5t-49 54t-81.5 5.5q-40 -14 -78 -39t-70 -58.5t-56.5 -73.5t-36.5 -83q7 0 14 -0.5t13 -1.5q14 -2 30.5 -8t25.5 -16q7 -8 9 -20t-6 -23
q-17 -19 -30 -41.5t-28 -54.5q11 -8 27 -12q14 -4 34.5 -6t49.5 3q28 4 53 15t44 24q22 14 41 32q3 1 7 1q7 0 8 -4q4 -2 3.5 -14.5t-18.5 -25.5q-57 -42 -127 -61t-141 -7q-7 -21 -10 -58.5t2.5 -74t22.5 -65t50 -31.5q11 -2 25 0t31 10zM394 905q1 -7 -2.5 -13t-8.5 -9
q-7 -8 -20.5 -10.5t-26.5 0t-23 10.5t-10 22q0 8 3 14.5t7 10.5q8 7 21 10t26 0t23 -11.5t11 -23.5zM528 905q1 -7 -2.5 -13t-8.5 -9q-7 -8 -20.5 -10.5t-26.5 0t-23 10.5t-10 22q0 8 3 14.5t7 10.5q8 7 21 10t26 0t23 -11.5t11 -23.5z" />
    <glyph glyph-name="Ydieresis" unicode="&#x178;" horiz-adv-x="795" 
d="M853 631q-25 -86 -61 -174.5t-79.5 -168.5t-94 -145.5t-104.5 -105.5q-31 -24 -66 -38t-72.5 -20.5t-75.5 -7.5t-74 2q-29 5 -48.5 15t-32 20.5t-17.5 20.5t-5 15q1 11 11.5 17t17.5 4q4 -1 10.5 -9.5t17.5 -17.5t29 -15.5t44 -4.5q41 5 78.5 34.5t71 74t64 100t57 112
t50 110t43.5 94.5q-26 -29 -66.5 -59.5t-88.5 -57t-99 -46t-98 -26t-85.5 3t-60.5 41.5q-14 18 -13.5 42t10 51t26.5 55.5t35.5 55.5t36 51t29.5 43q-23 4 -54 -10.5t-59.5 -42t-49 -65t-21.5 -78.5q0 -8 -12 -7.5t-26.5 5.5t-27 13t-12.5 17q3 38 23 70t50.5 56t68 42
t76 28t74.5 13.5t63 0.5v-1h1q18 0 36.5 -5.5t33 -14t23 -18.5t5.5 -19q-36 -57 -68.5 -113.5t-54.5 -122.5q-10 -28 -6 -40t17 -13t32.5 8t42.5 23q68 42 128 92t111 115q9 12 16 25.5t13 25t13 19.5t18 9q7 1 23 1.5t35.5 -1t40 -6t35.5 -13.5t22 -23t0 -35v-1zM616 905
q1 -7 -2.5 -13t-8.5 -9q-7 -8 -20.5 -10.5t-26.5 0t-23 10.5t-10 22q0 8 3 14.5t7 10.5q8 7 21 10t26 0t23 -11.5t11 -23.5zM750 905q1 -7 -2.5 -13t-8.5 -9q-7 -8 -20.5 -10.5t-26.5 0t-23 10.5t-10 22q0 8 3 14.5t7 10.5q8 7 21 10t26 0t23 -11.5t11 -23.5z" />
    <glyph glyph-name="ydieresis" unicode="&#xff;" horiz-adv-x="845" 
d="M865 329q7 4 18 4.5t17 -3t4 -10.5t-19 -19q-13 -8 -38 -22.5t-56 -31.5t-66 -35t-66.5 -33.5t-57.5 -27t-39 -15.5q-15 -70 -39.5 -151t-63.5 -155.5t-96 -132.5t-138 -82q-36 -11 -72.5 -13t-69.5 6t-60.5 26.5t-45.5 49.5q-23 38 -15 80.5t31 77.5q13 19 36.5 39
t53.5 40.5t64 41t69 39t68 35.5t60 31q20 72 29.5 144.5t20.5 144.5q-18 -30 -36.5 -64.5t-40.5 -66.5t-50 -58t-66 -39q-33 -12 -71.5 -7t-67.5 25q-32 24 -47.5 56.5t-18.5 70.5t4 80t20 85q6 19 32.5 30t59.5 14.5t63.5 -0.5t43.5 -16q5 -5 5.5 -12t-1 -14.5t-4.5 -15.5
t-4 -14q-2 -5 -5.5 -23.5t-7 -42.5t-5.5 -50t1.5 -47t12.5 -33.5t28 -8.5q9 1 18 10t17 22t15 26t12 22q23 41 45.5 81t57.5 73q0 1 0.5 1t0.5 1q4 4 21 9.5t40 10.5t48.5 8t46.5 1.5t34 -9t12 -23.5q-2 -20 -7 -55.5t-10.5 -74.5t-11 -74.5t-9.5 -55.5q0 -2 -0.5 -2.5
t-0.5 -2.5q31 13 74.5 34.5t87 44t80.5 43.5t55 33zM76 -336q37 0 67.5 18.5t55.5 49t45.5 68.5t36.5 77.5t28.5 76t22.5 63.5q-10 -6 -38 -18.5t-64.5 -31t-76.5 -43.5t-72.5 -55.5t-53 -65.5t-18.5 -75q0 -10 5 -21t13.5 -20.5t20.5 -16t28 -6.5zM400 705q1 -7 -2.5 -13
t-8.5 -9q-7 -8 -20.5 -10.5t-26.5 0t-23 10.5t-10 22q0 8 3 14.5t7 10.5q8 7 21 10t26 0t23 -11.5t11 -23.5zM534 705q1 -7 -2.5 -13t-8.5 -9q-7 -8 -20.5 -10.5t-26.5 0t-23 10.5t-10 22q0 8 3 14.5t7 10.5q8 7 21 10t26 0t23 -11.5t11 -23.5z" />
    <glyph glyph-name="udieresis" unicode="&#xfc;" horiz-adv-x="1009" 
d="M981 266q14 17 26.5 32.5t23.5 27.5q3 4 9 2.5t11.5 -6.5t8 -11.5t-1.5 -10.5q-15 -18 -26 -31.5t-24 -27.5h1q-37 -39 -84.5 -83t-99.5 -81.5t-106 -61.5t-103 -22q-11 0 -30.5 4t-41.5 14.5t-43 29.5t-35 51t-17.5 78.5t9.5 111.5l4 16q-8 -10 -35 -35.5t-66 -51.5
t-87.5 -45t-99.5 -17q-34 2 -71.5 10.5t-63.5 33.5q-42 42 -44 101q-2 20 2.5 42t13 43t20 40.5t24.5 36.5q6 8 21.5 9.5t25.5 3.5q20 3 39 3.5t39 -0.5q3 0 17 -1.5t28.5 -4.5t23.5 -8.5t3 -13.5t-11 -17q-17 -27 -27.5 -56.5t-17.5 -58.5q-3 -14 -1.5 -31t8.5 -32t19 -26
t30 -12q24 -2 52 12t54.5 35t48.5 43.5t34 38.5q13 17 25.5 35t23.5 36q5 8 9.5 16t8.5 16q2 7 5 10v1q0 2 3 4q14 20 42 25.5t51 6.5q18 1 37.5 -2.5t34.5 -11.5q8 -4 20 -14t10 -22q-8 -38 -22 -75.5t-25 -75.5q-4 -13 -9.5 -38t-9.5 -53.5t-4 -57.5t8.5 -49.5t27 -29.5
t52.5 2q55 18 112 65.5t110 104.5l1 1l29 33v-1zM398 705q1 -7 -2.5 -13t-8.5 -9q-7 -8 -20.5 -10.5t-26.5 0t-23 10.5t-10 22q0 8 3 14.5t7 10.5q8 7 21 10t26 0t23 -11.5t11 -23.5zM532 705q1 -7 -2.5 -13t-8.5 -9q-7 -8 -20.5 -10.5t-26.5 0t-23 10.5t-10 22q0 8 3 14.5
t7 10.5q8 7 21 10t26 0t23 -11.5t11 -23.5z" />
    <glyph glyph-name="Udieresis" unicode="&#xdc;" horiz-adv-x="962" 
d="M988 739q13 -2 26 -7t21.5 -14.5t10 -22.5t-8.5 -29q-88 -143 -150.5 -297t-93.5 -322q0 -2 -1 -10.5t-1.5 -19.5t0.5 -21.5t4 -16.5q4 -6 10 -8.5t11.5 -4t8.5 -2.5t3 -3t-7.5 -7.5t-17.5 -11t-20 -9.5t-14 -4h-1q-10 -3 -26.5 -5.5t-35 -2t-38.5 6t-36 18.5
q-29 23 -36 57t-2 73t18 80.5t24 79.5q-5 -6 -17.5 -24.5t-32 -42.5t-44.5 -51t-54.5 -51t-63 -41.5t-69.5 -22.5q-74 -12 -132 3t-92 53.5t-39.5 97.5t26.5 136q17 41 41 88t51 95t54 94.5t51 85.5q-17 2 -39.5 -9t-46.5 -32t-48.5 -49t-46.5 -59.5t-39 -64t-27 -61.5
q-3 -10 -15 -8.5t-24.5 11.5t-20.5 26t-2 34q16 51 47 91t69.5 70t80.5 50.5t80.5 32.5t70 15.5t49.5 0.5q11 -2 31.5 -6t38.5 -11t28 -18t1 -26q-74 -117 -131 -239q-13 -28 -30 -62t-32 -69t-26 -69t-13 -63t8 -51.5t36 -33.5q25 -7 51 -3.5t50.5 14.5t46.5 28.5t40 38.5
q74 85 122 157t84 138t68.5 131t75.5 137q8 15 25 23.5t32 13.5q20 7 40.5 7.5t38.5 -2.5zM677 905q1 -7 -2.5 -13t-8.5 -9q-7 -8 -20.5 -10.5t-26.5 0t-23 10.5t-10 22q0 8 3 14.5t7 10.5q8 7 21 10t26 0t23 -11.5t11 -23.5zM811 905q1 -7 -2.5 -13t-8.5 -9
q-7 -8 -20.5 -10.5t-26.5 0t-23 10.5t-10 22q0 8 3 14.5t7 10.5q8 7 21 10t26 0t23 -11.5t11 -23.5z" />
    <glyph glyph-name="exclam" unicode="!" horiz-adv-x="436" 
d="M30 94q3 12 11.5 19t20 10.5t24 5t24.5 1.5q36 0 51 -12.5t12 -27t-23.5 -27t-54.5 -12.5q-10 0 -22.5 1t-23.5 5.5t-17 13t-2 23.5zM348 504q-11 -27 -26 -64t-32.5 -76.5t-36.5 -77.5t-38.5 -68t-38.5 -48t-37 -18h-15t-13 2q-8 2 -17 9.5t-8 27.5q0 7 6.5 35t18 68
t26.5 89.5t31 100.5t32.5 99.5t31.5 87.5t27 64.5t19 30.5q13 9 39 11.5t51 -0.5t44 -10.5t19 -18.5q1 -11 -6 -35t-18.5 -57t-27 -72.5t-31.5 -79.5z" />
    <glyph glyph-name="at" unicode="@" horiz-adv-x="664" 
d="M530 382q-21 -43 -33 -92q-3 -9 -7.5 -26t-6.5 -31.5t0.5 -22t13.5 2.5q19 19 34.5 42.5t26 50.5t14 55.5t-2.5 57.5q-5 24 -18 44t-31 35q-26 19 -58 25.5t-62 5t-54 -7t-36 -9.5q-44 -15 -81 -45.5t-63 -71t-39 -88t-9 -96.5q3 -31 12 -59t29 -51q21 -21 47 -31.5
t54.5 -12.5t58 3t57.5 15q45 15 86 42t68 66q4 6 6.5 3.5t2.5 -8.5t-2.5 -14t-6.5 -14q-20 -28 -53.5 -52t-74 -41t-85 -25.5t-87.5 -5.5t-81.5 20t-65.5 51q-21 25 -31.5 58t-11.5 68t7 71.5t23 69.5q38 78 107 122.5t156 57.5q74 12 135.5 2.5t102 -39t54.5 -77.5t-7 -113
q-16 -49 -49 -88q-15 -16 -38.5 -32t-51 -28t-54.5 -18t-48.5 -2t-34 20t-9.5 48q-22 -6 -51.5 -3.5t-53.5 14t-35 32.5t4 51q13 26 33.5 42t45.5 24.5t51.5 10.5t52.5 0q12 13 38.5 16.5t52.5 1t44.5 -9t14.5 -14.5zM335 263q12 52 34 106q-26 0 -50 -8t-38 -35
q-9 -19 -10.5 -39t4.5 -33t20.5 -14t38.5 19q0 1 0.5 2t0.5 2z" />
    <glyph glyph-name="grave" unicode="`" horiz-adv-x="302" 
d="M183 656q-36 29 -68.5 60t-64.5 63q-6 7 -0.5 11.5t16.5 5.5t24.5 -2t22.5 -12q32 -32 66 -61.5t67 -61.5q6 -5 3.5 -11.5t-11 -9.5t-23 0.5t-32.5 17.5z" />
    <glyph glyph-name="parenleft" unicode="(" horiz-adv-x="462" 
d="M471 862q3 0 11.5 -0.5t17.5 -2.5t15.5 -6t6.5 -11q0 -6 -12.5 -11t-29 -10t-32.5 -10t-24 -11q-60 -38 -109.5 -102t-85 -140t-56.5 -158t-24 -155q-2 -64 10 -127.5t45 -119.5q38 -65 94.5 -106t123.5 -67q14 -5 13.5 -13.5t-13.5 -13.5q-17 -6 -36.5 -5.5t-35.5 5.5
q-83 30 -152 83.5t-108 134.5q-30 64 -39 134t-1.5 140.5t29 139t51.5 130.5q26 57 61.5 110.5t81.5 97.5q41 41 90.5 67t107.5 27z" />
    <glyph glyph-name="parenright" unicode=")" horiz-adv-x="420" 
d="M-46 -208q-3 0 -11.5 0.5t-17 2.5t-15 6t-6.5 10q0 7 7.5 11.5t16.5 6.5t17 2.5t9 0.5q38 11 71 37.5t60 58.5q42 48 76.5 105t59 118.5t39 126t17.5 129.5q2 65 -10.5 129t-44.5 120q-38 64 -95 106t-123 65q-14 6 -13.5 14.5t13.5 13.5q17 7 36.5 6.5t35.5 -6.5
q83 -29 151.5 -83t107.5 -135q31 -65 39.5 -134.5t1 -140t-28.5 -139.5t-50 -131q-29 -56 -64 -109t-80 -97q-42 -41 -90.5 -67t-108.5 -27z" />
    <glyph glyph-name="comma" unicode="," horiz-adv-x="253" 
d="M76 115q-5 9 0 18.5t15.5 17t25 11.5t28 2.5t24.5 -10t15 -26.5q3 -22 -6.5 -49.5t-27.5 -51.5t-41.5 -39.5t-48.5 -12.5q-1 0 -6 0.5t-10 2t-8 4t0 5.5q16 15 25.5 33t14 35.5t4.5 33t-4 26.5z" />
    <glyph glyph-name="quotesingle" unicode="'" horiz-adv-x="229" 
d="M89 747q-5 10 3 20.5t19.5 15t23.5 -0.5t15 -25q2 -13 -3 -33.5t-14.5 -39t-23 -31.5t-29.5 -11q-2 0 -9.5 2.5t-4.5 6.5q17 22 22.5 50.5t0.5 45.5z" />
    <glyph glyph-name="ring" unicode="&#x2da;" horiz-adv-x="275" 
d="M212 752q14 -11 21.5 -27.5t0.5 -34.5q-8 -17 -22 -25.5t-30 -13.5q-20 -7 -41 -9t-43 -1q-16 1 -34.5 5.5t-27.5 20.5q-7 16 -2.5 35.5t13.5 33.5q18 21 43 27.5t54 6.5q17 0 35.5 -3.5t32.5 -14.5zM152 660q20 9 30.5 28t-0.5 41q-10 20 -35 30q-2 1 -4.5 1t-4.5 1
q-12 -4 -25.5 -12.5t-18.5 -20.5q-11 -19 -11 -42q1 -25 22 -34q11 -4 24 -0.5t23 8.5z" />
    <glyph glyph-name="question" unicode="?" horiz-adv-x="610" 
d="M37 86q5 27 27 35t48 8q10 0 21.5 -1t21 -5.5t14.5 -12.5t2 -23q-6 -24 -28 -31.5t-45 -7.5q-10 0 -20.5 1t-19.5 5t-14.5 11.5t-6.5 20.5zM236 755q29 9 70.5 14t85.5 3t85.5 -12.5t69.5 -32t38 -56.5t-8 -85q-13 -34 -37.5 -63t-56.5 -55t-68 -50t-71.5 -48t-69 -49
t-58.5 -53q-18 -21 -32 -43.5t-22 -48.5q-2 -1 -2.5 -1.5t-1.5 -0.5q-14 -6 -32 1t-33 21.5t-25 32t-8 31.5q4 20 17.5 37t23.5 26q31 26 65.5 48.5l69 45t66.5 47t58 53.5q23 26 39.5 54t14.5 61q-3 48 -29 68.5t-61 18.5t-74 -23.5t-68 -56t-42.5 -80t1.5 -95.5
q3 -11 -7 -18t-24 -9.5t-28 0t-21 10.5q-11 4 -20 11q-8 6 -13.5 16t-3.5 26q1 10 2.5 28t7.5 41t19 48.5t36 50.5t59 47.5t88 39.5z" />
    <glyph glyph-name="bracketright" unicode="]" horiz-adv-x="261" 
d="M83 809q74 12 148 4q4 0 8.5 -1t-1.5 -5q-7 -4 -19 -2q17 -2 17 -8q-38 -189 -67.5 -373.5t-47.5 -370.5q-4 -42 -7.5 -85t-6.5 -86q6 0 10 -4q5 -7 0.5 -12.5t-12.5 -10.5q0 -3 -0.5 -6t-0.5 -6q0 -2 -8 -4t-17.5 -3t-17.5 0.5t-8 6.5q0 2 0.5 2.5t0.5 2.5h-4h-120
q-5 0 -14.5 2t-6.5 10q2 8 12.5 10.5t16.5 2.5h70h33h14q13 176 35 353t54 357q9 53 19.5 106.5t22.5 107.5q1 3 10.5 5.5t20.5 2.5q-5 0 -8.5 0.5t-5.5 0.5q-42 3 -86 -3q-9 -2 -18.5 -2.5t-17.5 2.5q-5 1 -5.5 2.5t7.5 3.5z" />
    <glyph glyph-name="braceleft" unicode="{" horiz-adv-x="434" 
d="M585 811q2 0 -1 -1t-7.5 -1.5t-9.5 -1t-6 -0.5q-10 -1 -23 -1t-22 3l-4 2q-3 -2 -9 -3q-12 -5 -24 -13q-13 -8 -24 -16t-19 -18q-31 -34 -50 -78q-20 -46 -29.5 -93.5t-24.5 -95.5q-13 -44 -36 -85t-65 -71q-23 -16 -49.5 -26t-55.5 -15q33 -8 53 -28q16 -16 23.5 -34
t9 -37.5t-1.5 -39t-7 -37.5q-14 -50 -34 -98t-29 -99q-4 -22 -4 -44.5t8 -45.5q7 -20 20 -31q4 -5 8 -7.5t9 -4.5q4 -2 7 -2t4 1q11 3 23 3t23 -1l5 -0.5t10 -1.5t8.5 -1.5t1.5 -1.5q-20 -6 -45 -9.5t-50.5 -2t-47.5 9.5t-36 24q-16 20 -20.5 43.5t-1.5 47.5t10 48t14 44
q8 24 17.5 49t17.5 50.5t13 50.5t4 51q0 17 -5 33.5t-16 31.5q-14 17 -31 26l-8 4t-9 4q-1 1 -4 1q-8 1 -15.5 1t-14.5 1h-8t-6 1q-9 0 -17 2q-4 2 -3.5 3.5t3.5 2t6.5 0.5h5.5q17 2 36 2.5t36 -1.5q8 2 16.5 5.5t14.5 6.5q11 5 21.5 11t19.5 12q45 34 69 79
q13 23 21.5 47.5t15 49.5t12 50.5t12.5 50.5q12 44 33 88t62 76q20 17 42.5 27t50.5 12q26 3 54.5 2t52.5 -11z" />
    <glyph glyph-name="braceright" unicode="}" horiz-adv-x="491" 
d="M201 811q31 10 60.5 11t53.5 -2q49 -4 68 -39q9 -16 11.5 -35.5t0.5 -40.5t-8.5 -43.5t-14.5 -44.5q-20 -51 -41.5 -101.5t-26.5 -96.5q-3 -47 19 -79q5 -6 11.5 -12t14.5 -11q5 -3 11 -6.5t12 -5.5q19 2 36.5 1.5t33.5 -2.5h6.5t6 -0.5t2.5 -2t-5 -3.5q-8 -2 -19 -2
q-3 -1 -7 -1h-7q-8 -1 -15.5 -1t-15.5 -1q-4 0 -5 -1q-6 -2 -11 -4t-11 -4q-14 -5 -25.5 -11.5t-22.5 -14.5q-21 -15 -37 -31.5t-27 -33.5q-18 -26 -29 -51t-19.5 -50.5t-15 -50.5t-13.5 -49q-6 -20 -14 -44t-21.5 -48t-33 -47.5t-48.5 -43.5q-24 -16 -51 -24t-53 -9.5
t-49 2t-39 9.5q-2 1 2 1.5t9.5 1.5t11 1.5t6.5 0.5q11 1 22.5 1t19.5 -3q2 -1 4 -1q3 0 5 0.5t5 1.5q5 2 11.5 4.5t11.5 7.5q24 11 42 31q22 23 36.5 45.5t24.5 44.5q12 25 20 50t15 49.5t14 48.5t16 49q15 37 41 76.5t77 71.5q35 21 71 28q-52 11 -76 41q-23 30 -20 71
t18 85q17 48 37.5 95.5t30.5 93.5q5 21 5 40.5t-5 37.5q-5 19 -19 34q-9 9 -17 13q-2 1 -3.5 1.5t-3.5 1.5q-2 -1 -2.5 -1t-2.5 -1q-11 -3 -24 -3t-23 1q-1 0 -5.5 0.5t-8.5 1t-7 1.5t-1 1z" />
    <glyph glyph-name="cedilla" unicode="&#xb8;" horiz-adv-x="369" 
d="M215 -8q28 -4 47.5 -23t15.5 -49q-2 -29 -24.5 -45.5t-48.5 -22.5q-15 -3 -33 -4.5t-35 1t-32 9t-25 20.5q-2 3 1.5 5.5t8.5 3.5t10 1.5t7 0.5q8 1 14.5 1.5t11.5 -7.5q12 -11 24 -11.5t21.5 5.5t16 17.5t8.5 25.5t-3.5 28.5t-18.5 23.5q-11 -9 -16 -17q-2 -4 -8 -5.5
t-13.5 -1.5t-14.5 0.5t-10 0.5q-2 0 -7 0.5t-10.5 1.5t-8.5 3t0 6q13 21 38 28q5 19 9.5 37.5t9.5 38.5q1 7 10 9.5t18.5 2t17 -3.5t6.5 -8q-5 -17 -9.5 -34t-10.5 -34q10 -2 18 -2.5t15 -1.5z" />
    <glyph glyph-name="exclamdown" unicode="&#xa1;" horiz-adv-x="436" 
d="M403.002 614.006q-3 -11.999 -11.499 -18.999q-8.5 -6.99902 -19.999 -10.499t-23.999 -5q-12.499 -1.5 -24.498 -1.5q-35.998 0 -50.9971 12.499q-14.999 12.5 -11.999 26.999t23.498 26.998q20.499 12.499 54.4971 12.499q9.99902 0 22.499 -1
q12.499 -1 23.498 -5.49902q10.999 -4.5 16.999 -13q6 -8.49902 2 -23.498zM85.0215 204.031q10.999 26.998 25.998 63.9961q14.999 36.9971 32.498 76.4951q17.499 39.4971 36.498 77.4951t38.4971 67.9961q19.499 29.998 38.498 47.9971t36.998 17.999h14.999
q6.99902 0 12.999 -2q7.99902 -2 16.999 -9.5q8.99902 -7.49902 7.99902 -27.498q0 -7 -6.49902 -34.998q-6.5 -27.998 -17.999 -67.9961q-11.499 -39.9971 -26.498 -89.4941t-30.999 -100.494q-15.998 -50.9971 -32.4971 -99.4941q-16.499 -48.4961 -31.499 -87.4941
q-14.999 -38.998 -26.998 -64.4961t-18.999 -30.498q-12.999 -9 -38.9971 -11.499q-25.999 -2.5 -50.9971 0.5q-24.998 2.99902 -43.9971 10.499q-18.999 7.49902 -18.999 18.499q-1 10.999 6 34.998q6.99902 23.998 18.498 56.9961q11.5 32.998 26.999 72.4951
q15.499 39.498 31.498 79.4961z" />
    <glyph glyph-name="questiondown" unicode="&#xbf;" horiz-adv-x="610" 
d="M552.002 687.005q-4.99902 -26.998 -26.998 -34.9971q-21.999 -8 -47.9971 -8q-9.99902 0 -21.499 1q-11.499 1 -20.998 5.5q-9.5 4.49902 -14.499 12.499q-5 7.99902 -2 22.998q5.99902 23.999 27.998 31.498q21.999 7.5 44.9971 7.5q10 0 20.499 -1t19.499 -5
q8.99902 -3.99902 14.499 -11.499q5.49902 -7.49902 6.49902 -20.499zM353.015 18.0459q-28.998 -8.99902 -70.4961 -13.999q-41.4971 -5 -85.4951 -3q-43.9971 2 -85.4941 12.499q-41.498 10.5 -69.4961 31.998q-27.998 21.499 -37.9971 56.4971
q-10 34.998 7.99902 84.9951q12.999 33.9971 37.498 62.9961q24.498 28.998 56.4961 54.9961q31.998 25.999 67.9961 49.9971q35.998 23.999 71.4951 47.9971q35.498 23.999 68.9961 48.9971t58.4971 52.9971q17.998 20.998 31.998 43.4971q13.999 22.499 21.998 48.4971
q2 1 2.5 1.5t1.5 0.5q13.999 5.99902 31.998 -1q17.999 -7 32.998 -21.499t24.998 -31.998q10 -17.499 8 -31.498q-4 -19.998 -17.499 -36.9971t-23.499 -25.999q-30.998 -25.998 -65.4961 -48.4971q-34.4971 -22.498 -68.9951 -44.9971t-66.4961 -46.9971
q-31.998 -24.499 -57.9971 -53.4971q-22.998 -25.998 -39.4971 -53.9961q-16.499 -27.999 -14.499 -60.9961q3 -47.998 28.998 -68.4961q25.998 -20.499 60.9961 -18.499t73.9961 23.498q38.9971 21.499 67.9951 55.9971q28.999 34.498 42.498 79.9951t-1.5 95.4941
q-3 10.999 6.99902 17.999q10 6.99902 23.999 9.49902t27.998 0t20.999 -10.499q10.999 -4 19.999 -10.999q7.99902 -6 13.499 -15.999q5.49902 -10 3.5 -25.999q-1 -9.99902 -2.5 -27.998t-7.5 -40.9971q-6 -22.999 -18.999 -48.4971q-12.999 -25.499 -35.9971 -50.4971
q-22.999 -24.999 -58.9971 -47.4971q-35.9971 -22.499 -87.9941 -39.498z" />
    <glyph glyph-name="slash" unicode="/" horiz-adv-x="412" 
d="M407 801q2 4 9 5t14.5 0.5t12.5 -3t2 -6.5q-22 -45 -43.5 -88.5t-44.5 -88.5q-78 -155 -158.5 -307t-164.5 -306q-2 -4 -9 -5t-14 -0.5t-12 3t-3 6.5q24 44 47 87l46 86q82 153 161 307t157 310z" />
    <glyph glyph-name="backslash" unicode="\" horiz-adv-x="446" 
d="M-1 801q78 -156 157 -310t161 -307l46 -86t47 -87q2 -4 -3 -6.5t-12 -3t-14 0.5t-9 5q-84 154 -164.5 306t-158.5 307q-23 45 -44.5 88.5t-43.5 88.5q-3 4 2 6.5t12.5 3t14.5 -0.5t9 -5z" />
    <glyph glyph-name="Oslash" unicode="&#xd8;" horiz-adv-x="718" 
d="M566 720q2 4 9 5t14.5 0.5t12.5 -3t2 -6.5l-15 -32q36 -20 57 -54t29.5 -76t6.5 -89t-10.5 -92.5t-22 -87.5t-28.5 -73q-29 -61 -72.5 -113.5t-98 -90t-118 -56t-131.5 -11.5q-2 -4 -4 -7.5t-4 -7.5t-9 -5t-14 -0.5t-12 3t-3 6.5l9 17q-14 2 -27 6t-27 9q-39 18 -62 49
t-31 70t-4 82.5t19 87.5q-7 8 -12.5 17.5t-8.5 19.5q-15 38 -13.5 79t15.5 81t38 77.5t56 69.5q44 42 89 68t88.5 39.5t84 17t76 0.5t63.5 -9.5t47 -12.5zM340 -15q61 28 110 80t83 117t53 137.5t20 140.5q0 20 -1.5 43.5t-6 47t-13 46t-20.5 40.5l-49 -98
q-38 -74 -75.5 -147t-76.5 -146q25 6 46 17t38 22q18 13 35 28q3 1 7 1q7 0 8 -4q4 -2 3.5 -14.5t-18.5 -25.5q-64 -47 -140 -64q-27 -52 -54.5 -103t-55.5 -103q9 -11 20.5 -18t26.5 -9q11 -2 25 0t31 10zM234 257q9 -6 21 -10q11 -4 27 -6.5t38 -1.5q56 106 110 212
t108 213q-17 12 -39.5 16t-51.5 -4q-40 -14 -78 -39t-70 -58.5t-56.5 -73.5t-36.5 -83q7 0 14 -0.5t13 -1.5q14 -2 30.5 -8t25.5 -16q7 -8 9 -20t-6 -23q-17 -19 -30 -41.5t-28 -54.5zM215 202q-4 -13 -7 -32.5t-3.5 -41.5t1.5 -45t8 -44l34 64l51 96q-42 -5 -84 3z" />
    <glyph glyph-name="oslash" unicode="&#xf8;" horiz-adv-x="539" 
d="M383 541q1 2 6 3t10 0.5t8 -2t1 -4.5l-51 -103l14 -12q18 -19 26.5 -43t10.5 -50q42 6 83 16t81 24q16 5 25 2t12 -9t-0.5 -12.5t-12.5 -9.5q-49 -17 -93 -28t-95 -18v-1q-2 -34 -12.5 -61.5t-27.5 -56.5q-20 -34 -46 -55.5t-54 -33.5t-55 -16t-50 -4l-27 -50
q-1 -3 -5.5 -3.5t-9.5 0t-8.5 2t-1.5 3.5l26 49q-8 1 -14 1.5t-11 2.5q-46 8 -81 31.5t-49 70.5q-11 34 -4.5 70.5t22.5 68.5q3 6 6 11t7 11q-2 0 -2 2q-12 27 -5.5 52t24 46t41.5 36.5t48 22.5q35 10 72.5 10.5t72.5 -10.5q6 -2 17.5 -8.5t11.5 -15.5q0 -2 -1 -4
q25 -7 45 -18q11 23 22.5 46.5t23.5 46.5zM336 213q9 21 13.5 38.5t6.5 40.5q-14 -1 -29.5 -1h-29.5h-14q-21 -42 -43 -82.5t-44 -82.5q16 -7 39 -3t54 24q16 13 27.5 29.5t19.5 36.5zM199 300q-16 -21 -25.5 -44t-12 -44.5t1 -40.5t14.5 -31l80 151q-31 3 -58 9zM219 332
q28 -7 54 -8l48 94q-10 11 -22 18.5t-26 12.5q-2 -1 -4.5 -2t-4.5 -1l-9 -3h-1l-4 -3l-7 -4l-2 -2q-3 -3 -4 -3l-8 -10h3q7 -2 19 -5.5t20.5 -9.5t9.5 -13t-13 -16q-10 -6 -14.5 -9t-12.5 -11q-5 -6 -11 -12t-11 -13zM355 350q-4 27 -17 47q-10 -19 -19 -37.5t-19 -36.5h15
q11 1 21.5 1.5t20.5 0.5v12t-2 13z" />
    <glyph glyph-name="bar" unicode="|" horiz-adv-x="135" 
d="M47 801q0 4 6.5 5t14 0.5t14 -3t5.5 -6.5q1 -45 0.5 -88.5t-0.5 -88.5q-1 -155 -5.5 -307t-12.5 -306q0 -4 -6.5 -5t-14 -0.5t-13.5 3t-6 6.5q2 44 3.5 87t3.5 86q6 153 8.5 307t2.5 310z" />
    <glyph glyph-name="acute" unicode="&#xb4;" horiz-adv-x="302" 
d="M112 656q-18 -14 -32.5 -17.5t-23 -0.5t-11 9.5t3.5 11.5q33 32 67 61.5t66 61.5q9 9 22.5 12t24.5 2t16.5 -5.5t-0.5 -11.5q-32 -32 -64.5 -63t-68.5 -60z" />
    <glyph glyph-name="Agrave" unicode="&#xc0;" 
d="M896 361q-11 -35 -19 -68.5t-10 -68.5q-2 -33 -2.5 -66t8.5 -64q6 -14 10.5 -21.5t10 -13t12 -10.5t16.5 -14q8 -5 11.5 -13.5t-1.5 -17.5q-7 -11 -21 -15.5t-25 -7.5q-41 -12 -79 -4t-69 33.5t-51 68.5t-25 103q-17 29 -35.5 55t-40.5 50q-18 -27 -38.5 -57t-43 -61
t-46.5 -59.5t-48 -52.5q-23 -23 -64.5 -40.5t-91 -23t-101.5 6.5t-96 48q-22 17 -38 43.5t-21 55.5q-6 38 4.5 75t33 69.5t54 57t67.5 37.5q71 25 134.5 28.5t114 -4t85 -20.5t46.5 -19q9 -5 18 -10.5t17 -11.5q28 48 60 98t68.5 97.5t79 89.5t92.5 74l1 1q7 11 21 16t25 8
q20 5 39.5 6t38.5 -1q7 -1 22.5 -4t29 -9.5t21 -15.5t-0.5 -22q-50 -78 -96.5 -158t-76.5 -168zM520 269q9 13 16.5 25.5t16.5 24.5q-8 7 -16 13t-17 11t-32 12.5t-52.5 12t-61 3t-56.5 -13.5q-32 -15 -57 -41t-40.5 -58.5t-19 -68.5t8.5 -72q5 -15 13 -28q7 -11 18.5 -21.5
t28.5 -15.5q26 -7 51 1t48.5 25.5t45 42.5t40.5 51.5t35.5 52t29.5 44.5zM667 269q14 88 53.5 172t90.5 169q-12 -13 -22 -25.5t-21 -24.5q-45 -57 -83.5 -118t-77.5 -122q35 -30 58 -65q0 4 2 14zM1007 856q-36 29 -68.5 60t-64.5 63q-6 7 -0.5 11.5t16.5 5.5t24.5 -2
t22.5 -12q32 -32 66 -61.5t67 -61.5q6 -5 3.5 -11.5t-11 -9.5t-23 0.5t-32.5 17.5z" />
    <glyph glyph-name="Aacute" unicode="&#xc1;" 
d="M896 361q-11 -35 -19 -68.5t-10 -68.5q-2 -33 -2.5 -66t8.5 -64q6 -14 10.5 -21.5t10 -13t12 -10.5t16.5 -14q8 -5 11.5 -13.5t-1.5 -17.5q-7 -11 -21 -15.5t-25 -7.5q-41 -12 -79 -4t-69 33.5t-51 68.5t-25 103q-17 29 -35.5 55t-40.5 50q-18 -27 -38.5 -57t-43 -61
t-46.5 -59.5t-48 -52.5q-23 -23 -64.5 -40.5t-91 -23t-101.5 6.5t-96 48q-22 17 -38 43.5t-21 55.5q-6 38 4.5 75t33 69.5t54 57t67.5 37.5q71 25 134.5 28.5t114 -4t85 -20.5t46.5 -19q9 -5 18 -10.5t17 -11.5q28 48 60 98t68.5 97.5t79 89.5t92.5 74l1 1q7 11 21 16t25 8
q20 5 39.5 6t38.5 -1q7 -1 22.5 -4t29 -9.5t21 -15.5t-0.5 -22q-50 -78 -96.5 -158t-76.5 -168zM520 269q9 13 16.5 25.5t16.5 24.5q-8 7 -16 13t-17 11t-32 12.5t-52.5 12t-61 3t-56.5 -13.5q-32 -15 -57 -41t-40.5 -58.5t-19 -68.5t8.5 -72q5 -15 13 -28q7 -11 18.5 -21.5
t28.5 -15.5q26 -7 51 1t48.5 25.5t45 42.5t40.5 51.5t35.5 52t29.5 44.5zM667 269q14 88 53.5 172t90.5 169q-12 -13 -22 -25.5t-21 -24.5q-45 -57 -83.5 -118t-77.5 -122q35 -30 58 -65q0 4 2 14zM979 856q-18 -14 -32.5 -17.5t-23 -0.5t-11 9.5t3.5 11.5q33 32 67 61.5
t66 61.5q9 9 22.5 12t24.5 2t16.5 -5.5t-0.5 -11.5q-32 -32 -64.5 -63t-68.5 -60z" />
    <glyph glyph-name="agrave" unicode="&#xe0;" horiz-adv-x="747" 
d="M755 314q3 5 11 5.5t14.5 -3.5t8.5 -12t-6 -20q-24 -37 -55.5 -74t-69.5 -67t-81 -50t-89 -23q-44 -3 -83.5 5t-66 28t-35 54t9.5 84q-17 -29 -49.5 -60t-73 -53t-83.5 -29t-80 12q-19 8 -33.5 21.5t-22.5 33.5q-13 32 -7.5 63.5t22.5 60.5q17 33 42.5 62t57 51.5t68 38
t74.5 20.5q13 2 39 2.5t53 -4.5t49 -18t27 -38q3 -15 -4 -14t-20 6.5t-31 9t-37 -5.5q-17 -10 -43 -35t-48.5 -56t-36.5 -63.5t-7 -56.5q4 -12 13 -13t20.5 5.5t24.5 19t25 27.5q24 31 49 63t57 57l9 3q7 11 19.5 15.5t23.5 8.5q20 6 39.5 6.5t39.5 -1.5q9 -1 24 -5
t28 -11.5t19.5 -18t-0.5 -25.5q-9 -15 -22.5 -42t-22.5 -56.5t-8.5 -56.5t20.5 -41q12 -9 32.5 -1.5t43.5 25.5t47.5 42.5t46 48.5t37 44.5t21.5 30.5zM409 656q-36 29 -68.5 60t-64.5 63q-6 7 -0.5 11.5t16.5 5.5t24.5 -2t22.5 -12q32 -32 66 -61.5t67 -61.5
q6 -5 3.5 -11.5t-11 -9.5t-23 0.5t-32.5 17.5z" />
    <glyph glyph-name="aacute" unicode="&#xe1;" horiz-adv-x="747" 
d="M755 314q3 5 11 5.5t14.5 -3.5t8.5 -12t-6 -20q-24 -37 -55.5 -74t-69.5 -67t-81 -50t-89 -23q-44 -3 -83.5 5t-66 28t-35 54t9.5 84q-17 -29 -49.5 -60t-73 -53t-83.5 -29t-80 12q-19 8 -33.5 21.5t-22.5 33.5q-13 32 -7.5 63.5t22.5 60.5q17 33 42.5 62t57 51.5t68 38
t74.5 20.5q13 2 39 2.5t53 -4.5t49 -18t27 -38q3 -15 -4 -14t-20 6.5t-31 9t-37 -5.5q-17 -10 -43 -35t-48.5 -56t-36.5 -63.5t-7 -56.5q4 -12 13 -13t20.5 5.5t24.5 19t25 27.5q24 31 49 63t57 57l9 3q7 11 19.5 15.5t23.5 8.5q20 6 39.5 6.5t39.5 -1.5q9 -1 24 -5
t28 -11.5t19.5 -18t-0.5 -25.5q-9 -15 -22.5 -42t-22.5 -56.5t-8.5 -56.5t20.5 -41q12 -9 32.5 -1.5t43.5 25.5t47.5 42.5t46 48.5t37 44.5t21.5 30.5zM338 656q-18 -14 -32.5 -17.5t-23 -0.5t-11 9.5t3.5 11.5q33 32 67 61.5t66 61.5q9 9 22.5 12t24.5 2t16.5 -5.5
t-0.5 -11.5q-32 -32 -64.5 -63t-68.5 -60z" />
    <glyph glyph-name="Aring" unicode="&#xc5;" 
d="M896 361q-11 -35 -19 -68.5t-10 -68.5q-2 -33 -2.5 -66t8.5 -64q6 -14 10.5 -21.5t10 -13t12 -10.5t16.5 -14q8 -5 11.5 -13.5t-1.5 -17.5q-7 -11 -21 -15.5t-25 -7.5q-41 -12 -79 -4t-69 33.5t-51 68.5t-25 103q-17 29 -35.5 55t-40.5 50q-18 -27 -38.5 -57t-43 -61
t-46.5 -59.5t-48 -52.5q-23 -23 -64.5 -40.5t-91 -23t-101.5 6.5t-96 48q-22 17 -38 43.5t-21 55.5q-6 38 4.5 75t33 69.5t54 57t67.5 37.5q71 25 134.5 28.5t114 -4t85 -20.5t46.5 -19q9 -5 18 -10.5t17 -11.5q28 48 60 98t68.5 97.5t79 89.5t92.5 74l1 1q7 11 21 16t25 8
q20 5 39.5 6t38.5 -1q7 -1 22.5 -4t29 -9.5t21 -15.5t-0.5 -22q-50 -78 -96.5 -158t-76.5 -168zM520 269q9 13 16.5 25.5t16.5 24.5q-8 7 -16 13t-17 11t-32 12.5t-52.5 12t-61 3t-56.5 -13.5q-32 -15 -57 -41t-40.5 -58.5t-19 -68.5t8.5 -72q5 -15 13 -28q7 -11 18.5 -21.5
t28.5 -15.5q26 -7 51 1t48.5 25.5t45 42.5t40.5 51.5t35.5 52t29.5 44.5zM667 269q14 88 53.5 172t90.5 169q-12 -13 -22 -25.5t-21 -24.5q-45 -57 -83.5 -118t-77.5 -122q35 -30 58 -65q0 4 2 14zM1107 952q14 -11 21.5 -27.5t0.5 -34.5q-8 -17 -22 -25.5t-30 -13.5
q-20 -7 -41 -9t-43 -1q-16 1 -34.5 5.5t-27.5 20.5q-7 16 -2.5 35.5t13.5 33.5q18 21 43 27.5t54 6.5q17 0 35.5 -3.5t32.5 -14.5zM1047 860q20 9 30.5 28t-0.5 41q-10 20 -35 30q-2 1 -4.5 1t-4.5 1q-12 -4 -25.5 -12.5t-18.5 -20.5q-11 -19 -11 -42q1 -25 22 -34
q11 -4 24 -0.5t23 8.5z" />
    <glyph glyph-name="aring" unicode="&#xe5;" horiz-adv-x="747" 
d="M755 314q3 5 11 5.5t14.5 -3.5t8.5 -12t-6 -20q-24 -37 -55.5 -74t-69.5 -67t-81 -50t-89 -23q-44 -3 -83.5 5t-66 28t-35 54t9.5 84q-17 -29 -49.5 -60t-73 -53t-83.5 -29t-80 12q-19 8 -33.5 21.5t-22.5 33.5q-13 32 -7.5 63.5t22.5 60.5q17 33 42.5 62t57 51.5t68 38
t74.5 20.5q13 2 39 2.5t53 -4.5t49 -18t27 -38q3 -15 -4 -14t-20 6.5t-31 9t-37 -5.5q-17 -10 -43 -35t-48.5 -56t-36.5 -63.5t-7 -56.5q4 -12 13 -13t20.5 5.5t24.5 19t25 27.5q24 31 49 63t57 57l9 3q7 11 19.5 15.5t23.5 8.5q20 6 39.5 6.5t39.5 -1.5q9 -1 24 -5
t28 -11.5t19.5 -18t-0.5 -25.5q-9 -15 -22.5 -42t-22.5 -56.5t-8.5 -56.5t20.5 -41q12 -9 32.5 -1.5t43.5 25.5t47.5 42.5t46 48.5t37 44.5t21.5 30.5zM450 752q14 -11 21.5 -27.5t0.5 -34.5q-8 -17 -22 -25.5t-30 -13.5q-20 -7 -41 -9t-43 -1q-16 1 -34.5 5.5t-27.5 20.5
q-7 16 -2.5 35.5t13.5 33.5q18 21 43 27.5t54 6.5q17 0 35.5 -3.5t32.5 -14.5zM390 660q20 9 30.5 28t-0.5 41q-10 20 -35 30q-2 1 -4.5 1t-4.5 1q-12 -4 -25.5 -12.5t-18.5 -20.5q-11 -19 -11 -42q1 -25 22 -34q11 -4 24 -0.5t23 8.5z" />
    <glyph glyph-name="egrave" unicode="&#xe8;" horiz-adv-x="541" 
d="M572 305q5 -2 5 -13t-13 -22l-78 -62t-81 -57.5t-87.5 -46.5t-96.5 -28q-32 -5 -68.5 -4.5t-70 7.5t-61 21t-40.5 38q-10 17 -12 41t1 48.5t9.5 48t15.5 39.5q18 34 47 60.5t63.5 45t73 28t77.5 11.5q10 0 28 0.5t35.5 -3t30.5 -11.5t13 -24q0 -34 -21 -62.5t-51 -51.5
t-64.5 -40.5t-61.5 -29.5q-10 -34 -7 -60.5t17.5 -43.5t40.5 -22t61 5q37 12 74.5 34t72 48t65 52.5t55.5 46.5q7 5 13.5 7.5t14.5 -0.5zM304 426q-12 -7 -28 -22t-33 -34.5t-33 -43.5t-29 -49q21 10 45.5 26.5t44.5 36.5t30 42t3 44zM306 656q-36 29 -68.5 60t-64.5 63
q-6 7 -0.5 11.5t16.5 5.5t24.5 -2t22.5 -12q32 -32 66 -61.5t67 -61.5q6 -5 3.5 -11.5t-11 -9.5t-23 0.5t-32.5 17.5z" />
    <glyph glyph-name="eacute" unicode="&#xe9;" horiz-adv-x="541" 
d="M572 305q5 -2 5 -13t-13 -22l-78 -62t-81 -57.5t-87.5 -46.5t-96.5 -28q-32 -5 -68.5 -4.5t-70 7.5t-61 21t-40.5 38q-10 17 -12 41t1 48.5t9.5 48t15.5 39.5q18 34 47 60.5t63.5 45t73 28t77.5 11.5q10 0 28 0.5t35.5 -3t30.5 -11.5t13 -24q0 -34 -21 -62.5t-51 -51.5
t-64.5 -40.5t-61.5 -29.5q-10 -34 -7 -60.5t17.5 -43.5t40.5 -22t61 5q37 12 74.5 34t72 48t65 52.5t55.5 46.5q7 5 13.5 7.5t14.5 -0.5zM304 426q-12 -7 -28 -22t-33 -34.5t-33 -43.5t-29 -49q21 10 45.5 26.5t44.5 36.5t30 42t3 44zM235 656q-18 -14 -32.5 -17.5t-23 -0.5
t-11 9.5t3.5 11.5q33 32 67 61.5t66 61.5q9 9 22.5 12t24.5 2t16.5 -5.5t-0.5 -11.5q-32 -32 -64.5 -63t-68.5 -60z" />
    <glyph glyph-name="Eacute" unicode="&#xc9;" horiz-adv-x="749" 
d="M794 729q-10 -14 -17.5 -34.5t-13 -43t-8 -45.5t-2.5 -44q0 -7 -15 -11t-34 -4t-34.5 3.5t-15.5 11.5q-1 68 23 131q-64 0 -121.5 -26t-105.5 -71q-18 -19 -34.5 -42.5t-25 -48.5t-5.5 -50.5t24 -47.5q17 -12 42 -16.5t50 -6t46.5 -1.5t32.5 -1q6 -1 9 -4.5t3 -5.5
q0 -14 -14.5 -28.5t-32.5 -25t-35 -16t-23 -2.5q-10 5 -26 7.5t-32 3.5t-29.5 1h-18.5h-8h-1q-56 0 -98 -26t-66 -64t-27 -81t17 -78t66 -54.5t122 -9.5q66 8 139 44t135 92q15 15 28.5 19.5t17.5 -1.5t-4 -22.5t-36 -43.5q-47 -42 -108 -72.5t-130 -45.5t-143 -12t-147 28
q-35 12 -62.5 36t-46 55t-26 67t-1.5 72q5 32 28 65t57.5 58t75.5 38.5t82 7.5q-8 5 -14.5 7.5t-13.5 8.5q-23 21 -27 46.5t4 52t26.5 53t41 49.5t46 41.5t43.5 29.5q39 24 85 37.5t92.5 19t88.5 3.5t73 -9q1 4 3 6.5t4 5.5q3 9 19.5 10.5t34.5 -0.5t31.5 -7t11.5 -9z
M509 856q-18 -14 -32.5 -17.5t-23 -0.5t-11 9.5t3.5 11.5q33 32 67 61.5t66 61.5q9 9 22.5 12t24.5 2t16.5 -5.5t-0.5 -11.5q-32 -32 -64.5 -63t-68.5 -60z" />
    <glyph glyph-name="Egrave" unicode="&#xc8;" horiz-adv-x="749" 
d="M794 729q-10 -14 -17.5 -34.5t-13 -43t-8 -45.5t-2.5 -44q0 -7 -15 -11t-34 -4t-34.5 3.5t-15.5 11.5q-1 68 23 131q-64 0 -121.5 -26t-105.5 -71q-18 -19 -34.5 -42.5t-25 -48.5t-5.5 -50.5t24 -47.5q17 -12 42 -16.5t50 -6t46.5 -1.5t32.5 -1q6 -1 9 -4.5t3 -5.5
q0 -14 -14.5 -28.5t-32.5 -25t-35 -16t-23 -2.5q-10 5 -26 7.5t-32 3.5t-29.5 1h-18.5h-8h-1q-56 0 -98 -26t-66 -64t-27 -81t17 -78t66 -54.5t122 -9.5q66 8 139 44t135 92q15 15 28.5 19.5t17.5 -1.5t-4 -22.5t-36 -43.5q-47 -42 -108 -72.5t-130 -45.5t-143 -12t-147 28
q-35 12 -62.5 36t-46 55t-26 67t-1.5 72q5 32 28 65t57.5 58t75.5 38.5t82 7.5q-8 5 -14.5 7.5t-13.5 8.5q-23 21 -27 46.5t4 52t26.5 53t41 49.5t46 41.5t43.5 29.5q39 24 85 37.5t92.5 19t88.5 3.5t73 -9q1 4 3 6.5t4 5.5q3 9 19.5 10.5t34.5 -0.5t31.5 -7t11.5 -9z
M557 856q-36 29 -68.5 60t-64.5 63q-6 7 -0.5 11.5t16.5 5.5t24.5 -2t22.5 -12q32 -32 66 -61.5t67 -61.5q6 -5 3.5 -11.5t-11 -9.5t-23 0.5t-32.5 17.5z" />
    <glyph glyph-name="Igrave" unicode="&#xcc;" horiz-adv-x="479" 
d="M570 700q11 -15 5.5 -43t-23 -65.5t-43 -82t-54 -92.5t-57 -97t-51.5 -96q-10 -21 -22 -46.5t-21 -53t-11.5 -55t5.5 -52.5q3 -7 7 -9q3 -3 4 -3q1 -1 1 -2q8 -3 12 -9t-1 -13q-9 -11 -34 -16.5t-54 -5.5t-56.5 4t-41.5 12q-29 13 -38.5 39t-5.5 56q9 67 43.5 140.5
t79 148.5t90.5 148.5t78 139.5q1 3 5.5 13t5 20t-6.5 16t-28 -1q-18 -8 -47 -26.5t-60 -44t-59.5 -57t-46.5 -66t-20 -70.5t21 -70q1 -2 -9 -4t-22 -3.5t-23 -2.5l-11 -1q-8 -1 -16 -1t-16 4q-25 15 -35.5 42t-6.5 55q5 32 23.5 58.5t41.5 47.5q54 51 118 89.5t133 64.5
q22 9 49 14.5t54.5 7t53 0t44.5 -6.5q12 -3 25.5 -8.5t20.5 -16.5zM527 856q-36 29 -68.5 60t-64.5 63q-6 7 -0.5 11.5t16.5 5.5t24.5 -2t22.5 -12q32 -32 66 -61.5t67 -61.5q6 -5 3.5 -11.5t-11 -9.5t-23 0.5t-32.5 17.5z" />
    <glyph glyph-name="Iacute" unicode="&#xcd;" horiz-adv-x="479" 
d="M570 700q11 -15 5.5 -43t-23 -65.5t-43 -82t-54 -92.5t-57 -97t-51.5 -96q-10 -21 -22 -46.5t-21 -53t-11.5 -55t5.5 -52.5q3 -7 7 -9q3 -3 4 -3q1 -1 1 -2q8 -3 12 -9t-1 -13q-9 -11 -34 -16.5t-54 -5.5t-56.5 4t-41.5 12q-29 13 -38.5 39t-5.5 56q9 67 43.5 140.5
t79 148.5t90.5 148.5t78 139.5q1 3 5.5 13t5 20t-6.5 16t-28 -1q-18 -8 -47 -26.5t-60 -44t-59.5 -57t-46.5 -66t-20 -70.5t21 -70q1 -2 -9 -4t-22 -3.5t-23 -2.5l-11 -1q-8 -1 -16 -1t-16 4q-25 15 -35.5 42t-6.5 55q5 32 23.5 58.5t41.5 47.5q54 51 118 89.5t133 64.5
q22 9 49 14.5t54.5 7t53 0t44.5 -6.5q12 -3 25.5 -8.5t20.5 -16.5zM495 856q-18 -14 -32.5 -17.5t-23 -0.5t-11 9.5t3.5 11.5q33 32 67 61.5t66 61.5q9 9 22.5 12t24.5 2t16.5 -5.5t-0.5 -11.5q-32 -32 -64.5 -63t-68.5 -60z" />
    <glyph glyph-name="Ograve" unicode="&#xd2;" horiz-adv-x="718" 
d="M586 686q37 -19 58.5 -53t30.5 -76t7.5 -89.5t-10.5 -93.5t-22.5 -88.5t-28.5 -73.5q-33 -71 -86.5 -130t-120.5 -96t-144.5 -45.5t-159.5 21.5q-39 18 -62 49t-31 70t-4 82.5t19 87.5q-7 8 -12.5 17.5t-8.5 19.5q-15 38 -13.5 79t15.5 81t38 77.5t56 69.5
q41 40 83.5 65.5t84 39.5t80.5 18t74 3q81 -4 157 -35zM340 -15q61 28 110 80t83 117t53 137.5t20 140.5q1 35 -5 78t-23.5 78.5t-49 54t-81.5 5.5q-40 -14 -78 -39t-70 -58.5t-56.5 -73.5t-36.5 -83q7 0 14 -0.5t13 -1.5q14 -2 30.5 -8t25.5 -16q7 -8 9 -20t-6 -23
q-17 -19 -30 -41.5t-28 -54.5q11 -8 27 -12q14 -4 34.5 -6t49.5 3q28 4 53 15t44 24q22 14 41 32q3 1 7 1q7 0 8 -4q4 -2 3.5 -14.5t-18.5 -25.5q-57 -42 -127 -61t-141 -7q-7 -21 -10 -58.5t2.5 -74t22.5 -65t50 -31.5q11 -2 25 0t31 10zM394 856q-36 29 -68.5 60t-64.5 63
q-6 7 -0.5 11.5t16.5 5.5t24.5 -2t22.5 -12q32 -32 66 -61.5t67 -61.5q6 -5 3.5 -11.5t-11 -9.5t-23 0.5t-32.5 17.5z" />
    <glyph glyph-name="Oacute" unicode="&#xd3;" horiz-adv-x="718" 
d="M586 686q37 -19 58.5 -53t30.5 -76t7.5 -89.5t-10.5 -93.5t-22.5 -88.5t-28.5 -73.5q-33 -71 -86.5 -130t-120.5 -96t-144.5 -45.5t-159.5 21.5q-39 18 -62 49t-31 70t-4 82.5t19 87.5q-7 8 -12.5 17.5t-8.5 19.5q-15 38 -13.5 79t15.5 81t38 77.5t56 69.5
q41 40 83.5 65.5t84 39.5t80.5 18t74 3q81 -4 157 -35zM340 -15q61 28 110 80t83 117t53 137.5t20 140.5q1 35 -5 78t-23.5 78.5t-49 54t-81.5 5.5q-40 -14 -78 -39t-70 -58.5t-56.5 -73.5t-36.5 -83q7 0 14 -0.5t13 -1.5q14 -2 30.5 -8t25.5 -16q7 -8 9 -20t-6 -23
q-17 -19 -30 -41.5t-28 -54.5q11 -8 27 -12q14 -4 34.5 -6t49.5 3q28 4 53 15t44 24q22 14 41 32q3 1 7 1q7 0 8 -4q4 -2 3.5 -14.5t-18.5 -25.5q-57 -42 -127 -61t-141 -7q-7 -21 -10 -58.5t2.5 -74t22.5 -65t50 -31.5q11 -2 25 0t31 10zM391 856q-18 -14 -32.5 -17.5
t-23 -0.5t-11 9.5t3.5 11.5q33 32 67 61.5t66 61.5q9 9 22.5 12t24.5 2t16.5 -5.5t-0.5 -11.5q-32 -32 -64.5 -63t-68.5 -60z" />
    <glyph glyph-name="ograve" unicode="&#xf2;" horiz-adv-x="539" 
d="M572 370q16 5 25 2t12 -9t-0.5 -12.5t-12.5 -9.5q-49 -17 -93 -28t-95 -18v-1q-2 -34 -12.5 -61.5t-27.5 -56.5q-27 -46 -64.5 -69.5t-74 -32t-68.5 -7t-49 4.5q-46 8 -81 31.5t-49 70.5q-11 34 -4.5 70.5t22.5 68.5q3 6 6 11t7 11q-2 0 -2 2q-12 27 -5.5 52t24 46
t41.5 36.5t48 22.5q35 10 72.5 10.5t72.5 -10.5q6 -2 17.5 -8.5t11.5 -15.5q0 -2 -1 -4q23 -6 43 -16.5t36 -26.5q18 -19 26.5 -43t10.5 -50q42 6 83 16t81 24zM355 350q-5 38 -28 63t-54 36q-2 -1 -4.5 -2t-4.5 -1l-9 -3h-1q-2 -2 -4 -3q-4 -2 -7 -4l-2 -2q-3 -3 -4 -3
q-2 -2 -4 -4.5t-4 -5.5h3q7 -2 19 -5.5t20.5 -9.5t9.5 -13t-13 -16q-10 -6 -14.5 -9t-12.5 -11q-5 -6 -11 -12t-11 -13q23 -5 47.5 -7t48.5 -2q11 1 21.5 1.5t20.5 0.5v12t-2 13zM336 213q9 21 13.5 38.5t6.5 40.5q-14 -1 -29.5 -1h-29.5q-48 -2 -98 9q-18 -23 -27.5 -49.5
t-11 -50.5t6 -43t23.5 -28.5t40.5 -6t58.5 24.5q16 13 27.5 29.5t19.5 36.5zM305 656q-36 29 -68.5 60t-64.5 63q-6 7 -0.5 11.5t16.5 5.5t24.5 -2t22.5 -12q32 -32 66 -61.5t67 -61.5q6 -5 3.5 -11.5t-11 -9.5t-23 0.5t-32.5 17.5z" />
    <glyph glyph-name="oacute" unicode="&#xf3;" horiz-adv-x="539" 
d="M572 370q16 5 25 2t12 -9t-0.5 -12.5t-12.5 -9.5q-49 -17 -93 -28t-95 -18v-1q-2 -34 -12.5 -61.5t-27.5 -56.5q-27 -46 -64.5 -69.5t-74 -32t-68.5 -7t-49 4.5q-46 8 -81 31.5t-49 70.5q-11 34 -4.5 70.5t22.5 68.5q3 6 6 11t7 11q-2 0 -2 2q-12 27 -5.5 52t24 46
t41.5 36.5t48 22.5q35 10 72.5 10.5t72.5 -10.5q6 -2 17.5 -8.5t11.5 -15.5q0 -2 -1 -4q23 -6 43 -16.5t36 -26.5q18 -19 26.5 -43t10.5 -50q42 6 83 16t81 24zM355 350q-5 38 -28 63t-54 36q-2 -1 -4.5 -2t-4.5 -1l-9 -3h-1q-2 -2 -4 -3q-4 -2 -7 -4l-2 -2q-3 -3 -4 -3
q-2 -2 -4 -4.5t-4 -5.5h3q7 -2 19 -5.5t20.5 -9.5t9.5 -13t-13 -16q-10 -6 -14.5 -9t-12.5 -11q-5 -6 -11 -12t-11 -13q23 -5 47.5 -7t48.5 -2q11 1 21.5 1.5t20.5 0.5v12t-2 13zM336 213q9 21 13.5 38.5t6.5 40.5q-14 -1 -29.5 -1h-29.5q-48 -2 -98 9q-18 -23 -27.5 -49.5
t-11 -50.5t6 -43t23.5 -28.5t40.5 -6t58.5 24.5q16 13 27.5 29.5t19.5 36.5zM234 656q-18 -14 -32.5 -17.5t-23 -0.5t-11 9.5t3.5 11.5q33 32 67 61.5t66 61.5q9 9 22.5 12t24.5 2t16.5 -5.5t-0.5 -11.5q-32 -32 -64.5 -63t-68.5 -60z" />
    <glyph glyph-name="igrave" unicode="&#xec;" horiz-adv-x="452" 
d="M-24 217q3 25 9.5 57.5t16.5 65t23 61t29 45.5q5 6 13.5 7.5t16.5 3.5h14t34 -0.5t43 -1t42 -1.5t30.5 -3t9.5 -5q-14 -20 -28.5 -44.5t-27 -51t-22 -53.5t-15.5 -50q-5 -18 -10 -43t-3.5 -46.5t12.5 -35t40 -8.5q20 3 45 19t51.5 38t52.5 46.5t49 45.5t40 36t26 17
q7 5 16.5 5t16 -3.5t7 -10t-10.5 -14.5q-26 -20 -49 -38t-44 -38q-27 -24 -55 -49t-58 -46.5t-64.5 -37t-74.5 -20.5q-30 -3 -63 -0.5t-60 18.5t-42.5 48t-9.5 87zM261 656q-36 29 -68.5 60t-64.5 63q-6 7 -0.5 11.5t16.5 5.5t24.5 -2t22.5 -12q32 -32 66 -61.5t67 -61.5
q6 -5 3.5 -11.5t-11 -9.5t-23 0.5t-32.5 17.5z" />
    <glyph glyph-name="iacute" unicode="&#xed;" horiz-adv-x="452" 
d="M-24 217q3 25 9.5 57.5t16.5 65t23 61t29 45.5q5 6 13.5 7.5t16.5 3.5h14t34 -0.5t43 -1t42 -1.5t30.5 -3t9.5 -5q-14 -20 -28.5 -44.5t-27 -51t-22 -53.5t-15.5 -50q-5 -18 -10 -43t-3.5 -46.5t12.5 -35t40 -8.5q20 3 45 19t51.5 38t52.5 46.5t49 45.5t40 36t26 17
q7 5 16.5 5t16 -3.5t7 -10t-10.5 -14.5q-26 -20 -49 -38t-44 -38q-27 -24 -55 -49t-58 -46.5t-64.5 -37t-74.5 -20.5q-30 -3 -63 -0.5t-60 18.5t-42.5 48t-9.5 87zM190 656q-18 -14 -32.5 -17.5t-23 -0.5t-11 9.5t3.5 11.5q33 32 67 61.5t66 61.5q9 9 22.5 12t24.5 2
t16.5 -5.5t-0.5 -11.5q-32 -32 -64.5 -63t-68.5 -60z" />
    <glyph glyph-name="Ugrave" unicode="&#xd9;" horiz-adv-x="962" 
d="M988 739q13 -2 26 -7t21.5 -14.5t10 -22.5t-8.5 -29q-88 -143 -150.5 -297t-93.5 -322q0 -2 -1 -10.5t-1.5 -19.5t0.5 -21.5t4 -16.5q4 -6 10 -8.5t11.5 -4t8.5 -2.5t3 -3t-7.5 -7.5t-17.5 -11t-20 -9.5t-14 -4h-1q-10 -3 -26.5 -5.5t-35 -2t-38.5 6t-36 18.5
q-29 23 -36 57t-2 73t18 80.5t24 79.5q-5 -6 -17.5 -24.5t-32 -42.5t-44.5 -51t-54.5 -51t-63 -41.5t-69.5 -22.5q-74 -12 -132 3t-92 53.5t-39.5 97.5t26.5 136q17 41 41 88t51 95t54 94.5t51 85.5q-17 2 -39.5 -9t-46.5 -32t-48.5 -49t-46.5 -59.5t-39 -64t-27 -61.5
q-3 -10 -15 -8.5t-24.5 11.5t-20.5 26t-2 34q16 51 47 91t69.5 70t80.5 50.5t80.5 32.5t70 15.5t49.5 0.5q11 -2 31.5 -6t38.5 -11t28 -18t1 -26q-74 -117 -131 -239q-13 -28 -30 -62t-32 -69t-26 -69t-13 -63t8 -51.5t36 -33.5q25 -7 51 -3.5t50.5 14.5t46.5 28.5t40 38.5
q74 85 122 157t84 138t68.5 131t75.5 137q8 15 25 23.5t32 13.5q20 7 40.5 7.5t38.5 -2.5zM707 856q-36 29 -68.5 60t-64.5 63q-6 7 -0.5 11.5t16.5 5.5t24.5 -2t22.5 -12q32 -32 66 -61.5t67 -61.5q6 -5 3.5 -11.5t-11 -9.5t-23 0.5t-32.5 17.5z" />
    <glyph glyph-name="Uacute" unicode="&#xda;" horiz-adv-x="962" 
d="M988 739q13 -2 26 -7t21.5 -14.5t10 -22.5t-8.5 -29q-88 -143 -150.5 -297t-93.5 -322q0 -2 -1 -10.5t-1.5 -19.5t0.5 -21.5t4 -16.5q4 -6 10 -8.5t11.5 -4t8.5 -2.5t3 -3t-7.5 -7.5t-17.5 -11t-20 -9.5t-14 -4h-1q-10 -3 -26.5 -5.5t-35 -2t-38.5 6t-36 18.5
q-29 23 -36 57t-2 73t18 80.5t24 79.5q-5 -6 -17.5 -24.5t-32 -42.5t-44.5 -51t-54.5 -51t-63 -41.5t-69.5 -22.5q-74 -12 -132 3t-92 53.5t-39.5 97.5t26.5 136q17 41 41 88t51 95t54 94.5t51 85.5q-17 2 -39.5 -9t-46.5 -32t-48.5 -49t-46.5 -59.5t-39 -64t-27 -61.5
q-3 -10 -15 -8.5t-24.5 11.5t-20.5 26t-2 34q16 51 47 91t69.5 70t80.5 50.5t80.5 32.5t70 15.5t49.5 0.5q11 -2 31.5 -6t38.5 -11t28 -18t1 -26q-74 -117 -131 -239q-13 -28 -30 -62t-32 -69t-26 -69t-13 -63t8 -51.5t36 -33.5q25 -7 51 -3.5t50.5 14.5t46.5 28.5t40 38.5
q74 85 122 157t84 138t68.5 131t75.5 137q8 15 25 23.5t32 13.5q20 7 40.5 7.5t38.5 -2.5zM702 856q-18 -14 -32.5 -17.5t-23 -0.5t-11 9.5t3.5 11.5q33 32 67 61.5t66 61.5q9 9 22.5 12t24.5 2t16.5 -5.5t-0.5 -11.5q-32 -32 -64.5 -63t-68.5 -60z" />
    <glyph glyph-name="Yacute" unicode="&#xdd;" horiz-adv-x="795" 
d="M853 631q-25 -86 -61 -174.5t-79.5 -168.5t-94 -145.5t-104.5 -105.5q-31 -24 -66 -38t-72.5 -20.5t-75.5 -7.5t-74 2q-29 5 -48.5 15t-32 20.5t-17.5 20.5t-5 15q1 11 11.5 17t17.5 4q4 -1 10.5 -9.5t17.5 -17.5t29 -15.5t44 -4.5q41 5 78.5 34.5t71 74t64 100t57 112
t50 110t43.5 94.5q-26 -29 -66.5 -59.5t-88.5 -57t-99 -46t-98 -26t-85.5 3t-60.5 41.5q-14 18 -13.5 42t10 51t26.5 55.5t35.5 55.5t36 51t29.5 43q-23 4 -54 -10.5t-59.5 -42t-49 -65t-21.5 -78.5q0 -8 -12 -7.5t-26.5 5.5t-27 13t-12.5 17q3 38 23 70t50.5 56t68 42
t76 28t74.5 13.5t63 0.5v-1h1q18 0 36.5 -5.5t33 -14t23 -18.5t5.5 -19q-36 -57 -68.5 -113.5t-54.5 -122.5q-10 -28 -6 -40t17 -13t32.5 8t42.5 23q68 42 128 92t111 115q9 12 16 25.5t13 25t13 19.5t18 9q7 1 23 1.5t35.5 -1t40 -6t35.5 -13.5t22 -23t0 -35v-1zM596 856
q-18 -14 -32.5 -17.5t-23 -0.5t-11 9.5t3.5 11.5q33 32 67 61.5t66 61.5q9 9 22.5 12t24.5 2t16.5 -5.5t-0.5 -11.5q-32 -32 -64.5 -63t-68.5 -60z" />
    <glyph glyph-name="ugrave" unicode="&#xf9;" horiz-adv-x="1009" 
d="M981 266q14 17 26.5 32.5t23.5 27.5q3 4 9 2.5t11.5 -6.5t8 -11.5t-1.5 -10.5q-15 -18 -26 -31.5t-24 -27.5h1q-37 -39 -84.5 -83t-99.5 -81.5t-106 -61.5t-103 -22q-11 0 -30.5 4t-41.5 14.5t-43 29.5t-35 51t-17.5 78.5t9.5 111.5l4 16q-8 -10 -35 -35.5t-66 -51.5
t-87.5 -45t-99.5 -17q-34 2 -71.5 10.5t-63.5 33.5q-42 42 -44 101q-2 20 2.5 42t13 43t20 40.5t24.5 36.5q6 8 21.5 9.5t25.5 3.5q20 3 39 3.5t39 -0.5q3 0 17 -1.5t28.5 -4.5t23.5 -8.5t3 -13.5t-11 -17q-17 -27 -27.5 -56.5t-17.5 -58.5q-3 -14 -1.5 -31t8.5 -32t19 -26
t30 -12q24 -2 52 12t54.5 35t48.5 43.5t34 38.5q13 17 25.5 35t23.5 36q5 8 9.5 16t8.5 16q2 7 5 10v1q0 2 3 4q14 20 42 25.5t51 6.5q18 1 37.5 -2.5t34.5 -11.5q8 -4 20 -14t10 -22q-8 -38 -22 -75.5t-25 -75.5q-4 -13 -9.5 -38t-9.5 -53.5t-4 -57.5t8.5 -49.5t27 -29.5
t52.5 2q55 18 112 65.5t110 104.5l1 1l29 33v-1zM540 656q-36 29 -68.5 60t-64.5 63q-6 7 -0.5 11.5t16.5 5.5t24.5 -2t22.5 -12q32 -32 66 -61.5t67 -61.5q6 -5 3.5 -11.5t-11 -9.5t-23 0.5t-32.5 17.5z" />
    <glyph glyph-name="uacute" unicode="&#xfa;" horiz-adv-x="1009" 
d="M981 266q14 17 26.5 32.5t23.5 27.5q3 4 9 2.5t11.5 -6.5t8 -11.5t-1.5 -10.5q-15 -18 -26 -31.5t-24 -27.5h1q-37 -39 -84.5 -83t-99.5 -81.5t-106 -61.5t-103 -22q-11 0 -30.5 4t-41.5 14.5t-43 29.5t-35 51t-17.5 78.5t9.5 111.5l4 16q-8 -10 -35 -35.5t-66 -51.5
t-87.5 -45t-99.5 -17q-34 2 -71.5 10.5t-63.5 33.5q-42 42 -44 101q-2 20 2.5 42t13 43t20 40.5t24.5 36.5q6 8 21.5 9.5t25.5 3.5q20 3 39 3.5t39 -0.5q3 0 17 -1.5t28.5 -4.5t23.5 -8.5t3 -13.5t-11 -17q-17 -27 -27.5 -56.5t-17.5 -58.5q-3 -14 -1.5 -31t8.5 -32t19 -26
t30 -12q24 -2 52 12t54.5 35t48.5 43.5t34 38.5q13 17 25.5 35t23.5 36q5 8 9.5 16t8.5 16q2 7 5 10v1q0 2 3 4q14 20 42 25.5t51 6.5q18 1 37.5 -2.5t34.5 -11.5q8 -4 20 -14t10 -22q-8 -38 -22 -75.5t-25 -75.5q-4 -13 -9.5 -38t-9.5 -53.5t-4 -57.5t8.5 -49.5t27 -29.5
t52.5 2q55 18 112 65.5t110 104.5l1 1l29 33v-1zM469 656q-18 -14 -32.5 -17.5t-23 -0.5t-11 9.5t3.5 11.5q33 32 67 61.5t66 61.5q9 9 22.5 12t24.5 2t16.5 -5.5t-0.5 -11.5q-32 -32 -64.5 -63t-68.5 -60z" />
    <glyph glyph-name="yacute" unicode="&#xfd;" horiz-adv-x="845" 
d="M865 329q7 4 18 4.5t17 -3t4 -10.5t-19 -19q-13 -8 -38 -22.5t-56 -31.5t-66 -35t-66.5 -33.5t-57.5 -27t-39 -15.5q-15 -70 -39.5 -151t-63.5 -155.5t-96 -132.5t-138 -82q-36 -11 -72.5 -13t-69.5 6t-60.5 26.5t-45.5 49.5q-23 38 -15 80.5t31 77.5q13 19 36.5 39
t53.5 40.5t64 41t69 39t68 35.5t60 31q20 72 29.5 144.5t20.5 144.5q-18 -30 -36.5 -64.5t-40.5 -66.5t-50 -58t-66 -39q-33 -12 -71.5 -7t-67.5 25q-32 24 -47.5 56.5t-18.5 70.5t4 80t20 85q6 19 32.5 30t59.5 14.5t63.5 -0.5t43.5 -16q5 -5 5.5 -12t-1 -14.5t-4.5 -15.5
t-4 -14q-2 -5 -5.5 -23.5t-7 -42.5t-5.5 -50t1.5 -47t12.5 -33.5t28 -8.5q9 1 18 10t17 22t15 26t12 22q23 41 45.5 81t57.5 73q0 1 0.5 1t0.5 1q4 4 21 9.5t40 10.5t48.5 8t46.5 1.5t34 -9t12 -23.5q-2 -20 -7 -55.5t-10.5 -74.5t-11 -74.5t-9.5 -55.5q0 -2 -0.5 -2.5
t-0.5 -2.5q31 13 74.5 34.5t87 44t80.5 43.5t55 33zM76 -336q37 0 67.5 18.5t55.5 49t45.5 68.5t36.5 77.5t28.5 76t22.5 63.5q-10 -6 -38 -18.5t-64.5 -31t-76.5 -43.5t-72.5 -55.5t-53 -65.5t-18.5 -75q0 -10 5 -21t13.5 -20.5t20.5 -16t28 -6.5zM387 656
q-18 -14 -32.5 -17.5t-23 -0.5t-11 9.5t3.5 11.5q33 32 67 61.5t66 61.5q9 9 22.5 12t24.5 2t16.5 -5.5t-0.5 -11.5q-32 -32 -64.5 -63t-68.5 -60z" />
    <glyph glyph-name="dollar" unicode="$" horiz-adv-x="518" 
d="M311 685q0 3 8 4t17 0.5t16 -3t6 -5.5l-12 -75q27 -1 50 -5t41 -9q36 -15 50 -38.5t13 -49t-14 -48.5t-31 -35q-7 -5 -21 -8t-29.5 -4.5t-29 -1.5t-19.5 1q-4 1 -8.5 2t2.5 6q3 -1 13 7.5t22 22t24 30.5t19.5 33.5t9 30t-7.5 20.5q-15 11 -39 13.5t-51 -1.5l-9 -48
q-7 -38 -14 -75t-15 -75q25 -16 51.5 -32t48.5 -34.5t36.5 -40t16.5 -47.5q3 -42 -10 -74q-12 -29 -34 -48.5t-51 -31.5t-62.5 -17t-67.5 -5q-4 -17 -7.5 -32.5t-8.5 -32.5q0 -3 -7.5 -4.5t-16.5 -0.5t-15.5 3t-5.5 5q5 17 8.5 32.5t7.5 32.5q-50 5 -90.5 19.5t-60.5 34.5
q-27 29 -32 63.5t14 65.5q16 17 39.5 26.5t46.5 11.5q5 0 16.5 -0.5t13.5 -6.5q3 -6 -5 -8t-13 -2q-22 -2 -38.5 -17t-24 -35.5t-5 -42.5t17.5 -38q24 -24 58 -33.5t69 -6.5q3 15 6 29.5t5 28.5q8 35 15.5 69t15.5 69q-39 21 -78 42.5t-58 46.5q-26 34 -27.5 68t16 64
t50.5 53.5t77 37.5q23 7 43.5 11t40.5 6q4 20 7.5 41t6.5 41zM212 464q4 -17 16.5 -32t31.5 -29q8 40 15 79l14 78q-10 -3 -19 -7t-17 -9q-23 -12 -35 -33t-6 -47zM323 182q3 18 -10.5 34.5t-36.5 31.5q-8 -40 -17 -79.5t-18 -78.5q32 12 54.5 35.5t27.5 56.5z" />
    <glyph glyph-name="Ccedilla" unicode="&#xc7;" horiz-adv-x="628" 
d="M228 -32q28 -4 47.5 -23t15.5 -49q-2 -29 -24.5 -45.5t-48.5 -22.5q-15 -3 -33 -4.5t-35 1t-32 9t-25 20.5q-2 3 1.5 5.5t8.5 3.5t10 1.5t7 0.5q8 1 14.5 1.5t11.5 -7.5q12 -11 24 -11.5t21.5 5.5t16 17.5t8.5 25.5t-3.5 28.5t-18.5 23.5q-11 -9 -16 -17q-2 -4 -8 -5.5
t-13.5 -1.5t-14.5 0.5t-10 0.5q-2 0 -7 0.5t-10.5 1.5t-8.5 3t0 6q13 21 38 28q3 14 6.5 27.5t7.5 27.5q-45 12 -81.5 36.5t-56.5 65.5q-25 56 -24 114t20.5 113t52.5 105t72 90q37 39 82.5 73.5t96 61t105 42t109.5 17.5q44 -3 68 -15.5t36 -26.5q14 -17 17 -37
q0 -19 -1.5 -34t-5.5 -30t-11 -31t-19 -37q-1 -14 -24 -26t-49.5 -19t-48.5 -6.5t-21 12.5q1 10 10 30.5t21 45.5t24.5 50.5t19 45.5t4.5 31.5t-18 8.5q-42 -15 -88.5 -47t-89.5 -75.5t-79.5 -96t-58.5 -109t-26.5 -114.5t16.5 -112q10 -27 28 -48.5t43 -34.5t56.5 -15.5
t70.5 9.5q38 12 68.5 40t56.5 61q5 2 11.5 8t11.5 5q3 -1 7 -4t5.5 -9t-1 -15.5t-12.5 -22.5q-30 -30 -65.5 -54t-76.5 -39q-41 -13 -95.5 -18.5t-111.5 1.5q-2 -9 -5 -18.5t-6 -18.5l33 -4v0z" />
    <glyph glyph-name="AE" unicode="&#xc6;" horiz-adv-x="1401" 
d="M1446 729q-10 -14 -17.5 -34.5t-13 -43t-8 -45.5t-2.5 -44q0 -7 -15 -11t-34 -4t-34.5 3.5t-15.5 11.5q-1 68 23 131q-64 0 -121.5 -26t-105.5 -71q-18 -19 -34.5 -42.5t-25 -48.5t-5.5 -50.5t24 -47.5q17 -12 42 -16.5t50 -6t46.5 -1.5t32.5 -1q6 -1 9 -4.5t3 -5.5
q0 -14 -14.5 -28.5t-32.5 -25t-35 -16t-23 -2.5q-10 5 -26 7.5t-32 3.5t-29.5 1h-18.5h-9q-57 0 -98.5 -26t-65.5 -64t-27 -81t17 -78t66 -54.5t122 -9.5q66 8 139 44t135 92q15 15 28.5 19.5t17.5 -1.5t-4 -22.5t-36 -43.5q-45 -40 -101.5 -69t-120.5 -45t-133.5 -16
t-138.5 18q-41 4 -76 30q-24 16 -43.5 38t-32 48.5t-18 55t-2.5 57.5q-14 22 -29.5 42.5t-32.5 40.5q-18 -27 -38.5 -57t-43 -61t-46.5 -59.5t-48 -52.5q-23 -23 -64.5 -40.5t-91 -23t-101.5 6.5t-96 48q-22 17 -38 43.5t-21 55.5q-6 38 4.5 75t33 69.5t54 57t67.5 37.5
q71 25 134.5 28.5t114 -4t85 -20.5t46.5 -19q9 -5 18 -10.5t17 -11.5q28 48 60 98t68.5 97.5t79 89.5t92.5 74l1 1q7 11 21 16t25 8q20 5 39.5 6t38.5 -1q6 -1 17 -3t23 -6t22 -10t13 -14q35 12 72 18.5t72 8t66.5 -0.5t55.5 -8q1 4 3 6.5t4 5.5q3 9 19.5 10.5t34.5 -0.5
t31.5 -7t11.5 -9zM524 269q9 13 16.5 25.5t16.5 24.5q-8 7 -16 13t-17 11t-32 12.5t-52.5 12t-61 3t-56.5 -13.5q-32 -15 -57 -41t-40.5 -58.5t-19 -68.5t8.5 -72q5 -15 13 -28q7 -11 18.5 -21.5t28.5 -15.5q26 -7 51 1t48.5 25.5t45 42.5t40.5 51.5t35.5 52t29.5 44.5z
M671 269q14 88 53.5 172t90.5 169q-12 -13 -22 -25.5t-21 -24.5q-45 -57 -83.5 -118t-77.5 -122q16 -14 30.5 -30t26.5 -33l1 2q0 2 2 10z" />
    <glyph glyph-name="ae" unicode="&#xe6;" horiz-adv-x="877" 
d="M908 305q5 -2 5 -13t-13 -22l-78 -62t-81 -57.5t-87.5 -46.5t-96.5 -28q-45 -6 -92.5 -6.5t-85 13.5t-59 47.5t-15.5 94.5q-20 -28 -52.5 -56t-71 -47t-78.5 -24t-74 13q-19 8 -33.5 21.5t-22.5 33.5q-13 32 -7.5 63.5t22.5 60.5q17 33 42.5 62t57 51.5t68 38t74.5 20.5
q13 2 39 2.5t53 -4.5t49 -18t27 -38q1 -8 0 -11q42 31 92 48t102 19q10 0 28 0.5t35.5 -3t30.5 -11.5t13 -24q0 -30 -17 -56t-42.5 -47.5t-56 -39t-57.5 -30.5q-18 -29 -23 -58t5.5 -50t36.5 -29t68 5q37 12 74.5 34t72 48t65 52.5t55.5 46.5q7 5 13.5 7.5t14.5 -0.5z
M341 332q24 35 54 58q-5 -1 -13.5 3.5t-20.5 8t-26 4.5t-29 -6q-17 -10 -43 -35t-48.5 -56t-36.5 -63.5t-7 -56.5q4 -12 13 -13t20.5 5.5t24.5 19t25 27.5q20 26 41 53.5t46 50.5zM640 426q-14 -6 -29 -20.5t-28 -33.5t-23 -39.5t-13 -38.5q19 12 38.5 27t33.5 32.5t20.5 36
t0.5 36.5z" />
    <glyph glyph-name="ccedilla" unicode="&#xe7;" horiz-adv-x="580" 
d="M190 41q28 -4 47.5 -23t15.5 -49q-2 -29 -24.5 -45.5t-48.5 -22.5q-15 -3 -33 -4.5t-35 1t-32 9t-25 20.5q-2 3 1.5 5.5t8.5 3.5t10 1.5t7 0.5q8 1 14.5 1.5t11.5 -7.5q12 -11 24 -11.5t21.5 5.5t16 17.5t8.5 25.5t-3.5 28.5t-18.5 23.5q-11 -9 -16 -17q-2 -4 -8 -5.5
t-13.5 -1.5t-14.5 0.5t-10 0.5q-2 0 -7 0.5t-10.5 1.5t-8.5 3t0 6q13 21 38 28q3 12 6 24.5t7 25.5q-40 5 -78 20.5t-60 53.5q-9 17 -11 35.5t1.5 37.5t10.5 37t15 34q17 30 41 56t54 44q35 22 73.5 33.5t77.5 16.5q23 2 45.5 4t45.5 2l11 7q10 5 22.5 5.5t23.5 1.5
q20 2 39.5 1.5t39.5 -0.5q14 -1 30 -1.5t31 -3.5l3.5 -1t6 -2.5t3 -3t-3.5 -3.5q-1 -2 -2.5 -2.5t-3.5 -2.5q-10 -10 -17.5 -22.5t-14.5 -25.5q-8 -14 -14.5 -28.5t-12.5 -29.5q-2 -5 -13 -6.5t-16 -2.5q-17 -3 -36 -3.5t-36 -0.5q-3 0 -19.5 1t-35.5 2.5t-33.5 4t-13.5 5.5
q5 13 10.5 26t11.5 25q-13 -8 -26 -17.5t-25 -20.5q-35 -41 -56 -85.5t-23.5 -82t17 -62t67.5 -23.5q10 2 19 4.5t17 4.5q32 10 59.5 28.5t54.5 38.5t51.5 39.5t49.5 39.5q21 17 43 32.5t45 32.5q9 6 17.5 4.5t13 -7.5t2.5 -14.5t-15 -16.5q-50 -34 -91.5 -68t-95.5 -72
q-30 -20 -60 -37.5t-65 -25.5l-6 -2l-10 -3q-28 -6 -55.5 -8t-53.5 1q-2 -9 -5 -18l-6 -18l33 -4v0z" />
    <glyph glyph-name="Euro" unicode="&#x20ac;" horiz-adv-x="536" 
d="M314 289q3 0 10 -0.5t14.5 -2t13 -4.5t5.5 -8t-5.5 -8t-12.5 -4.5t-14 -2t-11 -0.5h-122q-4 -28 -2 -54.5t12 -52.5q8 -21 21 -38t31 -27t41.5 -11.5t51.5 7.5q29 9 51 30.5t40 47.5q5 2 9.5 6t8.5 4q5 -2 9.5 -11t-10.5 -29q-23 -23 -49 -41.5t-55 -30.5
q-30 -10 -72 -14.5t-84 2.5t-78 27t-54 59q-13 29 -16.5 59t0.5 60q-11 0 -22.5 2.5t-15.5 10.5q-3 4 0 7t8 5t11 3.5t9 1.5h8t8 1q3 11 6 21t7 21q-5 0 -13 -0.5t-15.5 0t-14 2.5t-9.5 7q-4 5 -1 8.5t9 5.5t13 3t10 1q8 1 17 1.5t17 0.5q14 29 33 55t40 49q27 30 60 56.5
t70 47t77 32.5t80 14q32 -2 50 -12t27 -21q10 -13 12 -28q0 -14 -1 -26t-4 -23.5t-8 -24t-14 -28.5q-1 -10 -17.5 -19.5t-36 -15t-35.5 -5t-16 9.5q0 8 7 24t16 35t18 39t14 35.5t3.5 24.5t-13.5 6q-28 -11 -58.5 -32.5t-60 -50.5t-55 -64t-44.5 -74l96 1q3 0 10.5 -0.5
t15 -2t13.5 -4t6 -7.5q0 -6 -5.5 -9t-13 -4.5t-15 -1.5h-11.5l-108 -1q-4 -11 -7.5 -20.5t-5.5 -20.5l116 1v0z" />
    <glyph glyph-name="bracketleft" unicode="[" horiz-adv-x="256" 
d="M311 809q8 -2 7 -3.5t-7 -2.5q-8 -3 -17.5 -2.5t-18.5 2.5q-43 6 -85 3q-2 0 -5.5 -0.5t-8.5 -0.5q11 0 20 -2.5t9 -5.5q-5 -54 -11 -107.5t-12 -106.5q-23 -180 -55.5 -357t-74.5 -353h14h33h72q5 0 15 -2.5t10 -10.5t-10 -10t-15 -2h-121h-3q0 -2 -0.5 -2.5t-0.5 -2.5
q-1 -5 -9.5 -6.5t-17.5 -0.5t-16.5 3t-7.5 4l3 12q-7 5 -10 10.5t5 12.5q6 4 12 4q10 43 19 86t18 85q38 186 66.5 370.5t46.5 373.5q2 6 18 8q-11 -2 -17 2q-5 4 -0.5 5t8.5 1q77 8 147 -4z" />
    <glyph glyph-name="cent" unicode="&#xa2;" horiz-adv-x="327" 
d="M201 562q0 2 5.5 3t11.5 0.5t10.5 -2t3.5 -3.5l-12 -84q7 2 14 2.5t15 1.5q18 -2 28 -7t15 -11q5 -7 7 -16q0 -16 -3 -27.5t-13 -29.5q0 -6 -9.5 -11t-20.5 -8t-19.5 -2.5t-8.5 5.5q0 6 8 22t15 32t9.5 27.5t-7.5 9.5q-17 -6 -36 -20q-11 -66 -23 -130.5t-26 -130.5
q15 -2 32 4q17 5 29 17.5t22 26.5q3 1 5.5 3t4.5 2q3 -1 5.5 -6t-5.5 -16q-27 -27 -58 -40q-8 -3 -17.5 -4.5t-20.5 -3.5l-17 -78q0 -2 -5 -3t-11 -0.5t-10.5 2t-3.5 3.5l15 75q-29 2 -54 13t-37 37q-11 24 -10.5 49t8.5 49t22 45.5t30 38.5q20 21 44.5 39.5t52.5 29.5z
M116 226q5 -17 19 -30q11 54 21.5 107.5t19.5 107.5q-18 -19 -32.5 -41.5t-23.5 -47t-11 -49t7 -47.5z" />
    <glyph glyph-name="colon" unicode=":" horiz-adv-x="311" 
d="M221 364q1 -10 -4 -18t-10 -12q-10 -10 -27.5 -13.5t-35 -0.5t-30.5 14t-13 30q0 10 4 18.5t9 13.5q10 10 27.5 13.5t35 0t30 -15t14.5 -30.5zM191 197q1 -10 -4 -18t-10 -12q-10 -10 -27.5 -13.5t-35 -0.5t-30.5 14t-13 30q0 10 4 18.5t9 13.5q10 10 27.5 13.5t35 0
t30 -15t14.5 -30.5z" />
    <glyph glyph-name="semicolon" unicode=";" horiz-adv-x="311" 
d="M221 364q1 -10 -4 -18t-10 -12q-10 -10 -27.5 -13.5t-35 -0.5t-30.5 14t-13 30q0 10 4 18.5t9 13.5q10 10 27.5 13.5t35 0t30 -15t14.5 -30.5zM80 196q-5 9 0 18.5t15.5 17t25 11.5t28 2.5t24.5 -10t15 -26.5q3 -22 -6.5 -49.5t-27.5 -51.5t-41.5 -39.5t-48.5 -12.5
q-1 0 -6 0.5t-10 2t-8 4t0 5.5q16 15 25.5 33t14 35.5t4.5 33t-4 26.5z" />
    <glyph glyph-name="percent" unicode="%" horiz-adv-x="471" 
d="M354 601q1 3 6.5 3.5t10.5 0t8.5 -2t1.5 -4.5q-16 -32 -31 -62.5t-32 -62.5q-56 -109 -113 -216.5t-117 -216.5q-1 -3 -6 -3.5t-10 0t-9 2t-2 4.5q17 31 33.5 61.5t32.5 60.5q59 108 115.5 217t111.5 219zM198 586q14 -15 21 -38t0 -49q-7 -23 -20.5 -34.5t-28.5 -19.5
q-19 -10 -39.5 -13t-41.5 -1q-15 1 -33 7.5t-26 28.5q-7 22 -2.5 49.5t12.5 47.5q17 29 41 38t52 9q17 0 34 -5.5t31 -19.5zM141 457q19 13 29 39.5t0 57.5q-5 14 -14 24.5t-20 17.5q-2 1 -4.5 1t-4.5 1q-11 -5 -24 -17t-18 -29q-5 -12 -7.5 -28t-2.5 -30q1 -35 21 -48
q11 -5 23 -0.5t22 11.5zM404 189q14 -15 21 -38t0 -49q-7 -23 -20.5 -34.5t-28.5 -19.5q-19 -10 -39.5 -13t-41.5 -1q-15 1 -33 7.5t-26 28.5q-7 22 -2.5 49.5t12.5 47.5q17 29 41 38t52 9q17 0 34 -5.5t31 -19.5zM347 60q19 13 29 39.5t0 57.5q-5 14 -14 24.5t-20 17.5
q-2 1 -4.5 1t-4.5 1q-11 -5 -24 -17t-18 -29q-5 -12 -7.5 -28t-2.5 -30q1 -35 21 -48q11 -5 23 -0.5t22 11.5z" />
    <glyph glyph-name="quotedbl" unicode="&#x22;" horiz-adv-x="324" 
d="M89 747q-5 10 3 20.5t19.5 15t23.5 -0.5t15 -25q2 -13 -3 -33.5t-14.5 -39t-23 -31.5t-29.5 -11q-2 0 -9.5 2.5t-4.5 6.5q17 22 22.5 50.5t0.5 45.5zM191 747q-5 10 3 20.5t19.5 15t23.5 -0.5t15 -25q2 -13 -3 -33.5t-14.5 -39t-23 -31.5t-29.5 -11q-2 0 -9.5 2.5
t-4.5 6.5q17 22 22.5 50.5t0.5 45.5z" />
    <glyph glyph-name="quoteright" unicode="&#x2019;" horiz-adv-x="229" 
d="M89 747q-5 10 3 20.5t19.5 15t23.5 -0.5t15 -25q2 -13 -3 -33.5t-14.5 -39t-23 -31.5t-29.5 -11q-2 0 -9.5 2.5t-4.5 6.5q17 22 22.5 50.5t0.5 45.5z" />
    <glyph glyph-name="quoteleft" unicode="&#x2018;" horiz-adv-x="229" 
d="M128 672q4 -10 -3.5 -20.5t-19 -15t-23.5 0.5t-15 25q-2 13 3 33.5t14.5 39t23 31.5t29.5 11q2 0 9.5 -2.5t4.5 -6.5q-17 -22 -22.5 -50.5t-0.5 -45.5z" />
    <glyph glyph-name="quotedblright" unicode="&#x201d;" horiz-adv-x="324" 
d="M89 747q-5 10 3 20.5t19.5 15t23.5 -0.5t15 -25q2 -13 -3 -33.5t-14.5 -39t-23 -31.5t-29.5 -11q-2 0 -9.5 2.5t-4.5 6.5q17 22 22.5 50.5t0.5 45.5zM191 747q-5 10 3 20.5t19.5 15t23.5 -0.5t15 -25q2 -13 -3 -33.5t-14.5 -39t-23 -31.5t-29.5 -11q-2 0 -9.5 2.5
t-4.5 6.5q17 22 22.5 50.5t0.5 45.5z" />
    <glyph glyph-name="quotedblleft" unicode="&#x201c;" horiz-adv-x="324" 
d="M230 677q4 -10 -3.5 -20.5t-19 -15t-23.5 0.5t-15 25q-2 13 3 33.5t14.5 39t23 31.5t29.5 11q2 0 9.5 -2.5t4.5 -6.5q-17 -22 -22.5 -50.5t-0.5 -45.5zM128 677q4 -10 -3.5 -20.5t-19 -15t-23.5 0.5t-15 25q-2 13 3 33.5t14.5 39t23 31.5t29.5 11q2 0 9.5 -2.5t4.5 -6.5
q-17 -22 -22.5 -50.5t-0.5 -45.5z" />
    <glyph glyph-name="numbersign" unicode="#" horiz-adv-x="582" 
d="M481 246q2 0 5.5 -5.5t5.5 -11.5t3 -11t-2 -5q-30 -1 -60.5 -1.5t-61.5 -0.5q-19 -35 -38 -70.5t-39 -70.5q-1 -2 -7.5 -3t-13.5 -0.5t-12 2t-4 3.5q20 35 39 69.5t39 69.5h-82t-81 1l-78 -142q-1 -2 -7.5 -3t-13.5 -0.5t-12 2t-4 3.5q20 35 39.5 70t39.5 71
q-22 0 -43 0.5t-43 1.5q-2 0 -5.5 5.5t-5.5 12t-3 12t1 5.5q29 -2 58 -2.5t58 -1.5l57 107l-112 3q-2 0 -5.5 5.5t-5.5 12t-3 12t1 5.5q35 -2 70.5 -3t71.5 -2l69 137q1 2 7 3t13 0.5t11.5 -2t3.5 -3.5q-17 -34 -34 -67.5t-34 -67.5q82 -1 164 0l69 137q1 2 7 3t13 0.5
t11.5 -2t3.5 -3.5q-17 -34 -34 -67.5t-34 -67.5q17 0 33 0.5t33 0.5q2 0 5.5 -5.5t5.5 -11.5t3 -11t-2 -5l-95 -2l-57 -107q23 0 46 0.5t46 0.5zM246 353q-14 -27 -28.5 -54t-28.5 -54q42 0 82 -0.5t82 0.5q14 26 28 53l28 54h-81t-82 1z" />
    <glyph glyph-name="ampersand" unicode="&#x26;" horiz-adv-x="577" 
d="M540 -15q8 -2 8 -5t-8 -5q-17 -4 -39 -5t-43 3.5t-39.5 15.5t-29.5 29q-24 -24 -71 -37.5t-98.5 -13.5t-98 14t-70.5 44q-18 22 -26.5 50t-4.5 57q4 32 18.5 60t36.5 51t49.5 41t56.5 32q-46 19 -66 45t-20.5 54.5t15.5 57t42 53.5t59 44.5t66 29.5q34 10 69.5 14t68 0.5
t59 -16.5t43.5 -38q14 -21 20 -46t-2 -49q-2 -6 -11 -11t-20.5 -8.5t-22.5 -5.5t-15 -1q-10 1 -19.5 6.5t-6.5 16.5q0 1 0.5 1t0.5 1v1q5 12 4 29.5t-7 35t-16 31.5t-22 19q-26 9 -54 3.5t-53.5 -22.5t-45.5 -44.5t-30 -62.5q-4 -12 -6 -30.5t9 -33.5t40 -22t88 3
q12 6 24 11t20 5t10 -6.5t1 -15.5t-4.5 -19t-6.5 -16q-7 -11 -14.5 -12.5t-16.5 -3.5l-1 1q-16 0 -33 -2q-14 -2 -31.5 -5.5t-31.5 -8.5q-14 -6 -32.5 -16.5t-36 -25t-32.5 -33t-21 -39.5q-7 -24 -8.5 -58t13.5 -65q4 -7 13 -17.5t23 -20t33 -17t44 -8.5q29 -2 58.5 10.5
t53.5 30.5q-4 5 -8.5 14t-8.5 21q-1 3 -1.5 5.5t-1.5 6.5q-5 26 -3.5 55t12.5 54q5 11 13 24t21 19q7 1 19 4t24 4t23 -0.5t18 -8.5q14 -11 19.5 -26.5t5 -32.5t-5.5 -34t-12 -30q-11 -22 -26.5 -40t-34.5 -34q10 -24 24 -34t29.5 -14t31.5 -4t30 -4zM409 82q2 -2 2 -5t1 -5
q27 25 35 40q11 20 18 48t-3 51q-3 4 -7 6q-8 4 -15 -1q-4 -3 -11 -14.5t-13 -29t-9 -39t0 -43.5q0 -2 1 -4t1 -4z" />
    <glyph glyph-name="asterisk" unicode="*" horiz-adv-x="370" 
d="M279 673q2 0 11.5 -2.5t5.5 -7.5q-1 -3 -5.5 -4t-9.5 -1t-10 1t-7 1q-12 2 -24 3t-23 3q9 -11 18 -21t17 -21q3 -2 1 -4t-6 -3l-8 -2t-5 -1q-7 0 -17 0.5t-15 6.5q-3 2 -5.5 5t-6.5 7q-4 -9 -7.5 -17.5t-7.5 -16.5q-2 -5 -11 -6t-18.5 0t-16.5 3.5t-5 6.5q5 12 11 24
t11 23q-11 -4 -22.5 -7.5t-23.5 -7.5q-8 -4 -18.5 -3.5t-17.5 7.5q-6 5 -6 11.5t8 10.5q24 9 48 17q-8 2 -17 3t-19 2q-2 0 -11 2.5t-6 7.5q2 5 15 4.5t18 -0.5q11 -2 22 -3.5t22 -3.5l-42 42q-3 2 -0.5 4t6 3t7.5 1.5t5 0.5q8 1 18 0.5t15 -5.5q6 -6 13 -12.5t14 -12.5
q5 10 9 19.5t8 19.5q2 3 10.5 5t18 1.5t17 -2.5t7.5 -6v-14q-1 -3 -10 -7q-2 -3 -3 -6.5t-3 -6.5q8 3 17 5t17 5q8 2 19 0t16 -10t0.5 -13.5t-11.5 -7.5q-14 -3 -26.5 -7t-25.5 -7l45 -6v0z" />
    <glyph glyph-name="plus" unicode="+" horiz-adv-x="274" 
d="M197 284h6t10 -1t9.5 -3t4.5 -5q-1 -8 -13.5 -9t-16.5 -1h-43q-2 -14 -3.5 -29t-3.5 -30q-1 -10 -8.5 -14t-16 -3.5t-15.5 5t-6 12.5l4 28l4 28q-5 0 -11 -0.5t-11 -1.5q-9 -1 -21 -1.5t-20 4.5q-8 6 -0.5 9.5t11.5 4.5q14 2 27 3t27 2q2 13 3.5 25.5t4.5 24.5
q1 10 9 15.5t16 5.5t14.5 -5t4.5 -16q-2 -12 -3.5 -24t-3.5 -24h41v0z" />
    <glyph glyph-name="hyphen" unicode="-" horiz-adv-x="349" 
d="M94 259q-8 0 -21 0.5t-17 9.5q-2 4 0 6.5t6 4.5t8.5 3t6.5 1q44 2 86.5 4t86.5 0q2 0 7 -0.5t10 -1.5t9 -3.5t4 -6.5q-1 -9 -13 -11.5t-17 -1.5q-40 1 -79 -0.5t-77 -3.5z" />
    <glyph glyph-name="less" unicode="&#x3c;" horiz-adv-x="354" 
d="M299 426q-38 -48 -84.5 -91t-102.5 -82q-1 0 -5 -3q21 -8 48.5 -23t55 -33t52.5 -36.5t43 -31.5q6 -6 0.5 -10t-10.5 -6q-9 -2 -19.5 -1t-18.5 5q-19 13 -44.5 31t-53.5 36.5t-55.5 34.5t-49.5 24q-7 2 -7 5t3 7t7.5 7.5t6.5 7.5q103 69 181 165q4 4 14.5 5.5t20.5 0.5
t16 -4t2 -8z" />
    <glyph glyph-name="equal" unicode="=" horiz-adv-x="294" 
d="M217 309q2 0 7 -0.5t10.5 -1.5t9.5 -3.5t4 -6.5q0 -5 -4 -7.5t-9 -4t-10 -1.5h-8q-32 0 -64 -1t-64 -3q-7 -1 -20 -0.5t-17 8.5q-5 9 5.5 12.5t15.5 3.5q36 3 72 4.5t72 0.5zM213 248q2 0 7 -0.5t10 -1.5t9 -4t4 -7q0 -5 -3.5 -7.5t-8.5 -3.5t-10 -1.5t-8 -0.5
q-32 2 -64 0.5t-64 -4.5q-7 -1 -20 -0.5t-17 10.5q-2 4 0 6.5t6 4.5t8 3t6 1q37 3 73 5t72 0z" />
    <glyph glyph-name="greater" unicode="&#x3e;" horiz-adv-x="330" 
d="M39 426q-5 5 1.5 8t16.5 4t20.5 -0.5t14.5 -5.5q78 -96 181 -165q2 -4 6.5 -7.5t7.5 -7.5t3 -7t-7 -5q-22 -8 -49.5 -24t-55.5 -34.5t-53.5 -36.5t-44.5 -31q-8 -4 -18.5 -5t-19.5 1q-5 2 -10.5 6t0.5 10q18 13 43 31.5t52.5 36.5t55 33t48.5 23l-5 3q-56 39 -102.5 82
t-84.5 91z" />
    <glyph glyph-name="underscore" unicode="_" horiz-adv-x="597" 
d="M115 42q-8 0 -21 0.5t-17 9.5q-2 4 0 6.5t6 4.5t8.5 3t6.5 1q14 1 45 1.5t70 1.5t82.5 1.5t82.5 0.5h69.5t45.5 -1q2 0 7 -0.5t10 -1.5t9 -3.5t4 -6.5q-1 -9 -13 -11.5t-17 -1.5h-42.5h-67.5t-80 -0.5t-79.5 -1t-66.5 -1t-42 -1.5z" />
    <glyph glyph-name="sterling" unicode="&#xa3;" horiz-adv-x="623" 
d="M563 97q3 0 10 -1.5t13.5 -4t10 -5.5t-0.5 -7q-3 -5 -10 -7.5t-16 -3t-18 0t-15 0.5q-103 8 -208 8t-212 -14q-14 -5 -31.5 -6t-33.5 2l-10 2.5t-10 4t-4.5 6t7.5 6.5q25 9 53 14q27 26 43 55t26 59q8 24 11 48.5t5 48.5q-9 -1 -18 -1h-17h-15.5t-20 0.5t-19.5 2.5t-13 7
q-4 4 0 7t11.5 4.5t15.5 2.5t12 1q17 1 33.5 1.5t33.5 0.5q1 10 1 19v17q-8 -1 -15.5 -1t-15.5 -1h-16t-20.5 0.5t-19 2.5t-12.5 7q-4 4 0 7t11 4.5t15 2.5t11 1q34 1 63 3q2 17 4.5 34t5.5 35q3 20 8.5 42t15.5 43t26 39.5t41 31.5q21 11 51 16t62 4t63 -8t53 -20
q28 -18 44.5 -42.5t21.5 -50.5q0 -3 -7 -5t-16 -2.5t-17 1.5t-9 6q-4 20 -15.5 40.5t-31.5 36.5q-10 8 -23 14t-27 8q-32 6 -55 -4t-39.5 -29.5t-27 -46t-16.5 -53t-9 -50t-4 -38.5q52 3 102 0q4 0 13.5 -0.5t19 -1.5t17 -3.5t7.5 -6.5q-1 -5 -8 -7.5t-16.5 -3.5t-18.5 -1.5
t-14 -0.5q-25 1 -51 0.5t-52 -0.5q0 -20 -4 -36h100q4 0 13 -0.5t19 -1.5t17.5 -4t7.5 -7q0 -5 -7.5 -7.5t-17 -4t-19 -2t-13.5 -0.5q-51 1 -101 0q-4 -53 -18.5 -104.5t-55.5 -97.5q90 3 182 2.5t184 -8.5z" />
    <glyph glyph-name="currency" unicode="&#xa4;" horiz-adv-x="352" 
d="M297 284q-6 -17 -19.5 -29.5t-30.5 -23.5q8 -15 17.5 -29t17.5 -27q4 -6 -3 -9.5t-17.5 -5t-20.5 0t-13 6.5q-8 12 -14.5 22.5t-13.5 21.5q-3 -1 -11 -1q-29 -6 -62 0q-8 -11 -16 -20.5t-16 -18.5q-5 -7 -16 -9t-20.5 0.5t-14.5 8t1 14.5q8 12 18 23t18 23q-5 4 -8.5 9
t-6.5 12q-15 28 -1 52.5t40 39.5h-2q-1 0 -1 1q-5 19 -14.5 35t-20.5 31q-2 3 0 5t6 3.5t8 2t6 0.5q7 0 18.5 -0.5t16.5 -5.5q12 -14 20.5 -30.5t15.5 -34.5q1 0 3 -2q16 -4 0 -11q-24 -9 -37 -31.5t-5 -45.5q8 -21 29 -33q11 -5 18 -3.5t17 6.5t20.5 13t19 17t14 20t5.5 22
q-2 23 -20.5 31.5t-38.5 13.5q-13 4 0 14q8 0 11 1q15 19 42 34q3 1 7.5 1t9.5 2h10.5t11.5 -2q3 -1 10.5 -2.5t-0.5 -6.5q-20 -10 -38 -33q-1 0 -1 -0.5t-1 -0.5h-1q12 -4 23.5 -10t20 -15t11.5 -20t-2 -26z" />
    <glyph glyph-name="yen" unicode="&#xa5;" horiz-adv-x="528" 
d="M334 418q-3 -18 -7 -36t-8 -37h37q3 0 10 -0.5t15 -2t13.5 -4.5t5.5 -8t-5.5 -7.5t-13 -3.5t-14.5 -1.5t-11 -0.5h-43q-2 -11 -3.5 -20.5t-3.5 -19.5h43q3 0 10.5 -0.5t15 -2t13.5 -4.5t6 -8t-5.5 -7.5t-13 -4.5t-15 -2.5t-11.5 -0.5q-12 1 -24 1h-25q-9 -48 -16.5 -97
t-15.5 -98q-46 -2 -62.5 18t-17 50t8.5 64t13 61q-13 -1 -25 -1.5t-26 -1.5q-5 0 -13 -0.5t-16 0.5t-15.5 3.5t-10.5 7.5q-3 4 0 7.5t9 5t12.5 2.5t9.5 1q20 2 40 3l40 2q2 10 4 19.5t4 19.5q-14 -1 -29 -1t-29 -2q-5 0 -13 -0.5t-16 0.5t-15.5 4t-10.5 8q-3 4 0.5 7t9 5
t12 3.5t9.5 1.5q22 1 43.5 2t44.5 2q4 22 8.5 43.5t8.5 42.5q-2 1 -3.5 2t-3.5 2q-54 38 -106.5 76t-102.5 78q-5 4 -1 6.5t11.5 3.5t16 0.5t12.5 -3.5q48 -38 97 -73.5t100 -70.5q38 40 74 79.5t74 80.5q8 9 25 10.5t32.5 -2t23.5 -11.5t-2 -19q-41 -43 -80 -85t-79 -86z
" />
    <glyph glyph-name="germandbls" unicode="&#xdf;" horiz-adv-x="585" 
d="M375 433q49 0 88.5 -24t62 -62t24.5 -86t-24 -97q-20 -36 -55 -56t-77 -29t-86 -8t-82 7q-5 0 -12.5 2t-14.5 5t-11 8t0 13q4 7 12.5 9t18.5 1t19.5 -2.5t16.5 -2.5q47 -9 83 3t58.5 38t29.5 60.5t-2.5 69.5t-37.5 66t-76 50q-32 11 -54 14.5t-25 11.5q-3 7 2.5 12
t15.5 7.5t20 4t16 1.5q28 6 55 16t50.5 25t41 35.5t25.5 47.5q7 32 -4 54.5t-32 34.5t-48 13t-52 -11q-28 -13 -54.5 -47.5t-50 -82t-43 -102t-33 -107.5t-21 -99.5t-6.5 -76.5q1 -24 1.5 -37.5t0.5 -21.5t-1 -12t-4 -7q-4 -5 -19 -2t-33 11.5t-35.5 23t-26.5 34.5
q-15 32 -15 80t12.5 103t34.5 112t51 107.5t62 89.5t68 57q27 14 59 21.5t65.5 8.5t66.5 -4.5t62 -17.5q18 -7 33 -18.5t25.5 -25.5t15 -31t1.5 -36q-5 -29 -19.5 -52.5t-36.5 -42.5t-49 -33t-57 -23z" />
    <glyph glyph-name="multiply" unicode="&#xd7;" horiz-adv-x="274" 
d="M190 238q1 -1 4.5 -4t7 -7.5t5.5 -8.5t0 -7q-3 -3 -7 -1.5t-8.5 4t-8.5 5.5t-5 4q-9 8 -16.5 14t-16.5 14q-11 -10 -22 -19.5t-22 -20.5q-7 -7 -15.5 -5t-14.5 8t-8 13.5t4 13.5q10 10 20.5 19t21.5 18q-4 4 -8.5 7t-9.5 6q-8 5 -17 12.5t-12 16.5q-2 10 6 8t11 -4
q11 -8 22.5 -16t22.5 -16q9 9 18.5 17t19.5 16q8 7 17.5 6t16 -6.5t7.5 -13.5t-7 -15l-18 -16t-19 -16q8 -7 15.5 -13t15.5 -13z" />
    <glyph glyph-name="divide" unicode="&#xf7;" horiz-adv-x="355" 
d="M78 257q-8 0 -21 0.5t-17 9.5q-2 4 0 6.5t6 4.5t8.5 3t6.5 1q22 1 51 2.5t59 2.5t59 1.5t51 -0.5q2 0 7 -0.5t10 -1.5t9 -3.5t4 -6.5q-1 -9 -13 -11.5t-17 -1.5q-20 0 -47 -0.5t-55.5 -1t-55 -2t-45.5 -2.5zM252 364q1 -10 -4 -18t-10 -12q-10 -10 -27.5 -13.5t-35 -0.5
t-30.5 14t-13 30q0 10 4 18.5t9 13.5q10 10 27.5 13.5t35 0t30 -15t14.5 -30.5zM222 197q1 -10 -4 -18t-10 -12q-10 -10 -27.5 -13.5t-35 -0.5t-30.5 14t-13 30q0 10 4 18.5t9 13.5q10 10 27.5 13.5t35 0t30 -15t14.5 -30.5z" />
    <glyph glyph-name="OE" unicode="&#x152;" horiz-adv-x="1174" 
d="M588 686q32 -17 51.5 -43.5t30.5 -59.5q25 29 54 52t52 37q39 24 85 37.5t92.5 19t88.5 3.5t73 -9q1 4 3 6.5t4 5.5q3 9 19.5 10.5t34.5 -0.5t31.5 -7t11.5 -9q-10 -14 -17.5 -34.5t-13 -43t-8 -45.5t-2.5 -44q0 -7 -15 -11t-34 -4t-34.5 3.5t-15.5 11.5q-1 68 23 131
q-64 0 -121.5 -26t-105.5 -71q-18 -19 -34.5 -42.5t-25 -48.5t-5.5 -50.5t24 -47.5q17 -12 42 -16.5t50 -6t46.5 -1.5t32.5 -1q6 -1 9 -4.5t3 -5.5q0 -14 -14.5 -28.5t-32.5 -25t-35 -16t-23 -2.5q-10 5 -26 7.5t-32 3.5t-29.5 1h-18.5h-9q-56 0 -98 -26t-66 -64t-27 -81
t17 -78t66 -54.5t122 -9.5q66 8 139 44t135 92q15 15 28.5 19.5t17.5 -1.5t-4 -22.5t-36 -43.5q-47 -42 -108 -72.5t-130 -45.5t-143 -12t-147 28q-44 15 -77 49q-38 -32 -81.5 -54t-91 -32.5t-98.5 -7.5t-103 22q-39 18 -62 49t-31 70t-4 82.5t19 87.5q-7 8 -12.5 17.5
t-8.5 19.5q-15 38 -13.5 79t15.5 81t38 77.5t56 69.5q41 40 83.5 65.5t84 39.5t80.5 18t74 3q81 -4 157 -35zM473 302q25 27 58 48t69 30q4 20 5.5 40t2.5 40q1 35 -5 78t-23.5 78.5t-49 54t-81.5 5.5q-40 -14 -78 -39t-70 -58.5t-56.5 -73.5t-36.5 -83q7 0 14 -0.5t13 -1.5
q14 -2 30.5 -8t25.5 -16q7 -8 9 -20t-6 -23q-17 -19 -30 -41.5t-28 -54.5q11 -8 27 -12q14 -4 34.5 -6t49.5 3q21 3 40.5 10t36 16t29 18t20.5 16zM342 -15q65 30 115 86q-20 32 -28 69t-2 75q1 9 5 22q-49 -25 -104 -35t-111 0q-7 -21 -10 -58.5t2.5 -74t22.5 -65t50 -31.5
q11 -2 25 0t31 10z" />
    <glyph glyph-name="oe" unicode="&#x153;" horiz-adv-x="897" 
d="M928 305q5 -2 5 -13t-13 -22l-78 -62t-81 -57.5t-87.5 -46.5t-96.5 -28q-32 -5 -68.5 -4.5t-70 7t-60.5 21t-41 37.5q-29 -31 -62.5 -46t-65 -20.5t-58 -3.5t-41.5 5q-46 8 -81 31.5t-49 70.5q-11 34 -4.5 70.5t22.5 68.5q3 6 6 11t7 11q-2 0 -2 2q-12 27 -5.5 52t24 46
t41.5 36.5t48 22.5q35 10 72.5 10.5t72.5 -10.5q6 -2 17.5 -8.5t11.5 -15.5q0 -2 -1 -4q23 -6 43 -16.5t36 -26.5q19 -20 28 -48q42 40 99 61.5t116 23.5q10 0 28 0.5t35.5 -3t30.5 -11.5t13 -24q0 -34 -21 -62.5t-51 -51.5t-64.5 -40.5t-61.5 -29.5q-10 -34 -7 -60.5
t17.5 -43.5t40.5 -22t61 5q37 12 74.5 34t72 48t65 52.5t55.5 46.5q7 5 13.5 7.5t14.5 -0.5zM324 192q-1 25 3.5 51t12.5 48q-11 -1 -22.5 -0.5t-22.5 0.5q-48 -2 -98 9q-18 -23 -27.5 -49.5t-11 -50.5t6 -43t23.5 -28.5t40.5 -6t58.5 24.5q22 17 37 45zM353 350
q-5 38 -28 63t-54 36q-2 -1 -4.5 -2t-4.5 -1l-9 -3h-1l-4 -3l-7 -4l-2 -2q-3 -3 -4 -3l-8 -10h3q7 -2 19 -5.5t20.5 -9.5t9.5 -13t-13 -16q-10 -6 -14.5 -9t-12.5 -11q-5 -6 -11 -12t-11 -13q23 -5 47.5 -7t48.5 -2q11 1 21.5 1.5t20.5 0.5v12t-2 13zM660 426
q-12 -7 -28 -22t-33 -34.5t-33 -43.5t-29 -49q21 10 45.5 26.5t44.5 36.5t30 42t3 44z" />
    <glyph glyph-name="I" unicode="I" horiz-adv-x="479" 
d="M570 700q11 -15 5.5 -43t-23 -65.5t-43 -82t-54 -92.5t-57 -97t-51.5 -96q-10 -21 -22 -46.5t-21 -53t-11.5 -55t5.5 -52.5q3 -7 7 -9q3 -3 4 -3q1 -1 1 -2q8 -3 12 -9t-1 -13q-9 -11 -34 -16.5t-54 -5.5t-56.5 4t-41.5 12q-29 13 -38.5 39t-5.5 56q9 67 43.5 140.5
t79 148.5t90.5 148.5t78 139.5q1 3 5.5 13t5 20t-6.5 16t-28 -1q-18 -8 -47 -26.5t-60 -44t-59.5 -57t-46.5 -66t-20 -70.5t21 -70q1 -2 -9 -4t-22 -3.5t-23 -2.5l-11 -1q-8 -1 -16 -1t-16 4q-25 15 -35.5 42t-6.5 55q5 32 23.5 58.5t41.5 47.5q54 51 118 89.5t133 64.5
q22 9 49 14.5t54.5 7t53 0t44.5 -6.5q12 -3 25.5 -8.5t20.5 -16.5z" />
    <glyph glyph-name="n" unicode="n" horiz-adv-x="860" 
d="M852 239q-80 -68 -136.5 -103.5t-108.5 -36.5q-2 -1 -22 -1t-47 7t-54 23.5t-42.5 48t-14 81.5t33.5 123q-25 -15 -47.5 -31t-44.5 -33q-64 -50 -123.5 -102t-119.5 -106q0 -3 -5 -3q-1 -3 -3 -5q-5 -11 -21.5 -17.5t-36 -9t-39 -2.5t-29.5 1q-9 1 -23 4t-27 8.5
t-19.5 14t-0.5 21.5q38 85 73.5 169.5t77.5 167.5q6 11 21 15.5t26 7.5q19 5 39 5.5t40 -1.5q8 -1 22.5 -3.5t27 -8t20 -14t1.5 -21.5q-32 -64 -59.5 -128t-56.5 -130q9 8 18.5 17t20.5 17q49 44 99.5 85t107.5 77q39 27 85 47q2 5 5.5 9.5t5.5 8.5q5 10 21 14t26 6
q20 4 39.5 4.5t38.5 -1.5q7 0 21.5 -2t27.5 -6.5t21 -11.5t1 -18q-17 -29 -33 -58t-30 -60q-10 -23 -20.5 -53t-15.5 -57.5t-1.5 -48t22.5 -26.5q40 7 73.5 26.5t63.5 45.5t58.5 55.5t58.5 57.5q6 6 14 5.5t14 -4t8.5 -9.5t-3.5 -11l-49 -50v0z" />
    <glyph glyph-name="o" unicode="o" horiz-adv-x="539" 
d="M572 370q16 5 25 2t12 -9t-0.5 -12.5t-12.5 -9.5q-49 -17 -93 -28t-95 -18v-1q-2 -34 -12.5 -61.5t-27.5 -56.5q-27 -46 -64.5 -69.5t-74 -32t-68.5 -7t-49 4.5q-46 8 -81 31.5t-49 70.5q-11 34 -4.5 70.5t22.5 68.5q3 6 6 11t7 11q-2 0 -2 2q-12 27 -5.5 52t24 46
t41.5 36.5t48 22.5q35 10 72.5 10.5t72.5 -10.5q6 -2 17.5 -8.5t11.5 -15.5q0 -2 -1 -4q23 -6 43 -16.5t36 -26.5q18 -19 26.5 -43t10.5 -50q42 6 83 16t81 24zM355 350q-5 38 -28 63t-54 36q-2 -1 -4.5 -2t-4.5 -1l-9 -3h-1q-2 -2 -4 -3q-4 -2 -7 -4l-2 -2q-3 -3 -4 -3
q-2 -2 -4 -4.5t-4 -5.5h3q7 -2 19 -5.5t20.5 -9.5t9.5 -13t-13 -16q-10 -6 -14.5 -9t-12.5 -11q-5 -6 -11 -12t-11 -13q23 -5 47.5 -7t48.5 -2q11 1 21.5 1.5t20.5 0.5v12t-2 13zM336 213q9 21 13.5 38.5t6.5 40.5q-14 -1 -29.5 -1h-29.5q-48 -2 -98 9q-18 -23 -27.5 -49.5
t-11 -50.5t6 -43t23.5 -28.5t40.5 -6t58.5 24.5q16 13 27.5 29.5t19.5 36.5z" />
    </font>
</defs>
</svg>
